<?xml version="1.0" encoding="UTF-8" standalone="no"?>
<!-- Created with Inkscape (http://www.inkscape.org/) -->

<svg
   width="456.20004mm"
   height="81.550224mm"
   viewBox="0 0 456.20004 81.550224"
   version="1.1"
   id="svg1"
   xmlns:inkscape="http://www.inkscape.org/namespaces/inkscape"
   xmlns:sodipodi="http://sodipodi.sourceforge.net/DTD/sodipodi-0.dtd"
   xmlns="http://www.w3.org/2000/svg"
   xmlns:svg="http://www.w3.org/2000/svg">
  <sodipodi:namedview
     id="namedview1"
     pagecolor="#505050"
     bordercolor="#eeeeee"
     borderopacity="1"
     inkscape:showpageshadow="0"
     inkscape:pageopacity="0"
     inkscape:pagecheckerboard="0"
     inkscape:deskcolor="#505050"
     inkscape:document-units="mm">
    <inkscape:page
       x="0"
       y="0"
       width="456.20004"
       height="81.550224"
       id="page2"
       margin="0"
       bleed="0" />
  </sodipodi:namedview>
  <defs
     id="defs1" />
  <g
     inkscape:label="Layer 1"
     inkscape:groupmode="layer"
     id="layer1"
     transform="translate(237.06667,-61.647902)">
    <path
       id="path66"
       d="m 219.13338,132.85009 v 10.34803 h -428.94812 l 10.42211,-10.33886 z"
       style="fill:#dddbd9;fill-opacity:1;fill-rule:nonzero;stroke:none;stroke-width:0.352778" />
    <path
       id="path67"
       d="m -82.524849,97.970253 c 1.286228,-1.286228 2.342444,-2.687108 3.217333,-4.182533 1.855258,-3.172178 2.807053,-6.804025 2.807053,-10.913886 0,-7.073547 -2.026356,-12.382499 -6.075892,-15.920507 -4.05271,-3.538008 -9.509477,-5.305425 -16.37559,-5.305425 H -116.86953 L -135.408,80.219534 v 17.799755 31.734831 h 18.53847 V 96.43567 79.051135 h 12.97517 c 3.09033,0 5.269087,0.623358 6.540498,1.870427 1.269294,1.246717 1.905,2.97815 1.905,5.193242 0,2.218972 -0.721784,4.053063 -2.163939,5.505802 -1.442156,1.455561 -3.536599,2.182283 -6.281559,2.182283 h -8.95879 l 2.14841,2.154767 33.688163,33.762944 V 108.047 l -7.881408,-8.075792 c 0.829381,-0.605719 1.631597,-1.256241 2.373136,-2.000955"
       style="fill:#dddbd9;fill-opacity:1;fill-rule:nonzero;stroke:none;stroke-width:0.352778" />
    <path
       id="path68"
       d="m -54.057694,79.462516 9.061802,-0.206022 c 4.736395,0 8.804628,1.685925 12.203289,5.057775 2.148416,2.133952 3.613855,4.524727 4.403724,7.170208 0.460023,1.537405 0.693209,3.15983 0.693209,4.872919 0,4.379384 -1.458736,8.202784 -4.376914,11.471624 -2.917472,3.26602 -6.5405,4.90009 -10.865555,4.90009 h -7.620705 v 17.0762 h 8.65258 c 9.062155,0 16.664869,-3.51366 22.809199,-9.9635 6.14433,-6.44948 9.219141,-14.26175 9.219141,-23.436437 0,-1.906411 -0.188031,-3.746852 -0.481542,-5.547077 C -11.515518,83.74806 -14.917354,77.465088 -20.640821,72.044305 -27.817026,65.249453 -36.382117,61.853614 -46.3368,61.853614 h -7.720894 l -18.538471,18.565283 v 13.202354 36.081409 h 18.538471 V 92.613013 79.462516"
       style="fill:#dddbd9;fill-opacity:1;fill-rule:nonzero;stroke:none;stroke-width:0.352778" />
    <path
       id="path69"
       d="m 30.549044,61.887013 v 11.431411 13.868046 1.861608 14.306902 c 0,2.33398 -0.874889,4.29225 -2.627136,5.86952 -1.749425,1.57974 -3.759553,2.3696 -6.023327,2.3696 -2.403123,0 -4.479572,-0.80821 -6.23182,-2.42464 -1.749424,-1.61572 -2.624313,-3.55917 -2.624313,-5.82965 V 89.365931 61.887013 L -5.4956709,80.452295 v 9.388828 13.268677 c 0,7.35859 2.6602971,13.59923 7.9815969,18.7205 5.3205941,5.12375 11.652249,7.68456 19.001316,7.68456 7.415035,0 13.83171,-2.57563 19.258138,-7.72371 5.421135,-5.15162 8.13576,-11.36227 8.13576,-18.64219 V 88.848406 71.051826 61.887013 Z"
       style="fill:#dddbd9;fill-opacity:1;fill-rule:nonzero;stroke:none;stroke-width:0.352778" />
    <path
       id="path70"
       d="m -214.82685,143.19813 41.0397,-41.29899 15.49823,-15.535624 v 13.861694 4.05695 h -12.63932 l -16.58338,16.4793 h 29.2227 v 8.99266 h 18.53776 V 98.42146 61.853576 h -16.0655 l -42.96621,43.097094 -2.55411,2.56081 -35.72969,35.68665 z"
       style="fill:#dddbd9;fill-opacity:1;fill-rule:nonzero;stroke:none;stroke-width:0.352778" />
    <path
       id="path71"
       d="m 79.688783,110.5333 c 1.773061,0 2.487083,-1.17263 2.487083,-2.94605 0,-1.38465 -0.691797,-2.94604 -2.465211,-2.94604 h -6.993113 c -10.341328,0 -18.76813,-8.57709 -18.76813,-18.918417 l 0.06421,-4.441472 c 0,-10.342738 8.278635,-18.973446 18.620668,-18.973446 h 45.43001 l -17.82374,17.701329 -25.170696,-0.0822 c -2.041172,0 -3.696406,1.623483 -3.696406,3.664655 0,2.04082 1.655234,3.679825 3.696406,3.679825 l 6.04273,0.15875 c 10.342738,0 18.723327,8.376708 18.723327,18.718396 v 4.45099 c 0,10.34168 -8.335786,19.08881 -18.678524,19.08881 H 52.563701 v -19.05 h 27.163888"
       style="fill:#50ade5;fill-opacity:1;fill-rule:nonzero;stroke:none;stroke-width:0.352778" />
    <path
       id="path72"
       d="M 181.29047,62.000678 162.752,80.57231 v 17.799755 31.734825 h 18.53847 V 96.788446 75.38683 h 10.92165 c 2.37701,0 4.04036,0.611364 4.98933,1.833739 1.05446,1.224492 1.58397,2.850091 1.58397,4.872566 0,1.453445 -0.42933,2.682522 -1.2386,3.708753 -0.14005,0.174978 -0.26352,0.359128 -0.42474,0.520347 -0.86007,0.869245 -2.02777,1.395236 -3.49286,1.588911 h -8.88506 v 14.576074 h 9.11966 c 2.58833,0 4.39914,0.66569 5.43278,1.99672 1.14794,1.3335 1.72473,3.10339 1.72473,5.30578 0,1.58256 -0.46743,2.921 -1.34867,4.03824 -0.1524,0.1905 -0.28716,0.39123 -0.46249,0.56657 -1.20615,1.2192 -2.96122,1.82633 -5.25992,1.82633 l -9.20609,0.0864 v 13.7996 H 198.433 c 5.57777,0 10.42141,-2.014 14.53339,-6.0399 2.73049,-2.67512 4.53143,-5.71289 5.45041,-9.09603 0.46496,-1.71167 0.71649,-3.50731 0.71649,-5.40243 0,-2.56258 -0.27164,-4.88668 -0.78987,-6.99735 l -0.0709,-0.33232 c -0.9578,-3.662889 -2.7104,-6.626928 -5.26274,-8.892467 -0.31644,-0.280811 -0.64065,-0.547158 -0.96838,-0.80645 1.25942,-1.757891 2.16676,-3.653719 2.71957,-5.688541 0.42686,-1.571978 0.65793,-3.220861 0.65793,-4.961114 0,-2.35338 -0.24942,-4.487686 -0.72567,-6.4262 l -0.0649,-0.305505 c -0.87947,-3.363736 -2.4892,-6.085769 -4.83305,-8.166452 -3.75109,-3.328459 -8.3439,-4.991453 -13.78091,-4.991453 0,0 -14.72389,0 -14.72389,0"
       style="fill:#50ade5;fill-opacity:1;fill-rule:nonzero;stroke:none;stroke-width:0.352778" />
    <path
       id="path73"
       d="m 140.90966,62.239756 v 11.431411 13.868046 1.861608 13.285609 h 5.22287 l -14.079,14.07478 -14.07936,-14.07478 h 5.42889 V 89.718674 62.239756 l -18.53811,18.565282 v 9.388828 13.268674 c 0,7.35859 2.66029,13.59923 7.98159,18.72051 5.3206,5.12374 11.65225,7.68456 19.00132,7.68456 7.41503,0 13.83171,-2.57564 19.25814,-7.72372 5.42113,-5.15161 8.13576,-11.36227 8.13576,-18.64219 V 89.201149 71.404569 62.239756 Z"
       style="fill:#50ade5;fill-opacity:1;fill-rule:nonzero;stroke:none;stroke-width:0.352778" />
  </g>
</svg>
