<?xml version="1.0" encoding="UTF-8" standalone="no"?>
<svg
   xmlns:svg="http://www.w3.org/2000/svg"
   xmlns="http://www.w3.org/2000/svg"
   xmlns:xlink="http://www.w3.org/1999/xlink"
   version="1.1"
   width="1607"
   height="263"
   id="svg2">
  <defs
     id="defs20">
    <linearGradient
       id="linearGradient8">
      <stop
         style="stop-color:#ededed"
         offset="0"
         id="stop4" />
      <stop
         style="stop-color:#c7c7c7"
         offset="1"
         id="stop6" />
    </linearGradient>
    <linearGradient
       id="linearGradient14">
      <stop
         style="stop-color:#fdd94d"
         offset="0"
         id="stop10" />
      <stop
         style="stop-color:#f89f27"
         offset="1"
         id="stop12" />
    </linearGradient>
    <linearGradient
       xlink:href="#linearGradient8"
       x1="0"
       y1="5"
       x2="0"
       y2="225"
       gradientUnits="userSpaceOnUse"
       id="linearGradient16" />
    <linearGradient
       xlink:href="#linearGradient14"
       x1="0"
       y1="5"
       x2="0"
       y2="188"
       gradientUnits="userSpaceOnUse"
       id="linearGradient18" />
    <filter
       id="filter22"
       x="-0.02"
       width="1.04"
       y="-0.07"
       height="1.14">
      <feGaussianBlur
         stdDeviation="5"
         id="feGaussianBlur20" />
    </filter>
  </defs>
  <path
     d="m 466.142,114.308 c 3.646,-3.646 6.64,-7.627 9.12,-11.857 5.259,-9 7.961,-19.287 7.961,-30.937 0,-20.059 -5.748,-35.099 -17.227,-45.128 C 454.508,16.356 439.04,11.337 419.581,11.337 h -50.79 L 316.242,63.99 v 50.455 89.2 h 52.549 v -93.687 -49.28 h 36.78 c 8.76,0 14.937,1.767 18.54,5.293 3.595,3.535 5.397,8.442 5.397,14.731 0,6.281 -2.042,11.48 -6.135,15.606 -4.083,4.118 -10.02,6.186 -17.802,6.186 h -25.395 l 6.091,6.1 95.49,95.704 V 142.86 l -22.341,-22.89 c 2.351,-1.715 4.624,-3.56 6.726,-5.662 m 80.544,-52.541 25.696,-0.583 c 13.427,0 24.957,4.778 34.592,14.336 6.091,6.048 10.243,12.826 12.483,20.325 1.304,4.358 1.964,8.956 1.964,13.813 0,12.414 -4.135,23.25 -12.405,32.515 -8.28,9.258 -18.54,13.891 -30.801,13.891 h -21.603 v 47.581 h 24.52 c 25.696,0 47.247,-9.137 64.664,-27.419 17.416,-18.283 26.124,-40.427 26.124,-66.431 0,-5.405 -0.523,-10.621 -1.356,-15.726 C 667.288,73.915 657.644,56.105 641.42,40.739 621.078,21.478 596.798,11.852 568.581,11.852 h -21.895 l -52.54,52.626 v 37.424 101.452 h 52.54 V 99.045 61.767 M 786.67,11.852 v 32.405 39.551 5.284 40.547 c 0,6.624 -2.479,12.165 -7.447,16.645 -4.958,4.477 -10.655,6.708 -17.072,6.708 -6.813,0 -12.698,-2.282 -17.666,-6.871 -4.958,-4.582 -7.438,-10.09 -7.438,-16.525 V 89.985 11.852 l -52.55,52.618 v 26.87 37.604 c 0,20.857 7.542,38.548 22.625,53.064 15.083,14.525 33.03,21.782 53.862,21.782 21.019,0 39.207,-7.3 54.59,-21.894 15.366,-14.594 23.062,-32.206 23.062,-52.84 V 88.526 37.831 11.852 Z m -527.901,0 -121.786,122.163 -7.241,7.258 L 29.063,241.807 H 91.59 l 116.243,-116.44 43.935,-44.038 v 39.293 11.497 H 215.94 l -47.006,46.714 h 82.834 v 24.812 h 52.549 V 115.509 11.852 Z m 1276.811,200.596 38.2,29.334 H 105.531 l 29.384,-29.334 z"
     id="path26" />
  <path
     d="m 1005.1885,30.2119 c -13.821,-12.269 -30.748,-18.403 -50.799,-18.403 h -50.79 l -52.549,52.729 v 26.159 112.982 h 52.549 V 89.161 61.149 h 36.779 c 8.761,0 14.886,2.257 18.395,6.77 3.887,4.504 5.834,10.492 5.834,17.948 0,0.635 -0.111,1.209 -0.154,1.827 -0.369,5.439 -2.299,10.064 -5.972,13.762 -4.092,4.118 -10.029,6.177 -17.811,6.177 l -23.645,0.291 v 46.707 h 38.832 c 18.875,0 35.269,-6.812 49.185,-20.437 13.556,-13.289 20.462,-29.178 20.805,-47.632 0.01,-0.489 0.07,-0.953 0.07,-1.442 0,-24.34 -6.916,-42.639 -20.729,-54.908 m 33.28,34.3262 v 21.955 117.186 h 52.549 V 85.8241 11.8091 Z m 117.323,90.9682 V 85.3603 61.3123 11.8093 l -52.549,52.729 v 21.208 117.933 h 52.549 68.602 v -48.173 z m 311.871,-143.6972 -49.837,49.538 v 0.094 h 48.001 v 26.159 116.079 h 52.55 v -114.87 -27.368 h 17.116 l 49.439,-49.632 z M 1321.127,138.244 c -16.541,0 -29.959,-13.417 -29.959,-29.967 0,-16.541 13.418,-29.96 29.959,-29.96 16.55,0 29.968,13.419 29.968,29.96 0,16.55 -13.418,29.967 -29.968,29.967 m -14.542,65.643 c -46.493,-7.027 -82.14,-47.162 -82.14,-95.601 0,-53.391 43.301,-96.691 96.682,-96.691 53.39,0 96.69,43.3 96.69,96.691 0,48.499 -35.733,88.659 -82.294,95.617 v -37.311 c 26.21,-6.452 45.66,-30.115 45.66,-58.315 0,-33.151 -26.888,-60.04 -60.056,-60.04 -33.16,0 -60.039,26.889 -60.039,60.04 0,28.149 19.363,51.768 45.497,58.271 z"
     id="path28" />
  <use
     xlink:href="#path26"
     x="2"
     y="5"
     style="filter:url(#filter22)"
     id="use26" />
  <use
     xlink:href="#path28"
     x="2"
     y="5"
     id="use32"
     style="filter:url(#filter22)" />
  <use
     xlink:href="#path26"
     style="fill:url(#linearGradient16)"
     id="use34" />
  <use
     xlink:href="#path28"
     style="fill:url(#linearGradient18)"
     id="use36" />
</svg>
