<?xml version="1.0" encoding="UTF-8" standalone="no"?>
<!-- Created with Inkscape (http://www.inkscape.org/) -->

<svg
   xmlns:dc="http://purl.org/dc/elements/1.1/"
   xmlns:cc="http://creativecommons.org/ns#"
   xmlns:rdf="http://www.w3.org/1999/02/22-rdf-syntax-ns#"
   xmlns:svg="http://www.w3.org/2000/svg"
   xmlns="http://www.w3.org/2000/svg"
   xmlns:sodipodi="http://sodipodi.sourceforge.net/DTD/sodipodi-0.dtd"
   xmlns:inkscape="http://www.inkscape.org/namespaces/inkscape"
   version="1.1"
   id="svg2281"
   width="135"
   height="135"
   viewBox="0 0 135 135"
   sodipodi:docname="Openpilot_logo.svg"
   inkscape:version="0.92.3 (2405546, 2018-03-11)">
  <metadata
     id="metadata2287">
    <rdf:RDF>
      <cc:Work
         rdf:about="">
        <dc:format>image/svg+xml</dc:format>
        <dc:type
           rdf:resource="http://purl.org/dc/dcmitype/StillImage" />
        <dc:title></dc:title>
      </cc:Work>
    </rdf:RDF>
  </metadata>
  <defs
     id="defs2285" />
  <sodipodi:namedview
     pagecolor="#ffffff"
     bordercolor="#666666"
     borderopacity="1"
     objecttolerance="10"
     gridtolerance="10"
     guidetolerance="10"
     inkscape:pageopacity="0"
     inkscape:pageshadow="2"
     inkscape:window-width="1920"
     inkscape:window-height="1017"
     id="namedview2283"
     showgrid="false"
     inkscape:zoom="1.4142136"
     inkscape:cx="55.530553"
     inkscape:cy="94.737619"
     inkscape:window-x="-8"
     inkscape:window-y="-8"
     inkscape:window-maximized="1"
     inkscape:current-layer="svg2281" />
  <g
     id="g2505">
    <g
       id="g2449">
      <path
         style="fill:#000000"
         d="m 2.4775921,133 c -1.95799996,-1.95801 -1.99999996,-3.33333 -1.99999996,-65.5 0,-62.1666667 0.042,-63.5419948 1.99999996,-65.5 1.95801,-1.95800525 3.33334,-2 65.4999999,-2 62.166668,0 63.541988,0.0419947 65.499998,2 1.95801,1.9580052 2,3.3333333 2,65.5 0,62.16667 -0.042,63.54199 -2,65.5 -1.95801,1.95801 -3.33333,2 -65.499998,2 C 5.8109321,135 4.4356021,134.958 2.4775921,133 Z M 33.477592,123 c 0,-1.68992 0.66667,-2 4.3,-2 4.99616,0 6.7,-1.31344 6.7,-5.16482 0,-3.09043 -2.34548,-4.83518 -6.5,-4.83518 -4.26114,0 -6.5,1.73432 -6.5,5.03518 0,1.63065 -0.45,2.96482 -1,2.96482 -0.55,0 -1,-1.33417 -1,-2.96482 0,-3.30086 -2.23885,-5.03518 -6.5,-5.03518 -4.15451,0 -6.5,1.74475 -6.5,4.83518 0,4.14538 1.71722,5.16482 8.7,5.16482 5.63334,0 6.3,0.21164 6.3,2 0,1.1 0.45,2 1,2 0.55,0 1,-0.9 1,-2 z m -14.61502,-5.43916 c -1.19302,-3.10896 0.39229,-4.69962 4.35699,-4.37168 3.25901,0.26956 3.75803,0.64281 3.75803,2.81084 0,2.16803 -0.49902,2.54128 -3.75803,2.81084 -2.68954,0.22247 -3.92834,-0.13294 -4.35699,-1.25 z m 14.79271,-1.24981 c 0.29343,-2.55915 0.68073,-2.81103 4.32231,-2.81103 3.6,0 4,0.25 4,2.5 0,2.2331 -0.46145,2.53321 -4.32231,2.81103 -4.20871,0.30286 -4.31384,0.23715 -4,-2.5 z M 78.477592,123 c 0,-1.68992 0.66667,-2 4.3,-2 4.79755,0 6.7,-1.31427 6.7,-4.62857 0,-3.1031 -2.5917,-5.37143 -6.13717,-5.37143 -4.61382,0 -6.86283,1.65007 -6.86283,5.03518 0,1.63065 -0.45,2.96482 -1,2.96482 -0.55,0 -1,-1.09286 -1,-2.42857 0,-3.28845 -2.5148,-5.57143 -6.13717,-5.57143 -5.06202,0 -6.86283,1.58363 -6.86283,6.03518 0,5.03535 1.77625,5.20961 2.18964,0.21482 0.30263,-3.65661 0.40998,-3.75 4.31036,-3.75 3.90038,0 4.00773,0.0934 4.31037,3.75 0.24314,2.93776 0.73048,3.75 2.25,3.75 1.27297,0 1.93963,0.68741 1.93963,2 0,1.1 0.45,2 1,2 0.55,0 1,-0.9 1,-2 z m 0.17769,-6.68897 c 0.29343,-2.55915 0.68073,-2.81103 4.32231,-2.81103 3.6,0 4,0.25 4,2.5 0,2.2331 -0.46145,2.53321 -4.32231,2.81103 -4.20871,0.30286 -4.31384,0.23715 -4,-2.5 z M 58.477592,120 c 0,-0.55 -1.99844,-1 -4.44098,-1 -2.44254,0 -4.7191,-0.45 -5.05902,-1 -0.38371,-0.62086 1.48962,-1 4.94099,-1 4.85916,0 5.55901,-0.24736 5.55901,-1.96482 0,-2.30455 -2.78775,-4.03518 -6.5,-4.03518 -4.15451,0 -6.5,1.74475 -6.5,4.83518 0,1.52065 0.54,3.30482 1.2,3.96482 1.44548,1.44548 10.8,1.61871 10.8,0.2 z m -9.5,-6 c 0.33992,-0.55 2.13992,-1 4,-1 1.86008,0 3.66008,0.45 4,1 0.37795,0.61153 -1.17595,1 -4,1 -2.82404,0 -4.37794,-0.38847 -4,-1 z m 44.5,2.55902 c 0,-2.44254 -0.056,-4.7191 -0.606005,-5.05902 -0.260581,-0.16105 -1.267563,-0.062 -1.433553,0.4716 -0.226612,0.72848 0.03956,2.16964 0.03956,3.96938 0,2.78246 0.056,5.34045 0.606005,5.34045 0.223085,0 1.048853,0.0652 1.215679,-0.48863 0.244471,-0.81161 0.178316,-2.78196 0.178316,-4.23378 z m 6,3.54797 c 0,-0.49116 -0.675,-1.15203 -1.5,-1.46862 -1.08317,-0.41565 -1.5,-2.11269 -1.5,-6.10699 0,-3.04226 -0.45,-5.53138 -1,-5.53138 -1.31867,0 -1.29071,9.58829 0.0352,12.06574 1.03976,1.94279 3.96482,2.71098 3.96482,1.04125 z m 12.418208,0.28602 c 2.35938,-0.90538 2.10045,-7.04506 -0.35247,-8.35783 -4.53446,-2.42677 -11.06574,-0.30079 -11.06574,3.60199 0,3.53473 2.02942,5.36283 5.9534,5.36283 2.13566,0 4.59483,-0.27314 5.46481,-0.60699 z m -8.75154,-2.05968 c -1.54262,-1.54261 -0.54698,-4.32527 1.75424,-4.90283 4.06154,-1.01939 6.05308,-0.13874 6.39551,2.82805 0.2971,2.57404 0.0783,2.74145 -3.58333,2.74145 -2.14487,0 -4.19976,-0.3 -4.56642,-0.66667 z M 121.47759,120 c 0,-0.55 -0.675,-1 -1.5,-1 -1,0 -1.5,-1 -1.5,-3 0,-1.37016 -0.0908,-2.16607 0.25373,-2.70248 0,0 -0.0818,-0.86037 0.23314,-0.86037 0.825,0 2.51313,0.11285 2.51313,-0.43715 0,-0.55 -0.68471,-1.10526 -1.4493,-1.05629 -0.87873,0.0563 -2.33359,0.95734 -2.10734,-1.75 -0.65467,-1.60386 -0.72101,-1.5267 -1.41225,0.30629 -0.18259,0.48419 0.48835,1.82891 -0.24489,1.92387 -1.12242,0.14535 -2.00432,-0.0686 -2.31017,0.18999 -0.24757,0.2093 -0.0401,0.90288 0.11133,0.97143 0.4482,0.20295 2.20821,-0.20791 2.20525,0.0131 -0.0414,3.10279 0.5781,6.94902 1.60726,7.63633 1.58886,1.06109 3.60011,0.92998 3.60011,-0.23469 z M 93.252452,108.05245 c 0,-0.24254 -0.22486,-0.21253 -0.77486,-0.55245 -0.55,-0.33992 -1,-0.14148 -1,0.44098 0,0.58246 0.45,1.05902 1,1.05902 0.55,0 0.77486,-0.70501 0.77486,-0.94755 z M 64.843802,86.953275 c 1.48174,-5.525699 2.46772,-10.412975 2.19106,-10.860613 -0.81493,-1.318581 -12.72191,-4.33818 -13.51302,-3.426886 -1.47399,1.697936 -5.23393,16.544544 -4.40091,17.377564 1.01427,1.014265 11.59092,6.912215 12.44273,6.938545 0.32233,0.01 1.7984,-4.502911 3.28014,-10.02861 z M 111.462,83.213706 C 114.41146,80.825376 115.38246,75.142627 115.42846,60 115.46806,46.967378 114.41933,40.793531 111.6282,37.627934 109.10894,34.770674 84.134852,15.39124 80.648972,13.588621 c -4.36528,-2.257373 -7.8583,-2.015057 -9.53388,0.661379 -1.55451,2.483051 -9.18357,27.584976 -8.54038,28.100447 2.49503,1.999611 11.86807,6.514902 12.24795,5.900235 0.27461,-0.444325 1.46708,-4.598305 2.64992,-9.231067 C 80.025282,29.021707 80.991892,27 83.219402,27 c 2.32587,0 23.138938,13.908663 24.433918,16.328352 0.67309,1.257689 0.81365,5.288765 0.38614,11.074564 C 107.25504,65.019166 106.79172,67 105.09298,67 104.40557,67 91.755642,60.480251 76.982032,52.511669 c -14.77361,-7.968582 -26.94097,-14.381082 -27.03858,-14.25 -0.0976,0.131082 -1.44073,5.388964 -2.98473,11.684181 -2.36694,9.65057 -2.58562,11.585571 -1.39419,12.336646 1.75171,1.104277 60.980818,22.547057 62.552278,22.64587 0.62656,0.0394 2.1319,-0.732198 3.34519,-1.71466 z M 38.581912,55.5 c 0.62321,-2.475 1.70655,-4.5 2.40741,-4.5 0.70086,0 1.54744,-0.711804 1.88128,-1.581787 C 43.828092,46.92305 43.579712,44 42.410202,44 c -0.58706,0 -0.83343,-0.7875 -0.54748,-1.75 1.87388,-6.307557 1.81215,-7.074633 -0.70191,-8.721908 -2.35957,-1.546049 -2.83151,-1.49104 -8.81529,1.027496 -6.70024,2.820091 -6.03143,2.826694 -18.86793,-0.186293 -1.55471,-0.364924 -0.0681,1.084478 3.93156,3.83324 5.84646,4.017939 6.71671,5.090666 9.56602,11.791762 3.12302,7.34483 3.56709,7.775523 10.23802,9.929625 0.12959,0.04184 0.74551,-1.948922 1.36872,-4.423922 z"
         id="path2297"
         inkscape:connector-curvature="0"
         sodipodi:nodetypes="cscssscscsssssssssssssccsccssscsssssssssscscssssssscssscsssssscscscscsssssccsscccccsscccsscsssssssccssssssssssssccccssscsscccscsssccccssscscssccscs" />
      <path
         style="fill:#333333;fill-opacity:1;stroke:#333333;stroke-width:0.22514012;stroke-opacity:1"
         d="M 18.954269,134.70824 C 5.9655012,134.5038 3.9207218,134.27452 2.5941266,132.87379 1.7613756,131.9945 1.4732238,131.15859 1.1762515,128.76063 0.50670854,123.35429 0.30907941,22.669055 0.94358497,10.225075 1.2297781,4.6122291 1.4587832,3.4230682 2.4687875,2.3051142 4.4019555,0.16532825 3.1582123,0.20495111 68.259958,0.2091549 c 62.942572,0.004064 62.839162,0.00134 64.912182,1.7100966 1.04703,0.863056 1.41276,2.0784973 1.75381,5.8285578 0.36473,4.0104917 0.54872,100.1409207 0.21416,111.8946407 -0.33098,11.62775 -0.60661,12.99936 -2.80794,13.97311 -1.62653,0.71949 -4.48759,0.90409 -17.24306,1.11256 -14.46715,0.23645 -80.719327,0.22274 -96.134841,-0.0199 z m 14.174089,-9.9884 c 0.148793,-0.17928 0.348181,-0.89815 0.443082,-1.59749 0.243235,-1.79241 0.219568,-1.78202 4.74896,-2.08503 4.112882,-0.27515 5.325055,-0.8958 5.966202,-3.05478 0.882959,-2.97324 -0.07976,-5.3233 -2.647826,-6.46352 -1.005289,-0.44635 -1.556763,-0.52588 -3.660166,-0.52786 -2.727651,-0.003 -4.08951,0.40929 -5.352371,1.61864 -0.714824,0.68454 -1.289263,2.38488 -1.289263,3.81622 0,0.53872 -0.151978,1.34323 -0.337732,1.7878 -0.282533,0.6762 -0.392296,0.76303 -0.671566,0.53125 -0.429836,-0.35673 -0.784337,-1.64272 -0.807695,-2.93 -0.05313,-2.92811 -1.901826,-4.52639 -5.637158,-4.87355 -3.133448,-0.29122 -6.020261,0.79027 -6.944313,2.60156 -0.624353,1.22383 -0.630524,3.7899 -0.01239,5.15186 0.3645,0.80311 0.653488,1.06459 1.712356,1.54936 1.176903,0.5388 1.678609,0.60505 6.592178,0.87044 2.925081,0.15799 5.336422,0.29661 5.358533,0.30805 0.386996,0.20011 0.747787,0.87315 0.747787,1.39494 0,1.03351 0.5826,2.22809 1.086646,2.22809 0.238811,0 0.555941,-0.14669 0.704736,-0.32598 z m 45.161825,-0.45478 c 0.179421,-0.42942 0.326221,-1.06859 0.326221,-1.42038 0,-1.32872 0.273255,-1.44179 4.244648,-1.75645 3.041825,-0.241 3.794077,-0.37402 4.58517,-0.81075 3.292064,-1.81745 2.663669,-6.96493 -1.064181,-8.71723 -1.349546,-0.63436 -3.291376,-0.81793 -5.1776,-0.48945 -3.349018,0.5832 -4.808882,2.14649 -4.850891,5.19455 -0.01617,1.17273 -0.431907,2.51629 -0.817581,2.64217 -0.430567,0.14053 -0.792493,-0.80412 -0.99296,-2.59167 -0.431677,-3.84926 -3.12945,-5.76094 -7.562923,-5.35919 -2.623696,0.23776 -4.194611,0.99559 -4.902881,2.36524 -0.58228,1.126 -0.83726,3.49876 -0.577039,5.36968 0.510733,3.67204 1.732485,2.88441 2.253907,-1.45304 0.321905,-2.67776 0.541005,-3.16515 1.548669,-3.44504 0.915519,-0.2543 4.091515,-0.30691 5.195723,-0.0861 1.042836,0.20857 1.369253,0.89851 1.6988,3.59073 0.360373,2.94405 0.666973,3.44461 2.340773,3.82159 0.651506,0.14673 1.294882,0.37711 1.429723,0.51195 0.134838,0.13484 0.322013,0.81149 0.415944,1.50366 0.09393,0.69218 0.292525,1.4052 0.441317,1.58448 0.481314,0.57995 1.115007,0.38325 1.465161,-0.45478 z m 14.74999,-3.05455 c 0.408021,-0.21836 0.434066,-0.49872 0.413038,-4.44651 -0.01234,-2.3174 -0.09233,-4.46674 -0.17776,-4.77631 -0.190302,-0.68963 -1.144414,-0.87462 -1.691149,-0.32789 -0.326379,0.32638 -0.356356,0.81779 -0.244534,4.00846 0.129944,3.70779 0.259033,5.2455 0.468848,5.58499 0.159708,0.25841 0.704159,0.23952 1.231557,-0.0427 z m 5.936756,-0.21164 c 1.076711,-0.40937 0.585097,-1.67368 -0.961249,-2.4721 -0.923149,-0.47665 -1.209231,-1.63265 -1.406111,-5.68179 -0.144888,-2.97985 -0.279744,-4.50903 -0.60124,-5.28012 -0.102391,-0.24558 -0.209728,-0.46848 -0.34569,-0.58132 -0.05967,-0.0495 -0.161632,-0.0346 -0.209935,-0.0519 -0.18039,-0.0645 -0.30629,0.11642 -0.56298,0.69454 -0.493167,1.11073 -0.550071,7.33482 -0.08619,9.42715 0.494268,2.22939 1.418214,3.50778 2.837209,3.9256 0.371481,0.10939 0.694154,0.20802 0.717049,0.21919 0.0229,0.0112 0.301507,-0.0785 0.619135,-0.19926 z M 57.67563,120.69916 c 0.431886,-0.14779 0.815761,-0.42795 0.853053,-0.62257 0.116159,-0.6062 -1.058721,-0.92024 -4.235658,-1.13216 -3.107573,-0.2073 -4.957525,-0.5783 -5.106095,-1.02402 -0.150015,-0.45004 0.675423,-0.58097 4.807764,-0.76259 5.013243,-0.22033 5.484799,-0.38562 5.484799,-1.92256 0,-2.69563 -2.276032,-4.19768 -6.416494,-4.23451 -3.448116,-0.0307 -5.482739,0.91635 -6.337193,2.94968 -0.662718,1.57707 -0.157985,4.89146 0.895628,5.88127 0.308651,0.28997 1.139092,0.63205 1.974042,0.81316 1.789468,0.38817 7.00216,0.4232 8.080154,0.0543 z m 53.03818,0.0501 c 2.18406,-0.399 2.86987,-1.43639 2.85186,-4.31384 -0.0138,-2.20251 -0.87102,-3.90163 -2.33507,-4.62832 -2.99519,-1.48669 -7.28277,-1.01301 -9.50115,1.04966 -0.95727,0.89008 -1.27498,1.6699 -1.26951,3.11601 0.008,2.21787 1.15129,3.96974 3.04115,4.66159 1.08943,0.39882 5.29212,0.46577 7.21272,0.1149 z m 10.55057,-0.10974 c 0.19458,-0.19458 0.35379,-0.46522 0.35379,-0.6014 0,-0.48175 -0.75346,-1.07107 -1.3694,-1.07107 -1.12491,0 -1.55742,-0.87594 -1.55742,-3.15418 0,-1.08226 0.0624,-2.27965 0.13862,-2.66086 0.13269,-0.66344 0.19215,-0.69596 1.38934,-0.75985 1.41154,-0.0753 1.66108,-0.36737 0.93461,-1.09384 -0.41434,-0.41434 -0.6615,-0.47236 -1.55928,-0.36603 -1.25305,0.1484 -1.57871,-0.0822 -1.57871,-1.11785 0,-0.79086 -0.40876,-1.87925 -0.70578,-1.87925 -0.36874,0 -0.8702,1.35583 -0.8702,2.35279 v 1.02431 l -1.06942,0.003 c -1.26073,0.004 -1.70653,0.23074 -1.59602,0.81153 0.0645,0.33908 0.31528,0.43684 1.26042,0.49135 l 1.17988,0.068 0.008,1.28279 c 0.0102,1.66967 0.52169,4.50957 0.98987,5.49617 0.2048,0.43159 0.69162,0.93874 1.09291,1.13857 0.95104,0.47357 2.50218,0.49209 2.95894,0.0353 z M 93.160947,108.48651 c 0.104105,-0.41478 0.02711,-0.66436 -0.277134,-0.89831 -0.60938,-0.46858 -1.307524,-0.31695 -1.395418,0.30307 -0.162991,1.14976 1.394281,1.70397 1.672552,0.59524 z M 62.353774,95.539679 c 0.808926,-2.148424 2.81956,-9.285693 3.738418,-13.270486 0.990371,-4.294918 1.204072,-5.950011 0.826928,-6.404442 -0.628247,-0.756989 -6.054466,-2.441409 -10.253879,-3.183029 -2.682826,-0.47379 -2.972318,-0.439553 -3.492166,0.41301 -1.241808,2.036595 -4.275168,13.539446 -4.275168,16.211931 0,0.721863 0.120623,0.867141 1.407125,1.694725 3.353105,2.156995 10.874386,6.198308 11.282488,6.062274 0.121033,-0.04034 0.465847,-0.726136 0.766254,-1.523983 z M 109.72669,84.499703 c 1.48505,-0.757617 2.98988,-2.322762 3.65219,-3.798566 0.76337,-1.701017 1.3883,-4.5909 1.70572,-7.88783 0.39555,-4.108339 0.54292,-16.026357 0.25751,-20.825462 C 114.80993,43.03918 113.71915,39.41656 110.71524,36.621493 106.53432,32.731234 85.420416,16.341916 81.681417,14.084465 79.65636,12.861821 77.761054,12.19147 76.001822,12.075647 c -3.172517,-0.208869 -4.551455,0.795687 -5.903739,4.300872 -2.584946,6.700303 -7.959221,25.021164 -7.608136,25.936077 0.382597,0.997029 11.607417,6.500474 12.337749,6.049104 0.229377,-0.141762 1.052618,-2.927281 2.754286,-9.319413 1.496821,-5.622642 2.490896,-8.811775 3.13486,-10.057061 0.494865,-0.956963 1.642719,-1.875365 2.343905,-1.875365 2.00496,0 18.448683,10.634471 23.300953,15.069173 1.05831,0.967238 1.30276,1.338132 1.50574,2.28459 0.34524,1.60977 0.29953,7.143365 -0.0988,11.957167 -0.61554,7.43942 -1.04292,9.579762 -2.04381,10.235575 -0.55217,0.361796 -0.65193,0.328502 -4.09989,-1.368487 C 96.878382,62.951746 89.744693,59.206797 74.789022,51.199897 62.169251,44.443582 50.892279,38.499812 50.22205,38.25135 c -0.434644,-0.161128 -0.187836,-0.973254 -2.464032,8.107992 -2.974939,11.868991 -3.445885,14.869724 -2.472037,15.751046 0.242328,0.219303 1.989978,0.999524 3.883668,1.733823 8.480193,3.288286 36.762976,13.568175 50.047077,18.190514 3.838644,1.335693 7.283284,2.534749 7.654764,2.664567 1.05256,0.367827 1.8526,0.311903 2.8552,-0.199589 z M 37.950083,58.122914 c 0.301838,-1.021574 0.758895,-2.566598 1.015683,-3.433387 0.650439,-2.195558 0.456415,-3.675518 1.64391,-4.245471 1.276911,-0.61287 2.69618,-1.235008 2.837779,-3.441424 0.123726,-1.927888 -1.777023,-2.903945 -2.576232,-3.104533 -0.719314,-0.180536 0.878671,-0.987539 1.62137,-3.504971 1.246061,-4.223633 1.005735,-5.43669 -1.385785,-6.994829 -2.115506,-1.378306 -2.921339,-1.325589 -7.346408,0.4806 -6.549171,2.673188 -6.13256,2.550167 -8.614775,2.543854 -1.853863,-0.0047 -3.071148,-0.191365 -6.89392,-1.057067 -4.946086,-1.120086 -5.376217,-1.185174 -5.376217,-0.81351 0,0.392865 1.284585,1.457341 4.820746,3.994731 5.250377,3.767432 6.29865,5.000615 8.494349,9.992714 2.94049,6.685435 3.711001,7.969369 5.53614,9.225097 0.913204,0.628301 4.704434,2.175831 5.400378,2.20436 0.152476,0.0063 0.517797,-0.813258 0.822984,-1.846164 z"
         id="path2299"
         inkscape:connector-curvature="0"
         sodipodi:nodetypes="ccssssccsssccccsscccsccsssccscssccsccccccsccssccsccccccccccscccccsscscscccccccccscccccsccsccscsssccscsssccccccccccccsccscsssscccccccsssscssscccccssscsscccsssscsscsssssccc" />
      <path
         style="fill:#333333;fill-opacity:1;stroke:#333333;stroke-width:0.22514012;stroke-opacity:1"
         d="m 19.94964,118.43842 c -1.100521,-0.50457 -1.670843,-2.32399 -1.132425,-3.61261 0.460996,-1.10332 1.417243,-1.48883 3.67578,-1.48191 3.477506,0.0107 4.341179,0.5326 4.341179,2.62348 0,1.51661 -0.234017,1.97722 -1.177233,2.31714 -1.188597,0.42836 -4.890948,0.52819 -5.707301,0.1539 z"
         id="path2301"
         inkscape:connector-curvature="0" />
      <path
         style="fill:#333333;fill-opacity:1;stroke:#333333;stroke-width:0.22514012;stroke-opacity:1"
         d="m 33.813652,118.29186 c -0.27893,-0.52118 -0.08798,-2.45489 0.348647,-3.53066 0.364826,-0.89886 1.310613,-1.19502 3.816311,-1.19502 2.394916,0 3.444585,0.30281 3.745298,1.08045 0.339047,0.87677 0.115165,2.69983 -0.393237,3.20213 -0.53161,0.52523 -2.701189,0.88917 -5.314116,0.89143 -1.732248,0.002 -1.990264,-0.051 -2.202903,-0.44833 z"
         id="path2303"
         inkscape:connector-curvature="0" />
      <path
         style="fill:#333333;fill-opacity:1;stroke:#333333;stroke-width:0.22514012;stroke-opacity:1"
         d="m 53.358495,114.98586 c 0.162523,-0.065 0.356707,-0.057 0.431519,0.0178 0.07481,0.0748 -0.05816,0.12802 -0.295496,0.11825 -0.262276,-0.0108 -0.315624,-0.0641 -0.136023,-0.13602 z"
         id="path2305"
         inkscape:connector-curvature="0" />
      <path
         style="fill:#333333;fill-opacity:1;stroke:#333333;stroke-width:0.11257006;stroke-opacity:1"
         d="m 50.827018,114.84521 c -2.283418,-0.24777 -2.395018,-0.96037 -0.24056,-1.53603 1.033432,-0.27612 3.572452,-0.27781 4.748243,-0.003 0.837325,0.1956 1.548436,0.55593 1.638419,0.8302 0.06703,0.20432 -0.422393,0.47045 -1.102296,0.59939 -0.810518,0.15371 -3.998772,0.22298 -5.043806,0.10959 z"
         id="path2307"
         inkscape:connector-curvature="0" />
      <path
         style="fill:#333333;fill-opacity:1;stroke:#333333;stroke-width:0.11257006;stroke-opacity:1"
         d="m 79.320552,118.78108 c -0.62722,-0.1938 -0.748319,-0.51743 -0.663316,-1.77265 0.08404,-1.24098 0.295833,-2.25272 0.554087,-2.64687 0.09692,-0.14791 0.369966,-0.36515 0.606779,-0.48275 0.387664,-0.19252 0.705383,-0.21383 3.188534,-0.21383 3.065928,0 3.305366,0.0488 3.666295,0.74673 0.244871,0.47353 0.331356,1.81181 0.167909,2.59825 -0.160491,0.7722 -0.52265,1.13045 -1.393291,1.37825 -1.131874,0.32215 -5.458095,0.59955 -6.126997,0.39287 z"
         id="path2309"
         inkscape:connector-curvature="0" />
      <path
         style="fill:#333333;fill-opacity:1;stroke:#333333;stroke-width:0.11257006;stroke-opacity:1"
         d="m 104.92764,118.78081 c -1.57574,-0.23994 -2.06592,-0.55678 -2.33208,-1.5074 -0.37891,-1.35334 0.3143,-2.85928 1.60469,-3.48607 1.21934,-0.59229 3.83141,-0.87697 4.86636,-0.53038 0.9853,0.32996 1.69002,1.06449 1.97538,2.05895 0.22549,0.78579 0.34297,2.22536 0.21913,2.68525 -0.20863,0.77482 -0.45251,0.8391 -3.26393,0.86028 -1.33114,0.01 -2.71244,-0.0263 -3.06955,-0.0806 z"
         id="path2311"
         inkscape:connector-curvature="0" />
      <path
         style="fill:#999999;fill-opacity:1;stroke:#999999;stroke-width:0.25;stroke-opacity:1"
         d="m 57.904542,95.054615 c -1.703168,-0.90271 -4.346918,-2.393167 -5.875,-3.312127 -2.377332,-1.429684 -2.790008,-1.772773 -2.859246,-2.377115 -0.175229,-1.529456 2.293143,-11.464091 3.737781,-15.043721 l 0.605358,-1.5 1.743889,0.04118 c 2.063951,0.04874 7.861965,1.466092 10.092798,2.46723 1.827024,0.81992 1.813945,0.745281 0.894062,5.102076 -1.430285,6.77419 -4.231908,16.087281 -4.873149,16.199212 -0.203402,0.0355 -1.763324,-0.674028 -3.466493,-1.576738 z"
         id="path2313"
         inkscape:connector-curvature="0" />
      <path
         style="fill:#999999;fill-opacity:1;stroke:#999999;stroke-width:0.25;stroke-opacity:1"
         d="m 106.37621,84.283835 c -0.61875,-0.21922 -5.11875,-1.800845 -9.999997,-3.514723 -18.901475,-6.636582 -47.030711,-16.975197 -49.75,-18.285107 l -1.375,-0.662353 -0.07595,-1.323527 c -0.04177,-0.727938 0.164683,-2.527938 0.458786,-4 0.570543,-2.855708 4.178096,-17.49556 4.399557,-17.85389 0.149538,-0.241958 1.746606,0.584195 22.092604,11.42837 29.23219,15.58041 32.58488,17.2695 33.55003,16.90255 1.06008,-0.403038 1.48157,-1.98494 2.0771,-7.79548 0.55233,-5.389143 0.75168,-12.498963 0.40227,-14.347225 -0.20987,-1.110093 -0.4881,-1.703825 -1.09297,-2.332278 -2.5496,-2.649035 -15.506077,-11.529667 -21.059192,-14.4344 -4.71193,-2.464725 -5.24663,-1.774391 -8.75594,11.304495 -1.698383,6.32972 -2.3615,8.54082 -2.606908,8.692493 -0.608177,0.375872 -10.806351,-4.58674 -11.741637,-5.713693 -0.722066,-0.870035 6.484687,-24.759014 8.407425,-27.86897 1.017255,-1.64537 2.044687,-2.165972 4.194822,-2.125523 3.08825,0.0581 5.0599,1.060442 11.571003,5.882446 8.15506,6.039489 21.231597,16.417786 23.574697,18.710252 2.18683,2.139575 3.17253,4.429178 3.91176,9.086365 0.64351,4.054113 0.64918,25.566663 0.008,29.173468 -0.87101,4.89733 -1.87846,6.985065 -4.11231,8.521997 -1.3448,0.925245 -2.56395,1.091093 -4.07784,0.554733 z"
         id="path2315"
         inkscape:connector-curvature="0" />
      <path
         style="fill:#999999;fill-opacity:1;stroke:#999999;stroke-width:0.25;stroke-opacity:1"
         d="m 102.86372,83.14726 c -2.26188,-0.797863 -4.900007,-1.726305 -5.862507,-2.063205 -2.919607,-1.02194 -5.143195,-1.81384 -7.375,-2.626505 -1.16875,-0.425578 -2.9125,-1.042745 -3.875,-1.371488 -1.571152,-0.53663 -10.444767,-3.75656 -14.625,-5.30691 -0.89375,-0.331472 -2.075,-0.75693 -2.625,-0.945462 -0.55,-0.188533 -2.125,-0.759423 -3.5,-1.268645 -1.375,-0.509225 -2.95,-1.086708 -3.5,-1.2833 -0.55,-0.19659 -1.354502,-0.52116 -1.787782,-0.721265 -0.43328,-0.200105 -0.945155,-0.363828 -1.1375,-0.363828 -0.192345,0 -0.456593,-0.09891 -0.587218,-0.2198 -0.186559,-0.172655 -1.589399,-0.716647 -2.3625,-0.91613 -0.332283,-0.08574 -2.914483,-1.090842 -3.912782,-1.523025 -0.43328,-0.187575 -0.894121,-0.341045 -1.024091,-0.341045 -0.129969,0 -0.562967,-0.15823 -0.962217,-0.35162 -0.399251,-0.193392 -1.591706,-0.70761 -2.649901,-1.142705 l -1.92399,-0.791085 -0.07601,-1.044795 c -0.04181,-0.574637 -6.57e-4,-1.382295 0.09144,-1.794795 0.0921,-0.4125 0.224303,-1.25625 0.293789,-1.875 0.06949,-0.61875 0.187756,-1.29375 0.262822,-1.5 0.07507,-0.20625 0.192453,-0.65625 0.260861,-1 0.06841,-0.34375 0.233878,-1.075 0.36771,-1.625 0.133833,-0.55 0.300348,-1.28125 0.370034,-1.625 0.119165,-0.587825 0.229764,-1.059725 0.527333,-2.25 0.299159,-1.196635 0.408226,-1.662695 0.526545,-2.25 0.103355,-0.513032 0.647293,-2.648975 1.496125,-5.875 0.07236,-0.275 0.159981,-0.6125 0.194717,-0.75 0.220364,-0.872287 0.512274,-1.523852 0.751218,-1.67678 0.151917,-0.09723 1.289879,0.36647 2.528804,1.030445 1.238925,0.663973 3.602591,1.912418 5.252591,2.77432 1.65,0.861903 9.75,5.170878 18,9.575498 18.173755,9.702845 28.399519,14.921517 29.238079,14.921517 0.83863,0 1.31994,-0.796135 1.75517,-2.903245 0.58703,-2.842027 1.15908,-9.931512 1.18791,-14.721755 0.0303,-5.031132 -0.119,-5.697587 -1.58904,-7.09456 -3.4738,-3.301142 -17.673444,-12.822459 -21.930621,-14.705185 -3.235445,-1.430866 -4.001383,-0.231249 -7.134898,11.174745 -2.52034,9.174033 -2.47832,9.040053 -2.923122,9.320628 -0.269218,0.169817 -0.652785,0.126295 -1.2462,-0.141403 -0.471503,-0.2127 -1.476028,-0.649352 -2.232278,-0.970342 C 69.33007,46.143167 65.292557,44.09123 63.9166,43.241477 l -1.084611,-0.669825 0.143006,-1.375 c 0.135079,-1.298772 0.244425,-1.917657 0.519009,-2.9375 0.424131,-1.575281 0.664124,-2.511162 0.772005,-3.010515 0.408815,-1.892308 5.094171,-16.624438 5.641452,-17.738378 0.01717,-0.03498 0.0493,-0.147982 0.07136,-0.251107 0.02205,-0.103125 0.195758,-0.46875 0.385995,-0.8125 0.190235,-0.34375 0.336195,-0.68125 0.324353,-0.75 -0.01185,-0.06875 0.273272,-0.649447 0.63359,-1.290439 0.863345,-1.535853 1.87007,-2.013194 4.171962,-1.978149 1.558758,0.02373 2.63287,0.13069 2.81899,0.28071 0.03437,0.02771 0.146875,0.07138 0.25,0.09705 0.472278,0.117569 3.196595,1.536288 3.270833,1.703323 0.04583,0.103125 0.24271,0.1875 0.4375,0.1875 0.194792,0 0.354167,0.09349 0.354167,0.207755 0,0.114266 0.308628,0.367391 0.68584,0.5625 0.667725,0.345376 11.558593,8.441818 12.173393,9.049892 0.169525,0.167669 0.617182,0.529853 0.994795,0.804853 0.649227,0.472806 0.98101,0.7349 2.06242,1.629221 0.252205,0.208572 0.908552,0.714822 1.458551,1.125 0.55,0.410179 1.12281,0.858279 1.27291,0.995779 0.1501,0.1375 0.63822,0.527605 1.0847,0.866899 0.44648,0.339295 1.07216,0.845545 1.39041,1.125 0.31825,0.279456 0.86965,0.733101 1.22532,1.008101 0.35568,0.275 0.91119,0.725 1.23449,1 0.32329,0.275 1.02754,0.8375 1.56499,1.25 2.1746,1.669027 4.25455,4.009323 5.1659,5.8125 0.50383,0.996875 0.86935,1.8125 0.81226,1.8125 -0.0571,0 0.055,0.45 0.24902,1 0.19406,0.55 0.30435,1 0.2451,1 -0.0592,0 -0.006,0.266395 0.11735,0.591988 0.61294,1.612135 0.95006,15.546485 0.61775,25.533012 -0.13956,4.193838 -0.37293,5.998823 -1.07536,8.317125 -0.13617,0.449418 -0.24105,0.843168 -0.23305,0.875 0.008,0.03183 -0.2436,0.60702 -0.55909,1.278198 -1.11263,2.367022 -3.60886,4.248635 -5.45028,4.108322 -0.37807,-0.02881 -2.53804,-0.705175 -4.79991,-1.503037 z"
         id="path2317"
         inkscape:connector-curvature="0" />
      <path
         style="fill:#999999;fill-opacity:1;stroke:#999999;stroke-width:0.25;stroke-opacity:1"
         d="M 106.25121,84.395437 C 85.492886,77.150987 53.079601,65.356922 47.190797,62.905407 45.805101,62.32854 45.279131,61.973857 45.096315,61.493015 44.654479,60.330897 45.287592,56.82938 47.739009,46.87724 c 1.593535,-6.46935 2.06305,-8.10525 2.383026,-8.303005 0.317382,-0.196153 1.809365,0.570862 21.879178,11.247892 17.713095,9.42327 29.652997,15.61662 32.079817,16.640143 1.32399,0.558397 1.33199,0.558692 1.82333,0.06735 1.19117,-1.19117 2.03051,-7.863638 2.07026,-16.457963 0.0316,-6.839832 0.10792,-6.613707 -3.10207,-9.19506 -4.46684,-3.592072 -14.182012,-10.079735 -18.838064,-12.579815 -2.300223,-1.235111 -3.593728,-1.414669 -4.3979,-0.610498 -1.127705,1.127707 -2.100075,3.881199 -4.62793,13.105078 -1.775525,6.478708 -2.050068,7.23351 -2.674783,7.35382 -0.532427,0.102535 -5.915439,-2.321745 -8.968656,-4.039102 l -2.364004,-1.329693 -0.07613,-1.16324 c -0.165557,-2.529602 6.024555,-23.034956 8.146254,-26.985267 0.965165,-1.797 1.92426,-2.277016 4.553502,-2.278975 1.98066,-0.0015 2.322868,0.07619 4.141898,0.940045 3.045052,1.446089 10.73845,7.099133 22.967623,16.876422 6.56795,5.251101 8.31224,6.84964 9.63395,8.828908 2.3386,3.502095 2.77307,7.118777 2.77222,23.077377 -5e-4,8.92985 -0.19817,12.250808 -0.91956,15.446615 -1.16285,5.151528 -4.54695,8.071695 -7.96976,6.87717 z"
         id="path2319"
         inkscape:connector-curvature="0" />
      <path
         style="fill:#999999;fill-opacity:1;stroke:#999999;stroke-width:0.25;stroke-opacity:1"
         d="m 61.130425,96.759152 c -0.0023,-0.171875 -0.110479,-0.3125 -0.240362,-0.3125 -0.327646,0 -3.602654,-1.577181 -5.26385,-2.534971 -0.75625,-0.436028 -1.6,-0.918793 -1.875,-1.072811 -0.275,-0.154018 -0.975889,-0.586524 -1.557532,-0.961125 -0.581643,-0.374601 -1.144142,-0.681613 -1.25,-0.68225 -0.105857,-6.36e-4 -0.558093,-0.343838 -1.004968,-0.762671 -0.900871,-0.844341 -1.020186,-1.676787 -0.535506,-3.736172 0.145624,-0.61875 0.306895,-1.330862 0.35838,-1.582471 0.05148,-0.251609 0.150171,-0.645359 0.219301,-0.875 0.06913,-0.229641 0.180592,-0.698779 0.247692,-1.042529 0.0671,-0.34375 0.184018,-0.878125 0.259817,-1.1875 0.0758,-0.309375 0.184076,-0.759375 0.240616,-1 0.05654,-0.240625 0.222506,-0.746875 0.368813,-1.125 0.146306,-0.378125 0.218287,-0.6875 0.159956,-0.6875 -0.05833,0 0.05824,-0.393213 0.259044,-0.873806 0.200805,-0.480594 0.363814,-0.930594 0.362243,-1 -0.0016,-0.06941 0.0055,-0.154319 0.01572,-0.188694 0.01022,-0.03437 0.06682,-0.322576 0.125789,-0.640448 0.05897,-0.317871 0.318451,-1.049121 0.576634,-1.625 0.258183,-0.575878 0.542779,-1.287951 0.632435,-1.582384 0.170539,-0.560049 1.540726,-0.963172 1.807363,-0.531744 0.07633,0.123507 0.437004,0.197625 0.801493,0.164707 0.364488,-0.03292 1.000207,0.01372 1.412707,0.103634 0.4125,0.08992 1.03125,0.216273 1.375,0.280794 0.606296,0.113798 1.615139,0.348069 2.125,0.493461 0.1375,0.03921 0.5875,0.155117 1,0.257572 1.801454,0.447437 3.316688,1.011517 4.1875,1.558889 1.094989,0.688285 1.162847,1.169869 0.557723,3.958113 -0.208878,0.962448 -0.491746,2.312406 -0.628597,2.999906 -0.376422,1.891042 -2.183115,8.423903 -2.616564,9.461292 -0.209975,0.50254 -0.310237,0.913708 -0.222806,0.913708 0.08743,0 0.01892,0.16875 -0.152256,0.375 -0.171172,0.20625 -0.227422,0.375 -0.125,0.375 0.102422,0 0.03182,0.186041 -0.156889,0.413424 -0.188711,0.227383 -0.314986,0.452383 -0.280611,0.5 0.03437,0.04762 0.04844,0.142826 0.03125,0.211576 -0.01719,0.06875 -0.04531,0.210528 -0.0625,0.315063 -0.06502,0.395484 -1.148019,1.920684 -1.152038,1.622437 z"
         id="path2321"
         inkscape:connector-curvature="0" />
      <path
         style="fill:#999999;fill-opacity:1;stroke:#999999;stroke-width:0.25;stroke-opacity:1"
         d="m 58.250997,95.348579 c -3.824821,-1.956638 -7.804085,-4.308501 -8.547277,-5.051693 -0.764363,-0.764363 -0.751119,-1.890949 0.06501,-5.529785 0.786132,-3.505111 2.440247,-9.213995 3.14307,-10.847751 0.57679,-1.340785 1.083,-1.623039 2.280843,-1.271762 0.444716,0.130417 1.202325,0.254439 1.683575,0.275605 1.134758,0.04991 6.54807,1.45562 8,2.077415 2.288022,0.979853 2.385356,1.416633 1.36778,6.13779 -1.120391,5.198178 -3.884416,14.634519 -4.375547,14.938054 -0.137714,0.08511 -0.19295,0.247687 -0.122747,0.361279 0.404304,0.654176 -0.852595,0.262454 -3.494702,-1.089152 z"
         id="path2323"
         inkscape:connector-curvature="0" />
      <path
         style="fill:#999999;fill-opacity:1;stroke:#999999;stroke-width:0.25;stroke-opacity:1"
         d="m 31.893081,124.22817 c -0.146777,-0.27426 -0.266868,-0.83108 -0.266868,-1.23739 0,-0.4063 -0.207403,-0.99487 -0.460895,-1.30792 -0.435122,-0.53735 -0.704239,-0.58003 -4.8125,-0.76329 -5.487792,-0.2448 -6.569672,-0.3827 -7.757722,-0.98879 -1.333692,-0.6804 -1.813522,-1.71047 -1.822578,-3.9126 -0.0083,-2.01098 0.349311,-2.73689 1.851942,-3.75956 1.230138,-0.83722 2.641915,-1.12879 4.896659,-1.01131 3.48294,0.18147 5.39723,1.56945 5.730767,4.15516 0.346229,2.68411 0.438489,3.07263 0.820299,3.45444 0.367131,0.36713 0.436701,0.35545 0.838486,-0.14073 0.240975,-0.29759 0.501528,-1.0706 0.579005,-1.7178 0.303843,-2.53813 0.62435,-3.40442 1.605258,-4.33884 1.177638,-1.12183 3.021368,-1.57112 5.78971,-1.41086 3.852532,0.22302 5.889814,2.42087 5.382134,5.80632 -0.400415,2.67015 -1.766067,3.43333 -6.839895,3.82242 -3.554994,0.27261 -3.795208,0.41002 -4.175463,2.38854 -0.272543,1.41807 -0.882954,1.85047 -1.358339,0.96221 z m -5.840579,-5.86711 c 0.901762,-0.46777 1.24135,-1.53451 0.987155,-3.10093 -0.221037,-1.36209 -0.785327,-1.76216 -2.913444,-2.06554 -2.904653,-0.41409 -5.024542,0.12651 -5.51074,1.40531 -0.580827,1.52769 0.04534,3.62093 1.220334,4.07951 1.014486,0.39594 5.258685,0.1786 6.216695,-0.31835 z m 14.779063,0.0806 c 0.957363,-0.35323 1.294648,-1.043 1.294648,-2.64765 0,-0.85589 -0.144737,-1.26482 -0.613637,-1.73372 -0.577123,-0.57713 -0.777241,-0.61364 -3.363236,-0.61364 -3.030544,0 -3.864394,0.23985 -4.241151,1.21993 -0.44567,1.15935 -0.594077,3.19691 -0.276121,3.79101 0.287887,0.53792 0.387747,0.55058 3.332962,0.42248 1.669901,-0.0726 3.409842,-0.26991 3.866535,-0.43841 z"
         id="path2325"
         inkscape:connector-curvature="0" />
      <path
         style="fill:#999999;fill-opacity:1;stroke:#999999;stroke-width:0.25;stroke-opacity:1"
         d="m 31.786724,124.25915 c -0.06775,-0.24062 -0.200352,-0.83125 -0.29467,-1.3125 -0.298537,-1.52326 -0.614137,-1.6876 -3.571432,-1.8597 -1.468175,-0.0854 -3.626056,-0.21063 -4.795292,-0.27821 -4.017409,-0.23217 -5.483982,-0.80121 -5.986113,-2.32269 -0.408787,-1.23863 -0.496452,-3.74276 -0.158916,-4.5394 0.458459,-1.08203 2.429838,-2.43744 3.829654,-2.63306 0.517692,-0.0724 1.186384,-0.18464 1.485982,-0.24954 0.728552,-0.15782 4.049217,0.55475 4.762179,1.0219 0.312454,0.20472 0.568097,0.31339 0.568097,0.24147 0,-0.2909 0.895665,0.79711 1.183006,1.43706 0.169403,0.37728 0.424234,1.41353 0.56629,2.30277 0.32605,2.04099 0.643195,2.8794 1.089186,2.8794 0.511288,0 1.047776,-1.71831 1.287898,-4.125 0.05487,-0.54998 0.866152,-1.78806 1.598487,-2.43943 0.426323,-0.37918 0.775133,-0.62942 0.775133,-0.55608 0,0.0734 0.317731,-0.0309 0.706069,-0.23177 0.487529,-0.25211 1.46321,-0.35911 3.152289,-0.34568 2.036949,0.0162 2.640332,0.11678 3.606432,0.60128 0.638115,0.32002 1.32896,0.72863 1.53521,0.90803 1.252523,1.08948 1.63411,3.98732 0.76222,5.78841 -0.48007,0.99169 -0.667945,1.13128 -2.20599,1.63897 -0.924677,0.30523 -2.29998,0.59999 -3.05623,0.65503 -4.256251,0.30975 -4.831058,0.54646 -5.264627,2.16807 -0.156343,0.58475 -0.399535,1.2038 -0.540427,1.37567 -0.367492,0.44831 -0.890821,0.38507 -1.034435,-0.125 z m -6.221091,-5.85452 c 1.032429,-0.31441 1.360603,-0.9346 1.348542,-2.54848 -0.0079,-1.05831 -0.121328,-1.38073 -0.644097,-1.83098 -0.758849,-0.65358 -2.316546,-0.92353 -4.519626,-0.78325 -2.570886,0.16371 -3.679803,1.39152 -3.123306,3.45819 0.354032,1.31478 0.804321,1.79025 1.894489,2.00044 1.143956,0.22055 3.873959,0.0604 5.043998,-0.29592 z m 15.052885,-0.046 c 0.701998,-0.22998 0.945715,-0.48602 1.199228,-1.25983 0.38727,-1.1821 0.18216,-2.46265 -0.49226,-3.07333 -0.41492,-0.3757 -0.937938,-0.45384 -3.037744,-0.45384 -3.273602,0 -3.850418,0.16768 -4.303003,1.25087 -0.44152,1.0567 -0.469666,3.4093 -0.04603,3.84703 0.373727,0.38615 5.244042,0.15948 6.679805,-0.3109 z"
         id="path2327"
         inkscape:connector-curvature="0" />
      <path
         style="fill:#999999;fill-opacity:1;stroke:#999999;stroke-width:0.25;stroke-opacity:1"
         d="m 50.251213,120.53151 c -2.438369,-0.52251 -3.156265,-1.2689 -3.506521,-3.64569 -0.24551,-1.666 0.03176,-2.80815 0.930104,-3.83131 1.191945,-1.35755 2.184769,-1.68397 5.201417,-1.71011 2.400664,-0.0208 2.748204,0.0378 4.066634,0.68516 1.632104,0.80144 2.183366,1.5995 2.183366,3.16086 0,1.36287 -0.360355,1.47997 -5.36261,1.7427 -4.321032,0.22694 -4.954445,0.35569 -4.833748,0.98249 0.117474,0.61006 1.46457,0.939 5.174353,1.2635 1.844147,0.16131 3.587897,0.41942 3.875,0.57358 0.505012,0.27117 0.49759,0.29073 -0.227995,0.60085 -0.714147,0.30524 -6.288787,0.43752 -7.5,0.17797 z m 5.218493,-5.58486 c 0.446018,0 1.029319,-0.16882 1.296225,-0.37516 0.476795,-0.36861 0.475257,-0.38367 -0.08799,-0.8613 -1.411843,-1.19723 -7.801726,-0.8804 -7.801726,0.38684 0,0.17606 0.140625,0.40717 0.3125,0.51356 0.542295,0.33571 4.286705,0.74673 4.891275,0.53692 0.318326,-0.11047 0.943699,-0.20086 1.389718,-0.20086 z"
         id="path2329"
         inkscape:connector-curvature="0" />
      <path
         style="fill:#999999;fill-opacity:1;stroke:#999999;stroke-width:0.25;stroke-opacity:1"
         d="m 51.501213,120.68101 c -0.9625,-0.0958 -1.91875,-0.22125 -2.125,-0.27879 -1.572738,-0.43876 -2.518251,-1.74202 -2.683115,-3.69832 -0.1572,-1.86535 0.20628,-2.93428 1.391229,-4.09135 0.88464,-0.86382 1.100147,-0.94498 3.11841,-1.17431 3.960924,-0.45007 6.066306,0.11927 7.472026,2.02061 0.601884,0.81409 0.65222,2.01675 0.114293,2.73074 -0.377838,0.50151 -0.334324,0.49532 -6.281509,0.89469 -2.674838,0.17962 -3.760038,0.45187 -3.497093,0.87732 0.287107,0.46455 1.359144,0.73955 3.960343,1.01591 3.447305,0.36626 3.664426,0.39467 4.592916,0.60105 2.834441,0.63001 -1.991561,1.5076 -6.0625,1.10245 z m 4.802097,-6.00417 c 0.758915,-0.28853 0.640228,-0.74058 -0.320557,-1.22091 -1.090574,-0.54521 -5.219856,-0.4835 -6.325119,0.0945 -0.751017,0.39277 -0.802304,0.48245 -0.467408,0.81735 0.756609,0.75661 5.40473,0.95855 7.113084,0.30903 z"
         id="path2331"
         inkscape:connector-curvature="0" />
      <path
         style="fill:#999999;fill-opacity:1;stroke:#999999;stroke-width:0.25;stroke-opacity:1"
         d="m 76.870025,124.05538 c -0.134096,-0.3527 -0.243812,-0.90003 -0.243812,-1.21629 0,-0.92393 -0.870198,-1.80778 -1.949829,-1.98042 -1.595027,-0.25505 -1.925221,-0.9333 -2.437039,-5.00591 -0.100958,-0.80333 -0.355562,-1.42127 -0.746794,-1.8125 -0.552851,-0.55285 -0.782409,-0.59361 -3.343211,-0.59361 -2.743299,0 -3.874368,0.25175 -4.130552,0.91935 -0.07421,0.19339 -0.302824,1.47449 -0.508026,2.84687 -0.565509,3.7821 -1.139156,4.49452 -1.647687,2.04628 -0.377998,-1.81981 -0.157665,-4.57783 0.460947,-5.76986 0.318121,-0.61301 0.872768,-1.11726 1.693452,-1.5396 1.075849,-0.55365 1.532086,-0.62804 3.852066,-0.62804 2.418674,0 2.726025,0.0555 3.797416,0.68529 1.425734,0.83812 2.143606,1.94739 2.497778,3.8596 0.359859,1.94291 0.777904,3.14392 1.135865,3.26324 0.534355,0.17812 1.090047,-1.09531 1.301756,-2.98312 0.238988,-2.13105 0.459876,-2.64136 1.534848,-3.54589 1.884013,-1.58529 6.333374,-1.87888 8.574065,-0.56574 2.23784,1.31146 3.21443,4.11868 2.177793,6.26008 -0.833465,1.72171 -1.698788,2.12781 -5.186202,2.43391 -5.010353,0.43977 -5.326646,0.55697 -5.326646,1.97373 0,0.93729 -0.488226,1.9939 -0.921316,1.9939 -0.187583,0 -0.450775,-0.28857 -0.584872,-0.64127 z m 8.96154,-5.61372 c 0.957363,-0.35323 1.294648,-1.043 1.294648,-2.64765 0,-0.85589 -0.144737,-1.26482 -0.613637,-1.73372 -0.577123,-0.57713 -0.777241,-0.61364 -3.363236,-0.61364 -3.030544,0 -3.864394,0.23985 -4.241151,1.21993 -0.44567,1.15935 -0.594077,3.19691 -0.276121,3.79101 0.287887,0.53792 0.387747,0.55058 3.332962,0.42248 1.669901,-0.0726 3.409842,-0.26991 3.866535,-0.43841 z"
         id="path2333"
         inkscape:connector-curvature="0" />
      <path
         style="fill:#999999;fill-opacity:1;stroke:#999999;stroke-width:0.25;stroke-opacity:1"
         d="m 76.872021,124.06063 c -0.132999,-0.34982 -0.314074,-0.94044 -0.402389,-1.3125 -0.225636,-0.95058 -0.758629,-1.48649 -1.811149,-1.82105 -0.967313,-0.30748 -1.877681,-1.114 -1.95323,-1.73043 -0.02528,-0.20625 -0.113054,-0.7125 -0.195058,-1.125 -0.082,-0.4125 -0.259181,-1.36661 -0.393727,-2.12024 -0.337929,-1.89286 -0.84725,-2.33104 -2.858331,-2.45909 -2.250244,-0.14329 -4.329815,0.15222 -4.869563,0.69197 -0.248485,0.24849 -0.527376,1.04323 -0.628825,1.79194 -0.100265,0.73998 -0.214831,1.51417 -0.254589,1.72042 -0.03976,0.20625 -0.142087,0.80577 -0.227397,1.33226 -0.227798,1.40587 -0.589966,1.99498 -0.994264,1.61731 -0.421298,-0.39355 -0.422921,-0.40382 -0.520853,-3.29609 -0.05045,-1.49014 0.02993,-2.73812 0.202441,-3.14293 0.421266,-0.98852 1.434897,-2.09027 2.26439,-2.46126 1.80128,-0.80562 5.767923,-0.79963 7.20379,0.0109 1.330513,0.75104 2.395313,2.10616 2.604665,3.31484 0.454807,2.6258 0.923116,3.875 1.452689,3.875 0.412782,0 0.737694,-0.96917 1.163273,-3.46987 0.238881,-1.40367 0.467422,-1.99051 0.955643,-2.45386 0.609695,-0.57864 1.851881,-1.35095 2.391676,-1.48699 2.439696,-0.61485 5.106765,-0.52285 6.439128,0.22212 1.453462,0.81268 2.919787,3.03475 2.928987,4.4386 0.01215,1.85444 -1.299342,3.92824 -2.618115,4.13989 -0.4125,0.0662 -1.0875,0.19574 -1.5,0.28786 -0.4125,0.0921 -0.83943,0.14439 -0.948734,0.11613 -0.109304,-0.0282 -1.234304,0.072 -2.5,0.22268 -2.698344,0.32134 -3.426266,0.68834 -3.426266,1.72744 0,0.94781 -0.486007,2.006 -0.921316,2.006 -0.187583,0 -0.449877,-0.28621 -0.582876,-0.63602 z m 8.53757,-5.63005 c 1.24287,-0.32498 1.532617,-0.76542 1.555735,-2.36488 0.01595,-1.104 -0.08954,-1.48063 -0.541345,-1.93264 -0.508454,-0.50867 -0.801234,-0.56141 -3.116966,-0.56141 -3.293641,0 -3.86923,0.16658 -4.322276,1.25087 -0.441521,1.05671 -0.469653,3.40888 -0.04603,3.84823 0.348811,0.36177 4.800761,0.19653 6.470878,-0.24017 z"
         id="path2335"
         inkscape:connector-curvature="0" />
      <path
         style="fill:#999999;fill-opacity:1;stroke:#999999;stroke-width:0.25;stroke-opacity:1"
         d="m 91.937957,120.77763 c -0.102709,-0.25079 -0.186744,-2.36848 -0.186744,-4.70598 v -4.25 h 0.625 0.625 v 4.62158 c 0,4.20577 -0.03943,4.62917 -0.438256,4.70597 -0.246707,0.0475 -0.519877,-0.11489 -0.625,-0.37157 z"
         id="path2337"
         inkscape:connector-curvature="0" />
      <path
         style="fill:#999999;fill-opacity:1;stroke:#999999;stroke-width:0.25;stroke-opacity:1"
         d="m 92.012181,120.9644 c -0.318493,-0.51533 -0.565285,-8.77535 -0.276166,-9.24316 0.135584,-0.21938 1.052817,-0.1953 1.281764,0.0336 0.194154,0.19416 0.158045,6.11413 -0.04882,8.00427 -0.102825,0.93951 -0.270941,1.4375 -0.485282,1.4375 -0.180375,0 -0.392548,-0.10451 -0.471495,-0.23225 z"
         id="path2339"
         inkscape:connector-curvature="0" />
      <path
         style="fill:#999999;fill-opacity:1;stroke:#999999;stroke-width:0.125;stroke-opacity:1"
         d="m 93.14595,118.62165 c 0,-0.17187 0.02837,-0.24219 0.06305,-0.15625 0.03468,0.0859 0.03468,0.22656 0,0.3125 -0.03468,0.0859 -0.06305,0.0156 -0.06305,-0.15625 z"
         id="path2341"
         inkscape:connector-curvature="0" />
      <path
         style="fill:#999999;fill-opacity:1;stroke:#999999;stroke-width:0.125;stroke-opacity:1"
         d="m 92.031817,121.0904 c -0.280223,-0.35026 -0.337095,-0.91296 -0.476921,-4.71875 -0.108451,-2.95183 -0.02452,-4.60573 0.242543,-4.77933 0.255513,-0.1661 1.043002,-0.10189 1.209405,0.0986 0.148193,0.17856 0.407915,3.24401 0.292135,3.44803 -0.02491,0.0439 -0.07289,0.97202 -0.106609,2.0625 -0.067,2.16666 -0.169087,3.32914 -0.330535,3.76393 -0.116155,0.31282 -0.619153,0.38857 -0.830018,0.125 z"
         id="path2343"
         inkscape:connector-curvature="0" />
      <path
         style="fill:#999999;fill-opacity:1;stroke:#999999;stroke-width:0.125;stroke-opacity:1"
         d="m 91.958664,121.0187 c -0.149451,-0.16514 -0.240061,-0.64123 -0.328833,-1.72777 -0.144924,-1.77381 -0.192113,-6.87322 -0.06692,-7.23178 0.04801,-0.1375 0.108251,-0.32031 0.133873,-0.40625 0.0531,-0.17809 1.021549,-0.21287 1.284623,-0.0461 0.232474,0.14735 0.417543,2.47699 0.333842,4.20239 -0.03669,0.75625 -0.09403,1.9375 -0.127429,2.625 -0.07181,1.47816 -0.176124,2.29316 -0.33198,2.59375 -0.14784,0.28513 -0.635329,0.28013 -0.897174,-0.009 z"
         id="path2345"
         inkscape:connector-curvature="0" />
      <path
         style="fill:#999999;fill-opacity:1;stroke:#999999;stroke-width:0.125;stroke-opacity:1"
         d="m 93.155213,120.37165 c 0,-0.24062 0.02572,-0.33906 0.05717,-0.21875 0.03144,0.12031 0.03144,0.31719 0,0.4375 -0.03144,0.12031 -0.05717,0.0219 -0.05717,-0.21875 z"
         id="path2347"
         inkscape:connector-curvature="0" />
      <path
         style="fill:#999999;fill-opacity:1;stroke:#999999;stroke-width:0.125;stroke-opacity:1"
         d="m 91.877975,120.99994 c -0.223364,-0.41735 -0.372265,-2.63373 -0.39393,-5.86357 -0.0146,-2.17732 0.02296,-3.16697 0.127634,-3.36256 0.122749,-0.22936 0.255891,-0.27716 0.772026,-0.27716 0.562899,0 0.637433,0.0335 0.764619,0.34375 0.170031,0.41475 0.211145,4.82767 0.06417,6.887 -0.07928,1.11076 -0.0679,1.39765 0.05249,1.32324 0.108243,-0.0669 0.128943,-0.0304 0.06997,0.12323 -0.04606,0.12003 -0.0846,0.28394 -0.08566,0.36426 -0.0011,0.0838 -0.05357,0.0661 -0.123086,-0.0415 -0.09872,-0.15276 -0.121526,-0.13728 -0.123086,0.0835 -0.0036,0.51075 -0.137583,0.66647 -0.57339,0.66647 -0.289929,0 -0.460559,-0.0763 -0.551762,-0.24671 z"
         id="path2351"
         inkscape:connector-curvature="0" />
      <path
         style="fill:#999999;fill-opacity:1;stroke:#999999;stroke-width:0.125;stroke-opacity:1"
         d="m 92.117901,121.20342 c -0.416907,-0.20785 -0.472802,-0.58808 -0.614738,-4.18187 -0.141442,-3.58128 -0.09236,-5.11306 0.172304,-5.37772 0.20535,-0.20535 1.17136,-0.22656 1.367886,-0.03 0.298203,0.29821 0.416289,3.94576 0.225864,6.97674 -0.04428,0.70476 -0.03832,1.28132 0.01325,1.28125 0.160574,-2.2e-4 0.102661,0.4731 -0.08027,0.65603 -0.09571,0.0957 -0.194147,0.2762 -0.21875,0.40108 -0.06166,0.31297 -0.50585,0.45386 -0.865543,0.27453 z"
         id="path2353"
         inkscape:connector-curvature="0" />
      <path
         style="fill:#999999;fill-opacity:1;stroke:#999999;stroke-width:0.125;stroke-opacity:1"
         d="m 92.097442,121.28596 c -0.125467,-0.0329 -0.272637,-0.26601 -0.350516,-0.55523 -0.266134,-0.98834 -0.473104,-7.96204 -0.259217,-8.73408 0.180139,-0.65022 1.335368,-0.79444 1.670794,-0.20859 0.241475,0.42176 0.258044,8.64451 0.01782,8.84387 -0.09631,0.0799 -0.17511,0.22084 -0.17511,0.31313 0,0.0923 -0.108802,0.22603 -0.241782,0.29719 -0.251235,0.13446 -0.302791,0.13786 -0.661989,0.0437 z"
         id="path2355"
         inkscape:connector-curvature="0" />
      <path
         style="fill:#999999;fill-opacity:1;stroke:#999999;stroke-width:0.125;stroke-opacity:1"
         d="m 92.040283,121.27344 c -0.08164,-0.0519 -0.208966,-0.2536 -0.282955,-0.4482 -0.200111,-0.52634 -0.406484,-4.46907 -0.359654,-6.87115 0.03973,-2.03786 0.05046,-2.11269 0.336137,-2.34375 0.376939,-0.30488 0.908002,-0.30482 1.284804,1.6e-4 l 0.295098,0.23884 0.04126,4.24777 0.04126,4.24778 -0.324083,0.51338 c -0.32001,0.50693 -0.667619,0.64679 -1.031877,0.41517 z"
         id="path2357"
         inkscape:connector-curvature="0" />
      <path
         style="fill:#999999;fill-opacity:1;stroke:#999999;stroke-width:0.08838835;stroke-opacity:1"
         d="m 91.89454,108.65852 c -0.187291,-0.18729 -0.258366,-0.3436 -0.258366,-0.56821 0,-0.58556 0.502489,-0.76685 1.069686,-0.38594 0.375773,0.25236 0.439339,0.6262 0.165639,0.97416 -0.257843,0.32779 -0.636922,0.32003 -0.976959,-0.02 z"
         id="path2359"
         inkscape:connector-curvature="0" />
      <path
         style="fill:#999999;fill-opacity:1;stroke:#999999;stroke-width:0.08838835;stroke-opacity:1"
         d="m 92.166504,108.89038 c -0.298818,-0.13919 -0.384868,-0.2331 -0.522941,-0.57072 -0.107198,-0.26212 -0.09958,-0.31435 0.08512,-0.58391 0.179762,-0.26235 0.23406,-0.289 0.477094,-0.23419 0.388776,0.0877 0.621982,0.22733 0.77845,0.46613 0.114739,0.17511 0.118062,0.24886 0.02155,0.47838 -0.10056,0.23916 -0.442259,0.56983 -0.571679,0.55322 -0.02564,-0.003 -0.146062,-0.0523 -0.267596,-0.10891 z"
         id="path2361"
         inkscape:connector-curvature="0" />
      <path
         style="fill:#999999;fill-opacity:1;stroke:#999999;stroke-width:0.08838835;stroke-opacity:1"
         d="m 97.513999,120.75992 c -1.205477,-0.4859 -1.903167,-1.41776 -2.436535,-3.25433 -0.299079,-1.02984 -0.390739,-2.23693 -0.390419,-5.14156 3.37e-4,-3.06206 0.0932,-4.07534 0.444199,-4.84706 0.243988,-0.53644 0.353488,-0.54849 0.624146,-0.0687 0.372642,0.6606 0.528364,1.8802 0.65297,5.11399 0.13015,3.37766 0.240976,4.25075 0.654123,5.15318 0.216557,0.47302 0.375379,0.62287 1.28053,1.20816 0.561398,0.36301 1.071336,0.99101 1.071336,1.31936 0,0.085 -0.09344,0.26317 -0.207637,0.39594 -0.282052,0.3279 -1.044242,0.38239 -1.692713,0.12101 z"
         id="path2363"
         inkscape:connector-curvature="0" />
      <path
         style="fill:#999999;fill-opacity:1;stroke:#999999;stroke-width:0.08838835;stroke-opacity:1"
         d="m 97.577956,120.81011 c -0.207892,-0.0662 -0.486316,-0.18976 -0.618719,-0.27465 -0.356238,-0.22841 -1.051301,-0.95775 -1.120492,-1.17575 -0.03313,-0.10438 -0.09269,-0.18977 -0.132354,-0.18977 -0.06298,0 -0.103841,-0.0877 -0.226512,-0.48614 -0.01497,-0.0486 -0.130498,-0.35856 -0.256736,-0.68877 -0.337668,-0.88326 -0.480869,-1.92062 -0.545497,-3.95162 -0.03171,-0.99658 -0.05506,-1.89151 -0.05189,-1.98874 0.09324,-2.85838 0.132612,-3.38542 0.306994,-4.11005 0.02765,-0.1149 0.320945,-0.77224 0.391151,-0.87665 0.04844,-0.072 0.45975,0.19739 0.414099,0.27125 -0.02552,0.0413 0.0024,0.0751 0.06194,0.0751 0.05958,0 0.0834,0.0249 0.05294,0.0554 -0.03047,0.0305 -4.42e-4,0.16168 0.06674,0.29159 0.06718,0.1299 0.145814,0.39493 0.174752,0.58895 0.02894,0.19402 0.06889,0.43728 0.08879,0.54058 0.08773,0.45555 0.172122,1.75957 0.267677,4.13614 0.136568,3.39664 0.394265,4.65522 1.077173,5.26089 0.309623,0.2746 0.794388,0.61472 0.888399,0.62332 0.150629,0.0138 0.997914,1.08809 0.997365,1.2646 -6.98e-4,0.22347 -0.296596,0.70047 -0.381721,0.61534 -0.0328,-0.0328 -0.05964,-0.0226 -0.05964,0.0227 0,0.13099 -0.979462,0.12842 -1.394451,-0.004 z"
         id="path2365"
         inkscape:connector-curvature="0" />
      <path
         style="fill:#999999;fill-opacity:1;stroke:#999999;stroke-width:0.08838835;stroke-opacity:1"
         d="m 97.248834,120.68506 c -0.599858,-0.2856 -1.32731,-1.00003 -1.637628,-1.6083 -0.306791,-0.60136 -0.608624,-1.55455 -0.754182,-2.3817 -0.296049,-1.68234 -0.319581,-6.76047 -0.03851,-8.31049 0.108617,-0.59898 0.407307,-1.32384 0.545515,-1.32384 0.259793,0 0.436838,0.22854 0.600747,0.77549 0.255633,0.85301 0.341097,1.57947 0.444287,3.77651 0.195475,4.16188 0.332408,5.31078 0.725592,6.08787 0.206481,0.40808 0.484988,0.68009 1.102634,1.07688 0.570153,0.36628 1.177059,1.11296 1.177059,1.44815 0,0.13683 -0.09536,0.34721 -0.216751,0.4782 -0.193449,0.20873 -0.281342,0.23387 -0.817592,0.2338 -0.478123,-5e-5 -0.709158,-0.0516 -1.131172,-0.25257 z"
         id="path2367"
         inkscape:connector-curvature="0" />
      <path
         style="fill:#999999;fill-opacity:1;stroke:#999999;stroke-width:0.08838835;stroke-opacity:1"
         d="m 97.563738,120.8295 c -0.8577,-0.26585 -1.734683,-1.15547 -2.179946,-2.21134 -0.594976,-1.4109 -0.7746,-2.90344 -0.768627,-6.38671 0.0047,-2.76935 0.100885,-3.86432 0.407017,-4.63585 0.163529,-0.41214 0.22998,-0.49067 0.415176,-0.49067 0.515135,0 0.819145,1.27848 0.968883,4.07453 0.261198,4.87732 0.36759,5.76642 0.781625,6.53183 0.150579,0.27837 0.399777,0.55342 0.679687,0.75021 0.243068,0.17088 0.690534,0.56137 0.994369,0.86775 0.465892,0.4698 0.552427,0.60542 0.552427,0.8658 0,0.31487 -0.308053,0.73563 -0.54841,0.74905 -0.654192,0.0365 -0.878239,0.0168 -1.302201,-0.1146 z"
         id="path2369"
         inkscape:connector-curvature="0" />
      <path
         style="fill:#999999;fill-opacity:1;stroke:#999999;stroke-width:0.08838835;stroke-opacity:1"
         d="m 97.799889,120.93477 c -0.79109,-0.19791 -1.656445,-0.88405 -2.12646,-1.68607 -0.303166,-0.51731 -0.660481,-1.53681 -0.817561,-2.33267 -0.227666,-1.15349 -0.343211,-4.39861 -0.231314,-6.49654 0.100409,-1.88254 0.201316,-2.51068 0.494294,-3.07697 0.296363,-0.57283 0.712531,-0.21995 0.974048,0.82593 0.171181,0.68459 0.287175,1.866 0.40326,4.1072 0.181125,3.49689 0.333181,4.65603 0.706868,5.38852 0.104694,0.20521 0.492653,0.60952 0.95101,0.99109 0.891225,0.7419 1.049811,0.9063 1.207118,1.25134 0.341469,0.749 -0.489578,1.29629 -1.561263,1.02817 z"
         id="path2371"
         inkscape:connector-curvature="0" />
      <path
         style="fill:#999999;fill-opacity:1;stroke:#999999;stroke-width:0.08838835;stroke-opacity:1"
         d="m 105.36661,120.76085 c -0.59103,-0.041 -1.32036,-0.14355 -1.62072,-0.22782 -1.04874,-0.29427 -2.04537,-1.13515 -2.56677,-2.16566 -0.41759,-0.82534 -0.54806,-1.49759 -0.51365,-2.64654 0.0281,-0.93944 0.0529,-1.06384 0.31879,-1.60391 0.67549,-1.37187 2.41008,-2.45418 4.5897,-2.86377 1.06087,-0.19936 3.04695,-0.13669 4.04924,0.12778 2.09768,0.55349 3.10116,1.52377 3.5948,3.47587 0.15401,0.60901 0.17417,0.9055 0.13932,2.04856 -0.0276,0.90552 -0.0883,1.48488 -0.18823,1.79664 -0.35142,1.09651 -1.20228,1.69833 -2.71649,1.92142 -1.09893,0.1619 -3.71506,0.23259 -5.08599,0.13743 z m 4.49266,-1.81209 c 0.64975,-0.0516 1.17127,-0.2644 1.37177,-0.55972 0.13006,-0.19158 0.15801,-0.40063 0.14963,-1.11945 -0.026,-2.22903 -0.6684,-3.49112 -2.05383,-4.03492 -1.05725,-0.41499 -3.8807,-0.18467 -5.11456,0.4172 -0.93198,0.45463 -1.62286,1.38146 -1.80638,2.42331 -0.16268,0.92352 0.30005,2.11416 0.94173,2.42316 0.91067,0.43854 3.9844,0.65115 6.51164,0.45042 z"
         id="path2373"
         inkscape:connector-curvature="0" />
      <path
         style="fill:#999999;fill-opacity:1;stroke:#999999;stroke-width:0.08838835;stroke-opacity:1"
         d="m 105.33091,120.81632 c -0.0213,-0.0202 -0.27738,-0.0603 -0.56907,-0.089 -0.29168,-0.0287 -0.65959,-0.0898 -0.81759,-0.13571 -0.15799,-0.0459 -0.28726,-0.0615 -0.28726,-0.0346 0,0.0269 -0.0497,0.01 -0.11049,-0.0382 -0.0608,-0.0479 -0.21253,-0.11131 -0.33725,-0.141 -0.12472,-0.0297 -0.30987,-0.12466 -0.41145,-0.21106 -0.10157,-0.0864 -0.40528,-0.33607 -0.67492,-0.55483 -0.26963,-0.21876 -0.49217,-0.44872 -0.49453,-0.51101 -0.002,-0.0623 -0.0604,-0.13478 -0.1289,-0.16107 -0.0685,-0.0263 -0.14884,-0.14438 -0.17846,-0.26239 -0.0296,-0.11802 -0.0952,-0.21458 -0.14577,-0.21458 -0.0506,0 -0.0673,-0.0398 -0.0373,-0.0884 0.0301,-0.0486 0.006,-0.0884 -0.0537,-0.0884 -0.0596,0 -0.0832,-0.0251 -0.0525,-0.0558 0.0307,-0.0307 0.009,-0.14008 -0.0484,-0.24307 -0.0573,-0.10299 -0.11062,-0.21708 -0.11842,-0.25354 -0.008,-0.0365 -0.0222,-0.0762 -0.032,-0.0884 -0.099,-0.12277 -0.18242,-0.9491 -0.17632,-1.74567 0.007,-0.8888 0.0313,-1.11884 0.15049,-1.41422 0.0491,-0.12153 0.0716,-0.2508 0.0501,-0.28726 -0.0215,-0.0365 0.005,-0.0663 0.0598,-0.0663 0.0543,0 0.0742,-0.0398 0.0442,-0.0884 -0.03,-0.0486 -0.0192,-0.0884 0.0241,-0.0884 0.0433,0 0.13308,-0.10167 0.19958,-0.22593 0.15572,-0.29097 0.89372,-1.0294 1.18413,-1.18482 0.12344,-0.0661 0.29472,-0.18337 0.38062,-0.26066 0.14271,-0.12843 0.8028,-0.46866 0.90747,-0.46773 0.0243,2.1e-4 0.12374,-0.0435 0.22097,-0.0971 0.0972,-0.0536 0.2532,-0.11012 0.34662,-0.12562 0.0934,-0.0155 0.22268,-0.072 0.28726,-0.12563 0.0646,-0.0536 0.11742,-0.0755 0.11742,-0.0486 0,0.0269 0.12927,0.01 0.28726,-0.0382 0.40868,-0.12387 0.58277,-0.15826 1.08276,-0.21388 0.59984,-0.0667 1.96266,-0.0722 2.34229,-0.009 0.17015,0.0281 0.49428,0.0699 0.7203,0.0927 0.62215,0.063 1.11465,0.21632 1.75176,0.54538 1.02397,0.52888 1.42016,0.8189 1.53133,1.12092 0.0313,0.0851 0.0936,0.15468 0.13851,0.15468 0.0449,0 0.10654,0.0994 0.13704,0.22097 0.0305,0.12154 0.0968,0.22097 0.14738,0.22097 0.0506,0 0.0673,0.0398 0.0373,0.0884 -0.03,0.0486 -0.0125,0.0884 0.039,0.0884 0.0515,0 0.0849,0.0298 0.0744,0.0663 -0.0106,0.0365 0.0237,0.18562 0.0761,0.33146 0.0524,0.14584 0.10342,0.29426 0.11332,0.32982 0.01,0.0356 0.0576,0.19466 0.10605,0.35355 0.0484,0.15889 0.10526,0.38834 0.12631,0.50987 0.0622,0.35928 0.0591,2.19476 -0.004,2.2967 -0.0319,0.0516 -0.049,0.20226 -0.038,0.33485 0.0321,0.38661 -0.10625,0.92239 -0.32995,1.27788 -0.11412,0.18133 -0.20748,0.35037 -0.20748,0.37565 0,0.0253 -0.0796,0.1255 -0.17678,0.22273 -0.0972,0.0972 -0.17677,0.15808 -0.17677,0.13524 0,-0.0228 -0.14476,0.0567 -0.3217,0.17678 -0.17693,0.12007 -0.35333,0.21831 -0.39199,0.21831 -0.0387,0 -0.18227,0.0464 -0.31912,0.10307 -0.34141,0.14144 -0.88825,0.24513 -1.57465,0.29858 -0.66693,0.0519 -4.43032,0.13251 -4.46907,0.0957 z m 5.15393,-1.99582 c 0.18222,-0.0554 0.44076,-0.19485 0.57453,-0.30988 0.22623,-0.19454 0.24534,-0.26451 0.27372,-1.00203 0.0807,-2.09823 -0.54353,-3.51666 -1.82456,-4.14574 -0.45059,-0.22127 -0.61654,-0.25076 -1.56489,-0.2781 -1.14969,-0.0331 -2.34019,0.12368 -3.27018,0.43077 -1.41254,0.46642 -2.345,1.81586 -2.23154,3.2294 0.0529,0.65846 0.42326,1.40383 0.81642,1.64293 0.32601,0.19826 1.26093,0.41152 2.25558,0.5145 1.00635,0.1042 4.551,0.0458 4.97092,-0.0819 z"
         id="path2375"
         inkscape:connector-curvature="0" />
      <path
         style="fill:#999999;fill-opacity:1;stroke:#999999;stroke-width:0.08838835;stroke-opacity:1"
         d="m 104.64631,120.75803 c -1.9099,-0.25997 -3.18508,-1.27589 -3.79198,-3.02103 -0.18287,-0.52584 -0.21258,-0.77419 -0.21257,-1.77678 10e-6,-1.23984 0.0882,-1.65577 0.46689,-2.20077 0.80654,-1.16093 2.10143,-1.97259 3.87315,-2.42778 0.7073,-0.18172 1.0581,-0.21687 2.21072,-0.22149 1.82801,-0.007 2.70469,0.17061 3.93328,0.79837 1.55584,0.79496 2.27814,2.23405 2.26404,4.51077 -0.009,1.52046 -0.0701,2.0864 -0.27302,2.54508 -0.27236,0.61572 -0.49768,0.87606 -1.00698,1.16349 -0.61854,0.34908 -1.24617,0.52383 -2.20415,0.6137 -1.057,0.0991 -4.571,0.11014 -5.25938,0.0164 z m 6.03776,-2.04308 c 0.56685,-0.31107 0.61881,-0.43947 0.61551,-1.52093 -0.006,-2.00508 -0.61833,-3.25396 -1.88361,-3.8425 -0.4707,-0.21894 -0.57468,-0.23206 -1.7815,-0.22485 -2.03044,0.0121 -3.27772,0.34819 -4.10764,1.10668 -0.69693,0.63696 -1.05903,1.40326 -1.05556,2.2339 0.004,1.02032 0.42283,1.77329 1.13275,2.03769 0.85142,0.3171 1.70701,0.39145 4.29561,0.3733 2.1506,-0.0151 2.55788,-0.039 2.78444,-0.16329 z"
         id="path2377"
         inkscape:connector-curvature="0" />
      <path
         style="fill:#999999;fill-opacity:1;stroke:#999999;stroke-width:0.08838835;stroke-opacity:1"
         d="m 104.80604,120.79716 c -1.04146,-0.18048 -1.342,-0.26325 -1.80543,-0.49719 -0.77059,-0.38899 -1.57837,-1.23319 -1.95034,-2.03828 -0.37789,-0.81788 -0.47843,-1.43892 -0.43251,-2.67148 0.0468,-1.25569 0.2847,-1.79198 1.16198,-2.61932 1.19771,-1.12953 2.88971,-1.78149 4.92665,-1.89835 2.26773,-0.13009 4.34031,0.44956 5.40138,1.51063 0.85507,0.85507 1.27278,2.00334 1.31897,3.62576 0.0384,1.34857 -0.0724,2.22389 -0.36348,2.87255 -0.27102,0.60392 -0.53916,0.8804 -1.14196,1.17745 -0.89911,0.44307 -1.55222,0.52638 -4.33103,0.55246 -1.40979,0.0132 -2.6627,0.007 -2.78423,-0.0142 z m 5.92202,-2.15291 c 0.44029,-0.218 0.52753,-0.45364 0.52902,-1.42889 0.003,-2.0053 -0.55808,-3.18062 -1.81371,-3.79876 l -0.56827,-0.27976 -1.4821,0.0458 c -2.18328,0.0675 -3.17569,0.37428 -4.01797,1.2422 -0.92808,0.95633 -1.14436,2.46083 -0.49163,3.4199 0.276,0.40553 0.5665,0.60118 1.13007,0.76111 1.0807,0.30667 6.11463,0.33547 6.71459,0.0384 z"
         id="path2379"
         inkscape:connector-curvature="0" />
      <path
         style="fill:#999999;fill-opacity:1;stroke:#999999;stroke-width:0.08838835;stroke-opacity:1"
         d="m 119.30278,120.75193 c -1.12116,-0.19414 -1.80476,-0.80697 -2.16215,-1.93829 -0.45012,-1.42489 -0.7538,-3.53028 -0.75499,-5.23427 -4e-4,-0.57121 -0.0306,-1.04177 -0.067,-1.0457 -0.0365,-0.004 -0.38449,-0.0233 -0.7734,-0.0431 -1.45155,-0.0738 -1.70957,-0.17172 -1.60017,-0.6076 0.0753,-0.3 0.49495,-0.40176 1.65944,-0.40237 l 0.94315,-4.9e-4 0.0472,-0.24307 c 0.0259,-0.13368 0.0429,-0.54138 0.0377,-0.90598 -0.0126,-0.88434 0.38338,-2.20971 0.66022,-2.20971 0.1729,0 0.49942,0.96356 0.58031,1.71245 0.0586,0.54273 0.13847,0.85587 0.2592,1.01646 0.17252,0.2295 0.18726,0.2321 1.31279,0.2321 0.73774,0 1.20495,0.0382 1.32766,0.1085 0.21083,0.1208 0.65035,0.61491 0.65035,0.73112 0,0.12817 -0.53657,0.25034 -1.5468,0.35218 -1.04954,0.10581 -1.19324,0.18167 -1.19324,0.62992 0,0.13262 -0.0645,0.49287 -0.14332,0.80055 -0.11464,0.44751 -0.13443,0.8512 -0.0989,2.01797 0.0487,1.59894 0.15529,2.23297 0.44775,2.66254 0.29456,0.43265 0.58143,0.60029 1.20871,0.70637 0.92309,0.15609 1.45032,0.61693 1.27527,1.11468 -0.16972,0.4826 -1.06736,0.71927 -2.06971,0.5457 z"
         id="path2381"
         inkscape:connector-curvature="0" />
      <path
         style="fill:#999999;fill-opacity:1;stroke:#999999;stroke-width:0.08838835;stroke-opacity:1"
         d="m 118.79349,120.65605 c -0.30383,-0.0966 -0.55242,-0.21194 -0.55242,-0.25634 0,-0.0444 -0.0597,-0.0807 -0.13259,-0.0807 -0.0729,0 -0.13292,-0.0298 -0.13334,-0.0663 -4.3e-4,-0.0365 -0.13771,-0.21074 -0.30508,-0.3873 -0.16737,-0.17656 -0.27972,-0.3456 -0.24966,-0.37565 0.0301,-0.0301 0.002,-0.0546 -0.0632,-0.0546 -0.0648,0 -0.0912,-0.0267 -0.0586,-0.0592 0.0326,-0.0326 -10e-4,-0.15191 -0.0757,-0.26517 -0.0742,-0.11326 -0.11359,-0.20593 -0.0875,-0.20593 0.0261,0 -0.0132,-0.14517 -0.0874,-0.32261 -0.16262,-0.3892 -0.45175,-1.80165 -0.53105,-2.5942 -0.0316,-0.31599 -0.0698,-0.69385 -0.0849,-0.83969 -0.0151,-0.14584 -0.0579,-0.79218 -0.0951,-1.43631 l -0.0677,-1.17115 -0.45039,-0.0114 c -1.03366,-0.0262 -1.59773,-0.10563 -1.77098,-0.24941 -0.20129,-0.16706 -0.16869,-0.40917 0.0816,-0.60606 0.18178,-0.14298 0.37517,-0.17514 1.12696,-0.18743 1.38847,-0.0227 1.24512,0.0949 1.36485,-1.11941 0.0934,-0.9473 0.16874,-1.4944 0.20578,-1.4944 0.007,0 0.027,-0.0717 0.0436,-0.15929 0.0457,-0.24045 0.29905,-0.59201 0.4266,-0.59201 0.062,0 0.16603,0.14916 0.23109,0.33146 0.0651,0.1823 0.15746,0.43089 0.20532,0.55243 0.0478,0.12153 0.0968,0.3204 0.10874,0.44194 0.0806,0.81957 0.17079,1.18151 0.34142,1.37046 0.17889,0.1981 0.25717,0.21176 1.36075,0.23746 0.64401,0.015 1.17103,0.0571 1.17114,0.0936 1.2e-4,0.0365 0.0422,0.0663 0.0936,0.0663 0.1258,0 0.61374,0.54135 0.61374,0.68092 0,0.0612 -0.10938,0.13735 -0.24307,0.1693 -0.13369,0.032 -0.27736,0.0776 -0.31926,0.10141 -0.0419,0.0238 -0.28056,0.0597 -0.53033,0.0797 -0.24978,0.02 -0.69278,0.0845 -0.98446,0.14335 l -0.53031,0.10699 -0.15626,0.7071 c -0.21495,0.97272 -0.17462,4.10729 0.0611,4.74686 0.22451,0.60924 0.68553,0.98646 1.38294,1.13155 0.31261,0.065 0.59821,0.1114 0.63467,0.10303 0.0365,-0.008 0.0663,0.0312 0.0663,0.0879 0,0.0567 0.0233,0.0799 0.0517,0.0515 0.0734,-0.0734 0.38288,0.20271 0.52105,0.46488 0.0996,0.18901 0.0953,0.2633 -0.0291,0.50384 -0.0803,0.15518 -0.18568,0.28888 -0.23429,0.29712 -0.0486,0.008 -0.18783,0.0553 -0.30936,0.10462 -0.41507,0.16837 -1.41994,0.14893 -2.01084,-0.0389 z"
         id="path2383"
         inkscape:connector-curvature="0" />
      <path
         style="fill:#999999;fill-opacity:1;stroke:#999999;stroke-width:0.08838835;stroke-opacity:1"
         d="m 119.08076,120.76509 c -0.83455,-0.20814 -1.43136,-0.67117 -1.75972,-1.36526 -0.53717,-1.13548 -0.93753,-3.53749 -1.04748,-6.2845 l -0.0212,-0.53033 -0.95546,-0.0542 c -0.52551,-0.0298 -1.05252,-0.10613 -1.17115,-0.16962 -0.24306,-0.13008 -0.28087,-0.40456 -0.0914,-0.66363 0.10702,-0.14636 0.27361,-0.17651 1.20157,-0.21742 0.88435,-0.039 1.09741,-0.075 1.18945,-0.20083 0.0617,-0.0843 0.13981,-0.50122 0.17365,-0.92643 0.091,-1.14288 0.13119,-1.3522 0.34385,-1.78956 0.28967,-0.59573 0.44232,-0.56329 0.70606,0.15003 0.12226,0.3307 0.24703,0.83694 0.27726,1.12498 0.0675,0.64303 0.20485,0.945 0.49252,1.0826 0.12267,0.0587 0.6853,0.11454 1.27061,0.12614 l 1.05045,0.0208 0.34938,0.33235 c 0.19869,0.18901 0.33651,0.39624 0.31957,0.48048 -0.0394,0.19568 -0.54794,0.3473 -1.56159,0.46558 -0.45357,0.0529 -0.87736,0.13995 -0.94177,0.1934 -0.29239,0.24267 -0.47645,2.71286 -0.32203,4.32166 0.1226,1.27712 0.33021,1.68787 1.0141,2.0063 0.25061,0.11668 0.54643,0.21254 0.65737,0.21301 0.44989,0.002 1.11076,0.44833 1.17898,0.79636 0.11555,0.58955 -0.48988,0.97871 -1.49851,0.96323 -0.32411,-0.005 -0.70861,-0.0388 -0.85445,-0.0752 z"
         id="path2385"
         inkscape:connector-curvature="0" />
      <path
         style="fill:#00aad4;fill-opacity:1;stroke:#00aad4;stroke-width:0.25;stroke-opacity:1"
         d="m 35.405553,59.180308 c -1.790432,-0.63817 -3.644927,-1.61803 -4.411782,-2.331055 -1.05998,-0.985576 -1.928387,-2.532949 -3.963218,-7.061872 -3.012216,-6.704291 -3.529428,-7.347047 -9.259152,-11.506644 -4.076044,-2.959079 -4.83848,-3.618356 -4.18453,-3.618356 0.202148,0 2.494048,0.460294 5.093112,1.022875 4.067816,0.880501 5.038749,1.008631 6.97557,0.920536 2.110549,-0.096 2.528902,-0.215881 6.75,-1.934295 5.551025,-2.259829 6.575948,-2.38023 8.59016,-1.009116 1.641978,1.117725 2.148413,2.129439 1.921645,3.838899 -0.234632,1.768747 -1.064922,4.135038 -1.783157,5.08192 -0.762578,1.005344 -0.764438,1.484621 -0.0065,1.674851 0.32843,0.08243 0.958815,0.561791 1.400852,1.065246 0.715908,0.815372 0.785863,1.02697 0.640355,1.93692 -0.186765,1.167967 -0.78695,1.898717 -2.27637,2.771576 -1.087527,0.637333 -1.372215,1.137915 -1.851505,3.255588 -0.576477,2.547079 -1.848486,6.37442 -2.112647,6.356732 -0.150059,-0.01004 -0.835333,-0.218757 -1.522833,-0.463805 z"
         id="path2387"
         inkscape:connector-curvature="0" />
      <path
         style="fill:#00aad4;fill-opacity:1;stroke:#00aad4;stroke-width:0.25;stroke-opacity:1"
         d="m 34.443416,58.802973 c -3.544258,-1.553268 -4.258952,-2.288719 -6.21023,-6.390592 -3.703807,-7.785944 -3.93053,-8.197638 -5.373974,-9.758328 -0.799512,-0.864455 -3.216165,-2.899305 -5.370339,-4.52189 -2.154175,-1.622586 -3.988939,-3.067071 -4.077255,-3.209969 -0.241053,-0.390032 0.303036,-0.327285 4.05777,0.46796 7.775573,1.646852 8.92281,1.599578 14.503927,-0.59766 4.688758,-1.845924 6.245451,-2.233341 7.555948,-1.88046 1.232258,0.331812 3.135415,2.076616 3.39553,3.113004 0.287065,1.143755 -0.304187,3.563635 -1.40792,5.762343 -0.925075,1.842808 -0.969155,2.019649 -0.560847,2.25 0.926845,0.522889 2.324527,2.088381 2.324527,2.603618 0,1.114685 -0.722772,2.235495 -2.095592,3.249657 -1.301418,0.961413 -1.425738,1.146119 -1.909885,2.837539 -1.264615,4.418073 -2.133438,6.811513 -2.494523,6.871936 -0.20625,0.03451 -1.257962,-0.32421 -2.337137,-0.797158 z"
         id="path2389"
         inkscape:connector-curvature="0" />
      <path
         style="fill:#00aad4;fill-opacity:1;stroke:#00aad4;stroke-width:0.25;stroke-opacity:1"
         d="m 34.524218,58.931218 c -2.193577,-0.930035 -3.576619,-1.832082 -4.326601,-2.821896 -0.342531,-0.452067 -1.866716,-3.368785 -3.387077,-6.481594 -3.213814,-6.58001 -3.475996,-6.901377 -9.205145,-11.283107 -1.911543,-1.461974 -3.684063,-2.888558 -3.938934,-3.170187 -0.45311,-0.500681 -0.4517,-0.512053 0.06348,-0.512053 0.289787,0 2.529098,0.404403 4.976247,0.898674 3.763929,0.760232 4.815236,0.882386 6.824362,0.792937 2.189395,-0.09747 2.716905,-0.234249 6.75,-1.750158 2.40625,-0.904431 4.896697,-1.722125 5.534328,-1.817098 1.506137,-0.224334 2.999317,0.41658 4.278172,1.836312 0.777735,0.863408 0.9375,1.224637 0.9375,2.119678 0,1.357872 -0.57662,3.348526 -1.545117,5.334179 l -0.7509,1.539523 1.27301,1.227017 c 1.905312,1.836477 1.77221,2.732212 -0.753225,5.068936 -1.483805,1.37293 -1.487548,1.380025 -2.487425,4.713529 -1.30348,4.345693 -1.603088,5.041198 -2.161086,5.016716 -0.247641,-0.01087 -1.184357,-0.330998 -2.081592,-0.711408 z"
         id="path2391"
         inkscape:connector-curvature="0" />
      <path
         style="fill:#00aad4;fill-opacity:1;stroke:#00aad4;stroke-width:0.25;stroke-opacity:1"
         d="m 34.741176,59.068753 c -1.905257,-0.783667 -3.444505,-1.713243 -4.262562,-2.574226 -0.372317,-0.391853 -1.968498,-3.298764 -3.547071,-6.459803 -2.121153,-4.24754 -3.19455,-6.110103 -4.113327,-7.137462 -0.683758,-0.764566 -3.109451,-2.843093 -5.39043,-4.618948 -2.280978,-1.775856 -4.147233,-3.315927 -4.147233,-3.422381 0,-0.345544 1.192166,-0.207925 5.1942,0.599595 2.845702,0.574199 4.620926,0.793615 6.4308,0.79484 2.640125,0.0018 3.029245,-0.10307 10.125,-2.728415 2.638826,-0.976334 4.51222,-0.980654 5.93774,-0.01369 0.584508,0.396484 1.287633,1.084763 1.5625,1.529508 0.896668,1.45084 0.519515,4.113001 -1.012847,7.149276 l -0.706393,1.399665 1.2345,1.215937 c 1.059828,1.043892 1.2345,1.353685 1.2345,2.18948 0,0.862648 -0.194932,1.176967 -1.7113,2.759398 -0.941215,0.98222 -1.79389,2.010855 -1.89483,2.285855 -0.100942,0.275 -0.573377,1.780918 -1.049855,3.346485 -1.028224,3.378445 -1.458514,4.280557 -2.037935,4.27258 -0.237094,-0.0033 -1.06755,-0.267725 -1.845457,-0.587694 z"
         id="path2393"
         inkscape:connector-curvature="0" />
      <path
         style="fill:#00aad4;fill-opacity:1;stroke:#00aad4;stroke-width:0.25;stroke-opacity:1"
         d="m 34.436134,59.010101 c -1.98031,-0.851395 -3.15119,-1.616978 -4.065333,-2.658129 -0.419981,-0.478332 -2.039574,-3.378996 -3.599096,-6.445922 -3.349839,-6.587729 -3.797696,-7.135123 -9.6122,-11.74854 -2.139577,-1.69761 -3.849682,-3.206616 -3.800233,-3.353346 0.112222,-0.332998 0.759471,-0.260829 4.671281,0.52085 1.71875,0.34345 4.41875,0.681923 6,0.752162 3.20661,0.142438 3.618795,0.05047 10.125,-2.259206 1.7875,-0.634554 3.692605,-1.154152 4.23357,-1.154662 1.306568,-0.0012 2.967863,0.832666 3.891733,1.953482 0.633817,0.76893 0.74928,1.122902 0.746992,2.290052 -0.003,1.538237 -0.405692,3.056825 -1.395275,5.261906 l -0.6635,1.478478 1.15574,1.123252 c 0.994378,0.966423 1.15574,1.262829 1.15574,2.122957 0,0.881846 -0.201912,1.226427 -1.712655,2.922773 -1.682932,1.889696 -1.73305,1.986833 -2.88809,5.59771 -0.64649,2.021053 -1.304544,3.803753 -1.462345,3.961553 -0.429782,0.429782 -1.152732,0.334812 -2.781329,-0.36537 z"
         id="path2395"
         inkscape:connector-curvature="0" />
      <path
         style="fill:#00aad4;fill-opacity:1;stroke:#00aad4;stroke-width:0.25;stroke-opacity:1"
         d="m 33.591936,58.650571 c -1.13499,-0.5539 -2.430749,-1.374223 -2.879464,-1.822938 -0.4503,-0.4503 -2.096381,-3.26176 -3.673813,-6.27477 -3.861404,-7.37556 -4.03722,-7.589468 -10.580693,-12.873043 -1.758673,-1.420053 -3.153772,-2.708033 -3.10022,-2.862177 0.123381,-0.355142 0.979866,-0.271836 5.172807,0.503135 2.276951,0.420843 4.310376,0.628647 6.25,0.638711 3.103784,0.01611 2.72474,0.105965 9.582452,-2.271712 1.745487,-0.605188 3.414383,-1.025396 4.072461,-1.025396 1.979795,0 4.225242,1.616749 4.572607,3.292331 0.255775,1.233787 -0.1473,3.323071 -1.08525,5.625245 l -0.832185,2.042576 0.874768,0.832424 c 0.481122,0.457833 1.031612,1.198049 1.223312,1.644924 0.46404,1.081732 0.06985,2.029361 -1.620652,3.896077 -1.496603,1.652599 -1.75086,2.12208 -2.662595,4.916423 -1.509552,4.626567 -1.573522,4.75026 -2.45538,4.74764 -0.436996,-0.0012 -1.723166,-0.45555 -2.858155,-1.00945 z"
         id="path2397"
         inkscape:connector-curvature="0" />
    </g>
    <path
       sodipodi:nodetypes="csssssscscscssssscc"
       inkscape:connector-curvature="0"
       id="path2451"
       d="m 33.292429,58.516528 c -2.563941,-1.283511 -3.000242,-1.756704 -4.914712,-5.330276 -3.809451,-7.110765 -4.583407,-8.448076 -5.657461,-9.775483 -0.653687,-0.807881 -3.045038,-3.00237 -5.314112,-4.876642 -2.269075,-1.874273 -4.832698,-3.770689 -4.832698,-3.890168 0,-0.488507 1.317869,-0.197706 4.867347,0.439788 2.795847,0.502141 4.580549,0.671689 7.21476,0.685407 l 3.5,0.01823 4.598876,-1.589917 c 4.071809,-1.407699 4.766179,-1.577814 6.058662,-1.484325 1.553047,0.112338 2.722522,0.814182 3.826287,2.296294 0.923028,1.239424 0.580965,3.602406 -1.132417,7.822769 -0.310973,0.765984 -0.28496,0.835741 0.716985,1.922723 1.75004,1.89857 1.682117,2.585891 -0.51099,5.170836 -1.609863,1.897492 -1.889313,2.419334 -2.804258,5.23662 -0.379565,1.16875 -0.915027,2.659375 -1.189917,3.3125 -0.4517,1.073217 -0.136657,1.452665 -0.876659,1.452665 -0.473039,0 -2.227317,-0.749033 -3.549693,-1.411018 z"
       style="fill:#0088aa;fill-opacity:1;stroke:#0088aa;stroke-width:0.25;stroke-opacity:1" />
  </g>
</svg>
