<?xml version="1.0" encoding="UTF-8" standalone="no"?>
<!-- Generator: Adobe Illustrator 27.0.0, SVG Export Plug-In . SVG Version: 6.00 Build 0)  -->

<svg
   version="1.1"
   id="Layer_1"
   x="0px"
   y="0px"
   viewBox="0 0 490.30313 149.2"
   xml:space="preserve"
   sodipodi:docname="blueos-logo-blue.svg"
   width="490.30313"
   height="149.2"
   inkscape:version="1.2.2 (b0a8486541, 2022-12-01)"
   xmlns:inkscape="http://www.inkscape.org/namespaces/inkscape"
   xmlns:sodipodi="http://sodipodi.sourceforge.net/DTD/sodipodi-0.dtd"
   xmlns="http://www.w3.org/2000/svg"
   xmlns:svg="http://www.w3.org/2000/svg"><defs
   id="defs504" /><sodipodi:namedview
   id="namedview502"
   pagecolor="#ffffff"
   bordercolor="#666666"
   borderopacity="1.0"
   inkscape:showpageshadow="2"
   inkscape:pageopacity="0.0"
   inkscape:pagecheckerboard="true"
   inkscape:deskcolor="#d1d1d1"
   showgrid="false"
   inkscape:zoom="2.5590278"
   inkscape:cx="245.01493"
   inkscape:cy="75.419267"
   inkscape:window-width="3840"
   inkscape:window-height="2109"
   inkscape:window-x="2560"
   inkscape:window-y="0"
   inkscape:window-maximized="1"
   inkscape:current-layer="Layer_1" />
<style
   type="text/css"
   id="style399">
	.st0{fill:none;}
	.st1{fill:#135EA4;}
</style>
<g
   id="g499"
   transform="translate(-43,-50.6)">
	<g
   id="g471">
		<path
   class="st0"
   d="m 102.5,174.2 c -0.5,0.5 -1.2,0.9 -2,1.1 0.7,-0.2 1.4,-0.6 2,-1.1 z"
   id="path401" />
		<path
   class="st0"
   d="m 166.1,149.6 h -21.2 v 0 h 21.2 c 1.4,0 2.6,-0.7 3.3,-1.8 -0.7,1.1 -1.9,1.8 -3.3,1.8 z"
   id="path403" />
		<path
   class="st0"
   d="m 103.3,172.9 c -0.2,0.5 -0.5,0.9 -0.9,1.3 0.5,-0.4 0.7,-0.8 0.9,-1.3 z"
   id="path405" />
		<path
   class="st0"
   d="m 71.6,148.9 c 0.3,0.3 0.7,0.5 1,0.7 -0.4,-0.1 -0.7,-0.4 -1,-0.7 z"
   id="path407" />
		<path
   class="st0"
   d="m 72.7,101.5 c -0.4,0.3 -0.8,0.7 -1.1,1.1 0.3,-0.4 0.7,-0.8 1.1,-1.1 z"
   id="path409" />
		<path
   class="st0"
   d="m 140.9,174.8 c 0.6,0 1.1,-0.1 1.6,-0.3 -0.5,0.2 -1,0.3 -1.6,0.3 z"
   id="path411" />
		<path
   class="st0"
   d="m 139.4,174.5 c -0.5,-0.2 -0.9,-0.5 -1.3,-0.9 0.3,0.4 0.8,0.7 1.3,0.9 z"
   id="path413" />
		<path
   class="st0"
   d="m 143.7,173.6 c -0.4,0.4 -0.8,0.7 -1.3,0.9 0.6,-0.2 1,-0.5 1.3,-0.9 z"
   id="path415" />
		<path
   class="st0"
   d="m 98.1,175 c -0.5,-0.2 -0.9,-0.5 -1.3,-0.9 0.4,0.4 0.8,0.7 1.3,0.9 z"
   id="path417" />
		<path
   class="st0"
   d="m 169.5,107.2 c -0.4,0.4 -0.8,0.7 -1.3,0.9 0.5,-0.3 0.9,-0.6 1.3,-0.9 z"
   id="path419" />
		<path
   class="st0"
   d="m 142.3,75.2 c 0.5,0.1 1,0.3 1.4,0.6 -0.4,-0.3 -0.9,-0.5 -1.4,-0.6 z"
   id="path421" />
		<path
   class="st0"
   d="m 144.3,76.3 c 0.4,0.4 0.7,0.8 0.9,1.3 -0.3,-0.6 -0.6,-1 -0.9,-1.3 z"
   id="path423" />
		<path
   class="st0"
   d="m 96.2,100.8 v 0 H 75 c -0.8,0 -1.6,0.3 -2.2,0.7 0.6,-0.4 1.4,-0.7 2.2,-0.7 z"
   id="path425" />
		<path
   class="st0"
   d="M 104.2,108.9 H 75 c -0.8,0 -1.6,-0.3 -2.2,-0.7 0.6,0.4 1.4,0.7 2.2,0.7 h 29.2 V 79.7 c 0,-0.8 -0.3,-1.6 -0.7,-2.2 0.4,0.6 0.7,1.4 0.7,2.2 z"
   id="path427" />
		<path
   class="st0"
   d="m 97.3,76.8 c 0.4,-0.4 0.8,-0.7 1.3,-0.9 -0.5,0.2 -0.9,0.5 -1.3,0.9 z"
   id="path429" />
		<path
   class="st0"
   d="m 103.5,77.4 c -0.4,-0.6 -1,-1.1 -1.8,-1.5 0.8,0.3 1.4,0.8 1.8,1.5 z"
   id="path431" />
		<path
   class="st0"
   d="m 122.1,51.4 c -0.5,-0.2 -1,-0.3 -1.6,-0.3 v 0 c 0.6,-0.1 1.1,0 1.6,0.3 z"
   id="path433" />
		<path
   class="st0"
   d="m 119,199.1 c -0.5,-0.2 -0.9,-0.5 -1.3,-0.9 0.4,0.4 0.8,0.7 1.3,0.9 z"
   id="path435" />
		<path
   class="st0"
   d="m 116.5,195.4 c 0,1.1 0.4,2.1 1.2,2.8 -0.7,-0.7 -1.2,-1.7 -1.2,-2.8 z"
   id="path437" />
		<path
   class="st0"
   d="m 44.6,122.3 c 0,0 -0.1,0.1 -0.1,0.1 0.1,-0.1 0.1,-0.1 0.1,-0.1 z"
   id="path439" />
		<path
   class="st0"
   d="m 124.6,195.4 v 0 c 0,1.1 -0.4,2.1 -1.2,2.8 0.7,-0.7 1.2,-1.7 1.2,-2.8 z"
   id="path441" />
		<path
   class="st0"
   d="m 47.4,129.2 c -0.7,0 -1.4,-0.2 -2,-0.6 0.6,0.4 1.2,0.6 2,0.6 h 68.8 v 0 z"
   id="path443" />
		<path
   class="st0"
   d="m 123.4,198.2 c -0.4,0.4 -0.8,0.7 -1.3,0.9 0.5,-0.2 0.9,-0.5 1.3,-0.9 z"
   id="path445" />
		<path
   class="st0"
   d="m 124.9,129.2 v 0 h 68.8 c 0.8,0 1.6,-0.3 2.2,-0.7 -0.6,0.4 -1.4,0.7 -2.2,0.7 z"
   id="path447" />
		<path
   class="st0"
   d="m 120.5,199.4 c 0.6,0 1.1,-0.1 1.6,-0.3 -0.5,0.2 -1,0.3 -1.6,0.3 z"
   id="path449" />
		<path
   class="st0"
   d="m 197.1,123 c -0.3,-0.4 -0.7,-0.8 -1.1,-1.1 0.4,0.3 0.8,0.6 1.1,1.1 z"
   id="path451" />
		<path
   class="st0"
   d="m 193.7,121.2 c 0.8,0 1.6,0.3 2.2,0.7 -0.6,-0.4 -1.3,-0.7 -2.2,-0.7 h -68.8 v 0 z"
   id="path453" />
		<path
   class="st0"
   d="m 169.5,147.8 c 0.4,-0.6 0.7,-1.4 0.7,-2.2 0,-0.8 -0.3,-1.6 -0.7,-2.2 0.4,0.6 0.7,1.4 0.7,2.2 0,0.8 -0.3,1.6 -0.7,2.2 z"
   id="path455" />
		<path
   class="st0"
   d="m 166.1,141.6 h -29.2 v 0 h 29.2 c 1.4,0 2.6,0.7 3.3,1.8 -0.7,-1.1 -1.9,-1.8 -3.3,-1.8 z"
   id="path457" />
		<path
   class="st0"
   d="m 47.4,121.2 h 68.8 v 0 H 47.4 c -0.7,0 -1.4,0.2 -2,0.6 0.6,-0.4 1.2,-0.6 2,-0.6 z"
   id="path459" />
		<path
   class="st1"
   d="M 193.7,120.8 H 124.9 V 55 c 0,-2.4 -2,-4.4 -4.4,-4.4 -2.4,0 -4.4,2 -4.4,4.4 v 65.8 H 47.4 c -2.4,0 -4.4,2 -4.4,4.4 0,2.4 2,4.4 4.4,4.4 h 68.8 v 65.8 c 0,2.4 2,4.4 4.4,4.4 2.4,0 4.4,-2 4.4,-4.4 v -65.8 h 68.8 c 2.4,0 4.4,-2 4.4,-4.4 0,-2.4 -2.1,-4.4 -4.5,-4.4 z m 0,0.4 c 0.8,0 1.6,0.3 2.2,0.7 0.4,0.3 0.8,0.7 1.1,1.1 -0.3,-0.4 -0.7,-0.8 -1.1,-1.1 -0.6,-0.4 -1.3,-0.7 -2.2,-0.7 h -68.8 v 0 z M 122.1,51.4 c -0.5,-0.2 -1,-0.3 -1.6,-0.3 v 0 c 0.6,-0.1 1.1,0 1.6,0.3 z m -5.9,69.8 v 0 H 47.4 c -0.7,0 -1.4,0.2 -2,0.6 0.6,-0.3 1.3,-0.6 2,-0.6 z m -71.6,1.1 c 0,0 -0.1,0.1 -0.1,0.1 0.1,-0.1 0.1,-0.1 0.1,-0.1 z m 2.8,6.9 c -0.7,0 -1.4,-0.2 -2,-0.6 0.6,0.4 1.2,0.6 2,0.6 h 68.8 v 0 z m 70.3,69 c -0.7,-0.7 -1.2,-1.7 -1.2,-2.8 v 0 c 0,1.1 0.5,2.1 1.2,2.8 0.4,0.4 0.8,0.7 1.3,0.9 -0.5,-0.2 -0.9,-0.5 -1.3,-0.9 z m 6.9,-2.8 c 0,1.1 -0.4,2.1 -1.2,2.8 -0.4,0.4 -0.8,0.7 -1.3,0.9 -0.5,0.2 -1,0.3 -1.6,0.3 v 0 c 0.6,0 1.1,-0.1 1.6,-0.3 0.5,-0.2 0.9,-0.5 1.3,-0.9 0.7,-0.7 1.2,-1.7 1.2,-2.8 z m 69.1,-66.2 h -68.8 v 0 h 68.8 c 0.8,0 1.6,-0.3 2.2,-0.7 -0.6,0.5 -1.3,0.7 -2.2,0.7 z"
   id="path461" />
		<path
   class="st1"
   d="m 166.1,141.2 h -29.2 -0.4 v 0.4 29.2 c 0,2.4 2,4.4 4.4,4.4 2.4,0 4.4,-2 4.4,-4.4 V 150 h 20.9 c 2.4,0 4.4,-2 4.4,-4.4 -0.1,-2.4 -2,-4.4 -4.5,-4.4 z m -28,32.4 c 0.4,0.4 0.8,0.7 1.3,0.9 -0.5,-0.2 -1,-0.5 -1.3,-0.9 z m 4.4,0.9 c -0.5,0.2 -1,0.3 -1.6,0.3 v 0 c 0.6,0 1.1,-0.1 1.6,-0.3 0.5,-0.2 0.9,-0.5 1.3,-0.9 -0.4,0.4 -0.8,0.7 -1.3,0.9 z m 27.7,-28.9 c 0,0.8 -0.3,1.6 -0.7,2.2 -0.7,1.1 -1.9,1.8 -3.3,1.8 H 145 v 0 h 21.2 c 1.4,0 2.6,-0.7 3.3,-1.8 0.4,-0.6 0.7,-1.4 0.7,-2.2 0,-0.8 -0.3,-1.6 -0.7,-2.2 -0.7,-1.1 -1.9,-1.8 -3.3,-1.8 H 137 v 0 h 29.2 c 1.4,0 2.6,0.7 3.3,1.8 0.4,0.6 0.7,1.3 0.7,2.2 z"
   id="path463" />
		<path
   class="st1"
   d="m 75,109.2 h 29.2 0.4 v -0.4 -29.2 c 0,-2.4 -2,-4.4 -4.4,-4.4 -2.4,0 -4.4,2 -4.4,4.4 v 20.9 H 75 c -2.4,0 -4.4,2 -4.4,4.4 0,2.4 1.9,4.3 4.4,4.3 z m 28.5,-31.8 c 0.4,0.6 0.7,1.4 0.7,2.2 v 29.2 H 75 c -0.8,0 -1.6,-0.3 -2.2,-0.7 0.6,0.4 1.4,0.7 2.2,0.7 h 29.2 V 79.6 c 0,-0.8 -0.3,-1.6 -0.7,-2.2 -0.4,-0.6 -1,-1.1 -1.8,-1.5 0.8,0.3 1.4,0.8 1.8,1.5 z m -4.9,-1.5 c -0.5,0.2 -0.9,0.5 -1.3,0.9 0.4,-0.4 0.8,-0.7 1.3,-0.9 z m -25.9,25.6 c 0.6,-0.4 1.4,-0.7 2.2,-0.7 h 21.2 v 0 H 75 c -0.9,0 -1.6,0.3 -2.3,0.7 -0.4,0.3 -0.8,0.7 -1.1,1.1 0.3,-0.4 0.7,-0.8 1.1,-1.1 z"
   id="path465" />
		<path
   class="st1"
   d="m 74.4,141.7 c -2.4,0 -4.4,2 -4.4,4.4 0,2.4 2,4.4 4.4,4.4 h 20.9 v 20.9 c 0,2.4 2,4.4 4.4,4.4 2.4,0 4.4,-2 4.4,-4.4 v -29.2 -0.4 h -0.4 -29.3 z m -1.8,8 c -0.4,-0.2 -0.7,-0.4 -1,-0.7 0.3,0.2 0.6,0.5 1,0.7 z m 24.2,24.5 c 0.4,0.4 0.8,0.7 1.3,0.9 -0.5,-0.3 -0.9,-0.6 -1.3,-0.9 z m 5.7,0 c -0.5,0.5 -1.2,0.9 -2,1.1 0.7,-0.2 1.4,-0.6 2,-1.1 0.4,-0.4 0.7,-0.8 0.9,-1.3 -0.3,0.5 -0.5,0.9 -0.9,1.3 z"
   id="path467" />
		<path
   class="st1"
   d="m 166.7,108.7 c 2.4,0 4.4,-2 4.4,-4.4 0,-2.4 -2,-4.4 -4.4,-4.4 H 145.8 V 79.1 c 0,-2.4 -2,-4.4 -4.4,-4.4 -2.4,0 -4.4,2 -4.4,4.4 v 29.2 0.4 h 0.4 z m 1.5,-0.7 c 0.5,-0.2 0.9,-0.5 1.3,-0.9 -0.4,0.4 -0.8,0.7 -1.3,0.9 z M 145.1,77.5 c -0.2,-0.5 -0.5,-0.9 -0.9,-1.3 0.4,0.4 0.7,0.8 0.9,1.3 z m -1.4,-1.7 c -0.4,-0.3 -0.9,-0.5 -1.4,-0.6 0.5,0.1 1,0.3 1.4,0.6 z"
   id="path469" />
	</g>
	<g
   id="g497">
		<g
   id="g475">
			<path
   class="st1"
   d="m 273.1,125.8 c 1.9,-1.1 3.5,-2.5 4.8,-4.2 2.4,-3.2 3.7,-7.2 3.7,-11.9 0,-6.7 -2.3,-11.8 -6.9,-15.2 -4.4,-3.3 -10.6,-4.9 -18.4,-4.9 h -18.9 c -1,0 -1.8,0.8 -1.8,1.8 v 71.8 c 0,1 0.8,1.8 1.8,1.8 h 23.4 c 7.1,0 12.9,-1.9 17.3,-5.6 4.5,-3.8 6.7,-9.2 6.7,-16 0,-4.8 -1.7,-9.1 -5.1,-12.7 -1.8,-2.1 -4.1,-3.8 -6.6,-4.9 z m 1,28.9 c -3.1,2.7 -7.6,4.1 -13.1,4.1 h -19 v -29.3 h 19.5 c 5.5,0 9.8,1.4 12.8,4.1 3,2.7 4.4,6 4.4,9.9 0,4.9 -1.5,8.5 -4.6,11.2 z m -3,-34.9 c -3,2.3 -7.6,3.5 -13.7,3.5 H 242 V 95.8 h 14.5 c 6.4,0 11.3,1.2 14.5,3.6 3.1,2.3 4.5,5.6 4.5,10.2 -0.1,4.6 -1.5,8 -4.4,10.2 z"
   id="path473" />
		</g>
		<g
   id="g479">
			<path
   class="st1"
   d="m 298.9,84.4 h -2.7 c -1,0 -1.8,0.8 -1.8,1.8 v 77 c 0,1 0.8,1.8 1.8,1.8 h 2.7 c 1,0 1.8,-0.8 1.8,-1.8 v -77 c 0,-1 -0.8,-1.8 -1.8,-1.8 z"
   id="path477" />
		</g>
		<g
   id="g483">
			<path
   class="st1"
   d="M 350.7,108 H 348 c -1,0 -1.8,0.8 -1.8,1.8 v 36.6 c -0.8,4 -2.5,7.3 -5.1,9.7 -2.6,2.4 -6.5,3.6 -11.6,3.6 -4,0 -7.1,-1.5 -9.4,-4.5 -2.4,-3.1 -3.6,-8.1 -3.6,-15 v -30.5 c 0,-1 -0.8,-1.8 -1.8,-1.8 H 312 c -1,0 -1.8,0.8 -1.8,1.8 v 30.4 c 0,8.6 1.7,15 5.1,19.2 3.4,4.3 8.3,6.5 14.3,6.5 4.7,0 8.9,-1 12.2,-3 1.8,-1.1 3.4,-2.4 4.7,-3.9 l 0.2,4.1 c 0,1 0.8,1.7 1.8,1.7 h 2.2 c 1,0 1.8,-0.8 1.8,-1.8 v -53.4 c 0,-0.7 -0.8,-1.5 -1.8,-1.5 z"
   id="path481" />
		</g>
		<g
   id="g487">
			<path
   class="st1"
   d="m 386,107 c -6.8,0 -12.6,2.7 -17.2,8.2 -4.5,5.3 -6.8,12.1 -6.8,20.2 v 3.2 c 0,7.7 2.4,14.3 7.1,19.5 4.8,5.3 10.5,8 17.1,8 4.3,0 8.1,-0.6 11.3,-1.9 3.3,-1.3 6.1,-3.2 8.3,-5.8 0.6,-0.6 0.6,-1.5 0.1,-2.2 l -1.4,-2.1 c -0.3,-0.5 -0.8,-0.7 -1.4,-0.8 -0.5,0 -1.1,0.2 -1.4,0.6 -1.7,2 -3.8,3.4 -6.2,4.4 -2.5,1 -5.6,1.5 -9.3,1.5 -5.1,0 -9.2,-2 -12.7,-6.1 -3.5,-4.1 -5.3,-9.2 -5.3,-15.2 v -2 h 38.2 c 1,0 1.8,-0.8 1.8,-1.8 v -4.1 c 0,-7.1 -2.1,-12.9 -6.2,-17.1 -4.1,-4.3 -9.5,-6.5 -16,-6.5 z m 0,6.3 c 4.8,0 8.5,1.6 11.5,4.8 3,3.3 4.4,7.2 4.5,12.2 h -33.2 c 0.6,-4.7 2.4,-8.6 5.3,-11.8 3.2,-3.5 7.1,-5.2 11.9,-5.2 z"
   id="path485" />
		</g>
		<g
   id="g491">
			<path
   class="st1"
   d="m 446.6,88.5 c -9,0 -16.1,3.1 -21.2,9.2 -5,6 -7.6,14.1 -7.6,24.2 v 10.8 c 0,10.1 2.6,18.2 7.7,24.2 5.1,6.1 12.3,9.1 21.3,9.1 8.9,0 16.1,-3.1 21.2,-9.1 5.1,-6 7.6,-14.1 7.6,-24.2 v -10.8 c 0,-10.1 -2.6,-18.2 -7.7,-24.2 -5.2,-6.1 -12.4,-9.2 -21.3,-9.2 z m 0.1,71.3 c -7.3,0 -12.8,-2.3 -16.7,-7.1 -3.9,-4.8 -5.9,-11.6 -5.9,-20 v -10.9 c 0,-8.4 2,-15.1 5.9,-19.9 3.9,-4.8 9.3,-7.1 16.6,-7.1 7.3,0 12.8,2.3 16.7,7.1 4,4.8 6,11.5 6,19.9 v 10.9 c 0,8.5 -2,15.2 -5.9,20 -3.9,4.7 -9.4,7.1 -16.7,7.1 z"
   id="path489" />
		</g>
		<g
   id="g495">
			<path
   class="st1"
   d="m 526.6,131.5 c -4.2,-3.2 -10.5,-5.9 -18.7,-8 -7.9,-2 -13.4,-4.3 -16.3,-6.8 -2.8,-2.4 -4.1,-5.2 -4.1,-8.8 0,-3.5 1.6,-6.5 5,-9.1 3.5,-2.7 8.3,-4 14.4,-4 5.8,0 10.6,1.6 14.2,4.8 3.6,3.2 5.3,7.1 5.3,12 0,1 0.8,1.8 1.8,1.8 h 2.3 c 0.8,0 1.4,-0.5 1.7,-1.2 l 0.1,-0.3 c 0.1,-0.2 0.1,-0.3 0.1,-0.5 0.1,-6.7 -2.2,-12.2 -7.1,-16.5 -4.8,-4.2 -10.9,-6.3 -18.4,-6.3 -7.3,0 -13.4,1.7 -18.2,5.1 -4.9,3.5 -7.5,8.3 -7.5,14.3 0,6 2.2,10.6 6.4,13.7 4,3 10.1,5.5 18.6,7.8 7.9,2.2 13.4,4.5 16.5,7.1 2.9,2.4 4.3,5.4 4.3,9.4 0,4 -1.7,7.2 -5.3,9.8 -3.7,2.7 -8.6,4 -14.5,4 -5.9,0 -11.2,-1.4 -15.7,-4.2 -4.3,-2.6 -6.4,-6.8 -6.4,-12.7 0,-1 -0.8,-1.8 -1.8,-1.8 h -2.2 c -0.8,0 -1.4,0.5 -1.7,1.2 l -0.1,0.3 c -0.1,0.2 -0.1,0.3 -0.1,0.5 -0.2,7.9 2.6,13.7 8.4,17.4 5.5,3.5 12,5.3 19.6,5.3 7.3,0 13.5,-1.8 18.4,-5.2 5.1,-3.6 7.7,-8.6 7.7,-14.9 0.1,-6 -2.2,-10.8 -6.7,-14.2 z"
   id="path493" />
		</g>
	</g>
</g>
</svg>
