<?xml version="1.0" encoding="utf-8"?>
<!-- Generator: Adobe Illustrator 24.1.2, SVG Export Plug-In . SVG Version: 6.00 Build 0)  -->
<svg version="1.1" id="Layer_1" xmlns="http://www.w3.org/2000/svg" xmlns:xlink="http://www.w3.org/1999/xlink" x="0px" y="0px"
	 viewBox="0 0 360 360" style="enable-background:new 0 0 360 360;" xml:space="preserve">
<style type="text/css">
	.st0{fill:none;}
	.st1{fill:#135EA4;}
</style>
<g>
	<path class="st0" d="M148.09,92.32c0.52,0.77,0.9,1.65,1.1,2.6C148.99,93.98,148.61,93.1,148.09,92.32z"/>
	<path class="st0" d="M148.09,92.32c-1.05-1.55-2.67-2.67-4.57-3.06C145.41,89.65,147.04,90.77,148.09,92.32z"/>
	<path class="st0" d="M222.06,90.28c0.66,0.66,1.19,1.44,1.56,2.31C223.25,91.72,222.72,90.94,222.06,90.28z"/>
	<path class="st0" d="M219.75,88.72c-0.87-0.37-1.83-0.57-2.83-0.57l0,0C217.92,88.15,218.88,88.35,219.75,88.72z"/>
	<path class="st0" d="M142.55,269.93c1.89-0.39,3.52-1.51,4.57-3.06C146.07,268.42,144.45,269.54,142.55,269.93z"/>
	<path class="st0" d="M148.21,264.27c-0.19,0.95-0.57,1.83-1.1,2.6C147.64,266.1,148.02,265.22,148.21,264.27z"/>
	<path class="st0" d="M224.19,133.92L224.19,133.92l0-38.5c0-1-0.2-1.96-0.57-2.83c0.37,0.87,0.57,1.83,0.57,2.83V133.92z"/>
	<path class="st1" d="M311.78,170.69H187.42V51.8c0-4.64-3.78-8.42-8.42-8.42s-8.42,3.78-8.42,8.42v118.89H46.22
		c-4.64,0-8.42,3.78-8.42,8.42s3.78,8.42,8.42,8.42h124.35v118.89c0,4.64,3.78,8.42,8.42,8.42s8.42-3.78,8.42-8.42V187.54h124.36
		c4.64,0,8.42-3.78,8.42-8.42S316.42,170.69,311.78,170.69z"/>
	<path class="st1" d="M261.72,207.64h-53.05h-1.15v1.15v53.05c0,4.64,3.78,8.42,8.42,8.42c4.64,0,8.42-3.78,8.42-8.42v-37.35h37.35
		c4.64,0,8.42-3.78,8.42-8.42S266.37,207.64,261.72,207.64z"/>
	<path class="st1" d="M96.28,150.59h53.05h1.15v-1.15V96.39c0-4.64-3.78-8.42-8.42-8.42c-4.64,0-8.42,3.78-8.42,8.42v37.35H96.28
		c-4.64,0-8.42,3.78-8.42,8.42C87.85,146.81,91.63,150.59,96.28,150.59z M148.09,92.32c0.52,0.77,0.9,1.65,1.1,2.6
		C148.99,93.98,148.61,93.1,148.09,92.32c-1.05-1.55-2.67-2.67-4.57-3.06C145.41,89.65,147.04,90.77,148.09,92.32z"/>
	<path class="st1" d="M95.31,208.61c-4.64,0-8.42,3.78-8.42,8.42s3.78,8.42,8.42,8.42h37.35v37.35c0,4.64,3.78,8.42,8.42,8.42
		c4.64,0,8.42-3.78,8.42-8.42v-53.05v-1.15h-1.15H95.31z M147.12,266.87c-1.05,1.55-2.67,2.67-4.57,3.06
		C144.45,269.54,146.07,268.42,147.12,266.87c0.52-0.77,0.9-1.65,1.1-2.6C148.02,265.22,147.64,266.1,147.12,266.87z"/>
	<path class="st1" d="M262.69,149.62c4.64,0,8.42-3.78,8.42-8.42c0-4.64-3.78-8.42-8.42-8.42h-37.35V95.42
		c0-4.64-3.78-8.42-8.42-8.42c-4.64,0-8.42,3.78-8.42,8.42v53.05v1.15h1.15H262.69z M223.62,92.59c0.37,0.87,0.57,1.83,0.57,2.83
		v38.5h0v-38.5C224.19,94.42,223.99,93.46,223.62,92.59c-0.37-0.87-0.9-1.65-1.56-2.31C222.72,90.94,223.25,91.72,223.62,92.59z
		 M219.75,88.72c-0.87-0.37-1.83-0.57-2.83-0.57l0,0C217.92,88.15,218.88,88.35,219.75,88.72z"/>
</g>
</svg>
