<?xml version="1.0" encoding="UTF-8" standalone="no"?>
<!-- Created with Inkscape (http://www.inkscape.org/) -->

<svg
   version="1.1"
   id="svg1"
   width="82.565521"
   height="88.362396"
   viewBox="0 0 82.565521 88.362396"
   xmlns:xlink="http://www.w3.org/1999/xlink"
   xmlns="http://www.w3.org/2000/svg"
   xmlns:svg="http://www.w3.org/2000/svg">
  <defs
     id="defs1">
    <clipPath
       clipPathUnits="userSpaceOnUse"
       id="clipPath10">
      <path
         d="M 0,0 H 612 V 803.25 H 0 Z"
         id="path10" />
    </clipPath>
    <clipPath
       clipPathUnits="userSpaceOnUse"
       id="clipPath18">
      <path
         d="M 0,0 H 612 V 803.25 H 0 Z"
         id="path18" />
    </clipPath>
    <clipPath
       clipPathUnits="userSpaceOnUse"
       id="clipPath20">
      <path
         d="M 0,0 H 612 V 803.25 H 0 Z"
         id="path20" />
    </clipPath>
    <clipPath
       clipPathUnits="userSpaceOnUse"
       id="clipPath22">
      <path
         d="M 0,0 H 612 V 803.25 H 0 Z"
         id="path22" />
    </clipPath>
    <clipPath
       clipPathUnits="userSpaceOnUse"
       id="clipPath24">
      <path
         d="M 0,0 H 612 V 803.25 H 0 Z"
         id="path24" />
    </clipPath>
    <clipPath
       clipPathUnits="userSpaceOnUse"
       id="clipPath26">
      <path
         d="M 0,0 H 612 V 803.25 H 0 Z"
         id="path26" />
    </clipPath>
  </defs>
  <g
     id="g1"
     transform="translate(-142.20346,-233.6976)">
    <path
       id="path9"
       d="m 155.0664,592.7441 c 0,-6.4646 -3.4975,-12.1125 -8.7037,-15.1541 -2.5946,-1.5158 -5.6134,-2.3847 -8.8351,-2.3847 -6.4647,0 -12.1126,3.4974 -15.1542,8.7037 -1.5158,2.5946 -2.3847,5.6133 -2.3847,8.8351 0,6.4646 3.4975,12.1125 8.7037,15.1541 2.5946,1.5158 5.6134,2.3847 8.8352,2.3847 6.4646,0 12.1125,-3.4974 15.1541,-8.7037 1.5158,-2.5946 2.3847,-5.6133 2.3847,-8.8351 m -1.5938,0 c 0,2.9285 -0.7892,5.6727 -2.167,8.0312 -2.7654,4.7335 -7.9003,7.9139 -13.778,7.9139 -2.9285,0 -5.6727,-0.7892 -8.0312,-2.1671 -4.7335,-2.7654 -7.9139,-7.9002 -7.9139,-13.778 0,-2.9285 0.7892,-5.6727 2.167,-8.0311 2.7655,-4.7336 7.9003,-7.914 13.7781,-7.914 2.9284,0 5.6726,0.7892 8.0311,2.1671 4.7335,2.7654 7.9139,7.9002 7.9139,13.778 m -9.5332,-15.4465 c 1e-4,0.2569 0.2084,0.4651 0.4653,0.4651 0.2469,-10e-5 0.4508,-0.1932 0.4643,-0.4398 0.252,-4.6039 1.6809,-8.7675 3.7188,-11.6717 0.2713,-0.3866 0.1778,-0.92 -0.2088,-1.1913 -0.3866,-0.2713 -0.9199,-0.1778 -1.1912,0.2088 -0.0117,0.0166 -0.0227,0.0336 -0.0331,0.0509 -2.0117,3.3492 -3.2164,7.7992 -3.2153,12.578 m -2.907,-14.7063 c 0,-0.4894 -0.3967,-0.8861 -0.886,-0.8861 -0.4894,0 -0.8861,0.3967 -0.8861,0.8861 0,0.4894 0.3967,0.8861 0.8861,0.8861 0.4893,0 0.886,-0.3967 0.886,-0.8861 m 7.2456,2.5999 c 0.2571,-0.0195 0.4496,-0.2438 0.4301,-0.5008 -0.0141,-0.1863 -0.138,-0.3462 -0.3148,-0.4065 l -1.0911,-0.4102 c -1.3821,-0.3352 -2.7289,-0.7736 -4.0127,-1.2144 l -2.0762,-0.6687 -0.8178,-0.2496 c -0.4696,-0.1376 -0.9619,0.1315 -1.0995,0.6011 -0.1376,0.4697 0.1316,0.9619 0.6012,1.0995 0.009,0.003 0.018,0.005 0.0271,0.008 l 0.7875,0.215 2.0679,0.6031 c 1.3475,0.3617 2.7654,0.7265 4.1435,0.9526 l 1.3548,-0.0286 z m -19.3545,12.4105 c 0.1913,-0.1455 0.2283,-0.4185 0.0828,-0.6097 -0.1125,-0.1479 -0.3066,-0.208 -0.483,-0.1496 -0.6096,0.2019 -0.5279,0.6217 -0.6841,1.0296 l -0.3327,0.7442 0.0847,-0.1176 c -0.0257,0.0245 0.187,-0.116 0.1249,-0.0858 -0.0582,0.0284 0.3697,-0.0567 0.2549,-0.0572 -0.1065,-5e-4 0.4909,0.2192 0.3679,0.1257 -0.1093,-0.0831 0.2495,0.4044 0.2177,0.3068 -0.0256,-0.0786 0.0319,0.2 0.0303,0.1654 -0.005,-0.098 -0.007,0.115 -0.006,0.1091 l 0.006,-0.0222 c 0.015,-0.0527 0.0239,-0.107 0.0265,-0.1618 l 0.2637,-1.0076 c 0.7475,-2.4128 1.8621,-4.6229 3.1306,-6.5209 1.9774,-2.9157 4.2695,-5.6242 7.9241,-6.7758 0.5081,-0.1602 0.7902,-0.7019 0.6301,-1.2101 -0.1601,-0.5082 -0.7019,-0.7903 -1.2101,-0.6302 -0.008,0.003 -0.0166,0.005 -0.0248,0.008 -4.2087,1.4529 -6.6954,4.6576 -8.6471,7.7447 -1.3046,2.0332 -2.4432,4.3902 -3.1937,6.9645 -0.1445,0.4993 -0.292,0.9356 -0.2935,1.3917 -1e-4,0.0548 0.006,0.1095 0.0184,0.1629 l 0.1943,0.3902 c 0.1052,0.1184 0.315,0.2945 0.653,0.2285 0.2655,-0.0519 0.436,-0.2872 0.4772,-0.381 l 0.0693,-0.3159 0.1676,-0.7726 0.1529,-0.4752 0.0552,-0.1318 c 0.01,-0.0189 -0.1356,0.1131 -0.0573,0.0535 m 22.3326,42.903 c 0,-0.5333 -0.4324,-0.9657 -0.9658,-0.9657 -0.5334,0 -0.9657,0.4324 -0.9657,0.9657 0,0.5334 0.4323,0.9658 0.9657,0.9658 0.5334,0 0.9658,-0.4324 0.9658,-0.9658 m -5.5135,-10.4786 c 0.1817,-0.151 0.2066,-0.4208 0.0556,-0.6025 -0.0743,-0.0894 -0.1817,-0.1448 -0.2977,-0.1533 -0.0778,-0.006 0.091,0.0372 0.0729,0.0158 l -0.0688,-0.1249 c -0.0274,-0.0818 -0.0333,0.3791 -0.003,0.2905 0.044,-0.127 -0.2658,0.2796 -0.1928,0.2375 0.0731,-0.0422 -0.4413,0.0386 -0.3045,0.0556 0.0974,0.0121 0.196,0.008 0.292,-0.0122 0.157,-0.0329 -0.4609,-0.0405 -0.3752,-0.0145 0.0689,0.0209 -0.161,-0.0742 -0.1355,-0.0589 l 0.0542,0.0676 0.243,0.2948 c 0.8346,1.0233 1.7145,3.0347 2.6568,4.9878 l 0.1696,0.3983 c 0.3885,1.0637 0.7014,2.4307 0.998,3.6616 l 0.3395,1.298 0.1203,0.4219 c 0.1572,0.5097 0.6977,0.7955 1.2074,0.6384 0.5097,-0.1571 0.7955,-0.6977 0.6384,-1.2074 -0.006,-0.0193 -0.0125,-0.0384 -0.0197,-0.0573 l -0.1235,-0.3554 -0.3222,-1.1946 c -0.3184,-1.2202 -0.6579,-2.6326 -1.1308,-3.8529 l -0.239,-0.5468 c -0.9313,-1.9151 -1.7829,-3.9747 -2.8959,-5.3268 l -0.4364,-0.4877 c -0.1817,-0.1758 -0.4106,-0.5918 -1.1589,-0.3935 -0.0948,0.0251 -0.1847,0.0658 -0.2662,0.1203 -0.615,0.4114 -0.6865,1.3776 -0.1267,1.7833 0.3079,0.2259 0.8524,0.4466 1.2487,0.1173 m 4.6584,11.265 c 0.0325,0.2315 0.2465,0.3927 0.4779,0.3602 0.0837,-0.0118 0.1619,-0.0483 0.2246,-0.1049 l 0.2775,-0.2051 c 0.1007,-0.0593 0.1844,-0.1435 0.243,-0.2445 0.5216,-0.898 1.6013,-1.2947 2.5755,-2.1879 1.1316,-1.1559 2.3945,-2.867 3.1857,-3.3386 0.3117,-0.1858 0.4138,-0.5891 0.2279,-0.9008 -0.1767,-0.2965 -0.5527,-0.4057 -0.8608,-0.25 -1.3408,0.6777 -2.5764,2.4155 -3.5966,3.3511 -0.685,0.699 -1.9947,1.2731 -2.7229,2.6703 -0.0539,0.1036 -0.0803,0.2194 -0.0766,0.3362 z m 6.7426,-6.6536 c -0.0294,0.257 0.1551,0.4892 0.4122,0.5187 0.2436,0.0278 0.4675,-0.1369 0.5134,-0.3778 0.4407,-2.3123 1.1793,-5.2234 1.2544,-8.0809 -0.0393,-4.6394 -1.8134,-8.4314 -3.2842,-11.6404 -0.1558,-0.3399 -0.5577,-0.4892 -0.8977,-0.3334 -0.3377,0.1548 -0.4876,0.5529 -0.336,0.892 1.4371,3.2131 3.0618,6.8039 3.0682,11.0638 0.0967,2.6688 -0.4581,5.5787 -0.7303,7.958 m -49.7981,-19.9899 c -0.2273,-0.0543 -0.4556,0.0859 -0.5099,0.3132 -0.051,0.2136 0.0699,0.4308 0.2784,0.5 2.1942,0.7277 4.5917,0.9224 6.8647,0.7687 2.6483,-0.3334 4.9948,-1.0979 6.633,-2.1263 0.2805,-0.1761 0.3651,-0.5462 0.1891,-0.8267 -0.1709,-0.2722 -0.5259,-0.3613 -0.805,-0.2021 -1.4738,0.8407 -3.6918,1.5016 -6.1337,1.7386 -2.1434,0.3336 -4.4048,0.3392 -6.5166,-0.1654 m -0.4382,1.2167 c 0.0501,0.2496 0.2931,0.4113 0.5427,0.3611 0.1853,-0.0372 0.3291,-0.1837 0.3628,-0.3697 l 0.0182,-0.0816 -0.023,0.0469 -0.0515,0.0699 c 0.0295,-0.0329 -0.2988,0.1802 -0.1816,0.1299 0.2741,-0.1177 0.4009,-0.4352 0.2832,-0.7093 -0.1176,-0.274 -0.4352,-0.4009 -0.7093,-0.2832 -0.274,0.1176 -0.4008,0.4352 -0.2832,0.7093 0.0409,0.0952 0.1084,0.1767 0.1944,0.2347 0.0908,0.0613 -0.1518,-0.1562 -0.132,-0.1282 0.0564,0.0798 -0.0465,-0.0871 -0.0435,-0.0772 z m 0.6377,-0.9046 c -0.1764,-0.0548 -0.3682,-0.0241 -0.5188,0.0829 -0.3194,0.2269 -0.2291,0.2945 -0.2521,0.365 l -0.1209,0.6095 0.1055,3.0911 0.3388,2.7255 0.1341,0.7751 c 0.1083,0.4757 0.5818,0.7735 1.0575,0.6652 0.4758,-0.1084 0.7736,-0.5819 0.6653,-1.0576 -0.004,-0.0154 -0.008,-0.0308 -0.0118,-0.046 l -0.1294,-0.623 -0.3105,-2.5827 -0.3388,-2.9036 -0.1361,-0.5399 -0.0867,-0.2091 c -0.0407,-0.0786 0.0402,-0.217 -0.3961,-0.3524 m 1.7371,8.5115 c 3e-4,-0.2523 -0.204,-0.4571 -0.4563,-0.4573 -0.1658,-2e-4 -0.3186,0.0895 -0.3994,0.2343 -0.2687,0.4819 -0.0542,1.0664 0.1568,1.4365 0.641,0.7648 0.9786,1.4218 1.7409,2.0871 l 1.3947,0.9688 c 1.3232,0.8102 2.9133,1.3976 4.4634,1.9709 2.6011,0.9791 6.1287,1.0982 9.1209,0.2709 1.4593,-0.5202 2.6927,-1.2558 3.4495,-2.2941 0.2289,-0.3141 0.1599,-0.7544 -0.1542,-0.9834 -0.279,-0.2033 -0.6642,-0.1743 -0.9096,0.0685 -0.629,0.6222 -1.6447,1.0742 -2.8505,1.3413 -2.6044,0.7812 -5.8911,0.7217 -8.0714,-0.0349 -1.5383,-0.5438 -3.0515,-1.0917 -4.1857,-1.7603 l -1.2389,-0.7875 c -0.5982,-0.4451 -0.9542,-0.977 -1.6577,-1.6849 z m -1.3449,-0.5495 c 0.0863,0.2269 0.3402,0.3409 0.5671,0.2546 0.209,-0.0795 0.325,-0.3032 0.2696,-0.5199 l -0.0697,-0.2017 c -0.0273,-0.0519 -0.1287,-0.2749 -0.4482,-0.2459 -0.5015,0.0456 -0.4052,0.3243 -0.4188,0.3933 l 0.003,0.4135 0.1242,0.4282 c 0.0138,0.0507 0.0595,-0.3062 0.0194,-0.1982 -0.0215,0.058 0.1908,-0.2356 0.126,-0.1799 -0.0663,0.057 0.3407,-0.1177 0.249,-0.1077 -0.0473,-0.009 0.3891,0.1283 0.3422,0.0927 -0.071,-0.0537 0.095,0.1005 0.0882,0.0904 l -0.0845,-0.1419 c -0.19,-0.1715 -0.4427,-0.2816 -0.6837,-0.1425 -0.4073,0.235 -0.2638,0.4153 -0.2625,0.4701 0.006,0.2521 0.0674,0.3155 0.1725,0.5313 l 0.3128,0.4277 c 0.1355,0.1332 0.3797,0.3125 0.6984,0.2195 0.2431,-0.071 0.3827,-0.3256 0.3117,-0.5687 -0.0583,-0.1997 -0.2438,-0.3352 -0.4518,-0.3299 -0.0929,0.002 0.208,0.0731 0.1835,0.0544 l -0.103,-0.2144 -0.0876,-0.2117 0.007,0.05 4e-4,0.0602 -0.0146,0.0946 c 0.009,-0.035 -0.0962,0.2027 -0.0593,0.1417 0.0298,-0.0491 -0.2401,0.2186 -0.1584,0.1646 0.064,-0.0422 -0.3271,0.0925 -0.2381,0.084 0.1323,-0.0125 -0.387,-0.1132 -0.3168,-0.0713 0.0649,0.0387 -0.1502,-0.1331 -0.1252,-0.1045 0.1944,0.1499 0.0266,0.0254 0.0281,0.0271 l 0.0837,0.0956 c 0.0589,0.0596 0.1904,0.2895 0.5811,0.1481 0.3508,-0.058 0.4053,-0.5274 0.3378,-0.7449 l -0.1324,-0.3253 -0.0392,-0.1998 c -4e-4,-0.005 -0.0308,0.203 -0.009,0.1065 l -0.0295,0.0881 c 0.0171,-0.0376 -0.139,0.1789 -0.0918,0.1319 0.0458,-0.0455 -0.2446,0.1307 -0.1769,0.1085 0.1246,-0.0409 -0.3744,-0.0373 -0.3051,-0.01 0.1089,0.0437 -0.1913,-0.1486 -0.1676,-0.1204 0.0561,0.0671 -0.0408,-0.0638 -0.0312,-0.0385"
       style="fill-opacity:1;fill-rule:nonzero;stroke:none"
       transform="matrix(1.3333333,0,0,-1.3333333,0,1071)"
       clip-path="url(#clipPath10)" />
    <path
       id="path17"
       d="m 135.9822,624.5422 c -0.2372,0.124 -0.3289,0.4168 -0.2048,0.654 0.0407,0.0778 0.1018,0.1431 0.1767,0.1889 l 0.301,0.1786 c 0.1004,0.0577 0.2139,0.0886 0.3297,0.0898 1.2811,0.0131 2.5523,-0.1834 3.8974,-0.5994 1.0691,-0.3209 1.946,-0.7336 2.7523,-1.2397 1.3712,-0.8865 3.2674,-1.6654 4.3147,-2.9809 0.2737,-0.3438 0.2168,-0.8443 -0.1269,-1.118 -0.3438,-0.2737 -0.8444,-0.2169 -1.1181,0.1269 -0.003,0.004 -0.006,0.007 -0.008,0.0107 -0.6202,0.807 -2.4186,1.7017 -3.8893,2.6807 -0.6957,0.4765 -1.4118,0.8523 -2.3599,1.1714 -1.2141,0.3973 -2.3228,0.5885 -3.4605,0.5978 -0.1158,10e-4 -0.2294,0.0317 -0.3299,0.0892 l -0.274,0.15 z m 23.0836,-50.409 c -0.1557,-0.1742 -0.4232,-0.1892 -0.5975,-0.0335 -0.0845,0.0756 -0.1352,0.1819 -0.1406,0.2952 l 1e-4,0.0206 0.0318,-0.0716 0.0534,-0.0739 c -0.0282,0.032 0.2695,-0.1766 0.1628,-0.1239 -0.2753,0.136 -0.3883,0.4695 -0.2523,0.7449 0.136,0.2754 0.4695,0.3883 0.7449,0.2523 0.2753,-0.136 0.3883,-0.4695 0.2523,-0.7449 -0.0908,-0.1839 -0.2755,-0.3028 -0.4805,-0.3095 -0.1055,-0.003 0.1977,0.044 0.1672,0.0325 -0.0897,-0.0336 0.0991,0.0537 0.0979,0.0526 z m -0.6827,1.1144 c 0.3072,0.2355 0.7471,0.1773 0.9826,-0.1299 0.2195,-0.2864 0.1857,-0.6927 -0.0782,-0.9388 -0.0521,-0.0486 0.0717,0.0807 0.0664,0.0735 l -0.2953,-0.543 -0.4421,-0.8467 -0.365,-0.5997 -0.5256,-0.5643 c -0.6726,-0.6196 -1.3434,-1.0728 -2.0327,-1.4638 -1.3372,-0.8203 -2.4666,-1.766 -4.1755,-2.2577 -0.3869,-0.1114 -0.7909,0.1121 -0.9022,0.499 -0.1114,0.387 0.1121,0.7909 0.499,0.9023 0.004,10e-4 0.009,0.002 0.0133,0.004 1.4142,0.3782 2.4302,1.18 3.8834,2.034 0.5871,0.3729 1.1348,0.7867 1.6806,1.3358 l 0.3618,0.3781 0.3367,0.4848 0.4111,0.757 c 0.1812,0.3378 0.1204,0.5221 0.5817,0.8757 m -46.9351,6.3359 c -0.1004,0.2111 -0.0107,0.4635 0.2003,0.5639 0.1712,0.0815 0.3757,0.0391 0.5005,-0.1037 l 0.1463,-0.1575 -0.0397,0.0214 c 0.0285,-0.0147 -0.3229,0.0599 -0.1913,0.0517 0.2847,-0.0177 0.5012,-0.263 0.4834,-0.5478 -0.0177,-0.2848 -0.263,-0.5012 -0.5478,-0.4835 -0.2847,0.0178 -0.5012,0.2631 -0.4834,0.5478 0.006,0.0914 0.0355,0.1796 0.0865,0.2557 0.046,0.0686 -0.0782,-0.1882 -0.0685,-0.1515 0.0164,0.0626 -0.0145,-0.1509 -0.0151,-0.125 -0.002,0.0733 0.009,-0.0625 -0.001,-0.0344 z m 1.0994,-0.352 c -0.0675,-0.1683 -0.2121,-0.2937 -0.3883,-0.3368 -0.3991,-0.0976 -0.4088,0.0428 -0.4779,0.0836 l -0.4401,0.3772 c -1.04,1.5619 -1.7465,3.3978 -2.0898,5.2235 -0.1841,1.0283 -0.3279,2.0288 -0.4011,3.1059 -0.0626,0.8435 -0.2775,1.7907 -0.0475,2.6767 0.0727,0.2534 0.1897,0.5209 0.4519,0.7333 0.3507,0.284 0.8652,0.2299 1.1491,-0.1208 0.2791,-0.3445 0.2323,-0.8488 -0.1052,-1.1362 -0.0508,-0.0432 0.1012,0.1281 0.0894,0.1063 -0.0787,-0.2747 -0.005,-1.2474 0.0431,-2.1644 0.0583,-1.0015 0.1825,-1.9408 0.3491,-2.9281 0.2623,-1.6394 0.8722,-3.341 1.6683,-4.6362 l 0.1728,-0.4281 c 0.034,-0.1005 0.237,-0.0307 0.0262,-0.5559"
       style="fill:#006fff;fill-opacity:1;fill-rule:nonzero;stroke:none"
       transform="matrix(1.3333333,0,0,-1.3333333,0,1071)"
       clip-path="url(#clipPath18)" />
    <path
       id="path19"
       d="m 124.1171,566.7442 c 0.004,0.2486 0.2088,0.4468 0.4574,0.4427 0.0312,-5e-4 0.0622,-0.004 0.0927,-0.0112 l 0.1939,-0.039 c 0.116,-0.0209 0.2235,-0.0747 0.3097,-0.155 0.6084,-0.5669 1.987,-1.1755 3.1314,-1.5508 1.8628,-0.6392 3.011,-1.4194 4.9539,-1.3066 0.3727,0.0217 0.6924,-0.2629 0.714,-0.6356 0.0217,-0.3727 -0.2629,-0.6924 -0.6356,-0.714 -2.3221,-0.1296 -3.7647,0.803 -5.4592,1.3896 -1.2366,0.447 -2.6873,1.0621 -3.5572,1.9362 -0.0832,0.0835 -0.1405,0.1893 -0.1651,0.3045 z m -12.6157,45.6476 c -0.0297,-0.2528 -0.2587,-0.4338 -0.5115,-0.4041 -0.2135,0.025 -0.3814,0.1943 -0.4046,0.408 -0.0984,0.9052 0.3885,1.8157 0.7918,2.5633 l 0.5838,0.838 c 0.3669,0.4675 0.8436,0.8992 1.2451,1.2901 l 0.8123,0.824 0.3273,0.3295 c 1.1487,1.0049 2.5723,2.2214 3.9495,2.5816 0.3857,0.1008 0.7801,-0.1301 0.8809,-0.5157 0.0977,-0.3735 -0.1158,-0.7577 -0.4845,-0.872 -0.8085,-0.2508 -2.234,-1.3897 -3.2496,-2.3398 l -0.3559,-0.3043 -0.8916,-0.7724 -1.1606,-1.1134 -0.4693,-0.6643 c -0.5347,-0.657 -1.0039,-1.3429 -1.0631,-1.8485 m 50.6086,-3.5562 c 0,-0.3905 -0.3165,-0.7071 -0.7071,-0.7071 -0.3905,0 -0.707,0.3166 -0.707,0.7071 0,0.3905 0.3165,0.7071 0.707,0.7071 0.3906,0 0.7071,-0.3166 0.7071,-0.7071 m -1.4104,-0.0727 c -0.0401,0.3884 0.2422,0.7359 0.6307,0.776 0.3884,0.0402 0.7358,-0.2422 0.776,-0.6306 0.004,-0.0425 0.005,-0.0853 0.002,-0.1279 -0.007,-0.089 -0.0163,0.1722 -0.011,0.1522 l 0.107,-0.1864 0.4376,-0.5479 c 1.3815,-1.6432 2.2835,-3.4608 2.7864,-5.3192 0.4577,-1.8026 0.5408,-3.9717 0.5773,-5.907 0.006,-0.3459 -0.2686,-0.6315 -0.6145,-0.6381 -0.34,-0.006 -0.623,0.2597 -0.6376,0.5994 -0.0818,1.9038 -0.2218,4.0096 -0.6644,5.5753 -0.4493,1.6894 -1.2485,3.3197 -2.4944,4.8135 l -0.5254,0.6684 c -0.1502,0.2011 -0.3244,0.3382 -0.3693,0.7723 m -35.359,-44.865 c -0.0302,-0.3727 -0.3567,-0.6503 -0.7293,-0.6202 -0.3107,0.0251 -0.5641,0.2592 -0.6138,0.5669 l -0.1061,0.2556 -0.425,1.6087 -0.1939,0.8413 c -0.0413,0.2601 -0.1756,0.6723 0.2144,1.0972 0.2176,0.2665 0.4691,0.269 0.601,0.2823 l 0.2151,0.0121 0.7907,0.1262 0.6794,0.1676 0.5485,0.1751 c 0.0566,0.0206 0.1155,0.0342 0.1754,0.0406 l 0.7002,0.1094 c 0.2898,0.0626 0.5754,-0.1216 0.638,-0.4114 0.0385,-0.1784 -0.0163,-0.3642 -0.1455,-0.4932 l -0.6948,-0.5616 c -0.0498,-0.0339 -0.1036,-0.0616 -0.16,-0.0826 l -0.6465,-0.2117 -0.7964,-0.1867 -1.007,-0.1116 -0.1869,-10e-4 0.0668,0.0128 0.1097,0.0445 c -0.0474,-0.0254 0.207,0.174 0.1549,0.1188 -0.0262,-0.0326 0.1378,0.2632 0.1238,0.2122 -0.0186,-0.0677 0.0117,0.0877 0.0131,0.0702 l 0.0239,-0.1551 0.1725,-0.7736 0.3463,-1.4474 c 0.065,-0.2126 0.161,-0.3205 0.1315,-0.6854"
       style="fill:#fa9d00;fill-opacity:1;fill-rule:nonzero;stroke:none"
       transform="matrix(1.3333333,0,0,-1.3333333,0,1071)"
       clip-path="url(#clipPath20)" />
    <path
       id="path21"
       d="m 137.9654,627.9531 c 0.2605,0.0834 0.5392,-0.0602 0.6226,-0.3206 0.0497,-0.1553 0.0197,-0.3251 -0.0801,-0.4541 l -0.0497,-0.0999 c -0.0291,-0.1284 -0.0949,-0.2456 -0.1895,-0.3373 l -0.5003,-0.5476 -1.0269,-1.0076 -0.4357,-0.4586 -0.0454,-0.0609 -0.0276,0.1552 0.1286,-0.1606 0.429,-0.5333 0.3988,-0.3917 0.4829,-0.486 0.2782,-0.317 0.1917,-0.3311 c 0.1541,-0.32 0.0196,-0.7044 -0.3004,-0.8586 -0.2072,-0.0998 -0.4519,-0.0814 -0.6418,0.0483 l -0.1685,0.1128 -0.3516,0.3117 -0.497,0.4757 -0.444,0.4531 -0.4818,0.7267 c -0.0747,0.1145 -0.3196,0.324 -0.3089,0.8032 -0.0165,0.2641 0.0936,0.5255 0.2083,0.7244 0.2034,0.3312 0.4419,0.5188 0.6636,0.7327 l 0.9819,0.9459 0.4835,0.5988 c 0.0869,0.099 0.2007,0.1706 0.3276,0.2061 z m 18.1023,-52.5515 c 0.2614,-0.045 0.437,-0.2934 0.392,-0.5549 -0.0336,-0.1953 -0.1836,-0.3499 -0.3778,-0.3894 l -0.0517,-0.0116 c -0.0122,-0.006 0.1225,0.0876 0.0796,0.0518 -0.0237,-0.0198 0.1211,0.144 0.0873,0.0957 l 0.0552,0.1009 c -0.019,-0.0458 0.0437,0.2944 0.0416,0.1986 -0.007,-0.3103 -0.2639,-0.5562 -0.5742,-0.5493 -0.3102,0.007 -0.5562,0.2639 -0.5493,0.5742 0.007,0.3102 0.264,0.5561 0.5742,0.5493 0.1411,-0.003 0.2758,-0.0592 0.3775,-0.1572 0.084,-0.0809 -0.1653,0.1097 -0.1405,0.0979 0.0677,-0.0321 -0.0591,0.0221 -0.0386,0.0175 z m -0.9428,-0.4982 c 0.005,0.1554 0.0688,0.3031 0.179,0.4128 0.2687,0.2675 0.2726,0.1632 0.3252,0.1783 l 0.1444,0.0378 1.6338,0.4268 1.2881,0.2153 c 0.1796,0.007 0.3744,0.0536 0.6835,-0.0558 0.1959,-0.0247 0.4757,-0.2697 0.5956,-0.5032 0.3259,-0.6349 0.1598,-1.1746 0.1612,-1.6967 l -0.0126,-0.8615 -0.038,-0.9931 0.0334,-0.3153 0.0333,-0.2289 c 0.0403,-0.1823 0.001,-0.3731 -0.1077,-0.5248 l -0.0938,-0.1219 c -0.0607,-0.0704 -0.1416,-0.1203 -0.2318,-0.1429 l -0.3801,0.0142 c -0.1802,0.0489 -0.3309,0.1722 -0.4146,0.3391 l -0.1387,0.3445 -0.1023,0.5355 -0.1002,1.0568 0.0244,0.9221 0.0659,0.9925 -0.002,0.1023 c -0.01,0.0255 0.1316,-0.1769 0.0822,-0.1254 -0.0516,0.0537 0.257,-0.1381 0.1921,-0.1185 0.0585,-0.0172 0.171,-0.0248 0.1377,-0.0299 l -0.2069,-0.0372 -1.0609,-0.2121 c -0.6593,-0.152 -1.2789,-0.4029 -1.9304,-0.3477 l -0.4093,0.1424 c -0.0982,0.0586 -0.3689,-0.0172 -0.3504,0.5945 m -46.833,7.2871 c 0.0127,0.0292 0.0279,0.0572 0.0454,0.0838 l 0.1359,0.1505 c 0.1834,0.1584 0.4373,0.2071 0.6662,0.1276 l 1.5504,-0.2822 1.0268,-0.1837 0.4449,-0.0846 0.2389,-0.0546 c 0.0317,-0.007 -0.1346,-0.009 -0.0568,-0.003 -0.0329,-0.002 -0.2158,-0.0665 -0.1339,-0.0323 0.096,0.0401 -0.3788,-0.4015 -0.3099,-0.2779 0.0734,0.1144 -0.0493,-0.131 -0.0379,-0.0936 0.0177,0.0579 -0.0153,-0.0768 -0.0151,-0.0708 l -0.0454,0.4857 c -0.0618,0.7918 0.007,1.6036 0.319,2.2781 0.2355,0.3579 0.464,0.586 0.778,0.692 0.3348,0.1132 0.698,-0.0666 0.8112,-0.4014 0.0718,-0.2125 0.0271,-0.447 -0.1177,-0.6182 l -0.0494,-0.1546 c -0.1687,-0.4345 -0.2395,-1.0768 -0.1776,-1.6512 0.0258,-0.2382 0.3341,-0.5648 -0.0806,-1.263 -0.3066,-0.4369 -0.7418,-0.4556 -0.8383,-0.461 -0.2942,-0.0447 -0.4587,0.0416 -0.5418,0.054 l -0.4772,0.0878 -0.9814,0.1852 c -0.7236,0.1727 -1.3569,0.3308 -1.8635,0.6182 -0.2108,0.1195 -0.3418,0.3424 -0.3438,0.5847 z"
       style="fill:#006fff;fill-opacity:1;fill-rule:nonzero;stroke:none"
       transform="matrix(1.3333333,0,0,-1.3333333,0,1071)"
       clip-path="url(#clipPath22)" />
    <path
       id="path23"
       d="m 115.6539,620.4245 c -0.2289,-0.0883 -0.488,0.005 -0.6077,0.2196 -0.1446,0.259 0.006,0.5979 0.1384,0.7248 l 0.3432,0.2149 0.8951,0.1291 0.7082,-0.012 1.2424,0.1151 0.956,0.0413 0.2966,10e-5 c 0.1753,-0.02 0.5174,-0.1512 0.6704,-0.4491 0.1838,-0.3867 0.0977,-0.623 0.0642,-0.7856 -0.1247,-0.454 -0.3292,-0.6536 -0.4395,-0.8223 -0.3885,-0.5557 -0.6497,-1.6931 -1.1298,-2.4523 -0.2018,-0.3191 -0.6241,-0.4142 -0.9432,-0.2123 -0.3034,0.1919 -0.4068,0.5857 -0.2366,0.9018 0.2285,0.4246 0.4693,1.6448 1.0483,2.5698 l 0.258,0.3765 0.033,0.0989 -0.004,-0.0422 c 0.001,0.0277 0.0269,-0.1834 0.0134,-0.1265 -0.0253,0.1213 0.2457,-0.3666 0.1622,-0.2845 -0.0601,0.0591 0.2035,-0.1299 0.1615,-0.1113 -0.0557,0.0247 0.0758,-0.0248 0.0699,-0.0239 l -0.0924,0.008 -0.7343,-0.0713 -1.3411,-0.1643 -0.7172,-0.0146 -0.7381,0.0805 -0.2694,0.0627 c -0.0177,0.002 0.3028,0.071 0.1928,0.0286 m 46.6098,-21.4242 c -0.1217,0.3338 0.0503,0.703 0.3841,0.8247 0.318,0.1159 0.6715,-0.0344 0.8085,-0.344 l 0.0482,-0.0797 c 0.139,-0.232 0.5446,-0.6247 0.9813,-1 l 0.796,-0.6597 0.3676,-0.2156 0.0548,-0.003 c 0.005,0 -0.1221,-0.0446 -0.0714,-0.0215 0.0641,0.0313 -0.1928,-0.1671 -0.169,-0.134 l 0.087,0.3035 0.2215,0.5368 0.3717,0.9563 0.5445,1.2065 0.3767,0.5863 c 0.1817,0.2047 0.2956,0.3634 0.6245,0.457 0.3698,0.1053 0.7549,-0.1092 0.8601,-0.479 0.0803,-0.2821 -0.0248,-0.5843 -0.2629,-0.7556 -0.0502,-0.0361 0.0486,0.0424 0.0371,0.0287 l -0.0725,-0.0992 -0.3061,-0.4494 -0.5303,-1.0282 -0.3588,-0.9449 -0.2088,-0.4614 c -0.1259,-0.2939 -0.1901,-0.776 -0.8057,-0.9207 -0.3045,-0.0796 -0.5372,-0.003 -0.7246,0.057 -0.284,0.07 -0.5318,0.2398 -0.7651,0.4141 l -0.8553,0.6819 c -0.4709,0.3749 -0.9532,0.7534 -1.2699,1.2228 l -0.1632,0.32 z m -24.3634,-1.8073 c -0.1129,-0.3198 -0.4637,-0.4876 -0.7836,-0.3747 -0.0684,0.0241 -0.1319,0.0602 -0.1877,0.1065 -0.4104,0.3404 -0.2606,0.6705 -0.2122,0.852 l 0.1813,0.4416 c 0.3641,0.4683 0.6641,0.6813 0.8852,0.8663 l 0.8386,0.6394 0.788,0.4438 c 0.6372,0.3214 1.4535,0.7464 2.4216,0.8255 0.4574,0.0317 0.9713,0.084 1.5495,-0.009 l 0.5053,-0.1015 c 0.5115,-0.1485 0.8916,-0.3821 1.1809,-0.5631 1.2641,-0.7798 1.8705,-2.2295 2.2068,-3.5581 0.2491,-0.9609 0.2855,-2.1103 -0.1523,-3.2103 -0.2045,-0.5197 -0.4449,-0.9937 -0.742,-1.3882 l -0.4524,-0.5077 -0.2972,-0.2469 -0.2411,-0.1947 -0.2787,-0.2338 -0.2651,-0.23 -0.3131,-0.3741 -0.3162,-0.3819 -0.161,-0.2073 -0.3809,-0.6104 -0.2314,-0.8497 -0.0589,-0.7736 -0.002,-0.5765 0.006,-0.3464 -0.0219,-0.3163 c -0.0341,-0.3884 -0.3243,-0.7057 -0.7081,-0.7745 l -0.0885,-0.0114 c -0.0316,-0.003 -0.0633,-0.003 -0.095,-0.002 l -0.0862,0.008 c -0.3863,0.053 -0.6892,0.3583 -0.7391,0.745 l -0.0287,0.2226 -0.0164,0.4444 -0.004,0.645 0.0602,0.9642 c 0.0628,0.4785 0.1757,0.9621 0.4032,1.4204 l 0.5473,0.8793 0.2347,0.286 0.3021,0.3625 0.4315,0.5078 0.3633,0.3294 0.3178,0.2665 0.2865,0.2244 0.25,0.1682 0.2339,0.2291 0.5225,0.9595 c 0.2801,0.6845 0.2762,1.4794 0.1055,2.169 -0.2787,1.0986 -0.8133,2.1408 -1.4706,2.5457 l -0.7558,0.362 -0.3097,0.0605 c -0.3146,0.0432 -0.6855,0.006 -1.1423,-0.0361 -0.5442,-0.0434 -1.1972,-0.3415 -1.7857,-0.6364 l -0.702,-0.3489 -0.7128,-0.495 -0.6438,-0.486 -0.271,-0.2255 -0.0323,-0.0329 0.016,0.0221 c -0.0117,-0.0178 0.0732,0.1662 0.0521,0.1064 m 5.0804,-13.7895 c 0.0945,-0.2437 -0.0263,-0.5178 -0.27,-0.6123 -0.1786,-0.0693 -0.3814,-0.0241 -0.5136,0.1146 -0.1983,0.2079 -0.3479,0.5739 -0.1661,0.9127 0.1521,0.2861 0.5858,0.3801 0.8091,0.313 0.2085,-0.0628 0.3436,-0.1775 0.4563,-0.3066 0.275,-0.2595 0.2889,-0.5894 0.2855,-0.8395 l -0.0714,-0.4125 c -0.038,-0.1024 -0.0977,-0.2767 -0.3466,-0.4444 -0.2686,-0.1808 -0.688,-0.1742 -0.9291,-0.0528 -0.2265,0.1139 -0.3938,0.3188 -0.4603,0.5635 l -0.0494,0.5214 c 0.005,0.4583 0.3811,0.8256 0.8394,0.8204 0.3714,-0.004 0.6947,-0.2547 0.7917,-0.6131 l -0.0171,0.0289 c 0.015,-0.0262 -0.125,0.1571 -0.0818,0.1103 0.0464,-0.0503 -0.3355,0.2213 -0.2253,0.1669 0.2272,-0.1123 0.396,-0.3158 0.4643,-0.5598 0.009,-0.0333 -0.0894,0.2064 -0.0567,0.143 0.033,-0.0638 -0.2587,0.3061 -0.1722,0.226 0.0839,-0.0776 -0.4297,0.2183 -0.3131,0.1817 0.1079,-0.0339 -0.3911,0.0282 -0.3021,0.0349 0.1587,0.0121 -0.4011,-0.1471 -0.3318,-0.1049 0.1089,0.0664 -0.1861,-0.1775 -0.1648,-0.1476 l -0.0319,-0.0611 c 0.005,0.0166 0.0168,-0.2216 0,-0.1352 l 0.0421,-0.1051 c -0.0175,0.0224 0.1877,-0.1443 0.1169,-0.1014 -0.0384,0.0233 0.2236,-0.0769 0.1569,-0.0623 -0.0691,0.015 0.3108,0.0201 0.2315,0.002 -0.0611,-0.0146 0.2304,0.131 0.1787,0.0882 -0.0771,-0.064 0.1469,0.2936 0.1347,0.2238 -0.0112,-0.0641 -0.006,0.1138 -0.004,0.1077"
       style="fill:#fa9d00;fill-opacity:1;fill-rule:nonzero;stroke:none"
       transform="matrix(1.3333333,0,0,-1.3333333,0,1071)"
       clip-path="url(#clipPath24)" />
    <path
       id="path25"
       d="m 136.5394,587.0654 c 0.1129,0.3199 0.4637,0.4877 0.7836,0.3747 0.0684,-0.0241 0.1319,-0.0601 0.1877,-0.1064 0.4104,-0.3405 0.2606,-0.6706 0.2122,-0.852 l -0.1813,-0.4416 c -0.3641,-0.4683 -0.6641,-0.6814 -0.8852,-0.8664 l -0.8386,-0.6394 -0.788,-0.4438 c -0.6372,-0.3214 -1.4535,-0.7464 -2.4216,-0.8255 -0.4574,-0.0317 -0.9714,-0.0839 -1.5495,0.009 l -0.5053,0.1016 c -0.5115,0.1484 -0.8916,0.382 -1.1809,0.563 -1.2641,0.7798 -1.8705,2.2295 -2.2068,3.5582 -0.2491,0.9608 -0.2855,2.1103 0.1523,3.2102 0.2045,0.5198 0.4449,0.9938 0.742,1.3882 l 0.4524,0.5077 0.2971,0.2469 0.2412,0.1948 0.2787,0.2338 0.2651,0.2299 0.313,0.3741 0.3163,0.3819 0.161,0.2073 0.3809,0.6104 0.2314,0.8497 0.0589,0.7736 0.002,0.5765 -0.006,0.3465 0.0219,0.3162 c 0.0341,0.388 0.3237,0.7051 0.7069,0.7743 l 0.0897,0.0117 c 0.0316,0.002 0.0634,0.003 0.0951,0.002 l 0.0873,-0.008 c 0.3858,-0.0535 0.688,-0.3585 0.7379,-0.7448 l 0.0288,-0.2225 0.0163,-0.4445 0.004,-0.645 -0.0602,-0.9642 c -0.0628,-0.4785 -0.1757,-0.962 -0.4032,-1.4203 l -0.5474,-0.8794 -0.2345,-0.286 -0.3022,-0.3625 -0.4315,-0.5078 -0.3633,-0.3294 -0.3179,-0.2666 -0.2865,-0.2243 -0.2499,-0.1683 -0.2339,-0.229 -0.5225,-0.9594 c -0.2801,-0.6846 -0.2762,-1.4795 -0.1055,-2.1691 0.2787,-1.0986 0.8133,-2.1408 1.4706,-2.5457 l 0.7558,-0.362 0.3097,-0.0605 c 0.3147,-0.0432 0.6855,-0.006 1.1422,0.0361 0.5443,0.0435 1.1973,0.3415 1.7858,0.6364 l 0.702,0.349 0.7127,0.495 0.6439,0.4859 0.271,0.2255 0.0323,0.033 -0.0159,-0.0221 c 0.0116,0.0177 -0.0733,-0.1662 -0.0522,-0.1065 m -5.0804,13.7896 c -0.0945,0.2436 0.0264,0.5178 0.27,0.6123 0.1786,0.0693 0.3814,0.024 0.5136,-0.1147 0.1983,-0.2079 0.3479,-0.5739 0.1661,-0.9127 -0.1521,-0.2861 -0.5858,-0.3801 -0.8091,-0.3129 -0.2085,0.0627 -0.3436,0.1775 -0.4563,0.3065 -0.275,0.2595 -0.2889,0.5895 -0.2855,0.8395 l 0.0714,0.4125 c 0.038,0.1025 0.0977,0.2768 0.3467,0.4444 0.2686,0.1809 0.688,0.1742 0.9291,0.0528 0.2264,-0.114 0.3937,-0.3188 0.4602,-0.5634 l 0.0494,-0.5214 c -0.005,-0.4584 -0.3811,-0.8257 -0.8394,-0.8205 -0.3714,0.004 -0.6947,0.2547 -0.7917,0.6132 l 0.0171,-0.029 c -0.015,0.0263 0.1251,-0.1571 0.0819,-0.1103 -0.0464,0.0503 0.3358,-0.2214 0.2255,-0.167 -0.2273,0.1122 -0.3962,0.3158 -0.4646,0.56 -0.009,0.0333 0.0894,-0.2065 0.0567,-0.1431 -0.033,0.0638 0.2587,-0.306 0.1721,-0.2259 -0.0838,0.0776 0.4298,-0.2184 0.3131,-0.1817 -0.1078,0.0338 0.3912,-0.0282 0.3022,-0.035 -0.1587,-0.0121 0.4011,0.1471 0.3318,0.1049 -0.109,-0.0664 0.1861,0.1775 0.1648,0.1476 l 0.0319,0.0612 c -0.005,-0.0167 -0.0168,0.2216 0,0.1351 l -0.0421,0.1052 c 0.0175,-0.0225 -0.1876,0.1442 -0.1169,0.1013 0.0384,-0.0233 -0.2236,0.077 -0.1569,0.0624 0.0691,-0.0151 -0.3108,-0.0202 -0.2315,-0.002 0.0611,0.0145 -0.2303,-0.1311 -0.1787,-0.0883 0.0771,0.064 -0.1469,-0.2936 -0.1347,-0.2238 0.0112,0.0641 0.006,-0.1137 0.004,-0.1076 m 3.3394,-12.1184 c 0.2597,0.0551 0.515,-0.1107 0.5701,-0.3704 0.0334,-0.1574 -0.0141,-0.3212 -0.1268,-0.4362 -8e-4,-9e-4 0.0827,0.1702 0.0535,0.0937 -0.0166,-0.0434 0.0202,0.3012 0.0279,0.2043 0.004,-0.0516 -0.0807,0.2492 -0.0485,0.1809 0.0337,-0.0713 -0.3137,0.299 -0.1992,0.2257 0.2595,-0.1662 0.3352,-0.5112 0.169,-0.7707 -0.1661,-0.2595 -0.5112,-0.3351 -0.7706,-0.169 -0.2595,0.1662 -0.3352,0.5112 -0.1691,0.7707 0.1046,0.1632 0.2863,0.2605 0.4801,0.257 0.0787,-0.002 -0.0823,-0.005 -0.0779,-0.005 l 0.0915,0.0185 z m -0.5268,-0.3001 c 0.0519,0.0874 0.1253,0.1601 0.2133,0.2111 0.2662,0.1543 0.2483,0.0962 0.3732,0.1353 0.0913,0.0286 0.1872,0.039 0.2825,0.0308 l 2.0221,-0.0892 c 0.2867,-0.0116 0.8374,0.1257 1.2317,-0.4161 0.2721,-0.2748 0.2414,-0.6368 0.2377,-0.943 l -0.0895,-0.8944 c -0.0861,-0.4828 -0.2682,-0.95 -0.4046,-1.3523 l -0.3415,-1.0751 -0.0922,-0.3677 c -0.0306,-0.399 -0.3787,-0.6977 -0.7777,-0.6671 -0.3943,0.0301 -0.6915,0.3708 -0.668,0.7655 l 0.1376,0.6664 0.4606,1.1527 0.4122,1.1508 0.0784,0.6737 0.0141,0.2632 c -0.002,0.0319 0.0902,-0.1458 0.0398,-0.0717 0.0112,-0.0209 0.2066,-0.1592 0.1767,-0.1494 l -0.4309,-0.0203 -2.0463,-0.0909 c -0.0957,-0.003 -0.1909,0.0126 -0.2805,0.0461 l -0.3148,0.1594 -0.2063,0.2084 c -0.0769,0.1154 -0.244,0.3089 -0.0276,0.6738"
       style="fill:#006fff;fill-opacity:1;fill-rule:nonzero;stroke:none"
       transform="matrix(1.3333333,0,0,-1.3333333,0,1071)"
       clip-path="url(#clipPath26)" />
  </g>
</svg>
