<?xml version="1.0" encoding="UTF-8" standalone="no"?>
<!-- Created with Inkscape (http://www.inkscape.org/) -->

<svg
   version="1.1"
   id="svg1"
   width="85.266327"
   height="81.876389"
   viewBox="0 0 85.266327 81.876389"
   xmlns:xlink="http://www.w3.org/1999/xlink"
   xmlns="http://www.w3.org/2000/svg"
   xmlns:svg="http://www.w3.org/2000/svg">
  <defs
     id="defs1">
    <clipPath
       clipPathUnits="userSpaceOnUse"
       id="clipPath16">
      <path
         d="M 0,0 H 612 V 803.25 H 0 Z"
         id="path16" />
    </clipPath>
    <clipPath
       clipPathUnits="userSpaceOnUse"
       id="clipPath18">
      <path
         d="M 0,0 H 612 V 803.25 H 0 Z"
         id="path18" />
    </clipPath>
    <clipPath
       clipPathUnits="userSpaceOnUse"
       id="clipPath22">
      <path
         d="M 0,0 H 612 V 803.25 H 0 Z"
         id="path22" />
    </clipPath>
  </defs>
  <g
     id="g1"
     transform="translate(-132.69102,-124.42415)">
    <path
       id="path15"
       clip-path="url(#clipPath16)"
       style="fill:#ff9a00;fill-opacity:1;fill-rule:nonzero;stroke:none"
       transform="matrix(1.3333333,0,0,-1.3333333,0,1071)"
       d="m 163.4043,671.5268 c 0.0231,-0.045 0.0402,-0.0928 0.0508,-0.1422 l 0.009,-0.0564 c 0.0316,-0.2724 -0.1307,-0.53 -0.39,-0.6191 l -1.1682,-0.5001 -0.4166,-0.2144 -0.6392,-0.2713 -0.5079,-0.0471 c -0.6958,0.0922 -0.8752,0.746 -0.9795,1.1982 l -0.2211,1.1021 c -0.093,0.2816 0.0598,0.5853 0.3413,0.6784 0.2767,0.0914 0.5758,-0.0545 0.674,-0.3288 l 0.2719,-1.1954 0.1296,-0.3641 c 0.0266,-0.0435 -0.1604,0.0288 -0.0875,0.0211 l 0.0582,0.0115 0.4343,0.1992 0.4264,0.2365 1.2902,0.5727 c 0.2569,0.0961 0.546,3e-4 0.6947,-0.2301 l 0.0293,-0.0507 z m -31.3828,12.8574 c -0.113,-0.3199 -0.4638,-0.4876 -0.7837,-0.3747 -0.0683,0.0242 -0.1319,0.0602 -0.1877,0.1065 -0.4103,0.3405 -0.2605,0.6705 -0.2121,0.852 l 0.1813,0.4416 c 0.3641,0.4683 0.6641,0.6813 0.8852,0.8663 l 0.8386,0.6394 0.788,0.4438 c 0.6372,0.3214 1.4535,0.7465 2.4216,0.8256 0.4574,0.0316 0.9714,0.0839 1.5495,-0.009 l 0.5054,-0.1015 c 0.5114,-0.1485 0.8915,-0.3821 1.1808,-0.5631 1.2641,-0.7798 1.8705,-2.2295 2.2068,-3.5581 0.2491,-0.9609 0.2855,-2.1103 -0.1523,-3.2103 -0.2045,-0.5197 -0.4449,-0.9937 -0.742,-1.3881 l -0.4524,-0.5078 -0.2972,-0.2469 -0.2411,-0.1947 -0.2787,-0.2338 -0.265,-0.23 -0.3132,-0.3741 -0.3162,-0.3819 -0.161,-0.2072 -0.3809,-0.6105 -0.2314,-0.8497 -0.0589,-0.7735 -0.002,-0.5765 0.006,-0.3464 -0.0219,-0.3164 c -0.0342,-0.3884 -0.3243,-0.7057 -0.708,-0.7744 l -0.0886,-0.0115 c -0.0316,-0.003 -0.0633,-0.003 -0.0949,-0.002 l -0.0862,0.008 c -0.3864,0.053 -0.6893,0.3583 -0.7392,0.7451 l -0.0288,0.2226 -0.0163,0.4444 -0.004,0.6449 0.0602,0.9643 c 0.0629,0.4784 0.1757,0.962 0.4033,1.4203 l 0.5473,0.8793 0.2346,0.2861 0.3021,0.3624 0.4315,0.5078 0.3633,0.3294 0.3179,0.2666 0.2864,0.2243 0.2499,0.1682 0.234,0.2291 0.5225,0.9595 c 0.2801,0.6845 0.2762,1.4794 0.1055,2.169 -0.2787,1.0987 -0.8133,2.1408 -1.4706,2.5458 l -0.7558,0.3619 -0.3097,0.0605 c -0.3146,0.0432 -0.6855,0.006 -1.1422,-0.0361 -0.5443,-0.0434 -1.1973,-0.3415 -1.7858,-0.6364 l -0.702,-0.3489 -0.7128,-0.495 -0.6438,-0.4859 -0.271,-0.2255 -0.0323,-0.033 0.0159,0.0221 c -0.0116,-0.0177 0.0733,0.1661 0.0522,0.1064 m 5.0804,-13.7895 c 0.0945,-0.2437 -0.0264,-0.5178 -0.27,-0.6123 -0.1786,-0.0693 -0.3814,-0.024 -0.5136,0.1146 -0.1983,0.208 -0.3479,0.5739 -0.1661,0.9127 0.1521,0.2861 0.5858,0.3801 0.8091,0.313 0.2085,-0.0627 0.3436,-0.1775 0.4563,-0.3066 0.275,-0.2595 0.289,-0.5894 0.2855,-0.8395 l -0.0714,-0.4124 c -0.038,-0.1025 -0.0976,-0.2768 -0.3466,-0.4444 -0.2686,-0.1809 -0.688,-0.1743 -0.9291,-0.0529 -0.2264,0.114 -0.3937,0.3188 -0.4602,0.5633 l -0.0495,0.5215 c 0.005,0.4584 0.381,0.8257 0.8394,0.8205 0.3713,-0.004 0.6947,-0.2546 0.7917,-0.6131 l -0.0171,0.0289 c 0.015,-0.0262 -0.125,0.1571 -0.0818,0.1103 0.0464,-0.0503 -0.3355,0.2214 -0.2254,0.1669 0.2273,-0.1122 0.3961,-0.3158 0.4644,-0.5598 0.009,-0.0333 -0.0894,0.2064 -0.0566,0.143 0.0329,-0.0638 -0.2588,0.3061 -0.1723,0.226 0.0839,-0.0776 -0.4297,0.2183 -0.3131,0.1817 0.1079,-0.0338 -0.3911,0.0282 -0.3021,0.035 0.1587,0.0121 -0.401,-0.1472 -0.3318,-0.1049 0.1089,0.0663 -0.1861,-0.1776 -0.1648,-0.1477 l -0.0319,-0.0611 c 0.005,0.0166 0.0168,-0.2216 0,-0.1352 l 0.0421,-0.1051 c -0.0175,0.0224 0.1877,-0.1443 0.1169,-0.1014 -0.0384,0.0233 0.2236,-0.0769 0.1569,-0.0623 -0.0691,0.0151 0.3108,0.0202 0.2315,0.002 -0.0611,-0.0145 0.2304,0.1311 0.1787,0.0882 -0.0771,-0.0639 0.1469,0.2936 0.1347,0.2238 -0.0112,-0.0641 -0.006,0.1138 -0.004,0.1077 m 24.4167,11.6802 c -0.144,0.2858 -0.0291,0.6342 0.2567,0.7782 0.2057,0.1037 0.4533,0.0756 0.6307,-0.0715 0.4777,-0.3963 0.2606,-0.5208 0.2867,-0.6901 l 0.3021,-2.756 0.0756,-1.2017 -0.1115,-2.0696 c -0.1056,-1.715 -0.5974,-3.5254 -1.3546,-5.3333 -0.1193,-0.2848 -0.4469,-0.419 -0.7317,-0.2997 -0.2824,0.1183 -0.4172,0.4417 -0.3023,0.7255 0.6986,1.7258 1.1298,3.4256 1.2034,4.978 l 0.0415,1.9669 -0.0712,1.1419 -0.2545,2.7005 -0.012,0.2294 -0.003,0.0295 c -0.001,0.008 0.0917,-0.2234 0.0437,-0.128 m -41.6529,-29.9142 c 0.3191,-0.0237 0.5586,-0.3017 0.5349,-0.6208 -0.0171,-0.2298 -0.1687,-0.4276 -0.3862,-0.5038 -0.5859,-0.2054 -0.5808,0.0449 -0.7393,0.1097 l -2.5177,1.161 -1.0688,0.5543 -1.7165,1.1618 c -1.4154,0.9741 -2.7137,2.3283 -3.8731,3.9086 -0.1826,0.249 -0.1289,0.5989 0.1201,0.7816 0.2469,0.1811 0.5935,0.13 0.7776,-0.1147 1.1192,-1.4879 2.3539,-2.7332 3.6465,-3.596 l 1.6645,-1.0489 1.0153,-0.5274 2.4456,-1.1731 0.2028,-0.1078 0.0267,-0.013 c 0.007,-0.003 -0.2389,0.0364 -0.1324,0.0285 m -10.1838,3.9214 c -0.0505,0.003 -0.1002,0.0133 -0.1481,0.0297 l -0.0537,0.0213 c -0.2494,0.1134 -0.3864,0.3851 -0.3292,0.653 l 0.1732,1.2589 0.0309,0.4675 0.0967,0.6876 0.2213,0.4596 c 0.4376,0.5488 1.0903,0.3657 1.5316,0.2222 l 1.0585,-0.3783 c 0.2893,-0.0653 0.4709,-0.3528 0.4056,-0.642 -0.0642,-0.2842 -0.3433,-0.4654 -0.629,-0.4083 l -1.1646,0.3829 -0.3789,0.0764 c -0.0509,-4e-4 0.1074,0.1227 0.0632,0.0641 l -0.0201,-0.0558 -0.0531,-0.4748 -0.0169,-0.4873 -0.1739,-1.4009 c -0.0499,-0.2693 -0.2805,-0.4676 -0.5542,-0.4768 z m 4.7589,46.1927 c -0.17,-0.2711 -0.5276,-0.3531 -0.7987,-0.1832 -0.1952,0.1224 -0.2994,0.3488 -0.2653,0.5767 0.0918,0.6137 0.3105,0.4925 0.4419,0.6025 l 2.2012,1.6856 0.9889,0.687 1.8282,0.9764 c 1.5219,0.7977 3.3253,1.3145 5.2639,1.603 0.3055,0.0454 0.5899,-0.1653 0.6354,-0.4708 0.045,-0.3028 -0.1619,-0.5856 -0.4642,-0.6342 -1.8381,-0.2961 -3.5155,-0.8075 -4.8817,-1.5484 l -1.7041,-0.9832 -0.94,-0.6521 -2.1784,-1.6162 -0.1899,-0.1291 -0.024,-0.0175 c -0.006,-0.005 0.1435,0.1939 0.0868,0.1035 m 8.2187,7.1796 c 0.0265,0.043 0.0585,0.0824 0.0953,0.1171 l 0.0437,0.0374 c 0.2167,0.1679 0.521,0.1624 0.7315,-0.0132 l 1.0327,-0.7404 0.3992,-0.2454 0.5631,-0.4062 0.3033,-0.4101 c 0.2814,-0.643 -0.185,-1.1351 -0.5178,-1.4585 l -0.8284,-0.7598 c -0.1926,-0.2255 -0.5316,-0.252 -0.757,-0.0593 -0.2215,0.1893 -0.2516,0.5207 -0.0678,0.7468 l 0.8819,0.8516 0.2443,0.2994 c 0.0234,0.0453 0.0584,-0.1521 0.0273,-0.0858 l -0.04,0.0439 -0.3953,0.2684 -0.4231,0.2422 -1.1582,0.8072 c -0.2149,0.1699 -0.2828,0.4664 -0.1631,0.7129 z" />
    <path
       id="path17"
       clip-path="url(#clipPath18)"
       style="fill:#2599d1;fill-opacity:1;fill-rule:nonzero;stroke:none"
       transform="matrix(1.3333333,0,0,-1.3333333,0,1071)"
       d="m 130.6606,674.2566 c 0.1129,0.3198 0.4637,0.4877 0.7836,0.3748 0.0683,-0.0241 0.1319,-0.0602 0.1877,-0.1065 0.4104,-0.3404 0.2606,-0.6706 0.2122,-0.852 l -0.1813,-0.4416 c -0.3641,-0.4683 -0.6641,-0.6814 -0.8852,-0.8663 l -0.8386,-0.6395 -0.788,-0.4438 c -0.6372,-0.3214 -1.4535,-0.7464 -2.4216,-0.8255 -0.4574,-0.0316 -0.9714,-0.0839 -1.5495,0.009 l -0.5053,0.1016 c -0.5115,0.1484 -0.8916,0.382 -1.1809,0.563 -1.2641,0.7798 -1.8705,2.2295 -2.2068,3.5582 -0.249,0.9608 -0.2855,2.1103 0.1523,3.2103 0.2045,0.5197 0.4449,0.9937 0.742,1.3881 l 0.4524,0.5077 0.2971,0.2469 0.2412,0.1948 0.2787,0.2338 0.2651,0.23 0.313,0.374 0.3163,0.382 0.1611,0.2073 0.3808,0.6103 0.2314,0.8498 0.0589,0.7735 0.002,0.5764 -0.006,0.3467 0.0218,0.316 c 0.0341,0.3881 0.3237,0.7053 0.707,0.7744 l 0.0896,0.0117 c 0.0317,0.002 0.0634,0.003 0.0951,0.002 l 0.0874,-0.008 c 0.3857,-0.0536 0.6879,-0.3586 0.7378,-0.7447 l 0.0287,-0.2226 0.0164,-0.4446 0.004,-0.645 -0.0602,-0.9642 c -0.0628,-0.4784 -0.1757,-0.962 -0.4032,-1.4203 l -0.5473,-0.8793 -0.2346,-0.286 -0.3022,-0.3625 -0.4315,-0.5079 -0.3633,-0.3293 -0.3179,-0.2666 -0.2866,-0.2244 -0.2499,-0.1683 -0.2338,-0.229 -0.5225,-0.9594 c -0.2801,-0.6846 -0.2762,-1.4795 -0.1055,-2.169 0.2787,-1.0987 0.8133,-2.1409 1.4706,-2.5458 l 0.7558,-0.3619 0.3097,-0.0605 c 0.3147,-0.0433 0.6855,-0.006 1.1422,0.0361 0.5443,0.0434 1.1973,0.3415 1.7858,0.6364 l 0.702,0.3489 0.7128,0.495 0.6438,0.4859 0.271,0.2255 0.0323,0.033 -0.016,-0.0221 c 0.0117,0.0177 -0.0732,-0.1663 -0.0521,-0.1065 m -5.0804,13.7896 c -0.0945,0.2436 0.0264,0.5178 0.27,0.6123 0.1786,0.0693 0.3814,0.024 0.5136,-0.1146 0.1983,-0.208 0.3478,-0.574 0.1661,-0.9127 -0.1521,-0.2862 -0.5858,-0.3802 -0.8091,-0.313 -0.2085,0.0627 -0.3436,0.1775 -0.4563,0.3066 -0.275,0.2594 -0.2889,0.5894 -0.2855,0.8394 l 0.0714,0.4125 c 0.038,0.1025 0.0977,0.2768 0.3467,0.4444 0.2686,0.1809 0.688,0.1742 0.9291,0.0529 0.2264,-0.114 0.3938,-0.3189 0.4602,-0.5636 l 0.0494,-0.5214 c -0.005,-0.4583 -0.3811,-0.8256 -0.8395,-0.8203 -0.3713,0.004 -0.6946,0.2547 -0.7916,0.6131 l 0.0171,-0.029 c -0.015,0.0263 0.1251,-0.1571 0.0819,-0.1103 -0.0464,0.0503 0.3357,-0.2214 0.2254,-0.1669 -0.2272,0.1122 -0.3961,0.3157 -0.4645,0.5598 -0.009,0.0333 0.0894,-0.2064 0.0567,-0.143 -0.0329,0.0638 0.2587,-0.306 0.1722,-0.2259 -0.0839,0.0775 0.4297,-0.2183 0.313,-0.1817 -0.1078,0.0338 0.3912,-0.0282 0.3022,-0.035 -0.1587,-0.0121 0.4011,0.1471 0.3318,0.1049 -0.1089,-0.0664 0.1861,0.1776 0.1648,0.1477 l 0.0319,0.0611 c -0.005,-0.0166 -0.0168,0.2216 0,0.1352 l -0.0421,0.1051 c 0.0175,-0.0225 -0.1876,0.1442 -0.1169,0.1013 0.0385,-0.0233 -0.2236,0.077 -0.1569,0.0624 0.0691,-0.0151 -0.3108,-0.0202 -0.2315,-0.002 0.0611,0.0145 -0.2303,-0.1311 -0.1787,-0.0882 0.0771,0.0639 -0.1469,-0.2936 -0.1347,-0.2239 0.0112,0.0642 0.006,-0.1137 0.004,-0.1076 m 23.3299,-35.9432 c 0.1889,0.1439 0.4586,0.1074 0.6024,-0.0814 0.0854,-0.1122 0.1104,-0.2591 0.0669,-0.3931 l -0.0187,-0.0608 c -8e-4,-0.005 -0.001,0.242 0.008,0.1286 0.0214,-0.275 -0.1842,-0.5152 -0.4592,-0.5365 -0.2749,-0.0214 -0.5151,0.1842 -0.5365,0.4591 -0.0214,0.275 0.1842,0.5152 0.4591,0.5366 0.1743,0.0135 0.343,-0.0651 0.4447,-0.2072 0.0747,-0.1042 -0.257,0.1879 -0.1997,0.1627 0.0936,-0.0411 -0.2652,0.0342 -0.2143,0.038 0.0697,0.005 -0.1504,-0.0431 -0.1285,-0.0325 l -0.0239,-0.0135 z m 0.4616,-0.8643 c -0.0704,-0.0543 -0.153,-0.0907 -0.2405,-0.1061 -0.5583,-0.098 -0.5632,0.2093 -0.6251,0.3167 -0.052,0.09 -0.0797,0.192 -0.0805,0.2959 l 0.0989,0.6014 0.3391,1.2266 0.0704,0.3947 c -0.002,0.0421 0.0225,-0.0963 0.0219,-0.0955 l -0.0439,0.036 -0.9521,0.2096 -0.5143,0.0699 -0.2838,0.0702 -0.1442,0.0499 c -0.3386,0.1314 -0.5066,0.5124 -0.3753,0.851 0.1314,0.3386 0.5123,0.5066 0.851,0.3753 0.004,-10e-4 0.008,-0.003 0.0119,-0.005 l 0.0546,-0.02 0.1475,-0.039 0.4124,-0.0659 c 0.4248,-0.0443 0.9641,-0.0416 1.4824,-0.3718 0.3223,-0.2299 0.6178,-0.5761 0.5965,-1.0755 l -0.131,-0.6918 -0.3649,-1.2445 -0.0751,-0.305 c -0.006,-0.1037 -0.0385,-0.2042 -0.0947,-0.2915 l -0.1612,-0.1858 z m -10.545,-1.6969 c -0.2289,0.0475 -0.3759,0.2714 -0.3285,0.5002 0.0433,0.2089 0.2353,0.3528 0.4479,0.3359 0.4822,-0.0383 1.0372,0.0537 1.5269,0.2211 l 0.9027,0.251 0.4506,0.0966 0.2918,0.0617 0.6975,0.1487 0.7306,0.2369 0.3453,0.1558 c 1.8063,0.8486 3.857,1.9964 5.1516,2.8779 0.2286,0.1557 0.5401,0.0966 0.6958,-0.1321 0.1546,-0.227 0.0975,-0.5363 -0.1281,-0.6931 -1.3551,-0.9419 -3.4187,-2.1101 -5.2735,-2.9982 l -0.3622,-0.1707 -0.917,-0.3139 -0.7231,-0.1538 -0.2946,-0.0606 -0.419,-0.0882 -0.8398,-0.2259 c -0.6526,-0.139 -1.33,-0.1789 -1.9549,-0.0493 m 15.3678,50.4735 c 0.0779,-0.2203 -0.0375,-0.4621 -0.2579,-0.54 -0.201,-0.0711 -0.4236,0.0186 -0.5192,0.2092 -0.2169,0.4324 -0.5831,0.8595 -0.9798,1.1917 l -0.6822,0.6423 -0.316,0.3354 -0.2039,0.2178 -0.4884,0.5196 -0.581,0.5023 -0.3121,0.2148 c -1.6614,1.1057 -3.7052,2.2657 -5.1297,2.9166 -0.2516,0.115 -0.3623,0.4121 -0.2474,0.6637 0.1142,0.2499 0.4084,0.3611 0.6593,0.2493 1.5075,-0.6714 3.5755,-1.8318 5.2958,-2.9586 l 0.3336,-0.2215 0.7433,-0.6219 0.5062,-0.539 0.2044,-0.2206 0.2923,-0.3128 0.6282,-0.6014 c 0.4568,-0.4863 0.8417,-1.0451 1.0545,-1.6469 m -7.4128,7.2998 c -0.2208,0.0871 -0.3293,0.3367 -0.2422,0.5575 0.0517,0.1311 0.1644,0.2286 0.3016,0.2608 l 0.0617,0.0155 c 0.004,0.002 -0.2065,-0.1263 -0.114,-0.06 0.2241,0.1606 0.5361,0.1092 0.6968,-0.115 0.1606,-0.2241 0.1092,-0.5361 -0.115,-0.6968 -0.2241,-0.1606 -0.5361,-0.1092 -0.6967,0.115 -0.1019,0.142 -0.122,0.327 -0.0532,0.4876 0.0506,0.1179 -0.0276,-0.3172 -0.0357,-0.2551 -0.0133,0.1014 0.1081,-0.2445 0.0785,-0.203 -0.0405,0.057 0.1148,-0.1064 0.0944,-0.0931 z m 0.5005,0.8425 c 0.0829,-0.0321 0.1568,-0.0839 0.2153,-0.1509 0.3729,-0.4269 0.1125,-0.5901 0.0527,-0.6988 -0.0501,-0.091 -0.123,-0.1675 -0.2115,-0.222 l -0.5656,-0.2269 -1.225,-0.345 -0.3741,-0.1442 c -0.0348,-0.0237 0.0707,0.0691 0.0704,0.0682 l -0.008,-0.0562 0.3138,-0.9231 0.2065,-0.4762 0.0869,-0.279 0.0319,-0.1492 c 0.063,-0.3577 -0.1758,-0.6988 -0.5335,-0.7618 -0.3577,-0.063 -0.6988,0.1759 -0.7618,0.5336 -7e-4,0.004 -0.001,0.008 -0.002,0.0127 l -0.0112,0.0572 -0.043,0.1464 -0.1571,0.3867 c -0.1821,0.3864 -0.4637,0.8464 -0.4497,1.4607 0.0298,0.3948 0.1729,0.8269 0.6112,1.0673 l 0.6596,0.2462 1.2536,0.3323 0.2999,0.0938 c 0.0918,0.0486 0.1946,0.0727 0.2984,0.0699 l 0.2425,-0.0417 z m -43.7819,-19.4828 c 0.1586,0.1716 0.4263,0.1823 0.598,0.0237 0.1567,-0.1447 0.1812,-0.3834 0.0571,-0.5569 -0.2812,-0.3935 -0.4883,-0.9166 -0.5971,-1.4225 l -0.25,-0.903 -0.1493,-0.4359 -0.0975,-0.282 -0.2319,-0.6744 -0.1733,-0.7482 -0.0444,-0.3762 c -0.2033,-1.9854 -0.276,-4.3343 -0.1875,-5.898 0.0157,-0.2761 -0.1955,-0.5127 -0.4716,-0.5283 -0.2743,-0.0156 -0.5099,0.1927 -0.5281,0.4669 -0.1092,1.6467 -0.0473,4.0172 0.1471,6.0644 l 0.0404,0.3984 0.2034,0.9476 0.2407,0.6991 0.0998,0.2837 0.1403,0.4044 0.2391,0.8362 c 0.217,0.6309 0.5318,1.2321 0.9648,1.701 m -2.9997,-9.9619 c 0.026,-0.2359 -0.1442,-0.4483 -0.3802,-0.4743 -0.14009,-0.0154 -0.27887,0.0388 -0.37137,0.1452 l -0.04247,0.0473 c -0.0035,0.003 0.20811,-0.1237 0.10632,-0.0728 -0.24668,0.1233 -0.34667,0.4233 -0.22334,0.67 0.12333,0.2466 0.42326,0.3466 0.66996,0.2233 0.2467,-0.1233 0.3467,-0.4233 0.2233,-0.6699 -0.0781,-0.1564 -0.2323,-0.2605 -0.4066,-0.2745 -0.12781,-0.0103 0.2935,0.1235 0.2424,0.0874 -0.0835,-0.0591 0.1659,0.2096 0.1429,0.1641 -0.0315,-0.0624 0.0406,0.1511 0.0383,0.1269 z m -0.97866,0.0498 c -0.01026,0.0884 0.0011,0.1779 0.03304,0.2609 0.20372,0.5289 0.46952,0.3747 0.59362,0.3725 0.1038,-0.002 0.2055,-0.0307 0.2949,-0.0835 l 0.4645,-0.3946 0.8766,-0.9226 0.3021,-0.2637 c 0.0371,-0.0197 -0.0942,0.0304 -0.0932,0.0305 l 0.0534,0.019 0.6702,0.7081 0.3249,0.4048 0.2064,0.207 0.117,0.0978 c 0.287,0.2226 0.7001,0.1704 0.9227,-0.1166 0.2226,-0.287 0.1704,-0.7001 -0.1166,-0.9227 -0.003,-0.003 -0.007,-0.005 -0.0103,-0.008 l -0.0454,-0.0366 -0.1094,-0.1063 -0.2689,-0.3194 c -0.2568,-0.3413 -0.5324,-0.8049 -1.0823,-1.079 -0.3632,-0.1578 -0.8121,-0.2327 -1.2292,0.0428 l -0.5254,0.4686 -0.8786,0.954 -0.22281,0.2215 c -0.08588,0.0585 -0.15515,0.1382 -0.20107,0.2314 l -0.07618,0.2339 z" />
    <path
       id="path21"
       clip-path="url(#clipPath22)"
       style="fill-opacity:1;fill-rule:nonzero;stroke:none"
       transform="matrix(1.3333333,0,0,-1.3333333,0,1071)"
       d="m 148.7166,674.2798 c -0.1384,-0.1882 -0.4033,-0.2287 -0.5916,-0.0902 -0.1226,0.0901 -0.1873,0.2391 -0.1696,0.3902 l 0.003,0.0302 10e-4,-0.0327 0.008,-0.0488 c -0.005,0.0247 0.0976,-0.2107 0.0516,-0.1316 -0.131,0.2252 -0.0547,0.5139 0.1704,0.6449 0.2252,0.131 0.5139,0.0547 0.6449,-0.1704 0.131,-0.2252 0.0547,-0.5139 -0.1705,-0.6449 -0.1297,-0.0755 -0.2877,-0.0847 -0.4253,-0.0249 -0.1207,0.0525 0.2868,-0.0301 0.235,-0.0359 -0.083,-0.009 0.1929,0.0685 0.1606,0.0505 -0.0828,-0.046 0.0853,0.0678 0.0823,0.0636 m -0.4796,0.8183 c 0.0846,0.0373 0.1776,0.0512 0.2693,0.0403 l 0.2697,-0.1144 c 0.1175,-0.0945 0.1886,-0.235 0.1955,-0.3856 0.0129,-0.2825 -0.051,-0.3258 -0.0964,-0.4613 l -0.1339,-0.3994 -0.1098,-0.2643 -0.1623,-0.3045 -0.0946,-0.2129 -0.096,-0.2408 -0.099,-0.2228 -0.1253,-0.2608 -0.1424,-0.3196 -0.2287,-0.3727 -0.2156,-0.3909 -0.2396,-0.3949 -0.5081,-0.8152 -0.4965,-0.675 -0.2194,-0.2609 -0.1461,-0.1982 -0.1674,-0.2482 -0.2255,-0.3152 -0.1922,-0.2716 -0.7443,-0.8648 -0.3892,-0.3574 -0.3037,-0.2994 -0.2601,-0.2206 -0.3096,-0.285 -0.1979,-0.1443 -0.3727,-0.2548 -0.8325,-0.6176 -0.3902,-0.2541 -0.5015,-0.3162 -0.5771,-0.2505 -0.1296,-0.0608 -0.3336,-0.1339 -0.2666,-0.1175 -0.1424,-0.0681 -0.284,-0.1289 -0.2651,-0.1164 -0.8817,-0.3177 -0.2987,-0.0984 c -0.7695,-0.2684 -1.5628,-0.438 -2.3983,-0.6104 l -0.6212,-0.1038 c -0.7759,-0.149 -1.6942,-0.3279 -2.5415,-0.2964 -0.2902,0.0107 -0.5167,0.2547 -0.5059,0.5449 0.0106,0.2857 0.2474,0.5105 0.5332,0.5063 0.6752,-0.01 1.5372,0.162 2.2876,0.3232 l 0.6267,0.1021 c 0.825,0.1702 1.5709,0.3319 2.2551,0.5704 l 0.3427,0.1091 0.7692,0.2815 0.253,0.1086 0.2384,0.1129 0.1393,0.0751 0.3273,0.1568 0.3039,0.1207 0.1972,0.0831 0.4055,0.1811 0.4586,0.2862 0.3749,0.2431 0.8443,0.6161 0.4352,0.2431 0.0463,0.0289 0.3015,0.2812 0.2197,0.2023 0.3528,0.3117 0.3428,0.314 0.6205,0.7289 0.2038,0.2856 0.2013,0.2776 0.1618,0.2641 0.2093,0.2846 0.1908,0.2305 0.4154,0.6071 0.53,0.8484 0.1742,0.2877 0.2827,0.5027 0.1469,0.2281 0.1405,0.3105 0.107,0.2432 0.0916,0.1852 0.1106,0.2597 0.1538,0.2984 0.1253,0.2253 0.0994,0.2264 0.137,0.3403 0.0361,0.1183 0.007,0.0276 c 3e-4,0.002 -0.003,-0.1411 -0.005,-0.0757 -0.004,0.1509 0.0563,0.2964 0.1665,0.3995 l 0.1498,0.0995 z m -15.6499,-12.0886 c 0.2185,-0.0835 0.3279,-0.3282 0.2445,-0.5467 -0.0141,-0.037 -0.0334,-0.0719 -0.0573,-0.1035 -0.3276,-0.4353 -0.4862,-0.2125 -0.5961,-0.2215 l -0.2102,-0.0181 -0.3656,0.009 -0.2952,0.0241 -0.3841,0.007 -0.4094,0.09 -0.1564,-0.0158 c -0.5108,-0.003 -0.8997,0.1601 -1.1227,0.2008 l -0.4093,0.0731 -0.383,0.061 -0.4472,0.1364 -0.2066,0.0512 -0.3358,0.1027 -0.2725,0.0917 -1.1273,0.413 -0.246,0.0998 -0.4095,0.1864 -0.715,0.3485 -1.3299,0.7074 c -0.8461,0.4454 -1.5322,0.9441 -2.2365,1.4698 l -1.1979,0.8753 -0.8885,0.7234 -0.4,0.4466 -0.2031,0.2341 -0.1135,0.1148 -0.1512,0.1636 c -0.0967,0.0983 -0.1547,0.2282 -0.1631,0.3659 l -0.0128,0.0945 c -0.0465,0.2291 0.1013,0.4525 0.3304,0.499 0.0234,0.005 0.0473,0.008 0.0712,0.008 l 0.1681,0.005 c 0.1379,0.003 0.2724,-0.0434 0.3786,-0.1315 l 0.1822,-0.161 0.1839,-0.2117 0.2097,-0.2594 0.3291,-0.3892 0.7443,-0.6362 1.1863,-0.8636 c 0.695,-0.5165 1.3267,-0.9718 2.0936,-1.3736 l 1.3507,-0.7182 0.6501,-0.3133 0.3621,-0.1625 0.2153,-0.0878 1.1102,-0.4124 0.2612,-0.1016 0.2434,-0.0781 0.2713,-0.0767 0.3429,-0.1163 0.3223,-0.0573 0.4373,-0.0768 c 0.3779,-0.0772 0.6554,-0.1987 0.9307,-0.2015 l 0.3406,-0.004 0.3161,-0.0749 0.3651,-0.003 0.2754,-0.0288 0.2306,0.003 0.3617,-0.0304 0.3368,-0.1299 z m -14.327,6.0001 c -0.0672,0.2238 0.0597,0.4598 0.2835,0.5271 0.1457,0.0437 0.3037,0.006 0.4138,-0.0991 l 0.0223,-0.0206 -0.027,0.0185 -0.0437,0.0232 c 0.0231,-0.0105 -0.2269,0.0486 -0.136,0.0379 0.2586,-0.0307 0.4435,-0.2653 0.4128,-0.524 -0.0307,-0.2586 -0.2653,-0.4435 -0.5239,-0.4128 -0.2587,0.0307 -0.4435,0.2653 -0.4129,0.5239 0.0177,0.1491 0.1053,0.2809 0.236,0.3549 0.1144,0.0648 -0.1966,-0.2111 -0.1701,-0.1662 0.0426,0.0719 -0.0613,-0.1953 -0.0562,-0.1587 0.013,0.0938 0.003,-0.109 0.001,-0.1041 m 0.9422,-0.1085 c -0.021,-0.09 -0.0657,-0.1726 -0.1296,-0.2394 l -0.2535,-0.1469 c -0.1463,-0.0371 -0.3016,-0.01 -0.4262,0.0758 -0.2329,0.1594 -0.2293,0.2364 -0.3103,0.3541 l -0.2386,0.3471 -0.1453,0.2468 -0.1457,0.3126 -0.1132,0.2037 -0.1347,0.2214 -0.1185,0.2131 -0.1332,0.257 -0.1697,0.3059 -0.1603,0.4069 -0.1828,0.4072 -0.1715,0.4288 -0.3459,0.8962 -0.2409,0.8026 -0.0766,0.3323 -0.0705,0.2358 -0.0977,0.2829 -0.1163,0.3697 -0.1015,0.3169 -0.2436,1.1147 -0.0515,0.5259 -0.0567,0.4227 -0.0199,0.3406 -0.0416,0.4186 0.004,0.2448 0.0204,0.4511 0.007,1.0365 0.0317,0.4646 0.0488,0.5909 0.1468,0.6117 0.0292,0.14 0.0937,0.3473 0.0664,0.2836 0.0312,0.1549 0.0677,0.3043 0.0664,0.2819 0.2762,0.8955 0.1009,0.2978 c 0.2482,0.7762 0.5896,1.5121 0.9541,2.2834 l 0.2906,0.5588 c 0.3473,0.7096 0.7566,1.551 1.291,2.2091 0.1831,0.2254 0.5143,0.2598 0.7397,0.0767 0.2219,-0.1802 0.2592,-0.5046 0.084,-0.7305 -0.4139,-0.5335 -0.7947,-1.3257 -1.117,-2.0223 l -0.2953,-0.5623 c -0.3599,-0.7614 -0.6792,-1.4547 -0.9,-2.1448 l -0.1188,-0.3394 -0.2375,-0.7839 -0.0653,-0.2675 -0.0532,-0.2584 -0.0237,-0.1566 -0.0714,-0.3556 -0.0863,-0.3156 -0.0522,-0.2073 -0.099,-0.4331 -0.0471,-0.5385 -0.0311,-0.4456 -0.0153,-1.0452 -0.0673,-0.4939 -0.005,-0.0542 0.0435,-0.4101 0.0295,-0.2973 0.0371,-0.4693 0.0447,-0.4627 0.2094,-0.934 0.1058,-0.3346 0.1008,-0.3278 0.1137,-0.288 0.1016,-0.3384 0.0695,-0.2908 0.2354,-0.6972 0.3593,-0.9335 0.1251,-0.3123 0.2318,-0.528 0.094,-0.2545 0.1636,-0.2989 0.13,-0.2319 0.0929,-0.1845 0.141,-0.2445 0.146,-0.3024 0.1047,-0.2354 0.1212,-0.2155 0.1896,-0.3143 0.0728,-0.0999 0.018,-0.0221 c 0.001,-10e-4 -0.1107,0.0868 -0.0575,0.049 0.123,-0.0871 0.2027,-0.2229 0.2188,-0.3728 l -0.0105,-0.1795 z m -1.0519,18.5859 c -0.187,-0.1405 -0.4524,-0.1028 -0.5929,0.0841 -0.0238,0.0318 -0.0431,0.0667 -0.0572,0.1038 -0.1938,0.5093 0.0794,0.5248 0.1303,0.6226 l 0.0967,0.1875 0.2027,0.3044 0.1777,0.2371 0.2109,0.321 0.2943,0.2983 0.0701,0.1408 c 0.2699,0.4337 0.615,0.6759 0.7683,0.8428 l 0.2801,0.3074 0.2558,0.2915 0.3537,0.3057 0.1535,0.1475 0.2658,0.2293 0.223,0.1817 0.9502,0.7336 0.2157,0.155 0.3759,0.2471 0.6761,0.4192 1.3074,0.7481 c 0.8279,0.4784 1.6155,0.793 2.4357,1.1087 l 1.3791,0.547 1.0857,0.3661 0.5912,0.1003 0.3063,0.047 0.1576,0.0349 0.2189,0.0408 c 0.1348,0.0294 0.2756,0.009 0.3966,-0.0571 l 0.0868,-0.0396 c 0.2186,-0.0827 0.3288,-0.3269 0.2461,-0.5455 -0.008,-0.0224 -0.0188,-0.0441 -0.0309,-0.0647 l -0.0859,-0.145 c -0.0707,-0.1183 -0.1818,-0.207 -0.3128,-0.2499 l -0.2334,-0.0684 -0.2772,-0.0427 -0.3312,-0.0392 -0.5047,-0.071 -0.935,-0.2905 -1.3631,-0.5434 c -0.8075,-0.3127 -1.5294,-0.6044 -2.2782,-1.0391 l -1.3276,-0.7599 -0.6117,-0.3831 -0.3305,-0.2197 -0.1891,-0.1354 -0.9406,-0.7194 -0.2253,-0.1669 -0.1959,-0.1643 -0.2095,-0.1887 -0.2811,-0.228 -0.2203,-0.2423 -0.2981,-0.329 c -0.2667,-0.2786 -0.5175,-0.4485 -0.6666,-0.6799 l -0.1852,-0.2861 -0.2318,-0.2275 -0.1973,-0.3071 -0.1711,-0.2178 -0.1202,-0.1967 -0.2186,-0.2899 z m 12.7135,8.9231 c 0.2252,-0.0624 0.3572,-0.2956 0.2948,-0.5208 -0.0406,-0.1466 -0.1569,-0.2601 -0.3045,-0.2973 l -0.0292,-0.008 0.0301,0.013 0.0428,0.0246 c -0.0211,-0.0139 0.1622,0.1661 0.1046,0.0949 -0.1638,-0.2025 -0.4608,-0.2338 -0.6633,-0.07 -0.2025,0.1639 -0.2339,0.4609 -0.07,0.6634 0.1638,0.2025 0.4608,0.2338 0.6633,0.07 0.1167,-0.0944 0.1815,-0.2388 0.1745,-0.3887 -0.006,-0.1315 -0.0738,0.2788 -0.05,0.2324 0.0381,-0.0743 -0.1326,0.1559 -0.1043,0.1321 0.0724,-0.061 -0.0937,0.0557 -0.0888,0.0543 m -0.5941,-0.7393 c -0.065,0.0658 -0.1111,0.1477 -0.1335,0.2374 l 0.011,0.2928 c 0.0466,0.1434 0.1525,0.2599 0.2909,0.3199 0.2594,0.1124 0.3226,0.0681 0.4653,0.0739 l 0.421,0.0169 0.2861,-0.009 0.3423,-0.0433 0.2326,-0.0128 0.2591,-0.004 0.2435,-0.0134 0.2884,-0.0243 0.3493,-0.0195 0.4297,-0.0812 0.442,-0.0625 0.4543,-0.0835 0.9426,-0.185 0.8074,-0.224 0.322,-0.1123 0.2371,-0.0661 0.2915,-0.0682 0.3747,-0.0986 0.3223,-0.0831 1.0729,-0.3881 0.4724,-0.2367 0.3879,-0.1774 0.2987,-0.1647 0.3764,-0.1879 0.2052,-0.1336 0.3707,-0.2578 0.8734,-0.5584 0.3762,-0.2745 0.4739,-0.3562 0.4393,-0.4503 0.1028,-0.0993 0.2439,-0.2644 0.2046,-0.2073 0.1143,-0.1089 0.2215,-0.2197 0.2031,-0.2064 0.6104,-0.7111 0.1982,-0.244 c 0.5244,-0.6238 0.9651,-1.305 1.4234,-2.0245 l 0.3178,-0.5438 c 0.4153,-0.6721 0.909,-1.4668 1.1809,-2.2699 0.0931,-0.275 -0.0544,-0.5735 -0.3295,-0.6666 -0.2707,-0.0917 -0.5651,0.0497 -0.6627,0.3183 -0.2308,0.6346 -0.698,1.3791 -1.1156,2.0231 l -0.3183,0.5495 c -0.4524,0.7105 -0.8689,1.3502 -1.335,1.9049 l -0.2238,0.2814 -0.5367,0.6188 -0.1915,0.1978 -0.1902,0.1828 -0.12,0.1035 -0.2627,0.25 -0.221,0.2412 -0.1477,0.1548 -0.3135,0.3145 -0.4305,0.3269 -0.3605,0.2639 -0.8761,0.57 -0.382,0.3203 -0.0434,0.0331 -0.3701,0.1818 -0.2671,0.1334 -0.4169,0.2189 -0.4154,0.2087 -0.9019,0.3208 -0.3394,0.0889 -0.3311,0.0893 -0.3042,0.0574 -0.3405,0.0945 -0.2832,0.0962 -0.7152,0.1724 -0.9814,0.1937 -0.3309,0.0605 -0.5703,0.0854 -0.2655,0.0562 -0.3401,0.0209 -0.2655,0.0136 -0.2056,0.0197 -0.2821,0.0111 -0.3336,0.0376 -0.255,0.0369 -0.247,0.0124 -0.3669,0.007 -0.1233,-0.008 -0.0283,-0.004 c -0.002,-2e-4 0.1328,0.0477 0.0724,0.0226 -0.1394,-0.0577 -0.2969,-0.0528 -0.4324,0.0135 l -0.1463,0.1046 z m 14.6285,-6.335 c -0.0647,0.2247 0.065,0.4594 0.2897,0.5241 0.0381,0.011 0.0776,0.0165 0.1173,0.0165 0.5448,-10e-5 0.4621,-0.2609 0.5354,-0.3432 l 0.1409,-0.1571 0.2125,-0.2977 0.1582,-0.2504 0.2251,-0.3112 0.1742,-0.3812 0.1067,-0.1156 c 0.3093,-0.4064 0.4129,-0.8151 0.5145,-1.0178 l 0.1877,-0.371 0.1814,-0.3428 0.1599,-0.4393 0.0834,-0.196 0.1198,-0.3299 0.0905,-0.273 0.3477,-1.149 0.0682,-0.2567 0.0972,-0.4392 0.1514,-0.781 0.2343,-1.4879 c 0.1528,-0.9439 0.1667,-1.792 0.1701,-2.6708 l 0.0208,-1.4835 -0.0439,-1.1449 -0.1165,-0.5882 -0.065,-0.303 -0.0234,-0.1597 -0.0398,-0.2191 c -0.0204,-0.1364 -0.0894,-0.2609 -0.1943,-0.3504 l -0.068,-0.0671 c -0.155,-0.1748 -0.4224,-0.191 -0.5973,-0.0359 -0.018,0.0159 -0.0345,0.0333 -0.0495,0.052 l -0.1048,0.1315 c -0.0855,0.1082 -0.129,0.2437 -0.1224,0.3815 l 0.019,0.2423 0.0587,0.2743 0.0811,0.3235 0.1132,0.497 0.0609,0.9772 -0.0231,1.4673 c -0.005,0.8658 -0.0211,1.6443 -0.1611,2.4988 l -0.2381,1.511 -0.1405,0.7079 -0.0879,0.387 -0.0593,0.2248 -0.3379,1.1351 -0.0759,0.2699 -0.0838,0.2414 -0.1018,0.2629 -0.1132,0.3439 -0.1481,0.2921 -0.2015,0.3955 c -0.1656,0.3484 -0.2352,0.6432 -0.3985,0.8649 l -0.2015,0.2748 -0.1302,0.2976 -0.2169,0.2936 -0.1426,0.2374 -0.1412,0.1823 -0.1932,0.3073 z m -11.704,-39.4264 c 0.3001,-0.1896 0.3897,-0.5866 0.2002,-0.8868 -0.1773,-0.2806 -0.539,-0.3801 -0.8349,-0.2297 -0.4746,0.2414 -0.6494,0.6954 -0.7485,0.9597 l -0.1906,0.416 -0.144,0.5965 -0.1099,0.4797 -0.0984,0.3246 -0.1275,0.5466 -0.1017,0.4667 c -0.1187,0.5735 -0.1281,1.0945 -0.1547,1.5836 l -0.0319,0.2744 c -0.0948,0.759 -0.1695,1.6275 -0.116,2.4356 0.073,1.0308 0.3547,1.8835 0.4458,2.6973 l 0.2496,1.6048 0.198,0.8632 0.1091,0.5955 c 0.0507,0.2753 0.2554,0.4969 0.5258,0.5693 l 0.3074,0.0185 c 0.0526,-0.008 0.1041,-0.0229 0.1533,-0.0433 l 0.2249,-0.1482 c 0.2037,-0.192 0.2787,-0.4841 0.1928,-0.7505 l -0.1732,-0.6054 -0.2329,-0.7618 -0.2364,-1.4858 c -0.0932,-0.9679 -0.352,-1.8013 -0.3988,-2.637 -0.0402,-0.6649 0.0271,-1.4685 0.1196,-2.1771 l 0.042,-0.3667 0.1515,-1.3619 0.1036,-0.4758 0.1064,-0.4602 0.1103,-0.3669 0.1232,-0.5233 0.099,-0.4106 0.1521,-0.4946 z m -0.0694,-0.7587 c 0,-0.3217 -0.2608,-0.5825 -0.5825,-0.5825 -0.3217,0 -0.5824,0.2608 -0.5824,0.5825 0,0.3217 0.2607,0.5824 0.5824,0.5824 0.3217,0 0.5825,-0.2607 0.5825,-0.5824 m -0.528,0.5799 c 0.3202,-0.0301 0.5555,-0.3141 0.5254,-0.6344 -0.0301,-0.3203 -0.3141,-0.5555 -0.6344,-0.5254 -0.023,0.002 -0.0458,0.006 -0.0684,0.0105 -0.0735,0.0159 0.0701,-0.008 0.0546,-0.009 l -0.4389,-0.032 c -0.5829,-0.0409 -1.1394,0.008 -1.6683,0.0401 l -0.7687,0.0376 -1.468,0.1679 -1.3577,0.2506 -2.4193,0.5755 c -0.2596,0.0654 -0.4171,0.3289 -0.3517,0.5886 0.063,0.2498 0.3103,0.4068 0.5632,0.3574 l 2.4032,-0.4769 1.333,-0.2182 1.3567,-0.1552 0.7661,-0.0299 1.5204,-0.002 0.6528,0.0546 z m -7.7232,0.6484 c 0,-0.3158 -0.2561,-0.5718 -0.5719,-0.5718 -0.3158,0 -0.5719,0.256 -0.5719,0.5718 0,0.3159 0.2561,0.5719 0.5719,0.5719 0.3158,0 0.5719,-0.256 0.5719,-0.5719 m -0.0848,0.2997 c 0.1655,-0.269 0.0815,-0.6212 -0.1875,-0.7867 -0.269,-0.1655 -0.6212,-0.0816 -0.7867,0.1874 -0.0103,0.0168 -0.0198,0.0341 -0.0283,0.0519 l -0.5734,0.9537 c -0.5964,0.8884 -1.0473,2.1002 -1.4519,3.0289 l -0.7877,1.9508 -0.1179,0.3266 -0.6877,1.7303 -0.379,1.0327 -0.1537,0.4327 -0.1161,0.3904 -0.3748,1.2729 -0.2351,0.9063 -0.3062,1.1734 c -0.3295,1.5237 -0.7203,3.6563 -0.6693,5.0276 0.0124,0.3334 0.2926,0.5936 0.626,0.5812 0.3333,-0.0124 0.5935,-0.2927 0.5811,-0.626 -3e-4,-0.009 -8e-4,-0.0178 -0.002,-0.0267 -0.0886,-1.0867 0.2329,-3.2595 0.5036,-4.757 l 0.2763,-1.0873 0.2285,-0.9342 0.3701,-1.2355 0.1037,-0.3507 0.1502,-0.4197 0.3625,-1.0109 0.7037,-1.7402 0.1059,-0.3014 0.7586,-1.9256 c 0.4205,-0.9483 0.8803,-2.1238 1.387,-2.8683 l 0.6996,-0.9766 z m 30.409,46.5931 c -0.0221,0.3543 0.2473,0.6594 0.6016,0.6815 0.3312,0.0207 0.6237,-0.2143 0.675,-0.5422 0.0823,-0.5261 -0.1835,-0.9337 -0.3396,-1.1687 l -0.2256,-0.3981 -0.3993,-0.466 -0.3245,-0.37 -0.2055,-0.2698 -0.3684,-0.4234 -0.3188,-0.3557 c -0.3955,-0.4321 -0.8123,-0.7448 -1.1932,-1.0527 l -0.2037,-0.1866 c -0.5598,-0.5212 -1.2201,-1.0903 -1.9065,-1.5201 -0.8784,-0.5444 -1.7346,-0.8153 -2.4476,-1.218 l -1.4471,-0.7373 -0.8157,-0.345 -0.5466,-0.2602 c -0.2527,-0.12 -0.5519,-0.084 -0.769,0.0926 l -0.1954,0.2387 c -0.024,0.0476 -0.0424,0.0978 -0.0546,0.1496 l -0.0116,0.2694 c 0.0366,0.2774 0.2294,0.5091 0.4956,0.5954 l 0.5921,0.2141 0.7539,0.2573 1.3429,0.6783 c 0.8392,0.4912 1.6663,0.7694 2.3712,1.2208 0.5625,0.3567 1.1746,0.8817 1.6948,1.3716 l 0.2726,0.2488 1.0154,0.9204 0.325,0.3625 0.3109,0.3557 0.2327,0.3042 0.3521,0.4063 0.2749,0.3207 0.3119,0.4129 z m 1.5792,-0.0842 c 0,-0.3216 -0.2608,-0.5824 -0.5825,-0.5824 -0.3217,0 -0.5824,0.2608 -0.5824,0.5824 0,0.3217 0.2607,0.5825 0.5824,0.5825 0.3217,0 0.5825,-0.2608 0.5825,-0.5825 m -1.0844,-0.2954 c -0.1632,0.2772 -0.0708,0.6342 0.2064,0.7974 0.2773,0.1632 0.6343,0.0707 0.7975,-0.2065 0.0117,-0.0199 0.0222,-0.0405 0.0315,-0.0617 0.0301,-0.0688 -0.0341,0.0619 -0.0247,0.0495 l 0.283,-0.3371 c 0.3744,-0.4486 0.6606,-0.9284 0.9443,-1.3759 l 0.4196,-0.6452 0.7235,-1.2882 0.5918,-1.2474 0.95,-2.2982 c 0.099,-0.2487 -0.0224,-0.5307 -0.2712,-0.6297 -0.2394,-0.0953 -0.5114,0.0133 -0.6194,0.2472 l -1.0207,2.2275 -0.6036,1.2083 -0.6686,1.1907 -0.4243,0.6385 -0.8887,1.2336 z m 4.9032,-7.104 c 0,-0.3158 -0.256,-0.5719 -0.5719,-0.5719 -0.3158,0 -0.5718,0.2561 -0.5718,0.5719 0,0.3158 0.256,0.5718 0.5718,0.5718 0.3159,0 0.5719,-0.256 0.5719,-0.5718 m -1.1,0.2194 c 0.1212,0.2916 0.4558,0.4298 0.7475,0.3087 0.2917,-0.1212 0.4299,-0.4558 0.3087,-0.7475 -0.007,-0.0182 -0.016,-0.036 -0.0254,-0.0533 l -0.4374,-1.0234 c -0.371,-1.0036 -1.0894,-2.0786 -1.6053,-2.9505 l -1.1201,-1.7808 -0.1957,-0.2867 -1.0001,-1.5707 -0.6152,-0.9119 -0.2607,-0.378 -0.2486,-0.3227 -0.8124,-1.0491 -0.5969,-0.7212 -0.772,-0.9354 c -1.0423,-1.1593 -2.5422,-2.7247 -3.6837,-3.4864 -0.2775,-0.1851 -0.6525,-0.1103 -0.8377,0.1672 -0.1851,0.2775 -0.1103,0.6525 0.1672,0.8376 0.007,0.005 0.0149,0.01 0.0225,0.0144 0.9328,0.5644 2.506,2.0974 3.5614,3.1936 l 0.7197,0.8607 0.6234,0.7323 0.7849,1.0234 0.2236,0.2895 0.2523,0.3674 0.6071,0.8858 0.9987,1.5893 0.1823,0.2624 1.1168,1.7425 c 0.5225,0.8961 1.2063,1.9571 1.5131,2.8038 z m -53.5236,2.0388 c -0.3111,-0.1709 -0.7019,-0.0574 -0.8729,0.2538 -0.1599,0.2908 -0.072,0.6556 0.2028,0.8417 0.4409,0.2987 0.9228,0.232 1.202,0.1909 l 0.4563,-0.0344 0.5917,-0.1626 0.473,-0.1359 0.3317,-0.0709 0.54,-0.1528 0.4577,-0.1368 c 0.5594,-0.1735 1.0199,-0.4174 1.4608,-0.6307 l 0.2556,-0.1048 c 0.7102,-0.2842 1.5064,-0.6391 2.1877,-1.0768 0.8669,-0.5626 1.4769,-1.2216 2.1451,-1.695 l 1.2837,-0.9948 0.6597,-0.591 0.4683,-0.3835 c 0.2164,-0.1776 0.3114,-0.4638 0.244,-0.7355 l -0.1327,-0.2782 c -0.0327,-0.0419 -0.0703,-0.0799 -0.1119,-0.1131 l -0.2386,-0.1252 c -0.2666,-0.0852 -0.5584,-0.01 -0.75,0.1944 l -0.446,0.4445 -0.5542,0.5723 -1.186,0.9257 c -0.802,0.5498 -1.4061,1.1795 -2.1149,1.6247 -0.5624,0.3569 -1.2983,0.6868 -1.9632,0.9486 l -0.3412,0.1406 -1.2653,0.5263 -0.4666,0.1395 -0.4542,0.1296 -0.3744,0.0809 -0.5176,0.1453 -0.4073,0.112 -0.5065,0.1062 z m 0.2338,0.9376 c 0,-0.3217 -0.2608,-0.5825 -0.5824,-0.5825 -0.3217,0 -0.5825,0.2608 -0.5825,0.5825 0,0.3216 0.2608,0.5824 0.5825,0.5824 0.3216,0 0.5824,-0.2608 0.5824,-0.5824 m -0.1013,-0.3283 c -0.1813,-0.2657 -0.5437,-0.3342 -0.8094,-0.1529 -0.2657,0.1813 -0.3342,0.5437 -0.1529,0.8094 0.013,0.0191 0.0272,0.0374 0.0424,0.0548 0.0494,0.0567 -0.0415,-0.0573 -0.0343,-0.0435 l 0.1843,0.3996 c 0.2462,0.5299 0.5583,0.9933 0.8422,1.4407 l 0.4048,0.6546 0.8571,1.2035 0.8761,1.067 1.6741,1.8389 c 0.1828,0.1956 0.4896,0.206 0.6852,0.0231 0.1883,-0.1759 0.206,-0.4684 0.0404,-0.6657 l -1.58,-1.8727 -0.8358,-1.061 -0.7922,-1.1123 -0.3967,-0.656 -0.7372,-1.3297 z m 5.1523,6.9461 c 0,-0.3158 -0.256,-0.5718 -0.5718,-0.5718 -0.3158,0 -0.5719,0.256 -0.5719,0.5718 0,0.3159 0.2561,0.5719 0.5719,0.5719 0.3158,0 0.5718,-0.256 0.5718,-0.5719 m -0.5452,-0.5712 c -0.3155,-0.0147 -0.5832,0.2291 -0.5979,0.5446 -0.0146,0.3155 0.2292,0.5832 0.5447,0.5979 0.0197,9e-4 0.0394,8e-4 0.0591,-3e-4 l 1.1121,0.0404 c 1.066,0.0922 2.3447,-0.0995 3.3533,-0.1946 l 2.0884,-0.2544 0.3428,-0.0548 1.847,-0.2352 1.0872,-0.1679 0.4531,-0.0747 0.3979,-0.0874 1.2952,-0.2877 0.9069,-0.2327 1.1752,-0.2997 c 1.493,-0.4487 3.5484,-1.1384 4.7239,-1.8464 0.2858,-0.1721 0.3779,-0.5433 0.2058,-0.8291 -0.1721,-0.2857 -0.5433,-0.3778 -0.8291,-0.2057 -0.008,0.005 -0.0151,0.009 -0.0225,0.0143 -0.9082,0.6032 -2.9654,1.3729 -4.4069,1.8605 l -1.0853,0.2842 -0.9282,0.2519 -1.2603,0.2738 -0.3572,0.0789 -0.4399,0.0716 -1.0601,0.1718 -1.8634,0.226 -0.315,0.0531 -2.0523,0.2677 c -1.0334,0.0907 -2.2846,0.257 -3.1813,0.1737 z" />
  </g>
</svg>
