<?xml version="1.0" encoding="UTF-8" standalone="no"?>
<!-- Created with Inkscape (http://www.inkscape.org/) -->

<svg
   width="80.714195mm"
   height="60.403442mm"
   viewBox="0 0 80.714195 60.403442"
   version="1.1"
   id="svg1"
   xml:space="preserve"
   inkscape:version="1.3.2 (091e20e, 2023-11-25)"
   sodipodi:docname="pi.svg"
   xmlns:inkscape="http://www.inkscape.org/namespaces/inkscape"
   xmlns:sodipodi="http://sodipodi.sourceforge.net/DTD/sodipodi-0.dtd"
   xmlns="http://www.w3.org/2000/svg"
   xmlns:svg="http://www.w3.org/2000/svg"><sodipodi:namedview
     id="namedview1"
     pagecolor="#ffffff"
     bordercolor="#000000"
     borderopacity="0.25"
     inkscape:showpageshadow="2"
     inkscape:pageopacity="0.0"
     inkscape:pagecheckerboard="0"
     inkscape:deskcolor="#d1d1d1"
     inkscape:document-units="mm"
     inkscape:zoom="2.0609166"
     inkscape:cx="48.5221"
     inkscape:cy="81.517128"
     inkscape:window-width="2048"
     inkscape:window-height="1253"
     inkscape:window-x="0"
     inkscape:window-y="51"
     inkscape:window-maximized="1"
     inkscape:current-layer="layer1" /><defs
     id="defs1" /><g
     inkscape:label="Layer 1"
     inkscape:groupmode="layer"
     id="layer1"
     transform="translate(-4.7110638,-0.72454897)"><path
       style="fill:var(--v-outline-base)"
       id="path1"
       d="M 45.295668,0.7255825 C 13.678338,0.7336075 9.9234738,0.7509529 9.3898488,0.88939679 6.9725158,1.5165472 5.2472518,3.445771 4.8211348,5.9991624 4.7229848,6.5875608 4.7002588,11.845761 4.7151988,30.634868 l 0.01912,23.887948 0.273885,0.794783 c 0.783981,2.273658 2.36063,3.797619 4.40645,4.259688 0.6516572,0.14718 2.3221422,0.162348 17.5803222,0.161748 9.273259,-3e-4 17.580846,-0.02983 18.461405,-0.06563 l 1.600936,-0.06511 0.04548,0.624252 c 0.0332,0.458919 0.09409,0.659943 0.230476,0.759643 0.14121,0.10324 0.631483,0.135909 2.053622,0.135909 1.769438,0 1.879526,-0.01141 2.078426,-0.210323 0.17669,-0.17675 0.202848,-0.29601 0.164848,-0.753959 -0.0284,-0.34228 -0.0051,-0.55796 0.06305,-0.58136 0.05955,-0.0204 0.834586,-0.04961 1.722375,-0.06511 l 1.614372,-0.02842 -5.17e-4,0.668176 c -2e-4,0.993739 -0.01214,0.98948 2.57142,0.95188 2.473117,-0.03604 2.450173,-0.02682 2.557983,-1.058333 0.06064,-0.58012 0.08084,-0.621289 0.273885,-0.557589 0.49472,0.16313 5.314434,0.246958 12.475208,0.217558 7.459592,-0.03059 7.718382,-0.03758 8.368481,-0.237195 1.124369,-0.34523 2.191781,-1.270444 2.315621,-2.007113 0.03341,-0.19866 0.08159,-0.438184 0.107487,-0.532784 0.04429,-0.16175 -0.386534,-0.173854 -7.254337,-0.198954 -5.830655,-0.02133 -7.327465,-0.05244 -7.430555,-0.155546 -0.10348,-0.10354 -0.128924,-1.543773 -0.128674,-7.268807 3e-4,-7.102873 0.0013,-7.141123 0.20929,-7.419702 l 0.208772,-0.280087 7.165454,-0.02532 7.165971,-0.02532 v -2.408122 -2.408122 l -7.027478,0.02481 c -4.645025,0.0164 -7.112149,-0.01001 -7.278108,-0.07751 -0.13808,-0.05622 -0.304487,-0.186918 -0.369487,-0.290938 -0.0899,-0.14395 -0.102994,-1.840478 -0.05529,-7.101892 l 0.06253,-6.91224 0.245463,-0.245463 c 0.24522,-0.24518 0.24957,-0.245783 2.442228,-0.264583 1.208049,-0.0103 4.397472,-0.0038 7.087939,0.01447 l 4.892208,0.03307 -5.16e-4,-2.323889 v -2.323373 l -4.99091,0.01602 c -6.409904,0.02046 -9.347021,-0.04701 -9.582361,-0.219108 -0.16643,-0.121741 -0.174144,-0.512755 -0.143144,-7.015076 l 0.03254,-6.886417 0.215491,-0.219108 0.215491,-0.2196249 7.225915,-0.069763 c 3.974246,-0.038255 7.225916,-0.1035808 7.225916,-0.1452107 0,-0.2996787 -1.893547,-1.4444264 -2.781226,-1.68155114 C 80.708269,0.74417516 72.502944,0.71868251 45.295668,0.7255825 Z m -7.390142,8.9354354 c 0.72421,0 1.327385,0.5630041 1.327385,1.2385781 v 18.522087 h 20.760723 c 0.724207,0 1.358034,0.563003 1.358034,1.238578 0,0.675574 -0.603567,1.238578 -1.327778,1.238578 H 39.263168 v 18.522086 c 0,0.675572 -0.603568,1.238578 -1.327777,1.238578 -0.72421,0 -1.327385,-0.563006 -1.327385,-1.238578 V 31.898839 H 15.846891 c -0.724211,0 -1.327385,-0.563004 -1.327385,-1.238578 0,-0.675575 0.603174,-1.238578 1.327385,-1.238578 H 36.577749 V 17.216089 10.899596 c 0,-0.675574 0.603567,-1.2385781 1.327777,-1.2385781 z m 0,0.141069 c 0,0 0.331667,0.028187 0.482543,0.084484 -0.150876,-0.084447 -0.482543,-0.084484 -0.482543,-0.084484 z M 85.026059,4.7511766 c -0.438649,-0.012119 -6.042024,0.1416522 -7.493083,0.2056722 -0.789959,0.034853 -1.128447,0.089235 -1.238167,0.1989542 -0.22121,0.2212538 -0.331926,1.6880075 -0.158647,2.1027141 0.23357,0.5590144 0.40876,0.6073601 2.613278,0.72347 1.109229,0.058421 2.588772,0.1064535 3.288171,0.1064535 h 1.271757 l 0.06356,0.6102986 c 0.0351,0.3357867 0.06408,0.7436018 0.06408,0.9064047 v 0.2961059 l -2.875794,-0.072864 -2.875793,-0.073381 -0.06201,0.2459792 c -0.08022,0.319614 0.112847,1.030749 0.299207,1.102259 0.245619,0.09425 3.967304,0.287223 4.763533,0.247013 l 0.750859,-0.03772 0.001,0.746725 c 7e-4,0.410777 0.02559,0.837255 0.05529,0.947745 0.05263,0.195845 0.01799,0.200022 -1.367358,0.168982 -2.410708,-0.05401 -3.28509,-0.155515 -3.66541,-0.42633 -0.281009,-0.200095 -0.477371,-0.241812 -1.28881,-0.274402 -1.113809,-0.04474 -1.081655,-0.07806 -1.083655,1.11001 -10e-4,0.529689 0.04359,0.743686 0.203606,0.968416 l 0.205672,0.288871 h 3.528467 c 3.445046,0 3.52996,0.0045 3.58066,0.198438 h 5.16e-4 c 0.0575,0.219867 0.137021,0.229202 1.1467,0.133842 L 85.425,15.111273 85.399679,9.9363951 85.37384,4.7610004 Z m -5.083411,1.4500407 c 0.52873,2.2e-4 1.531252,0.029592 2.227771,0.065112 l 1.266073,0.064596 v 0.6304525 0.6304525 l -0.819588,-0.01602 c -1.252769,-0.024059 -3.159363,-0.1467402 -3.575493,-0.2299602 -0.352369,-0.070467 -0.372587,-0.095047 -0.372587,-0.453719 0,-0.6025044 0.164156,-0.6913789 1.273824,-0.6909138 z M 44.21198,16.444905 c 0.724212,0 1.327777,0.563004 1.327777,1.238578 v 5.854953 h 6.306846 c 0.72421,0 1.327385,0.563005 1.327385,1.238578 0,0.675575 -0.603175,1.238578 -1.327385,1.238578 h -8.841766 -0.120635 v -0.112383 -8.219726 c 0,-0.675574 0.603568,-1.238578 1.327778,-1.238578 z m -12.43215,0.141069 c 0.72421,0 1.327778,0.563004 1.327778,1.238578 v 8.219333 0.112777 h -0.121029 -8.811115 c -0.754386,0 -1.327778,-0.535105 -1.327778,-1.210679 0,-0.675574 0.603568,-1.238578 1.327778,-1.238578 h 6.276589 v -5.882853 c 0,-0.675574 0.603567,-1.238578 1.327777,-1.238578 z m 0.452679,0.196868 c 0.241404,0.112595 0.422355,0.253527 0.543057,0.422421 -0.120702,-0.197043 -0.301653,-0.337974 -0.543057,-0.422421 z m -8.087302,7.009047 c -0.241403,0 -0.482639,0.08466 -0.663692,0.197261 0.211228,-0.112596 0.42237,-0.197261 0.693949,-0.197261 z m 59.723817,0.310044 c -0.143028,0.0095 -0.210063,0.03872 -0.242363,0.09095 -0.06607,0.10688 -0.782254,0.139547 -3.586861,0.161747 -2.856517,0.02261 -3.529972,0.05318 -3.644222,0.167432 -0.27346,0.27345 -0.407213,1.915004 -0.194303,2.382283 0.25011,0.54894 0.325285,0.561152 3.853511,0.624252 l 3.25975,0.05839 0.06098,0.445451 c 0.0336,0.24498 0.06098,0.589832 0.06098,0.766361 v 0.320911 l -0.869198,0.06098 c -0.477999,0.03354 -1.706543,0.09019 -2.730582,0.126091 -1.375389,0.0482 -1.891006,0.100154 -1.973006,0.198954 -0.15378,0.18529 -0.02442,0.795617 0.187068,0.882117 0.24768,0.10126 3.282505,0.337098 4.410584,0.342098 1.118889,0.0054 1.075929,-0.04022 1.036629,1.09709 -0.02564,0.74247 -0.02667,0.745131 -0.316777,0.780831 -0.478999,0.05897 -3.520767,-0.188571 -4.197676,-0.341581 -1.082199,-0.24465 -2.493372,-0.369291 -2.655652,-0.234611 -0.10417,0.08646 -0.14211,0.360889 -0.14211,1.033529 0,1.368338 -0.320109,1.266452 3.916557,1.250052 2.395447,-0.0092 3.533117,0.01962 3.533117,0.08992 0,0.1144 0.824088,0.137491 1.415418,0.03979 l 0.37207,-0.0615 V 29.292825 24.20218 l -0.856795,-0.07131 c -0.33519,-0.0279 -0.554088,-0.03841 -0.697115,-0.02894 z m -0.432532,1.865003 v 0.591178 0.591179 l -2.25981,-0.01757 c -2.547978,-0.0193 -2.805514,-0.03772 -2.805514,-0.204122 0,-0.25186 0.201041,-0.8024 0.320911,-0.8785 0.06929,-0.044 1.164865,-0.08029 2.434993,-0.08113 z m -22.778774,5.622258 c -0.181053,0.112596 -0.422681,0.197261 -0.664084,0.197261 0.271578,0 0.483031,-0.05651 0.664084,-0.197261 z m -17.924409,3.575058 h 0.121028 8.811116 c 0.754386,0 1.327467,0.563005 1.357642,1.238578 0,0.675574 -0.603177,1.238578 -1.327385,1.238578 h -6.306846 v 5.854954 c 0,0.675572 -0.603568,1.238578 -1.327778,1.238578 -0.724211,0 -1.327777,-0.563006 -1.327777,-1.238578 v -8.219726 z m -18.738994,0.140676 v 0.02829 h 8.841372 0.121028 v 0.112384 8.219726 c 0,0.675574 -0.603567,1.238184 -1.327777,1.238184 -0.724211,0 -1.327778,-0.56261 -1.327778,-1.238184 v -5.883247 h -6.306845 c -0.724211,0 -1.327385,-0.563003 -1.327385,-1.238578 0,-0.675572 1.327385,-0.514367 1.327385,-1.238578 z m 28.69713,0.478613 c 0.120702,0.168893 0.211015,0.394099 0.211015,0.619289 0,-0.253338 -0.09031,-0.450396 -0.211015,-0.619289 z m -29.541973,1.576122 c 0.09053,0.08445 0.181084,0.140964 0.301785,0.197261 -0.120701,-0.05629 -0.211258,-0.140964 -0.301785,-0.197261 z m 62.224886,6.733298 -4.221447,0.03152 c -2.497618,0.01849 -4.327631,0.07184 -4.481381,0.130741 -0.418739,0.16027 -0.534851,0.504718 -0.534851,1.588017 0,1.530008 -0.281509,1.424786 3.828707,1.426786 l 3.379122,0.0021 -0.02791,0.943612 -0.02842,0.943612 -2.780709,0.04961 -2.781226,0.04961 0.0057,0.473357 c 0.0035,0.260239 0.0509,0.517024 0.104903,0.571024 0.10657,0.10657 2.061639,0.275036 4.234367,0.364836 l 1.365808,0.05633 0.001,0.70745 c 7e-4,0.38906 0.02808,0.807783 0.06098,0.930693 l 0.05994,0.223759 -2.271179,-5.17e-4 c -1.910648,-5.1e-4 -2.318682,-0.02656 -2.569352,-0.162781 -0.67268,-0.365539 -0.825215,-0.412204 -1.519804,-0.465604 -0.986439,-0.07579 -1.112077,0.04504 -1.112077,1.070219 0,0.629099 0.03439,0.77938 0.229443,1.00614 l 0.228927,0.266133 3.520199,0.0124 3.520715,0.0124 0.03152,0.223242 5.16e-4,-5.17e-4 c 0.03518,0.24775 0.286006,0.278911 1.278475,0.159681 l 0.515214,-0.0615 -0.0186,-5.276164 z m -6.826456,1.539958 h 2.444295 2.444295 v 0.533301 0.5333 l -0.372587,0.06201 v -5.17e-4 c -0.37335,0.0618 -2.724638,0.0691 -3.004468,0.0093 -0.08194,-0.0175 -0.362171,-0.05975 -0.622701,-0.09405 -0.502229,-0.0661 -0.692465,-0.244529 -0.821655,-0.769979 z M 43.216244,44.284227 c 0.09053,0.112595 0.241288,0.197153 0.392165,0.253452 -0.150877,-0.0563 -0.271463,-0.140857 -0.392165,-0.253452 z M 32.47378,44.453194 c -0.181053,0.140745 -0.392343,0.253348 -0.603571,0.309645 0.241404,-0.05629 0.452695,-0.1689 0.603571,-0.309645 z m 6.668753,5.967731 c 0,0.309636 -0.15068,0.591213 -0.361907,0.788257 0.241402,-0.197044 0.361907,-0.478621 0.361907,-0.788257 z"
       sodipodi:nodetypes="scccccsccccsscscccccsccsssccsccccccscccccccccccccccccssssscssscssscsssccssccccscsssccsccccscccsssscscscccccccscccccssssscssscccsssscccssscsscccsccsscssscccscscsccsccsscsccccsssccccsscccccccscscssscccccccssscsssccccccccccscccccccsccccccscssccccccccccccccccscccccccccccc" /></g></svg>
