<?xml version="1.0" encoding="UTF-8" standalone="no"?>
<!-- Created with Inkscape (http://www.inkscape.org/) -->

<svg
   version="1.1"
   id="svg1"
   width="72.552826"
   height="119.43788"
   viewBox="0 0 72.552826 119.43788"
   sodipodi:docname="battery.svg"
   inkscape:version="1.3.2 (091e20e, 2023-11-25)"
   xmlns:inkscape="http://www.inkscape.org/namespaces/inkscape"
   xmlns:sodipodi="http://sodipodi.sourceforge.net/DTD/sodipodi-0.dtd"
   xmlns="http://www.w3.org/2000/svg"
   xmlns:svg="http://www.w3.org/2000/svg">
  <sodipodi:namedview
     id="namedview1"
     pagecolor="#ffffff"
     bordercolor="#000000"
     borderopacity="0.25"
     inkscape:showpageshadow="2"
     inkscape:pageopacity="0.0"
     inkscape:pagecheckerboard="0"
     inkscape:deskcolor="#d1d1d1"
     inkscape:zoom="2.6656988"
     inkscape:cx="10.503812"
     inkscape:cy="48.955268"
     inkscape:window-width="1536"
     inkscape:window-height="846"
     inkscape:window-x="1920"
     inkscape:window-y="403"
     inkscape:window-maximized="1"
     inkscape:current-layer="g1" />
  <defs
     id="defs1">
    <clipPath
       clipPathUnits="userSpaceOnUse"
       id="clipPath29">
      <path
         d="M 0,0 H 612 V 803.25 H 0 Z"
         id="path29" />
    </clipPath>
    <clipPath
       clipPathUnits="userSpaceOnUse"
       id="clipPath31">
      <path
         d="M 0,0 H 612 V 803.25 H 0 Z"
         id="path31" />
    </clipPath>
    <clipPath
       clipPathUnits="userSpaceOnUse"
       id="clipPath37">
      <path
         d="M 0,0 H 612 V 803.25 H 0 Z"
         id="path37" />
    </clipPath>
    <clipPath
       clipPathUnits="userSpaceOnUse"
       id="clipPath53">
      <path
         d="M 0,0 H 612 V 803.25 H 0 Z"
         id="path53" />
    </clipPath>
  </defs>
  <g
     id="g1"
     transform="translate(-460.63437,-195.0956)">
    <path
       id="path36"
       clip-path="url(#clipPath37)"
       style="fill:#4da383;fill-opacity:1;fill-rule:nonzero;stroke:none"
       transform="matrix(1.3333333,0,0,-1.3333333,0,1071)"
       d="m 395.4516,628.3329 c 0,-0.3494 -0.2833,-0.6327 -0.6328,-0.6327 -0.3495,0 -0.6328,0.2833 -0.6328,0.6327 0,0.3495 0.2833,0.6328 0.6328,0.6328 0.3495,0 0.6328,-0.2833 0.6328,-0.6328 m -0.5198,0.068 c -0.0472,-0.241 -0.2807,-0.398 -0.5217,-0.3508 -0.1951,0.0382 -0.3412,0.2014 -0.3576,0.3995 -0.01,0.1168 -0.1715,0.0727 0.0713,0.4584 0.1756,0.279 0.5918,0.2301 0.7165,0.1535 l 0.1995,-0.1896 0.145,-0.4227 0.198,-1.413 0.1005,-0.7659 0.021,-0.3132 0.0215,-0.2452 0.0122,-0.1336 -0.008,-0.1522 c -0.0163,-0.0982 -0.0977,-0.4031 -0.4468,-0.5005 -0.3269,-0.0912 -0.6659,0.0999 -0.7571,0.4269 -0.0912,0.3269 0.0999,0.6659 0.4268,0.7571 0.1148,0.032 0.2364,0.03 0.35,-0.006 0.0687,-0.0217 -0.3276,0.0169 -0.2407,0.0253 0.0844,0.008 -0.2961,-0.1057 -0.2307,-0.0703 0.1214,0.0657 -0.2599,-0.2677 -0.2223,-0.2078 0.0631,0.1004 -0.0817,-0.2188 -0.0753,-0.1865 0.0162,0.082 -0.006,-0.0329 -0.006,0.0285 l 0.004,0.2626 0.0198,0.2798 -0.0712,0.6608 -0.1674,1.369 -0.0106,0.115 -0.0276,0.1218 c -0.002,0.008 0.1128,-0.2146 0.0531,-0.1199 -0.027,0.0427 0.2521,-0.2095 0.1641,-0.1583 -0.0796,0.0464 0.3556,-0.0587 0.2683,-0.064 -0.0742,-0.005 0.2298,0.0739 0.1828,0.0498 -0.0776,-0.0397 0.169,0.1504 0.1434,0.1175 -0.0345,-0.0444 0.0513,0.093 0.046,0.0738 m 0.5063,-3.2107 c -0.181,-0.2872 -0.5606,-0.3734 -0.8478,-0.1924 -0.1787,0.1125 -0.2871,0.309 -0.2871,0.5202 l -0.003,0.07 c -0.0227,0.3409 0.2354,0.6356 0.5763,0.6583 0.3409,0.0226 0.6357,-0.2354 0.6583,-0.5764 7e-4,-0.0105 0.001,-0.021 0.001,-0.0315 l -9e-4,-0.1034 -0.003,-0.0547 c -0.002,-0.0239 0.124,0.0567 -0.0944,-0.2901 m 0.0992,0.3886 c -0.0146,-0.17 -0.0981,-0.3267 -0.2312,-0.4336 -0.3933,-0.3161 -0.2711,-0.1293 -0.2996,-0.1368 l -0.0556,-0.0167 c -0.1308,-0.0501 -0.2737,-0.0588 -0.4096,-0.0248 -0.5294,0.1322 -0.4741,0.4067 -0.4953,0.4751 -0.0989,0.3196 -0.0811,0.5026 -0.0579,0.7858 l 0.1525,1.0698 0.007,0.4284 -0.002,0.3336 0.0236,0.2881 c 0.0151,0.0874 -0.0807,0.0915 0.1598,0.3857 0.2211,0.2706 0.6198,0.3107 0.8904,0.0895 0.2706,-0.2212 0.3106,-0.6198 0.0894,-0.8904 -0.06,-0.0735 -0.1359,-0.1326 -0.2219,-0.1728 -0.0905,-0.0423 0.2091,0.1564 0.1744,0.1218 -0.0589,-0.0586 0.1088,0.1483 0.0939,0.1222 -0.0419,-0.0737 0.033,0.0742 0.0312,0.0666 l -0.007,-0.0537 -10e-4,-0.2897 -0.0183,-0.5632 -0.0974,-0.9796 0.0343,-0.2236 0.007,-0.0341 c 0.007,-0.0166 -0.1344,0.2064 -0.0741,0.1278 0.0348,-0.0453 -0.35,0.2496 -0.2183,0.1816 0.0716,-0.0369 -0.4194,0.0769 -0.2951,0.0745 0.1284,-0.002 -0.4882,-0.1785 -0.381,-0.1089 0.1166,0.0757 0.2535,0.1139 0.3925,0.1096 l 0.276,-0.0377 0.1823,-0.0693 0.153,-0.1091 c 0.0688,-0.0652 0.2324,-0.1206 0.1983,-0.5161 m -1.2288,2.3801 c -0.2065,0.282 -0.1453,0.6779 0.1366,0.8844 0.282,0.2065 0.6779,0.1453 0.8844,-0.1366 0.008,-0.0111 0.0159,-0.0224 0.0232,-0.034 0.1803,-0.2831 0.083,-0.193 0.0901,-0.2254 l 0.0163,-0.4198 0.0333,-0.4266 -0.0152,-1.1834 -0.0111,-0.5358 -0.0103,-0.4332 -0.0335,0.1633 c 0.0198,-0.0593 -0.2324,0.3395 -0.1412,0.2394 0.0493,-0.054 -0.3393,0.2151 -0.2287,0.1655 0.058,-0.026 -0.297,0.0664 -0.2124,0.0574 0.0875,-0.009 -0.4263,-0.0781 -0.309,-0.0365 0.3668,0.13 0.7696,-0.0619 0.8996,-0.4287 0.13,-0.3668 -0.0619,-0.7696 -0.4287,-0.8996 -0.3668,-0.13 -0.7696,0.0619 -0.8996,0.4287 -0.058,0.1636 -0.0535,0.3428 0.0124,0.5033 0.038,0.0925 -0.0156,-0.0414 -0.01,-0.0243 l -0.0348,-0.1624 0.0508,0.498 0.0415,0.5451 0.0684,1.0968 -0.0264,0.5908 0.003,-0.0108 0.007,-0.0262 0.0114,-0.0344 0.0162,-0.0401 c -0.009,0.0208 0.1157,-0.1816 0.0668,-0.1149 m -0.0363,-3.0912 c -0.1421,0.1404 -0.2185,0.3342 -0.2103,0.5339 0.006,0.143 0.002,0.0217 0.003,0.032 l 0.0336,0.4272 0.0914,0.9803 0.003,0.5616 -0.018,0.1566 c -0.0188,0.0968 0.1678,-0.3035 0.0873,-0.1855 -0.0331,0.0484 0.2219,-0.2104 0.1511,-0.1575 -0.0642,0.0479 0.3351,-0.137 0.2414,-0.1139 -0.0824,0.0202 0.3269,-0.003 0.2481,-0.0137 -0.1344,-0.0177 0.3765,0.1751 0.3066,0.1234 -0.0977,-0.0722 0.1979,0.2385 0.1696,0.189 l 0.0457,0.1046 c -0.0158,-0.0588 0.0178,0.0965 0.0179,0.0695 l 0.002,-0.1688 -0.002,-0.3799 0.002,-0.5956 0.0263,-0.2595 0.0129,-0.2521 1e-4,0.0191 -0.008,0.0365 -0.0205,0.0659 -0.0302,0.0704 c 0.0164,-0.0334 -0.177,0.2414 -0.1049,0.1581 0.2715,-0.3138 0.2372,-0.7883 -0.0766,-1.0598 -0.3138,-0.2715 -0.7882,-0.2372 -1.0597,0.0766 -0.2716,0.3137 -0.2373,0.7882 0.0765,1.0597 0.1347,0.1165 0.3063,0.1814 0.4844,0.1831 0.0907,9e-4 -0.2591,-0.0467 -0.2065,-0.0311 0.0957,0.0285 -0.2499,-0.1273 -0.2031,-0.0958 0.0817,0.055 -0.1849,-0.1767 -0.1541,-0.1394 0.0492,0.0594 -0.0968,-0.1539 -0.0828,-0.1261 0.035,0.0697 -0.0312,-0.0769 -0.0294,-0.0702 l 0.0104,0.1218 0.0276,0.2998 -2e-4,0.5438 -10e-4,0.3575 0.002,0.4367 c 0.0169,0.1079 -0.032,0.3101 0.3592,0.537 0.2269,0.1315 0.6113,0.0832 0.7893,-0.0559 0.1618,-0.1264 0.2115,-0.2505 0.2449,-0.3438 l 0.0799,-0.4593 0.005,-0.7046 -0.0206,-1.0202 -0.0721,-0.552 -0.2204,-0.3642 -0.2572,-0.1583 c -0.1444,-0.0518 -0.4247,-0.1532 -0.7449,0.1631 m 0.5224,1.5482 c 0.3075,-0.0313 0.5313,-0.306 0.4999,-0.6134 -0.0313,-0.3075 -0.306,-0.5313 -0.6134,-0.4999 -0.3074,0.0313 -0.5313,0.306 -0.4999,0.6134 0.0238,0.2339 0.1914,0.428 0.4193,0.4857 0.1105,0.028 -0.1896,-0.0892 -0.1615,-0.0706 0.1597,0.1055 0.3632,0.1185 0.535,0.0342 0.0331,-0.0162 -0.2967,0.0626 -0.1794,0.0506 m -32.1641,19.9895 h 15.2248 c 1.8692,-0.1241 3.7105,-0.3286 5.7185,-0.3171 1.8616,0.0105 3.6211,-0.2222 5.5772,-0.1979 1.0145,0.0126 2.0293,0.1191 2.9076,0.2439 0.6155,0.0874 1.3518,0.0109 2.0278,-0.0185 0.5223,-0.0227 0.8794,-0.304 1.0009,-0.6458 0.2841,-0.7989 0.5154,-2.0168 0.2081,-2.9506 -0.0657,-0.1995 0.0349,-0.4137 0.2259,-0.4927 0.002,-0.1179 0.005,-0.237 0.008,-0.3571 0.0434,-1.5497 -0.0243,-3.219 -0.0954,-4.8876 -0.0296,-0.6947 -0.1793,-1.4842 -0.1686,-2.3744 l -0.0165,-1.2417 c -0.002,-1.7741 0.0595,-3.5983 0.1289,-5.4304 -0.3511,-0.4846 -0.4803,-1.0546 -0.5497,-1.5654 -0.0767,-0.5644 -0.0954,-1.0682 -0.1913,-1.3195 -0.0527,-0.1382 -0.059,-0.1455 -0.1556,-0.1564 l -0.2962,0.002 h -0.6038 l -1.1241,0.0829 c -0.772,0.0629 -1.5926,0.1597 -2.4157,0.0391 -0.6362,-0.0932 -1.1947,-0.2133 -1.7518,-0.3033 h -5.6338 c -1.2436,0.0493 -2.5229,0.2118 -3.8528,0.2382 -1.7669,0.035 -3.5718,0.1302 -5.4142,0.0691 -2.2087,-0.0732 -4.571,0.2405 -6.6938,0.2526 -2.1579,0.0123 -4.3844,0.0936 -6.66,-0.257 -1.2381,-0.1907 -2.4475,0.1384 -3.6731,0.2408 -0.6624,0.0552 -1.3984,0.0182 -2.0016,-0.0561 -1.0252,-0.1263 -2.4016,-0.2444 -3.4549,-0.0599 -0.4075,0.0714 -0.7073,0.2404 -0.9106,0.5015 l -0.007,0.6023 c -0.0243,0.8103 -0.177,1.5547 -0.0618,2.2182 0.2603,1.4987 0.0143,2.9858 -0.007,4.4997 -0.0181,1.2661 -0.1695,2.2985 -0.0997,3.4434 0.1351,2.217 0.2602,4.4046 0.0987,6.6361 -0.0833,1.1506 -0.1634,2.339 0.0334,3.2855 0.092,0.1063 0.2115,0.188 0.3475,0.2339 0.5523,-0.0511 1.1133,-0.1634 1.7754,-0.1788 l 1.6355,-0.0691 c 2.147,-0.0705 4.4125,0.243 6.6069,0.2249 0.8138,-0.007 1.5712,0.0265 2.3137,0.0648 m -11.2793,-1.5937 v -18.7026 h 42.7206 v 18.7026 z m 44.1321,-19.8762 c 0.001,-0.0418 0.003,-0.0835 0.004,-0.1253 -0.0286,0.008 -0.0156,0.0663 -0.004,0.1253 m -44.9288,20.6734 h 44.3144 v -19.1782 c -0.0157,-0.0879 -0.0289,-0.1749 -0.0405,-0.2602 -0.043,-0.3162 -0.0678,-0.6134 -0.0981,-0.8579 h -44.1758 z" />
    <path
       id="path28"
       clip-path="url(#clipPath29)"
       style="fill:#fa9a00;fill-opacity:1;fill-rule:nonzero;stroke:none"
       transform="matrix(1.3333333,0,0,-1.3333333,0,1071)"
       d="m 360.3005,619.9979 h 3.0415 c 0.3607,-0.0401 0.7191,-0.0955 1.0746,-0.1674 1.8673,-0.3778 3.7207,0.0206 5.4127,-0.2932 1.1374,-0.2109 2.2695,0.01 3.29,0.1064 1.7778,0.1684 3.7436,0.228 5.7985,0.3352 1.8323,0.0957 3.7875,-0.3772 5.8764,-0.2246 1.0133,0.0741 2.0187,-0.1181 3.0425,-0.1419 l 1.5171,0.0747 0.725,0.1096 0.3768,-10e-4 1.0748,-2e-4 h 1.6955 l 0.6676,-0.0105 0.224,-0.0738 0.2508,-0.1125 0.6261,-0.518 c 0.126,-0.1086 0.2763,-0.3782 0.4034,-0.674 -0.0737,-0.0796 -0.1149,-0.1887 -0.1049,-0.3053 0.1508,-1.7468 -0.0294,-3.8583 -10e-4,-5.5904 l -0.0429,-5.2758 c 0.009,-1.2491 0.3078,-2.5384 0.2674,-3.809 -0.024,-0.7527 0.1193,-1.4385 0.1809,-2.0998 v -0.9205 l -0.2186,-1.2414 c -0.4093,-0.3301 -0.8553,-0.5864 -1.3829,-0.7565 h -0.8963 c -0.4592,0.0362 -0.9097,0.0972 -1.3407,0.149 -1.3509,0.1623 -2.8398,-0.017 -4.0107,-0.012 -1.3648,0.006 -2.6586,-0.1661 -3.9244,0.1559 -0.9607,0.2444 -1.919,0.3177 -2.9294,0.3486 -1.2084,0.0368 -2.1277,-0.1946 -3.0632,-0.2252 l -2.9646,-0.2102 c -1.7724,-0.0398 -3.3714,0.1558 -5.1664,0.1263 l -5.6991,-0.0965 c -2.7518,-0.0169 -5.6254,0.52 -8.4227,0.1651 -0.5352,-0.0679 -0.9197,-0.234 -1.4081,-0.2343 l -1.6829,-0.0151 -1.3379,-0.0592 c -0.3782,-0.008 -0.6203,0.0603 -0.6814,0.1313 l -0.1333,0.2111 c -0.0763,0.1167 -0.2097,0.3006 -0.4713,0.3428 l -0.0852,2.285 c -0.0627,0.7956 -0.1013,1.5493 -0.0555,2.3404 0.0968,1.6695 -0.1626,3.2358 -0.1543,4.6841 0.003,0.4902 0.067,1.0699 -0.022,1.6102 v 2.8516 c 0.1804,0.8412 0.3278,1.7837 0.332,2.6262 0.003,0.6553 0.0489,1.3007 0.1874,2.0141 l 0.135,1.1145 c 0.0449,0.303 0.1247,0.4918 0.2196,0.564 l 0.6214,0.2958 c 0.6397,-0.0266 1.2313,-0.0839 1.8289,-0.1239 0.909,-0.0608 1.8484,0.0543 2.7056,0.1267 l 4.2183,0.3777 c 0.1355,0.017 0.271,0.0324 0.4063,0.0461 m -9.0608,-1.5938 v -18.4026 h 42.8635 v 18.4026 z m 44.0111,1.5306 c 0.1462,-0.0621 0.2701,-0.1667 0.356,-0.2982 z M 350.453,619.201 h 44.3958 L 394.9,599.2047 h -44.4571 z" />
    <path
       id="path30"
       clip-path="url(#clipPath31)"
       style="fill:#ff00de;fill-opacity:1;fill-rule:nonzero;stroke:none"
       transform="matrix(1.3333333,0,0,-1.3333333,0,1071)"
       d="m 353.2351,593.4071 h 1.2452 c 0.211,-0.0142 0.4227,-0.0366 0.6352,-0.0684 1.5655,-0.2344 3.3257,-0.0122 5.0106,-0.0428 1.1636,-0.0212 2.3232,0.0386 3.5041,0.1112 h 10.2473 c 1.6491,-0.2013 3.5321,-0.323 5.2733,-0.3455 2.5974,-0.0336 5.2803,-0.5229 8.2391,-0.3814 1.3969,0.0667 2.8151,0.002 4.117,0.11 0.9621,0.0795 2.1603,0.0522 3.2406,0.0532 0.2925,-0.1979 0.516,-0.5596 0.7034,-1.0089 -0.0325,-0.1008 -0.0248,-0.1922 -0.0314,-0.2751 l -0.0177,-0.405 -0.1631,-6.3412 c -0.006,-1.7365 0.1971,-3.6622 0.1244,-5.4726 -0.0549,-1.3667 0.1696,-2.7193 0.1282,-4.1116 -0.02,-0.6703 -0.071,-1.2047 -0.2285,-1.6371 l -0.2702,-0.953 c -0.163,-0.4134 -0.9769,-0.6221 -1.9126,-0.8679 -0.3811,-0.1 -0.7562,-0.1795 -1.1341,-0.2495 -1.2022,-0.0432 -2.3607,-0.088 -3.4765,0.0417 -2.1423,0.2492 -4.2992,0.6126 -6.7072,0.4348 -2.4592,-0.1815 -5.2741,0.2377 -7.7961,-0.3162 -0.4984,-0.1095 -1.0188,-0.1811 -1.5554,-0.227 H 360.982 l -9.8583,0.3052 c -0.2196,0.0817 -0.452,0.1578 -0.7029,0.1986 l -0.3642,0.0344 -0.1006,0.3338 c -0.146,0.4382 -0.2259,0.9703 -0.2917,1.4234 l -0.1389,1.2879 0.0874,3.0439 c 0.0339,1.8947 0.2812,3.7449 0.2524,5.5905 l -0.0754,0.5471 c 0.0136,0.1162 -0.0238,0.2373 -0.1754,0.3789 l -0.0418,0.796 c -0.0813,0.8687 0.0119,1.7469 -0.0156,2.6988 -0.0452,1.5691 0.0748,2.837 0.3977,4.1056 l 0.4151,0.454 0.4073,0.4315 c 0.8007,0.1352 1.6218,0.2726 2.458,0.3227 m -2.1159,-1.5937 v -18.7649 h 42.8513 v 18.7649 z m -0.7883,0.7968 h 44.4365 v -20.2389 c -0.0573,-0.0421 -0.1233,-0.0818 -0.1967,-0.1197 h -44.2484 l 0.009,20.3586 z" />
    <path
       id="path52"
       clip-path="url(#clipPath53)"
       style="fill:#fddc00;fill-opacity:1;fill-rule:nonzero;stroke:none"
       transform="matrix(1.3333333,0,0,-1.3333333,0,1071)"
       d="m 365.432,603.8181 c 0.2331,-0.0165 0.4088,-0.2188 0.3923,-0.4519 -0.005,-0.0724 -0.0285,-0.1404 -0.0661,-0.1988 0.8593,-0.088 1.7704,-0.067 2.6272,-0.0755 1.3671,-0.0288 2.7537,0.0854 4.2021,0.0463 l 2.0879,-0.01 1.3444,0.0376 0.678,0.0129 0.4039,-0.0846 0.1942,-0.1016 c 0.1401,-0.0519 0.6836,0.0432 1.258,0.0273 l 0.643,-0.007 0.3588,-0.0174 0.2873,0.0293 0.2846,0.0423 0.2647,0.007 0.1334,0.002 c 0.0411,-0.0985 -0.0217,-0.235 -0.0913,-0.3732 -0.3063,-0.1704 -0.56,-0.3163 -0.7537,-0.383 -0.0406,0.0193 -0.0853,0.032 -0.1327,0.0366 -0.7159,0.0688 -2.1611,-0.1925 -3.0813,-0.1927 -0.1824,-10e-5 -0.3066,0.0785 -0.593,-0.0364 l -1.1946,-0.0142 -2.1167,0.0276 -4.1851,-0.1124 c -0.9247,0.0152 -1.9668,-0.0113 -2.9353,0.1279 l -0.1864,0.0631 c 0.0151,-0.014 -0.2736,-0.0906 -0.4764,0.3545 -0.103,0.3364 -0.0425,0.4265 -0.0425,0.4338 l 0.0282,0.3174 c 0.0941,0.2724 0.4235,0.51 0.6671,0.4928 m 0.1063,-0.6256 c -0.0252,0.005 -0.0708,0.003 0,0 m 8.3149,12.3445 c 0.0538,-0.0833 0.1114,-0.1638 0.1707,-0.2436 -0.004,-0.2032 0.0922,-0.2712 0.1408,-0.3424 0.057,-0.0874 0.0801,-0.1191 0.1028,-0.1449 l 1.0667,-1.8503 0.8942,-1.5601 c 0.2339,-0.3871 0.4079,-0.6677 0.6306,-0.8591 l 0.1249,-0.1189 c 0.1408,-0.3347 0.4021,-0.645 0.6437,-1.0424 l 1.0463,-1.8326 0.2279,-0.3132 c 0.3162,-0.5113 0.6067,-0.9143 0.9107,-1.3006 l 0.64,-1.0489 c 0.0469,-0.3637 0.1691,-0.8046 0.2837,-1.2763 l -0.0332,-0.2797 c -0.0699,-0.1981 -0.1614,-0.4078 -0.2692,-0.6217 -0.3059,-0.1694 -0.5595,-0.3152 -0.7531,-0.3819 -0.0406,0.0193 -0.0853,0.032 -0.1327,0.0366 -0.7159,0.0688 -2.1611,-0.1925 -3.0813,-0.1927 -0.1797,-10e-5 -0.3029,0.0762 -0.5804,-0.0315 h -1.3661 c -0.1389,0.0115 -0.2764,0.026 -0.4122,0.0442 l -2.3508,0.1614 c -0.9059,0.061 -1.9895,0.2053 -2.8,0.0743 -0.0624,0.0292 -0.1332,0.0427 -0.2067,0.0357 -0.7281,-0.0696 -1.3625,0.0554 -2.1455,0.0254 -0.574,-0.022 -1.087,-0.013 -1.2207,0.0735 -0.0943,0.0608 -0.2045,0.0769 -0.3058,0.0535 -0.3579,0.1463 -0.4783,0.2732 -0.4715,0.5612 l 0.0813,0.6074 0.0209,0.1081 0.2633,0.5343 0.2582,0.7015 0.5497,0.9169 0.1363,0.1697 c 0.6397,0.7623 1.2642,1.6305 1.7221,2.4933 0.382,0.7198 0.7657,1.3167 1.1769,1.8861 0.3715,0.5145 0.605,1.1001 0.8553,1.5917 0.5,0.9824 0.9718,1.904 1.6453,3.0005 0.0306,0.0499 0.049,0.1039 0.0558,0.1584 l 0.4155,0.3717 c 0.0814,0.0675 0.1291,0.1606 0.1411,0.2579 0.0502,0.0283 0.1006,0.056 0.1508,0.0833 l 0.3666,0.1901 0.2342,0.0403 0.1857,2e-4 c 0.0835,-0.121 0.231,-0.1909 0.4902,-0.1614 l 0.0957,-0.1739 c 0.1468,-0.2245 0.3358,-0.3158 0.4013,-0.4011 m -1.1371,-1.038 -6.4586,-10.7724 h 13.0318 z m -0.006,1.5398 7.902,-12.9503 -15.7615,-0.1588 z" />
    <path
       d="m 463.34599,242.21853 c -0.12467,0.29706 -0.46667,0.4368 -0.76373,0.31213 -0.1856,-0.0779 -0.31787,-0.24587 -0.35014,-0.4444 -0.0965,-0.5936 0.4904,-0.83547 0.76827,-0.90133 l 0.7732,-0.1064 c 1.45773,-0.0272 3.3124,-0.43654 5.19093,-0.4852 l 4.5228,0.1192 5.28173,0.008 5.36174,-0.012 3.30106,-0.16374 5.43494,-0.007 c 2.32866,-0.007 4.50866,-0.342 6.6652,-0.29707 l 5.93586,0.0243 4.9668,0.0456 9.3856,0.46053 c 1.98307,0.0741 3.76374,0.26427 5.6392,0.13427 2.14454,-0.13507 4.39494,0.0721 5.71187,-0.44814 0.47467,-0.18746 1.01147,0.0453 1.19907,0.52 0.1852,0.4688 -0.0395,0.9996 -0.50494,1.19294 -1.95813,0.8136 -4.33493,0.51853 -6.26333,0.66946 -2.0776,0.14974 -3.94093,-0.0473 -5.8484,-0.11333 l -9.41947,-0.5064 -4.9144,-0.0481 -5.92866,-0.0701 c -1.944,-0.0308 -4.13174,0.31107 -6.61254,0.32774 l -5.42413,-0.007 -3.2804,0.1276 -5.40053,-0.012 -5.37787,-0.0869 -4.40787,-0.17094 c -1.6848,-0.0175 -3.53666,0.3332 -5.15613,0.28907 l -0.70773,-0.0716 -0.0949,-10e-4 0.11493,-0.0456 c -0.0677,0.0396 0.24747,-0.34 0.202,-0.23173 m -0.536,34.0048 c 0.32027,0.0672 0.5256,0.38133 0.4584,0.70173 -0.0627,0.29893 -0.34227,0.50133 -0.64587,0.46747 l -0.14613,0.016 0.25827,-0.1716 0.0852,-0.1244 c -0.0315,0.0613 0.0628,-0.44907 0.0668,-0.2948 0.008,0.3436 -0.2628,0.6292 -0.6064,0.63786 -0.3436,0.008 -0.62907,-0.2628 -0.63787,-0.6064 -0.009,-0.34346 0.2628,-0.62906 0.6064,-0.63773 0.14173,-0.004 0.28027,0.0412 0.39307,0.1272 0.12866,0.0981 -0.20707,-0.1028 -0.18134,-0.0948 l -0.3076,-0.0151 0.65707,-0.005 z m -1.1908,0.57013 c 0.0152,-0.1836 0.10773,-0.35213 0.25467,-0.46333 0.46026,-0.34827 0.3708,-0.1424 0.45973,-0.1528 l 0.30253,-0.0312 8.3128,0.18746 c 2.3012,0.0696 4.5436,-0.0527 6.942,-0.0817 l 4.8792,-0.16413 3.50493,-0.0213 4.1068,-0.0479 11.3608,-0.24507 7.896,-0.12387 c 2.42574,-0.0159 4.65507,-0.32786 7.43454,-0.26613 3.36106,0.0461 6.6508,0.0735 9.72986,-0.012 l 3.80787,-0.15093 c 0.0713,-0.004 0.14307,-0.003 0.214,0.007 l 0.80173,0.0995 c 0.534,0.064 0.91494,0.5488 0.85094,1.08267 -0.0469,0.39173 -0.32574,0.71653 -0.70587,0.82226 l -0.80387,0.21614 c -0.0697,0.0183 -0.14106,0.0297 -0.21293,0.0344 l -3.89453,0.1632 c -3.1424,0.0491 -6.45854,-0.0159 -9.83787,-0.0991 -2.5912,-0.042 -4.77773,0.2824 -7.34653,0.31587 l -7.89387,-0.0295 -11.35747,0.2936 -4.08613,0.0467 -3.58667,0.0293 -4.8596,0.0243 c -2.3536,-0.0249 -4.62866,0.0445 -7.01453,-0.0827 l -8.23093,-0.48627 -0.4768,-0.1232 -0.2072,-0.0987 c -0.0876,-0.054 -0.4004,0.046 -0.3436,-0.64307 m 1.42507,-72.05667 c 0.49026,2.67947 0.21066,7.02707 0.44586,9.96267 0.0355,0.4428 -0.2948,0.83053 -0.7376,0.86613 -0.4428,0.0355 -0.83066,-0.2948 -0.86613,-0.7376 -0.0828,-2.6916 0.184,-6.25506 0.0763,-8.75546 0.1028,-0.1388 0.20906,-0.27654 0.31853,-0.41227 0.26613,-0.33 0.51973,-0.6404 0.76307,-0.92347 m -1.0812,10.98414 c -0.007,-0.45414 0.35653,-0.82734 0.81053,-0.83387 0.4452,-0.007 0.81453,0.34293 0.8332,0.78773 l -0.0512,2.28134 0.003,1.44973 -10e-4,0.66587 -0.0647,4.25933 0.0375,3.1416 0.0313,1.97867 0.10466,0.94026 c 0.1424,1.09507 0.20174,2.29587 0.2144,3.4744 l 0.14427,2.94694 0.0272,1.70346 0.007,1.0736 -0.003,0.73307 -0.003,0.9956 -10e-4,1.5664 -0.0283,2.09053 -0.0809,1.7528 -0.0975,2.58147 -0.0284,3.30333 -0.0947,1.37267 -0.001,0.3628 -0.0233,0.78947 4e-4,0.35133 4e-4,0.8188 -0.0273,1.38933 0.004,3.24134 0.004,1.44693 -0.001,0.66027 2.7e-4,0.5316 -5.3e-4,0.4376 -4e-4,0.65453 -0.0225,2.7544 c -0.0275,2.03827 -0.28346,4.0492 -0.3976,6.26387 -0.13506,2.81146 -0.0683,5.14613 -0.14453,7.7264 l -0.22,8.41453 c -0.0332,2.838 -0.005,5.78733 0.21973,8.2652 0.20614,2.1136 0.2348,4.244 0.54374,6.08573 0.254,1.57574 0.32893,3.2264 0.38786,4.99854 l 0.009,2.53 -4e-4,1.26626 -0.0281,0.80867 -0.0272,0.2828 c -0.007,0.0459 0.1092,-0.0819 -0.0459,0.2592 -0.25174,-0.1984 -0.50427,-0.49973 -1.1268,-0.53787 l -0.70107,-0.97986 -0.45507,-0.66374 -5.3e-4,-0.43186 0.009,-2.46107 c -0.0532,-1.74213 -0.12413,-3.3004 -0.344,-4.6932 -0.31586,-2.0888 -0.30586,-4.2584 -0.4708,-6.26933 -0.2312,-2.60547 -0.2516,-5.61187 -0.21293,-8.4892 l 0.21387,-8.45774 c 0.10586,-2.516 0.0723,-4.8768 0.24346,-7.77226 0.12787,-2.29534 0.3888,-4.28974 0.4236,-6.18134 l 0.0229,-2.71893 -2.7e-4,-0.65387 -5.3e-4,-0.43546 2.6e-4,-0.5368 -10e-4,-0.65147 0.004,-1.458 0.004,-3.3032 0.0296,-1.32253 5.3e-4,-0.82347 2.7e-4,-0.37573 0.0224,-0.7516 -9.3e-4,-0.48667 0.14546,-1.38747 0.0164,-3.2352 0.15427,-2.60826 0.11227,-1.7232 0.0172,-2.066 -0.001,-1.53254 -0.003,-0.99573 -0.003,-0.72093 0.007,-1.08454 0.0264,-1.63786 -0.0947,-3.00387 -0.17187,-3.27627 -0.1464,-0.95093 -0.0159,-2.16827 0.0377,-3.16466 0.1748,-4.25574 -10e-4,-0.63533 0.003,-1.5116 0.0961,-2.19093 z m 70.52959,-8.9048 0.009,0.66346 -0.0907,6.7344 -0.0512,4.56014 -0.10267,2.698 -0.0269,1.3592 -0.008,1.214 0.007,0.786 0.007,3.96253 0.0233,1.882 0.11866,0.86427 0.0901,1.1972 -0.004,0.83813 0.16213,6.5016 -0.0679,3.9916 -0.0493,2.04147 -0.0412,0.95733 -0.0148,0.47693 -0.0196,0.55294 10e-4,0.6528 -0.012,0.88213 -0.0397,1.02307 -0.0324,3.07653 -0.0501,1.4456 -0.0492,0.8104 0.007,0.70973 -0.003,0.70747 0.004,0.63707 0.0176,10.0864 0.0647,7.4124 c -0.009,2.01853 0.11667,4.1136 0.26734,5.7796 l 0.1464,4.47213 0.10946,2.16667 0.004,1.16733 10e-4,0.44027 0.005,0.9016 0.17787,6.52906 c 0.11013,2.10614 0.15253,4.27654 0.0961,6.5552 l 0.0385,1.5188 -0.0861,2.35694 -0.1708,2.054 -0.19507,1.4628 -0.75573,2.16626 -0.8008,0.10174 -0.92453,0.16266 0.0465,-2.5832 0.12987,-1.53053 0.11146,-1.94867 0.0885,-2.25093 0.12293,-1.628 c 0.0505,-2.15227 0.008,-4.25893 -0.10067,-6.31307 l -0.21026,-6.61253 0.005,-0.94533 10e-4,-0.4464 -0.0403,-1.01894 -0.0853,-2.30493 -0.1952,-4.24067 c -0.1544,-1.74013 -0.28226,-3.89746 -0.2696,-6.0148 l 0.0647,-7.41773 0.0169,-10.04173 0.005,-0.6864 -10e-4,-0.64294 0.008,-0.8628 0.0537,-0.8344 0.0861,-1.36573 0.0247,-3.16307 0.0524,-0.9844 0.032,-0.79786 0.003,-0.7064 0.0392,-0.592 0.0297,-0.4676 0.05,-0.98027 0.098,-1.95747 -0.0677,-3.94133 -0.0776,-6.54293 -0.003,-0.74094 -0.0968,-0.90786 -0.18347,-0.99894 -0.0244,-2.1408 0.10853,-3.9376 0.007,-0.7864 -0.008,-1.21266 0.0661,-1.47947 0.19227,-2.58093 0.1436,-4.64067 0.29773,-6.70227 0.1252,-2.51733 c 0.0588,-0.24986 0.0924,-0.44306 0.2372,-0.63826 0.27307,0.2904 0.48214,0.26933 0.66014,0.2376 l 0.13186,0.32679 c 0.048,0.14694 0.13187,0.2728 0.23894,0.3716 -0.0947,0.19214 -0.0388,0.3492 -0.0187,0.45347 l 0.1068,0.36813 0.23853,0.78974 z m -69.88426,105.61306 c 0.0392,-0.0769 0.0905,-0.14706 0.15187,-0.20786 l 0.31506,-0.2036 c 0.21054,-0.0903 0.4472,-0.0983 0.6632,-0.0224 l 0.55214,0.0935 c 3.04399,0.4464 6.69746,0.29987 10.36239,0.30667 2.92134,-0.0185 5.88774,-0.24947 8.9028,-0.2668 1.87587,-0.0236 3.8996,0.1012 5.80334,0.0296 1.6588,-0.0603 3.69413,-0.082 5.57306,-0.3304 1.78214,-0.22293 3.5388,-0.2968 5.38814,-0.20147 1.80266,0.0992 4.08466,-0.12253 5.90066,-0.17933 l 4.72987,0.0465 c 2.368,0.0203 4.49733,0.0851 6.8848,-0.0317 l 4.18213,-0.2808 3.5696,-0.0579 2.98307,-0.0251 1.1796,-0.0152 0.91853,0.009 c 0.11334,-0.001 0.22627,0.0137 0.33547,0.0441 l 0.76413,0.22054 c 0.46947,0.1452 0.7324,0.64373 0.58707,1.1132 -0.0445,0.14386 -0.1248,0.27413 -0.23333,0.3784 -0.12747,0.12253 -0.2632,0.21933 -0.40467,0.30066 l -0.53813,0.064 -1.874,0.32974 -0.6888,0.0133 -2.97974,-0.0252 -3.54586,0.0363 -4.13254,0.25773 c -2.4756,0.16187 -4.66453,0.1368 -7.00826,0.1568 l -4.63427,0.046 c -1.70987,0.0488 -4.0496,0.28307 -6.1352,0.1632 -1.7036,-0.104 -3.29853,-0.0537 -4.93947,0.1352 -2.09053,0.22587 -4.20146,0.19613 -5.82946,0.2068 -2.05254,0.0107 -4.09347,-0.17933 -5.87414,-0.2196 l -8.90133,0.0757 c -3.6144,-0.0249 -7.3328,0.12054 -10.5772,-0.3768 -0.40466,-0.0847 -0.74146,-0.16666 -1.08266,-0.3652 -0.198,-0.1152 -0.34547,-0.3004 -0.4132,-0.51906 -0.046,-0.14827 -0.16747,-0.2824 0.0453,-0.69894 m 0.1296,-106.3748 c -0.21907,-0.0304 -0.39893,-0.16253 -0.4984,-0.34213 0.3612,-0.4484 0.6628,-0.81653 0.95027,-1.1428 l 1.3144,-0.42933 c 1.25373,-0.31813 2.21506,-0.20547 3.44906,-0.0844 l 6.35613,0.55293 4.54,0.32933 c 1.8044,0.1372 3.8088,0.10414 6.1524,-0.19333 2.02347,-0.25546 3.6808,-0.35493 5.44174,-0.4556 l 5.71746,-0.11253 3.82854,-0.008 3.23466,0.007 4.36454,0.0955 c 3.3008,0.003 5.7452,-0.1316 8.0852,-0.17493 l 4.24946,-0.11973 3.25,-0.0951 c 1.83574,0.007 3.20334,0.21253 4.64347,0.20027 1.11293,0.0771 2.13787,0.0787 3.26,0.1316 0.0548,0.0559 0.1052,0.0985 0.14053,0.13733 0.19067,0.20973 0.39974,0.18867 0.57774,0.15693 l 0.13186,0.3268 c 0.048,0.14693 0.13187,0.2728 0.23894,0.3716 -0.0768,0.156 -0.0545,0.28893 -0.0325,0.3892 -1.4852,0.10693 -2.72093,0.37507 -4.2172,0.5096 -1.69733,0.0203 -3.05626,-0.1852 -4.74253,-0.18933 l -3.10947,0.0519 -4.36546,0.0244 c -2.28787,0.0399 -4.7628,0.17294 -8.1268,0.16747 l -4.34534,0.0437 -3.2332,0.007 -3.83413,-0.008 -5.6204,0.0337 c -1.75533,0.0747 -3.35387,0.14427 -5.31413,0.36667 -2.46667,0.278 -4.6056,0.27867 -6.538,0.0956 l -4.56147,-0.29493 -6.346,-0.6112 c -1.236,-0.11654 -1.8848,-0.19414 -2.7684,0.0317 -0.8108,0.13493 -1.552,0.33293 -2.27293,0.23293 m 23.81266,-7.77773 c -0.008,-0.35973 0.276,-0.65813 0.63574,-0.66666 0.17626,-0.004 0.34666,0.0633 0.47226,0.18706 0.51694,0.5088 0.23707,0.54507 0.25947,0.76734 l 0.15267,3.136 0.0285,2.43546 -0.0312,0.6648 -0.005,0.15013 c 5.3e-4,0.0167 -0.046,-0.15093 -0.0203,-0.0768 0.0189,0.0612 -0.0492,-0.0849 -0.0144,-0.0184 0.0309,0.0591 -0.3572,-0.33906 -0.22587,-0.24999 0.10227,0.0692 -0.46266,-0.1308 -0.34866,-0.12214 0.16146,0.012 -0.35454,0.0717 -0.30734,0.05 l -0.0237,0.0107 c 0.344,-0.25773 0.83187,-0.18773 1.0896,0.15626 0.24293,0.3244 0.1964,0.7808 -0.10707,1.04947 -0.1504,0.1332 -0.3288,0.37053 -0.82706,0.312 -0.5244,-0.0617 -0.68307,-0.456 -0.74054,-0.58067 -0.2556,-0.64573 -0.0825,-0.94266 -0.0856,-1.32573 l 0.0281,-2.43426 0.0701,-3.44427 z m 23.5132,5.76814 c 0,0.53666 -0.43506,0.97173 -0.97173,0.97173 -0.53653,0 -0.9716,-0.43507 -0.9716,-0.97173 0,-0.53654 0.43507,-0.9716 0.9716,-0.9716 0.53667,0 0.97173,0.43506 0.97173,0.9716 m -0.7644,-4.49134 c -0.0308,0.31054 -0.30746,0.5372 -0.618,0.5064 -0.30413,-0.0301 -0.52906,-0.2968 -0.50773,-0.60173 0.0237,-0.33707 0.0497,-0.616 0.39813,-0.89573 -0.0281,0.004 -0.17893,0.22146 -0.0964,0.04 0.1448,-0.31787 0.51987,-0.45827 0.83774,-0.31347 0.31786,0.14467 0.45826,0.51973 0.31346,0.8376 -0.0657,0.14427 -0.18306,0.25853 -0.32893,0.32027 -0.0925,0.0392 0.0976,-0.0564 0.0689,-0.0341 l -0.23706,0.13614 c 0.0219,0.009 0.2164,-0.15614 0.20373,-0.1264 z m -1.0856,-0.69066 c 0.0496,-0.45227 0.4564,-0.77867 0.90867,-0.72907 0.41333,0.0453 0.72813,0.3916 0.73387,0.80747 l 0.0531,1.04986 0.0673,2.53027 -0.005,1.0184 0.009,0.1864 c 10e-4,0.008 -0.0737,-0.2012 -0.0389,-0.12067 0.0197,0.0452 -0.1648,-0.25253 -0.1072,-0.17906 0.0613,0.0784 -0.43493,-0.3164 -0.29573,-0.24427 0.4764,0.2468 0.66253,0.8332 0.41573,1.30973 -0.2468,0.4764 -0.8332,0.66253 -1.30973,0.41573 -0.0303,-0.0157 -0.0597,-0.0329 -0.0883,-0.0517 -0.53773,-0.35493 -0.46506,-0.67493 -0.48666,-0.84813 l 0.009,-1.47667 0.11573,-2.6176 0.0185,-1.05066 z m 1.84374,5.146 c 0.0227,0.51146 -0.37347,0.94439 -0.88494,0.96719 -0.51146,0.0227 -0.94453,-0.37346 -0.9672,-0.88493 -0.0228,-0.51146 0.37347,-0.94453 0.8848,-0.9672 0.37774,-0.0168 0.72787,0.19747 0.88467,0.54147 0.0596,0.1308 -0.24253,-0.32533 -0.182,-0.26413 0.10853,0.10973 -0.40493,-0.2404 -0.31053,-0.204 0.156,0.0603 -0.458,-0.0459 -0.368,-0.0537 0.124,-0.0107 -0.27294,0.0816 -0.23227,0.0617 l -0.0468,0.0271 c 0.34533,-0.2672 0.84187,-0.204 1.1092,0.14147 0.15413,0.19907 0.20413,0.45973 0.1348,0.70173 l -0.0333,0.12294 0.005,-0.0319 c -0.003,0.0215 0.001,-0.28373 0.007,-0.15773 m -23.53707,-5.39227 c -0.2832,-0.17813 -0.384,-0.5428 -0.2324,-0.8412 0.17453,-0.34307 0.36547,-0.41413 0.596,-0.5656 1.15387,-0.43467 2.85587,-0.97093 4.77,-1.27107 2.32213,-0.33466 4.55853,-0.11226 6.43627,-0.17706 2.1544,-0.0625 3.66133,-0.54774 5.21973,-0.62427 l 2.1044,-0.0435 c 1.11453,0.10334 2.1612,0.3304 3.1852,0.81907 0.1208,0.0576 0.2276,0.14093 0.3128,0.24413 l 0.2068,0.25894 c 0.25587,0.33066 0.1952,0.80613 -0.13547,1.062 -0.1232,0.0955 -0.27293,0.15053 -0.4288,0.1576 l -0.2512,0.0192 c -0.13306,0.0145 -0.26773,-1.4e-4 -0.39453,-0.0432 -0.82347,-0.27907 -1.6168,-0.34654 -2.49067,-0.31987 l -2.0188,0.0207 c -1.17786,0.0325 -2.85413,0.4988 -5.25586,0.53906 -2.0564,0.0233 -4.19027,-0.22626 -6.21894,0.0237 -1.75986,0.19533 -3.39893,0.6296 -4.3636,0.87373 -0.47453,0.0272 -0.67826,0.0957 -1.04093,-0.1324 m 21.92693,-0.47373 c -0.24186,0.24013 -0.6324,0.23866 -0.8724,-0.003 -0.12373,-0.1248 -0.18853,-0.29627 -0.178,-0.47173 0.0192,-0.31854 0.0471,-0.6204 0.336,-0.95947 0.12147,-0.14253 0.28414,-0.24413 0.46547,-0.29093 0.9188,-0.23707 1.59107,0.53866 1.82133,1.2472 0.12027,0.89893 -0.0521,1.70706 -0.52426,2.5028 -0.20934,0.35253 -0.6648,0.46866 -1.01747,0.25946 -0.30613,-0.18173 -0.44027,-0.55533 -0.31933,-0.8904 0.20493,-0.56826 0.1376,-0.9948 0.0592,-1.16386 l -0.0987,-0.29574 c -0.0164,-0.0179 0.1872,0.11387 0.11973,0.0829 -0.0724,-0.0333 0.38947,0.0335 0.28387,0.0447 -0.18667,0.02 -0.37507,-0.0183 -0.5392,-0.10946 -0.1388,-0.0771 0.48787,0.0453 0.39547,0.0669 -0.0799,0.0188 0.0919,-0.0428 0.0683,-0.0193"
       style="fill-opacity:1;fill-rule:nonzero;stroke:none"
       id="path1-0" />
    <path
       id="path1-15"
       style="fill:#002f45;fill-opacity:1;fill-rule:nonzero;stroke:none"
       d="m 493.67048,298.25133 c 0.28613,-0.1232 0.618,0.009 0.74133,0.29493 0.0479,0.1112 0.0588,0.23467 0.0311,0.35254 l 0.009,-0.0537 c -0.0372,0.31374 -0.32173,0.53774 -0.63546,0.5004 -0.31374,-0.0373 -0.53774,-0.32186 -0.50054,-0.63546 0.0373,-0.31374 0.32187,-0.53787 0.6356,-0.50054 0.13067,0.0156 0.252,0.0757 0.3436,0.17027 0.0789,0.0817 -0.306,-0.16907 -0.234,-0.14573 0.10267,0.0331 -0.31306,-0.0133 -0.2492,-0.022 l -0.14146,0.0393 z m 0.73627,0.76 c -0.0688,0.15453 -0.20174,0.27133 -0.36387,0.3196 -0.606,0.18053 -0.652,-0.2152 -0.70107,-0.31347 -0.2336,-0.4672 -0.0909,-0.6104 -0.1036,-0.842 -0.003,-0.14613 -0.31666,-0.53053 -0.72986,-0.8344 l -1.1388,-1.03266 c -0.884,-0.9416 -1.25947,-2.29067 -1.21174,-3.7976 0.0265,-0.64267 0.0172,-1.38614 0.29854,-2.1884 l 0.38613,-0.91507 0.28867,-0.57587 0.33066,-0.45853 0.40467,-0.49093 0.46987,-0.5332 0.91053,-0.73427 0.44933,-0.2316 1.10107,-0.35667 0.45387,-0.19106 c 1.23133,-0.53947 2.52493,-0.5012 3.60813,-0.47587 0.33213,0.004 0.80973,-0.0675 1.3884,0.1128 0.468,0.1592 0.6548,0.3932 0.7144,0.43253 0.0601,0.0368 0.1128,-0.0619 0.55933,0.1544 0.5556,0.28 0.69094,0.6632 0.80774,0.81547 l 0.4716,0.47987 c 0.63626,0.7488 0.78146,1.67093 0.82533,2.48053 l 0.0812,2.32733 c -0.009,0.57587 -0.1728,1.13787 -0.47813,1.59787 l -1.46574,1.91413 c -0.51986,0.588 -0.94653,0.8884 -1.17306,1.2416 l -0.13867,0.5732 -0.012,0.41054 -0.0484,0.6276 -0.0353,0.19866 -0.0643,0.19667 -0.21067,0.31453 c -0.0904,0.0924 -0.23946,0.23027 -0.53213,0.2888 -0.31453,0.0629 -0.72787,-0.0865 -0.91853,-0.274 -0.40254,-0.39586 -0.40787,-1.0432 -0.012,-1.44573 0.26453,-0.26893 0.6556,-0.37027 1.01746,-0.26373 0.1588,0.0468 -0.70253,0.0291 -0.528,-0.0133 0.166,-0.0401 -0.48693,0.26507 -0.3932,0.1912 0.086,-0.068 -0.2216,0.23827 -0.18146,0.18507 0.0719,-0.0948 -0.1408,0.25213 -0.1204,0.20533 0.0639,-0.14573 -0.0671,0.22014 -0.0624,0.19654 l 0.0283,-0.45747 0.0367,-0.61053 c 0.10733,-0.54907 0.28867,-1.02814 0.59787,-1.4312 0.45666,-0.66187 1.00533,-0.9964 1.37213,-1.384 l 1.4224,-1.67174 c 0.1084,-0.142 0.21013,-0.3872 0.23093,-0.6868 l -0.0939,-2.13106 c -0.0435,-0.63334 -0.18907,-1.17 -0.43574,-1.45134 l -0.53733,-0.57066 -0.2292,-0.31387 c -0.0424,-0.054 0.0989,0.0333 0.0233,-0.004 -0.0621,-0.0325 -0.2768,0.0236 -0.73613,-0.28147 l -0.28747,-0.21146 -0.93173,-0.0651 c -1.0428,-0.0249 -2.07387,-0.022 -2.90347,0.3408 l -0.53653,0.2476 -1.04253,0.3464 -0.11774,0.0597 -0.59986,0.51987 -0.36987,0.47387 -0.39147,0.4828 -0.15373,0.19853 -0.23467,0.47027 -0.3104,0.73586 c -0.15826,0.46214 -0.16266,0.99334 -0.1852,1.65814 -0.0515,1.176 0.2284,2.0308 0.6668,2.51533 l 0.89574,1.0344 c 0.4476,0.4352 1.1932,1.1088 1.0684,2.10347 l -0.18934,0.788 z m 0.38333,0.26707 c 0.16307,0.26546 0.0799,0.61293 -0.18573,0.77586 -0.11707,0.0719 -0.2564,0.0985 -0.39174,0.0751 l -0.0595,-0.008 0.0383,-10e-4 0.0641,-0.0107 c -0.0331,0.008 0.31586,-0.14573 0.18906,-0.0737 -0.3488,0.19813 -0.79213,0.0761 -0.9904,-0.27267 -0.19813,-0.3488 -0.076,-0.79227 0.27267,-0.9904 0.3488,-0.19813 0.79227,-0.0761 0.9904,0.27267 0.1452,0.25546 0.12213,0.57306 -0.0583,0.80493 -0.12106,0.1556 0.14894,-0.36653 0.13614,-0.29893 -0.0204,0.108 -0.005,-0.25934 0.003,-0.21547 0.0189,0.108 -0.0301,-0.0929 -0.008,-0.0568 m 0.0399,0.13427 c -0.0195,0.4208 -0.37627,0.746 -0.79707,0.72653 -0.16253,-0.008 -0.31853,-0.0668 -0.44493,-0.1692 -0.18707,-0.15173 -0.32533,-0.50333 -0.28587,-0.75133 0.1012,-0.63747 0.43934,-0.65294 0.64014,-0.7384 0.2756,-0.0836 0.63186,-0.26574 1.19133,-0.13667 0.50347,0.009 0.6804,0.48147 0.76747,0.68333 l 0.13013,0.37574 c 0.0548,0.2212 -0.16467,-0.26254 -0.11107,-0.1952 0.0747,0.0937 -0.24826,-0.18827 -0.19346,-0.16067 0.0537,0.0272 -0.358,-0.0704 -0.2316,-0.0608 0.338,0.0752 -0.36254,0.0404 -0.23974,0.0161 0.1104,-0.0219 -0.3204,0.12827 -0.25733,0.0935 0.1092,-0.0603 -0.22147,0.1776 -0.1904,0.14493 l 0.0191,-0.0555 0.2036,-0.3612 c 0.29146,-0.45934 0.6444,-0.78067 1.17866,-0.90267 l -0.404,0.216 c 0.4496,-0.42507 1.036,-0.20773 1.22254,-0.1028 l 0.2092,0.13413 c 0.1052,0.058 0.1992,0.13427 0.2776,0.22534 0.0571,0.0663 -0.0653,-0.0507 -0.003,-0.0283 0.2504,0.0903 0.8736,0.0979 1.17733,0.05 0.45894,-0.0723 0.8896,0.2412 0.96187,0.7 0.0617,0.39173 -0.15853,0.77347 -0.52853,0.916 -0.7692,0.29627 -1.8964,0.68547 -2.99827,-0.19533 -0.0933,-0.0747 -0.17267,-0.1652 -0.23427,-0.2676 l -0.14093,-0.25987 0.0404,0.0539 c -0.0263,-0.0313 0.21893,0.18373 0.1432,0.13066 -0.0817,-0.0573 0.51253,0.1588 0.35987,0.1392 l 0.45226,-0.0627 -0.10333,0.148 -0.18307,0.40813 -0.15826,0.2916 c -0.0863,0.12947 -0.224,0.49227 -0.87574,0.4928 -0.64133,-0.10987 -1.12333,-0.32347 -1.22506,-1.07973 l -0.0197,-0.32254 0.0192,0.0603 c -0.0135,-0.0348 0.1312,0.21613 0.0835,0.15093 -0.0513,-0.0703 0.37733,0.28507 0.25627,0.2208 l -0.1228,0.12627 -0.0731,0.003 c -0.0277,0.008 0.2532,-0.1384 0.1632,-0.0785 -0.0503,0.0335 0.25267,-0.27146 0.18507,-0.17826 -0.0715,0.0987 0.14706,-0.5528 0.14,-0.3996 m -3.22294,-1.1676 c 0.0568,-0.3064 0.3512,-0.5088 0.6576,-0.452 0.2708,0.0501 0.46587,0.28866 0.46134,0.56413 l 0.0612,0.95333 0.1196,0.57867 c 0.13813,0.7424 0.18666,1.2728 0.36986,1.71947 l 0.4848,0.95133 0.26454,0.334 0.14706,0.13307 0.20934,0.31013 c 0.0215,0.0461 -0.0832,-0.0912 -0.0296,-0.0303 0.0815,0.0992 -0.20174,-0.14053 -0.16,-0.12093 l 0.13186,0.0229 0.45374,0.20187 0.92813,0.28147 0.252,-0.005 0.36667,-0.0107 c 0.0975,-0.012 -0.13654,0.0423 -0.1264,0.0363 l 0.20146,-0.10173 c 0.4064,-0.14907 0.61454,-0.0253 0.6736,-0.0219 l 0.46014,-0.0691 0.94573,-0.0136 0.5852,-0.0479 0.40467,-0.0659 c 0.30666,-0.1136 0.60026,-0.43826 0.85973,-0.83333 l 0.15653,-0.54813 0.31307,-2.2292 0.1736,-1.22614 0.0141,-0.58213 0.0451,-0.5808 0.0429,-0.20213 c 0.0145,-0.0444 -0.24,-0.0944 0.32747,-0.4008 0.3104,-0.1676 0.6976,-0.0657 0.88533,0.23293 0.25574,0.4068 0.10387,0.3272 0.10467,0.35987 v 0.0737 l -0.0764,0.5936 -0.10827,0.7196 -0.22333,1.1796 -0.2672,2.2368 c -0.0447,0.326 -0.10493,0.70013 -0.3356,1.05787 -0.32133,0.4892 -0.76027,1.06053 -1.47507,1.3256 l -0.7324,0.1404 -0.65093,0.0396 -0.84973,-0.0135 -0.6688,0.0743 -0.2504,-0.026 c -0.0331,-0.003 0.17506,-0.0591 0.0841,-0.0239 -0.0807,0.0304 -0.0249,0.0959 -0.3636,0.13733 l -0.48133,0.0207 -0.4436,-0.004 c -0.4796,-0.056 -0.90787,-0.20947 -1.26294,-0.35253 l -0.294,-0.11694 c -0.0176,-0.004 -0.23533,0.1264 -0.60266,-0.27053 l -0.18467,-0.29613 c -0.014,-0.0305 0.13027,0.14 0.0609,0.0724 l -0.22266,-0.2076 -0.37814,-0.4572 -0.60426,-1.18174 c -0.27187,-0.66946 -0.31414,-1.29613 -0.43894,-1.97893 l -0.1216,-0.6064 0.1064,-1.27493 z m 9.6564,-0.37947 c -0.268,-0.25267 -0.2804,-0.67467 -0.0277,-0.94267 0.25267,-0.268 0.67467,-0.2804 0.94267,-0.0277 0.268,0.25267 0.2804,0.67467 0.0277,0.94267 -0.005,0.005 -0.0107,0.0107 -0.0161,0.0165 -0.12507,0.12373 0.154,-0.2348 0.1392,-0.20147 -0.0401,0.0907 0.0325,-0.0937 0.0323,-0.0928 l -0.007,0.0356 c -0.0676,0.35534 -0.4104,0.58854 -0.76574,0.52094 -0.32213,-0.0612 -0.54933,-0.35134 -0.5316,-0.6788 l 0.007,0.048 0.0212,0.0936 0.0385,0.0967 c -0.022,-0.0447 0.2304,0.27467 0.14,0.18947 m -8.0588,2.3552 c 0,0.41667 -0.33773,0.7544 -0.7544,0.7544 -0.41666,0 -0.7544,-0.33773 -0.7544,-0.7544 0,-0.41667 0.33774,-0.7544 0.7544,-0.7544 0.41667,0 0.7544,0.33773 0.7544,0.7544 m -1.40906,0.0901 c -0.0163,-0.36066 0.26293,-0.66626 0.6236,-0.68253 0.34906,-0.0157 0.64866,0.2456 0.68053,0.59347 l 0.0721,0.16666 0.178,0.3144 0.0895,0.16 c 0.076,0.1088 -0.11747,-0.10546 -0.11133,-0.10266 l 0.18293,0.0776 0.2768,0.1392 0.15413,0.0636 c 0.0813,0.0163 -0.24293,0.014 -0.19253,0.003 0.12733,-0.0289 -0.0911,0.0376 -0.0213,-0.0209 0.0197,-0.0175 0.004,-0.3304 0.664,-0.4512 0.31373,-0.0612 0.58826,0.0423 0.79106,0.21933 0.4052,0.32787 0.2988,0.63854 0.29534,0.78014 l -0.0107,0.11466 c 0.0245,0.15067 -0.21173,-0.36826 -0.14533,-0.29333 0.092,0.10387 -0.24707,-0.16213 -0.20747,-0.14747 l -0.0493,-0.0135 0.0957,-0.0176 0.57307,-0.15654 0.46986,0.004 c 0.0959,0.0135 -0.0909,0.036 0.0185,0.0183 0.1788,-0.0135 -0.23227,0.0877 -0.16694,0.0556 0.106,-0.0524 -0.1864,0.1472 -0.1676,0.12547 0.0297,-0.0344 -0.1068,-0.16454 0.4312,-0.3924 l -0.3156,0.25786 c 0.34134,-0.4976 0.85987,-0.2924 0.98894,-0.22106 l 0.29653,0.24133 c 0.2464,0.30387 -0.4284,-0.17867 -0.29293,-0.1456 0.11,0.0269 -0.30147,-0.009 -0.2456,-0.0159 0.0872,-0.0107 -0.1564,0.0408 -0.13894,0.0337 l 0.0933,-0.0588 0.29186,-0.1768 c 0.32054,-0.27494 0.69494,-0.0915 0.8588,-0.0599 l 0.52694,0.19653 c 0.0297,-0.008 -0.5,0.0308 -0.44507,0.008 0.11893,-0.0477 -0.0888,-0.044 0.28533,-0.11733 0.56814,-0.16493 0.9316,0.42613 0.99254,0.71453 0.0307,0.21814 -0.23694,-0.41786 -0.1608,-0.32813 0.0673,0.0796 -0.23587,-0.18707 -0.18414,-0.15613 0.0889,0.0529 -0.2196,-0.0853 -0.18186,-0.0759 0.17853,0.0444 -0.27414,0.0524 -0.15,0.004 l 0.42133,-0.38773 0.40827,-0.30387 0.3948,-0.16293 c 0.0447,-0.0245 -0.17187,0.12933 -0.15,0.1068 l 0.16413,-0.20414 c 0.3596,-0.33293 0.48947,-0.28266 0.52013,-0.30053 l 0.24134,-0.31867 c 0.0395,-0.0713 0.0905,-0.1356 0.15093,-0.19026 l 0.28213,-0.2392 c 0.27627,-0.1928 0.6564,-0.12507 0.8492,0.1512 0.0587,0.0843 0.0952,0.18186 0.10614,0.284 l -0.009,0.4436 c -0.009,0.0803 -0.0332,0.15826 -0.0685,0.23093 -0.13827,0.28453 -0.34013,0.64707 -0.74387,0.92067 l -0.27306,0.15133 c -0.0356,0.0176 0.15826,-0.16413 0.0779,-0.0737 -0.0639,0.0665 -0.0139,0.18813 -0.428,0.4136 l -0.30346,0.13386 -0.35294,0.16774 c -0.0199,0.0244 -0.1732,0.37226 -0.71853,0.59773 l -0.50147,0.09 -0.26293,-0.0264 c -0.12507,-0.028 -0.55813,-0.0368 -0.63307,-0.68227 -0.005,-0.0955 0.11427,0.26094 0.0564,0.1508 -0.032,-0.0608 0.272,0.28387 0.178,0.21107 -0.0984,-0.0764 0.53787,0.1488 0.39134,0.1428 -0.0629,0.004 0.26973,-0.0459 0.2468,-0.0369 -0.0316,0.012 -0.11027,0.22133 -0.6324,0.0631 l -0.37787,-0.0685 -0.25507,-0.0805 0.0673,0.005 c -0.0484,4e-4 0.29546,-0.0884 0.21,-0.0489 l 0.0299,0.0441 -0.30773,0.22133 -0.25827,0.114 c -0.1432,0.0412 -0.4884,0.10907 -0.8004,-0.18786 l -0.2188,-0.31387 0.0693,0.0771 c -0.0267,-0.0257 0.20133,0.1408 0.13293,0.10066 -0.0745,-0.0436 0.4992,0.10134 0.34587,0.0979 l 0.386,-0.10093 c -0.0832,0.0492 0.1796,-0.15787 0.15306,-0.12707 l -0.0279,0.0624 c -0.0704,0.11373 -0.21,0.38707 -0.64334,0.45307 -0.53493,0.0273 -0.43186,-0.0779 -0.53506,-0.0652 l -0.36254,0.14906 -0.6672,0.0835 c -0.25933,-0.0401 -0.80586,-0.12133 -0.89026,-0.79853 l 0.0199,-0.4456 0.0276,0.1216 c -0.0203,-0.0624 0.21427,0.31253 0.13734,0.23026 -0.0309,-0.0293 0.26053,0.15587 0.1952,0.13214 -0.0668,-0.0244 0.33693,0.0107 0.24333,0.0245 -0.12573,0.0185 0.2688,-0.114 0.236,-0.0905 l -0.21853,0.21786 c -0.1304,0.1124 -0.40614,0.43427 -0.9628,0.33 l -0.4148,-0.142 -0.37067,-0.19013 c -0.0408,-0.0212 -0.34787,-0.0537 -0.6052,-0.45787 l -0.15173,-0.30293 -0.18614,-0.45947 -0.15253,-0.57613 z m 4.33546,-6.346 c 0,0.45507 -0.3688,0.82387 -0.82373,0.82387 -0.45507,0 -0.82387,-0.3688 -0.82387,-0.82387 0,-0.45493 0.3688,-0.82373 0.82387,-0.82373 0.45493,0 0.82373,0.3688 0.82373,0.82373 m -3.60386,-0.9464 c 0.0527,-0.38293 0.40573,-0.65066 0.78866,-0.598 0.35387,0.0485 0.6144,0.356 0.60427,0.71307 -0.003,0.074 -0.054,-0.21533 -0.0363,-0.17853 l -0.0141,-0.0269 0.20107,0.18267 0.26346,0.3356 -0.0267,-0.036 c 0.0265,0.0323 -0.2008,-0.15907 -0.13654,-0.11893 0.104,0.07 -0.0943,-0.0369 -0.0825,-0.0355 l 0.8248,-0.0725 0.37987,-0.0421 c 0.45493,-0.008 0.83,0.35467 0.83773,0.80947 0.008,0.45493 -0.35467,0.83013 -0.80947,0.83787 -0.0631,0.001 -0.126,-0.005 -0.18773,-0.0184 l -0.14813,-0.007 c -0.30827,0.0331 -0.90107,0.38147 -1.6772,-0.13587 l -0.3588,-0.42173 c -0.0339,-0.0672 0.0717,0.0769 0.0163,0.008 l -0.2716,-0.48093 c -0.0681,-0.0885 -0.2144,-0.37014 -0.16706,-0.7148 m 1.3812,0.23506 c -0.0331,0.38774 -0.37414,0.67547 -0.762,0.6424 -0.2244,-0.0191 -0.42614,-0.14413 -0.5428,-0.33666 l -0.17214,-0.514 c 0.0261,-0.44214 0.13547,-0.68134 0.32827,-0.86894 0.37413,-0.44746 0.73613,-0.25906 0.82867,-0.25213 l 0.62133,0.15787 0.75813,0.22853 c 0.35694,0.10773 0.95027,0.3584 1.0992,1.01347 0.0972,0.42786 -0.1708,0.8536 -0.59866,0.9508 -0.41694,0.0948 -0.83414,-0.1576 -0.94387,-0.5708 -0.0268,-0.10094 0.162,0.22 0.1376,0.2044 -0.007,-0.004 -0.50693,-0.0491 -1.09587,-0.31814 l -0.22146,-0.10786 -0.014,-0.005 0.1372,-0.007 c -0.0768,0.0133 0.40946,-0.21667 0.2992,-0.1316 -0.0252,0.0295 0.20053,-0.3888 0.19026,-0.30267 l -0.0491,0.21747 z m 0.13493,0.51574 c -0.0217,-0.0729 -0.0304,-0.14907 -0.0259,-0.22494 0.0211,-0.348 0.10787,-0.33693 0.15574,-0.40066 0.0869,-0.11547 0.2068,-0.20187 0.34386,-0.248 l 0.654,-0.14494 c 0.27227,-0.028 0.8448,-0.15106 1.21027,0.55254 0.22093,0.42533 0.0553,0.9492 -0.37,1.17013 -0.42533,0.22093 -0.94933,0.0553 -1.17027,-0.37 -0.0565,-0.10907 -0.0895,-0.2288 -0.0963,-0.35147 -0.007,-0.12293 0.18293,0.44827 0.11826,0.35267 -0.0541,-0.0801 0.20267,0.1936 0.15774,0.16227 -0.0699,-0.0488 0.10026,0.0527 0.0999,0.0527 l -0.42146,-0.0317 c -0.14294,-0.009 -0.27987,-0.0609 -0.39307,-0.1488 -0.0651,-0.0505 -0.1592,-0.0207 -0.2628,-0.36973 m 3.50547,0.78746 c -0.35787,-0.092 -0.57334,-0.4568 -0.4812,-0.81453 0.086,-0.33453 0.41253,-0.54853 0.7536,-0.494 l 0.5388,0.0255 0.50946,0.0107 0.27147,-0.007 0.16413,-0.0483 0.0764,-0.13093 0.0745,-0.21854 0.0403,-0.17773 0.04,-0.22133 c 0.007,-0.0811 0.11227,0.32466 0.0587,0.2256 -0.0543,-0.10014 0.25893,0.22786 0.20053,0.19866 l -0.0139,0.0235 c -0.10507,-0.003 0.0565,-0.0173 -0.0159,0.02 l -0.24413,0.15867 -0.3392,0.28853 -0.24054,0.2296 -0.21413,0.1976 -0.0653,0.0725 -0.18774,0.1764 -0.0583,0.0524 c -0.31587,0.29814 -0.8136,0.284 -1.11187,-0.0319 -0.19413,-0.2056 -0.26293,-0.49974 -0.18013,-0.77027 l 0.0437,-0.1256 0.13653,-0.26613 0.26827,-0.30227 0.25493,-0.22133 0.44467,-0.2788 0.46387,-0.254 0.44306,-0.21094 c 0.12894,-0.0575 0.36387,-0.1532 0.66694,-0.12293 l 0.6168,0.20213 c 0.24986,0.1432 0.43386,0.57414 0.39226,0.86254 l -0.11226,0.4092 -0.0668,0.2192 -0.1456,0.4156 c -0.0812,0.18506 -0.19814,0.42653 -0.462,0.62866 -0.25227,0.19187 -0.52467,0.26414 -0.7556,0.3064 l -0.31454,0.0573 -0.63933,0.0164 -0.81053,-0.1008 z m 0.98613,-0.9476 c 0,0.4164 -0.3376,0.75387 -0.75387,0.75387 -0.4164,0 -0.75386,-0.33747 -0.75386,-0.75387 0,-0.41626 0.33746,-0.75386 0.75386,-0.75386 0.41627,0 0.75387,0.3376 0.75387,0.75386 m -0.28813,0.4924 c -0.15654,0.24107 -0.46787,0.32827 -0.7268,0.20334 -0.007,-0.003 0.22653,0.0543 0.11533,0.0336 -0.35587,-0.0665 -0.5904,-0.40894 -0.52387,-0.7648 0.0665,-0.35587 0.40894,-0.5904 0.7648,-0.524 0.35587,0.0665 0.5904,0.40893 0.52387,0.7648 -0.0548,0.2932 -0.30067,0.5124 -0.59813,0.53346 -0.19627,0.0139 0.38413,-0.16293 0.32066,-0.11586 -0.0603,0.0447 0.15,-0.1704 0.12414,-0.13054 m 0.28733,-0.45946 c -0.0181,0.41586 -0.37,0.7384 -0.786,0.72013 -0.41587,-0.0181 -0.7384,-0.37 -0.72027,-0.786 0.0107,-0.25453 0.15014,-0.48627 0.36947,-0.61587 0.552,-0.32653 0.77453,-0.10906 0.9684,-0.0275 0.2892,0.12186 0.4248,0.45506 0.30293,0.74426 -0.0333,0.0791 -0.0841,0.14947 -0.14853,0.20614 l -0.12133,0.0955 0.064,-0.0845 c -0.0331,0.0575 0.0759,-0.3544 0.0713,-0.25213 m 0.18627,-0.0215 c -0.0456,0.37813 -0.3892,0.6476 -0.76734,0.602 -0.31693,-0.0383 -0.56626,-0.2892 -0.60253,-0.6064 -0.0463,-0.40547 0.16347,-0.72733 0.35413,-0.92733 l 0.6364,-0.4348 0.87454,-0.20174 c 0.30826,-0.0451 0.5948,0.16827 0.63986,0.47667 0.0249,0.1708 -0.0297,0.34373 -0.14826,0.4692 l -0.54254,0.46773 -0.45173,0.28427 -0.0576,0.0415 c -0.0192,0.0251 0.0753,-0.25574 0.0651,-0.17107 m 0.12453,-1.02987 c 0.2524,0.18574 0.30653,0.54107 0.12067,0.79347 -0.0865,0.1176 -0.2152,0.19747 -0.3592,0.22267 -0.0939,0.0164 0.14146,0.26546 -0.51934,-0.0329 -0.0928,-0.0419 -0.17506,-0.10386 -0.24106,-0.18133 -0.26374,-0.30947 -0.17907,-0.66293 -0.10254,-0.8396 l 0.6496,-0.60587 c 0.0745,-0.0432 0.15574,-0.074 0.24014,-0.0912 0.38173,-0.0779 0.75973,-0.20426 1.22786,-0.04 0.294,0.10307 0.4488,0.42507 0.3456,0.71907 -0.0421,0.12013 -0.12373,0.22253 -0.23133,0.2904 l -0.69187,0.44067 c -0.068,0.0531 -0.14413,0.0948 -0.22546,0.12346 l -0.2116,0.0871 -0.16427,0.0811 c -0.0193,0.008 0.21147,-0.15174 0.13547,-0.0871 -0.0777,0.0661 -0.1692,0.11427 -0.26787,0.1408 l 0.10053,-0.0361 c -0.11426,0.0519 0.3956,-0.49894 0.33347,-0.3452 -0.0453,0.11186 0.0292,-0.3916 0.0403,-0.30574 0.0157,0.122 -0.13534,-0.30106 -0.0983,-0.2508 z m 0.21773,0.8192 c -0.28093,0.13747 -0.62013,0.0212 -0.75773,-0.25986 -0.008,-0.016 -0.0149,-0.0324 -0.0212,-0.0492 l 0.003,-0.58774 c 0.0449,-0.13306 0.12893,-0.2496 0.2412,-0.33426 0.4892,-0.36907 1.01466,-0.4204 1.38466,-0.5356 l 0.46467,-0.0544 c 0.3156,-0.0459 0.60867,0.17266 0.65467,0.48826 0.0245,0.1684 -0.0265,0.33907 -0.13947,0.4664 l -0.40533,0.33014 -1.10174,0.4088 c -0.11,0.088 -0.24386,0.1408 -0.3844,0.1512 l 0.0627,-0.0237 z m 0.20627,-0.25213 c -0.26773,-0.0332 -0.47467,-0.25107 -0.49373,-0.52027 l 0.0284,-0.32933 c 0.0387,-0.16893 0.13786,-0.31787 0.27906,-0.41853 0.186,-0.1328 0.44,-0.2652 0.7524,-0.312 0.0873,-0.0133 0.1764,-0.009 0.2624,0.0107 l 0.5356,0.21947 c 0.2672,0.16013 0.354,0.50667 0.19374,0.774 -0.0952,0.1588 -0.2624,0.2608 -0.44734,0.2728 l -0.0743,0.0165 c -0.0757,0.0464 -0.1596,0.0779 -0.24707,0.0929 l -0.13693,0.0668 c -0.13814,0.10466 -0.31,0.1548 -0.4828,0.1412 l -0.16947,-0.0141 z m 1.48107,-0.77533 c 0,0.37786 -0.30627,0.68413 -0.68414,0.68413 -0.37786,0 -0.68413,-0.30627 -0.68413,-0.68413 0,-0.37787 0.30627,-0.68414 0.68413,-0.68414 0.37787,0 0.68414,0.30627 0.68414,0.68414 m -1.1344,0.52053 c -0.0515,-0.0436 -0.0957,-0.0952 -0.13107,-0.15267 l -0.0929,-0.25253 c -0.0637,-0.37253 0.18653,-0.726 0.55893,-0.78973 0.37253,-0.0636 0.726,0.18666 0.78973,0.55906 0.0636,0.3724 -0.18666,0.726 -0.55906,0.7896 -0.0996,0.0171 -0.2016,0.012 -0.29894,-0.0152 z m 0.88493,-0.10947 c -0.25427,0.20907 -0.63,0.1724 -0.83907,-0.0819 -0.20613,-0.25067 -0.17386,-0.62014 0.0725,-0.83134 0.20293,-0.17373 0.7756,-0.39693 1.23933,-0.11986 0.28493,0.17013 0.378,0.53906 0.20787,0.824 -0.17027,0.28493 -0.5392,0.37786 -0.82414,0.20773 z m -0.128,1.24067 c -0.24667,0.2 -0.6088,0.16213 -0.8088,-0.0844 -0.0855,-0.10547 -0.13093,-0.23787 -0.12827,-0.37373 l -0.001,-0.0599 c -0.0187,-0.13173 0.003,-0.266 0.0611,-0.38547 l 0.1752,-0.31613 0.17934,-0.17187 c 0.16866,-0.11106 0.778,-0.0524 0.9396,0.19627 0.40146,0.61787 0.094,0.54427 0.0755,0.6116 l -0.2316,0.58547 c -0.168,0.34413 -0.5832,0.48693 -0.92733,0.31893 -0.34413,-0.16813 -0.48693,-0.5832 -0.31893,-0.92733 0.005,-0.0107 0.0107,-0.022 0.0172,-0.0328 l 0.17,-0.36347 c 0.003,-0.009 -0.0304,0.15253 -0.0152,0.0652 l -0.009,0.0991 c 9.4e-4,-0.0517 0.10334,0.3968 0.0492,0.26386 -0.0275,-0.0675 0.21987,0.29454 0.1468,0.22134 -0.1456,-0.14587 0.664,0.1868 0.51627,0.19586 -0.12813,0.008 0.32107,-0.10186 0.2648,-0.0728 -0.0949,0.0489 0.18413,-0.1404 0.15773,-0.11426 -0.0739,0.0732 0.0629,-0.0756 0.0548,-0.0624 l -0.0601,0.10773 c -0.0628,0.11813 -0.15973,0.21453 -0.27813,0.27667 z m -0.2236,-1.8016 c 0.32347,-0.21493 0.75987,-0.12693 0.9748,0.19653 0.1004,0.15107 0.13853,0.33507 0.10653,0.5136 l -0.18506,0.48187 c -0.0417,0.0937 -0.10174,0.17827 -0.17667,0.2484 l -0.282,0.2632 c -0.28187,0.22173 -0.69013,0.1728 -0.91173,-0.10907 -0.50134,-0.6664 -0.11214,-0.77106 -0.0624,-0.93533 0.03,-0.0987 0.0796,-0.19027 0.14573,-0.26933 z m 0.8132,1.06053 c -0.0305,0.33254 -0.3248,0.57734 -0.65733,0.5468 -0.30614,-0.0281 -0.5424,-0.28146 -0.5492,-0.5888 -0.008,-0.3416 0.31706,-0.8316 0.6292,-0.98346 0.3184,-0.15494 0.70213,-0.0223 0.85706,0.29613 0.15494,0.31853 0.0224,0.70227 -0.29613,0.8572 -0.0191,0.009 -0.0385,0.0176 -0.0585,0.0249 -0.13454,0.0497 0.0781,-0.1872 0.0749,-0.1528 m -4.4368,2.68974 c -0.0271,0.0731 -0.10827,0.1104 -0.18133,0.0833 -0.0695,-0.0257 -0.10734,-0.1008 -0.0865,-0.172 l 0.0508,-0.17707 0.0107,-0.0399 -5.3e-4,0.0283 c -0.005,-0.0876 0.0612,-0.1632 0.1488,-0.16866 0.0877,-0.005 0.1632,0.0612 0.1688,0.1488 0.005,0.0755 -0.0443,0.14373 -0.1172,0.16346 l 0.0637,-0.0348 0.0204,-0.0235 -0.0773,0.192 z m -0.1716,-0.39 c 0.0569,-0.0688 0.15893,-0.0783 0.2276,-0.0213 0.007,0.005 0.0133,0.012 0.0188,0.0184 l 0.0412,0.12254 -0.0771,0.37173 -0.0979,0.33147 -0.1488,0.4708 -0.1676,0.2088 -0.23027,0.007 -0.1288,-0.18306 0.0944,-0.51867 0.12853,-0.3668 c 0.12894,-0.26867 0.3608,-0.4644 0.60307,-0.54613 0.2012,-0.0755 0.42253,0.0735 0.5132,0.22626 l 0.17293,0.49107 0.0796,0.46707 0.0601,0.30306 c 0.0191,0.12387 0.0479,0.2388 -0.0603,0.38427 -0.1268,0.1528 -0.24813,0.0952 -0.28507,0.0821 l -0.34306,-0.1888 0.0677,8e-4 -0.0849,0.0675 -0.23174,0.312 c -0.0149,0.012 -0.0313,0.0215 -0.0487,0.0292 -0.104,0.0463 -0.25827,-0.0279 -0.2968,-0.0825 l -0.07,-0.3128 0.0577,-0.58814 c 0.0535,-0.19986 0.1848,-0.43786 0.42613,-0.42906 0.0917,0.003 0.1632,0.0804 0.15987,0.172 -0.003,0.0836 -0.0679,0.152 -0.15133,0.15933 l -0.0373,0.0701 -0.0412,0.48467 0.0272,0.17893 -0.0296,-0.0347 -0.0467,-0.0337 -0.064,-0.0219 -0.12627,0.0151 -0.0785,0.0575 c 0.012,-0.0144 0.0267,-0.0272 0.0421,-0.0381 l 0.22373,-0.292 c 0.0589,-0.0515 0.15627,-0.22614 0.41534,-0.16614 l 0.30613,0.14427 0.084,0.0503 -0.0825,-0.012 -0.0833,0.0201 -0.0963,0.0813 -0.0156,0.0329 -0.004,-0.0707 -0.0564,-0.30373 -0.0723,-0.44174 -0.1048,-0.37173 0.004,-0.0397 -0.35093,0.32653 -0.10467,0.30173 -0.0828,0.33614 -0.0133,-0.0404 -0.0512,-0.0631 -0.0783,-0.0356 -0.102,0.0107 -0.0329,0.022 0.0133,-0.0233 0.14547,-0.43013 0.1104,-0.31933 0.0843,-0.2252 0.0707,-0.15654 z m -0.0323,0.96626 c 0.0409,-0.0792 0.13854,-0.11026 0.21774,-0.0693 0.0552,0.0285 0.0892,0.0861 0.0873,0.14827 -0.003,0.1068 -0.0795,0.18013 -0.17213,0.17786 -0.0925,-0.003 -0.16587,-0.0791 -0.1636,-0.17173 0.003,-0.0925 0.0791,-0.16587 0.1716,-0.16373 0.0287,8e-4 0.0565,0.008 0.0812,0.0232 l -0.0864,-0.0231 -0.0829,0.0237 -0.0412,0.0368 -0.012,0.018 z m 0.30454,0.0969 c -0.003,0.0607 -0.0377,0.11506 -0.0917,0.14293 l -0.18746,-0.0192 c -0.142,-0.11267 -0.0855,-0.15813 -0.0957,-0.22733 l -0.024,-0.23947 0.0144,-0.34333 0.0537,-0.17014 0.14373,-0.10373 0.23747,0.0715 c 0.18853,0.26813 0.0791,0.4608 0.0683,0.61973 l -0.14933,0.45013 -0.27387,-0.4296 -0.0729,0.0335 -0.0673,0.0664 -0.0244,0.0495 0.0529,-0.31227 0.1208,-0.25893 c 0.0507,-0.0729 0.0839,-0.15627 0.25,-0.188 l 0.2388,0.3872 0.0428,-0.0884 0.007,-0.0468 0.0196,0.35133 0.004,0.16987 0.003,0.0325 -0.007,-0.0261 -0.0231,-0.0489 -0.0355,-0.0465 -0.092,-0.0641 c 0.14334,0.0617 0.20947,0.228 0.14774,0.3712 -0.0617,0.14333 -0.228,0.20933 -0.3712,0.1476 -0.0451,-0.0193 -0.0843,-0.0501 -0.11374,-0.0892 l -0.0633,-0.25027 0.0767,-0.31827 0.11866,-0.2412 0.2436,-0.1588 -0.0725,0.0216 c 0.14067,-0.0652 0.27787,0.0263 0.3148,0.0701 l 0.0692,0.16626 -0.007,0.39454 0.0219,0.29946 c 0.0288,0.15147 -0.0708,0.29747 -0.22227,0.32627 -0.15146,0.0287 -0.29746,-0.0709 -0.32626,-0.2224 -9.4e-4,-0.005 -0.001,-0.0107 -0.003,-0.0164 l 0.0211,-0.20467 0.0208,-0.25786 c 0.0133,-0.1236 -0.0379,-0.19707 0.10773,-0.35827 0.0488,-0.0541 0.23093,-0.11933 0.3408,-0.0379 l 0.0997,0.14947 0.0304,0.1052 c 0.0315,0.11787 -0.0387,0.2388 -0.15653,0.27027 -0.10413,0.0279 -0.2132,-0.0237 -0.25787,-0.12187 l -0.0199,-0.0392 0.0144,0.0157 0.0376,0.028 0.0863,0.0277 0.14147,-0.0293 0.0925,-0.0948 0.022,-0.0592 0.005,-0.036 0.0143,0.15547 -0.0264,0.36747 -0.0161,0.0937 -0.003,0.0168 v -0.0589 l -0.556,0.0472 4e-4,-0.45814 0.0143,-0.18946 -0.003,-0.0469 0.004,0.016 0.0227,0.0533 0.0601,0.0711 0.0788,0.0447 0.11614,0.0136 0.0783,-0.0209 0.0457,-0.0276 -0.009,0.0387 -0.052,0.20854 -0.008,0.0403 -0.003,-0.0325 -0.0133,-0.0453 -0.0412,-0.068 -0.49386,0.23013 0.001,-0.1568 0.0159,-0.19053 0.007,-0.2112 0.003,-0.1064 0.007,-0.0592 0.0207,-0.0643 0.0577,-0.0788 c 0.0425,-0.0388 0.16293,-0.0971 0.27893,-0.036 0.11894,0.0628 0.1644,0.21 0.10174,0.32893 -0.0303,0.0576 -0.0824,0.10054 -0.14467,0.11947 l 0.0524,-0.0253 -0.0133,0.0255 -0.04,0.10094 -0.0159,0.1768 -0.009,0.1096 c -0.005,0.0409 0.0467,0.1184 -0.1376,0.23293 -0.1248,0.0777 -0.28907,0.0395 -0.3668,-0.0855 -0.0776,-0.12493 -0.0393,-0.28906 0.0856,-0.3668 0.0447,-0.0279 0.0967,-0.0417 0.14933,-0.04 l -0.0697,0.007 -0.0641,0.0257 -0.036,0.0265 0.0448,-0.1216 0.0247,-0.23934 10e-4,-0.0801 0.012,0.0211 0.0299,0.0365 0.086,0.0513 0.0871,0.007 0.0943,-0.0388 0.0416,-0.0487 -0.005,0.25667 -0.0224,0.35427 z m 5.73613,-8.70094 c 0.0323,-0.3296 0.32547,-0.5708 0.6552,-0.53866 0.27627,0.0269 0.498,0.23986 0.536,0.51493 l 0.0296,0.17853 -0.009,-0.0283 -0.0425,-0.0849 -0.0632,-0.0861 c 0.0337,0.0387 -0.34426,-0.228 -0.2056,-0.15893 0.33427,0.16666 0.47027,0.5728 0.3036,0.90706 -0.16666,0.33427 -0.5728,0.47014 -0.90706,0.30347 -0.33427,-0.16653 -0.47014,-0.57267 -0.30347,-0.90693 0.0835,-0.1676 0.2328,-0.29307 0.4124,-0.34654 0.1624,-0.0484 -0.30147,0.18414 -0.25653,0.1436 0.0761,-0.0687 -0.14414,0.18774 -0.12374,0.1524 0.0587,-0.10226 -0.0469,0.11214 -0.0439,0.0965 l 0.0192,-0.14614 z m 0.99787,0.97174 c -0.176,0.1248 -0.39987,0.16093 -0.60627,0.0977 -0.59253,-0.18147 -0.4192,-0.34013 -0.45027,-0.41133 l -0.0983,-0.43787 c 0.11773,-0.7908 0.35106,-0.78293 0.43466,-0.87827 l 0.57787,-0.52693 0.4584,-0.3484 0.81613,-0.62947 0.30014,-0.2188 0.49253,-0.40266 c 0.31573,-0.17934 0.71707,-0.0687 0.8964,0.24706 0.1704,0.30014 0.0799,0.68067 -0.20733,0.872 l -0.32974,0.32427 -0.26986,0.22987 -0.884,0.68893 -0.3824,0.2992 -0.3128,0.3696 -0.1452,0.19253 0.0107,-0.0223 c -0.0173,0.0361 0.0555,-0.3908 0.0543,-0.2496 l -0.0548,0.3124 -0.0252,0.0984 c -0.0148,0.0491 0.15373,0.0891 -0.27533,0.3936 m 2.38586,-2.5524 c -0.34453,0.0701 -0.68066,-0.15227 -0.75093,-0.4968 -0.0701,-0.34467 0.15227,-0.6808 0.4968,-0.75107 0.34453,-0.0701 0.6808,0.15227 0.75093,0.4968 0.0407,0.1996 -0.0165,0.40653 -0.154,0.5568 -0.0739,0.0808 0.10894,-0.16413 0.0959,-0.13827 -0.0624,0.12307 0.0261,-0.0497 -0.004,0.0207 -0.1284,0.30013 -0.47587,0.43933 -0.776,0.31093 -0.12613,-0.0539 -0.2296,-0.15 -0.29253,-0.27186 l 0.0953,0.12533 0.12573,0.0899 0.12987,0.0503 c -0.0603,-0.0156 0.43493,-0.0237 0.28293,0.008 m -2.22733,4.41734 c -0.32013,-0.0452 -0.54293,-0.34134 -0.49787,-0.66134 0.0339,-0.2396 0.21147,-0.4336 0.44707,-0.4884 0.0829,-0.0192 -0.1436,0.0677 -0.1312,0.0581 l 0.17507,-0.2388 c 0.8976,-1.15667 1.75093,-2.05347 2.57413,-2.63574 0.31093,-0.21986 0.7412,-0.14613 0.96107,0.16467 0.22,0.31093 0.14613,0.7412 -0.16467,0.9612 -0.004,0.003 -0.008,0.005 -0.0133,0.009 -0.6572,0.44294 -1.4636,1.24374 -2.28787,2.27134 -0.24307,0.25613 -0.4436,0.64746 -1.06293,0.56013 m 4.6052,-5.33973 c 0,0.3604 -0.292,0.6524 -0.65227,0.6524 -0.3604,0 -0.6524,-0.292 -0.6524,-0.6524 0,-0.36027 0.292,-0.6524 0.6524,-0.6524 0.36027,0 0.65227,0.29213 0.65227,0.6524 m -2.2212,-0.66694 c 0.31146,0.008 0.5572,0.26774 0.5488,0.57934 -0.007,0.25813 -0.1884,0.47853 -0.4404,0.5352 -0.45334,0.10173 -1.0224,-0.20934 -1.18174,-0.64054 -0.0864,-0.3808 -0.0433,-0.6404 0.0379,-0.8724 0.128,-0.34226 0.336,-0.55653 0.5188,-0.71306 l 0.54667,-0.31694 c 0.46826,-0.19533 1.0232,-0.33493 1.5984,-0.19613 l 0.506,0.23987 c 0.5292,0.34706 0.42053,0.91893 0.40333,1.252 l -0.0881,0.638 c -0.0691,0.27933 -0.21974,0.3948 -0.2364,0.42253 l -0.24534,0.25027 0.0209,-0.0164 0.088,-0.0875 c -0.0436,0.0531 0.1592,-0.41293 0.1312,-0.2764 -0.0723,0.35293 -0.41694,0.58053 -0.77,0.50827 -0.35294,-0.0723 -0.58054,-0.41707 -0.50827,-0.77 0.009,-0.0425 0.0216,-0.084 0.0385,-0.124 0.18987,-0.44734 0.30934,-0.3344 0.3132,-0.33654 0.007,-0.004 -0.16866,0.15934 -0.11173,0.094 l 0.16173,-0.1336 0.003,-0.2404 -4e-4,-0.3076 c -0.007,-0.0467 0.18893,0.1524 0.0889,0.0835 l -0.0243,0.0191 -0.82627,0.16306 -0.22267,0.118 -0.1316,0.16374 -0.0236,0.0861 -0.1944,-0.12147 z m 1.58546,1.3192 c -0.35986,0.009 -0.65893,-0.27546 -0.66786,-0.63533 -0.009,-0.35987 0.27533,-0.65893 0.6352,-0.668 0.28253,-0.007 0.53733,0.16867 0.6312,0.4352 0.0353,0.10027 -0.1564,-0.2504 -0.1184,-0.20587 0.0687,0.0807 -0.19947,-0.15906 -0.1604,-0.13573 0.12666,0.0757 -0.20787,-0.0789 -0.1832,-0.0735 l 0.16133,-0.004 0.39253,0.0245 c 0.16134,0.0289 0.47227,0.0912 0.61507,0.46973 0.0251,0.0437 -0.0868,-0.14173 -0.0453,-0.1068 l 0.23213,0.20613 0.0148,0.0188 c 0.31093,0.21307 0.36293,0.48507 0.38813,0.6396 0.13334,0.32107 -0.0923,0.6388 -0.24773,0.8276 -0.76987,0.69854 -1.71867,0.84814 -2.49213,0.42494 -0.29254,-0.16014 -0.4,-0.52707 -0.24,-0.8196 0.1524,-0.27854 0.49453,-0.39147 0.7828,-0.2584 0.0293,0.0135 0.8788,-0.0991 0.99626,-0.2156 l 0.0853,-0.0693 c 0.0172,-0.0231 -0.0577,0.35387 -0.0617,0.22374 l 0.0247,0.13586 c -0.0152,-0.0287 0.19813,0.1724 0.1252,0.128 l -0.23133,-0.19453 c -0.0585,-0.0584 -0.23827,-0.0811 -0.43,-0.4484 -0.0552,-0.0784 0.34613,0.2716 0.288,0.25293 -0.12427,-0.04 0.0175,0.0133 -0.0968,0.0268 l -0.39774,0.0215 z m -19.7944,2.35854 c -0.12746,-0.28427 -2.6e-4,-0.61814 0.284,-0.7456 0.28414,-0.12747 0.61774,-6.7e-4 0.74547,0.28346 0.2604,0.57947 1.58467,1.89707 2.07973,2.34534 0.23147,0.20946 0.2492,0.56693 0.0396,0.7984 -0.20946,0.23133 -0.56693,0.2492 -0.79826,0.0396 -0.54934,-0.49854 -1.87667,-1.66454 -2.35054,-2.7212 m 2.03307,-2.09214 c 0.112,0.2912 -0.0333,0.618 -0.32467,0.73 -0.10786,0.0415 -0.226,0.0488 -0.33826,0.0211 l 0.0971,0.0144 c -0.0488,-0.003 0.38534,-0.10027 0.24814,-0.0429 -0.2928,0.12226 -0.6292,-0.016 -0.75147,-0.3088 -0.12213,-0.2928 0.0161,-0.62907 0.3088,-0.75134 0.2928,-0.12226 0.6292,0.016 0.75147,0.3088 0.0444,0.1064 0.0557,0.22374 0.0325,0.33667 -0.0275,0.13373 -0.008,-0.268 2.7e-4,-0.226 z m -1.08987,-0.0389 c 0.0727,-0.1712 0.22107,-0.2988 0.4012,-0.34507 0.45147,-0.11586 0.40347,0.0312 0.45987,0.0601 l 0.37467,0.2668 c 0.71973,0.84293 1.54466,2.1612 1.5988,2.1972 0.28906,0.19253 0.3672,0.5828 0.1748,0.87173 -0.17747,0.26653 -0.5268,0.35707 -0.81134,0.21027 -0.51706,-0.26654 -0.66173,-0.656 -0.9912,-1.10507 l -0.914,-1.1912 -0.21426,-0.32253 -0.0685,-0.13507 c -0.026,-0.0611 -0.20906,-0.038 -0.009,-0.5072 m -0.91347,1.4104 c 0.33574,0.012 0.59787,0.29453 0.5856,0.63027 -0.003,0.0663 -0.0157,0.13173 -0.0393,0.19373 l -0.0989,0.21373 c -0.0671,0.12374 -0.16934,0.2248 -0.29387,0.29027 l -0.68173,0.28427 c 0.0241,-0.008 -0.0997,0.1544 -0.52027,0.19253 -0.76347,-0.0187 -1.05707,-0.51133 -1.23747,-0.89187 l -0.1892,-0.75106 c -0.0187,-0.34294 0.1348,-0.62654 0.2804,-0.8144 l 0.64,-0.4852 -0.0509,0.036 0.2096,-0.18507 c 0.2028,-0.154 0.47053,-0.2184 0.72613,-0.2212 l 0.42347,0.0563 0.10307,0.0303 c 0.008,10e-4 -0.23067,-10e-4 -0.14694,-0.009 -0.0685,-9.3e-4 -0.55053,0.448 -0.47653,0.31107 0.0711,-0.1316 -0.0561,0.446 -0.0672,0.35733 -0.0188,-0.1512 0.10013,0.26587 0.0796,0.23147 -0.06,-0.10014 0.0981,0.12066 0.0861,0.10933 l -0.0324,-0.012 c -0.49,-0.2084 -0.41506,-0.5112 -0.43146,-0.64773 l -0.0164,-0.306 c 0.004,-0.38227 0.1376,-0.64467 0.24666,-0.85054 l 0.40667,-0.5532 0.18987,-0.2276 c 0.31573,-0.31866 0.62426,-0.198 0.7076,-0.18693 l 0.5476,0.1076 c 0.5072,0.2212 0.7432,0.63987 0.87426,0.77493 0.21774,0.22427 0.2124,0.5828 -0.012,0.80054 -0.22426,0.21773 -0.5828,0.2124 -0.80053,-0.012 l -0.52,-0.52907 -0.23293,-0.012 -0.0372,-0.007 c -0.0428,10e-4 0.38613,-0.2392 0.278,-0.12973 l -0.1728,0.21827 -0.14854,0.27573 -0.0963,0.286 0.005,0.21733 -0.0107,-0.0343 -0.0595,-0.11574 c 0.0395,0.0568 -0.3248,-0.2336 -0.2168,-0.18253 l 0.32946,0.22013 0.13414,0.1612 0.0899,0.25107 c 0.012,0.0925 0.0345,0.26467 -0.14,0.46813 -0.18933,0.22067 -0.53053,0.21654 -0.646,0.17774 -0.30706,0.004 -0.17826,-0.0693 -0.21066,-0.0681 l -0.0231,0.009 0.0701,-0.0744 -0.1696,0.24173 -0.2568,0.266 c -0.0448,0.074 -0.0373,-0.16133 -0.024,-0.0672 l 0.0899,0.18827 0.0939,0.16026 -0.0537,-0.0357 c 0.04,0.0204 -0.2552,-0.0459 -0.17973,-0.0439 0.18947,0.022 -0.0716,0.0133 -0.0591,0.009 l 0.2112,-0.0647 0.4352,-0.18387 c 0.12654,-0.0665 0.27,-0.0933 0.412,-0.0771 l 0.0965,0.008 z m 12.1396,16.218 c -0.2828,0.1308 -0.61813,0.008 -0.7488,-0.27547 -0.12973,-0.28093 -0.009,-0.61386 0.2704,-0.7464 l 0.39414,-0.3336 c 0.17613,-0.26053 0.52986,-0.32893 0.7904,-0.15293 0.26053,0.176 0.32893,0.52987 0.15293,0.79027 -0.17667,0.25253 -0.45253,0.5304 -0.85907,0.71813 m -0.128,-0.6316 c 0.14707,0.27773 0.0411,0.622 -0.23666,0.76907 -0.27774,0.14706 -0.62214,0.0411 -0.76907,-0.23667 -0.0508,-0.0959 0.34787,0.27893 0.24773,0.23333 -0.14226,-0.0649 0.3676,0.0247 0.308,0.0371 l 0.0955,-0.0331 c -0.0292,0.0152 0.0807,-0.1096 0.0161,-0.0299 -0.19773,0.24426 -0.55613,0.28186 -0.80026,0.0841 -0.24427,-0.19773 -0.282,-0.556 -0.0843,-0.80027 l 0.3412,-0.26253 c 0.1436,-0.0756 0.63453,-0.22813 0.88173,0.2388 m -1.30653,0.60547 c -0.0784,-0.18574 -0.0537,-0.39894 0.0651,-0.56187 0.31293,-0.4288 0.3392,-0.22587 0.37693,-0.23373 l 0.0972,-0.0195 0.7556,-0.51227 c 0.11107,-0.29106 0.43707,-0.4372 0.72813,-0.32613 0.26894,0.10253 0.41747,0.39093 0.34507,0.66933 -0.19547,0.75054 -0.80427,1.1416 -1.37253,1.3384 l -0.48974,0.0183 -0.15786,-0.0449 c -0.0595,-0.0231 -0.1472,0.14733 -0.34787,-0.3276 m 1.9244,-0.3012 c -0.2072,0.23266 -0.56373,0.25333 -0.79653,0.0461 -0.2312,-0.20587 -0.25334,-0.5596 -0.0495,-0.79267 0.30227,-0.34586 0.5416,-0.77306 0.59453,-1.0052 0.0701,-0.30773 0.3764,-0.50026 0.684,-0.43013 0.30774,0.0701 0.50027,0.3764 0.43014,0.684 -0.13054,0.54107 -0.462,1.04787 -0.86267,1.49787 m -9.512,-4.51467 c 0.21267,-0.22773 0.5696,-0.24 0.79747,-0.0275 0.22773,0.21267 0.24,0.56974 0.0273,0.79747 l -0.33933,0.3816 -0.34747,0.2776 -0.172,0.1496 -0.71147,-0.87587 0.34867,-0.30826 c 0.1912,-0.1628 0.12893,-0.40014 0.75853,-0.44147 0.31094,-0.0204 0.57947,0.21507 0.59987,0.526 0.0204,0.31093 -0.21507,0.5796 -0.526,0.6 -0.0952,0.007 0.18027,-0.0463 0.15707,-0.0363 l -0.62694,0.536 c -0.242,0.1964 -0.59733,0.1596 -0.7936,-0.0824 -0.1964,-0.24173 -0.1596,-0.59693 0.0821,-0.79333 l 0.23826,-0.1996 0.17494,-0.12933 z m 0.10133,-0.0987 c 0.17054,-0.2608 0.52027,-0.334 0.78107,-0.16346 0.26067,0.17053 0.33387,0.52026 0.16333,0.78106 -0.7084,1.08334 -1.54506,1.6384 -2.13106,2.42907 -0.18547,0.25027 -0.5388,0.3028 -0.7892,0.11733 -0.25027,-0.1856 -0.3028,-0.53893 -0.11734,-0.7892 0.71187,-0.9604 1.5112,-1.4848 2.0932,-2.3748 m 0.9172,2.47414 c -0.29546,-0.0989 -0.4548,-0.41867 -0.35586,-0.71414 0.0847,-0.2528 0.3348,-0.41186 0.59973,-0.3812 0.14413,0.0167 0.43653,0.13534 0.53493,0.41454 0.25174,0.71413 -0.18533,0.75933 -0.314,0.90786 l -0.21213,0.23547 -0.196,0.17467 -0.36,0.2792 -0.3348,0.3008 -0.2184,0.25493 -0.0889,0.11213 c -0.18187,0.25574 -0.53667,0.31547 -0.7924,0.1336 -0.25534,-0.18173 -0.31534,-0.53586 -0.13427,-0.79146 l 0.11813,-0.15187 0.33934,-0.38467 0.388,-0.3412 0.24493,-0.264 0.10813,-0.1264 0.24827,-0.26333 0.16867,-0.15907 -0.0341,0.0571 -0.0428,0.1388 c 0.0164,-0.1068 0.18427,0.51027 0.0975,0.3928 -0.0831,-0.11253 0.29267,0.19453 0.23613,0.17547 m -2.40266,-0.27254 c 0.2484,0.18934 0.29626,0.5444 0.1068,0.7928 -0.1768,0.232 -0.5012,0.29147 -0.7488,0.1372 -0.0935,-0.0581 0.0951,0.034 0.0333,0.034 l -0.3268,0.0252 -0.296,0.009 -0.10733,0.0475 -0.0633,0.2468 -0.0349,0.2592 -0.0459,0.2804 0.0133,0.0428 c 0.0361,0.0631 -0.15534,-0.154 -0.12067,-0.13106 l 0.0688,-0.004 0.45067,0.0528 0.3884,0.0205 c 0.13613,-0.0375 -0.28107,0.22453 -0.24867,0.1748 l -0.0372,0.0825 c 0.0712,-0.304 0.37533,-0.49266 0.67933,-0.4216 0.304,0.0712 0.49267,0.37534 0.4216,0.67934 -0.0267,0.10813 0.0133,-0.17707 0.014,-0.15347 l -0.003,0.3952 0.0425,0.10707 0.05,0.0763 0.0189,0.003 0.18694,0.0147 0.1216,-0.23574 0.068,-0.49746 c -0.0641,-0.30494 0.13093,-0.60414 0.43573,-0.6684 0.30493,-0.0643 0.60427,0.13093 0.6684,0.43573 0.0679,0.32213 0.0327,0.662 -0.0961,1.06987 -0.1328,0.42106 -0.47374,0.96946 -1.1064,1.02066 l -0.53814,-0.0413 c -0.22306,-0.0524 -0.45853,-0.17587 -0.62693,-0.37773 l -0.27267,-0.5052 -0.0743,-0.53014 0.005,-0.1256 c -0.001,-0.0147 -0.0964,0.22694 0.003,-0.2352 l 1.10306,0.24774 c -0.04,0.1708 -0.12053,0.46653 -0.5172,0.5756 -0.33493,0.0928 -0.5524,0.0251 -0.7156,0.0212 l -0.6024,-0.0661 c -0.14906,-0.0248 -0.50426,0.0133 -0.75106,-0.42613 l -0.15587,-0.56293 0.005,-0.36827 0.0256,-0.38293 c 0.0547,-0.3568 0.16627,-0.84227 0.64027,-1.1148 l 0.5564,-0.1924 0.35773,0.009 c 0.2884,-0.0169 0.6172,-0.13093 1.02467,0.1796 m 11.492,1.49227 c -0.1496,-0.27334 -0.0493,-0.61627 0.224,-0.76587 0.27333,-0.1496 0.61613,-0.0493 0.76587,0.224 l 0.15786,0.2328 0.15467,0.19387 0.15587,0.1696 0.3132,0.32826 0.20373,0.20334 -0.012,-0.0107 c 0.2332,0.20653 0.2548,0.5632 0.0481,0.7964 -0.20653,0.2332 -0.5632,0.2548 -0.7964,0.0481 l -0.012,-0.0107 -0.23586,-0.23454 -0.32374,-0.33933 -0.1948,-0.21227 -0.19493,-0.24333 -0.2536,-0.3792 z m 2.01773,0.6304 c 0.2028,0.23666 0.1752,0.5928 -0.0615,0.79546 -0.23667,0.20267 -0.5928,0.1752 -0.79547,-0.0615 l -0.40067,-0.4004 c -0.23893,-0.2 -0.27026,-0.55587 -0.0701,-0.7948 0.2,-0.2388 0.55587,-0.27014 0.7948,-0.0701 z m -1.75053,-2.82814 c -0.012,-0.31146 0.23013,-0.57373 0.54147,-0.58613 0.1796,-0.007 0.352,0.0719 0.46386,0.21267 0.0653,0.0821 -0.0663,-0.0668 -0.0531,-0.0573 l 0.37746,0.23854 c 0.74747,0.58533 0.95694,1.17386 1.3348,1.72706 0.17667,0.2588 0.11027,0.612 -0.14866,0.78867 -0.24947,0.1704 -0.58867,0.11547 -0.7716,-0.12493 -0.4816,-0.63267 -0.6372,-1.014 -1.10734,-1.3472 l -0.33346,-0.29547 c -0.0956,-0.0925 -0.28414,-0.0677 -0.30347,-0.55587 m 0.82947,3.53294 c 0.007,-0.3116 0.26413,-0.55894 0.57573,-0.55254 0.28267,0.005 0.51747,0.22014 0.54893,0.50107 l 0.0328,0.47107 0.008,0.0133 0.1748,0.22147 0.15907,0.16186 c 0.0933,0.0613 -0.0716,-0.0279 0.0232,-0.0379 l 0.0488,-0.0272 0.22813,-0.11067 0.0707,-0.0663 c 0.0149,-0.0828 -0.0299,0.0915 -0.0513,0.0585 -0.0396,-0.0609 -0.068,-0.12854 -0.0836,-0.1996 -0.0353,-0.15974 0.198,0.30626 0.1628,0.2764 -0.0249,-0.0187 -0.15454,0.10026 -0.22867,-0.37854 -0.0485,-0.31386 0.16667,-0.60773 0.48053,-0.65626 0.12174,-0.0189 0.24627,0.001 0.35534,0.0591 l 0.15733,0.0649 0.1176,0.0437 c 0.10133,0.0208 -0.0503,10e-4 -0.0133,-0.0213 l 0.0483,-0.55627 5.4e-4,-0.3052 -0.12214,-0.15507 -0.15746,-0.0647 0.10213,0.004 -0.1316,0.11786 c -0.28227,0.31694 -0.768,0.34534 -1.08493,0.0631 -0.31707,-0.28213 -0.34534,-0.76787 -0.0632,-1.0848 0.0419,-0.0471 0.0893,-0.0888 0.14133,-0.12427 0.27773,-0.1892 0.79813,-0.50973 1.41,-0.26986 l 0.64667,0.412 c 0.21026,0.2028 0.3756,0.4724 0.44693,0.77706 0.0772,0.30147 0.0279,0.54267 0.0137,0.7024 -0.0404,0.43507 -0.0407,1.0872 -0.66106,1.45387 -0.16734,0.11107 -0.42787,0.24147 -0.7812,0.17773 l -0.374,-0.12973 -0.15827,-0.0545 -0.12347,-1.02014 c 0.42094,-0.27973 0.366,-0.106 0.47094,-0.0859 0.11133,0.0213 0.27786,0.0721 0.41853,0.25626 0.0436,0.0573 0.0768,0.12187 0.0979,0.1908 0.0172,0.0565 0.20146,0.37787 0.0367,0.81454 -0.0679,0.25226 -0.2576,0.47093 -0.46613,0.624 l -0.408,0.2088 -0.39093,0.14693 c -0.172,0.0295 -0.45894,0.0925 -0.7964,-0.1012 l -0.34694,-0.27653 -0.38866,-0.4584 -0.18307,-0.48454 0.0373,-0.59866 z m -4.47623,-43.24785 c 0,0.5232 -0.42413,0.94747 -0.94746,0.94747 -0.52334,0 -0.94747,-0.42427 -0.94747,-0.94747 0,-0.52333 0.42413,-0.94747 0.94747,-0.94747 0.52333,0 0.94746,0.42414 0.94746,0.94747 m -1.52893,-5.8372 c 0.003,-0.46933 0.3856,-0.84733 0.8548,-0.8444 0.45373,0.003 0.82507,0.36147 0.84373,0.81467 l -0.0435,2.1 -0.0744,1.12666 -0.0107,0.52347 10e-4,0.27827 -10e-4,0.83106 -0.009,0.28654 -0.0235,0.28973 -0.012,0.154 0.007,-0.0507 0.004,0.11854 -0.005,0.1656 -0.003,0.0729 c -0.0163,0.52307 -0.45334,0.934 -0.9764,0.91787 -0.52294,-0.0163 -0.93387,-0.45334 -0.91774,-0.9764 8e-4,-0.0261 0.003,-0.0523 0.005,-0.0783 l 0.012,-0.0976 0.008,-0.0799 0.0317,-0.1728 0.0281,-0.11533 -0.007,-0.0308 0.0165,-0.21827 0.0199,-0.25706 0.0257,-0.7752 10e-4,-0.25814 -0.0107,-0.5828 0.0956,-1.17773 0.13813,-1.964 z m 1.21547,9.86627 c 0.29573,0.3204 0.2756,0.81986 -0.0448,1.11546 -0.114,0.1052 -0.25654,0.17454 -0.40987,0.1992 -0.6276,0.10107 -0.94853,-0.29946 -1.13787,-0.59346 l -0.23173,-0.59147 c -0.0475,-0.2892 0.0303,-0.58493 0.21347,-0.81347 0.13973,-0.1744 0.35853,-0.35133 0.6532,-0.41933 0.97746,-0.0952 1.0164,0.25067 1.19746,0.52213 l -0.18906,-0.19933 c 0.44466,0.3316 0.38466,0.59773 0.40546,0.6704 0.0196,0.0795 0.0961,0.14467 0.0619,0.46227 l -0.12067,-0.4884 c 0.1944,0.28906 0.22854,0.62333 0.15307,0.946 -0.0247,0.10586 -0.0684,0.2064 -0.1292,0.29653 -0.1868,0.27747 -0.42,0.39133 -0.59347,0.45933 l 0.43507,-0.35653 -0.144,0.19027 c -0.12587,0.1648 -0.29707,0.28933 -0.49267,0.35826 -0.36186,0.12747 -0.89933,0.12014 -1.31746,-0.20426 -0.166,-0.12867 -0.2936,-0.30027 -0.36907,-0.49627 l -0.0857,-0.71013 0.12293,-0.48814 c 0.0341,-0.0789 0.0773,-0.1536 0.12893,-0.22226 l 0.52627,-0.43494 c 0.51667,-0.24306 1.1324,-0.0213 1.3756,0.4952 0.12587,0.2676 0.1312,0.5764 0.0144,0.84814 -0.0501,0.1168 0.0535,-0.36707 0.056,-0.28694 0.003,0.0841 -0.004,0.16827 -0.0208,0.25094 -0.0152,0.076 -0.0183,-0.33547 -2.7e-4,-0.24227 0.005,6.7e-4 -0.38893,-0.59187 -0.24946,-0.4596 0.15133,0.14347 0.26093,0.32547 0.31693,0.5264 0.0435,0.15573 -0.39747,-0.54587 -0.26813,-0.43093 0.12746,0.11346 -0.5232,-0.21894 -0.4,-0.19734 0.20373,0.0357 0.39253,0.13 0.5436,0.27134 0.0964,0.0901 -0.15667,-0.1064 -0.1364,-0.0975 l -0.56747,-0.0561 -0.0787,0.0279 c 0.0456,-0.0212 -0.25173,0.20307 -0.1816,0.13094 0.0751,-0.0773 0.16347,-0.1404 0.26107,-0.18627 0.0963,-0.0453 -0.21933,0.26947 -0.17827,0.17773 l -0.036,0.5016 c -0.0317,-0.11106 0.0952,0.188 0.0876,0.1784 l -0.0919,-0.11973 -0.0648,-0.10827 0.0684,0.0752 c -0.0448,-0.0405 0.32466,0.1652 0.22093,0.12907 l 0.27707,0.0448 c -0.0107,1.3e-4 0.2652,-0.0821 0.15533,-0.0376 -0.0629,0.0255 0.3468,-0.268 0.24933,-0.1692 -0.10386,0.10533 0.26574,-0.65453 0.23534,-0.46787 -0.0835,0.29907 -0.0139,-0.2636 -0.004,-0.19746 0.0456,0.2904 -0.0347,0.5864 -0.22054,0.814 -0.1104,0.1352 0.14267,-0.36387 0.134,-0.29214 l -10e-4,-0.0956 -0.0251,-0.0735 c 0.0168,0.0377 -0.16293,-0.21947 -0.1036,-0.1552" />
  </g>
</svg>
