<?xml version="1.0" encoding="UTF-8" standalone="no"?>
<!-- Created with Inkscape (http://www.inkscape.org/) -->

<svg
   version="1.1"
   id="svg1"
   width="104.1051"
   height="93.521912"
   viewBox="0 0 104.1051 93.521912"
   sodipodi:docname="crash.svg"
   inkscape:version="1.3.2 (091e20e, 2023-11-25)"
   xmlns:inkscape="http://www.inkscape.org/namespaces/inkscape"
   xmlns:sodipodi="http://sodipodi.sourceforge.net/DTD/sodipodi-0.dtd"
   xmlns="http://www.w3.org/2000/svg"
   xmlns:svg="http://www.w3.org/2000/svg">
  <sodipodi:namedview
     id="namedview1"
     pagecolor="#ffffff"
     bordercolor="#000000"
     borderopacity="0.25"
     inkscape:showpageshadow="2"
     inkscape:pageopacity="0.0"
     inkscape:pagecheckerboard="0"
     inkscape:deskcolor="#d1d1d1"
     inkscape:zoom="2.5234728"
     inkscape:cx="51.912587"
     inkscape:cy="46.760956"
     inkscape:window-width="1312"
     inkscape:window-height="449"
     inkscape:window-x="2074"
     inkscape:window-y="576"
     inkscape:window-maximized="0"
     inkscape:current-layer="g1" />
  <defs
     id="defs1">
    <clipPath
       clipPathUnits="userSpaceOnUse"
       id="clipPath7">
      <path
         d="M 0,0 H 612 V 803.25 H 0 Z"
         id="path7" />
    </clipPath>
  </defs>
  <g
     id="g1"
     transform="translate(-627.60748,-71.994598)">
    <path
       id="path6"
       d="m 477.0246,680.0044 c -0.1872,0.2145 -0.165,0.5401 0.0495,0.7273 0.2022,0.1764 0.5059,0.1683 0.6983,-0.0188 0.2811,-0.2732 1.0404,-0.4237 2.2897,-0.3523 1.3567,0.0775 3.1803,0.3611 5.4867,0.7223 l 7.1135,0.9852 c 3.4839,0.4193 7.4839,0.7951 11.743,0.9968 4.2361,0.2043 8.5601,0.1188 12.8755,0.1087 2.8654,-0.0142 5.7461,-0.1082 8.6028,0.01 5.4516,0.1904 10.773,1.1801 15.0137,2.1383 l 5.0292,1.2153 1.4943,0.3471 0.4879,0.0749 c 0.1479,0.0119 0.3457,0.2196 0.7318,-0.2562 0.2241,-0.276 0.1819,-0.6814 -0.0941,-0.9055 -0.2264,-0.1837 -0.548,-0.1923 -0.784,-0.021 -0.1099,0.0798 0.2927,-0.1135 0.2425,-0.1045 -0.083,0.0148 0.095,-0.007 0.0875,-0.008 l -2.3645,-0.6019 c -2.0533,-0.5554 -4.9485,-1.3239 -8.3507,-2.0116 -3.497,-0.7068 -7.4167,-1.3094 -11.4236,-1.4901 -2.9365,-0.1141 -5.8419,-0.0115 -8.6806,0.009 -4.331,0.0423 -8.6286,0.1582 -12.8014,-0.0111 -4.2163,-0.1748 -8.1848,-0.5225 -11.6427,-0.913 l -7.0827,-0.9008 c -4.5414,-0.6073 -7.4879,-1.1542 -8.7216,0.2596"
       style="fill:#ff9a00;fill-opacity:1;fill-rule:nonzero;stroke:none"
       transform="matrix(1.3333333,0,0,-1.3333333,0,1071)"
       clip-path="url(#clipPath7)" />
    <path
       d="m 629.69161,100.66757 c -0.77146,-0.983334 -0.86013,-2.510933 -0.0859,-4.466933 1.4056,-3.551067 5.6428,-8.581066 11.48053,-13.161066 0.26253,-0.206 0.52533,-0.408667 0.78787,-0.608 7.45693,-5.659067 14.76733,-8.3892 17.78386,-7.1852 0.5236,0.208933 0.94534,0.5184 1.26147,0.921467 0.7716,0.983333 0.86027,2.510933 0.086,4.466933 -1.40573,3.551066 -5.6428,8.581066 -11.48053,13.161066 -0.26267,0.206 -0.52534,0.408667 -0.788,0.608 -7.45694,5.659073 -14.7672,8.389203 -17.78387,7.185203 -0.5236,-0.20893 -0.9452,-0.5184 -1.26147,-0.92147 m 1.88627,-0.58906 c 2.7996,1.09186 9.48293,-1.901073 16.17107,-6.976673 0.25573,-0.194 0.51146,-0.391333 0.7672,-0.592 5.54533,-4.350533 9.63146,-9.096133 10.9696,-12.476666 0.0172,-0.0436 0.0341,-0.08693 0.0505,-0.13 0.062,-0.04693 0.1112,-0.112 0.1388,-0.1908 0.0696,-0.198934 0.0891,-0.376534 0.10013,-0.5248 0.0908,-0.326267 0.14734,-0.633734 0.15867,-0.9164 0.0199,-0.09373 0.032,-0.2052 -0.009,-0.336533 -0.0309,-0.2888 -0.12267,-0.544134 -0.2904,-0.758 -0.1448,-0.184534 -0.34347,-0.317334 -0.58147,-0.412267 -2.78827,-1.1128 -9.48667,1.882133 -16.18987,6.9692 -0.25573,0.194 -0.51146,0.391333 -0.7672,0.592 -5.54533,4.350533 -9.63146,9.096133 -10.9696,12.476666 -0.26146,0.660533 -0.43533,1.272667 -0.44933,1.7972 -0.0261,0.07933 -0.038,0.177867 -0.009,0.296 -0.007,0.243069 0.0619,0.484669 0.18466,0.678929 0.15707,0.24854 0.426,0.448274 0.72707,0.504144 m 35.0192,49.19626 c -0.6196,-0.7896 -0.79733,-1.93213 -0.43853,-3.36773 l 0.0819,0.11747 0.22534,0.22946 0.39253,0.6576 0.27093,0.3552 0.36494,0.3248 0.0229,0.1228 0.0487,0.11174 0.15773,0.22013 c 0.0684,0.0919 0.11067,0.15747 0.15947,0.2196 0.1444,0.18413 0.34306,0.3164 0.58093,0.4108 0.23107,0.11213 0.36667,0.16493 0.5636,0.15893 0.69907,0.1296 1.56707,0.076 2.5656,-0.1408 l 0.52347,-0.0767 c 0.0995,-0.007 0.19533,-0.0481 0.2672,-0.12134 3.32346,-0.9352 7.8272,-3.41746 12.3364,-6.83946 0.25813,-0.19587 0.51653,-0.3952 0.77466,-0.59787 4.6364,-3.63747 8.26027,-7.5464 10.12547,-10.70987 0.0628,-0.10733 0.0939,-0.16106 0.1244,-0.21453 l 0.12747,-0.22187 0.11573,-0.19666 0.0796,-0.166 0.16253,-0.2972 0.2372,-0.5432 0.0376,-0.11787 c 0.2708,-0.6792 0.44054,-1.25453 0.47507,-1.7556 0.0484,-0.1164 0.0447,-0.21987 0.0227,-0.3112 -0.004,-0.036 -0.012,-0.0721 -0.0255,-0.1076 -0.0359,-0.28973 -0.12693,-0.5396 -0.29133,-0.74907 -0.0753,-0.0961 -0.16534,-0.178 -0.26814,-0.24773 l -0.57853,-0.79173 -0.12,-0.12774 -0.21573,-0.282 c -0.1148,-0.21893 -0.24734,-0.4344 -0.4136,-0.6304 -0.0289,-0.0429 -0.0567,-0.0852 -0.084,-0.12693 0.6608,-2.7e-4 1.2332,0.0905 1.70186,0.27653 0.52507,0.20827 0.9476,0.51774 1.264,0.92107 0.77147,0.9832 0.858,2.51347 0.0765,4.47547 -1.41814,3.5604 -5.67947,8.60866 -11.5444,13.21013 -0.2652,0.208 -0.5304,0.41267 -0.7956,0.61387 -7.48934,5.6836 -14.82547,8.4352 -17.84707,7.23653 -0.52507,-0.20827 -0.9476,-0.51773 -1.264,-0.92107 M 654.12441,79.061837 c 0.68214,0.8988 0.50654,2.1804 -0.3924,2.862534 -0.8988,0.682 -2.1804,0.5064 -2.86253,-0.3924 l -2.78187,-3.665733 c -0.682,-0.8988 -0.5064,-2.1804 0.3924,-2.862534 0.89894,-0.682133 2.18054,-0.5064 2.86254,0.3924 z m -3.75,7.705467 c 0.68214,0.8988 0.5064,2.1804 -0.3924,2.862533 -0.8988,0.682134 -2.1804,0.5064 -2.86253,-0.3924 l -2.78187,-3.665733 c -0.68213,-0.8988 -0.5064,-2.1804 0.3924,-2.862533 0.8988,-0.682134 2.1804,-0.5064 2.86254,0.3924 z m -8.79453,0.8972 c 0.68213,0.898933 0.5064,2.180533 -0.3924,2.862533 -0.8988,0.682134 -2.1804,0.506534 -2.86253,-0.3924 l -2.78187,-3.6656 c -0.68213,-0.8988 -0.5064,-2.1804 0.3924,-2.862533 0.8988,-0.682133 2.1804,-0.506533 2.86253,0.3924 z m -3.51213,6.246933 c 0.682,0.8988 0.5064,2.1804 -0.3924,2.862533 -0.89894,0.682134 -2.18054,0.5064 -2.86267,-0.3924 l -2.78187,-3.665733 c -0.682,-0.8988 -0.5064,-2.1804 0.3924,-2.862533 0.89894,-0.682133 2.18054,-0.5064 2.86267,0.3924 z m -4.51187,-3.519866 c 0.138,0.354266 -0.0375,0.753333 -0.39173,0.8912 -0.32614,0.126933 -0.69547,-0.01067 -0.85867,-0.320534 -0.11227,-0.212933 -0.39253,-0.384666 -0.68427,-0.461466 l -0.5428,-0.1228 -1.0084,0.373733 -0.69933,0.4592 -0.0273,0.131067 0.074,0.631466 0.2136,0.620133 0.18373,0.2852 0.19547,0.2384 0.3668,0.412667 0.49146,0.558267 c 0.18414,0.169333 0.19614,0.455733 0.0269,0.639866 -0.1048,0.113867 -0.2604,0.1664 -0.41267,0.139334 l -0.79133,-0.206534 -0.708,-0.483333 -0.3584,-0.416533 -0.30867,-0.495067 -0.37467,-0.9148 -0.12946,-1.0088 c -0.007,-0.3736 0.10813,-0.86 0.45173,-1.220533 0.33933,-0.360267 0.72787,-0.590667 1.03507,-0.7656 0.49866,-0.2732 1.06373,-0.601733 1.78733,-0.586667 0.44173,0.02867 0.75387,0.158534 1.00707,0.254 0.56373,0.2316 1.1832,0.650267 1.46253,1.368134 m 4.346,-5.296267 c 0.10507,0.2836 -0.0399,0.598667 -0.32347,0.7036 -0.17586,0.06507 -0.37266,0.0356 -0.52186,-0.07787 l -0.44614,-0.283733 -0.7848,-0.562533 -0.7232,-0.4488 -0.23986,-0.05987 -0.32654,-0.0992 -0.2372,-0.06907 -0.37426,-0.07187 -0.2224,-0.03747 -0.24494,-0.02653 -0.3244,-8e-4 -0.80053,-0.03547 c -0.4856,0.02747 -1.0392,0.2316 -1.572,0.543333 l -0.75693,0.639334 -0.28214,0.406133 -0.10546,0.194933 -0.0881,0.285067 -0.098,0.406933 -0.1904,0.5128 -0.046,0.218 -0.0297,0.3564 c 0.1076,0.3972 -0.1272,0.8064 -0.52427,0.914 -0.3508,0.09507 -0.71893,-0.0768 -0.87133,-0.4068 -0.1744,-0.3776 -0.17387,-0.741733 -0.14787,-1.0792 l 0.0399,-0.362666 0.0381,-0.396534 0.0385,-0.469066 0.1124,-0.5928 0.2552,-0.547334 0.3752,-0.58 c 0.3652,-0.494266 0.8168,-0.8716 1.29946,-1.159733 0.72,-0.4212 1.53067,-0.757333 2.4132,-0.806133 l 0.97307,0.1012 0.448,0.01387 0.41733,0.06987 0.32,0.118133 0.38347,0.0796 0.3212,0.0916 0.34933,0.171867 0.42147,0.180667 0.94333,0.7064 0.71187,0.6908 z m 8.99027,-0.9372 c 0.1432,0.192267 0.10333,0.464133 -0.0889,0.6072 -0.10506,0.07827 -0.24,0.1048 -0.36693,0.07227 -0.52667,-0.135067 -0.9128,-0.588134 -1.2924,-0.912134 l -0.38947,-0.339466 -0.74,-0.545467 -0.32853,-0.282133 -0.57547,-0.526267 -0.2692,-0.203867 -0.26226,-0.182 -0.18614,-0.0928 -0.43973,-0.209733 -0.16493,-0.0736 -0.2548,-0.110933 -0.30707,-0.1488 -0.69387,-0.324134 -0.27373,-0.135466 -0.14147,-0.03027 -0.38053,-0.07733 -0.5456,-0.0832 -0.4068,-0.05853 -0.23253,-0.0136 -0.63507,-8e-4 -0.44267,0.03227 -0.4204,0.05867 -0.16666,0.0308 -0.39294,0.0804 -0.34506,0.0764 -0.49947,0.06253 c -0.2672,0.0248 -0.6604,0.1516 -0.93147,0.337467 l -0.97013,0.802133 -0.36693,0.5516 -0.4828,1.520533 c -0.2068,0.5636 -0.40854,0.946267 -0.44187,1.303334 l 0.022,0.354133 c 0.008,0.686533 0.21547,1.529867 0.15027,2.373733 -0.0201,0.260667 -0.24787,0.455734 -0.50867,0.4356 -0.20067,-0.01547 -0.3696,-0.156133 -0.4212,-0.350666 -0.16573,-0.6244 -0.57253,-1.279734 -0.85427,-2.034934 l -0.11453,-0.875333 c 0.005,-0.762667 0.27173,-1.358133 0.36427,-1.723867 l 0.51973,-1.741333 c 0.17227,-0.4164 0.41467,-0.7756 0.69867,-1.102133 0.37346,-0.4464 0.81973,-0.828534 1.2372,-1.141467 0.59493,-0.434267 1.24146,-0.666 1.85373,-0.7444 l 0.33773,-0.03547 0.3576,-0.06787 0.40614,-0.08307 0.22613,-0.0412 0.51507,-0.0724 0.5744,-0.04813 0.79333,0.0053 0.44293,0.04333 0.3948,0.0536 0.5936,0.06853 0.57,0.134666 0.48414,0.1716 0.33773,0.179867 0.63467,0.293467 0.26813,0.121466 0.30027,0.148534 0.19626,0.107333 0.43187,0.2344 0.35013,0.1976 0.3864,0.275333 0.3888,0.364934 0.56387,0.5864 0.25107,0.298533 0.60573,0.6136 0.4468,0.627333 0.63107,1.187734 z m 3.124,-7.546 c -0.0671,0.072 -0.1552,0.1208 -0.25187,0.1392 l -0.0505,0.0093 c -0.19907,0.02907 -0.39787,-0.05413 -0.51694,-0.216134 l -1.07173,-1.169333 -1.06987,-0.873467 -0.648,-0.305066 -0.2776,-0.109734 -0.2936,-0.1184 -0.33466,-0.0996 -0.3024,-0.08213 -0.7104,-0.0208 -0.34347,0.04387 -0.21187,0.04187 -1.35386,0.523867 -0.3716,0.224667 -0.44534,0.2428 c -0.63786,0.331733 -1.27293,0.788266 -1.86973,1.289866 l -0.41907,0.449067 -0.60066,0.870933 -0.374,0.9324 -0.23507,0.506 -0.1396,0.3684 -0.10427,0.461733 -0.0525,0.363334 -0.14493,0.6504 c -0.26,0.641466 -0.41667,0.994933 -0.31414,1.5992 0.0412,0.243333 -0.12253,0.474133 -0.36586,0.515333 -0.18694,0.03173 -0.3736,-0.058 -0.4656,-0.223867 -0.4036,-0.7276 -0.4848,-1.446533 -0.51214,-2.054 l 0.0576,-0.663066 0.0632,-0.475867 0.148,-0.705467 0.20574,-0.545999 0.21266,-0.477734 0.38547,-1.012666 c 0.21867,-0.469467 0.4876,-0.8428 0.8404,-1.269467 l 0.64307,-0.679733 c 0.674,-0.563467 1.4072,-1.094134 2.1952,-1.501067 l 0.3904,-0.193467 0.44106,-0.2652 1.68867,-0.651066 0.40133,-0.0812 0.58494,-0.04747 c 0.31026,-0.01067 0.71066,-0.02613 1.1468,0.07573 l 0.4232,0.130934 0.48853,0.1856 0.3352,0.154266 0.20627,0.09787 0.92386,0.4872 c 0.44587,0.353333 0.89934,0.793333 1.26614,1.285067 0.35386,0.5228 0.69333,1.046933 0.92386,1.590533 0.0791,0.186533 0.048,0.4016 -0.0807,0.558133 l -0.0396,0.04507 z m 10.48893,-0.385466 c 0.0477,-0.06773 0.10893,-0.125067 0.17973,-0.168134 0.3304,-0.201466 0.3856,-0.09613 0.4724,-0.08253 0.16987,0.02667 0.3228,0.1176 0.4272,0.254133 l 0.16027,0.215867 c 0.89947,1.074533 1.64227,2.304666 2.53813,3.43 0.78654,1.006133 1.82027,1.956533 2.75814,3.0668 l 2.09733,2.775733 c 1.3116,1.8432 2.17853,3.488533 3.2492,5.059867 0.92707,1.371599 1.6648,2.549333 2.5932,3.682933 0.89613,1.081733 1.62587,2.158133 2.588,3.185866 l 2.1228,2.508667 3.14093,4.12813 1.5268,2.0836 1.29374,1.73627 0.68613,1.1956 0.33,0.52067 0.292,0.4848 0.30987,0.46893 0.23546,0.35307 c 1.09467,1.6628 2.10134,3.2456 3.28174,4.556 1.54706,1.64373 2.57453,3.50693 3.906,4.90173 0.758,0.824 1.39453,1.68707 2.02146,2.5248 l 0.97294,1.27813 0.46186,0.68387 0.0963,0.0989 0.1556,0.18334 0.11547,0.1336 c 0.0367,0.0409 0.0693,0.0852 0.0977,0.13226 l 0.0409,0.0681 c 0.24214,0.40413 0.1108,0.92813 -0.29333,1.17026 -0.30453,0.18254 -0.69027,0.15734 -0.96853,-0.0632 l -0.0935,-0.0781 c -0.0412,-0.0363 -0.0789,-0.0764 -0.11267,-0.11987 l -0.12506,-0.16453 -0.14374,-0.2004 -0.156,-0.23613 -0.45026,-0.5272 -1.02974,-1.2524 -1.9512,-2.3228 c -1.52973,-1.6404 -2.52866,-3.51187 -3.88666,-4.9884 -1.34627,-1.40094 -2.45014,-3.0356 -3.59054,-4.66027 l -0.24186,-0.33507 -0.34347,-0.49813 -0.31947,-0.48747 -0.37373,-0.62053 -0.62133,-1.02227 -1.2872,-1.8316 -1.44147,-1.9424 -3.12893,-4.13426 -1.974,-2.392137 c -1.06094,-1.174533 -1.79747,-2.313733 -2.61,-3.3352 -1.00267,-1.2468 -1.75987,-2.487866 -2.65627,-3.838266 -1.11307,-1.6896 -1.93653,-3.323067 -3.1556,-5.086933 l -2.00067,-2.6704 c -0.8224,-1.053334 -1.83733,-2.056667 -2.67586,-3.222 -0.90094,-1.276134 -1.56347,-2.540534 -2.344,-3.604533 l -0.1176,-0.132 c -0.11667,-0.1256 -0.18067,-0.2912 -0.1788,-0.462667 9.3e-4,-0.07427 -0.0843,-0.112267 0.12013,-0.402133 m -29.88206,25.526309 c -0.136,-0.0559 -0.24814,-0.15774 -0.31667,-0.28787 l 0.0335,0.0559 c -0.1976,-0.29334 -0.12,-0.6912 0.1732,-0.88894 0.29333,-0.1976 0.69133,-0.12 0.88893,0.1732 0.1976,0.29334 0.12013,0.69134 -0.1732,0.88894 -0.2324,0.15653 -0.5396,0.14386 -0.75827,-0.0313 -0.0621,-0.0497 0.19667,0.10827 0.15254,0.0901 m -0.0276,0.0269 c -0.35907,-0.20107 -0.4872,-0.65493 -0.28627,-1.014 0.0728,-0.13013 0.18307,-0.23533 0.3164,-0.30213 0.54493,-0.27307 0.9004,0.003 1.12907,0.14626 0.0856,0.0536 0.1612,0.1216 0.22346,0.20107 l 0.30387,0.43227 1.7648,2.3216 1.9636,2.4984 1.99853,2.16213 c 0.62934,0.64507 1.03827,1.30187 1.5128,1.9184 l 1.974,2.56987 1.5304,2.02413 0.3308,0.53147 0.22987,0.43066 0.20373,0.4116 0.70267,0.98934 0.3976,0.51866 0.18507,0.2424 1.2132,1.6292 1.29986,1.81547 0.51587,0.66533 0.2244,0.28947 0.23093,0.2724 0.32147,0.4256 0.45467,0.62707 0.518,0.61506 0.22146,0.25214 0.32454,0.42146 0.25986,0.29414 2.464,3.00066 2.70734,3.11147 1.99853,2.53493 c 1.0396,1.42907 1.57347,2.6728 2.3584,3.82307 l 2.30427,3.0876 c 0.86253,1.2084 1.44506,2.24 2.09853,3.27 l 1.58187,2.1192 c 0.5776,0.90587 0.97266,1.7092 1.3692,1.97027 0.38146,0.2512 0.48706,0.76386 0.236,1.14533 -0.2392,0.36347 -0.71907,0.47933 -1.09774,0.26507 -1.02786,-0.5812 -1.48333,-1.62267 -1.99773,-2.33547 l -1.61533,-2.1904 -2.09187,-3.13813 -2.36027,-3.11054 c -0.90706,-1.30853 -1.4308,-2.50733 -2.35386,-3.75866 l -1.89147,-2.34934 -2.7268,-3.11 -2.4588,-3.04213 -0.32627,-0.38347 -0.28066,-0.37413 -0.21467,-0.27133 -0.56427,-0.66507 -0.4784,-0.60253 -0.3008,-0.39227 -0.258,-0.37613 -0.18146,-0.24267 -0.5736,-0.77147 -1.24227,-1.7332 -1.2056,-1.65386 -0.17467,-0.2316 -0.38813,-0.51627 -0.86787,-1.2216 -0.23253,-0.41613 -0.21453,-0.4084 -0.22227,-0.39387 -1.4768,-1.97987 -1.90467,-2.59306 c -0.51773,-0.68254 -0.8844,-1.27187 -1.3508,-1.75707 l -2.05813,-2.34293 -1.93187,-2.59254 -1.8016,-2.32266 -0.21333,-0.20427 c -0.0772,-0.066 -0.14227,-0.14507 -0.1924,-0.23333 l -0.0667,-0.10774 0.0149,0.0161 c -0.018,-0.0184 0.18573,0.12653 0.1184,0.0889 m 66.53253,29.51827 c -0.4772,-0.0808 -0.79853,-0.53334 -0.71773,-1.01054 0.0785,-0.46346 0.50853,-0.7824 0.9748,-0.7232 0.64946,0.0827 0.69173,0.33747 0.87186,0.52707 0.68987,0.70493 0.87894,1.58133 1.05547,2.09093 0.148,0.45747 0.51067,1.02294 0.69213,1.81827 l 0.2576,0.84667 0.0987,0.3504 0.10893,0.27626 0.19867,0.7048 0.0745,0.39654 0.17547,0.3036 c 0.3984,0.87293 0.28973,1.65 0.334,2.098 l 0.003,0.98413 0.0151,0.37627 -0.15933,0.8292 -0.0761,0.4084 c -0.0827,0.58013 -0.3584,0.83706 -0.41427,0.96186 l -0.0605,0.2824 -0.0692,0.3044 -0.22507,0.58054 c -0.1836,0.43546 -0.13187,0.7656 -0.2344,1.4284 -0.22867,1.3044 -1.03573,2.46093 -1.9476,3.4644 -0.49533,0.54653 -0.98627,1.27533 -1.68947,1.91933 l -0.74146,0.82853 c -0.7264,0.80294 -1.46854,1.29787 -2.15987,1.89774 l -1.33653,1.01333 -0.78014,0.4508 c -0.77053,0.39827 -1.5844,0.60733 -2.4192,0.89813 -0.72573,0.25227 -1.36266,0.41867 -2.07733,0.48827 l -1.03733,0.0667 -0.60227,-0.0408 -0.0811,-10e-4 c -0.0647,0.003 -0.12946,-9.3e-4 -0.1932,-0.0133 l -0.41906,-0.0309 -1.25347,0.0441 -1.154,-0.10427 -0.3316,-0.0263 -0.52773,-0.0243 -0.73294,-0.1332 -0.5812,-0.16533 -0.2188,-0.0717 -0.35546,-0.1028 -0.3292,-0.0887 -0.57614,-0.20027 -1.0252,-0.4748 -0.94,-0.474 -0.61746,-0.35773 -1.29907,-0.73054 -0.4764,-0.30386 -1.5936,-0.77227 c -0.8624,-0.43427 -1.29853,-1.19853 -1.6424,-1.50307 -0.36827,-0.32613 -0.4024,-0.88893 -0.0763,-1.25706 0.32614,-0.36827 0.88894,-0.4024 1.25707,-0.0763 0.007,0.005 0.012,0.0107 0.0187,0.0171 0.59066,0.55386 0.97866,1.14506 1.2616,1.29746 l 1.64853,0.75347 0.5544,0.3552 1.21107,0.71307 0.59066,0.3428 0.8776,0.48093 0.952,0.5112 0.31174,0.10467 0.33093,0.0908 0.45427,0.14 0.22506,0.10066 0.44307,0.16107 0.544,0.14013 0.43253,0.0187 0.29787,0.0393 1.13227,0.18747 1.17626,-0.0655 0.37507,-0.13613 c 0.0609,-0.0159 0.1236,-0.0245 0.18653,-0.0261 l 0.294,0.0136 0.428,0.0408 0.87227,-0.11854 c 0.59467,-0.0553 1.0612,-0.172 1.71733,-0.3968 0.89547,-0.30653 1.6452,-0.50573 2.21854,-0.7972 l 0.55773,-0.33466 1.2028,-0.91347 c 0.77027,-0.67147 1.43533,-1.12187 2.008,-1.75773 l 0.85267,-0.93307 c 0.4968,-0.48467 0.9376,-1.1728 1.5108,-1.8476 0.7452,-0.87933 1.30826,-1.87893 1.39813,-2.56773 0.0633,-0.42147 0.009,-1.06587 0.35133,-1.88254 l 0.17507,-0.38826 0.0148,-0.1184 0.2136,-0.73747 0.2768,-0.45827 0.0331,-0.0359 0.1112,-0.53614 0.10106,-0.40186 -0.0141,-0.34134 -0.007,-0.7996 c -0.0692,-0.71173 -0.0152,-1.17133 -0.17466,-1.52226 l -0.25267,-0.5036 -0.13573,-0.55747 -0.11867,-0.41533 -0.15707,-0.4244 -0.0995,-0.34694 -0.30507,-0.9768 -0.6224,-1.6588 c -0.17787,-0.62266 -0.3176,-1.17413 -0.58573,-1.474 l -0.0863,-0.0832 0.026,0.0164 0.0696,0.0341 c -0.0357,-0.0148 0.2296,0.0569 0.1572,0.0447 M 661.28921,76.141304 c 0.21254,0.236 0.19347,0.599734 -0.0425,0.812267 -0.16027,0.1444 -0.388,0.186933 -0.5896,0.110133 l -0.3088,-0.1296 -0.38,-0.203333 -0.11187,-0.03933 c -0.1484,-0.03187 -0.28186,-0.1128 -0.3788,-0.2296 -0.24333,-0.1304 -0.34066,-0.427467 -0.21746,-0.6708 0.0163,-0.03213 0.0361,-0.0624 0.0589,-0.09013 l 0.44253,-0.305866 c 0.14267,-0.05333 0.29907,-0.05707 0.44414,-0.01067 l 0.34453,0.150933 0.44133,0.297334 0.2976,0.308533 z m -0.71346,1.536667 c 0.0905,-0.251733 0.36786,-0.382533 0.61973,-0.292133 0.20147,0.0724 0.3316,0.268533 0.31987,0.4824 l -0.0473,0.610933 -0.12493,0.4664 -0.14853,0.494933 -0.65294,1.428667 -0.61026,1.433466 c -0.2996,0.684934 -0.75,1.3104 -1.128,1.89 l -0.37694,0.456934 -0.47653,0.685333 -0.49413,0.539067 -0.71534,1.097866 -0.61466,0.6484 -0.56934,0.677334 -0.3044,0.314933 -1.69466,1.5728 -0.66294,0.604533 -0.41933,0.341334 -0.24747,0.237466 -0.6588,0.599467 -1.84386,1.640266 -2.43254,1.831334 c -1.30053,1.042266 -2.75453,1.738133 -3.97186,2.437866 l -1.9216,1.107734 -0.89227,0.501862 -0.384,0.1944 -0.48173,0.23427 -0.41054,0.143204 -0.7024,0.29333 -0.9692,0.32547 -0.5224,0.17813 -0.30093,0.0828 -0.47307,0.0599 -0.68733,0.15 -0.47587,0.038 -0.50586,0.16027 -1.2048,0.22666 -1.1128,-0.0163 -0.55134,-0.0551 -0.48773,-0.0967 c -0.0869,-0.0196 -0.16987,-0.0545 -0.2448,-0.10293 l -0.41507,-0.292 c -0.25053,-0.19293 -0.29733,-0.5524 -0.1044,-0.80306 0.0901,-0.11707 0.222,-0.19467 0.368,-0.216804 l 0.4268,-0.0708 c 0.0871,-0.016 0.1764,-0.0165 0.26374,-10e-4 l 0.38786,0.0573 0.5072,0.074 0.88707,0.028 0.85213,-0.181612 0.72867,-0.2268 0.41707,-0.0347 0.75613,-0.1612 0.3488,-0.0365 0.14733,-0.0435 0.50774,-0.1888 0.8548,-0.282937 0.6988,-0.359733 0.3456,-0.1244 0.39066,-0.2048 0.37867,-0.188933 0.8496,-0.482667 1.998,-1.013333 c 1.27413,-0.7008 2.65867,-1.343334 3.81107,-2.234934 l 2.5036,-1.765466 1.88493,-1.4892 0.60827,-0.5544 0.31813,-0.296933 0.40453,-0.326934 0.5544,-0.537066 1.71627,-1.615467 0.24587,-0.2528 0.57146,-0.672667 0.60547,-0.615333 c 0.22787,-0.253067 0.3864,-0.667467 0.81347,-1.1048 l 0.4152,-0.445733 0.47653,-0.713867 0.31213,-0.3676 c 0.3944,-0.596933 0.81174,-1.186 1.044,-1.708 l 0.70947,-1.4996 0.59827,-1.2636 0.10186,-0.4252 0.0756,-0.3504 0.21814,-0.629866 z m 37.27933,48.183999 c 0.2388,-0.0215 0.4496,0.15467 0.47107,0.39334 6.6e-4,0.007 10e-4,0.0133 10e-4,0.0193 0.004,0.0916 -0.0515,-0.16027 -0.0455,-0.1512 0.0951,0.14453 0.1128,0.32667 0.0476,0.4868 l -0.0299,0.20107 c 0.0376,0.20733 -0.112,0.41706 -0.12854,0.4652 l -0.1,0.18893 -0.0556,0.0817 c -0.0353,0.0443 0.0225,0.30854 -0.5012,0.17494 -0.174,-0.0444 -0.30786,-0.18334 -0.3456,-0.3588 -0.0792,-0.36734 0.005,-0.28307 0.0496,-0.41334 l 0.16747,-0.27613 -0.0663,-0.2212 c -0.0135,-0.17227 0.0588,-0.34013 0.19307,-0.4488 z m -0.20587,0.93347 c 0.2584,0.012 0.45827,0.23093 0.4464,0.48933 -0.012,0.25827 -0.23093,0.45814 -0.48933,0.44627 -0.25827,-0.012 -0.45813,-0.23093 -0.44627,-0.4892 0.003,-0.0671 0.0205,-0.13267 0.0511,-0.19227 0.0489,-0.0953 -0.0413,0.11827 -0.0389,0.10694 l 0.005,0.19693 -0.022,-0.44733 0.0553,-0.5036 0.007,0.0369 0.0353,0.0739 0.0529,0.0767 0.0569,0.0612 c -0.0269,-0.0253 0.20133,0.13307 0.1304,0.0944 -0.31133,-0.17 -0.42587,-0.56026 -0.25587,-0.8716 0.17,-0.31133 0.56014,-0.42586 0.87147,-0.25586 0.31133,0.17 0.426,0.56013 0.256,0.87146 -0.0812,0.1488 -0.218,0.25947 -0.3804,0.30774 -0.088,0.0263 0.2076,-0.1044 0.17067,-0.0799 -0.066,0.044 0.14733,-0.13547 0.12293,-0.10747 l 0.0672,-0.0948 -0.0788,0.19467 -0.12173,0.33227 -0.0631,0.25133 -0.016,-0.18293 -0.0393,-0.0895 -0.0799,-0.10013 -0.0965,-0.0697 c 0.0457,0.0248 -0.29454,-0.06 -0.20067,-0.0557 m -0.20453,-0.072 c -0.3032,-0.198 -0.38867,-0.60427 -0.19067,-0.90747 0.0175,-0.0269 0.0371,-0.0525 0.0584,-0.0765 0.17493,-0.19747 0.5116,-0.24507 0.6828,-0.1936 0.50453,0.1516 0.40147,0.3232 0.43133,0.39013 l 0.10707,0.4096 c 0.0327,0.56254 -0.1848,0.77147 -0.22307,0.87174 l -0.41026,1.29986 -0.34214,0.67494 -0.2036,0.41173 -0.0964,0.20813 -0.1376,0.24987 c -0.102,0.20147 -0.30173,0.33507 -0.5268,0.35253 l -0.13746,0.001 c -0.0259,-0.003 -0.0515,-0.007 -0.0767,-0.0139 l -0.23747,-0.1252 c -0.1772,-0.14027 -0.26813,-0.36307 -0.24,-0.58734 l 0.0577,-0.30506 0.1628,-0.37454 0.294,-0.49253 0.272,-0.50813 0.32306,-1.27747 0.14307,-0.31507 0.0195,-0.0484 -0.008,0.0852 -0.003,-0.1308 -0.003,-0.0215 0.007,0.034 0.0243,0.0775 0.0525,0.10587 c -0.0331,-0.0537 0.3096,0.27693 0.1996,0.2052 m 0.11453,-0.49307 c -0.23946,0.012 -0.44386,-0.17133 -0.45653,-0.4108 -5.3e-4,-0.009 -6.7e-4,-0.0183 -5.3e-4,-0.0273 0,-10e-4 0.0333,0.18333 0.0107,0.0859 -0.0579,-0.25054 0.0983,-0.50054 0.3488,-0.5584 0.25054,-0.0579 0.50054,0.0983 0.55854,0.3488 0.0579,0.25053 -0.0984,0.50053 -0.34894,0.5584 -0.17346,0.0401 -0.35466,-0.0223 -0.46666,-0.1608 -0.0812,-0.1004 0.272,0.16453 0.212,0.1456 l 0.14253,0.0187 z m -0.39253,-0.72466 c 0.0371,-0.0611 0.0859,-0.11414 0.1436,-0.15614 0.3708,-0.2696 0.53987,-0.0833 0.65533,-0.0199 l 0.22867,0.17773 c 0.0705,0.0713 0.12427,0.15747 0.15747,0.252 l 0.166,0.48573 0.0876,0.87507 -0.0465,0.73973 c -0.16706,0.67 -0.33386,1.2612 -0.6664,1.68 -0.16333,0.2056 -0.46226,0.23987 -0.66786,0.0767 -0.14427,-0.11453 -0.20934,-0.30227 -0.16694,-0.48147 l 0.0725,-1.316 0.0664,-0.77373 -0.0453,-0.44507 -0.1004,-0.4856 c -0.0196,-0.0983 -0.0171,-0.1996 0.008,-0.29666 l 0.1084,-0.3124 z m 0.4352,0.50386 c -0.0229,-0.2612 0.17027,-0.49146 0.43147,-0.5144 0.0153,-10e-4 0.0308,-10e-4 0.0463,-10e-4 l 0.096,10e-4 c 0.14694,0.004 0.28667,0.0653 0.38907,0.17094 0.2564,0.26466 0.37947,0.63186 0.37867,0.9404 l -0.23374,0.90933 -0.0832,0.4452 c 0.0999,0.21787 0.004,0.47533 -0.2136,0.57533 -0.16613,0.0761 -0.36213,0.04 -0.49026,-0.0903 -0.3076,-0.31294 -0.40627,-0.76227 -0.39267,-1.10934 l 0.1952,-0.77733 -0.0173,-0.168 c -0.0876,-0.1188 -0.12494,-0.26733 -0.10414,-0.41347 l -10e-4,0.0316 z m -0.62027,1.37667 c 0.0959,-0.23187 0.36147,-0.34213 0.59334,-0.24627 0.13413,0.0553 0.2336,0.1716 0.26786,0.31254 l 0.0803,0.41413 c 0.008,0.0564 0.008,0.1136 -8e-4,0.17 l -0.41533,1.39533 -0.46174,1.00827 -0.17893,0.30573 -0.20893,0.53507 -0.2744,0.55907 -0.35307,0.66506 -0.30667,0.45187 -0.4036,0.45547 -1.678,1.8588 -0.98293,1.19306 -0.5412,0.59427 -0.2776,0.3384 -1.18707,1.26987 -0.37626,0.428 c -0.52,0.55653 -1.05267,0.9672 -1.63427,1.39666 l -1.52187,1.17187 -2.38386,1.73013 -1.87347,1.4244 -0.65733,0.44694 -1.836,1.242 -0.87867,0.4176 -1.90893,0.94173 -0.9552,0.50027 -0.34627,0.1888 -1.24933,0.6412 -2.06934,0.93466 -0.43453,0.17587 -0.68253,0.20227 -0.48814,0.20706 c -0.2444,0.0996 -0.57186,0.20014 -0.94986,0.1808 -0.4384,-0.0271 -0.43494,-0.11933 -0.4996,-0.14093 -0.0676,-0.0217 0.19093,0.0285 0.1652,0.0288 l -0.34134,0.0568 -0.56373,-0.0501 -0.47587,-0.11907 -0.26693,-0.068 -0.36693,-0.134 -0.3912,-0.21533 -0.34974,-0.27707 -0.0231,-0.012 c -0.0884,-0.0667 -0.1632,-0.1496 -0.22054,-0.24427 l -0.11653,-0.20733 c -0.20107,-0.38987 -0.0481,-0.86893 0.34173,-1.07013 0.18067,-0.0932 0.39027,-0.11347 0.5856,-0.0568 l 0.11734,0.0289 c 0.10813,0.0229 0.2108,0.0664 0.30266,0.12773 l 0.0559,0.0356 0.10493,0.0323 0.27507,0.11387 0.28853,0.126 0.248,0.10546 0.3116,0.0844 c 0.0463,-2.6e-4 0.32067,-0.184 0.90854,0.0321 l 0.20586,0.0911 -0.0292,-0.0107 -0.148,-0.03 0.21067,-0.0487 0.60587,-0.23987 0.59706,-0.1356 0.36174,-0.13413 2.02986,-0.8352 1.1992,-0.58747 0.34534,-0.1856 1.07146,-0.51813 1.858,-0.91013 0.77507,-0.35454 1.7752,-1.1988 0.6548,-0.39933 1.8904,-1.35373 2.4184,-1.72934 1.52107,-1.1032 1.41733,-1.22093 0.428,-0.44693 1.13627,-1.16134 0.32613,-0.38053 0.52773,-0.5832 0.90827,-1.13813 1.77213,-1.95614 0.31987,-0.35613 0.19787,-0.2956 0.324,-0.644 0.28253,-0.48013 0.31453,-0.6356 0.17054,-0.25654 0.46933,-0.88973 0.35453,-1.09907 c 0.0107,-0.0561 0.0284,-0.1104 0.0545,-0.16106 l 0.13866,-0.29974 z"
       style="fill-opacity:1;fill-rule:nonzero;stroke:none"
       id="path1-60" />
    <path
       d="m 709.73743,152.94179 c 0,0.6172 -0.5004,1.11746 -1.11747,1.11746 -0.6172,0 -1.1176,-0.50026 -1.1176,-1.11746 0,-0.6172 0.5004,-1.1176 1.1176,-1.1176 0.61707,0 1.11747,0.5004 1.11747,1.1176 m -1.16827,-0.75494 c 0.4016,-0.0832 0.79454,0.17494 0.87774,0.57654 0.0507,0.24493 -0.0253,0.4988 -0.20214,0.67573 l 0.0201,-0.0255 0.0555,-0.0896 0.0451,-0.1084 c -0.0175,0.0535 0.0275,-0.4696 0.0376,-0.2888 0.0247,0.44174 -0.31347,0.82 -0.7552,0.84467 -0.44173,0.0247 -0.81987,-0.31333 -0.84467,-0.7552 -0.0247,-0.44173 0.31347,-0.81987 0.7552,-0.84453 0.26494,-0.0148 0.52,0.1024 0.68107,0.3132 0.126,0.1648 -0.33933,-0.2596 -0.27307,-0.2264 0.1056,0.0528 -0.278,-0.0789 -0.22626,-0.0715 0.13373,0.0191 -0.17734,0.001 -0.17094,-2.7e-4 m 0.8816,1.50227 c -0.4128,0.4588 -1.11933,0.49627 -1.57826,0.0835 -0.4588,-0.4128 -0.49614,-1.11934 -0.0835,-1.57814 0.0779,-0.0865 0.16867,-0.1604 0.2692,-0.2188 l 0.0921,-0.0532 -0.17706,0.12614 0.5876,-0.44427 0.48053,-0.37267 2.90667,-1.942 4.33,-2.77853 3.8376,-2.222 1.68453,-1.09867 0.68173,-0.3472 0.68627,-0.1852 0.25067,-0.0632 c 0.636,-0.39986 1.47573,-0.20853 1.8756,0.42747 0.31893,0.5072 0.2684,1.16347 -0.12454,1.61587 -0.3768,0.434 -0.73466,0.58293 -1.03866,0.72626 l -0.37187,0.1576 -0.4456,0.21907 -1.65667,1.0168 -3.95306,2.18587 -4.39134,2.56306 -2.9452,1.708 -0.60213,0.33174 -0.50813,0.29053 z m -9.14493,-1.26387 c 0.298,-0.1032 0.62307,0.0548 0.72627,0.3528 0.0804,0.23254 0.003,0.49054 -0.19267,0.64 l -0.0477,0.0479 -0.0193,0.1476 -9.3e-4,-0.0212 -0.012,-0.0888 c 0.009,0.0464 -0.1248,-0.3004 -0.0745,-0.20547 0.0421,0.0797 0.0717,0.16547 0.0877,0.25414 0.0107,0.0588 -0.1384,-0.33387 -0.0836,-0.23347 0.0293,0.0536 -0.20587,-0.25667 -0.1376,-0.18627 0.0359,0.0371 -0.2,-0.15813 -0.13987,-0.11733 0.0631,0.0428 -0.434,-0.1672 -0.2852,-0.1288 0.49534,0.128 0.7932,0.63333 0.66534,1.12867 -0.128,0.49533 -0.63334,0.7932 -1.12867,0.66533 -0.49533,-0.128 -0.7932,-0.6332 -0.66533,-1.12867 0.0829,-0.3208 0.33093,-0.57306 0.6504,-0.6612 0.10293,-0.0285 -0.20707,0.0848 -0.17374,0.0676 0.0988,-0.0508 -0.13706,0.0881 -0.12586,0.0793 0.074,-0.0615 0.15133,-0.1076 0.2344,-0.1412 0.0832,-0.0337 -0.0933,0.0465 -0.092,0.0457 l 0.19173,-0.15293 0.6228,-0.36374 z m -0.29893,2.54974 c -0.64534,0.0524 -1.2108,-0.428 -1.26334,-1.07334 -0.0311,-0.382 0.12667,-0.7552 0.4224,-0.9992 0.14414,-0.11893 -0.2956,0.3708 -0.25346,0.298 0.0648,-0.11186 -0.0863,0.19614 -0.0803,0.17707 l 0.0869,-0.29867 0.83187,-1.424 1.43813,-2.71266 0.98827,-1.7228 0.56533,-0.878 0.3844,-0.60014 2.2968,-3.6744 1.87387,-3.2804 0.89187,-1.56053 0.8532,-1.41613 0.61573,-0.82867 0.44427,-0.52173 0.53346,-0.82854 0.36854,-0.5652 c 0.1508,-0.23866 0.3736,-0.42333 0.63613,-0.5272 l 0.0891,-0.0384 c 0.60626,-0.28173 1.32613,-0.0187 1.60786,0.5876 0.0665,0.14307 0.1044,0.29774 0.1116,0.45534 l 0.008,0.11533 c 0.0252,0.2816 -0.0399,0.56387 -0.18586,0.806 l -0.36454,0.58707 -0.76386,1.01613 -0.35547,0.49973 -0.5452,0.7376 -0.69267,1.18467 -0.90093,1.68587 -1.83867,3.2548 -2.34613,3.7824 -0.42387,0.64746 -0.57,0.82614 -1.0376,1.63466 -1.56133,2.5576 -0.70693,1.18494 -0.14707,0.2468 c -0.0765,0.12546 -0.0913,0.59 -1.01027,0.6648 m -59.42546,-9.66374 c 0.33266,0.0348 0.57426,0.33267 0.53946,0.66547 -0.012,0.1196 -0.0603,0.23293 -0.13746,0.3252 -0.0169,0.0204 0.10053,-0.18813 0.072,-0.12067 l 0.0408,-0.15093 c -0.009,0.0719 -0.1256,-0.52053 -0.0472,-0.33773 0.144,0.33573 -0.0107,0.72466 -0.34707,0.86866 -0.33573,0.14414 -0.72467,-0.012 -0.8688,-0.34706 -0.144,-0.33574 0.0107,-0.72467 0.34707,-0.86867 0.22093,-0.0948 0.47586,-0.0623 0.66586,0.0848 0.10987,0.0851 -0.204,-0.10667 -0.17293,-0.0955 0.0773,0.0277 -0.0933,-0.0237 -0.0917,-0.0236 m -0.86227,0.50014 c 0.0311,-0.1176 0.09,-0.22587 0.172,-0.3156 l 0.2548,-0.18467 c 0.16907,-0.0788 0.36093,-0.094 0.54027,-0.0428 l 0.57093,0.0947 1.2776,0.3496 3.30827,0.86066 3.08613,0.89414 c 2.32253,0.66426 4.36747,1.2068 6.43973,1.98786 l 3.5688,1.14814 1.4764,0.3744 2.9296,0.94333 3.05414,1.01467 1.65173,0.57653 1.76133,0.63027 1.5836,0.55426 1.34374,0.49227 0.7912,0.28133 1.43626,0.89414 c 0.34374,0.27506 0.3996,0.7768 0.12454,1.12053 -0.14614,0.18267 -0.36507,0.29187 -0.5988,0.29893 l -1.53214,-0.1808 -0.99666,-0.3696 -1.31627,-0.50453 -1.57187,-0.6104 -1.73706,-0.62333 -1.60414,-0.58494 -3.11933,-1.144 -2.69467,-1.00413 -1.46373,-0.4192 c -1.26427,-0.36707 -2.45813,-0.79707 -3.70627,-1.30227 -1.95773,-0.78853 -3.94413,-1.3684 -6.26653,-2.08266 l -3.0624,-0.9216 -3.29467,-0.8248 -1.1548,-0.28 -0.81146,-0.2068 c -0.1712,-0.0759 -0.30934,-0.21094 -0.3888,-0.3804 -0.0468,-0.0999 -0.13947,-0.19947 -0.0515,-0.5332 m 4.4592,10.536 c 0.3724,0.0527 0.6316,0.3972 0.57893,0.7696 -0.0421,0.29813 -0.27493,0.5332 -0.57266,0.578 l -0.6104,-0.012 0.0689,-0.005 0.0748,-0.0236 c -0.0387,0.0155 0.24907,-0.16813 0.17107,-0.1032 -0.31414,0.26147 -0.78094,0.2188 -1.04254,-0.0953 -0.26146,-0.31427 -0.2188,-0.78107 0.0955,-1.04253 0.10373,-0.0865 0.22933,-0.1428 0.36293,-0.16307 l 0.42947,0.0196 0.444,0.0783 z m -1.59933,1.02306 c -0.20134,-0.45426 0.004,-0.9856 0.45813,-1.1868 0.33213,-0.1472 0.72013,-0.0801 0.9836,0.16987 0.0784,0.0744 -0.2232,-0.15013 -0.18147,-0.12907 0.12227,0.0619 -0.0788,-0.0307 0.008,-0.0157 l 1.886,0.19773 1.83214,0.14334 3.07213,0.10253 4.67307,-0.0177 2.82573,0.0133 3.54933,0.0797 1.442,0.14867 c 0.37147,0.0609 0.6828,-0.0696 1.13947,0.50987 0.29493,0.37426 0.23067,0.91666 -0.1436,1.2116 -0.14973,0.118 -0.33427,0.18306 -0.5248,0.18506 l -1.87187,0.13814 -3.56573,0.11253 -2.83093,0.0137 -4.774,-0.1556 -3.17227,-0.25053 -1.90253,-0.24173 -1.58094,-0.26427 -0.58893,-0.1536 c -0.1904,-0.0672 -0.4844,-0.0512 -0.73227,-0.61093"
       style="fill:#fddc0f;fill-opacity:1;fill-rule:nonzero;stroke:none"
       id="path1-3" />
  </g>
</svg>
