<?xml version="1.0" encoding="UTF-8" standalone="no"?>
<!-- Created with Inkscape (http://www.inkscape.org/) -->

<svg
   version="1.1"
   id="svg1"
   width="108.61053"
   height="108.61052"
   viewBox="0 0 108.61053 108.61052"
   sodipodi:docname="ekf.svg"
   inkscape:version="1.3.2 (091e20e, 2023-11-25)"
   xmlns:inkscape="http://www.inkscape.org/namespaces/inkscape"
   xmlns:sodipodi="http://sodipodi.sourceforge.net/DTD/sodipodi-0.dtd"
   xmlns="http://www.w3.org/2000/svg"
   xmlns:svg="http://www.w3.org/2000/svg">
  <sodipodi:namedview
     id="namedview1"
     pagecolor="#ffffff"
     bordercolor="#000000"
     borderopacity="0.25"
     inkscape:showpageshadow="2"
     inkscape:pageopacity="0.0"
     inkscape:pagecheckerboard="0"
     inkscape:deskcolor="#d1d1d1"
     inkscape:zoom="2.1729019"
     inkscape:cx="54.30526"
     inkscape:cy="54.30526"
     inkscape:window-width="1312"
     inkscape:window-height="449"
     inkscape:window-x="2010"
     inkscape:window-y="602"
     inkscape:window-maximized="0"
     inkscape:current-layer="g1" />
  <defs
     id="defs1">
    <clipPath
       clipPathUnits="userSpaceOnUse"
       id="clipPath5">
      <path
         d="M 0,0 H 612 V 803.25 H 0 Z"
         id="path5" />
    </clipPath>
    <clipPath
       clipPathUnits="userSpaceOnUse"
       id="clipPath33">
      <path
         d="M 0,0 H 612 V 803.25 H 0 Z"
         id="path33" />
    </clipPath>
  </defs>
  <g
     id="g1"
     transform="translate(-618.31293,-209.82069)">
    <path
       id="path4"
       d="m 544.3958,605.1556 c 0,-22.0539 -17.8782,-39.9321 -39.9321,-39.9321 -22.0539,0 -39.9321,17.8782 -39.9321,39.9321 0,22.0539 17.8782,39.9321 39.9321,39.9321 22.0539,0 39.9321,-17.8782 39.9321,-39.9321 m 0.7968,0 c 0,-15.0127 -8.1224,-28.1284 -20.2127,-35.1918 -6.0249,-3.5198 -13.0349,-5.5372 -20.5162,-5.5372 -15.0127,0 -28.1284,8.1224 -35.1918,20.2128 -3.5199,6.0248 -5.5372,13.0349 -5.5372,20.5162 0,15.0126 8.1224,28.1284 20.2127,35.1918 6.0249,3.5198 13.035,5.5371 20.5163,5.5371 15.0126,0 28.1284,-8.1223 35.1917,-20.2127 3.5199,-6.0249 5.5372,-13.0349 5.5372,-20.5162 m -1.5937,0 c 0,7.188 -1.9376,13.9235 -5.3196,19.7123 -6.7872,11.6175 -19.3898,19.4229 -33.8156,19.4229 -7.188,0 -13.9235,-1.9376 -19.7123,-5.3196 -11.6176,-6.7871 -19.4229,-19.3898 -19.4229,-33.8156 0,-7.188 1.9376,-13.9235 5.3195,-19.7123 6.7872,-11.6175 19.3898,-19.4229 33.8157,-19.4229 7.188,0 13.9235,1.9376 19.7123,5.3195 11.6175,6.7872 19.4229,19.3899 19.4229,33.8157"
       style="fill:#fddc00;fill-opacity:1;fill-rule:nonzero;stroke:none"
       transform="matrix(1.3333333,0,0,-1.3333333,0,1071)"
       clip-path="url(#clipPath5)" />
    <path
       id="path32"
       clip-path="url(#clipPath33)"
       style="fill:#002f45;fill-opacity:1;fill-rule:nonzero;stroke:none"
       transform="matrix(1.3333333,0,0,-1.3333333,0,1071)"
       d="m 497.5641,624.2911 c 0.163,-0.1676 0.1593,-0.4357 -0.008,-0.5987 -0.1433,-0.1394 -0.3644,-0.1596 -0.5306,-0.0485 l -0.1986,0.1178 -0.1066,0.0492 -0.1484,0.0594 0.0703,-0.0236 c -0.0233,0.006 0.1666,-0.0151 0.1109,-0.0144 l 0.1186,0.013 c -0.0538,-0.0126 0.2813,0.1677 0.2031,0.102 -0.2078,-0.1747 -0.5179,-0.1478 -0.6926,0.06 -0.1747,0.2079 -0.1479,0.518 0.06,0.6927 0.1564,0.1314 0.3778,0.1525 0.5561,0.0528 0.1999,-0.1117 0.0404,-0.0306 0.053,-0.0365 l 0.257,-0.1635 0.2561,-0.2617 z m -1.2125,0.3102 c 0.1537,0.2243 0.4601,0.2815 0.6843,0.1278 0.0505,-0.0346 0.094,-0.0783 0.1285,-0.1288 0.0321,-0.0471 -0.0444,0.0558 -0.0405,0.0515 0.0445,-0.0492 0.0786,-0.1068 0.1003,-0.1695 0.0186,-0.0538 -0.0457,0.0912 -0.0393,0.0817 l 0.9629,-0.8836 c 0.1671,-0.1634 0.1701,-0.4313 0.007,-0.5984 -0.1494,-0.1527 -0.3891,-0.1702 -0.559,-0.0408 -0.3333,0.2539 -0.928,0.5901 -1.2277,0.9791 -0.0391,0.0508 -0.0679,0.1087 -0.0849,0.1704 -0.0167,0.0608 -0.0913,0.1772 0.0686,0.4106 m -0.3819,-0.2598 c -0.2659,-0.0659 -0.535,0.0963 -0.6008,0.3623 -0.0582,0.2349 0.0616,0.4776 0.2835,0.5742 0.2185,0.0951 0.5099,0.0962 0.758,-0.005 l 0.5482,-0.3368 c 0.802,-0.7665 1.5004,-1.8625 1.5785,-1.9179 0.1908,-0.1354 0.2357,-0.3998 0.1003,-0.5906 -0.0839,-0.1182 -0.2224,-0.1853 -0.3672,-0.1779 -0.4309,0.0221 -0.402,0.1971 -0.5292,0.3261 -0.411,0.4171 -0.9846,1.1115 -1.4676,1.495 l -0.3187,0.261 0.015,0.01 z m 1.9289,-0.6291 c 0,-0.2641 -0.2141,-0.4782 -0.4782,-0.4782 -0.2641,0 -0.4782,0.2141 -0.4782,0.4782 0,0.2641 0.2141,0.4782 0.4782,0.4782 0.2641,0 0.4782,-0.2141 0.4782,-0.4782 m -1.6417,1.3952 c 0.1861,-0.1413 0.2223,-0.4068 0.081,-0.5929 -0.121,-0.1592 -0.337,-0.212 -0.5178,-0.1266 l -0.2505,0.1446 c -0.214,0.1212 -0.2891,0.3931 -0.1678,0.607 0.1213,0.214 0.3931,0.2892 0.6071,0.1679 0.0364,-0.0206 0.0697,-0.0463 0.099,-0.0762 z m -0.9508,-0.0871 c 0.0187,0.0962 0.0656,0.1847 0.1347,0.2542 0.2568,0.2582 0.3396,0.1537 0.415,0.1479 0.0703,-0.005 0.1387,-0.0253 0.2009,-0.0583 l 0.149,-0.0961 0.8032,-0.6339 0.3362,-0.2732 0.1398,-0.1201 0.1686,-0.125 -0.009,0.0186 c 0.2332,-0.124 0.3217,-0.4136 0.1976,-0.6468 -0.124,-0.2331 -0.4135,-0.3216 -0.6467,-0.1976 -0.012,0.006 -0.0237,0.0133 -0.0351,0.0206 l -0.1163,0.0761 -0.1286,0.0754 -0.1333,0.0721 -0.397,0.2666 -0.8004,0.6208 -0.0957,0.0933 c -0.0548,0.0453 -0.0996,0.1014 -0.1316,0.165 -0.023,0.0455 -0.1114,0.0324 -0.0517,0.3404 m 1.7643,-1.0037 c 0.1676,0.1906 0.458,0.2092 0.6486,0.0416 0.1906,-0.1677 0.2092,-0.4581 0.0416,-0.6487 -0.1677,-0.1906 -0.4581,-0.2092 -0.6487,-0.0416 -0.0981,0.0864 -0.1549,0.2104 -0.156,0.3411 -10e-4,0.1332 0.065,-0.2327 0.0481,-0.1994 -0.049,0.0968 0.0861,-0.1136 0.0789,-0.1072 l -0.0163,0.0121 c -0.1894,0.137 -0.2319,0.4015 -0.095,0.5909 0.1009,0.1395 0.2764,0.204 0.4436,0.163 l -0.0755,-0.004 -0.0842,-0.021 c 0.0401,0.0145 -0.2786,-0.2328 -0.1851,-0.1266 m -1.9757,0.9789 c -0.1629,0.1693 -0.1577,0.4386 0.0116,0.6015 0.1309,0.1259 0.3273,0.1548 0.4889,0.072 l 0.737,-0.4689 c 0.0532,-0.0365 0.0991,-0.0828 0.1351,-0.1363 l 0.1202,-0.1788 0.6441,-0.5428 c 0.1768,-0.1582 0.1918,-0.4297 0.0336,-0.6065 -0.151,-0.1688 -0.4071,-0.1913 -0.5853,-0.0515 l -0.7475,0.5992 -0.0896,0.0205 c -0.0602,0.0253 -0.1151,0.0619 -0.1616,0.1078 z m -0.4028,0.1418 c -0.1336,0.1923 -0.086,0.4565 0.1063,0.5901 0.0828,0.0576 0.1834,0.0837 0.2838,0.0738 l 0.3625,-0.1016 c 0.0567,-0.0234 0.1087,-0.0568 0.1536,-0.0986 l 0.323,-0.3147 1.7438,-1.4444 c 0.1876,-0.1396 0.2265,-0.4049 0.0869,-0.5925 -0.1295,-0.174 -0.3695,-0.2221 -0.556,-0.1113 -0.4437,0.2636 -1.1903,0.793 -1.9353,1.4256 l -0.3162,0.2499 c -0.0491,0.0362 -0.0912,0.0809 -0.1245,0.1319 z m 0.6942,-0.2383 c -0.2214,0.0771 -0.3384,0.3192 -0.2613,0.5406 0.0731,0.21 0.296,0.328 0.5108,0.2704 l 0.2652,-0.141 c 0.1868,-0.1449 0.2208,-0.4139 0.0759,-0.6008 -0.145,-0.1868 -0.4139,-0.2208 -0.6008,-0.0759 -0.005,0.004 -0.0102,0.008 -0.0151,0.0123 -0.0204,0.0174 0.0849,-0.0263 0.0253,-0.006 m -0.1082,0.5653 c 0.0236,0.0353 0.0518,0.0674 0.0839,0.0953 l 0.0553,0.0421 c 0.2354,0.1574 0.5539,0.0941 0.7113,-0.1413 0.0724,-0.1083 0.1009,-0.24 0.0797,-0.3685 l -0.0181,-0.0843 -0.1392,0.4535 0.5063,-0.4401 0.5019,-0.5121 0.3178,-0.3125 0.1507,-0.1363 0.1497,-0.1257 0.2529,-0.221 0.2386,-0.2193 c 0.4376,-0.4493 0.6081,-0.943 0.8517,-1.3695 0.116,-0.2029 0.0454,-0.4614 -0.1575,-0.5773 -0.1972,-0.1127 -0.4483,-0.0495 -0.5687,0.1431 -0.3002,0.4802 -0.4666,0.8734 -0.7634,1.1544 l -0.2032,0.1729 -0.2428,0.2008 -0.1625,0.1323 -0.166,0.1296 -0.3868,0.3703 -0.4646,0.4933 -0.4573,0.4588 0.4603,-0.1004 -0.0842,-0.0252 c -0.2751,-0.0672 -0.5526,0.1014 -0.6198,0.3765 -0.0302,0.1236 -0.0133,0.2539 0.0472,0.3657 z m 1.1976,-1.625 c -0.1689,0.162 -0.1745,0.4302 -0.0125,0.5991 0.1536,0.1601 0.4047,0.1746 0.5757,0.0333 l 0.4588,-0.3817 -0.535,0.0327 0.0584,0.0353 c 0.2491,0.1342 0.5599,0.0411 0.6941,-0.208 0.002,-0.004 0.004,-0.008 0.006,-0.0122 l 0.0633,-0.1237 -0.1105,0.1386 0.4246,-0.3669 c 0.3663,-0.3377 0.6426,-0.7303 0.9012,-1.2133 l 0.3686,-0.7137 0.1384,-0.2322 0.3363,-0.6685 c 0.1298,-0.1943 0.0774,-0.4571 -0.1169,-0.5868 -0.1536,-0.1025 -0.3558,-0.0937 -0.4998,0.0218 -0.2387,0.1916 -0.3927,0.4513 -0.5568,0.6763 l -0.1858,0.3166 -0.3722,0.7188 c -0.2177,0.4376 -0.4082,0.7269 -0.6672,0.9842 l -0.3874,0.3866 0.148,-0.0971 -0.127,0.0508 c -0.2637,0.1026 -0.3944,0.3996 -0.2918,0.6633 0.003,0.007 0.005,0.0134 0.008,0.02 l 0.0287,0.0582 0.08,-0.5309 -0.4279,0.3994 z m 1.7942,-1.9611 c -0.089,0.2174 0.0152,0.4658 0.2326,0.5547 0.1811,0.0742 0.3893,0.0152 0.5047,-0.1429 l 0.4785,-0.7054 0.1432,-0.3582 c 0.2619,-0.4484 0.5731,-0.8312 0.7499,-1.5857 0.0533,-0.2275 -0.0879,-0.4552 -0.3154,-0.5085 -0.2215,-0.0519 -0.4444,0.0806 -0.5046,0.2999 -0.1649,0.6005 -0.404,0.8155 -0.763,1.3911 l -0.1301,0.1454 z m 0.01,0.3015 c 0.0441,0.2317 0.2677,0.3838 0.4994,0.3396 0.166,-0.0316 0.2977,-0.1581 0.336,-0.3227 l 0.3495,-0.5947 c 0.3645,-0.7922 0.7971,-1.5076 0.8511,-2.2362 0.0183,-0.2464 -0.1666,-0.4609 -0.413,-0.4792 -0.2204,-0.0163 -0.4197,0.1307 -0.4691,0.346 -0.0936,0.4076 -0.5246,1.0513 -0.9304,1.7533 -0.1576,0.4304 -0.2992,0.7966 -0.2235,1.1939 m 0.3513,-0.9611 c -0.0492,0.2371 0.1032,0.4691 0.3403,0.5183 0.1844,0.0382 0.3727,-0.0457 0.4676,-0.2083 l 0.4361,-0.8361 c 0.0241,-0.0506 0.0405,-0.1045 0.0485,-0.16 l 0.0699,-0.5597 0.1498,-0.8951 c 0.005,-0.2337 -0.1812,-0.4267 -0.4149,-0.4313 -0.2181,-0.004 -0.4036,0.1581 -0.4285,0.3749 l -0.1936,0.7648 -0.219,0.3936 c -0.0275,0.0487 -0.0474,0.1013 -0.0592,0.156 z m 0.3623,-0.3796 c 0.0627,0.2261 0.2968,0.3585 0.5229,0.2959 0.0815,-0.0227 0.1545,-0.0691 0.2094,-0.1334 l -0.0271,0.0173 c 0.2014,-0.1177 0.2981,-0.3564 0.2353,-0.581 l -0.0462,-0.1346 0.0283,0.2282 0.0149,-0.0998 -0.2175,0.3074 0.139,-0.0887 c 0.0815,-0.061 0.1425,-0.1455 0.1749,-0.242 l 0.1463,-0.549 0.129,-1.2428 c 0.0128,-0.2334 -0.166,-0.4329 -0.3993,-0.4458 -0.1995,-0.0109 -0.3795,0.1192 -0.4317,0.312 l -0.2684,1.1274 -0.1262,0.4803 c -0.0323,0.0966 -0.0343,0.2008 -0.006,0.2986 l 0.045,0.132 0.0315,-0.3752 -0.0582,0.0959 0.1654,-0.1612 -0.1637,0.1192 c -0.1713,0.1588 -0.2136,0.4132 -0.103,0.6189 l 0.005,0.0204 z m 0.3598,-0.6707 c 0.1057,0.2177 0.3679,0.3084 0.5856,0.2026 0.08,-0.0389 0.1464,-0.1013 0.1901,-0.1789 l 0.1155,-0.213 c 0.0305,-0.0589 0.05,-0.1229 0.0573,-0.1889 l 0.0647,-0.5602 0.0257,-0.4985 0.0218,-0.7277 c 0.003,-0.0686 -0.009,-0.1371 -0.0341,-0.201 l -0.0359,-0.1014 c -0.074,-0.2322 -0.3222,-0.3603 -0.5543,-0.2863 -0.1134,0.0362 -0.2073,0.1166 -0.2606,0.223 l -0.0522,0.0977 c -0.0342,0.0596 -0.0558,0.1257 -0.0635,0.194 l -0.0801,0.7202 -0.0463,0.4608 -0.0578,0.5691 c -0.006,0.0659 -3e-4,0.1324 0.0175,0.1961 z m -9.8537,6.3092 c 0.2517,0.009 0.4633,-0.1869 0.4727,-0.4386 0.009,-0.2516 -0.187,-0.4632 -0.4386,-0.4726 -0.006,-3e-4 -0.0112,-4e-4 -0.0168,-4e-4 l -0.5503,0.0101 -0.3258,-0.0138 -0.2742,-0.0512 -0.0326,-0.015 0.032,0.0155 0.0448,0.0267 c -0.0222,-0.0149 0.1713,0.1752 0.1106,0.1009 -0.1812,-0.2219 -0.508,-0.2549 -0.7299,-0.0737 -0.2218,0.1813 -0.2548,0.508 -0.0736,0.7299 0.1812,0.2219 0.508,0.2548 0.7298,0.0736 0.1123,-0.0917 0.1811,-0.2262 0.1897,-0.371 0.009,-0.1441 -0.1106,0.2941 -0.0805,0.2474 0.0511,-0.0794 -0.1558,0.1544 -0.1249,0.1321 0.0484,-0.0348 -0.1074,0.0565 -0.091,0.0502 l 0.0145,10e-4 0.2412,0.0202 0.3655,0.0189 0.5374,0.01 z m -1.7746,-0.857 c -0.1924,0.2159 -0.1734,0.5469 0.0424,0.7394 0.1722,0.1534 0.4244,0.1762 0.6212,0.0561 0.0878,-0.0535 -0.2638,0.0782 -0.2126,0.0726 0.0853,-0.009 -0.1688,-0.01 -0.1452,-0.005 l 0.1334,0.0445 1.1525,0.194 0.5427,0.0518 0.2146,0.0294 0.2362,0.0269 -0.185,-0.1059 c 0.025,0.0238 -0.1165,-0.1661 -0.0861,-0.1116 0.0283,0.0509 -0.0664,-0.3084 -0.0616,-0.2154 0.004,0.0844 0.1015,-0.3435 0.0586,-0.263 -0.0368,0.0691 0.1705,-0.1896 0.1277,-0.155 -0.0694,0.0563 0.1881,-0.0956 0.1544,-0.0846 -0.0825,0.027 0.0839,-0.0171 0.0673,-0.0167 l -0.1509,-0.002 -1.0089,-0.0913 -0.6535,-0.074 -0.1847,-0.0272 -0.1636,-0.0396 -0.0833,-0.0167 0.063,0.0308 0.0699,0.0588 0.0634,0.0794 c -0.0262,-0.0401 0.0991,0.2853 0.0789,0.1906 l -0.9888,0.5371 c 0.2753,0.2754 0.3636,0.1723 0.4088,0.1734 l 0.274,-0.0152 0.9316,0.0737 0.8811,0.0848 0.2513,0.0299 0.3086,0.0207 -0.0181,-3e-4 -0.0737,-0.0281 c 0.0227,0.0107 -0.141,-0.0935 -0.0969,-0.0595 l -0.085,-0.0817 c 0.0348,0.0417 -0.1339,-0.3003 -0.1057,-0.2005 0.0816,0.2893 0.3823,0.4575 0.6715,0.3759 0.2893,-0.0816 0.4575,-0.3823 0.3759,-0.6715 -0.06,-0.2126 -0.2425,-0.3678 -0.4619,-0.3929 l -0.1195,-0.008 -0.2286,-0.0478 -0.2972,-0.0423 -0.8675,-0.1114 -1.0199,-0.1018 -0.2549,0.003 -0.0385,0.002 0.0605,0.004 c -0.0242,-0.003 0.1796,0.05 0.119,0.0284 -0.0333,-0.0119 0.182,0.1009 0.1288,0.0651 -0.0571,-0.0385 0.2455,0.3146 0.188,0.2077 -0.1536,-0.2854 -0.5093,-0.3923 -0.7947,-0.2388 -0.2854,0.1536 -0.3923,0.5094 -0.2388,0.7947 0.0532,0.0988 0.1335,0.1803 0.2316,0.2348 l 0.3608,0.1012 0.1262,0.007 0.2102,0.0215 0.1885,0.022 0.6779,0.0682 1.055,0.1017 0.2815,-0.005 c 0.1498,-0.0261 0.3947,0.0542 0.5303,-0.4106 0.0789,-0.2706 -0.131,-0.5361 -0.2308,-0.5979 l -0.1765,-0.0728 -0.3218,-0.0815 -0.2715,-0.0452 -0.5265,-0.0737 -1.0589,-0.1633 -0.0847,-0.0217 -0.0999,-0.0219 c -0.0579,-0.009 -0.2051,-0.1504 -0.4916,0.1709 m 3.1651,1.2297 c 0.1218,-0.0674 0.2132,-0.1788 0.2557,-0.3113 0.1074,-0.3357 -0.0618,-0.4845 -0.1397,-0.5613 -0.3759,-0.3705 -0.3445,-0.1654 -0.366,-0.171 l -0.4731,-0.052 -1.7644,-0.1895 -0.6035,-0.1197 -0.2877,-0.0553 -0.2001,-0.0555 -0.3934,-0.0394 c -0.2453,0.0381 -0.4386,0.2291 -0.4794,0.474 -0.1011,0.6061 0.2144,0.5564 0.2743,0.5931 l 0.1488,0.0703 0.4309,0.1007 0.2814,0.0516 0.6958,0.0869 1.7669,0.2879 0.4917,-0.002 0.3618,-0.1079 z m -3.3209,-1.0997 c -0.0622,-0.3112 -0.365,-0.5131 -0.6762,-0.4508 -0.3113,0.0622 -0.5131,0.365 -0.4509,0.6762 0.0153,0.0765 0.046,0.1491 0.0902,0.2133 0.2053,0.298 0.3387,0.2353 0.3889,0.2429 l 0.311,6e-4 0.4749,0.0615 1.5371,0.1963 1.1384,0.0694 0.38,0.0214 0.0763,0.001 0.0393,0.009 -0.0421,-0.0138 -0.0601,-0.0277 c 0.0295,0.016 -0.1706,-0.1411 -0.1205,-0.0905 0.206,0.2076 0.5413,0.209 0.749,0.003 0.0802,-0.0796 0.1329,-0.1828 0.1503,-0.2945 0.0401,-0.257 -0.1133,-0.4345 -0.1982,-0.501 -0.4059,-0.318 -0.3555,-0.1205 -0.4078,-0.1214 l -0.1083,-0.003 -1.2872,-0.1233 -0.7508,-0.0871 -0.2936,-0.0338 -0.3074,-0.0273 -0.2291,-0.009 -0.2377,-0.0331 -0.4543,-0.0752 -0.2131,-0.0438 -0.0835,-0.0216 c -0.004,-0.001 0.1471,0.087 0.0829,0.044 l 0.0727,0.0589 c -0.0241,-0.0234 0.1127,0.1502 0.0828,0.1024 -0.0236,-0.0377 0.0816,0.2096 0.0648,0.1479 -0.0264,-0.0966 -0.0552,0.4488 -0.0143,0.3373 0.04,-0.1093 -0.2208,0.2817 -0.1641,0.2341 0.0466,-0.0309 -0.2744,0.1239 -0.2295,0.114 0.069,-0.0152 -0.1204,0.0109 -0.108,0.0113 l 0.1244,0.0128 h 0.8125 l 0.5541,0.004 0.8439,0.1034 0.7015,0.1049 0.7275,0.1113 0.2335,0.0365 0.1967,0.0294 c 0.3195,0.0802 0.6435,-0.1138 0.7237,-0.4333 0.0802,-0.3195 -0.1138,-0.6435 -0.4333,-0.7236 -0.0121,-0.003 -0.0243,-0.006 -0.0365,-0.008 l -0.2761,-0.0331 -0.2319,-0.0343 -0.7332,-0.0996 -0.6993,-0.1057 -0.9571,-0.1245 -0.6077,0.004 -0.7568,0.0326 -0.1415,-0.004 c -0.0683,0 -0.2042,-0.1229 -0.4898,0.2052 -0.1102,0.1039 -0.1621,0.4811 -0.0648,0.6515 0.2451,0.4292 0.3188,0.2656 0.3812,0.285 l 0.1852,0.0471 0.2409,0.0455 0.5168,0.0859 0.3645,0.0173 0.1842,0.005 0.2517,0.025 0.2813,0.0367 0.7395,0.1071 1.3787,0.1095 0.2156,-0.0135 0.044,-0.004 -0.0246,5e-4 -0.0701,-0.006 -0.0967,-0.0244 c 0.0492,0.0175 -0.2782,-0.208 -0.2005,-0.1284 l 0.9017,-0.2854 c 0.0654,-0.4042 -0.159,-0.4818 -0.2209,-0.5275 l -0.1114,-0.0672 -0.354,-0.0881 -0.4185,-0.0326 -1.0769,-0.1087 -1.505,-0.1749 -0.5651,-0.0777 -0.2241,-0.004 -0.0435,8e-4 0.0416,0.003 c -0.0189,-0.002 0.1632,0.0409 0.1045,0.0223 -0.033,-0.0105 0.2123,0.1149 0.1453,0.07 -0.0362,-0.0243 0.1702,0.1694 0.125,0.1139 -0.0476,-0.0585 0.1392,0.3565 0.1179,0.25 m 4.0875,0.6555 c 0.1287,-0.2891 0.01,-0.6285 -0.2708,-0.7743 -0.3151,-0.1637 -0.2472,-0.0676 -0.2678,-0.0684 l -0.1601,-0.005 -0.3416,-0.004 -1.0901,-0.0917 -0.8006,-0.1256 -0.9508,-0.1976 -0.4454,-0.1004 -0.3605,-0.0893 -0.2187,-0.0581 -0.1357,-0.0272 c -0.0186,-0.004 0.1375,-0.0501 -0.2105,-0.0176 -0.2769,0.0258 -0.4949,0.2475 -0.5161,0.5247 -0.0293,0.3817 0.1178,0.4003 0.1644,0.4477 0.2219,0.226 0.2626,0.1688 0.3664,0.2005 l 0.2954,0.0568 0.3597,0.0842 0.451,0.0958 1.0392,0.1529 0.8027,0.1494 1.1367,0.2075 0.4075,0.0194 0.2435,-0.018 0.1121,-0.0246 c 0.0508,-0.0151 0.1497,0.2035 0.3901,-0.3367 m -4.8257,-1.4211 c -0.2366,-0.2063 -0.5957,-0.1817 -0.802,0.055 -0.2063,0.2366 -0.1817,0.5957 0.055,0.802 0.2366,0.2063 0.5957,0.1817 0.802,-0.0549 0.0188,-0.0217 0.036,-0.0447 0.0514,-0.0689 l -0.0705,0.0897 -0.3318,0.1685 c 0.0728,-0.01 -0.1393,-0.003 -0.1233,-3e-4 l 0.1602,0.0452 0.29,0.0209 0.0619,0.0366 1.7388,0.3052 0.8117,0.1521 0.3562,0.0623 0.2856,0.0306 c -0.0841,-0.0243 -0.1903,-0.094 -0.1389,-0.0569 l -0.0611,-0.0523 -0.0737,-0.0909 c 0.0221,0.0338 -0.0862,-0.1983 -0.0662,-0.1379 0.0156,0.0474 -0.032,-0.2442 -0.0303,-0.1748 0.003,0.1084 0.1793,-0.4673 0.1044,-0.3563 -0.0737,0.1093 0.3122,-0.2432 0.2413,-0.209 -0.071,0.0343 -0.1349,0.0818 -0.1881,0.1401 -0.0926,0.1013 0.3319,-0.1916 0.2621,-0.169 -0.1087,0.0353 0.2207,-0.0282 0.1902,-0.0288 l -0.0148,-0.004 -0.4468,-0.0535 -0.7187,-0.0564 -0.3479,-10e-4 -0.2111,5e-4 0.0451,0.008 0.0522,0.0166 c -0.0279,-0.0104 0.2563,0.1696 0.1603,0.0917 -0.2474,-0.2006 -0.6105,-0.1626 -0.811,0.0847 -0.2006,0.2474 -0.1627,0.6105 0.0847,0.811 0.2211,0.1793 0.54,0.1704 0.7508,-0.021 0.0597,-0.0543 -0.1619,0.1047 -0.131,0.0894 0.1006,-0.0499 -0.1682,0.0531 -0.1474,0.0493 l 0.0669,-0.003 0.1434,0.003 0.2387,0.0271 0.595,0.1195 0.5557,0.0768 0.103,0.005 c 0.0638,7e-4 0.2992,0.1591 0.5746,-0.316 0.0385,-0.0665 0.0644,-0.1395 0.0762,-0.2153 0.069,-0.4421 -0.2714,-0.6234 -0.3495,-0.6612 l -0.3031,-0.0829 -0.2942,-0.0494 -0.354,-0.0482 -0.8352,-0.1106 -1.7613,-0.2754 -0.2917,-0.0394 0.0722,0.002 c -0.0248,-0.007 -0.0786,-0.1054 -0.4175,-0.0944 l 0.3592,0.1133 0.0323,0.0261 z m 1.3835,0.4612 c -0.2741,0.1638 -0.3635,0.5187 -0.1998,0.7928 0.0176,0.0294 0.0378,0.0573 0.0603,0.0831 l 0.1675,0.1325 c 0.069,0.0364 0.1447,0.0584 0.2224,0.0648 l 0.1987,0.008 0.0989,0.007 0.5025,0.044 0.8244,0.0829 0.9847,0.0504 0.4222,-10e-4 0.2532,-3e-4 0.2475,-0.0109 0.0401,-0.003 -0.0343,-5e-4 -0.0598,-0.007 c 0.0307,0.005 -0.2043,-0.0748 -0.1391,-0.0441 0.2851,0.1338 0.6247,0.0113 0.7586,-0.2738 0.1028,-0.219 0.0562,-0.4791 -0.1162,-0.6488 -0.4391,-0.4321 -0.4402,-0.1734 -0.5005,-0.1731 l -0.1339,-10e-4 -0.3263,-10e-4 -0.3901,-0.001 -0.9074,-0.0404 -0.8285,-0.0724 -0.3607,-0.0281 -0.282,-0.0273 -0.117,-0.006 c -0.0757,-0.0116 -0.153,-0.008 -0.2273,0.0105 l -0.1581,0.0651 z m 4.3924,0.5431 c -0.0346,-0.1362 -0.1172,-0.2553 -0.2326,-0.3354 -0.4176,-0.2899 -0.3642,-0.1074 -0.4049,-0.1052 l -0.0896,0.006 -0.3438,0.012 -0.7881,0.1279 -0.2573,0.066 -0.0559,-0.0102 -0.0751,-0.008 0.0216,0.005 c -0.0207,-0.005 0.2635,0.1347 0.1589,0.0683 -0.2695,-0.171 -0.6266,-0.0911 -0.7976,0.1784 -0.1709,0.2695 -0.0911,0.6265 0.1784,0.7975 0.024,0.0153 0.0492,0.0288 0.0752,0.0403 0.3593,0.1594 0.345,0.0424 0.3818,0.0347 l 0.192,-0.0425 0.9964,-0.0829 1.6564,-0.1601 0.3481,-0.1828 c 0.1839,-0.1508 0.2107,-0.4222 0.0598,-0.6061 -0.0596,-0.0726 -0.1413,-0.1237 -0.2327,-0.1456 l -0.1588,-0.0364 -1.7333,0.0427 -1.0498,0.0546 -0.208,0.0222 c -0.0216,0.002 0.1418,0.0173 0.0862,0.008 -0.0311,-0.005 0.1941,0.0667 0.1337,0.04 -0.066,-0.0292 0.3307,0.3394 0.2471,0.2108 l -0.9148,0.7008 c 0.3739,0.4169 0.3909,0.2064 0.4775,0.2189 l 0.4005,-10e-4 0.2374,-0.0173 0.6168,-0.0426 c 0.1913,-0.0106 0.3231,0.0209 0.5964,-0.0746 l 0.2845,-0.1761 0.1117,-0.1315 c 0.0435,-0.0669 0.1776,-0.0997 0.0819,-0.4762 m 3.2682,-0.8773 c 0,-0.2968 -0.2406,-0.5375 -0.5375,-0.5375 -0.2968,0 -0.5375,0.2407 -0.5375,0.5375 0,0.2969 0.2407,0.5375 0.5375,0.5375 0.2969,0 0.5375,-0.2406 0.5375,-0.5375 m -0.53,0.2782 c 0.221,0.154 0.525,0.0997 0.6789,-0.1213 0.154,-0.221 0.0997,-0.5249 -0.1212,-0.6789 -0.3389,-0.2361 -0.6397,-0.0705 -0.7953,0.0473 -0.0448,0.0339 -0.0833,0.0753 -0.114,0.1223 l -0.1088,0.3892 c 0.0144,0.2421 0.2224,0.4266 0.4645,0.4121 0.0715,-0.004 0.1408,-0.0259 0.2019,-0.0631 0.0534,-0.0324 -0.0586,0.0106 -0.006,-0.005 0.0546,-0.0168 0.1059,-0.043 0.1514,-0.0775 l -0.0762,0.0338 -0.1104,0.005 c 0.0506,0.006 -0.217,-0.0999 -0.1646,-0.0634 m 0.1331,-0.7969 c -0.2865,-0.0777 -0.5817,0.0916 -0.6593,0.3781 -0.0777,0.2865 0.0916,0.5817 0.3781,0.6594 0.2865,0.0776 0.5817,-0.0917 0.6594,-0.3782 0.003,-0.0104 0.005,-0.0209 0.007,-0.0314 0.0139,-0.0672 -0.0521,0.141 -0.0413,0.1195 l 0.091,-0.1117 0.2322,-0.3046 c 0.1726,-0.1575 0.1848,-0.4252 0.0272,-0.5978 -0.1429,-0.1565 -0.3795,-0.1831 -0.5537,-0.0623 l -0.3451,0.3476 0.037,-0.0321 0.0177,-0.002 c -0.0188,0.001 0.2539,0.044 0.1493,0.0157 m -0.4083,0.2168 c -0.0848,0.2178 0.023,0.4631 0.2407,0.5479 0.0178,0.007 0.036,0.0126 0.0546,0.0171 l 0.267,0.0186 c 0.0937,-0.006 0.1841,-0.0371 0.2612,-0.0906 l 0.6071,-0.4726 0.7022,-0.6198 c 0.1626,-0.1763 0.1516,-0.451 -0.0246,-0.6136 -0.1593,-0.147 -0.4025,-0.154 -0.57,-0.0166 l -0.7041,0.4711 -0.5648,0.3908 c -0.0811,0.0484 -0.1474,0.1182 -0.1913,0.2018 z m -0.0816,0.2223 c 0.005,0.0629 0.0205,0.1245 0.0469,0.1818 0.085,0.1849 0.1526,0.2006 0.2093,0.2368 0.1169,0.0744 0.2574,0.1022 0.3938,0.0778 l 0.4532,-0.1786 1.0319,-0.8658 0.4005,-0.4543 0.2149,-0.2511 0.1574,-0.197 0.4134,-0.5284 c 0.1708,-0.1595 0.1799,-0.4273 0.0204,-0.5981 -0.1407,-0.1506 -0.3694,-0.1779 -0.5416,-0.0647 l -0.5807,0.5379 -0.15,0.104 -0.2785,0.2008 -0.4381,0.3652 -0.8682,0.7465 -0.2172,0.167 c -0.1178,0.0712 -0.2048,0.1837 -0.244,0.3156 z m 1.8533,-1.5111 c -0.1597,0.1733 -0.1486,0.4433 0.0247,0.603 0.159,0.1464 0.4023,0.1509 0.5665,0.0104 l 0.2062,-0.1804 0.2821,-0.2636 0.0929,-0.0209 c 0.0629,-0.0318 0.1186,-0.0762 0.1636,-0.1304 l 0.5396,-0.7924 c 0.1381,-0.1955 0.0916,-0.466 -0.1039,-0.6041 -0.1738,-0.1228 -0.4111,-0.1013 -0.5599,0.0509 l -0.6066,0.6279 c -0.0539,0.0464 -0.0975,0.1034 -0.1282,0.1676 l -0.0975,0.194 -0.1709,0.1236 z m -0.3824,0.3947 c -0.0879,0.2195 0.0188,0.4687 0.2383,0.5566 0.0284,0.0113 0.0579,0.0196 0.088,0.0247 0.1937,0.0326 0.3135,-0.0212 0.4325,-0.0703 0.1039,-0.0429 0.1911,-0.1184 0.2483,-0.2151 l 0.1122,-0.187 c 0.5539,-0.557 1.406,-1.4815 1.5855,-2.2588 0.0537,-0.2325 -0.0913,-0.4646 -0.3238,-0.5183 -0.2263,-0.0522 -0.4534,0.0837 -0.5143,0.3079 -0.07,0.2579 -0.9053,1.3575 -1.4605,1.9082 l -0.0593,0.0135 c -0.1019,0.0464 -0.1859,0.1245 -0.2396,0.2227 z m 0.2048,-0.2385 c -0.0224,0.1763 0.0674,0.3478 0.225,0.4299 l 0.2633,0.0692 c 0.2125,0.0149 0.412,-0.1032 0.5013,-0.2966 l 0.0568,-0.1236 -0.1234,0.1596 c 0.3401,-0.2776 0.6904,-0.691 1.0076,-1.1359 0.4251,-0.6706 0.6613,-1.3138 0.835,-1.5858 0.1273,-0.1992 0.0689,-0.464 -0.1303,-0.5913 -0.1848,-0.118 -0.4289,-0.0774 -0.5654,0.0941 -0.3213,0.4034 -0.5569,0.9882 -0.9339,1.5162 l -0.8038,1.0344 0.175,-0.1034 -0.048,0.0123 c -0.2113,0.027 -0.3839,0.1818 -0.4337,0.3889 z m 0.3458,-0.2159 c -0.0757,0.2226 0.0432,0.4644 0.2658,0.5402 0.1885,0.0641 0.3963,-0.0109 0.5002,-0.1808 l 0.2208,-0.2148 0.2866,-0.3779 0.4967,-0.7099 0.478,-1.0087 0.3772,-0.6684 c 0.1223,-0.2005 0.059,-0.4622 -0.1415,-0.5845 -0.193,-0.1177 -0.4443,-0.0639 -0.5721,0.1225 l -0.4599,0.7182 -0.5468,0.8462 -0.4222,0.7817 -0.1793,0.2401 z m 14.9959,-7.4069 c 0.1899,0.1363 0.4543,0.0928 0.5905,-0.097 l 0.1019,-0.2165 c 0.0278,-0.0658 0.0415,-0.1367 0.0403,-0.2081 l 0.0121,-0.3052 0.006,-0.7548 0.003,-0.3945 0.0117,-0.1504 0.006,-0.258 -0.006,-0.2274 0.0114,-0.3926 0.0739,-0.5728 0.0272,-0.2273 0.0637,-0.3064 0.0746,-0.3376 0.0846,-0.3285 0.1006,-0.373 0.0469,-0.2811 0.0883,-0.3006 0.0501,-0.1287 0.436,-1.0798 0.1798,-0.4486 0.1034,-0.2707 0.0731,-0.1605 0.0998,-0.2141 0.2495,-0.4862 0.1478,-0.2154 c 0.0341,-0.1929 0.1266,-0.2061 0.1612,-0.2506 l 0.1786,-0.2177 c 0.0689,-0.2462 0.1704,-0.3582 0.2564,-0.451 l 0.2687,-0.2504 c 0.0586,-0.0788 0.1263,-0.1538 0.2268,-0.2113 l 0.1302,-0.1213 c 0.1598,-0.1675 0.3166,-0.3028 0.5136,-0.3883 l 0.217,-0.411 c 0.1042,-0.2358 -0.002,-0.5114 -0.2382,-0.6156 -0.0799,-0.0353 -0.1681,-0.0475 -0.2545,-0.0352 l -0.2462,-0.0173 c -0.0777,-0.0126 -0.1569,-0.0126 -0.2346,0 l -0.3387,0.0726 c -0.0793,0.0235 -0.1546,0.059 -0.2232,0.1054 l -0.2815,0.2355 -0.2908,0.3653 -0.1954,0.2842 -0.3506,0.3519 -0.1413,0.182 -0.1621,0.2473 -0.1062,0.215 -0.0678,0.1333 -0.1825,0.2603 -0.2811,0.7039 -0.0774,0.1569 -0.0951,0.2197 -0.1163,0.2438 -0.1528,0.4732 -0.401,1.1562 -0.0541,0.1414 -0.14,0.5378 -0.021,0.1961 -0.0893,0.2742 -0.1029,0.4559 -0.0403,0.3267 -0.08,0.3906 -0.0245,0.2464 -0.049,0.6578 -0.005,0.4948 -0.007,0.1137 0.007,0.3102 0.0137,0.1948 0.003,0.4041 0.0747,0.7134 0.0346,0.4042 c 0.0106,0.0706 0.0359,0.1383 0.0741,0.1986 l 0.2139,0.2383 z m 0.7042,-0.9425 c -0.0791,-0.2205 -0.322,-0.3352 -0.5426,-0.2561 -0.1193,0.0428 -0.2132,0.1368 -0.256,0.2561 l -0.0433,0.1529 -0.005,0.0177 0.0182,-0.0413 0.0373,-0.0601 0.0466,-0.0541 c -0.0233,0.0232 0.19,-0.1235 0.121,-0.0881 -0.241,0.1239 -0.3361,0.4196 -0.2123,0.6607 0.1239,0.241 0.4196,0.3361 0.6607,0.2122 0.241,-0.1238 0.3361,-0.4196 0.2122,-0.6606 -0.0468,-0.0912 -0.121,-0.1654 -0.2122,-0.2123 -0.069,-0.0354 0.1443,0.1113 0.121,0.0881 -0.0772,-0.077 0.1007,0.1498 0.0913,0.1293 l -0.0372,-0.1444 z m -0.8989,0.4311 c 0.0368,0.2759 0.2904,0.4697 0.5663,0.4329 0.2255,-0.0302 0.4028,-0.2075 0.4329,-0.4329 l 0.0107,-0.1281 0.0182,-0.2342 0.0126,-0.6673 -0.0563,-0.7728 -0.1303,-0.4855 c -0.0533,-0.2302 -0.2831,-0.3736 -0.5133,-0.3203 -0.1565,0.0363 -0.2795,0.1571 -0.3185,0.3129 l -0.0843,0.4838 0.0205,0.7682 0.0118,0.6608 0.0228,0.2943 0.007,0.0882 z m 0.0469,0.414 c 0.008,0.2501 0.2168,0.4464 0.4668,0.4387 0.2305,-0.007 0.4188,-0.1864 0.4373,-0.4163 l 0.0169,-0.37 -0.0535,0.2124 0.0683,-0.1402 c 0.0554,-0.1219 0.0637,-0.26 0.0232,-0.3877 l -0.0663,-0.2153 0.003,-0.2343 -0.0182,-0.54 -0.1612,-1.5608 c -0.0341,-0.2625 -0.2746,-0.4477 -0.5371,-0.4135 -0.246,0.0319 -0.427,0.2463 -0.4171,0.4942 l 0.0708,1.5173 0.0555,0.5884 0.0542,0.3569 -0.0331,0.0715 c -0.0245,0.1316 6e-4,0.2676 0.0704,0.3818 l 0.0708,0.1142 -0.0702,-0.2077 z m -13.1494,5.8079 c 0.0767,0.2208 0.3179,0.3375 0.5386,0.2608 0.1636,-0.0569 0.2761,-0.2078 0.2838,-0.3808 l 0.0773,-0.2279 0.1111,-0.3792 0.4111,-1.0943 0.1538,-0.6114 0.084,-0.9522 c -0.007,-0.234 -0.2016,-0.4184 -0.4356,-0.4118 -0.1969,0.005 -0.3641,0.146 -0.4034,0.339 l -0.2182,0.7291 -0.2031,0.5499 -0.306,1.1645 -0.1128,0.2158 c -0.065,0.3549 -0.0552,0.5838 0.0194,0.7985 m -0.065,-0.6742 c -0.0722,0.2223 0.0495,0.461 0.2718,0.5332 0.1789,0.0581 0.3748,-0.009 0.4806,-0.1646 l 0.3682,-0.7727 c 0.0249,-0.0663 0.0357,-0.1371 0.0319,-0.2079 l -0.006,-0.1932 -0.0468,0.2038 0.1696,-0.3644 0.1272,-0.5079 0.1294,-0.5322 0.0489,-0.2662 0.0186,-0.2729 0.1219,-0.6651 0.0352,-0.8486 c -0.007,-0.2336 -0.2012,-0.4176 -0.4348,-0.4111 -0.1915,0.005 -0.3554,0.1387 -0.3998,0.325 l -0.2196,0.6218 -0.1589,0.8844 -0.0313,0.1648 -0.0491,0.2469 -0.0847,0.5596 -0.074,0.3931 -0.0409,0.4356 0.067,-0.1991 -0.1113,0.172 c -0.039,0.0592 -0.0654,0.1259 -0.0773,0.1959 l -0.1362,0.6698 z m -0.2176,1.3987 c -0.0346,0.2404 0.1322,0.4634 0.3726,0.498 0.2388,0.0345 0.4607,-0.1299 0.4974,-0.3683 l 0.0445,-0.2206 0.0739,-0.2325 0.0224,-0.0532 0.1686,-0.5836 0.129,-0.446 0.1281,-0.4417 0.2256,-1.0421 0.1039,-0.5574 0.1982,-1.5178 0.0169,-0.9684 c -0.056,-0.4674 -0.144,-0.8611 -0.3111,-1.2202 -0.1114,-0.2395 -0.3959,-0.3433 -0.6354,-0.2319 -0.1953,0.0909 -0.3057,0.3011 -0.2698,0.5135 l -10e-4,0.8866 -0.0442,0.9312 -0.122,1.436 -0.0546,0.5575 -0.1497,0.9796 -0.0674,0.4611 -0.0801,0.4378 -0.0998,0.525 -0.0285,0.1032 -0.0629,0.2642 z m 0.4575,0.5031 c 0.0344,-0.2312 -0.1252,-0.4464 -0.3563,-0.4808 -0.2141,-0.0318 -0.4176,0.103 -0.4719,0.3125 -0.0445,0.172 -0.1499,0.2687 0.0169,0.5806 0.1161,0.2169 0.386,0.2987 0.6029,0.1826 0.2169,-0.116 0.2986,-0.3859 0.1826,-0.6028 -0.0272,-0.0508 -0.064,-0.0958 -0.1083,-0.1326 -0.086,-0.0714 0.129,0.1995 0.1175,0.1658 -0.0259,-0.0758 0.007,0.0373 0.0166,-0.0253 m -0.83,-0.1133 c -0.1737,0.24 -0.1199,0.5753 0.1201,0.749 0.1007,0.0728 0.2235,0.1084 0.3476,0.1008 0.2918,-0.0181 0.345,-0.1236 0.4237,-0.1955 l 0.2831,-0.6149 0.0875,-0.3657 0.1347,-0.5477 0.1008,-0.4775 0.0526,-0.1656 0.0721,-0.1913 0.1298,-0.3764 0.1525,-0.5426 0.2465,-0.8887 0.2181,-1.3597 c 0.0434,-0.2297 -0.1075,-0.451 -0.3372,-0.4944 -0.203,-0.0384 -0.404,0.0754 -0.4755,0.2692 l -0.4081,1.2975 -0.2523,0.8862 -0.1503,0.4969 -0.1231,0.3532 -0.0664,0.2258 -0.0789,0.2234 -0.1317,0.505 -0.1277,0.5324 -0.0993,0.2833 -0.0616,0.1919 z m -0.2799,0.5252 c -0.0107,0.2649 0.1954,0.4884 0.4603,0.4991 0.1873,0.008 0.3618,-0.0945 0.447,-0.2614 l 0.1034,-0.1456 0.1066,-0.1723 0.1507,-0.2344 0.1548,-0.4493 0.1001,-0.4304 0.124,-0.5592 0.1501,-0.4742 0.1936,-0.5505 0.2088,-0.7 0.1904,-0.6925 c 0.1756,-0.6169 0.2721,-1.0108 0.2931,-1.4553 0.011,-0.2334 -0.1693,-0.4316 -0.4027,-0.4426 -0.2054,-0.01 -0.388,0.1296 -0.4329,0.3302 l -0.4581,1.223 -0.26,0.6934 -0.2072,0.6856 -0.176,0.5428 -0.1872,0.5916 -0.1026,0.5986 -0.0967,0.3713 -0.075,0.1225 -0.1415,0.361 -0.0445,0.0862 z m 27.4807,1.9757 c -0.2479,0.1965 -0.2895,0.5568 -0.093,0.8047 0.1463,0.1844 0.3903,0.2606 0.6155,0.1922 0.4201,-0.1232 0.6202,-0.2957 0.7759,-0.4164 l 0.4688,-0.4585 0.2229,-0.1851 0.1599,-0.1437 0.0921,-0.0635 0.2177,-0.1747 0.2126,-0.1782 c 0.0391,-0.0332 -0.0512,0.0269 -0.004,-0.002 l 0.3286,-0.2592 0.2829,-0.2417 0.5129,-0.4917 0.2715,-0.2893 0.1307,-0.129 0.1862,-0.2253 0.1503,-0.1963 0.1103,-0.1345 0.1771,-0.203 0.1099,-0.1462 0.1872,-0.233 0.5354,-0.8829 0.1392,-0.2445 0.1231,-0.2017 0.0938,-0.1907 0.0948,-0.2326 0.1223,-0.2925 0.0917,-0.2247 0.2677,-0.8215 0.1403,-0.6307 0.0809,-0.467 0.0548,-0.3406 0.043,-0.3855 0.005,-0.5144 -0.1111,-0.6374 c -0.0426,-0.2297 -0.2634,-0.3815 -0.4932,-0.3389 -0.1479,0.0275 -0.2702,0.1314 -0.321,0.2731 l -0.185,0.4938 -0.1138,0.5368 -0.049,0.4043 -0.0357,0.3477 -0.0618,0.4177 -0.1138,0.549 -0.2148,0.6675 -0.0955,0.2308 -0.1057,0.366 -0.0543,0.1342 -0.0406,0.0801 -0.1218,0.2562 -0.1321,0.3227 -0.3858,0.7046 -0.1967,0.2503 -0.0475,0.0656 -0.1906,0.2181 -0.1288,0.1548 -0.1433,0.1652 -0.1304,0.1499 -0.1473,0.1325 -0.2614,0.2953 -0.4506,0.4195 -0.2902,0.2432 -0.129,0.1066 -0.1319,0.071 -0.267,0.2014 -0.1801,0.1524 -0.1306,0.0951 -0.1123,0.0653 -0.3867,0.3214 -0.3489,0.3457 -0.3094,0.1887 -0.29,0.1538 z m -0.4039,0.005 c -0.2017,0.1207 -0.2674,0.3821 -0.1467,0.5838 0.0691,0.1154 0.1886,0.1914 0.3224,0.2049 l 0.4771,-0.0367 c 0.1341,-0.0262 0.2525,-0.104 0.3298,-0.2166 l 0.0439,-0.0655 -0.168,0.1569 0.6458,-0.4029 c 0.2038,-0.1256 0.2672,-0.3926 0.1416,-0.5964 -0.1081,-0.1755 -0.3248,-0.2506 -0.5183,-0.1795 l -0.6973,0.3173 0.2237,-0.0393 -0.0559,-0.004 c -0.1355,-0.0117 -0.2702,0.03 -0.3754,0.1162 l -0.2227,0.1621 z m 0.7779,0.488 c 0,-0.2829 -0.2293,-0.5122 -0.5121,-0.5122 -0.2829,0 -0.5121,0.2293 -0.5121,0.5122 0,0.2828 0.2292,0.5121 0.5121,0.5121 0.2828,0 0.5121,-0.2293 0.5121,-0.5121 m -0.7314,-0.381 c -0.2006,0.1424 -0.2478,0.4204 -0.1055,0.621 0.1138,0.1603 0.3191,0.2271 0.5054,0.1643 0.3034,-0.1021 0.5853,-0.3138 0.9052,-0.5241 l 1.0898,-0.8527 c 0.1924,-0.1331 0.2405,-0.397 0.1074,-0.5895 -0.1088,-0.1573 -0.3095,-0.2221 -0.4898,-0.1583 -0.3454,0.1222 -0.7884,0.3987 -1.2846,0.7323 z m 2.9252,-1.0577 c -0.1235,0.217 -0.0476,0.493 0.1694,0.6165 0.1798,0.1022 0.4061,0.0694 0.5494,-0.0797 l 0.7883,-0.7341 0.1388,-0.0504 c 0.0487,-0.0249 0.0938,-0.0562 0.1344,-0.093 l 0.3387,-0.307 0.2155,-0.1794 c 0.0899,-0.0759 0.1583,-0.1742 0.1982,-0.2849 l 0.0479,-0.1351 -0.1072,0.1895 c 0.4832,-0.579 0.8896,-1.078 1.0645,-1.4741 0.0944,-0.2138 -0.002,-0.4636 -0.2162,-0.558 -0.1499,-0.0662 -0.3245,-0.0399 -0.4482,0.0675 l -1.2609,1.118 0.1838,-0.1089 -0.1251,0.0461 c -0.1104,0.0407 -0.2081,0.1098 -0.2833,0.2004 l -0.19,0.226 -0.2941,0.3167 c -0.0372,0.0403 -0.0688,0.0853 -0.0942,0.1338 l -0.1334,0.2606 z m 0.1295,0.1332 c -0.1521,0.189 -0.1222,0.4655 0.0668,0.6176 0.189,0.1521 0.4655,0.1222 0.6176,-0.0668 l 0.4312,-0.5282 0.3121,-0.3649 -0.1832,0.1259 0.1317,-0.0468 c 0.2674,-0.0943 0.4076,-0.3874 0.3133,-0.6547 -0.0942,-0.2673 -0.3874,-0.4076 -0.6547,-0.3133 -0.1724,0.0608 -0.2994,0.2087 -0.3335,0.3883 l -0.0263,0.1364 0.0972,-0.1999 -0.3174,0.3682 z m 4.0223,-8.0328 c 0,-0.289 -0.2343,-0.5233 -0.5233,-0.5233 -0.289,0 -0.5233,0.2343 -0.5233,0.5233 0,0.289 0.2343,0.5233 0.5233,0.5233 0.289,0 0.5233,-0.2343 0.5233,-0.5233 m -0.9192,2.194 c 0.0569,0.2287 0.2884,0.368 0.5172,0.3112 0.1533,-0.0382 0.273,-0.1579 0.3111,-0.3112 l 0.0326,-0.2483 0.0369,-0.4115 0.0173,-0.4289 0.0219,-0.6688 -10e-4,-0.2708 -0.0394,-0.3192 c -0.0848,-0.2763 -0.3775,-0.4315 -0.6538,-0.3467 -0.2763,0.0847 -0.4315,0.3774 -0.3467,0.6537 10e-4,0.004 0.002,0.007 0.003,0.011 l -0.006,0.0443 -0.002,0.2063 0.0222,0.6888 0.0159,0.4073 0.0388,0.4393 0.0321,0.2435 z m 0.1041,-0.2354 c 0.0627,0.2251 0.2961,0.3568 0.5212,0.2941 0.1427,-0.0398 0.2543,-0.1513 0.2941,-0.2941 l 0.0567,-0.3587 c 0.006,-0.0532 0.004,-0.1071 -0.009,-0.1593 l -0.0437,-0.1939 0.011,-0.094 0.008,-0.261 0.0164,-0.3565 0.01,-0.1605 c 0.002,-0.01 -0.0531,0.1515 -0.0253,0.0852 l -0.0409,0.075 c 0.0251,-0.0365 -0.27,0.1915 -0.1675,0.1429 0.1085,-0.0515 -0.4978,-0.0767 -0.3924,-0.0159 0.0938,0.0542 -0.1759,-0.1906 -0.1532,-0.1519 0.0384,0.0653 -0.0516,-0.1375 -0.0467,-0.1165 0.0247,0.1052 -0.01,-0.0693 -0.01,-0.0536 l -10e-4,0.0944 c -0.005,0.2337 0.1794,0.4275 0.413,0.433 0.2337,0.005 0.4275,-0.1794 0.433,-0.4131 l 10e-4,-0.1512 -0.006,-0.0687 -0.0512,-0.148 c -0.034,-0.0597 -0.1265,-0.2019 -0.3457,-0.2135 -0.4158,-0.022 -0.4018,0.229 -0.4185,0.2729 -0.1013,0.2655 -0.0382,0.2266 -0.0442,0.3478 l -0.0168,0.3655 -0.009,0.2871 v 0.1963 l -0.0328,0.0982 c -0.0119,0.0522 -0.0148,0.1061 -0.008,0.1593 l 0.0567,0.3587 z m -0.0969,0.2396 c 0.0928,0.2145 0.3419,0.3131 0.5563,0.2203 0.1553,-0.0672 0.2557,-0.2204 0.2551,-0.3896 l 0.0582,-0.5879 0.0234,-0.6739 0.011,-0.2626 c -0.059,-0.486 -0.1095,-0.9097 -0.2675,-1.2276 -0.104,-0.2092 -0.358,-0.2945 -0.5673,-0.1905 -0.1476,0.0734 -0.2392,0.2258 -0.2346,0.3906 l -0.0104,0.9803 0.0101,0.3206 0.0192,0.6106 c 0.0294,0.2965 0.036,0.5544 0.1465,0.8097 m 0.6399,-2.7935 c 0,-0.2352 -0.1907,-0.4259 -0.4259,-0.4259 -0.2352,0 -0.4259,0.1907 -0.4259,0.4259 0,0.2353 0.1907,0.426 0.4259,0.426 0.2352,0 0.4259,-0.1907 0.4259,-0.426 m -0.4543,3.2751 c 0.1205,0.2002 0.3806,0.2648 0.5808,0.1442 0.1811,-0.109 0.2539,-0.335 0.1706,-0.5293 -0.0311,-0.0724 0.0175,0.063 0.0164,0.0362 l 0.002,-0.1349 0.003,-0.1907 0.0193,-0.3392 0.0147,-0.2011 0.0154,-0.2997 0.0161,-0.3588 0.0581,-0.7488 -0.0505,-0.4018 -0.0468,-0.3537 c -0.0202,-0.0818 0.0245,-0.1053 -0.1364,-0.2846 -0.0813,-0.0906 -0.4239,-0.2577 -0.6813,-0.097 -0.3658,0.2284 -0.2413,0.3396 -0.2477,0.3827 l -0.008,0.2054 0.0129,0.2746 0.01,0.349 0.0111,0.2593 -0.0173,0.1447 -0.0321,0.2598 0.003,0.3215 -3e-4,0.0259 0.0105,0.2411 0.002,0.0506 -0.0246,0.1521 -0.0475,0.2149 -9e-4,0.3274 0.007,0.0764 c 4e-4,0.01 0.0568,-0.2574 0.0215,-0.1461 -0.0807,0.2551 0.0607,0.5272 0.3157,0.608 0.1987,0.0629 0.4155,-0.009 0.538,-0.1771 0.3134,-0.4313 0.0974,-0.3573 0.096,-0.4139 l 0.003,-0.1276 0.0238,-0.1958 0.0396,-0.2049 0.007,-0.183 0.009,-0.1878 6e-4,-0.0813 0.003,-0.2125 0.0192,-0.2479 0.0186,-0.2458 0.0109,-0.2521 0.0105,-0.3722 0.0115,-0.2366 c 6e-4,-0.0845 -0.0248,0.0507 -0.006,-0.0403 l -0.0204,0.0708 c 0.0118,-0.0321 -0.1304,0.2071 -0.0794,0.1421 0.0241,-0.0308 -0.1536,0.1367 -0.1052,0.1015 0.0473,-0.0344 -0.2614,0.1049 -0.1858,0.0863 0.072,-0.0177 -0.2959,-0.007 -0.2241,0.006 0.1309,0.0243 -0.3176,-0.1831 -0.2669,-0.1354 0.0791,0.0745 -0.1269,-0.1823 -0.1121,-0.1519 0.0361,0.0741 -0.0341,-0.0934 -0.0328,-0.0881 l 0.075,0.3379 0.0343,0.2407 0.0563,0.7076 -0.0335,0.304 -0.007,0.2849 -0.002,0.2485 0.0208,0.3719 0.002,0.1668 c 0.003,0.1388 -0.0466,0.2554 0.0986,0.4966 m -0.3086,-0.2978 c 0.0974,0.2491 0.3784,0.3721 0.6275,0.2746 0.2482,-0.0971 0.3713,-0.3764 0.2756,-0.6251 -0.0928,-0.2411 -0.0121,-0.0125 -0.0249,-0.047 -0.01,-0.0356 0.0268,0.1457 0.0267,0.1327 l 0.01,-0.1281 0.004,-0.2846 1e-4,-0.2299 10e-4,-0.2082 0.002,-0.2348 0.0158,-0.6894 -0.004,-0.5573 -2e-4,-0.2559 -0.0198,-0.246 -0.0443,-0.2473 -0.0759,-0.262 -0.1022,-0.1866 c -0.0445,-0.0533 -0.111,-0.1389 -0.2921,-0.1732 -0.2023,-0.0382 -0.4678,0.135 -0.5324,0.2694 -0.2438,0.513 -0.0113,0.5223 0.0108,0.6397 0.099,0.5769 0.1701,1.1095 0.1511,1.7147 -0.008,0.238 0.1795,0.4371 0.4175,0.4445 0.2319,0.007 0.4279,-0.1701 0.4438,-0.4015 0.0469,-0.6842 -0.009,-1.2921 -0.0889,-1.9048 l -0.0263,-0.1989 -0.002,-0.0166 -0.008,0.0582 c 0.008,-0.0355 -0.1357,0.2413 -0.0788,0.1668 0.0468,-0.0597 -0.3847,0.203 -0.2651,0.1735 0.1051,-0.0258 -0.3626,-0.0477 -0.2876,-0.0185 0.1212,0.0471 -0.2292,-0.1854 -0.1986,-0.1465 0.0767,0.0975 -0.0811,-0.1834 -0.0763,-0.1579 l 0.009,0.175 0.0348,0.1905 0.0134,0.1585 -2e-4,0.2351 -0.004,0.5299 0.0158,0.7009 0.002,0.2403 0.001,0.2116 v 0.2139 l 0.003,0.276 c 6e-4,0.0486 -0.0832,0.0886 0.049,0.3835 l 0.04,0.0808 0.0153,0.0252 c 10e-4,0.002 -0.0765,-0.175 -0.0374,-0.0752 m 0.9673,-0.6094 c 0,-0.2849 -0.2309,-0.5159 -0.5159,-0.5159 -0.2849,0 -0.5158,0.231 -0.5158,0.5159 0,0.2849 0.2309,0.5159 0.5158,0.5159 0.285,0 0.5159,-0.231 0.5159,-0.5159 m -0.0857,-0.3302 c 0.006,-0.2377 -0.1812,-0.4356 -0.419,-0.4419 -0.2372,-0.006 -0.4348,0.1804 -0.4419,0.4176 l -6e-4,0.2903 c 0.003,0.2381 0.198,0.4288 0.4361,0.426 0.2381,-0.003 0.4288,-0.198 0.426,-0.4361 z m -0.0218,0.6454 c 0.1741,-0.2255 0.1324,-0.5495 -0.0932,-0.7236 -0.2255,-0.174 -0.5495,-0.1323 -0.7235,0.0932 -0.1424,0.1844 -0.1435,0.4413 -0.003,0.6269 l 0.0624,0.0833 -0.0851,-0.2721 -0.009,0.1925 -0.0168,0.1788 -0.0176,0.2506 0.008,-0.065 c -0.049,0.2436 0.1087,0.4809 0.3524,0.5299 0.2436,0.0491 0.4809,-0.1087 0.5299,-0.3523 0.0159,-0.079 0.0103,-0.1608 -0.0162,-0.2369 l 0.01,0.031 -0.001,-0.1142 0.0152,-0.1825 0.008,-0.2055 -0.1017,0.2664 z m -0.877,0.543 c 0.0495,0.2438 0.2873,0.4014 0.5311,0.3519 0.1571,-0.0319 0.2853,-0.1448 0.3369,-0.2965 0.0909,-0.2674 0.0263,-0.1692 0.0267,-0.2292 l -0.005,-0.379 -4e-4,-0.2382 0.008,-0.1489 0.0123,-0.2388 4e-4,-0.0721 -3e-4,-0.224 10e-4,-0.3504 0.0243,-0.3735 0.003,-0.8239 -10e-4,-0.366 -0.0645,-0.3023 0.005,-0.0741 -0.0193,-0.0901 -0.0302,-0.0832 c -0.0248,-0.0535 -0.1124,-0.2459 -0.382,-0.2783 -0.132,-0.0159 -0.2646,0.0234 -0.3665,0.1086 -0.4177,0.3489 -0.1798,0.4281 -0.1752,0.4803 l 0.009,0.1011 0.008,0.5278 0.0406,1.3662 c 0.009,0.2449 0.2154,0.4359 0.4603,0.4266 0.2388,-0.009 0.4275,-0.2056 0.4269,-0.4445 l 0.007,-1.3495 0.008,-0.5409 -0.004,-0.1427 -0.002,0.026 c 0.002,-0.0194 -0.046,0.1538 -0.0258,0.1016 l -0.0578,0.1054 c 0.032,-0.0437 -0.2196,0.1716 -0.1502,0.1328 0.1121,-0.0628 0.1946,-0.1677 0.229,-0.2915 0.0171,-0.0618 -0.2602,0.3236 -0.1614,0.2445 0.0933,-0.0748 -0.3827,0.1045 -0.2955,0.1043 0.0773,-2e-4 -0.2222,-0.0529 -0.1787,-0.035 0.0754,0.031 -0.1641,-0.114 -0.1383,-0.0894 0.0755,0.0721 -0.0736,-0.0996 -0.0718,-0.0953 l 0.007,0.0233 -0.0326,0.0246 -0.005,0.4076 0.002,0.7942 0.0262,0.4308 8e-4,0.3282 -3e-4,0.2372 10e-5,0.0375 -0.004,0.2235 -0.008,0.1739 -4e-4,0.2511 -0.005,0.3657 0.012,0.1826 z m 0.862,-1.3783 c -0.0401,-0.2369 -0.2647,-0.3965 -0.5017,-0.3563 -0.1749,0.0296 -0.3143,0.1626 -0.3523,0.3359 l -0.0774,0.3622 c -0.0281,0.1236 -0.01,0.2532 0.0513,0.3642 l 0.0587,0.113 -0.0405,-0.1899 -0.019,0.2319 -0.0248,0.1965 -0.002,0.232 0.002,-0.0112 c -0.002,0.0117 0.0422,-0.1365 0.0216,-0.0824 -0.0123,0.032 0.2098,-0.2472 0.1168,-0.1665 -0.0523,0.0454 0.3677,-0.109 0.2553,-0.103 -0.1132,0.006 0.3353,0.1277 0.2753,0.0831 -0.0652,-0.0468 0.1344,0.1641 0.1117,0.125 -0.039,-0.0671 0.0535,0.1613 0.0491,0.1349 -0.012,-0.0714 0.004,0.0544 0.006,0.0309 l 0.005,-0.1195 10e-5,-0.1746 v -0.2184 -0.1743 l 0.008,-0.3801 v -0.0609 -0.2492 l 0.002,-0.2027 0.0114,-0.311 -0.0371,-0.7037 -0.0283,-0.3253 -0.004,-0.1722 -0.0359,-0.2919 c -0.0666,-0.2366 -0.3125,-0.3744 -0.5491,-0.3078 -0.177,0.0498 -0.3051,0.2033 -0.3225,0.3864 l 0.0121,0.2438 0.0126,0.2153 0.0255,0.3271 0.0495,0.6192 0.0105,0.2978 0.003,0.229 v 0.2383 0.064 l -0.008,0.3763 v 0.1776 0.2231 l 10e-5,0.1618 -0.005,0.1072 c -0.002,0.0442 -0.232,0.1253 0.1834,0.4211 0.1119,0.0858 0.4107,0.073 0.5227,-0.0218 0.2797,-0.2367 0.1487,-0.2607 0.1527,-0.2965 l 0.005,-0.0907 -0.003,-0.1358 0.0282,-0.1991 0.0354,-0.2888 -0.0558,0.1865 0.0841,-0.1536 c 0.0589,-0.1121 0.0746,-0.2419 0.0442,-0.3648 l -0.0756,-0.3321 z m -0.1337,-1.981 c -0.01,-0.2456 -0.217,-0.4366 -0.4626,-0.4267 -0.2456,0.01 -0.4367,0.217 -0.4268,0.4626 l 2e-4,0.0635 0.0632,0.2741 0.009,0.1515 0.0195,1.4561 c 0.004,0.2339 0.1963,0.4204 0.4302,0.4167 0.2335,-0.004 0.4199,-0.1956 0.4168,-0.4291 l -0.0177,-1.5027 -0.0188,-0.2432 -0.012,-0.1098 c -0.003,-0.0255 -0.0189,0.1255 -0.006,0.0435 z m 0.1278,2.5379 c 0,-0.2829 -0.2294,-0.5123 -0.5123,-0.5123 -0.2829,0 -0.5122,0.2294 -0.5122,0.5123 0,0.2829 0.2293,0.5122 0.5122,0.5122 0.2829,0 0.5123,-0.2293 0.5123,-0.5122 m -0.0898,-0.1779 c -0.0157,-0.2333 -0.2176,-0.4097 -0.4509,-0.394 -0.2333,0.0157 -0.4097,0.2176 -0.394,0.4509 l -4e-4,0.049 c -7e-4,0.2339 0.1882,0.4241 0.4221,0.4248 0.2338,7e-4 0.424,-0.1882 0.4247,-0.4221 l -10e-4,-0.1086 z m 0.0597,0.3508 c 0.0955,-0.2663 -0.043,-0.5596 -0.3093,-0.6551 -0.2663,-0.0955 -0.5596,0.043 -0.6551,0.3093 -0.0386,0.1076 -0.04,0.2249 -0.004,0.3335 l 0.0572,0.2346 -0.0263,0.0995 -0.033,0.1297 -0.0462,0.2223 c -0.002,0.01 0.0517,-0.1146 0.0196,-0.0484 -0.0105,0.0217 0.1372,-0.1689 0.0801,-0.112 -0.0239,0.0238 0.1607,-0.1041 0.109,-0.0783 -0.0478,0.0238 0.2571,-0.045 0.1846,-0.0444 -0.1288,10e-4 0.3605,0.1819 0.3023,0.1237 -0.0779,-0.078 0.1118,0.1959 0.1011,0.1634 l 0.0146,0.0587 0.0222,-0.2141 0.0414,-0.2812 0.0377,-0.3466 0.0265,-0.189 0.0104,-0.2405 0.007,-0.1105 0.003,-0.0255 c 2e-4,-10e-4 -0.0469,0.1426 -0.018,0.065 0.0792,-0.2134 0.0336,-0.3018 0.0347,-0.3387 l 0.008,-0.177 10e-5,-0.9393 -0.007,-0.5842 4e-4,-0.2786 -0.0179,-0.1825 -0.006,-0.0373 c -2e-4,-0.002 -0.0253,0.1763 -0.006,0.06 0.0421,-0.252 -0.128,-0.4903 -0.3799,-0.5324 -0.2519,-0.0422 -0.4903,0.128 -0.5324,0.3799 -0.0421,0.2519 0.128,0.4903 0.3799,0.5324 0.007,10e-4 0.0142,0.002 0.0213,0.003 0.0997,0.012 -0.2435,-0.1025 -0.2012,-0.0743 0.0744,0.0497 -0.1419,-0.1486 -0.1219,-0.1197 0.0616,0.089 -0.0577,-0.1187 -0.0554,-0.1113 l 0.0415,0.1308 0.0146,0.0285 -0.003,0.2206 0.0262,0.5779 v 0.903 l -0.008,0.1746 0.002,0.1347 c 3e-4,0.0145 0.0381,-0.1242 0.0161,-0.0652 l -0.0448,0.3333 -0.006,0.1833 -0.0274,0.197 -0.0329,0.307 -0.0457,0.3165 -0.0153,0.439 c 0.007,0.0403 -0.0859,0.1633 0.2356,0.3197 0.2886,0.1403 0.5059,-0.0934 0.5455,-0.1556 l 0.0678,-0.1733 0.0408,-0.2003 0.0543,-0.2412 0.0206,-0.2664 0.0765,-0.158 z m -0.164,-2.8694 c 0.1604,-0.1998 0.1285,-0.4918 -0.0713,-0.6522 -0.1873,-0.1504 -0.4585,-0.1329 -0.6249,0.0403 -0.2279,0.2371 -0.1344,0.3321 -0.1329,0.3689 l 0.002,0.0356 -0.004,0.178 0.0464,1.844 c 0.009,0.2385 0.2095,0.4246 0.448,0.4156 0.2315,-0.009 0.415,-0.1985 0.4158,-0.4302 l 0.0295,-1.8216 -0.005,-0.2155 -0.005,-0.0614 v 0.0462 l -0.0138,0.0851 c 0.0113,-0.0425 -0.1369,0.2323 -0.0846,0.1672 m 0.1102,2.2373 c 0.004,-0.2411 -0.1876,-0.4402 -0.4288,-0.4445 -0.2412,-0.004 -0.4402,0.1876 -0.4446,0.4288 l 9e-4,0.7224 -0.004,0.271 -0.0333,0.3784 -0.0325,0.2531 -0.0169,0.0904 c -3e-4,0.001 0.0466,-0.102 0.0215,-0.0525 l 0.04,-0.0631 c -0.0178,0.023 0.1362,-0.1183 0.0896,-0.0856 -0.0373,0.0262 0.2276,-0.0821 0.1587,-0.0682 -0.1074,0.0217 0.3955,0.1148 0.3164,0.0621 -0.0739,-0.0491 0.1509,0.174 0.1295,0.1373 -0.0445,-0.0807 0.0486,0.1573 0.0478,0.1451 l 0.01,-0.2062 v -0.4067 -0.1829 l 0.0176,-0.2602 0.009,-0.2047 0.008,-0.1058 0.0111,-0.3222 0.005,-0.1782 0.0383,-0.4267 0.0509,-0.8764 0.046,-0.4544 0.0172,-0.2716 0.016,-0.1494 0.007,-0.0667 10e-4,-0.0119 c 2e-4,-0.002 -0.0504,0.1844 -0.0178,0.0837 0.0719,-0.2224 -0.05,-0.461 -0.2724,-0.5329 -0.2155,-0.0697 -0.4477,0.0426 -0.5268,0.2549 -0.0978,0.2627 -0.0276,0.1388 -0.0308,0.1631 l -0.0214,0.2032 -0.0161,0.2573 -0.0452,0.4452 -0.053,0.9037 -0.0157,0.278 -0.0284,0.3501 -0.01,0.2937 -0.009,0.1249 -0.008,0.1816 -0.0197,0.3062 -10e-5,0.1874 10e-5,0.4027 c -0.002,0.0949 -0.1465,0.1366 0.0537,0.4954 0.0485,0.0895 0.3328,0.2745 0.541,0.1849 0.4928,-0.212 0.2513,-0.2903 0.2634,-0.3394 l 0.0295,-0.15 0.0383,-0.2962 0.0361,-0.4135 0.0292,-0.295 0.002,-0.7397 z m 0.0613,-2.5321 c -0.0753,-0.2213 -0.3156,-0.3396 -0.5369,-0.2644 -0.2212,0.0753 -0.3396,0.3156 -0.2643,0.5369 0.002,0.006 0.004,0.0116 0.006,0.0173 l -0.0166,-0.0525 c 0.0158,0.0684 -0.008,-0.0457 -0.009,-0.003 l -0.004,0.1929 -0.0397,0.5165 -0.1548,1.3742 c -0.0119,0.2334 0.1677,0.4323 0.4011,0.4441 0.2334,0.0119 0.4322,-0.1676 0.4441,-0.401 l 0.1481,-1.3031 0.0475,-0.6291 -0.0109,-0.3871 -0.0118,-0.0414 z m -1.2902,3.9457 c -0.0522,0.2278 0.0902,0.4547 0.318,0.5069 0.2278,0.0521 0.4548,-0.0903 0.5069,-0.3181 l 0.1457,-0.4706 0.0789,-0.3614 -0.0611,0.1496 0.1346,-0.208 c 0.0534,-0.0853 0.0805,-0.1844 0.0779,-0.285 l -0.007,-0.2823 0.005,-0.2597 0.0656,-0.3435 0.0469,-0.1802 c 0.0505,-0.2281 -0.0936,-0.454 -0.3218,-0.5045 -0.2281,-0.0505 -0.454,0.0936 -0.5045,0.3218 l -0.007,0.0511 -0.1231,0.6086 -0.0354,0.2045 -0.0858,0.1638 c -0.0459,0.0895 -0.0644,0.1906 -0.0531,0.2906 l 0.0389,0.2705 5e-4,-0.1623 -0.0622,0.2924 -0.1573,0.5158 z m 0.9091,5.1004 c 0.0433,-0.0486 0.0856,-0.0989 0.1271,-0.1501 z M 521.183,614.0068 c -0.3,0.4812 -0.1531,1.1145 0.3281,1.4144 0.4504,0.2808 1.0405,0.172 1.3612,-0.2509 l 1.1785,-0.6639 0.5646,-0.325 c 0.1757,0.1211 0.4655,0.4115 0.6623,0.6846 0.1652,0.223 0.2465,0.4355 0.3281,0.7423 0.2734,1.206 -0.1821,2.3917 -1.2425,3.2084 -0.6041,0.446 -1.1128,0.777 -1.6666,0.8866 l -0.8836,0.0581 -0.6576,-0.5036 -0.8489,-1.0224 c -1.3462,-1.8042 -1.9318,-4.36 -1.5096,-6.751 0.2614,-1.4637 1.6854,-2.4676 4.1026,-2.4455 0.9416,-0.009 1.6214,0.1098 2.2373,0.432 0.4888,0.2532 1.0078,0.6255 1.4432,0.9771 l 0.9472,0.931 1.3379,1.4731 c 0.7298,0.8871 1.1876,1.6634 1.5294,2.5766 l 0.4575,1.5624 0.1441,0.7489 0.0651,1.0102 -0.1279,1.5805 c -0.386,2.5288 -1.4232,3.6533 -3.2513,4.1633 -2.2528,0.5876 -4.322,1.3337 -5.8805,1.1193 -2.6855,-0.3869 -5.258,-2.8459 -6.7576,-5.4914 -1.1579,-2.0135 -1.8517,-3.8753 -2.3106,-5.8111 -0.3503,-1.4043 -0.5369,-2.7482 -0.4142,-4.1521 0.0797,-0.7289 0.1914,-1.4408 0.3882,-1.9513 0.3542,-0.8997 1.6094,-1.7244 3.3196,-2.5369 0.1712,-0.1275 0.2957,-0.2092 0.4423,-0.2641 0.068,-0.0255 0.1385,-0.0312 0.2053,-0.02 1.3896,-0.5387 3.0076,-0.7405 4.6909,-0.6487 1.2716,0.0775 2.5775,0.3224 3.8363,0.704 1.0738,0.3185 2.1001,0.7305 3.0433,1.2185 0.7753,0.3955 1.4851,0.8357 2.112,1.311 0.778,0.5294 1.3973,1.0595 1.889,1.6166 0.0431,0.0488 0.0898,0.0943 0.1398,0.136 0.5535,0.4619 1.0069,0.9693 1.3324,1.5334 0.2026,0.3511 0.6514,0.4715 1.0025,0.2689 0.2381,-0.1374 0.3794,-0.3963 0.3663,-0.6709 -0.042,-0.8741 -0.2953,-1.7874 -0.723,-2.6742 -0.0284,-0.0587 -0.0611,-0.1152 -0.098,-0.1689 -0.5683,-0.8277 -1.2857,-1.5924 -2.1064,-2.2883 -0.8356,-0.6373 -1.6882,-1.165 -2.5954,-1.6288 -1.1242,-0.5666 -2.3199,-1.0317 -3.5583,-1.3853 -1.4766,-0.4119 -2.998,-0.664 -4.5132,-0.7217 -1.5731,-0.0698 -3.1508,0.0709 -4.6316,0.4885 l -0.5528,0.3203 -0.333,0.1073 -0.5155,0.282 -0.1916,0.1375 -0.158,0.1185 -0.5236,0.3859 -0.1729,0.1368 -0.1825,0.1644 -0.2294,0.2221 -0.1264,0.1169 -0.1385,0.1202 -0.4184,0.4635 -0.3136,0.329 -0.1589,0.2026 -0.1291,0.2357 -0.2184,0.3588 -0.1322,0.1979 -0.3929,0.8176 -0.3721,0.6396 -0.1774,0.4624 -0.3003,0.9423 -0.3506,1.1547 -0.0543,0.265 -0.0847,0.4902 -0.0371,0.3654 -0.034,0.2121 -0.0218,0.2991 -1e-4,0.3285 -0.0269,1.0635 0.0757,1.4156 c 0.007,0.0251 0.0337,0.0477 0.006,0.1191 l 0.0112,0.2082 0.1896,0.8252 0.0907,0.475 0.0198,0.1344 c 0.001,0.011 0.0309,-0.0185 0.0165,0.0531 0.5131,1.5298 1.199,3.0561 2.1308,4.6281 1.8237,3.0338 4.8339,5.9422 8.4872,6.372 1.9453,0.2414 3.8531,-0.4108 5.7082,-0.9726 l 0.5758,-0.3863 0.3273,-0.1946 c 0.2151,-0.1809 0.4324,-0.3638 0.6484,-0.546 l 1.6727,-2.1163 c 0.5816,-0.7345 1.0634,-1.415 1.4563,-2.0566 l 0.6151,-1.7011 c 0.0832,-0.2854 0.1499,-0.5838 0.2059,-0.8782 l 0.0504,-0.6736 -2e-4,-0.6073 -10e-5,-1.0579 c -10e-4,-0.2292 -0.007,-0.4214 -0.0174,-0.5897 l -0.3318,-1.185 c -0.4001,-1.1692 -0.9959,-2.2359 -1.8173,-3.2785 l -1.2426,-1.5709 c -0.401,-0.4963 -0.7379,-0.8931 -1.1997,-1.2989 -0.515,-0.4455 -1.1336,-0.9274 -1.8375,-1.3195 -1.0696,-0.59 -2.2428,-0.7914 -3.4297,-0.8042 -3.2844,0.0249 -6.1364,1.8424 -6.5769,4.6677 -0.4836,3.0619 0.2904,6.2363 2.0958,8.5601 l 1.1392,1.2632 c 0.4151,0.4015 0.9357,0.9222 1.7862,1.082 0.7103,0.1218 1.3159,-9e-4 1.8015,-0.1183 1.076,-0.2626 1.8474,-0.8728 2.4957,-1.3996 1.6127,-1.2574 2.4171,-3.3468 1.9469,-5.3582 -0.0779,-0.4015 -0.2254,-0.9353 -0.5686,-1.4576 -0.2626,-0.388 -0.5833,-0.7784 -0.9931,-1.1144 -0.4173,-0.3422 -1.0009,-0.7326 -1.8089,-0.5611 -0.7175,0.1856 -1.0249,0.5247 -1.226,0.641 -0.5841,0.3395 -1.3205,0.5675 -1.8346,1.3922 m -28.0581,1.0643 c 0.1896,-0.5192 -0.0777,-1.0938 -0.5969,-1.2833 -0.4676,-0.1707 -0.985,0.0286 -1.2205,0.4584 -0.1248,0.0602 -0.5795,0.1461 -0.9312,0.0922 -0.182,-0.0226 -0.2879,-0.0913 -0.3973,-0.3537 -0.1218,-0.2923 -0.159,-0.7717 -0.005,-1.2973 0.3076,-1.0452 0.9577,-1.9422 1.2519,-2.0244 0.1078,-0.0292 0.6191,0.0787 1.1762,0.4477 1.0581,0.6821 1.9945,1.8181 2.4159,2.8473 0.1467,0.3565 0.1961,0.5696 0.1995,0.8827 3e-4,0.4052 -0.3359,1.2878 -0.7912,2.1324 -0.8273,1.4684 -1.2332,1.5437 -2.671,1.3348 -1.0233,-0.1192 -1.9263,-0.1068 -2.5604,-0.3377 -0.8747,-0.3448 -2.0974,-1.5409 -2.9735,-2.6891 -0.8407,-1.0661 -1.0589,-2.0895 -1.0514,-3.6131 -0.002,-0.8584 -0.008,-1.4447 0.2115,-2.0382 0.147,-0.3784 0.3827,-0.798 0.6564,-1.1297 1.0345,-1.2629 3.071,-1.4648 5.432,-1.515 2.709,-0.041 4.9916,2.0358 6.5166,5.2292 0.833,1.7181 1.4389,3.7414 1.6105,5.5395 0.0359,0.7355 -0.0164,1.4105 -0.2342,2.1091 l -0.5347,1.4078 -0.5258,1.1045 -0.8176,0.9895 c -0.377,0.4012 -0.7404,0.4576 -1.5253,0.7663 -2.7785,1.1144 -5.4806,1.9433 -7.6286,0.9893 -1.0826,-0.4785 -2.0772,-0.8045 -2.8382,-1.2409 -1.3906,-0.794 -2.9916,-2.0251 -4.1152,-3.1428 -1.8639,-1.8133 -3.4117,-4.0421 -3.8573,-6.504 -0.3095,-1.682 -0.2097,-3.1891 0.1343,-5.035 0.1262,-0.6008 0.3637,-1.1953 0.6686,-1.7198 l 0.7613,-1.0685 c 0.0659,-0.0723 0.1237,-0.1516 0.1722,-0.2366 0.3274,-0.5731 0.7263,-1.0353 1.1315,-1.3215 0.3435,-0.2426 0.4253,-0.7177 0.1826,-1.0612 -0.1479,-0.2095 -0.3914,-0.3304 -0.6477,-0.3217 -0.8347,0.0283 -1.7369,0.3756 -2.5723,0.9479 -0.0808,0.0553 -0.1552,0.1194 -0.222,0.1911 -0.4203,0.4517 -0.7995,0.9677 -1.1235,1.5365 -0.4327,0.7911 -0.7529,1.6537 -0.9229,2.5774 -0.4118,1.9849 -0.5975,3.896 -0.2597,5.9747 0.5376,3.2475 2.43,5.9636 4.5273,8.0694 1.3499,1.3256 3.0808,2.6447 4.7426,3.5794 1.0941,0.613 2.185,0.9436 3.1153,1.344 1.7126,0.7336 3.5099,0.751 5.1569,0.4409 1.6379,-0.3084 3.1712,-0.918 4.601,-1.514 0.1375,-0.0584 0.3025,-0.1189 0.4858,-0.1909 l 0.1177,-0.0786 c 0.4489,-0.311 0.863,-0.6319 1.2227,-0.9303 l 0.439,-0.4876 0.1896,-0.3036 0.4091,-0.6594 0.7041,-1.0451 0.5398,-1.0474 0.1524,-0.6338 0.3064,-1.4155 0.0859,-0.56 0.1301,-1.027 c 0.006,-0.0456 0.0112,-0.0901 0.0167,-0.1335 l -0.0279,-0.7671 -2e-4,-0.523 2e-4,-0.6288 c -0.2819,-1.6925 -0.8399,-3.4316 -1.5696,-4.9983 -1.7642,-3.7301 -4.8264,-6.7516 -8.7402,-6.6582 -1.3008,0.0434 -2.5588,0.094 -3.7894,0.3954 -1.2663,0.3101 -2.5379,0.9348 -3.4501,2.0715 -0.4537,0.5696 -0.7879,1.1976 -1.0167,1.8214 -0.3959,1.0275 -0.3834,1.9891 -0.393,2.8325 -0.007,1.8201 0.3564,3.5759 1.5586,5.0967 1.0722,1.3127 2.4328,2.743 4.1067,3.3292 1.1179,0.4248 2.2186,0.3829 3.0011,0.4853 0.9999,0.1022 1.9546,0.0616 2.7978,-0.3814 0.8477,-0.4455 1.4701,-1.2369 1.9936,-2.2497 0.5091,-0.9416 1.0305,-1.9741 1.031,-3.0984 0.006,-0.5637 -0.1139,-1.1154 -0.3185,-1.6419 -0.5853,-1.4981 -1.7292,-2.9096 -3.1612,-3.8625 -0.8309,-0.5385 -1.8326,-1.0159 -2.9369,-0.7005 -1.6409,0.4556 -2.311,2.1064 -2.712,3.463 -0.2774,0.9347 -0.2648,1.8911 0.073,2.7116 0.3379,0.821 1.103,1.534 2.0697,1.6556 0.5592,0.0529 1.107,0.0114 1.6385,-0.1612 0.5383,-0.1747 1.1496,-0.5222 1.4054,-1.223 m -4.269,-32.653 c 0.2472,0.0937 0.5236,-0.0307 0.6174,-0.2779 0.0361,-0.0952 0.0409,-0.1995 0.0137,-0.2977 l -0.006,-0.0199 0.002,0.0524 -0.006,0.0638 c 0.005,-0.0301 -0.0784,0.2187 -0.0435,0.1416 0.1374,-0.3026 0.003,-0.6593 -0.2993,-0.7966 -0.3027,-0.1374 -0.6593,-0.003 -0.7967,0.2993 -0.1373,0.3027 -0.003,0.6594 0.2994,0.7967 0.2012,0.0913 0.4363,0.065 0.6124,-0.0686 0.0793,-0.0602 -0.2066,0.1014 -0.1663,0.088 0.0651,-0.0216 -0.1732,0.0268 -0.1407,0.0258 0.0839,-0.003 -0.0961,-0.0108 -0.086,-0.007 m 0.7579,-0.8402 c -0.1574,-0.4334 -0.6364,-0.657 -1.0698,-0.4995 -0.4208,0.1529 -0.6461,0.6104 -0.5106,1.0372 0.1276,0.4022 0.3381,0.6694 0.6223,1.0454 0.948,1.2379 2.5109,1.9579 4.0747,2.014 0.5177,0.0231 1.1188,0.1518 1.8296,-0.0526 0.5385,-0.1338 0.9372,-0.4659 1.2648,-0.7428 l 0.9153,-0.9015 c 0.4096,-0.4237 0.794,-0.7235 1.2213,-0.9929 0.3476,-0.2279 0.7623,-0.4076 1.0996,-0.439 0.8036,-0.0746 1.8448,0.8504 3.0176,1.6214 0.5533,0.3587 1.1158,0.8679 2.0486,1.1816 0.5948,0.2121 1.3382,0.3409 2.1317,0.194 1.0104,-0.1763 1.6772,-0.8554 2.1751,-1.2934 l 1.0363,-0.7775 0.4544,-0.1466 c 0.7532,-0.2866 1.1224,-0.7239 1.2636,-0.7819 0.102,-0.0464 0.3856,-0.0217 0.9279,0.3642 0.5861,0.4172 1.2332,1.0657 1.8943,1.6464 0.7918,0.691 1.6414,1.2101 2.4991,1.4596 0.7665,0.2679 1.5777,0.008 2.1616,-0.3139 0.5688,-0.3137 1.0211,-0.6962 1.3884,-0.9564 l 0.6954,-0.2828 0.8209,-0.1048 0.9501,0.0777 1.0466,0.2505 1.2586,0.3199 c 0.1447,0.0431 0.296,0.0601 0.4467,0.0502 l 1.1103,-0.0459 c 0.3908,-0.0109 0.6988,-0.3365 0.6879,-0.7272 -0.004,-0.1535 -0.0583,-0.3014 -0.154,-0.4214 l -0.7753,-0.9238 c -0.1004,-0.1128 -0.22,-0.207 -0.3534,-0.278 l -1.2542,-0.6044 -1.5432,-0.3797 c -0.5204,-0.0673 -1.0173,-0.0873 -1.5183,-0.0439 -0.5572,0.0707 -1.0571,0.2006 -1.5342,0.4087 -0.5101,0.2433 -0.9514,0.5444 -1.3464,0.9151 l -1.061,0.8697 c -0.2888,0.1908 -0.4223,0.2056 -0.4814,0.1905 -0.4064,-0.1273 -1.0521,-0.5056 -1.6457,-1.0369 -0.5921,-0.5264 -1.2694,-1.2273 -2.0569,-1.7948 -0.7912,-0.5702 -1.8978,-1.1125 -3.016,-0.5981 -0.7691,0.3992 -1.1084,0.8532 -1.2168,0.9069 l -0.6591,0.3156 c -0.4762,0.2914 -0.9005,0.6641 -1.3014,1.0412 -0.4735,0.4442 -0.9533,0.8343 -1.2521,0.896 -0.3943,0.0772 -0.8122,0.0186 -1.1961,-0.113 -0.5599,-0.2029 -0.919,-0.5584 -1.5891,-1.0174 l -1.6824,-1.2242 c -0.6897,-0.4399 -1.5507,-0.8355 -2.5451,-0.7543 -0.7822,0.0633 -1.4473,0.3795 -1.9703,0.7126 -0.545,0.3619 -1.0559,0.7811 -1.548,1.3121 l -0.7762,0.8747 -0.5629,0.4469 c -0.199,0.0615 -0.6259,0.0204 -1.2541,0.004 -1.0587,-0.037 -2.2044,-0.59 -2.7849,-1.3465 l -0.3838,-0.5611 z" />
  </g>
</svg>
