<?xml version="1.0" encoding="UTF-8" standalone="no"?>
<!-- Created with Inkscape (http://www.inkscape.org/) -->

<svg
   version="1.1"
   id="svg1"
   width="123.89149"
   height="95.841568"
   viewBox="0 0 123.89149 95.841568"
   sodipodi:docname="heartbeat.svg"
   inkscape:version="1.3.2 (091e20e, 2023-11-25)"
   xmlns:inkscape="http://www.inkscape.org/namespaces/inkscape"
   xmlns:sodipodi="http://sodipodi.sourceforge.net/DTD/sodipodi-0.dtd"
   xmlns="http://www.w3.org/2000/svg"
   xmlns:svg="http://www.w3.org/2000/svg">
  <sodipodi:namedview
     id="namedview1"
     pagecolor="#ffffff"
     bordercolor="#000000"
     borderopacity="0.25"
     inkscape:showpageshadow="2"
     inkscape:pageopacity="0.0"
     inkscape:pagecheckerboard="0"
     inkscape:deskcolor="#d1d1d1"
     inkscape:zoom="2.4623971"
     inkscape:cx="62.134576"
     inkscape:cy="47.920784"
     inkscape:window-width="1312"
     inkscape:window-height="449"
     inkscape:window-x="1997"
     inkscape:window-y="434"
     inkscape:window-maximized="0"
     inkscape:current-layer="g1" />
  <defs
     id="defs1">
    <clipPath
       clipPathUnits="userSpaceOnUse"
       id="clipPath13">
      <path
         d="M 0,0 H 612 V 803.25 H 0 Z"
         id="path13" />
    </clipPath>
  </defs>
  <g
     id="g1"
     transform="translate(-76.19751,-211.87389)">
    <path
       id="path1-2"
       style="fill-opacity:1;fill-rule:nonzero;stroke:none"
       d="m 126.39281,235.18905 c 0.27415,-0.22 0.67476,-0.17613 0.89479,0.098 0.20973,0.26133 0.18095,0.6404 -0.0658,0.86707 -0.82413,0.75693 -0.82499,4.3592 -0.73632,7.4364 0.0342,1.85613 0.33893,3.8144 0.62099,5.6064 l 0.2958,1.738 c 0.22641,0.7288 0.56222,1.56493 1.06618,2.432 0.39748,0.69626 1.13055,1.4196 1.80898,2.0664 0.32533,0.31413 0.78746,0.56053 1.2253,1.0576 0.68326,0.7592 0.61208,1.56226 0.66352,1.66133 0.10352,0.21933 0.50575,0.4888 0.9981,0.54573 0.48602,0.0561 0.84536,-0.1164 0.90162,-0.21213 0.22907,-0.39013 0.73107,-0.5208 1.1212,-0.29173 0.37214,0.21853 0.51107,0.68826 0.31747,1.074 -0.47507,0.9464 -1.5564,1.2344 -2.49447,1.17706 -0.94169,-0.0575 -1.97158,-0.44826 -2.49652,-1.41586 -0.39872,-0.81094 -0.36097,-1.28934 -0.39589,-1.32974 l -1.11365,-0.938 c -0.69196,-0.676 -1.54216,-1.4876 -2.1058,-2.50253 -0.55871,-1.0252 -0.91526,-2.00107 -1.1468,-2.8572 -0.2057,-0.72067 -0.23386,-1.3328 -0.32303,-1.952 -0.25317,-1.808 -0.54331,-3.8392 -0.54811,-5.83427 0.0247,-3.08293 -0.36825,-6.91706 1.51248,-8.42653 m 12.06366,10.56973 c 0.0429,0.30867 -0.17254,0.5936 -0.4812,0.6364 -0.30867,0.0429 -0.5936,-0.17253 -0.6364,-0.4812 l -0.0552,-0.91866 0.1564,0.3904 c -0.0293,-0.0308 0.3896,0.1964 0.21853,0.13773 -0.30533,-0.10467 -0.468,-0.43693 -0.36333,-0.74227 0.10466,-0.30533 0.43693,-0.468 0.74226,-0.36333 0.3052,0.10467 0.46787,0.43693 0.3632,0.74227 -0.0604,0.17626 -0.20133,0.3132 -0.3792,0.36853 -0.0968,0.0301 0.19947,-0.108 0.16694,-0.084 l 0.0664,-0.0581 0.1572,-0.39027 z m -0.83214,-1.44426 c 0.13627,-0.0471 0.28387,-0.0505 0.42227,-0.0107 0.5444,0.15947 0.43453,0.33187 0.48653,0.43747 l 0.10854,0.29493 c 0.0219,0.0785 0.0319,0.15987 0.0299,0.24133 l -0.4224,3.59854 c -0.39306,2.39773 -1.2344,4.7184 -2.0956,6.60666 l -1.19613,2.3148 c -0.34907,0.5844 -0.55213,0.98227 -0.9852,1.27534 -0.33267,0.22506 -0.78476,0.13786 -1.00985,-0.1948 -0.20944,-0.30947 -0.1502,-0.72734 0.13701,-0.96654 0.39911,-0.33213 2.84751,-4.88053 3.49991,-9.2844 l 0.4252,-3.40026 c 0.003,-0.0813 0.018,-0.16187 0.0445,-0.23894 l 0.10733,-0.25893 c 0.0483,-0.0937 -0.0669,-0.2372 0.448,-0.41507 m -1.61613,7.04907 c 0.10373,-0.34213 0.4652,-0.53533 0.8072,-0.4316 0.3284,0.0995 0.522,0.438 0.44133,0.77147 -0.48266,1.9956 -0.74986,3.27453 -0.64813,4.4252 0.0404,0.45706 -0.29747,0.86026 -0.75453,0.90066 -0.45707,0.0404 -0.86027,-0.29733 -0.90067,-0.7544 -0.003,-0.0256 -0.004,-0.0513 -0.003,-0.0769 0.007,-1.4748 0.4592,-2.8592 1.058,-4.8344 m -0.48706,-0.7856 c 0.12493,-0.28787 0.4596,-0.42 0.74746,-0.29507 0.254,0.11014 0.3916,0.38747 0.32574,0.6564 l -0.29574,1.53614 -0.2268,2.16053 0.0492,1.91027 0.0217,3.07293 -2.7e-4,1.3108 c 0.0712,0.51693 0.14667,0.97373 0.2736,1.20613 0.088,0.16747 0.36147,0.35867 0.63307,0.43027 0.14346,0.0473 0.6956,-0.11507 1.4316,-0.96267 1.2152,-1.39946 2.45413,-3.7576 3.47666,-6.04653 1.00174,-2.24227 1.73054,-4.25707 1.94254,-5.0964 0.0764,-0.30213 0.38306,-0.4852 0.6852,-0.4088 0.27226,0.0688 0.45253,0.32733 0.4228,0.60667 -0.15774,1.48333 -1.2532,4.6856 -2.718,7.86933 -0.72934,1.58533 -1.5248,3.07427 -2.4096,4.22147 -0.85574,1.1096 -1.93627,2.13946 -3.3376,1.78946 -0.7556,-0.25506 -1.48627,-0.7176 -1.85534,-1.54866 -0.30493,-0.71974 -0.2928,-1.3868 -0.31666,-1.94067 l 0.003,-1.4184 0.12094,-3.06267 0.0511,-2.00426 c 0.0443,-0.84374 0.13174,-1.6144 0.3112,-2.34694 l 0.6648,-1.63933 z m 7.0084,5.5752 c -0.1484,-0.30253 -0.0235,-0.66813 0.27906,-0.81653 0.30254,-0.1484 0.668,-0.0236 0.81654,0.27893 0.0675,0.1412 -0.24374,0.005 -0.23947,0.003 0.30693,-0.17787 1.00773,-2.1512 0.8976,-2.40334 -0.12973,-0.2968 0.005,-0.6424 0.3024,-0.77213 0.2936,-0.12827 0.63573,0.003 0.7684,0.29427 0.4084,0.89666 -0.007,1.9456 -0.4664,2.8376 -0.22613,0.43853 -0.47307,0.83546 -0.88827,1.08453 -0.438,0.26267 -1.22053,0.003 -1.46986,-0.506 m 0.6368,-23.3808 c -0.25814,0.22107 -0.64667,0.19107 -0.8676,-0.0671 -0.2196,-0.2564 -0.1916,-0.64186 0.0627,-0.86386 l 0.32974,-0.30907 c 0.0337,-0.0365 -0.0707,0.18667 -0.0212,0.0604 l -0.0328,0.12547 c 0.008,-0.0568 0.0336,0.31693 0.0107,0.2248 -0.0219,-0.09 0.2208,0.3508 0.14654,0.2712 -0.0692,-0.074 0.294,0.17906 0.22266,0.1512 -0.12506,-0.0489 0.31547,0.0344 0.26214,0.0389 -0.0809,0.007 0.1272,-0.0283 0.11626,-0.0241 l -0.14626,0.0836 -0.97854,0.80426 -0.88786,-0.7584 0.32013,-0.51866 c 0.0479,-0.0897 -0.0347,0.13066 -0.0325,0.11 l -0.40774,-1.27174 -0.42853,-1.46746 c -0.0163,-0.0239 0.28813,0.21986 0.1688,0.15106 -0.11653,-0.0673 0.6548,-0.004 0.49173,0.05 -0.1352,0.0448 0.29134,-0.21666 0.25107,-0.16813 -0.0595,0.0719 0.0523,-0.0871 0.0441,-0.0603 l -0.10373,1.18 c -0.007,0.31147 -0.26453,0.55867 -0.576,0.55214 -0.2988,-0.007 -0.54093,-0.24467 -0.55187,-0.54334 l 0.0145,-1.44373 0.094,-0.37107 c 0.0627,-0.1396 0.24493,-0.38786 0.56026,-0.43533 0.52374,-0.0789 0.69174,0.23427 0.80707,0.38827 0.32907,0.43933 0.51413,1.01826 0.73693,1.6172 l 0.30147,1.16 c 0.0741,0.37893 0.21907,0.82173 -0.17493,1.3124 -0.27,0.3116 -0.40174,0.52306 -0.8556,0.61813 -0.3248,0.0679 -0.6432,-0.14027 -0.7112,-0.46507 -0.0459,-0.21906 0.034,-0.4456 0.20706,-0.5876 0.1828,-0.15 0.566,-0.60933 1.0356,-0.9132 l 0.35374,-0.18266 c 0.0945,-0.0367 0.19346,-0.22227 0.62533,0.0235 0.3988,0.22694 0.30453,0.75427 0.2392,0.87614 -0.154,0.28693 -0.32013,0.39026 -0.62587,0.65213 m -5.88133,-2.89173 c 0.0237,0.3356 -0.22907,0.6268 -0.56467,0.6504 -0.27693,0.0196 -0.53213,-0.15067 -0.6204,-0.414 l -0.20933,-0.51054 c -0.0152,-0.0256 0.0923,0.0824 0.036,0.032 -0.0337,-0.0301 0.30813,0.16267 0.1976,0.11934 -0.0599,-0.0236 0.35133,0.0571 0.2444,0.0519 -0.056,-0.003 0.2696,-0.0288 0.19493,-0.0141 -0.0775,0.0151 0.38054,-0.17213 0.2736,-0.10667 -0.398,0.24334 -0.91813,0.118 -1.1616,-0.28013 -0.24346,-0.398 -0.118,-0.91813 0.28,-1.1616 0.39814,-0.24333 0.91827,-0.118 1.1616,0.28013 0.12747,0.2084 0.15854,0.46187 0.0851,0.69494 -0.0303,0.0957 0.034,-0.16734 0.0313,-0.14454 z m -0.6332,-1.76014 c 0.198,0.0697 0.36547,0.20614 0.47387,0.38574 0.222,0.36773 0.12733,0.3244 0.1468,0.41466 0.0221,0.10254 0.0279,0.20787 0.0169,0.31227 l 0.0545,1.52613 0.1012,1.10427 0.0365,0.23973 c 10e-4,0.005 -0.10614,-0.2212 -0.0565,-0.13066 0.028,0.0512 -0.23093,-0.2916 -0.15053,-0.206 0.0864,0.0921 -0.6488,-0.36627 -0.43507,-0.28707 l -0.3836,2.36093 c -0.49026,0.016 -0.87213,-0.2856 -1.0324,-0.50733 -0.49733,-0.6884 -0.23706,-0.8352 -0.21786,-0.95747 0.0981,-0.62666 0.31626,-0.98213 0.41626,-1.35946 l 1.18814,-4.2896 0.8508,-2.55347 c 0.0463,-0.10773 0.1056,-0.20947 0.17666,-0.30267 0.20707,-0.27146 0.4292,-0.52733 0.75174,-0.7404 0.25173,-0.16613 0.6096,-0.34746 1.09733,-0.26386 0.38147,0.0653 0.728,0.36546 0.8608,0.60373 0.32253,0.57933 0.20853,0.82507 0.21307,1.36747 0.003,0.412 -0.32787,0.7488 -0.73987,0.75226 -0.3136,0.003 -0.59533,-0.19106 -0.70507,-0.4848 l -0.114,-0.26653 c -0.0348,-0.0311 0.36974,0.16707 0.23734,0.1268 -0.12494,-0.0379 0.66826,-0.0515 0.4868,4e-4 -0.15947,0.0455 0.47573,-0.30547 0.38653,-0.2208 -0.0733,0.0696 0.16827,-0.21507 0.14173,-0.17253 -0.0407,0.0653 0.0456,-0.0868 0.0441,-0.0828 l -0.13507,0.5392 c -0.0244,0.11493 -0.0628,0.2264 -0.11453,0.33186 l -0.8088,2.17027 -1.31054,4.2468 -0.4172,0.95747 -0.14493,0.298 -0.0281,0.0587 0.0163,-0.0391 0.0337,-0.10094 0.0304,-0.1372 c -0.0107,0.0707 -0.009,-0.4856 0.008,-0.32893 0.0756,0.6688 -0.40534,1.27227 -1.07427,1.34787 -0.49067,0.0555 -0.96627,-0.19067 -1.2044,-0.6232 -0.28813,-0.52334 -0.1752,-0.6436 -0.17453,-0.80294 l 0.0889,-1.62626 c -0.005,-0.62014 -0.0529,-1.25867 0.0712,-1.85374 0.0215,-0.10266 0.0591,-0.20133 0.11147,-0.29226 l 0.25226,-0.31427 c 0.14027,-0.124 0.3328,-0.41907 0.95414,-0.20027 m 5.18066,-5.79586 c -0.0375,-0.30934 0.18307,-0.5904 0.4924,-0.62774 0.3092,-0.0373 0.59014,0.1828 0.62774,0.49187 0.15693,1.29 -0.308,2.52667 -0.208,3.71867 0.026,0.31133 -0.2052,0.5848 -0.5164,0.61093 -0.31134,0.0261 -0.58494,-0.20507 -0.61107,-0.5164 -0.1228,-1.4768 0.32747,-2.7492 0.21533,-3.67733 m -0.664,4.12173 c -0.12186,0.28667 -0.4532,0.42027 -0.74,0.29827 -0.28666,-0.122 -0.42026,-0.4532 -0.29826,-0.74 0.2068,-0.486 0.10293,-0.3912 -0.29947,-0.44267 l -0.13867,0.13787 0.0107,-0.0276 c -0.0163,0.0309 0.0671,-0.234 0.0527,-0.15707 -0.0155,0.0824 -0.0447,-0.46253 -0.012,-0.32987 0.0376,0.15254 0.0399,0.3116 0.007,0.46507 -0.0404,0.18587 -0.0765,-0.63587 -0.0305,-0.50467 0.0405,0.11534 -0.1636,-0.2836 -0.1268,-0.23586 0.0604,0.078 -0.0852,-0.0897 -0.0804,-0.0861 l 1.9164,0.846 1.0348,0.50867 c 0.22093,0.0357 -0.4084,0.1248 -0.30853,0.0725 0.0789,-0.0412 -0.11134,0.0828 -0.10934,0.0803 0.0328,-0.0412 0.18494,-0.44307 0.1712,-0.842 -0.0136,-0.39133 -0.15986,-0.66147 -0.22786,-0.7124 -0.4892,-0.36707 -0.58827,-1.0612 -0.2212,-1.5504 0.35493,-0.47307 1.0188,-0.58373 1.50786,-0.2516 1.1112,0.75467 1.32854,2.0748 1.22347,3.15253 -0.0521,0.53507 -0.18653,1.05587 -0.49227,1.534 -0.31506,0.49254 -0.99506,1.01587 -1.79933,0.92587 -1.00533,-0.1868 -1.39627,-0.652 -1.69253,-0.79227 l -1.6084,-0.81533 -0.71334,-0.49853 -0.35506,-0.4512 c -0.12187,-0.23827 -0.21174,-0.69134 -0.003,-1.08334 0.0741,-0.1388 0.1792,-0.2588 0.30693,-0.35066 0.75774,-0.5448 1.3616,-0.40547 2.00027,-0.1036 0.21027,-9.4e-4 0.6304,0.126 0.92333,0.49 0.30174,0.37466 0.32027,0.95013 0.1016,1.46413 m -0.90373,-0.34987 c 0.3344,0.0832 0.53787,0.42174 0.45467,0.75614 -0.0716,0.28746 -0.3356,0.48493 -0.6316,0.47253 -0.87254,-0.0365 -1.8768,-0.1672 -2.52574,-1.06067 -0.45813,-0.5756 -0.65333,-1.35293 -0.68173,-2.11733 0.0375,-0.69853 0.2548,-1.27653 0.622,-1.75107 0.67213,-0.77493 1.50813,-1.2764 2.46413,-1.36 0.0768,-0.007 0.15414,-0.005 0.23067,0.004 0.68813,0.0821 1.02787,0.50334 1.25,0.80774 l 0.7156,1.24306 0.2448,0.3692 -0.005,0.0291 c 0.30986,0.0327 0.53453,0.3104 0.50186,0.62027 -0.0223,0.21093 -0.16106,0.3916 -0.35906,0.4676 -0.82387,0.31586 -1.4804,-0.42854 -1.92614,-0.87187 l -0.50746,-0.45853 c -0.0641,-0.0268 0.45346,-0.0788 0.32533,-0.0337 -0.0724,0.0255 -0.14707,0.0433 -0.22307,0.0536 -0.19893,0.0267 -0.65053,0.27307 -0.888,0.56827 l -0.2212,0.42667 c -0.11386,0.49226 -0.1016,0.93653 -0.009,1.18733 0.10987,0.26187 0.4524,0.4692 1.17053,0.648 m 4.1036,-0.12627 c 0.34214,0.0391 0.58774,0.34814 0.54867,0.69027 -0.0356,0.31213 -0.298,0.54907 -0.61213,0.55267 -0.56427,0.007 -1.0392,-0.0556 -1.4452,-0.32627 -0.624,-0.416 -0.69934,-1.3184 -0.49787,-1.94293 0.2004,-0.62187 0.56813,-1.192 0.94533,-1.73307 0.49707,-0.63387 0.93147,-1.38507 1.70787,-1.92427 0.57933,-0.37693 1.416,-0.34506 1.91347,-0.0107 1.37866,0.9276 1.59346,2.72266 1.32906,4.32653 -0.43666,1.34307 -1.68786,2.26653 -2.91333,1.90133 -0.29867,-0.0891 -0.46853,-0.4032 -0.3796,-0.70186 0.0711,-0.23827 0.2896,-0.402 0.53827,-0.40307 0.644,-0.003 0.7016,-0.3088 0.69813,-0.95907 0.1072,-0.772 -0.0161,-1.58813 -0.24253,-2.09266 l -0.19174,-0.32 c -0.068,-0.0444 0.48694,-0.0285 0.43587,0.005 -0.28027,0.17507 -0.75293,0.77093 -1.2984,1.41067 -0.57147,0.59826 -0.99693,1.17426 -1.06547,1.412 -0.022,0.0764 -0.0643,-0.072 -0.0431,-0.0483 l 0.57266,0.1628 z m 1.34854,2.094 c -0.31907,0.1168 -0.67254,-0.0472 -0.78934,-0.36626 -0.0748,-0.204 -0.0364,-0.43227 0.10107,-0.60054 0.0975,-0.11973 0.19747,-0.3996 0.72867,-0.35693 0.41146,0.0331 0.622,0.34707 0.70666,0.54453 0.22867,0.53334 0.13387,0.99467 0.0707,1.544 -0.4608,1.66774 -1.13293,3.72374 -1.1032,4.22054 0.0271,0.45426 -0.3192,0.84453 -0.77333,0.8716 -0.4156,0.0249 -0.7844,-0.26414 -0.8596,-0.67347 -0.26014,-1.41533 0.51626,-3.2984 0.8208,-4.7316 l 0.3744,-1.06107 0.0107,-0.0413 c 0.001,-0.0133 0.008,0.2024 -4e-4,0.12413 -0.008,-0.066 0.168,0.37667 0.0992,0.272 -0.0531,-0.0807 0.29094,0.24427 0.21067,0.1984 -0.11627,-0.0663 0.36053,0.0729 0.29147,0.0753 l 0.11146,-0.0193 z m -10.3956,2.40107 c -0.2992,-0.10947 -0.45294,-0.4408 -0.34347,-0.73987 0.0587,-0.16026 0.1852,-0.2864 0.34573,-0.3444 l -0.0701,0.0349 -0.0833,0.0641 c 0.0375,-0.0351 -0.18974,0.3188 -0.13867,0.1992 0.13333,-0.3124 0.4948,-0.4576 0.80733,-0.32413 0.3124,0.13333 0.4576,0.4948 0.32414,0.80733 -0.13347,0.3124 -0.4948,0.4576 -0.80734,0.32413 -0.0987,-0.0421 -0.18466,-0.10933 -0.24933,-0.19506 -0.0611,-0.0809 0.15533,0.14413 0.1272,0.12426 -0.0708,-0.0504 0.0891,0.0499 0.0879,0.0495 m 0.9272,-0.71133 c 0.052,0.21893 -0.009,0.44946 -0.1636,0.61346 -0.36707,0.39054 -0.40387,0.22307 -0.50667,0.242 l -1.16587,0.14027 c -1.24664,0.0236 -2.50368,0.50067 -3.79804,1.16973 -0.74561,0.3352 -1.3823,0.54534 -1.77482,0.85334 -1.12196,0.81773 -1.54078,4.0012 -0.70942,5.77813 0.14004,0.29933 0.0109,0.65547 -0.2884,0.7956 -0.27354,0.128 -0.59958,0.032 -0.76024,-0.22373 -0.67198,-1.0696 -0.99038,-2.5124 -0.96874,-3.9484 0.0216,-1.43494 0.36401,-2.91187 1.42518,-3.9132 0.7571,-0.6648 1.57346,-0.94627 2.10095,-1.2212 1.52519,-0.68987 3.09313,-1.22614 4.70247,-1.15374 l 1.02786,0.1988 0.3704,0.12587 c 0.1212,0.0529 0.34694,-0.13827 0.50894,0.54307 m 11.75026,10.38373 c -0.24133,0.23547 -0.62786,0.2308 -0.86346,-0.0107 -0.1872,-0.19186 -0.22734,-0.4832 -0.0992,-0.71853 0.072,-0.13227 0.148,-0.30613 0.44066,-0.42613 0.27974,-0.11454 0.64694,0.005 0.8148,0.1568 0.50507,0.4568 0.4696,0.958 0.54027,1.54386 l 0.10867,1.96827 c -0.31467,4.16373 -2.92334,7.99267 -5.13774,10.91427 -0.23586,0.3112 -0.67946,0.37226 -0.99066,0.1364 -0.30134,-0.2284 -0.3696,-0.65347 -0.15507,-0.9648 2.02867,-2.94347 4.28067,-6.72094 4.39413,-10.10787 l 0.15987,-2.30733 -0.0268,-0.43094 c -0.005,-0.0172 0.11827,0.18854 0.0684,0.12334 -0.0413,-0.054 0.30973,0.21426 0.21053,0.16813 -0.15173,-0.0707 0.5124,-0.012 0.41867,0.0221 -0.0829,0.0307 0.1228,-0.0731 0.11693,-0.0672 m -21.16832,0.94934 c 0.0237,0.3108 -0.20889,0.58186 -0.51958,0.6056 -0.29708,0.0227 -0.5606,-0.1896 -0.60175,-0.48467 -0.0849,-0.60907 0.27568,-0.73587 0.52183,-0.95467 0.78301,-0.696 2.08409,-1.4656 2.71416,-1.89053 0.27518,-0.18547 0.64869,-0.1128 0.83425,0.1624 0.18555,0.27507 0.11289,0.64867 -0.16229,0.83413 -0.004,0.003 -0.009,0.005 -0.0133,0.009 l -1.80956,1.15386 -0.81053,0.5964 -0.18915,0.18174 c -0.0129,0.0224 0.0273,-0.32627 0.0359,-0.21307 m 1.14318,0.69853 c -0.33106,0.0963 -0.67746,-0.0941 -0.77368,-0.4252 -0.0839,-0.2888 0.0499,-0.5964 0.31849,-0.73173 0.80468,-0.40547 1.71711,-1.1212 2.65855,-1.9732 2.27646,-1.676 4.44125,-3.80893 6.11805,-4.906 0.2804,-0.18347 0.65653,-0.10493 0.84,0.17547 0.16947,0.25906 0.1168,0.60413 -0.12213,0.8008 -1.39867,1.15093 -3.45307,3.4116 -5.65786,5.27613 -1.19472,0.82187 -2.31077,1.47253 -3.38142,1.78373 m 7.84741,-6.31506 c -0.23173,0.256 -0.6272,0.27586 -0.88333,0.0441 -0.224,-0.20267 -0.27107,-0.53653 -0.112,-0.7932 l 0.58826,-1.172 c 0.0172,-0.078 0.0451,-0.15333 0.0831,-0.2236 l 0.184,-0.5604 c 0.12507,-0.33667 0.31547,-0.59227 0.55707,-0.77947 0.24466,-0.18946 0.68506,-0.47213 1.21026,-0.0897 0.64654,0.4992 0.3868,0.81507 0.376,1.0924 l -0.11546,1.36267 -0.0187,0.55186 c 0.005,0.12694 -0.0931,-0.0221 -0.0197,0.0799 0.182,0.25307 0.1244,0.6056 -0.12867,0.78747 -0.208,0.14973 -0.4908,0.14026 -0.68853,-0.0229 -0.67294,-0.55546 -0.4208,-1.268 -0.4248,-1.91386 l -0.0227,-0.804 -0.0189,-0.13254 c -0.004,-0.0133 0.1096,0.17574 0.0624,0.11227 -0.0535,-0.0719 0.528,0.28413 0.34653,0.23333 -0.13987,-0.0428 0.36827,-0.001 0.29,0.0133 -0.12467,0.0232 0.2308,-0.1032 0.2036,-0.0831 l -0.0139,0.0604 -0.2404,0.85973 c -0.0335,0.0728 -0.0769,0.14054 -0.12906,0.20134 z m 5.06053,8.582 c 0.052,0.3072 -0.15493,0.5984 -0.46226,0.6504 -0.3072,0.0519 -0.5984,-0.15507 -0.65027,-0.46227 -0.156,-0.922 0.17973,-1.92613 0.572,-2.854 l 0.6784,-1.29667 0.43907,-0.62586 c 0.15733,-0.17867 0.4172,-0.55334 0.96373,-0.3132 0.58813,0.33893 0.4428,0.69866 0.428,0.94746 -0.0461,0.77454 -0.3616,1.85427 -0.65987,2.7928 l -0.51213,1.35427 c -0.37773,0.79293 -1.3408,1.36427 -2.06507,0.73827 -0.47306,-0.40987 -0.39106,-0.91227 -0.35506,-1.3544 l 0.20613,-1.34574 c 0.33213,-1.68213 0.76107,-3.60906 2.21773,-4.46906 0.31494,-0.18587 0.72094,-0.0813 0.9068,0.2336 0.186,0.31493 0.0815,0.72093 -0.23346,0.9068 -0.7548,0.4444 -1.2804,1.99173 -1.59454,3.57373 l -0.23666,1.22933 -0.0176,0.37974 c 0.005,0.0637 -0.13827,-0.13174 -0.0557,-0.0479 l -0.1168,-0.0637 c 0.0193,0.003 0.20254,-0.0541 0.3368,-0.30574 l 0.42734,-1.17013 0.474,-1.8496 0.0916,-0.65827 -9.4e-4,-0.0921 0.0384,0.0935 c -0.0327,-0.0569 0.32267,0.25133 0.2112,0.19573 -0.15133,-0.0935 0.32267,0.0447 0.23614,0.0483 -0.1372,0.005 0.19693,-0.0585 0.18933,-0.0532 l -0.37293,0.4712 -0.58454,1.1204 c -0.354,0.83693 -0.58386,1.72346 -0.4988,2.2264 m 0.0336,-2.10307 c 0.27987,0.18133 0.35974,0.55533 0.17827,0.8352 -0.17267,0.26653 -0.52253,0.35373 -0.80027,0.19933 -0.79573,-0.44266 -0.68613,-1.26026 -0.68573,-1.90133 l 0.0827,-0.8464 c 0.0316,-0.1284 0.0193,-0.2772 0.28213,-0.49947 0.154,-0.13026 0.50173,-0.20946 0.73347,-0.10866 0.21333,0.0928 0.29506,0.22253 0.35173,0.31586 0.19093,0.31494 0.0905,0.72507 -0.2244,0.91614 -0.31507,0.19093 -0.7252,0.0905 -0.91613,-0.2244 -0.009,-0.0155 -0.0181,-0.0313 -0.0263,-0.0476 l 0.0456,0.0719 c -0.0272,-0.0355 0.2152,0.17894 0.14213,0.13107 -0.0751,-0.0492 0.42867,0.10693 0.30707,0.1004 -0.118,-0.007 0.39333,-0.10547 0.312,-0.0647 -0.1456,0.0731 0.24747,-0.2356 0.22093,-0.194 l -0.0149,0.16 -0.007,0.86294 0.0661,0.31266 c 0.0203,0.0543 -0.1308,-0.0728 -0.0476,-0.0189 m -1.69214,4.29227 c -0.0173,0.32653 -0.296,0.57706 -0.62253,0.55973 -0.3196,-0.0169 -0.56787,-0.28493 -0.5604,-0.60493 0.0357,-1.53187 0.4988,-3.29867 1.14707,-4.9016 0.638,-1.57747 1.36293,-2.9504 2.39413,-3.61454 0.33227,-0.214 0.7752,-0.11813 0.98933,0.21427 0.214,0.33227 0.11814,0.7752 -0.21426,0.9892 -0.009,0.007 -0.0195,0.012 -0.0295,0.018 -1.15213,0.6656 -2.95933,4.62187 -3.10387,7.33987 m -6.30032,-8.936 c -0.0487,0.3196 -0.3472,0.5392 -0.66677,0.49053 -0.23548,-0.0359 -0.42573,-0.2108 -0.48113,-0.4424 -0.17684,-0.73947 0.37377,-1.4372 1.01166,-1.88333 0.6499,-0.4544 1.4731,-0.77627 2.3483,-0.96654 1.09253,-0.156 1.82053,0.0459 2.1672,-0.0424 0.80613,-0.16853 1.80893,-1.6136 3.10973,-2.61133 0.0789,-0.0607 0.1664,-0.10907 0.2596,-0.144 0.52987,-0.19867 1.17027,-0.24413 1.6384,0.0133 0.29293,0.1608 0.40013,0.52854 0.23933,0.8216 -0.0736,0.13414 -0.19533,0.23547 -0.34066,0.28347 l -0.33734,0.3712 c -0.0539,0.0835 -0.11973,0.15853 -0.19546,0.22267 -0.8044,0.68106 -1.76907,2.65466 -3.8328,3.1756 -1.13787,0.23426 -1.92974,-0.066 -2.3892,-0.0236 -0.7424,0.0157 -1.4136,0.1412 -1.90547,0.33106 -0.45683,0.17627 -0.62235,0.38467 -0.62539,0.40467 m 8.41579,3.17413 c 0.18387,0.26387 0.11893,0.6268 -0.14493,0.81067 -0.26,0.1812 -0.61734,0.1212 -0.80387,-0.1352 -0.47987,-0.65973 -0.46187,-1.5892 0.0801,-2.01933 1.55974,-1.23774 4.8732,-0.6624 6.17534,-1.16827 0.34386,-0.13347 0.7308,0.0369 0.8644,0.3808 0.13346,0.34373 -0.0369,0.7308 -0.38067,0.86427 -0.005,0.003 -0.012,0.004 -0.0172,0.007 -1.26733,0.4528 -3.05733,0.35947 -4.506,0.52387 -0.6848,0.0777 -1.2304,0.22453 -1.40133,0.35107 -0.10587,0.0784 -0.1472,-0.018 0.13413,0.38573 m 3.5096,-2.25613 c 0.001,0.33866 -0.27227,0.61413 -0.6108,0.61546 -0.31973,0.001 -0.5868,-0.24346 -0.61333,-0.56213 -0.0788,-0.9452 0.79453,-1.49827 1.5272,-1.79933 0.7284,-0.29934 1.4768,-0.44227 1.93826,-0.5112 0.402,-0.0601 0.77667,0.21706 0.8368,0.61906 0.0601,0.402 -0.21706,0.77654 -0.61906,0.83667 -0.0255,0.004 -0.0509,0.007 -0.0767,0.008 -0.34707,0.0152 -1.02787,0.11213 -1.60373,0.31 -0.55227,0.18973 -0.77894,0.43747 -0.77867,0.48413 m 1.34733,-5.98586 c 0.30027,-0.0863 0.6136,0.0873 0.69987,0.3876 0.0687,0.23906 -0.0269,0.49506 -0.2356,0.63053 -0.47613,0.3092 -0.88387,0.48427 -1.28373,0.53867 -0.2048,0.0279 -0.48454,0.088 -0.86614,-0.20094 -0.41813,-0.31666 -0.47346,-0.99506 -0.3132,-1.3728 0.0471,-0.11066 0.11307,-0.2124 0.19507,-0.30026 1.2572,-1.3464 3.33053,-1.1104 5.4616,-1.04067 2.13987,0.07 4.22133,0.31907 5.3036,0.4172 0.46907,0.0427 0.8148,0.45733 0.77227,0.9264 -0.0408,0.4496 -0.4248,0.78947 -0.876,0.77533 -1.16107,-0.0364 -3.1952,-0.2284 -5.2348,-0.2376 -2.0076,-0.009 -3.82454,0.448 -3.87907,0.5144 -0.0763,0.0929 -0.16827,0.17174 -0.27173,0.23294 -0.004,0.003 0.13493,-0.1204 0.0831,-0.0685 -0.0513,0.0516 0.228,-0.43693 0.17774,-0.28973 -0.0459,0.13453 -0.0161,-0.5812 0.0192,-0.44187 0.03,0.11814 -0.18534,-0.3316 -0.13467,-0.27013 0.0815,0.0987 -0.192,-0.14387 -0.16853,-0.1344 z m 0.62547,3.19426 c 0.17107,-0.29786 0.55133,-0.40066 0.8492,-0.22946 0.0531,0.0305 0.10147,0.0688 0.14333,0.11333 0.07,0.0745 -0.23093,-0.13293 -0.19,-0.12053 l 0.29027,-0.0227 c 0.11467,-0.012 0.23053,-0.004 0.34213,0.0252 1.19214,0.30853 4.41387,-0.14173 4.8052,-0.486 0.27467,-0.2416 0.69347,-0.2148 0.93507,0.06 0.20747,0.23573 0.2208,0.5848 0.0321,0.83573 -0.5812,0.77294 -1.65933,0.99094 -2.816,1.22587 -1.16866,0.23733 -2.35773,0.36133 -3.31013,0.24853 -0.11493,-0.0136 -0.22653,-0.0479 -0.32933,-0.1012 -0.24987,-0.1296 -0.4916,-0.2912 -0.67227,-0.5524 -0.18653,-0.26973 -0.23627,-0.72386 -0.0796,-0.9964 m 6.46773,-0.4848 c 0.23267,0.2072 0.25334,0.56387 0.0461,0.79654 -0.16587,0.18613 -0.43427,0.24146 -0.66027,0.13586 -1.37133,-0.64093 -1.9952,-2.34066 -1.75,-3.7528 0.0153,-0.0885 0.0419,-0.17466 0.0788,-0.25666 0.26693,-0.59147 0.9652,-1.19414 1.75187,-1.12227 0.76666,0.07 1.32826,0.56093 1.88,1.2344 0.3228,0.39387 0.2652,0.97493 -0.12867,1.29773 -0.37653,0.30854 -0.928,0.27134 -1.2596,-0.0851 l -0.49627,-0.42547 -0.0732,-0.0376 c -0.0557,-0.007 0.36254,-0.164 0.2868,-0.0985 -0.0649,0.0563 0.0537,-0.0732 0.0364,-0.0156 -0.0259,0.086 -0.0625,0.1684 -0.10906,0.2452 -0.16867,0.27866 -0.1844,1.5664 0.39706,2.08426 m -1.7112,-0.72706 c 0.22667,0.2592 0.20014,0.65306 -0.0591,0.87973 -0.1912,0.1672 -0.46494,0.20173 -0.6916,0.0871 -0.84547,-0.4272 -1.25507,-1.4092 -1.1812,-2.32614 0.007,-0.0872 0.0255,-0.1732 0.0551,-0.2556 0.33934,-0.94533 1.2264,-1.20706 1.9068,-1.23333 0.97094,-0.0575 1.70107,0.56867 2.122,1.26213 0.7336,0.95214 0.35187,2.28014 -0.2916,3.16147 -0.3976,0.51987 -0.98346,1.04547 -1.8736,0.98373 -0.23906,-0.0167 -0.46693,-0.10813 -0.6512,-0.26133 -0.6296,-0.5236 -0.68626,-1.14467 -0.7064,-1.8696 -0.009,-0.35333 0.26867,-0.64787 0.62214,-0.6576 0.2372,-0.007 0.45853,0.11853 0.5752,0.3252 l 0.1944,0.25827 c 0.0208,0.0107 -0.2304,-0.0359 -0.1528,-0.0333 0.0812,0.003 -0.33454,0.0845 -0.2556,0.0504 0.2208,-0.0955 0.466,-0.1188 0.70093,-0.0667 0.12907,0.0285 -0.23013,0.009 -0.2228,0.007 l 0.13333,-0.1092 c 0.29054,-0.2892 0.40374,-0.83786 0.36867,-0.90466 -0.1192,-0.16827 -0.4112,-0.284 -0.42493,-0.28254 l -0.20454,0.0683 c -0.0231,0.0148 0.0804,-0.2128 0.056,-0.11693 -0.0216,0.0851 -0.0544,0.16666 -0.0976,0.24306 -0.0832,0.14747 -0.11093,0.57507 0.0784,0.7916 m -9.47306,12.4832 c -0.0712,-0.33093 0.13933,-0.6568 0.47026,-0.728 0.3196,-0.0687 0.63694,0.1256 0.72094,0.4416 0.24613,0.9252 1.4768,1.3868 3.1068,1.24654 0.39386,-0.034 0.74066,0.25786 0.77453,0.65173 0.0339,0.39387 -0.258,0.74067 -0.65187,0.77453 -0.009,8e-4 -0.0177,0.001 -0.0267,0.001 -1.98,0.096 -4.01574,-0.62947 -4.394,-2.38827 m -38.49023,-34.66853 h 72.63653 l 0.17534,0.3284 0.6004,1.11973 0.4128,0.6768 h -76.32474 l 0.78208,-0.86013 c 0.0786,-0.03 0.15682,-0.0627 0.23446,-0.0981 0.60154,-0.2744 1.10204,-0.6796 1.48313,-1.16666 m 0.17292,-0.136 c 0.52229,0.0499 0.90529,0.5136 0.85547,1.03586 -0.0483,0.50627 -0.48667,0.88467 -0.99452,0.85854 -0.65795,-0.0339 -1.19188,0.0988 -1.93342,0.2612 l -1.23485,0.35146 -0.3904,0.40854 -0.52193,0.8112 -0.19194,1.03733 -0.26758,2.74933 c -0.0619,0.38294 -0.4224,0.64307 -0.80528,0.5812 -0.318942,-0.0515 -0.561562,-0.314 -0.587882,-0.636 l -0.28139,-2.71266 c 0.0402,-0.6752 0.12485,-1.26014 0.37968,-1.81307 0.231522,-0.50453 0.523752,-0.85413 0.729602,-1.13867 0.218,-0.312 0.51395,-0.67626 0.95919,-0.94906 0.56786,-0.36294 1.20293,-0.52454 1.78349,-0.65147 0.77753,-0.13293 1.55559,-0.28373 2.50176,-0.19347 m -24.964612,90.8484 c -0.22126,0.2332 -0.58963,0.2428 -0.82278,0.0216 -0.23314,-0.22133 -0.24278,-0.58973 -0.0215,-0.8228 0.03,-0.0316 0.0635,-0.0599 0.0998,-0.084 0.0984,-0.0655 -0.19804,0.23027 -0.17173,0.1836 0.0397,-0.0704 -0.0394,0.0919 -0.0392,0.0912 l 0.11686,-0.36626 c 0.13237,-0.2836 0.46958,-0.40627 0.7532,-0.27387 0.27225,0.12707 0.39801,0.44453 0.28664,0.7236 -0.0156,0.0392 0.30572,-0.007 -0.20131,0.52693 m -0.91504,-1.75466 c 0.18968,-0.41627 0.68097,-0.6 1.09733,-0.4104 0.38056,0.17346 0.57223,0.6032 0.4469,1.00226 l -0.11084,0.39507 -0.32896,0.65253 -0.20375,0.3772 -0.0948,0.22414 -0.32771,0.788 -0.064,0.16773 -0.0469,0.39493 0.62659,0.24867 0.60344,-0.0379 0.54772,-0.0404 0.77912,-0.0152 0.42125,-0.012 0.30041,-0.007 c 0.21282,-0.004 0.42232,0.0529 0.6049,0.1624 l 0.55108,0.33733 c 0.3548,0.2236 0.46109,0.69253 0.2374,1.04733 -0.0651,0.10334 -0.15423,0.18947 -0.25972,0.25094 l -0.12722,0.0781 -1.33309,0.0636 -0.61188,1.3e-4 -0.83899,0.0455 -0.3674,-0.0184 c -0.11934,-0.008 -0.23234,0.0228 -0.32577,0.0829 l -0.82705,0.0212 c -0.2739,-0.0377 -0.52608,-0.0761 -0.77454,-0.1156 -0.15241,-0.0767 -0.2986,-0.16826 -0.43733,-0.27626 -0.54667,-0.42534 -0.92279,-1.1984 -0.83341,-1.97094 l 0.21852,-0.86546 0.17661,-0.34734 0.35364,-0.70133 0.23064,-0.46707 0.3982,-0.45413 0.14099,-0.2008 0.17861,-0.40093 z m 97.396192,-86.85494 c -0.49026,-0.0951 -0.8108,-0.5696 -0.71573,-1.06 0.0589,-0.30454 0.27,-0.55747 0.55893,-0.6704 l 1.12894,-0.28587 c 0.0732,-0.0133 0.1476,-0.0188 0.222,-0.0172 l 1.1084,0.0529 -0.254,0.0107 0.5884,-0.0265 c 0.12,0.008 0.23826,0.0329 0.35093,0.0751 1.03213,0.3852 1.57067,1.30814 1.8532,2.16534 l 0.3468,1.64213 0.1028,0.97373 0.0291,0.8304 -0.0261,0.66107 -0.18213,0.8436 c -0.124,0.48067 -0.61427,0.76987 -1.09493,0.64573 -0.3104,-0.08 -0.55467,-0.31933 -0.64107,-0.62813 l -0.1732,-0.65093 -0.086,-0.734 -0.0609,-0.77547 -0.0935,-0.87147 -0.2996,-1.1452 c -0.1872,-0.46333 -0.37067,-0.6012 -0.44187,-0.62146 -0.11746,-0.0335 -0.22933,-0.0843 -0.33186,-0.1508 l -0.0304,-0.0133 0.24813,0.0532 -0.98813,-0.0728 c -0.0736,-0.003 -0.1468,-0.0139 -0.2184,-0.0315 l -0.89974,-0.1984 z m 17.86947,92.65506 c -0.27693,-0.31213 -0.23187,-0.788 -0.11547,-1.02506 l 0.4416,-0.50294 c 0.0765,-0.0555 0.16054,-0.0999 0.24947,-0.13173 0.67307,-0.24053 1.28,-0.17853 1.746,-0.2116 0.35907,-0.0159 0.67587,-0.0521 0.9748,-0.10627 0.1736,0.0892 0.35933,0.106 0.51267,0.0973 0.19106,-0.0107 0.49653,0.0327 0.7672,-0.3432 0.21,-0.29187 0.166,-0.5832 0.0925,-0.8428 l -0.17333,-0.53214 -0.20934,-0.43493 c -0.0339,-0.13867 -0.0713,-0.27467 -0.11213,-0.4068 l -0.39053,-1.2688 c -0.1868,-0.38813 -0.0236,-0.85413 0.36453,-1.04093 0.27627,-0.13307 0.6048,-0.0917 0.8396,0.10533 0.4228,0.3548 0.78253,0.83267 1.094,1.36693 0.44853,0.97627 0.72146,1.96227 0.82186,2.93654 0.0224,0.5512 0.0864,1.26546 -0.63439,1.88373 -0.28707,0.25173 -0.5684,0.39253 -0.82494,0.47827 l -1.1728,0.0199 -2.312,0.0133 -0.21133,0.004 -1.748,-0.0572 z M 98.07883,267.6508 c 0.23539,-0.32013 0.68567,-0.38867 1.00574,-0.15333 0.30894,0.2272 0.3853,0.65693 0.17358,0.97666 -0.30194,0.456 -0.68997,1.19547 -0.99102,1.94574 l -0.783457,1.76213 -0.22748,0.35547 -0.203466,0.32386 -0.394494,0.6 -0.946253,1.54907 -0.666773,1.03413 -0.46096,0.7964 -0.58608,1.06054 -0.520347,0.9932 -0.94808,1.53466 -1.045133,1.6812 -0.6254,0.66507 -0.113587,0.15013 -0.574467,0.74894 -0.549706,0.94346 -0.91144,1.53414 -0.488587,0.83626 -0.179827,0.32414 -0.271106,0.46986 -0.371734,0.66134 -0.248386,0.50626 -0.510213,0.84427 -0.443654,0.55507 c -0.523613,0.694 -1.050973,1.7728 -1.4794,2.7052 l -0.66332,1.55933 c -0.693253,1.5016 -1.689266,2.71187 -2.509226,4.01307 l -0.889054,1.6216 -0.496293,1.02773 -1.596693,2.15587 c -0.217174,0.25413 -0.599227,0.284 -0.85336,0.0669 -0.214667,-0.18347 -0.273974,-0.49093 -0.142934,-0.74107 l 0.956947,-2.1912 0.626427,-1.12773 1.025866,-1.704 c 0.90488,-1.37 1.87284,-2.50467 2.499347,-3.7864 l 0.65244,-1.5404 c 0.463,-0.9596 1.02188,-2.096 1.707733,-2.96813 l 0.3714,-0.46707 0.361454,-0.69027 0.292853,-0.57493 0.4288,-0.7088 0.300133,-0.45653 0.198893,-0.31214 0.467854,-0.80573 0.92436,-1.5292 0.6344,-1.02373 0.6474,-0.82054 0.2348,-0.2788 0.459506,-0.4712 1.001574,-1.63546 0.883693,-1.41747 0.431053,-0.96027 0.60268,-1.17733 0.455747,-0.8264 0.693467,-1.1076 0.94292,-1.57813 0.449,-0.59427 0.21828,-0.31707 0.158906,-0.2324 0.658894,-1.60653 c 0.37668,-0.85533 0.815853,-1.64027 1.225783,-2.1976 m 80.9066,0.4756 c 0.0605,-0.30213 0.27387,-0.55093 0.5632,-0.6568 0.81387,-0.29773 0.71454,0.0381 0.79867,0.0899 0.0636,0.0392 0.122,0.0863 0.174,0.13986 l 0.3428,0.4648 0.99493,1.52374 0.4024,0.7232 0.29814,0.49866 0.3448,0.59894 0.40266,0.8644 0.8228,1.51266 c 0.7356,1.3284 1.27787,2.7176 1.92787,4.14707 l 1.6548,3.6388 1.09387,2.29373 0.4808,1.2236 c 0.38573,0.87854 0.7484,1.5848 1.18773,2.24374 l 1.06667,1.56186 0.56413,1.03 0.53573,0.96667 0.43627,0.93053 c 0.45253,1.0204 1.0964,2.128 1.78933,3.08974 l 1.30627,1.9776 1.28693,2.06626 0.83334,1.61774 0.616,1.3856 c 0.17946,0.3224 0.0635,0.72933 -0.25894,0.9088 -0.2804,0.156 -0.632,0.0907 -0.83773,-0.15547 l -0.8012,-1.06133 c -0.0897,-0.21254 -0.18933,-0.46627 -0.39587,-0.69854 l -0.578,-1.19813 -1.2052,-1.95533 -1.2196,-1.996 c -0.75266,-1.03534 -1.446,-2.2156 -1.9556,-3.35134 l -0.38346,-0.79773 -0.5976,-0.912 -0.53307,-0.9964 -1.074,-1.44267 c -0.5312,-0.75586 -0.96427,-1.55493 -1.39347,-2.4796 l -0.52653,-1.30346 -1.08827,-2.12467 -1.67493,-3.71333 c -0.6456,-1.4952 -1.1464,-2.8532 -1.78773,-4.07174 l -0.8564,-1.63613 -0.38694,-0.7092 -0.32013,-0.56507 -0.3156,-0.54493 -0.37253,-0.66147 -0.928,-1.3624 -0.19014,-0.28613 c -0.0517,-0.054 -0.0964,-0.11413 -0.1332,-0.1792 -0.0292,-0.0515 -0.26146,0.11733 -0.11,-0.6388 m -97.010103,38.01227 c -0.102813,0.12506 -0.255547,0.20706 -0.42736,0.21626 l -0.644013,0.0484 -0.148054,0.0177 c -0.07847,0.0181 -0.157253,0.0239 -0.23416,0.0175 -0.2096,-0.0196 -0.3862,-0.11333 -0.510213,-0.26106 -0.218893,-0.26067 -0.188267,-0.47654 -0.16384,-0.61574 0.02428,-0.13826 0.08683,-0.26706 0.180547,-0.3716 0.434493,-0.48466 0.67364,-0.35973 0.886946,-0.43 2.177854,-0.6124 5.156174,-0.27813 7.53852,-0.2272 l 9.399307,0.0244 c 2.349703,-0.0356 4.472823,-0.366 6.623663,-0.15093 1.0411,0.1068 2.11362,0.18973 3.60198,0.1936 l 6.05133,0.0571 3.80033,0.0761 3.9216,-0.0352 c 1.94871,0.0389 3.28042,0.33147 4.92255,0.436 1.68501,0.0976 3.74235,0.012 5.56144,0.004 l 3.33713,0.0495 c 2.73347,0.1548 5.89414,0.20093 8.2036,0.19746 l 9.7688,0.2084 8.85307,0.0772 5.8196,-0.0683 14.2768,-0.40414 11.06667,-0.38546 c 0.5452,-0.0207 1.004,0.40466 1.02453,0.94986 0.0205,0.54294 -0.4012,1.00067 -0.94413,1.0244 l -0.85907,0.0349 -0.27133,-0.009 h -1.4288 -0.44094 l -0.50213,0.012 c -0.0968,0.0204 -0.174,-0.012 -0.33893,0.11867 l -1.22507,0.0499 -1.004,-0.005 -0.78893,-0.0107 -0.50267,0.0107 c -0.0833,0.0172 -0.15813,0.0532 -0.23,0.10827 l -3.48533,0.14173 -14.27947,0.46907 -5.8644,0.008 -8.91227,-0.13827 -9.71853,-0.0828 c -2.34773,0.0183 -5.53227,-0.0145 -8.31293,-0.1576 l -3.25339,-0.1652 c -1.75976,-0.009 -3.84628,0.0647 -5.67952,-0.0601 -1.78032,-0.11093 -3.05765,-0.3916 -4.82115,-0.42467 l -3.90177,-0.0351 -3.87411,-0.1396 -5.97976,-0.0944 c -1.55576,-0.0155 -2.71016,-0.11667 -3.77988,-0.23814 -1.86718,-0.21653 -3.95388,0.0603 -6.421757,0.0656 l -9.451506,-0.11493 c -2.167973,-0.0529 -4.738347,-0.26133 -6.439,0.0107 m -1.40788,0.51466 c -0.11596,-0.14173 -0.185533,-0.32293 -0.185533,-0.5204 0,-0.36506 0.23772,-0.67453 0.566773,-0.78213 0.502267,-0.36547 0.658427,-0.0773 0.730373,-0.0763 l 0.420827,-0.0409 c 0.566227,-0.40947 0.70172,-0.16387 0.79456,-0.1684 l 2.646507,0.004 c 1.439933,0.0229 3.646906,-0.21133 5.720799,-0.3 0.352787,-0.0151 0.651,0.2588 0.66608,0.6116 0.01469,0.34373 -0.2454,0.6376 -0.58848,0.66467 -1.933813,0.15253 -4.011573,0.43933 -5.558959,0.5124 l -0.64152,-0.009 -0.188614,-0.0147 -1.234653,-6.7e-4 -0.598173,0.004 H 82.95782 c -0.07187,0 -0.140413,0.0143 -0.202933,0.0401 l -1.59116,0.076 -0.59628,1.4e-4 z m 40.895323,-17.2832 c 0,0.49507 -0.40138,0.89654 -0.89651,0.89654 -0.49512,0 -0.89651,-0.40147 -0.89651,-0.89654 0,-0.4952 0.40139,-0.89653 0.89651,-0.89653 0.49513,0 0.89651,0.40133 0.89651,0.89653 m -1.7131,-0.37 c 0.20436,-0.45106 0.73562,-0.65093 1.18662,-0.44653 0.45098,0.20427 0.65092,0.7356 0.44656,1.18653 -0.005,0.0107 -0.01,0.0208 -0.0148,0.0309 l -0.17716,0.336 -0.23912,0.4372 -0.24312,0.4276 -0.5714,1.52466 -0.51526,1.57387 -0.59002,1.4864 -0.23288,0.51867 -0.31775,0.7144 -0.35552,0.73533 c -0.42192,0.73747 -0.87408,1.7752 -1.15071,2.67067 l -0.16921,0.64213 c -0.0474,0.23053 -0.17749,0.43587 -0.36568,0.57733 l -0.15132,0.11054 c -0.36691,0.25893 -0.87405,0.1728 -1.13503,-0.19254 l -0.14281,-0.23066 c -0.11172,-0.20667 -0.14429,-0.44694 -0.0916,-0.67587 l 0.23173,-0.81373 c 0.34396,-1.0424 0.84399,-2.14814 1.35818,-3.002 l 0.37673,-0.62574 0.26305,-0.6288 0.25687,-0.54333 0.55848,-1.32293 0.51063,-1.56334 c 0.16908,-0.52533 0.31845,-1.13386 0.6171,-1.75013 l 0.293,-0.51813 0.23899,-0.4104 z m 34.17696,-0.068 c 0.0587,-0.49453 0.50707,-0.84773 1.00147,-0.78906 0.4804,0.0569 0.83027,0.48293 0.79267,0.96533 -0.0428,0.54987 0.40226,1.50907 0.88173,2.73947 l 0.58893,1.3504 0.35254,0.71306 0.35666,0.73867 0.7816,1.87853 0.21294,0.53147 0.24146,0.54653 0.44947,1.15614 c 0.18853,0.48853 0.48613,0.94626 0.65733,1.6292 0.1088,0.4336 -0.15466,0.87333 -0.58826,0.98213 -0.37614,0.0943 -0.7664,-0.0913 -0.9304,-0.44267 l -0.83587,-1.21693 -0.55907,-1.42027 -0.22813,-0.50066 -0.2008,-0.44174 -0.78307,-1.92346 -0.32306,-0.65107 -0.3492,-0.77533 -0.63307,-1.47387 c -0.41307,-1.15827 -1.04067,-2.2916 -0.88587,-3.59587 m -32.92134,0.86907 c -0.44334,0.0633 -0.8541,-0.24467 -0.91746,-0.688 -0.062,-0.434 0.2321,-0.83867 0.664,-0.9136 l 0.51535,-0.0349 5.04985,-0.008 2.68971,0.11546 1.16004,-0.012 2.16797,-0.004 6.56202,-0.0957 3.75026,-0.0921 3.47307,-0.08 1.9108,0.001 0.80733,-0.0569 0.43694,-0.0379 0.79186,-0.0371 0.67427,6.7e-4 0.36787,2.6e-4 1.7756,-0.0107 0.52413,-0.0107 0.3912,1.3e-4 0.49813,-0.0333 c 0.16894,-0.004 0.336,0.0368 0.484,0.11867 l 0.33614,0.26826 c 0.13426,0.1576 0.4824,0.42574 0.1036,1.04734 -0.054,0.0887 -0.124,0.16653 -0.2064,0.2296 l -0.34694,0.17746 c -0.15746,0.0616 -0.3284,0.0803 -0.49546,0.054 l -0.4288,-0.0287 -0.31614,10e-4 -0.5564,-0.0107 -1.77586,-0.0107 -0.37014,4e-4 -0.61386,4e-4 -0.69614,0.0417 -0.4316,0.0351 -0.8936,0.0547 -1.9248,0.001 -3.5412,0.0313 -3.67626,0.0912 -6.58498,0.12706 -2.18965,-0.004 -1.17383,-0.012 -2.66464,-0.1072 -5.05874,-0.11893 -0.27124,0.008 z m 33.27214,-0.2064 c -0.4144,-0.13507 -0.6408,-0.5804 -0.50573,-0.9948 0.13507,-0.4144 0.58053,-0.6408 0.99493,-0.50573 0.4144,0.13506 0.6408,0.58053 0.50574,0.9948 -0.0991,0.304 -0.3716,0.51813 -0.6904,0.5424 l 0.0769,-0.009 c -0.20947,0.0375 -0.4252,-0.012 -0.59747,-0.1368 -0.0548,-0.0397 0.31374,0.14174 0.216,0.10987 m -38.0925,11.13213 c 0.20876,0.25094 0.17466,0.62347 -0.0761,0.83227 -0.0105,0.009 -0.0215,0.0172 -0.0327,0.0253 l 0.0694,-0.0595 c -0.0293,0.0296 0.15804,-0.2536 0.11167,-0.158 -0.14612,0.3012 -0.50883,0.42706 -0.81012,0.28093 -0.3013,-0.14613 -0.4271,-0.5088 -0.28098,-0.81013 0.14614,-0.30134 0.50883,-0.42707 0.81014,-0.28094 0.17536,0.0851 0.29916,0.2492 0.33269,0.4412 0.0189,0.10814 -0.0902,-0.22906 -0.0683,-0.19066 z m -1.15628,0.51374 c -0.024,-0.1164 -0.0181,-0.23694 0.0169,-0.3504 0.1791,-0.5796 0.33004,-0.4244 0.41363,-0.46894 0.12092,-0.0643 0.25672,-0.0953 0.39357,-0.09 l 2.65111,-0.0777 2.90205,-0.0747 3.8152,-0.042 3.34183,-0.0284 2.52001,0.1468 2.61871,-0.012 3.1108,0.009 2.43133,0.0751 2.08787,0.15307 2.246,0.096 1.60147,0.0769 2.1732,0.0547 2.10653,0.0895 4.18267,0.0773 2.05786,0.0133 1.60387,0.0309 0.5232,-0.1568 0.48947,-0.12507 c 0.32053,-0.0784 0.53813,-0.0147 0.60306,-0.0137 l 0.2372,-0.012 -0.34626,0.1524 -0.10014,0.0903 c 0.0624,-0.0673 -0.24106,0.57467 -0.19533,0.37307 0.0244,-0.1076 0.0429,0.54053 0.005,0.39293 -0.0383,-0.15066 0.32694,0.4932 0.22747,0.39547 -0.33787,-0.332 -0.34253,-0.87507 -0.0107,-1.21293 0.33214,-0.33787 0.8752,-0.34254 1.21307,-0.0107 0.33787,0.332 0.34253,0.87507 0.0107,1.21293 -0.0173,0.0176 -0.0353,0.0344 -0.054,0.0504 -0.49254,0.4216 -0.50427,0.2088 -0.5636,0.21107 l 0.37146,-0.10333 c -0.33,0.18213 -0.47773,0.15786 -0.6552,0.1892 l -0.1724,0.0195 -0.17466,0.14054 c -0.4172,0.18346 -0.788,0.3376 -1.26907,0.3764 l -1.73173,0.0323 -2.07414,0.0133 c -1.27133,0.004 -2.76386,0.0504 -4.27893,-0.0351 l -2.056,-0.1724 -2.2592,-0.0561 -1.484,-0.0679 -2.46973,-0.094 -1.8512,-0.142 -2.50627,-0.0757 -3.00307,0.009 -2.81081,-0.086 -2.33668,-0.1468 -3.38523,-0.0683 -3.77014,-0.0415 -2.89867,-0.0349 -2.7822,-0.0485 c -0.13661,-0.0137 -0.26711,-0.0636 -0.37809,-0.1444 -0.0723,-0.0527 -0.22004,0.0835 -0.33816,-0.49013 m 43.64225,-0.2052 c 0.17627,-0.32787 0.5848,-0.4508 0.91267,-0.27467 0.32773,0.17627 0.4508,0.5848 0.27453,0.91267 -0.17613,0.32773 -0.58467,0.4508 -0.91253,0.27453 -0.24547,-0.13187 -0.38454,-0.40133 -0.3496,-0.678 0.016,-0.12667 0.0192,0.2632 0.009,0.218 -0.0263,-0.12027 0.0997,0.21467 0.0805,0.18813 -0.1924,-0.26493 -0.1336,-0.6356 0.1312,-0.82786 0.0231,-0.0168 0.0472,-0.0317 0.0724,-0.0451 l -0.0521,0.0339 -0.0568,0.05 c 0.0255,-0.0256 -0.16387,0.24986 -0.10947,0.1484 m 21.4068,-81.6356 c -0.10533,0.30906 -0.44133,0.47426 -0.7504,0.36893 -0.0972,-0.0331 -0.184,-0.0909 -0.25213,-0.16787 l 0.0765,0.0696 0.0879,0.0535 c -0.0419,-0.0207 0.3204,0.0707 0.20547,0.0589 -0.34107,-0.0352 -0.58907,-0.34026 -0.55387,-0.68133 0.0352,-0.34107 0.34013,-0.58893 0.6812,-0.55387 0.34107,0.0352 0.58907,0.34027 0.55387,0.68134 -0.0196,0.19013 -0.12574,0.36066 -0.2876,0.46226 -0.0932,0.0584 0.1764,-0.16586 0.1496,-0.13253 -0.0707,0.0875 0.0989,-0.18667 0.0895,-0.15893 m -0.8328,-0.8844 c 0.12187,-0.0481 0.25467,-0.0613 0.3836,-0.0381 0.6312,0.11334 0.46374,0.27827 0.51894,0.3552 0.0635,0.0883 0.1076,0.18894 0.1296,0.29534 l 0.13026,0.66333 0.13534,2.0228 0.0419,1.0228 0.0201,0.39533 0.0145,0.6368 0.0168,0.8944 0.012,0.45694 0.012,0.4648 0.0133,4.8916 -0.0249,2.14186 -0.18733,4.02134 -0.0611,2.10293 -0.008,1.0304 -0.0324,1.01587 -0.0233,0.5016 -0.0239,0.54426 -0.005,0.7244 -0.0313,0.53414 -0.004,0.5188 -0.004,0.6132 -0.0633,1.98866 -0.0765,3.87227 0.0151,2.01773 -0.0133,1.51667 0.0401,2.0184 -0.0627,4.97907 0.17466,3.38133 0.0305,1.6696 -0.0236,0.86253 0.009,0.33667 -0.10307,0.64093 -0.0524,0.208 c -0.0225,0.0757 0.13174,0.0988 -0.27773,0.46254 -0.20893,0.18546 -0.49653,0.25466 -0.76693,0.18426 -0.78587,-0.20453 -0.568,-0.45906 -0.61187,-0.5672 l -0.17747,-0.7196 -0.008,-0.59586 -0.0232,-0.79267 -0.008,-1.50693 -0.005,-3.59014 0.0505,-4.9336 0.0404,-2.06413 -0.0133,-1.47533 0.0151,-2.03667 0.0284,-3.87813 0.0504,-1.98787 -0.004,-0.60813 -0.004,-0.57947 0.005,-0.46027 -0.005,-0.7784 0.0107,-0.57613 0.0203,-0.50053 0.003,-0.9612 0.0261,-1.06907 -0.0607,-2.04773 0.14507,-4.00507 0.0891,-2.1792 0.0473,-4.84613 0.0133,-0.4872 0.012,-0.462 0.0165,-0.8824 0.0139,-0.61947 0.0209,-0.418 0.005,-0.9696 0.0156,-1.8964 -0.0603,-0.6348 c -0.007,-0.10827 0.009,-0.2168 0.0463,-0.31853 0.0355,-0.096 -0.17613,-0.25187 0.454,-0.5008 m 0.69733,48.6352 c 0.2788,0.34293 0.2268,0.8468 -0.11613,1.1256 -0.3428,0.2788 -0.8468,0.2268 -1.12547,-0.11614 -0.2788,-0.3428 -0.2268,-0.8468 0.116,-1.12546 0.10454,-0.0851 0.22894,-0.14227 0.36147,-0.1664 0.1844,-0.0336 -0.3864,0.18533 -0.32507,0.14 0.0971,-0.0717 -0.188,0.20186 -0.16133,0.164 0.0661,-0.0941 -0.0549,0.10106 -0.0469,0.0763 0.12573,-0.39053 0.54426,-0.6052 0.9348,-0.47946 0.29093,0.0937 0.4948,0.35613 0.51373,0.6612 l 0.004,0.0465 -0.0133,-0.0556 -0.0277,-0.0799 c 0.0165,0.0396 -0.1952,-0.29013 -0.11426,-0.19066 M 98.99963,218.98613 c 0.0384,0.30934 -0.18125,0.59107 -0.49048,0.62934 -0.26936,0.0335 -0.52433,-0.12974 -0.606877,-0.38827 l -0.09501,-0.26907 0.392397,0.3232 0.0574,0.0107 c -0.0293,-0.004 0.26063,-0.0133 0.15868,2.7e-4 -0.34941,0.0445 -0.66877,-0.20254 -0.713303,-0.552 -0.04455,-0.34947 0.202613,-0.6688 0.552023,-0.71334 0.34942,-0.0445 0.66878,0.20267 0.71331,0.552 0.0352,0.276 -0.11256,0.54294 -0.36507,0.6596 -0.0996,0.0461 0.17996,-0.1248 0.15182,-0.0995 l 0.0589,-0.062 0.121,-0.49467 0.0652,0.4032 z m -1.471557,-0.32786 c -0.04676,-0.43107 0.264774,-0.8184 0.695827,-0.8652 0.052,-0.005 0.10456,-0.007 0.15671,-0.001 0.53432,0.0492 0.61214,0.36853 0.66377,0.488 0.23988,0.55546 0.0872,0.606 0.11233,0.78346 l 0.12566,3.2544 0.10689,1.66494 0.0795,0.96933 0.002,2.1812 -0.0291,2.30133 0.0461,1.11174 0.002,0.4428 0.004,0.83866 -0.003,1.53027 0.0163,3.06373 0.0559,1.48427 0.0175,0.83147 -0.0111,0.46986 0.003,0.77387 0.0452,2.7604 0.0944,1.62133 0.0214,1.05827 -0.007,0.69453 0.002,0.38387 0.0193,0.32427 0.0179,0.39466 -0.01,2.8124 -0.0189,3.88534 -0.01,1.7484 0.01,0.9744 0.01,1.27533 0.12108,3.14347 0.0802,3.3448 -8.9e-4,1.6196 0.0307,0.7548 0.023,0.4272 -0.0268,-0.0909 c 0.0154,0.0432 -0.14527,-0.26906 -0.0921,-0.18626 0.31347,0.48826 0.17183,1.13813 -0.31636,1.4516 -0.42387,0.27213 -0.98127,0.20506 -1.32854,-0.15974 -0.345623,-0.3632 -0.30381,-0.54866 -0.332663,-0.69626 l -0.07136,-0.5508 -0.04244,-0.91107 -9.87e-4,-1.68467 -0.10336,-3.19866 -0.106426,-3.25774 0.0095,-1.25893 0.01093,-1.04467 0.103213,-1.73146 -0.0192,-3.84534 -0.0095,-2.72986 -0.01709,-0.38507 -0.02455,-0.38067 0.0019,-0.42946 -0.0075,-0.66067 0.02129,-1.0768 -0.05544,-1.5376 0.04676,-2.8692 0.0025,-0.78893 -0.01067,-0.3968 0.01695,-0.8628 0.05671,-1.51547 0.05969,-3.06093 -0.0033,-1.51467 0.0047,-0.87067 0.002,-0.3504 -0.102586,-1.13813 -0.02964,-2.32427 0.0019,-2.10386 -0.06981,-0.8928 -0.08625,-1.6912 -0.02896,-3.23294 0.04797,-0.5856 0.02676,-0.15106 0.0036,-0.0196 -0.004,0.0312 c 0.0024,-0.0228 0.0116,0.2572 7.47e-4,0.1572 m 1.391342,49.8568 c -0.3326,-0.0635 -0.55072,-0.38467 -0.48716,-0.71734 0.0475,-0.2484 0.24274,-0.44226 0.49159,-0.48786 0.0169,-0.003 -0.13271,0.12706 0.0215,-0.0873 l 0.34031,-0.38546 c 0.0815,-0.0689 0.17474,-0.12267 0.27522,-0.15867 1.04219,-0.37373 2.09021,-0.10827 2.83742,-0.1076 l 3.59084,0.0441 3.08481,-0.0915 1.88224,-0.0697 2.88026,0.012 2.2999,-0.004 h 1.96956 l 3.87594,-0.0411 3.45916,-0.19707 c 4.10022,-0.106 7.98306,0.0161 11.84866,0.0107 l 7.6716,0.1172 8.53907,-0.004 4.40067,-0.14694 3.35653,-0.30613 c 1.62493,-0.0384 3.2072,0.0799 4.79707,0.1632 l 4.61813,0.13693 c 1.56293,0.0399 2.50387,0.16614 3.42547,0.11374 l 1.9784,0.0629 1.3456,0.14067 0.94373,0.1208 1.02587,0.29853 c 0.36906,0.10387 0.584,0.48733 0.48013,0.8564 -0.0628,0.22307 -0.23267,0.4 -0.45293,0.47187 l -1.01667,0.22586 -1.15747,-0.0544 -1.3436,-0.14013 -1.69133,-0.0695 c -1.1216,0.0789 -2.09627,-0.0441 -3.58547,-0.0691 l -4.65546,-0.0467 c -1.61094,-0.0493 -3.1468,-0.1268 -4.5976,-0.0597 l -3.3852,0.14066 -4.49107,0.0747 -8.5836,-0.0441 -7.62387,-0.17814 c -3.8964,-1.3e-4 -7.7615,-0.1272 -11.80426,-0.0285 l -3.41587,0.2092 -3.96225,0.038 h -1.96731 l -2.30616,-0.004 -2.85173,0.012 -1.87046,-0.0372 -3.12972,0.13173 -3.57705,0.0107 c -0.96059,-0.005 -1.93253,-0.11547 -2.24251,-0.007 -0.10036,0.0355 -0.20625,0.0527 -0.31268,0.0509 l -0.075,0.005 c -0.0364,0.0183 -0.44951,0.17293 -0.85325,0.0957 m 81.15307,-49.66573 c -0.11453,0.1316 -0.28333,0.20293 -0.45746,0.19333 l 0.0264,8e-4 c -0.3124,-0.003 -0.5636,-0.25773 -0.56107,-0.57013 0.003,-0.3124 0.25787,-0.5636 0.57027,-0.56107 0.31226,0.003 0.56346,0.25787 0.56093,0.57014 -10e-4,0.14146 -0.0552,0.27746 -0.1516,0.38093 l 0.012,-0.014 z m -0.48973,-0.966 c 0.1516,-0.0133 0.3024,0.0321 0.42187,0.1264 0.4432,0.3496 0.22533,0.34307 0.2448,0.41573 l 0.0517,0.21787 -0.12227,2.86973 c -0.0292,0.31014 -0.3044,0.538 -0.61466,0.5088 -0.2804,-0.0264 -0.49827,-0.2556 -0.51067,-0.53693 l -0.13613,-2.6588 0.0965,-0.4596 0.0805,-0.1692 c 0.0451,-0.0737 -0.0267,-0.26987 0.48827,-0.314 m -0.83933,0.33747 c 0.1048,-0.29414 0.42813,-0.4476 0.72226,-0.3428 0.18814,0.0671 0.32694,0.2284 0.36507,0.42453 l 0.0559,0.27533 -0.0629,2.62307 c -0.0156,0.3168 -0.28493,0.56093 -0.60173,0.54533 -0.3036,-0.0149 -0.54293,-0.26386 -0.54587,-0.56786 l -0.0584,-2.47734 z m 0.65946,-0.73627 c 0.0515,-0.30853 0.34334,-0.51707 0.65187,-0.4656 0.16813,0.0281 0.31467,0.1304 0.39907,0.2784 l 0.21333,0.49507 c 0.0665,0.19346 0.0435,0.4064 -0.0629,0.58106 l -0.0455,0.0775 0.0788,-0.348 0.0771,3.3688 c 2.6e-4,0.3252 -0.2632,0.58907 -0.5884,0.58933 -0.31974,1.4e-4 -0.5812,-0.2548 -0.58907,-0.5744 l -0.11747,-3.28533 0.13374,0.33093 -0.0483,-0.0569 c -0.13653,-0.15213 -0.1984,-0.3572 -0.16867,-0.55947 z m 0.10387,2.5116 c 0.008,-0.31173 0.26787,-0.5576 0.57947,-0.5492 0.3,0.008 0.5412,0.24933 0.5492,0.5492 l 0.0592,2.41813 -0.0748,1.81 c -0.0399,0.312 -0.32494,0.53254 -0.63694,0.4928 -0.28733,-0.0367 -0.50133,-0.28333 -0.4972,-0.57293 l -0.0383,-1.70053 z m -0.9556,-0.54067 c 0.0348,-0.3096 0.31413,-0.53226 0.62373,-0.49733 0.2564,0.0288 0.46054,0.228 0.49574,0.48347 l 0.16146,1.29173 c 0.0107,0.0839 0.005,0.16893 -0.0161,0.25067 l -0.0704,0.28426 0.1632,2.65787 c 0.0275,0.3104 -0.20187,0.58427 -0.51227,0.61173 -0.2992,0.0265 -0.56666,-0.186 -0.6084,-0.48346 l -0.21253,-2.8932 -0.0659,-0.12 c -0.0279,-0.0797 -0.0407,-0.16387 -0.0379,-0.24827 z m 18.3856,81.62587 c 0.13867,-0.27907 0.4772,-0.39293 0.75627,-0.2544 0.0825,0.0409 0.15373,0.10147 0.20746,0.1764 l 0.30494,0.5908 0.42946,1.2696 c 0.0663,0.31333 -0.134,0.62107 -0.44733,0.68733 -0.13547,0.0287 -0.27293,0.008 -0.39,-0.0541 l -0.0861,-0.2644 -0.26987,-0.5608 -0.14227,-0.27867 -0.0603,-0.15146 -0.22094,-0.47747 c -0.046,-0.1084 -0.094,-0.228 -0.1572,-0.3504 z m -9.55347,-17.316 c -0.0252,-0.31053 0.20614,-0.5828 0.51667,-0.608 0.18467,-0.0149 0.3648,0.0616 0.48213,0.2048 l 0.24054,0.25653 c 0.0889,0.0847 0.15426,0.19107 0.18973,0.30867 l 0.15973,0.48853 0.82507,1.51027 0.39387,0.65933 0.89253,1.63774 0.47293,1.128 c 0.14774,0.27666 0.0432,0.6208 -0.2336,0.76853 -0.2572,0.13733 -0.57666,0.0576 -0.73906,-0.1844 l -0.65174,-1.19507 -0.82826,-1.46613 -0.4204,-0.70187 -0.84747,-1.67666 -0.27493,-0.34294 c -0.0725,-0.0987 -0.11827,-0.21426 -0.1328,-0.33573 z m 1.74747,3.40533 c -0.0673,-0.30533 0.12547,-0.60746 0.4308,-0.6748 0.186,-0.0411 0.38013,0.0141 0.51667,0.14707 l 0.30746,0.31067 c 0.10587,0.11026 0.17187,0.25266 0.1872,0.4048 l 0.0221,0.20426 -0.0721,-0.22333 0.79947,1.44573 0.82267,1.4468 0.76453,1.2568 0.35267,0.6532 0.63533,1.49027 c 0.122,0.28667 -0.012,0.618 -0.29827,0.74 -0.24893,0.106 -0.53813,0.0203 -0.68906,-0.20427 l -0.78974,-1.3812 -0.3728,-0.62506 -0.7232,-1.2416 -0.78746,-1.5628 -0.75974,-1.448 0.14734,0.18053 -0.15654,-0.1264 c -0.11933,-0.0945 -0.20373,-0.22627 -0.23973,-0.37413 z m 1.63,2.52107 c 0.0276,-0.31067 0.30187,-0.54027 0.61267,-0.51267 0.162,0.0144 0.30986,0.0979 0.40586,0.22907 l 0.14187,0.17707 1.57787,2.5384 0.942,1.67613 0.49413,0.8148 0.3932,0.66667 0.42813,1.10826 c 0.0997,0.3264 -0.084,0.672 -0.4104,0.77187 -0.226,0.0691 -0.47146,0.004 -0.63266,-0.16933 l -0.68987,-0.79787 -0.46,-0.74653 -0.4892,-0.86787 -0.9332,-1.71467 c -0.46,-0.95186 -1.04667,-1.818 -1.3396,-2.63146 z m 2.45253,4.79653 c -0.1072,-0.30133 0.0501,-0.6324 0.35147,-0.7396 0.26787,-0.0953 0.5652,0.0179 0.70187,0.2672 l 0.0884,0.15427 -0.28187,-0.2212 0.0647,0.0195 c 0.2472,0.0712 0.43666,0.27066 0.49506,0.52133 l 0.0277,0.0887 -0.11987,-0.20534 0.24507,0.26347 0.76253,1.00693 1.19747,2.16614 0.52946,0.8836 0.36547,0.5592 0.28013,0.6764 c 0.1124,0.29786 -0.0377,0.6304 -0.3356,0.74293 -0.2032,0.0768 -0.43226,0.0328 -0.59266,-0.11387 l -0.3956,-0.32586 -0.55734,-0.66147 -0.62053,-1.01347 -1.12413,-2.1808 -0.52307,-0.90106 -0.2372,-0.29467 0.1752,0.162 -0.14293,-0.0875 c -0.2188,-0.1356 -0.34734,-0.37893 -0.33574,-0.636 l 0.0439,-0.27306 0.007,0.36066 -0.0692,-0.2184 z m 1.4876,1.78107 c 0.0719,-0.30413 0.3768,-0.49253 0.68107,-0.42067 0.0763,0.018 0.148,0.0517 0.21053,0.0989 l 0.1812,0.13453 c 0.1852,0.13613 0.2924,0.354 0.28734,0.58387 l 10e-4,0.13586 -0.0791,-0.2776 0.5072,0.8348 0.80694,1.13387 0.88386,1.266 0.50974,0.8564 0.4168,0.93573 0.1716,0.76654 c 0.0635,0.30506 -0.1324,0.60386 -0.43747,0.66733 -0.17347,0.036 -0.35373,-0.012 -0.48693,-0.12827 l -0.50867,-0.6032 -0.46667,-0.87173 -0.4852,-0.83333 -0.77973,-1.14094 -0.7844,-1.40213 -0.4576,-0.92333 0.1764,0.23 -0.144,-0.11787 c -0.17667,-0.14627 -0.27133,-0.36933 -0.2536,-0.59813 l 0.0488,-0.32667 z m -0.4104,9.4216 c 0.20107,0.1896 0.26147,0.48507 0.15094,0.7384 l -0.10307,0.16453 c -0.0807,0.0945 -0.18667,0.16414 -0.3056,0.2008 l -0.35267,0.0432 -0.16253,0.003 -0.90573,-0.0296 h -1.3148 c -0.17267,-0.0824 -0.29907,-0.25067 -0.31894,-0.45493 -0.0271,-0.2788 0.15454,-0.53534 0.42654,-0.6024 l 1.73306,-0.26414 0.54907,0.008 c 0.24453,0.008 0.36787,0.0377 0.47613,0.0989 l 0.1276,0.0941 z m 0.20867,-0.1896 c 0.2944,-0.102 0.61587,0.0539 0.71787,0.34827 0.0885,0.25533 -0.0164,0.53746 -0.25014,0.67293 l -0.66146,0.3048 -0.21454,0.0323 -1.47906,-0.0484 h -0.77294 c -0.1392,-0.1476 -0.2024,-0.36107 -0.1492,-0.5724 0.0599,-0.2376 0.25494,-0.41707 0.4968,-0.45667 l 0.3052,-0.0597 1.5244,-0.1368 z m -0.54093,1.02133 c -0.3556,0.0891 -0.716,-0.12706 -0.80507,-0.48266 -0.0877,-0.35067 0.1212,-0.70694 0.46987,-0.80174 l 0.99986,-0.1072 0.64734,0.10627 c 0.3112,0.0595 0.5152,0.36013 0.45573,0.67133 -0.0435,0.22747 -0.21947,0.40654 -0.44613,0.45387 l -0.51934,0.0984 z m -0.58067,-0.5508 c -0.19453,-0.2536 -0.14853,-0.61653 0.1032,-0.81333 l 0.16067,-0.12107 c 0.13026,-0.0956 0.28893,-0.14506 0.45053,-0.14026 0.2904,0.008 0.7928,-0.1124 1.34293,0.0435 0.34027,0.0964 0.53774,0.45027 0.44134,0.7904 -0.084,0.29654 -0.36734,0.49107 -0.67414,0.46294 l -1.04173,0.14853 c -0.1616,0.0201 -0.3252,-0.0147 -0.46453,-0.0988 z m -115.170556,-4.2424 c 0.301414,0.0799 0.481054,0.38894 0.401254,0.69027 -0.05047,0.19067 -0.19668,0.34107 -0.385734,0.39693 -0.172293,0.0509 -0.758586,-0.19333 -0.81372,-0.49973 -0.04639,-0.2576 0.01927,-0.37507 0.05503,-0.48013 l 0.31756,-0.55574 0.16532,-0.23173 0.04501,-0.0972 -0.01933,-0.0393 0.297,-0.5864 0.13232,-0.30387 0.118467,-0.2456 0.09719,-0.178 1.119067,0.8992 c -0.09961,0.0955 0.149213,-0.20587 0.133413,-0.17587 l -0.08984,0.2128 -0.08056,0.1396 -0.190813,0.32254 0.108053,-0.19934 -0.212386,0.34867 c -0.12156,0.12213 -0.526654,0.3864 -0.940734,0.0849 -0.41816,-0.51253 -0.264213,-0.748 -0.228426,-0.83213 0.14996,-0.35267 0.169026,-0.25107 0.2044,-0.2912 0.0011,-0.009 -0.0886,0.134 -0.07607,0.1004 l 0.07763,-0.19547 0.25528,-0.5068 0.230306,-0.31946 0.237694,-0.3312 0.225586,-0.28774 0.08269,-0.14733 0.308373,-0.39187 0.191933,-0.22786 0.2226,-0.2196 0.187094,-0.27334 0.114706,-0.1676 0.130574,-0.20106 0.07831,-0.23307 0.404347,-0.81533 c 0.11308,-0.29027 0.44012,-0.434 0.730467,-0.32094 0.24396,0.0951 0.390493,0.34534 0.353906,0.60454 l -0.159226,0.8132 -0.101174,0.5272 -0.237013,0.40186 -0.136213,0.19987 -0.31624,0.42467 -0.13256,0.17853 -0.189307,0.238 -0.217093,0.26267 -0.167867,0.24626 -0.198587,0.2564 -0.252906,0.35307 -0.132347,0.17547 -0.252773,0.41426 c -0.03256,0.0528 -0.02657,0.1712 -0.279374,0.404 l 0.03389,-0.0389 c -0.0128,0.02 0.08904,-0.20027 0.06104,-0.124 -0.01583,0.0431 0.04501,-0.31613 0.04115,-0.20987 -0.0021,0.0573 -0.05076,-0.29986 -0.02627,-0.21453 0.02556,0.0889 -0.23412,-0.36173 -0.15528,-0.27627 0.04865,0.0528 0.08876,0.11294 0.11888,0.17814 0.03907,0.0845 -0.287907,-0.3164 -0.197227,-0.24667 0.07928,0.0609 -0.33744,-0.13893 -0.25392,-0.11987 0.14024,0.0321 -0.404587,0.0345 -0.327347,0.0107 0.106854,-0.0328 -0.244786,0.14787 -0.204026,0.112 l -0.08277,0.0965 -0.08551,0.21054 0.06695,-0.3388 0.05845,-0.1484 c 0.05001,-0.11374 -0.07351,0.0244 0.136506,-0.3436 0.198107,-0.34734 0.6402,-0.46814 0.98744,-0.27 0.347227,0.198 0.46812,0.64013 0.270014,0.98733 -0.03061,0.0537 -0.06796,0.1032 -0.111147,0.14733 -0.06199,0.0635 0.02664,-0.03 0.0073,10e-4 l -0.07804,0.1564 -0.27784,0.44453 -0.16264,0.20307 -0.123906,0.26226 -0.112467,0.21827 -0.170253,0.22853 -0.191067,0.34867 -0.101627,0.1392 0.03675,-0.0988 c -0.01067,0.0417 0.0104,-0.24507 0.01541,-0.17213 0.008,0.11546 -0.24232,-0.43534 -0.154746,-0.34587 0.08385,0.0856 -0.294267,-0.15387 -0.233054,-0.13773 m 3.6218,-5.168 c -0.311026,0.0188 -0.578373,-0.21814 -0.597133,-0.5292 -0.01549,-0.25667 0.14452,-0.49134 0.389093,-0.57067 0.09044,-0.0293 -0.175133,0.098 -0.151826,0.0797 l 0.0064,-0.018 0.08537,-0.1416 0.09448,-0.166 0.44188,-0.49973 0.110893,-0.10227 0.04477,-0.19453 0.119266,-0.2924 0.01293,-0.0437 -0.0047,0.0563 0.0081,0.114 c -0.0055,-0.034 0.07039,0.21774 0.04188,0.14827 l 0.0782,0.14067 c -0.04431,-0.0615 0.409627,0.2904 0.258454,0.21706 -0.343587,-0.16653 -0.487027,-0.58026 -0.320387,-0.92386 0.16664,-0.34347 0.580253,-0.48694 0.923853,-0.3204 0.284627,0.13813 0.43928,0.45173 0.375507,0.7616 -0.119227,0.5792 -0.133427,0.29613 -0.138293,0.3064 l -0.02496,0.0752 -0.208707,0.41626 -0.19224,0.2884 -0.148067,0.18867 -0.159626,0.2456 -0.241094,0.2992 -0.24228,0.2268 -0.16812,0.14973 -0.2322,0.12307 c -0.1944,0.0577 -0.737853,-0.162 -0.822066,-0.44533 -0.200187,-0.67334 0.06568,-0.53534 0.10052,-0.5864 l 0.09991,-0.1268 0.09973,-0.1336 0.1194,-0.18294 0.191893,-0.32813 0.154507,-0.2536 0.19104,-0.2568 0.16544,-0.20867 0.201066,-0.30613 0.100374,-0.16813 0.11276,-0.1892 0.120693,-0.1912 0.21392,-0.3048 0.252227,-0.4888 0.163453,-0.2992 0.983733,-1.54267 c 0.131187,-0.28267 0.46664,-0.40547 0.74928,-0.27427 0.24952,0.11574 0.379147,0.39467 0.306814,0.66014 -0.170467,0.62546 -0.617627,1.32586 -0.836307,1.78453 l -0.152787,0.28013 -0.30736,0.58827 -0.2294,0.3296 -0.09779,0.15413 -0.10624,0.17814 -0.118027,0.1984 -0.265853,0.40293 -0.182867,0.23613 -0.1294,0.16307 -0.120907,0.1956 -0.244386,0.37693 -0.153027,0.23294 -0.20976,0.248 0.0128,-0.0172 0.02999,-0.0495 0.0482,-0.11493 c -0.01703,0.0549 -0.01839,-0.50054 0.01693,-0.32094 0.01444,0.0736 -0.161293,-0.33013 -0.103453,-0.246 0.10332,0.1504 -0.544574,-0.29973 -0.411267,-0.27253 0.18292,0.0373 -0.418173,0.0484 -0.351813,0.0248 l -0.122547,0.0588 0.164093,-0.11907 0.07452,-0.0792 0.123014,-0.1384 0.185213,-0.28386 0.08209,-0.1312 0.119187,-0.20067 0.11808,-0.23347 0.05304,-0.1468 0.02188,-0.074 -0.01517,0.0755 c 0.0044,-0.0344 0.01133,0.2472 5.6e-4,0.16573 l 0.042,0.1608 c -0.02653,-0.0665 0.213173,0.29454 0.141493,0.21974 l 1.08496,-0.1116 c -0.07931,0.12666 0.06112,-0.124 0.05853,-0.1172 l -0.08701,0.2116 -0.248053,0.38453 -0.309414,0.4204 -0.05755,0.0807 -0.273774,0.34813 -0.190426,0.26453 -0.249294,0.22014 c -0.0254,0.0371 -0.0077,0.21653 -0.468906,0.2444 m -0.472187,10.08146 c -0.04355,-0.038 -0.0764,-0.0744 -0.10544,-0.11386 -0.16672,-0.22654 -0.103427,-0.78094 0.06891,-0.95547 0.397146,-0.4024 0.35916,-0.20347 0.39904,-0.21267 l 0.170733,-0.0179 c 0.35412,-0.17494 0.47956,-0.0581 0.57972,-0.0568 l 0.24308,0.0177 c 0.186027,-0.0791 0.319667,-0.11587 0.4578,-0.11067 l 0.62288,0.10894 c 0.06581,0.0267 0.123867,0.0643 0.172893,0.11 0.160187,-0.0188 0.3518,-0.0192 0.613534,0.0668 0.29604,0.0972 0.457213,0.416 0.359986,0.71213 -0.03988,0.12133 -0.119813,0.22573 -0.226706,0.29573 l -0.997174,0.0451 -0.598173,0.004 h -0.159613 c -0.07187,0 -0.140414,0.0143 -0.202934,0.0401 z m 1.781387,-0.10706 c -0.03696,-0.0708 -0.03516,-0.0452 -0.02568,1.3e-4 -0.07576,-0.0535 -0.110227,-0.128 -0.155694,-0.22947 -0.07599,-0.16973 -0.08107,-0.3628 -0.01411,-0.53626 0.199106,-0.51587 0.56732,-0.47494 0.69436,-0.48547 l 0.220066,-0.005 0.513534,-0.066 0.33784,-0.0136 0.667346,0.005 c 0.767547,-0.012 2.326213,-0.64173 3.510813,-0.058 0.27968,0.13773 0.394667,0.47627 0.256854,0.75587 -0.128134,0.26013 -0.4324,0.3808 -0.70396,0.27933 -0.433414,-0.16187 -1.680094,0.21827 -2.70868,0.37333 l -0.59156,-0.009 -0.188613,-0.0147 -1.234654,-6.6e-4 -0.577866,0.004 z m 1.48004,-0.0296 -0.592227,0.0259 c -0.119173,-0.0456 -0.220373,-0.1248 -0.29584,-0.23066 -0.19456,-0.2728 0.03913,-0.96547 0.260747,-1.0864 l 0.406586,-0.1224 0.532227,0.012 1.8896,-0.0644 c 0.311466,-0.009 0.571333,0.236 0.58044,0.54746 0.0084,0.28867 -0.202454,0.5372 -0.488667,0.57574 l -1.941373,0.30493 z m -1.78272,-0.30174 c -0.308387,-0.0445 -0.52228,-0.33066 -0.477747,-0.63906 0.03575,-0.2476 0.230213,-0.442 0.477747,-0.47774 l 0.57616,-0.0403 -0.487054,0.2984 0.01752,-0.0311 c 0.14372,-0.26013 0.43876,-0.39787 0.73044,-0.34107 l 0.363814,0.0687 0.395413,-0.0355 0.46376,-0.0279 0.789387,-0.0533 0.31156,-0.0315 0.283706,-0.0231 0.2484,-10e-4 c 0.314,0.007 0.562853,0.26733 0.555827,0.58133 -0.0064,0.28587 -0.224227,0.52267 -0.508707,0.5528 l -0.4632,-0.0107 -0.206066,-1.3e-4 c -0.31348,-0.005 -0.563147,-0.26413 -0.55764,-0.5776 0.0055,-0.3132 0.263786,-0.5628 0.57708,-0.5576 l 0.18628,-1.3e-4 0.29492,0.008 c 0.0728,0.004 -0.11316,0.028 0.03627,0.009 l 0.215254,1.11453 -0.19728,0.0304 -0.27552,0.0537 -0.351254,0.0687 -0.857666,0.0763 -0.474894,0.02 -0.56564,0.0205 -0.271093,0.0613 c -0.289587,0.0531 -0.580747,-0.0848 -0.723147,-0.34254 l -0.01752,-0.0309 0.487054,0.2984 -0.57616,-0.0403 z m -0.159054,-0.0413 c -0.278373,-0.14667 -0.385106,-0.49133 -0.2384,-0.76973 0.116307,-0.22067 0.362654,-0.34 0.60792,-0.29454 l 0.45992,-0.0475 0.547347,-0.0403 1.00812,-0.0255 1.43476,0.0207 0.48104,0.012 0.396493,-0.012 0.253333,-10e-4 0.04257,8e-4 -0.0356,0.003 c 0.02572,-0.003 -0.216707,0.0651 -0.141934,0.0359 l 0.170654,-0.0469 c 4.93e-4,0 -0.181534,0.0653 -0.09748,0.0305 0.05055,-0.0209 -0.312427,0.2628 -0.22452,0.16173 0.09257,-0.1064 -0.147427,0.5296 -0.1482,0.3988 -0.01415,-0.0199 0.22544,0.4724 0.164346,0.4088 -0.09728,-0.10146 0.245947,0.1508 0.207014,0.13667 l -0.03984,-10e-4 -0.611587,-0.0209 c -0.311133,0.0168 -0.577013,-0.22173 -0.593853,-0.5328 -0.01613,-0.29826 0.202987,-0.55746 0.499786,-0.5912 l 0.85196,-0.008 0.03377,-0.007 c 0.05176,-0.004 0.133946,-0.14507 0.483186,0.1412 -0.0051,-0.0152 0.217427,0.1932 0.231174,0.45226 0.03429,0.6464 -0.24084,0.54054 -0.244027,0.5436 -0.579773,0.50294 -0.580867,0.20574 -0.682453,0.22027 l -0.449787,0.0661 -0.54564,0.0144 -1.39468,0.0421 -1.030173,-0.0249 -0.44892,-0.028 c -0.309173,-0.0311 -0.631347,-0.0712 -0.946307,-0.2372 m -0.01623,-0.57733 c 0.129826,-0.27427 0.45028,-0.39707 0.72812,-0.28507 l 0.464066,-0.0529 0.638547,-0.0341 0.583,-0.0107 c 1.670066,0.001 2.65768,-0.0469 3.3014,-0.19133 0.30404,-0.0681 0.605786,0.12306 0.673946,0.42706 0.06099,0.272 -0.0858,0.54787 -0.345493,0.64907 -0.58888,0.22973 -1.343147,0.3752 -2.3928,0.47733 l -1.171693,-0.0173 -0.188613,-0.0147 -1.234654,-6.6e-4 -0.4812,0.003 -0.292986,-0.10213 c -0.175734,-0.10693 -0.428147,-0.5376 -0.28164,-0.8472 m -0.17924,-0.50973 c 0.16176,-0.0901 0.348586,-0.0928 0.505946,-0.0236 l 0.709267,-0.0161 0.436507,-0.0107 2.162133,-0.0251 1.944226,0.0265 0.96576,0.003 0.403494,0.0185 c 0.249773,0.0336 0.171306,-0.15213 0.674013,0.152 0.17792,0.10774 0.28788,0.29934 0.291,0.50734 0.0065,0.43853 -0.1914,0.462 -0.26544,0.51453 -0.367147,0.26027 -0.470973,0.16307 -0.6378,0.1868 l -0.431347,0.0227 -0.911453,0.10093 -1.50804,0.0387 -1.59648,-0.0236 -0.272066,-0.0159 -0.207774,-1.3e-4 -0.626626,-0.0208 -0.440134,-0.0371 -0.777933,-0.13253 -0.43416,-0.1824 c -0.09243,-0.0632 -0.250027,-0.16094 -0.296107,-0.44827 -0.05041,-0.31453 0.205214,-0.5752 0.313014,-0.63533 m 0.55552,1.45986 c -0.184747,-0.12226 -0.3066,-0.33186 -0.3066,-0.57 0,-0.37733 0.305826,-0.68306 0.68308,-0.68306 0.07801,0 0.152973,0.0133 0.2228,0.0371 l 0.56304,-0.0399 1.662186,-0.0748 0.981253,-0.0528 5.30352,-0.0695 c 0.310934,-0.0201 0.57928,0.21573 0.599347,0.52667 0.01872,0.29 -0.186013,0.54693 -0.472973,0.59333 -1.062027,0.1716 -2.9678,0.19653 -5.363494,0.32933 l -0.643986,0.0316 -1.12536,-0.0167 -0.188613,-0.0147 -1.234654,-6.7e-4 z m 3.287573,-0.75386 c -0.304307,-0.0725 -0.4922,-0.378 -0.419693,-0.68227 0.04953,-0.20787 0.211826,-0.37027 0.419693,-0.41973 l 1.343093,-0.17734 1.239813,0.0712 3.05912,0.0885 1.397574,-0.003 0.61612,0.0169 0.355066,-0.001 0.40772,0.008 0.219654,5.3e-4 0.441853,0.0197 c 0.311187,0.0159 0.550653,0.28093 0.534853,0.59213 -0.01467,0.28907 -0.24576,0.52013 -0.534853,0.5348 l -0.421187,0.0195 -0.256826,0.001 -0.360147,0.008 -0.370653,0.0248 -0.61624,0.0169 -1.380227,0.0449 -3.1572,-0.0296 -1.06244,0.0453 -1.455093,-0.1796 z m -8.03736,-1.42414 c 0,0.4016 -0.325507,0.72707 -0.727027,0.72707 -0.401533,0 -0.72704,-0.32547 -0.72704,-0.72707 0,-0.40146 0.325507,-0.72693 0.72704,-0.72693 0.40152,0 0.727027,0.32547 0.727027,0.72693 m -1.387733,0.30347 c -0.16756,-0.36493 -0.0076,-0.79653 0.357306,-0.96413 0.364894,-0.16747 0.796534,-0.008 0.964094,0.35733 0.05287,0.1152 0.07473,0.24213 0.06343,0.36827 l 0.06681,0.19306 c 0.07352,0.32614 -0.13128,0.65014 -0.45744,0.7236 -0.222067,0.0501 -0.45344,-0.0287 -0.598854,-0.20373 -0.01293,-0.0156 -0.211373,-0.0737 -0.395346,-0.4744 m 81.714359,-2.42853 c -0.3116,9.3e-4 -0.56493,-0.25094 -0.56573,-0.56254 -9.3e-4,-0.29413 0.2244,-0.5396 0.51747,-0.56386 l 0.0492,-0.007 -0.2036,0.0941 -0.10347,0.10387 -0.0663,0.11747 c 0.0232,-0.056 -0.0248,0.45573 -0.0417,0.2856 -0.0332,-0.33387 0.21067,-0.63147 0.54467,-0.66467 0.334,-0.0332 0.6316,0.21067 0.66466,0.54467 0.0332,0.334 -0.21066,0.6316 -0.54466,0.66466 -0.20574,0.0205 -0.40787,-0.0652 -0.53627,-0.22733 -0.0881,-0.1112 0.18787,0.15747 0.1572,0.13907 -0.0755,-0.0455 0.0845,0.0407 0.0805,0.0393 l 0.2308,0.0277 -0.1828,0.008 z m 0.17467,-1.24147 c 0.354,-0.0171 0.65493,0.25613 0.672,0.61027 0.003,0.0541 -10e-4,0.1084 -0.0133,0.1616 -0.11374,0.54706 -0.25307,0.3932 -0.2936,0.4188 l -0.3744,0.15573 -0.29427,0.0485 0.144,-0.0695 c -0.0239,0.0221 0.1384,-0.20667 0.098,-0.13067 -0.022,0.0416 0.0783,-0.25987 0.0625,-0.17853 -0.0168,0.0867 -0.0673,-0.4908 -0.0217,-0.3488 0.0248,0.0775 0.0369,0.15866 0.0359,0.24013 -0.003,0.1932 -0.22214,-0.55453 -0.1488,-0.4568 0.0636,0.0847 -0.2076,-0.18973 -0.16427,-0.15947 0.0729,0.0512 -0.1656,-0.0856 -0.13947,-0.0753 l 0.10867,0.007 c 0.0781,0.007 0.1548,0.0257 0.2272,0.056 l 0.4544,0.11733 c 0.3104,0.13013 0.45653,0.48733 0.3264,0.79787 -0.0563,0.134 -0.15853,0.24346 -0.2884,0.3088 l -0.6556,0.234 c -0.0769,0.0133 -0.15547,0.0149 -0.2328,0.004 l -0.31213,-0.0584 -0.20894,-0.0707 -0.2104,-0.13413 c -0.1096,-0.096 -0.33013,-0.36054 -0.24653,-0.742 0.0175,-0.0793 0.0475,-0.15534 0.0892,-0.2252 0.35853,-0.60067 0.59947,-0.48027 0.9676,-0.46627 l 0.13293,0.0143 c 0.0107,-0.003 -0.12893,-0.0391 0.2852,-0.0591 m -0.18653,1.81453 c -0.42533,-0.148 -0.65013,-0.6128 -0.50213,-1.03813 0.13893,-0.3992 0.55986,-0.62613 0.96973,-0.52267 0.0976,0.0247 -0.11827,-0.0171 -0.11667,-0.0171 l 0.0443,-0.004 c 0.10653,-0.0157 0.2152,-0.0107 0.3196,0.016 l 0.12467,0.0153 -0.0831,0.022 c 0.0532,-0.0179 -0.31227,0.2384 -0.2268,0.1468 0.2192,-0.2352 0.58573,-0.25333 0.82707,-0.0411 0.3584,0.31534 0.13826,0.89987 -0.0276,1.07174 l -0.42347,0.30573 c -0.0948,0.0512 -0.19867,0.0833 -0.30587,0.0944 -0.16453,0.0172 -0.29693,0.0568 -0.59973,-0.0485 m 0.6408,-2.67707 c 0.29573,-0.14267 0.6516,-0.0335 0.8164,0.25053 0.0619,0.10654 -0.24627,-0.2128 -0.19747,-0.18786 0.23707,0.12146 0.39414,0.35706 0.41507,0.62253 l 0.1444,0.31573 c 0.10213,0.36587 -0.1116,0.7452 -0.47747,0.84734 -0.25253,0.0705 -0.52333,-0.009 -0.698,-0.2044 -0.0248,-0.0279 -0.2824,-0.1944 -0.44826,-0.61947 -0.0969,-0.24827 -0.0581,-0.52907 0.10266,-0.7416 z m 0.0887,0.92067 c 0.0776,-0.0379 0.16213,-0.0592 0.24826,-0.0627 0.49934,-0.0204 0.49,0.18707 0.54747,0.25533 0.1376,0.16334 0.18987,0.38214 0.14107,0.58987 l -0.007,0.0269 c -0.001,0.0271 -0.12027,-0.31986 -0.0577,-0.21373 0.17293,0.29293 0.0756,0.6704 -0.21734,0.8432 -0.2144,0.12667 -0.484,0.1116 -0.68306,-0.0381 -0.3336,-0.2508 -0.33987,-0.57734 -0.34747,-0.60774 -0.0521,-0.20706 -0.004,-0.42653 0.13147,-0.592 l 0.24453,-0.20106 z m 0.89533,0.42146 c 0.11387,0.31214 -0.0468,0.65747 -0.35907,0.77134 -0.128,0.0468 -0.268,0.0487 -0.3972,0.005 l 0.08,0.0204 c -0.0408,-0.007 0.35934,-0.0296 0.22387,-0.003 -0.3288,0.066 -0.6488,-0.1472 -0.7148,-0.476 -0.0659,-0.3288 0.1472,-0.6488 0.476,-0.71466 0.3288,-0.066 0.6488,0.14706 0.7148,0.47586 0.0225,0.11254 0.0133,0.2292 -0.0283,0.33654 -0.0625,0.16333 0.0257,-0.3576 0.034,-0.29854 l -0.0293,-0.11786 z m -1.18933,0.20974 c -0.004,-0.19347 0.0828,-0.3776 0.2344,-0.498 0.56666,-0.44987 0.5204,-0.12574 0.56933,-0.11427 l 0.0704,0.0179 c 0.2468,0.0588 0.43773,0.25426 0.49093,0.5024 10e-4,0.009 0.0275,-0.0683 0.0235,0.18146 -0.001,0.0761 -0.0173,0.15134 -0.0476,0.22134 -0.1736,0.402 -0.31667,0.32146 -0.36133,0.3404 -0.2352,0.1004 -0.5072,0.0555 -0.6976,-0.1152 l -0.10347,-0.10374 c -0.0371,-0.042 -0.1672,0.13227 -0.17853,-0.43226" />
    <path
       id="path12"
       d="m 83.07102,618.9058 c -0.49657,0.007 -0.89325,0.4157 -0.88601,0.9123 0.007,0.483 0.3944,0.8741 0.8773,0.8858 l 5.083,0.085 c 1.99096,0.0548 4.23671,0.169 6.75374,0.4302 3.8287,0.3818 7.90365,0.5672 11.85795,0.793 3.4411,0.1801 5.8425,0.4118 8.2533,0.3758 2.2666,-0.0324 4.5993,0.0444 6.395,0.0636 l 2.5959,0.0318 1.2928,0.0792 c 0.3882,0.006 0.7489,0.0102 1.1734,-0.1101 0.1204,-0.0341 0.235,-0.0865 0.3395,-0.1555 0.293,-0.1931 0.6183,-0.549 0.6986,-1.0098 0.1034,-0.5924 -0.2931,-1.1564 -0.8855,-1.2598 -0.246,-0.0429 -0.4993,10e-5 -0.7173,0.1217 -0.1121,0.0625 0.3122,-0.0955 0.2585,-0.0884 l 0.0507,-0.004 c -0.1259,-0.008 -0.2524,0.003 -0.3748,0.0341 l -0.4447,0.01 -1.3633,-0.0367 -2.6181,0.0322 c -1.7463,-0.004 -4.1053,-0.0684 -6.4417,-0.0204 -2.2502,0.0444 -4.6172,-0.1683 -8.0913,-0.3393 -3.9744,-0.1766 -8.02362,-0.3126 -11.77745,-0.6368 -2.59348,-0.2135 -4.8986,-0.2747 -6.92853,-0.274 l -5.101,0.0804 z"
       style="fill:#ff00de;fill-opacity:1;fill-rule:nonzero;stroke:none"
       transform="matrix(1.3333333,0,0,-1.3333333,0,1071)"
       clip-path="url(#clipPath13)" />
  </g>
</svg>
