<?xml version="1.0" encoding="UTF-8" standalone="no"?>
<!-- Created with Inkscape (http://www.inkscape.org/) -->

<svg
   version="1.1"
   id="svg1"
   width="124.37421"
   height="53.037132"
   viewBox="0 0 124.37421 53.037132"
   sodipodi:docname="leak.svg"
   inkscape:version="1.3.2 (091e20e, 2023-11-25)"
   xmlns:inkscape="http://www.inkscape.org/namespaces/inkscape"
   xmlns:sodipodi="http://sodipodi.sourceforge.net/DTD/sodipodi-0.dtd"
   xmlns="http://www.w3.org/2000/svg"
   xmlns:svg="http://www.w3.org/2000/svg">
  <sodipodi:namedview
     id="namedview1"
     pagecolor="#ffffff"
     bordercolor="#000000"
     borderopacity="0.25"
     inkscape:showpageshadow="2"
     inkscape:pageopacity="0.0"
     inkscape:pagecheckerboard="0"
     inkscape:deskcolor="#d1d1d1"
     inkscape:zoom="4.4497127"
     inkscape:cx="62.25121"
     inkscape:cy="26.518566"
     inkscape:window-width="1312"
     inkscape:window-height="449"
     inkscape:window-x="1978"
     inkscape:window-y="551"
     inkscape:window-maximized="0"
     inkscape:current-layer="g1" />
  <defs
     id="defs1">
    <clipPath
       clipPathUnits="userSpaceOnUse"
       id="clipPath11">
      <path
         d="M 0,0 H 612 V 803.25 H 0 Z"
         id="path11" />
    </clipPath>
  </defs>
  <g
     id="g1"
     transform="translate(-64.806892,-82.345299)">
    <path
       id="path10"
       d="m 72.45701,722.5944 c 0,-0.4651 -0.37704,-0.8421 -0.84215,-0.8421 -0.46511,0 -0.84215,0.377 -0.84215,0.8421 0,0.4651 0.37704,0.8422 0.84215,0.8422 0.46511,0 0.84215,-0.3771 0.84215,-0.8422 m -2.09754,0.8817 c -0.3282,0.208 -0.42562,0.6427 -0.21758,0.9709 0.17258,0.2723 0.50811,0.3924 0.8143,0.2916 l 0.31128,-0.0972 c 0.30599,-0.1362 0.49377,-0.3032 0.65708,-0.4617 0.66388,-0.6266 0.62343,-1.5229 0.5035,-2.193 l -0.21151,-0.7826 c -0.15191,-0.3241 -0.34853,-0.4597 -0.41094,-0.5166 l -0.14394,-0.1439 -0.01327,-0.0133 c -0.0094,-0.0119 0.09047,0.1704 0.06184,0.1056 l -0.0547,-0.1055 c -0.0049,-0.0122 0.0327,0.2494 0.02801,0.1492 -0.0044,-0.0943 -0.02484,-0.1871 -0.06042,-0.2745 -0.03422,-0.0841 0.06436,0.376 0.06041,0.2786 -0.0039,-0.0954 -0.05691,0.3481 -0.03324,0.268 0.045,-0.1523 -0.24477,0.3912 -0.182,0.3226 0.05712,-0.0625 -0.19069,0.1558 -0.14913,0.1281 0.07436,-0.0496 -0.19686,0.0961 -0.16036,0.0824 0.06096,-0.0228 -0.12549,0.0342 -0.10745,0.0307 l 0.11513,0.006 0.29941,0.1554 -0.005,-0.0138 0.03077,0.2083 -0.0766,0.0461 -0.43386,0.4137 c -0.03179,0.0338 -0.07925,0.005 -0.25493,0.2836 -0.04834,0.0767 -0.08167,0.1618 -0.09822,0.2509 -0.06335,0.341 0.1075,0.5476 0.18812,0.633 0.36873,0.3908 0.41321,0.32 0.79011,0.3051 0.59857,-0.0306 0.67722,-0.4165 0.74524,-0.6092 l 0.08278,-0.5953 c -8.7e-4,-0.0253 0.29035,-0.476 0.33832,-1.1676 0.01896,-0.1291 0.08135,-0.3858 0.01483,-0.7264 -0.05217,-0.4369 -0.3407,-0.6915 -0.42159,-0.7925 l -0.35625,-0.3036 c -0.0778,-0.0439 -0.17035,-0.1247 -0.45152,-0.1128 -0.33224,0.0141 -0.7421,0.4677 -0.75904,0.753 -0.0055,0.0921 0.0054,0.1845 0.03218,0.2728 0.19486,0.6433 0.42242,0.5725 0.47428,0.6316 0.05342,0.0684 0.15584,0.3774 0.17241,0.6586 l -0.09031,0.2432 -0.37383,0.4732 -0.21508,0.1596 c -0.08051,0.0321 -0.15575,0.076 -0.22321,0.1304 -0.10907,0.0879 0.41701,-0.1214 0.32517,-0.1204 l 0.13122,0.017 c -0.04739,-0.0129 0.26153,0.1447 0.18255,0.0882 -0.006,-0.0246 0.30887,0.5917 0.29242,0.4744 -0.01356,-0.0967 -0.01902,0.2759 -0.0075,0.2229 0.0183,-0.084 -0.06273,0.1564 -0.05178,0.1381 l 0.09212,-0.0778 c 0.2443,-0.1526 0.28218,-0.2717 0.315,-0.299 l 0.13106,-0.1104 c 0.01944,-0.0164 -0.28739,0.1342 -0.17735,0.0959 0.36074,-0.1253 0.55156,-0.5194 0.42621,-0.8801 -0.12535,-0.3607 -0.51941,-0.5516 -0.88015,-0.4262 -0.07597,0.0264 -0.14675,0.0658 -0.20916,0.1166 -0.2773,0.2253 -0.15044,0.1728 -0.16898,0.1895 l -0.17742,0.1759 -0.41002,0.27 c -0.13661,0.1177 -0.49382,0.2171 -0.34694,0.8839 0.0076,0.6312 0.61023,0.8896 1.24317,0.766 0.08538,-0.0166 0.16776,-0.0461 0.24437,-0.0873 l 0.6445,-0.5105 c 0.30223,-0.3411 0.49958,-0.6994 0.63066,-1.054 0.12279,-0.3173 0.17126,-0.6756 0.13349,-1.0056 -0.01233,-0.435 -0.10786,-0.9895 -0.47398,-1.4752 l -0.17846,-0.2278 0.03443,0.0799 c -0.01625,-0.0441 0.0432,0.2821 0.03892,0.1947 -0.0045,-0.0921 -0.02529,-0.1827 -0.06137,-0.2675 l 0.03834,0.1176 c -0.01149,-0.0491 0.01784,0.2596 0.01936,0.185 0.0015,-0.0725 -0.07627,0.3278 -0.04523,0.2423 0.02946,-0.0811 -0.18543,0.2925 -0.1302,0.2264 0.10177,-0.1218 -0.42417,0.2607 -0.32458,0.2257 0.08255,-0.029 -0.26066,0.0424 -0.20576,0.04 0.0896,-0.004 -0.22756,-0.0289 -0.18689,-0.0185 0.05517,0.0141 -0.11405,-0.0451 -0.09788,-0.0365 l -0.01922,-0.0116 0.16279,0.1053 -0.01568,0.2944 c -0.01754,0.148 -0.38443,0.536 -0.39153,1.2645 l -0.0089,0.0593 c -0.0054,0.0118 0.1384,-0.1616 0.07776,-0.1027 -0.03399,0.033 0.24642,-0.1461 0.16553,-0.1104 -0.08581,0.0378 0.46495,-0.0293 0.33653,-0.0468 -0.11212,-0.0139 0.09077,0.0266 0.08016,0.0209 -0.008,-0.004 0.13215,0.1076 0.07863,0.0586 -0.03151,-0.0289 0.19626,0.2982 0.1385,0.1843 -0.03194,-0.063 0.08017,0.4073 0.07392,0.2799 -0.0066,-0.1348 -0.22323,0.5748 -0.12909,0.442 0.05285,-0.0746 0.09092,-0.1586 0.11213,-0.2475 0.01584,-0.0664 -0.06012,0.1581 -0.04704,0.1316 0.03681,-0.0747 -0.03317,0.0561 -0.01073,0.0271 l 0.11348,-0.149 0.38411,-0.3533 c 0.14978,-0.167 0.37706,-0.4412 0.42178,-0.86 0.04499,-0.26 0.07198,-0.6101 -0.11657,-1.0068 l -0.36562,-0.4509 c -0.18115,-0.1863 -0.44211,-0.4349 -0.89031,-0.5641 l -0.49359,-0.0621 -0.19326,0.005 -0.15289,0.0232 -0.20367,0.0751 c -0.11983,0.0625 -0.39383,0.2416 -0.44354,0.6366 -0.01173,0.0932 -0.0076,0.1877 0.01226,0.2795 0.06331,0.2928 0.17473,0.4241 0.2688,0.5524 0.30634,0.3434 0.4493,0.3658 0.53422,0.4269 l 0.04895,0.0434 -0.04469,-0.0648 0.16014,0.4299 c 0.0744,0.3947 -0.01089,0.8015 -0.08042,0.8687 l -0.20483,0.1574 -0.36348,0.1681 z m 1.8963,-1.428 c -0.30172,-0.3539 -0.83326,-0.3963 -1.18722,-0.0946 -0.35396,0.3018 -0.39631,0.8333 -0.09459,1.1873 0.12671,0.1486 0.30116,0.2486 0.49348,0.2828 0.1245,0.0221 -0.39487,-0.1829 -0.31415,-0.1279 0.07256,0.0495 -0.19706,-0.1893 -0.16012,-0.145 0.06438,0.0772 -0.12093,-0.2044 -0.10527,-0.1685 0.02324,0.0533 -0.02227,-0.0623 -0.01953,-0.0511 0.01443,0.0591 0.01638,0.2531 0.19323,0.5339 0.19118,0.37 0.52048,0.4269 0.71612,0.467 l 0.44694,0.0374 c 0.14696,-0.003 0.28973,-0.0494 0.41027,-0.1335 0.25949,-0.1811 0.41494,-0.5217 0.32356,-0.8364 -0.09201,-0.3169 -0.40824,-0.4364 -0.52241,-0.4489 l 0.35787,0.2103 c -0.3103,-0.4371 -0.6364,-0.3872 -0.89168,-0.4048 l 0.18797,0.0589 -0.02782,-0.0171 0.02351,0.0186 0.03621,0.0358 c -0.01795,-0.0201 0.11911,0.2223 0.08127,0.1302 -0.09817,-0.239 -0.37147,-0.3531 -0.61044,-0.2549 -0.23896,0.0982 -0.35309,0.3715 -0.25491,0.6104 0.09817,0.239 0.37147,0.3531 0.61044,0.2549 0.11949,-0.049 0.21336,-0.1454 0.25935,-0.2661 0.04666,-0.1225 -0.1633,0.2138 -0.1288,0.1841 0.05437,-0.0467 -0.14102,0.0813 -0.11559,0.0711 0.06348,-0.0256 -0.07014,0.0189 -0.06492,0.0186 l -0.19277,-0.0338 0.20696,0.1039 0.03636,0.0262 c 0.0066,0.007 -0.08015,-0.2025 -0.05923,-0.1193 l 0.07277,-0.4089 c -0.04291,0.0629 0.23408,-0.1884 0.16905,-0.1527 -0.11046,0.0608 0.32648,-0.0623 0.26653,-0.064 -0.15441,-0.004 0.34571,0.1523 0.28718,0.1036 -0.11286,-0.0941 -0.25107,-0.1525 -0.39715,-0.1681 l -0.13806,-0.0214 c -3.1e-4,-10e-5 0.11763,0.0683 0.06834,0.0357 -0.02771,-0.0183 0.14198,0.1343 0.10286,0.0902 -0.04114,-0.0464 0.14358,0.2681 0.11387,0.1895 -0.0068,-0.032 0.02905,0.1038 0.0319,0.0278 l 0.0032,-0.1697 c -0.0021,-0.0874 0.07649,-0.25 -0.21461,-0.5915 m -0.77468,0.3162 c -0.11381,0.0808 -0.18822,0.2059 -0.20491,0.3445 -0.05228,0.4342 0.12855,0.4098 0.18651,0.4605 l 0.14618,0.1004 c 0.25725,0.1427 0.58147,0.0498 0.72417,-0.2075 0.14269,-0.2572 0.04982,-0.5814 -0.20744,-0.7241 -0.06657,-0.0369 -0.1403,-0.0592 -0.21619,-0.0652 -0.0764,-0.006 -0.02199,-0.1971 -0.42832,0.0914 m 5.67887,-2.8361 c -0.23366,0.004 -0.41989,0.1965 -0.41595,0.4302 0.0033,0.1976 0.14307,0.3666 0.33657,0.4071 0.65853,0.1375 1.3909,0.004 2.04355,-0.1057 l 1.57591,-0.3336 0.61829,-0.1695 1.7315,-0.7503 1.31579,-0.6196 c 0.51537,-0.2961 0.92474,-0.6676 1.22924,-0.9466 l 0.45841,-0.4401 1.50626,-1.7727 0.43057,-0.5739 0.3272,-0.4255 0.33505,-0.364 c 0.27215,-0.3212 0.48119,-0.6721 0.662,-1.0482 0.75658,-1.5947 1.36363,-3.2494 1.39388,-5.0003 0.0085,-0.7699 0.20585,-1.7539 0.14509,-2.9315 -0.03537,-0.548 -0.04018,-1.12 -0.1932,-1.751 l -0.32027,-0.8306 -0.55333,-0.6987 c -0.48557,-0.5216 -0.98004,-1.0199 -1.68995,-1.278 l -0.54281,-0.1828 c -1.25199,-0.4843 -2.71437,-0.7463 -4.18301,-0.7505 -1.04042,-10e-4 -2.20772,-0.1167 -3.34684,-0.2765 l -1.83699,-0.28 -1.27623,-0.0452 c -0.3668,-0.008 -0.67042,0.2833 -0.67815,0.6501 -0.0059,0.2817 0.16646,0.5365 0.43015,0.6357 l 1.11944,0.3928 2.00022,0.3405 c 1.19577,0.1639 2.43055,0.2853 3.58802,0.2825 1.26668,-0.006 2.54785,0.2182 3.6059,0.6175 l 0.51487,0.1964 c 0.29725,0.1181 0.57367,0.3803 1.00432,0.8647 l 0.32913,0.4021 0.1085,0.3535 c 0.09019,0.4079 0.0922,0.8668 0.11845,1.4449 0.05473,0.9373 -0.12264,1.846 -0.12517,2.8264 0.005,1.3728 -0.46303,2.8103 -1.13836,4.3068 l -0.40007,0.6976 -0.36542,0.4898 -0.30439,0.4707 -0.39195,0.5525 -1.37426,1.6377 -0.39207,0.4087 c -0.2709,0.2761 -0.58868,0.5805 -0.94245,0.8033 l -1.0928,0.5237 -1.66013,0.753 -0.55275,0.213 -1.46513,0.4314 c -0.63145,0.2314 -1.24047,0.4347 -1.68663,0.4422 m 0.92319,3.6 c 0.22205,-0.0728 0.34301,-0.3119 0.27017,-0.534 -0.04195,-0.1279 -0.14227,-0.2282 -0.27017,-0.2701 l -0.43967,-0.1126 -0.14907,-0.0301 0.03087,0.008 0.06094,0.0241 0.06251,0.0347 c -0.02839,-0.0183 0.16916,0.1599 0.11716,0.1009 -0.20801,-0.2361 -0.56806,-0.2589 -0.80418,-0.0509 -0.23613,0.208 -0.25891,0.5681 -0.0509,0.8042 0.08781,0.0997 0.20769,0.1655 0.33892,0.1862 l 0.83576,0.0542 c 1.10138,0.002 2.04615,-0.2488 3.02483,-0.4768 l 1.71133,-0.5395 c 0.66269,-0.206 1.57601,-0.5139 2.34112,-0.8778 l 1.33522,-0.4794 c 0.65128,-0.2312 1.56184,-0.4883 2.25947,-0.8028 l 1.68459,-0.9137 2.18978,-1.2175 1.45806,-1.053 0.45845,-0.4106 0.54055,-0.5277 0.4996,-0.5734 0.44703,-0.5097 0.46369,-0.5506 0.36056,-0.4735 0.75487,-1.0192 c 0.35409,-0.4944 0.60419,-0.874 0.78944,-1.3457 l 1.1534,-2.7183 0.319,-0.7617 0.29952,-0.7802 0.2721,-0.7251 0.1763,-0.4115 0.1369,-0.2897 0.0944,-0.1877 c 0.0307,-0.0593 0.0553,-0.1215 0.0732,-0.1857 l 0.0843,-0.2829 c 0.1508,-0.4742 -0.1113,-0.9809 -0.5856,-1.1317 -0.3366,-0.1071 -0.7048,-0.008 -0.94162,0.2546 l -0.24495,0.2858 c -0.04195,0.0516 -0.07849,0.1073 -0.10905,0.1663 l -0.11452,0.2279 -0.16324,0.3507 -0.20621,0.4734 -0.30412,0.7292 -0.29205,0.7959 -0.27166,0.8249 -1.05829,2.7414 -0.5302,0.9556 -0.70652,1.0998 -0.27618,0.4242 -0.40991,0.5101 -0.42294,0.5086 -0.45537,0.4941 -0.46362,0.4783 -0.3942,0.3635 -1.26545,1.0126 -2.00997,1.2277 -1.5966,0.9131 -2.14436,0.7699 c -0.39761,0.1453 -0.8759,0.2682 -1.45621,0.5477 -0.65538,0.3116 -1.53554,0.6128 -2.16702,0.8091 l -1.62762,0.4917 c -1,0.2725 -1.81845,0.5226 -2.71374,0.5553 l -0.83225,0.0541 c -0.31085,0.0489 -0.52317,0.3406 -0.47423,0.6515 0.04895,0.3108 0.34062,0.5231 0.65147,0.4742 0.13123,-0.0207 0.25111,-0.0865 0.33892,-0.1862 0.052,-0.0591 -0.14555,0.1192 -0.11716,0.1009 0.0903,-0.0582 -0.15338,0.0675 -0.13529,0.0623 l 0.03016,-0.002 0.53955,-0.1353 z M 99.70556,705.842 c 0.19684,0.2471 0.55164,0.2993 0.81124,0.1192 l 0.0103,-0.004 c 0.1513,-0.066 0.2761,-0.1807 0.3546,-0.3258 l 0.6551,-0.7547 c 0.7936,-1.011 1.5569,-1.4073 2.6767,-1.8528 l 1.4828,-0.4651 c 1.288,-0.3321 2.7448,-0.8098 4.0581,-1.0002 l 2.1492,-0.3674 0.995,-0.2069 0.657,-0.1128 0.7044,-0.0983 6.087,-0.8197 c 1.5708,-0.2175 3.3647,-0.2841 5.1515,-0.2686 l 4.1223,0.003 1.3611,-0.004 0.8576,0.0513 1.2327,0.1348 c 0.0537,0.0105 0.1084,0.0152 0.1631,0.0139 l 0.9696,0.0601 c 0.2482,0.0367 0.4791,-0.1348 0.5158,-0.383 0.0238,-0.161 -0.0404,-0.3225 -0.1683,-0.4233 l -0.945,-0.655 c -0.0472,-0.0285 -0.0972,-0.0516 -0.1494,-0.0692 l -1.3917,-0.3476 -1.0314,-0.0777 -1.4113,-0.025 -4.1106,0.0371 c -1.8329,-0.0345 -3.6986,0.0133 -5.3987,0.2294 l -6.0828,0.7086 -0.7662,0.1006 -0.7555,0.1506 -0.9209,0.1777 -2.1055,0.3977 c -1.518,0.2303 -3.0269,0.744 -4.2436,1.0673 -0.5117,0.1331 -1.0994,0.2793 -1.7053,0.5353 -1.226,0.5513 -2.3452,1.2312 -3.273,2.513 -0.2255,0.3343 -0.54388,0.6425 -0.7254,1.1506 -0.05537,0.155 -0.0574,0.3241 -0.0058,0.4804 l 0.17523,0.3298 z M 75.8872,694.1422 c -0.4401,0 -0.79687,0.3568 -0.79687,0.7969 0,0.4401 0.35677,0.7969 0.79687,0.7969 h 55.3421 c 0.4401,0 0.7969,-0.3568 0.7969,-0.7969 0,-0.4401 -0.3568,-0.7969 -0.7969,-0.7969 z m 14.48627,7.4034 c 0.30456,0.1608 0.68181,0.0443 0.84262,-0.2602 0.15709,-0.2975 0.04987,-0.666 -0.24232,-0.8328 -0.91691,-0.5233 -1.95496,-1.2192 -3.13886,-1.7472 -1.17881,-0.497 -2.71723,-0.8015 -4.14033,-0.973 -1.99964,-0.2161 -4.30796,-0.6205 -6.59152,-0.2778 -0.30199,0.0453 -0.51006,0.3269 -0.46474,0.6289 0.04432,0.2953 0.31517,0.5021 0.61176,0.467 2.06523,-0.2443 4.2498,0.1926 6.27334,0.4817 1.34527,0.1758 2.81241,0.4947 3.76583,0.9104 1.08037,0.4455 2.10086,1.0838 3.08422,1.603 m 1.47021,-2.0444 c -0.22633,-0.0588 -0.45748,0.077 -0.51628,0.3033 -0.02261,0.087 -0.01693,0.179 0.0162,0.2625 l -0.01427,-0.0504 -0.007,-0.0652 c 7.9e-4,0.0315 0.05023,-0.2312 0.02306,-0.1505 -0.08045,0.2391 0.04816,0.4982 0.28724,0.5786 0.23909,0.0804 0.49812,-0.0482 0.57857,-0.2872 0.08044,-0.2391 -0.04816,-0.4982 -0.28725,-0.5786 -0.12118,-0.0408 -0.2539,-0.0289 -0.3659,0.0328 -0.07806,0.0429 0.18739,-0.0554 0.15355,-0.0509 -0.08824,0.0117 0.14789,0.01 0.13211,0.006 m 0.17116,0.9189 c 0.10193,-0.0503 0.18517,-0.1318 0.23762,-0.2327 0.20874,-0.4014 0.04751,-0.4176 0.02101,-0.4979 l -0.08345,-0.1989 c -0.03995,-0.0817 -0.09661,-0.1541 -0.16633,-0.2125 l -0.47363,-0.3921 c -1.11295,-0.9572 -2.51116,-0.95 -3.48165,-1.3974 -0.84332,-0.3845 -1.68438,-0.5863 -2.55863,-0.7473 -1.22219,-0.2477 -2.67506,-0.7811 -4.14258,-0.8244 l -1.43254,-0.0847 -1.58104,-0.0769 -0.98078,0.0605 c -0.06912,0.006 -0.1368,0.0235 -0.20043,0.0512 l -0.51147,0.2521 c -0.20328,0.1153 -0.27464,0.3735 -0.15937,0.5768 0.04814,0.0849 0.12417,0.1506 0.21518,0.1858 l 0.48905,0.1846 c 0.0653,0.0242 0.13409,0.0377 0.2037,0.04 l 0.87575,0.0426 1.60949,-0.01 1.4611,-0.007 c 1.18923,0.0166 2.60172,0.4938 3.94403,0.7434 0.81704,0.1668 1.54718,0.3623 2.25618,0.7024 1.25147,0.5931 2.47812,0.6301 3.19888,1.2627 l 0.38147,0.3833 c 0.06268,0.0658 0.13846,0.1176 0.22244,0.1523 l 0.18944,0.0681 c 0.07523,0.0215 0.07996,0.1666 0.46656,-0.0243 m 10.26726,0.6791 c 0.0757,-0.2211 -0.0422,-0.4617 -0.2633,-0.5373 -0.2211,-0.0757 -0.4617,0.0422 -0.5374,0.2633 -0.0357,0.1043 0.0209,-0.0474 -0.005,-0.014 l -0.1082,0.1245 0.1454,-0.0963 0.0534,0.0133 0.092,0.0454 0.0841,0.0664 c -0.036,-0.0346 0.1908,0.3282 0.1363,0.1991 -0.1329,-0.315 -0.4961,-0.4626 -0.8111,-0.3296 -0.315,0.1329 -0.4626,0.4961 -0.3296,0.8111 0.1329,0.315 0.4961,0.4626 0.8111,0.3296 0.1942,-0.0819 0.3333,-0.257 0.3693,-0.4647 0.0203,-0.1175 -0.0762,0.2072 -0.0603,0.1774 0.0477,-0.0897 -0.0546,0.0815 -0.0464,0.0724 l 0.2526,-0.3765 -0.0941,0.1465 c 0.1383,-0.1403 0.227,-0.1858 0.3108,-0.4306 m -1.1166,-0.3317 c -0.3521,0.0671 -0.5833,0.4069 -0.5162,0.759 0.0374,0.1964 0.1632,0.3646 0.341,0.456 0.601,0.3087 0.6258,0.0127 0.7175,-0.0286 l 0.1959,-0.0859 1.7419,-0.8589 0.6722,-0.2475 1.3697,-0.3289 0.8139,-0.303 c 0.9462,-0.3554 2.1086,-0.6821 3.1577,-0.8415 l 2.7483,-0.6335 c 1.2931,-0.2953 2.6955,-0.5077 3.9874,-0.69 l 0.5436,0.003 c 0.6733,-0.009 1.1891,-0.1528 1.7332,-0.1717 l 5.896,-0.2992 2.9784,0.0195 2.2341,-0.0212 c 0.6245,-0.0137 1.1214,0.0493 1.5676,0.2823 0.2275,0.1189 0.5082,0.0308 0.627,-0.1967 0.1016,-0.1945 0.0533,-0.4335 -0.1158,-0.5733 -0.5519,-0.4563 -1.2301,-0.6952 -1.9144,-0.8188 -0.8562,-0.0714 -1.6421,-0.009 -2.3979,-0.008 l -3.0287,0.0194 -5.8885,0.1603 -1.7148,0.1733 -0.7113,0.002 c -1.3068,0.161 -2.7487,0.3551 -4.1254,0.6454 l -2.656,0.5193 c -1.209,0.2163 -2.4432,0.5969 -3.5002,1.0285 l -0.6147,0.2019 -1.4529,0.4455 -0.878,0.3648 -1.6009,0.8401 -0.3348,0.2119 -0.0622,0.044 0.0212,-0.0123 c -0.022,0.0119 0.2739,-0.0784 0.1661,-0.0579 m 0.1424,-0.9521 c 0.1805,-0.1486 0.2063,-0.4152 0.0578,-0.5957 -0.1371,-0.1665 -0.3776,-0.2033 -0.5582,-0.0852 l -0.3008,0.0969 0.3578,0.1329 c -0.0336,-0.034 0.1435,0.3029 0.1093,0.1869 -0.0727,-0.2464 -0.3314,-0.3872 -0.5778,-0.3145 -0.2463,0.0727 -0.3871,0.3313 -0.3145,0.5777 0.0727,0.2464 0.3314,0.3872 0.5778,0.3145 0.1653,-0.0488 0.2901,-0.185 0.3243,-0.3539 0.0165,-0.0818 -0.0487,0.1313 -0.0396,0.1138 l -0.3043,0.2332 c 0.2052,-0.0448 0.446,-0.1237 0.6682,-0.3066 m -1.2424,0.2109 c 0.055,0.0598 0.1217,0.1076 0.1959,0.1406 0.2699,0.12 0.2461,0.0555 0.285,0.0564 0.1558,0.004 0.3078,-0.0485 0.4289,-0.1467 l 1.233,-0.4434 c 1.0915,-0.3659 2.6153,-0.77 4.1796,-1.0854 1.705,-0.4137 3.3435,-0.7007 4.4172,-0.6713 0.2707,0.007 0.4962,-0.2061 0.5036,-0.4768 0.007,-0.2505 -0.1764,-0.4659 -0.4248,-0.4994 -1.2603,-0.1696 -2.9781,0.0307 -4.7417,0.3361 -1.639,0.3505 -3.1957,0.7817 -4.3608,1.1946 -0.5857,0.1955 -1.1339,0.26 -1.6067,0.6042 -0.126,0.0917 -0.21522,0.2251 -0.25191,0.3764 -0.03182,0.1313 -0.16679,0.2786 0.14271,0.6147 m -10.90432,-3.3314 c -0.24366,0.0289 -0.41778,0.2499 -0.3889,0.4935 0.02551,0.2152 0.20258,0.3806 0.41903,0.3915 0.81844,0.0408 1.55264,0.0478 2.09897,0.3259 0.67658,0.308 1.42075,0.702 1.94978,1.2109 0.28437,0.2869 0.41133,0.843 0.53128,1.4876 l 0.31301,1.0549 0.0657,0.3292 0.02832,0.3967 0.01711,0.476 c 0.05482,0.3553 -0.19869,0.6229 0.10679,1.2061 0.13927,0.2659 0.46772,0.3686 0.73362,0.2293 0.09475,-0.0496 0.17275,-0.1261 0.22424,-0.2198 0.03304,-0.0602 0.36493,-0.4642 0.47867,-1.1019 l 0.0263,-0.5322 0.03771,-0.5702 -0.08911,-0.5834 -0.2773,-1.035 c -0.2161,-0.6929 -0.45455,-1.6082 -1.22989,-2.2338 -0.76053,-0.6433 -1.66259,-1.031 -2.40087,-1.3 -0.9827,-0.3093 -1.85871,-0.1184 -2.64446,-0.0253 m 6.19854,1.3941 c 0.22946,-0.0444 0.37953,-0.2663 0.33521,-0.4958 -0.0355,-0.1837 -0.18752,-0.3223 -0.37377,-0.3408 l -0.10559,-0.0353 c -0.04407,-0.0371 -0.09429,-0.0663 -0.1484,-0.0862 l -0.18893,-0.0806 0.16278,0.1942 -0.05032,-0.1164 c -0.0014,-0.004 0.01668,0.1428 0.01349,0.0832 -0.0018,-0.0338 -0.03098,0.2157 -0.01445,0.148 0.0088,-0.0361 -0.07476,0.1783 -0.04861,0.1284 0.0276,-0.0528 -0.26657,0.2748 -0.16271,0.1941 0.26661,-0.2074 0.31467,-0.5916 0.10733,-0.8582 -0.20733,-0.2666 -0.59154,-0.3147 -0.85816,-0.1073 -0.26661,0.2073 -0.31467,0.5915 -0.10734,0.8581 0.14653,0.1884 0.38929,0.2744 0.62173,0.2201 0.07698,-0.0179 -0.13927,0.0159 -0.11835,0.0154 0.11122,-0.003 -0.07473,-0.005 -0.05232,7e-4 l 0.10127,0.0317 -0.20316,-0.1542 0.3377,0.3096 c 0.04658,0.0335 0.09863,0.0587 0.15382,0.0744 z m -0.41022,-1.1787 c -0.1564,-0.3031 -0.52891,-0.422 -0.83203,-0.2656 -0.25424,0.1312 -0.3851,0.4198 -0.31626,0.6974 0.1062,0.4284 0.28092,0.3878 0.33971,0.4175 l 0.68018,0.23 c 0.53825,0.2098 1.16506,0.4384 1.79379,0.5414 0.41718,-10e-4 0.70471,-0.0411 0.96624,-0.1487 0.26456,-0.1088 0.39082,-0.4115 0.282,-0.676 -0.0751,-0.1826 -0.24745,-0.3066 -0.44443,-0.3198 l -0.48826,-0.1137 c -0.58299,-0.0919 -1.15552,-0.2773 -1.66758,-0.4617 l -0.48094,-0.1438 -0.13642,-0.0371 0.08096,0.0404 0.08441,0.062 c -0.03875,-0.0341 0.18654,0.2706 0.13863,0.1777 m 2.74499,3.7726 c 0.0044,-0.2337 -0.18153,-0.4266 -0.41518,-0.431 -0.15048,-0.003 -0.29112,0.0746 -0.36936,0.2031 l 0.04929,-0.0545 c -0.02243,0.0194 0.17225,-0.0915 0.11359,-0.0682 l 0.1228,-0.029 c -0.05511,0.005 0.32281,0.0807 0.22369,0.0371 -0.23546,-0.1035 -0.51023,0.003 -0.61371,0.239 -0.10349,0.2354 0.0035,0.5102 0.23896,0.6137 0.23546,0.1035 0.51022,-0.003 0.61371,-0.239 0.04948,-0.1126 0.05242,-0.2401 0.0082,-0.3549 -0.03279,-0.085 0.02813,0.1215 0.02677,0.1085 l 0.0013,-0.0248 z m -0.38333,0.5663 c 0.11763,-0.0241 0.22251,-0.0901 0.29516,-0.1857 0.26695,-0.3514 0.12527,-0.3044 0.15945,-0.4062 0.05712,-0.4456 0.71419,-1.2941 1.34241,-1.6631 l 1.26382,-0.7173 0.858,-0.72 0.27,-0.183 c 0.2582,0.074 0.5275,-0.0754 0.6015,-0.3336 0.0621,-0.2171 -0.0332,-0.4483 -0.2303,-0.5585 -0.4388,-0.2453 -0.9055,-0.0577 -1.2523,0.1297 l -0.93663,0.5815 -1.23639,0.6927 c -0.90722,0.5741 -1.80124,1.4707 -1.85268,2.5512 l 0.09231,0.4304 0.10408,0.1803 c 0.05944,0.075 0.09563,0.2889 0.52157,0.2016 m -4.88094,12.3943 c 0.07996,0.2196 0.32279,0.3328 0.54238,0.2528 0.06734,-0.0245 0.12734,-0.0657 0.17439,-0.1198 l 0.08198,-0.0794 c 0.07573,-0.0614 0.13364,-0.1419 0.16771,-0.2333 0.11445,-0.3068 0.40687,-0.5917 0.81101,-1.0692 0.55887,-0.7109 1.24653,-1.6556 1.77208,-2.5602 l 0.19029,-0.3445 1.04824,-2.1247 0.19931,-0.5162 1.05283,-2.405 0.5149,-1.0593 0.41523,-1.3534 c 0.07139,-0.2351 -0.0613,-0.4835 -0.29636,-0.5549 -0.19205,-0.0583 -0.39935,0.0192 -0.50603,0.1892 l -0.70835,1.0913 -0.54135,1.1688 -1.07244,2.4848 -0.18035,0.4867 -0.98054,2.0463 -0.1585,0.299 c -0.48419,0.8175 -1.15643,1.7316 -1.68018,2.385 -0.35208,0.473 -0.74094,0.8846 -0.91569,1.4956 -0.02683,0.0937 -0.02802,0.193 -0.0035,0.2874 l 0.07291,0.233 z m -6.54734,4.1825 c -0.24222,0.147 -0.31947,0.4624 -0.17254,0.7046 0.04992,0.0823 0.12198,0.1489 0.20794,0.1922 l 0.23985,0.1065 c 0.09768,0.0378 0.20323,0.0506 0.30711,0.0374 1.15928,-0.1483 2.0344,-1.0518 2.79093,-2.1609 0.43363,-0.6757 0.8013,-1.4167 1.12421,-2.0934 0.52119,-1.0282 1.18545,-1.8085 1.6912,-2.8627 0.44665,-0.9659 0.55164,-2.0872 0.65169,-3.3402 l 0.31921,-2.0108 0.12448,-0.7792 0.08743,-1.8803 0.01945,-0.517 c 0.04237,-0.2261 -0.01467,-0.4595 -0.15654,-0.6406 l -0.25698,-0.2182 c -0.10641,-0.0571 -0.22466,-0.0885 -0.34535,-0.0918 -0.30286,-0.008 -0.37024,0.0744 -0.45174,0.1255 -0.19485,0.122 -0.32775,0.322 -0.3648,0.5489 l -0.03571,0.766 -0.0487,1.7498 -0.11267,0.6473 -0.24657,2.1997 c -0.09274,1.202 -0.21212,2.1771 -0.50657,2.8208 -0.38904,0.883 -1.02762,1.7029 -1.59399,2.9002 -0.32015,0.6371 -0.6824,1.3289 -1.05916,1.8907 -0.64419,1.0222 -1.22073,1.5923 -1.8224,1.7016 -0.10273,0.0187 -0.19921,0.0626 -0.28075,0.1279 z m 7.08723,-14.2934 c 0.2726,-0.2397 0.2993,-0.6549 0.05963,-0.9275 -0.23966,-0.2726 -0.65493,-0.2993 -0.92754,-0.0597 -0.2726,0.2397 -0.2993,0.655 -0.05963,0.9276 0.1564,0.1779 0.39642,0.2578 0.62826,0.2093 0.08509,-0.0178 -0.2242,0.009 -0.18004,0.012 0.13976,0.0104 -0.29837,-0.1016 -0.25098,-0.0747 l -0.0859,-0.0615 c 0.24821,0.2254 0.6321,0.2069 0.85744,-0.0414 0.06738,-0.0742 0.11533,-0.1639 0.13957,-0.2612 l -0.01768,0.0523 -0.03354,0.0678 c 0.01889,-0.0325 -0.228,0.2435 -0.12959,0.157 M 77.2857,721.1172 c -0.15491,0.1478 -0.18377,0.3844 -0.0689,0.5651 l 0.05089,0.0786 c 0.09232,0.1407 0.24352,0.2319 0.41105,0.2479 1.14152,0.1092 2.29036,-0.1279 3.42934,-0.7257 0.98398,-0.5141 1.79602,-0.8644 2.73321,-1.1356 1.20059,-0.349 2.33346,-0.929 3.23206,-1.4886 l 0.5544,-0.5272 c 0.16931,-0.1821 0.159,-0.4669 -0.02305,-0.6362 -0.12975,-0.1207 -0.31824,-0.154 -0.48152,-0.0852 l -0.56362,0.2309 c -0.92006,0.5664 -1.97625,1.1063 -3.03574,1.4179 -1.01779,0.3013 -1.91279,0.6964 -2.93554,1.2379 -0.97593,0.514 -1.87364,0.6947 -2.80479,0.6071 -0.1659,-0.0156 -0.33003,0.0442 -0.44702,0.1629 z m 14.46752,-5.7998 c 0.12699,-0.198 0.06943,-0.4614 -0.12858,-0.5884 -0.14724,-0.0945 -0.33726,-0.0893 -0.47912,0.0131 l -0.05566,0.038 c -0.01581,0.006 0.1928,-0.0154 0.12041,-0.0169 -0.04009,-9e-4 0.23381,0.063 0.16359,0.0344 -0.03717,-0.0151 0.16987,0.1102 0.12461,0.0736 -0.04741,-0.0382 0.19017,0.2881 0.14533,0.1887 -0.1189,-0.2636 -0.42898,-0.3809 -0.69258,-0.262 -0.26361,0.1189 -0.38092,0.4289 -0.26202,0.6925 0.1189,0.2636 0.42897,0.381 0.69258,0.2621 0.14859,-0.0671 0.2575,-0.1995 0.29459,-0.3582 0.01923,-0.0823 -0.03889,0.1083 -0.03371,0.0975 z m -0.67687,0.4955 c 0.11706,0.0144 0.2357,-0.009 0.3389,-0.0656 0.27008,-0.1495 0.17963,-0.1467 0.2277,-0.1988 0.04671,-0.0507 0.08473,-0.1088 0.1125,-0.1719 l 0.19984,-0.3196 0.81061,-1.3976 0.49532,-0.7017 0.5138,-0.7233 c 0.31688,-0.5748 0.47511,-1.2793 0.69248,-2.0045 0.56219,-2.1098 0.8791,-3.5942 1.15545,-4.9189 0.05515,-0.2644 -0.11446,-0.5234 -0.37883,-0.5786 -0.2531,-0.0528 -0.50357,0.1006 -0.57161,0.35 l -1.37424,4.7935 c -0.21145,0.7754 -0.36638,1.448 -0.5484,1.8109 l -0.40035,0.6421 -0.50996,0.7185 -0.91674,1.3156 -0.30741,0.4982 c -0.02914,0.0628 -0.04765,0.1299 -0.05479,0.1988 l 0.0128,0.2762 c 0.0275,0.1232 -0.0098,0.4133 0.50293,0.4767 m 16.12805,-14.1558 c -0.0523,0.1414 -0.0254,0.2998 0.0705,0.4161 l 0.1945,0.1969 c 0.1637,0.143 0.3834,0.2039 0.5973,0.1655 0.5732,-0.1029 1.0838,-0.2413 1.5394,-0.2222 0.4526,-0.009 1.0196,0.3021 1.5385,0.821 0.6182,0.4789 1.1053,1.0161 1.4506,1.4515 0.1615,0.2035 0.4574,0.2377 0.661,0.0762 0.1493,-0.1185 0.2124,-0.3154 0.1597,-0.4987 -0.1807,-0.6281 -0.5418,-1.3749 -1.0566,-2.0735 -0.7495,-0.7822 -1.6348,-1.4276 -2.7247,-1.4197 -0.8269,0.0585 -1.4349,0.3262 -1.9129,0.4796 -0.2075,0.0666 -0.3734,0.2241 -0.4506,0.4279 z m 4.2905,-0.4133 c 0.1599,0.1704 0.4277,0.1789 0.5981,0.019 0.1284,-0.1206 0.1688,-0.3081 0.1012,-0.4708 l -0.0502,-0.1172 -0.0298,0.1003 c 0.0323,-0.0711 -0.3532,0.2927 -0.2294,0.2314 0.1259,-0.0623 -0.4354,0.0259 -0.3524,0.0437 0.1856,0.0398 0.3793,-0.008 0.5247,-0.1304 0.1026,-0.0862 -0.3097,0.1195 -0.255,0.1134 0.1686,-0.0186 1.6643,1.0105 2.0838,1.8412 0.1105,0.2188 0.3775,0.3065 0.5963,0.196 0.2037,-0.1028 0.2962,-0.3433 0.2139,-0.5561 -0.2645,-0.6846 -0.8535,-1.3078 -1.4393,-1.8162 l -0.8286,-0.6166 c -0.2528,-0.1522 -0.4332,-0.4244 -0.9913,-0.2057 -0.1769,0.0693 -0.3118,0.2165 -0.3656,0.3987 -0.1208,0.4095 0.0698,0.5453 0.1403,0.6407 z m -4.5619,5.8459 c 0.2109,0.1028 0.4652,0.0152 0.5681,-0.1957 0.071,-0.1458 0.0529,-0.3193 -0.0468,-0.4472 l 0.0112,0.0233 c -0.01,-0.0238 0.0214,0.193 0.0224,0.1289 9e-4,-0.0602 -0.1145,0.2947 -0.0661,0.2177 0.0431,-0.0686 -0.2359,0.1941 -0.1725,0.1602 0.1043,-0.0557 -0.2487,0.053 -0.2122,0.0535 l 0.0293,0.0207 0.3461,0.1419 1.0279,0.4751 0.5811,0.3783 0.877,0.6837 0.3181,0.342 0.1934,0.1982 0.5732,0.625 0.5206,0.7634 c 0.2169,0.369 0.424,0.8107 0.4874,1.2359 l 0.0177,0.4836 -0.1324,0.1826 c -0.0371,0.0339 -0.3418,0.0685 -0.7805,0.003 l -0.7239,-0.2331 -0.5049,-0.3057 -0.2382,-0.2214 0.0422,-1.571 c 0.0197,-0.7681 -0.175,-1.3614 -0.3823,-1.8394 -0.4084,-0.8445 -0.9156,-1.9048 -1.9278,-2.2957 -0.3459,-0.1336 -0.7346,0.0385 -0.8682,0.3844 -0.1307,0.3383 0.0309,0.7192 0.3649,0.8604 0.2436,0.1029 0.8286,0.916 1.1484,1.6202 0.2146,0.4259 0.3392,0.711 0.3478,1.2792 -0.005,0.5357 -0.4124,1.4203 0.1536,2.2816 0.2117,0.3028 0.4327,0.4295 0.5507,0.5257 l 0.5656,0.4507 c 0.4002,0.2471 0.8191,0.391 1.2663,0.4566 0.5338,0.068 1.3457,0.1815 1.9637,-0.4257 0.1376,-0.1223 0.3305,-0.3115 0.4605,-0.6161 0.1939,-0.5127 0.1031,-0.9327 0.0595,-1.2259 -0.0904,-0.6881 -0.3735,-1.2788 -0.6176,-1.7147 l -0.7352,-0.9597 -0.6712,-0.7278 -0.2679,-0.1807 -0.3213,-0.3429 -0.9581,-0.7441 -0.8052,-0.4992 -1.0162,-0.4947 c -0.1727,-0.071 -0.3502,-0.1654 -0.6314,-0.1854 -0.3626,0.0362 -0.7385,0.0639 -0.8405,0.5577 -0.0549,0.2657 0.111,0.4809 0.1975,0.5533 l 0.2262,0.1391 z m 3.7767,5.7485 c -0.0458,0.3054 0.1647,0.59 0.47,0.6358 0.2983,0.0447 0.5783,-0.1552 0.6328,-0.4519 0.0356,-0.1939 0.1739,-0.6065 0.1745,-1.1002 0.0149,-0.3039 -0.0773,-0.5748 -0.1476,-0.7733 -0.206,-0.477 -0.5451,-0.7287 -0.7941,-0.8783 -0.16,-0.0938 -0.368,-0.2468 -0.711,-0.2588 -0.007,-3e-4 -0.1428,-0.1106 -0.5011,0.0239 -0.3478,0.1401 -0.3926,0.369 -0.4304,0.4812 l -0.0525,0.1844 0.0143,-0.0245 0.0633,-0.062 c -0.0282,0.0226 0.1964,-0.1028 0.1322,-0.077 -0.0512,0.0205 0.2842,-0.04 0.2016,-0.0395 -0.129,9e-4 0.4673,0.222 0.3735,0.1395 -0.0885,-0.0779 0.1684,0.2621 0.1475,0.2089 -0.0338,-0.0803 0.0203,0.0794 0.0203,0.0792 l 0.0324,-0.447 0.004,-0.1888 -0.009,-0.1074 -0.0842,-0.2279 c -0.0649,-0.1039 -0.4043,-0.4024 -0.7723,-0.2129 -0.3139,0.1617 -0.2764,0.2959 -0.2919,0.3439 -0.1006,0.3101 0.0692,0.643 0.3792,0.7436 0.274,0.0889 0.5722,-0.033 0.7054,-0.2883 l 0.1055,-0.1873 -0.0364,0.0318 c 0.0336,-0.0243 -0.2187,0.074 -0.155,0.0633 0.1735,-0.0447 -0.2493,-0.0227 -0.1934,-0.009 0.0724,0.018 -0.0847,-0.0325 -0.0759,-0.0271 l 0.0916,0.0622 c 0.34,0.2264 0.6562,0.4214 0.8277,0.6403 l 0.1999,0.307 0.0662,0.3641 0.0672,0.3455 c 0.0255,0.285 0.1897,0.4728 0.5706,0.5163 0.3209,0.0367 0.6108,-0.1937 0.6475,-0.5146 0.0367,-0.3209 -0.1938,-0.6108 -0.5147,-0.6475 -0.0752,-0.009 -0.1513,-0.003 -0.2242,0.0179 -0.188,0.0527 0.5202,0.0942 0.4341,0.0479 -0.0768,-0.0413 0.1688,0.1348 0.1417,0.1069 -0.0475,-0.0489 0.0866,0.1143 0.0747,0.0952 -0.0365,-0.0584 0.0309,0.0578 0.0298,0.055 l -0.2259,-0.5808 -0.1746,-0.317 -0.4586,-0.8602 -0.157,-0.3141 -0.5751,-0.8519 -0.4403,-0.4378 -0.2852,-0.2858 c -0.2063,-0.169 -0.4115,-0.24 -0.6149,-0.2567 -0.445,0.0411 -0.6874,0.374 -0.7251,0.5735 l 0.0209,0.4283 0.3794,0.7453 0.2604,0.2907 c 0.1088,0.0913 0.3097,0.3034 0.6638,0.1034 0.2212,-0.125 0.2992,-0.4057 0.1742,-0.6269 -0.0616,-0.109 -0.165,-0.1882 -0.2863,-0.2193 -0.0722,-0.0185 0.1718,0.0899 0.1441,0.0689 -0.082,-0.0622 0.0517,0.052 0.0309,0.0153 l -0.1898,-0.5553 -0.005,-0.0306 -0.012,0.0704 c 0.0155,-0.0565 -0.258,0.3308 -0.1548,0.2407 0.0537,-0.047 -0.271,0.1332 -0.1974,0.1103 0.0729,-0.0227 -0.2621,0.0184 -0.2034,0.023 0.2136,-0.0132 -0.018,-0.0331 0.004,-0.0191 l 0.2645,0.2007 0.2912,0.299 0.3811,0.616 0.1875,0.3624 0.4933,0.9039 0.1167,0.1919 0.1369,0.3562 0.0603,0.1625 0.0299,0.0733 0.0343,0.0678 0.068,0.0948 c 0.0497,0.0566 0.1635,0.2538 0.5363,0.1924 l -0.4125,-1.0683 c -0.0859,0.0555 0.2669,-0.0917 0.2116,-0.0824 -0.0896,0.0151 0.2494,0.0153 0.1992,0.004 -0.0725,-0.016 0.2508,0.1361 0.1918,0.09 -0.0607,-0.0475 0.1857,0.298 0.1526,0.2089 l -0.0236,-0.197 c -0.012,-0.1012 7e-4,-0.327 -0.1045,-0.6145 l -0.3143,-0.5857 c -0.3427,-0.473 -0.784,-0.7359 -1.075,-0.9482 -0.0855,-0.0614 -0.2209,-0.3709 -0.7886,-0.2383 -0.6076,0.2074 -0.6569,0.6254 -0.7405,0.8435 l 1.0603,0.5098 c 0.0208,-0.0355 -0.1886,0.2053 -0.1193,0.1444 0.0362,-0.0317 -0.222,0.1273 -0.1533,0.0974 0.0709,-0.0309 -0.3734,0.0423 -0.2692,0.0482 0.104,0.006 -0.3624,-0.1421 -0.2853,-0.0926 0.0729,0.0468 -0.1855,-0.1853 -0.1531,-0.1421 0.0586,0.0779 -0.0988,-0.1998 -0.0868,-0.1644 0.0377,0.1111 -0.0301,-0.1557 -0.0288,-0.1396 l -0.006,0.072 c -0.0137,0.2965 -0.1484,0.5088 0.08,0.9405 0.1048,0.1882 0.5412,0.375 0.7752,0.2705 0.5086,-0.2272 0.3702,-0.3931 0.4216,-0.5459 l 0.0478,-0.1322 -0.0322,0.0511 -0.0801,0.0799 c 0.041,-0.0317 -0.2346,0.1033 -0.1663,0.0838 0.0702,-0.0219 -0.1421,0.0138 -0.1151,0.0146 l 0.1831,0.0321 0.1494,0.1025 0.2966,0.2972 0.1357,0.3752 -0.1366,0.8795 z m -9.0781,-5.2255 c 0.0475,0.171 0.1937,0.2964 0.3699,0.3173 l 0.1374,0.007 c 0.1487,-0.002 0.2899,-0.065 0.3902,-0.1746 l 0.7756,-0.898 c 0.3197,-0.4439 0.5978,-0.6978 0.753,-0.73 0.2507,-0.052 0.4118,-0.2974 0.3598,-0.5481 -0.0436,-0.2104 -0.2261,-0.3632 -0.4409,-0.3693 -0.626,-0.0176 -1.1262,0.4083 -1.5333,0.8138 l -0.7478,1.057 c -0.0868,0.1216 -0.119,0.2738 -0.0889,0.4202 l 0.025,0.1049 z m -22.10975,-5.1619 c 0.12096,-0.1999 0.05691,-0.4601 -0.14304,-0.581 -0.19632,-0.1188 -0.45152,-0.0595 -0.5753,0.1337 l 0.01648,6e-4 c -0.21191,0.1033 -0.29997,0.3589 -0.19668,0.5708 0.10329,0.2119 0.35881,0.2999 0.57072,0.1966 0.0057,-0.003 0.01136,-0.006 0.01694,-0.009 l 0.31088,-0.312 z m -1.63092,-0.2344 c -0.01918,0.4978 0.36885,0.917 0.8667,0.9362 0.46594,0.0179 0.86877,-0.3222 0.92923,-0.7845 0.01052,-0.0805 -0.07502,0.2512 -0.05321,0.199 0.0382,-0.0915 -0.12334,0.1957 -0.09976,0.1675 l 0.11436,-0.0661 0.43132,-0.2385 0.44103,-0.1787 0.41486,-0.1433 c 0.10732,-0.0298 0.20897,-0.0772 0.30086,-0.1401 0.27384,-0.1876 0.51322,-0.3027 0.90971,-0.3679 0.36013,-0.0593 0.60403,-0.3993 0.54478,-0.7594 -0.04131,-0.251 -0.22303,-0.456 -0.46727,-0.5272 -0.53819,-0.1567 -1.07243,-0.2358 -1.64385,-0.1876 -0.11172,0.01 -0.2211,0.0374 -0.32366,0.0827 l -0.54909,0.277 -0.55717,0.3472 -0.60539,0.3741 c -0.22058,0.1584 -0.62374,0.2386 -0.65345,1.0096 m 9.69865,3.1017 c -0.15048,0.1788 -0.12753,0.4457 0.05127,0.5962 0.13315,0.1121 0.32134,0.1312 0.47431,0.0482 0.26102,-0.1417 0.4622,-0.3764 0.65202,-0.6495 0.25248,-0.406 0.45742,-0.8639 0.62097,-1.3433 0.14115,-0.6995 0.1964,-1.3244 0.07743,-1.8545 -0.05363,-0.239 -0.29081,-0.3892 -0.52976,-0.3356 -0.19963,0.0448 -0.3427,0.2203 -0.34627,0.4249 -0.0061,0.3512 -0.13028,0.8611 -0.3208,1.3611 l -0.4063,1.2295 z m -6.16122,1.718 c 0.23078,-0.0377 0.3873,-0.2554 0.34958,-0.4861 -0.02662,-0.163 -0.14549,-0.2955 -0.30453,-0.3397 l 0.07174,0.06 c -0.05686,-0.0638 0.07463,0.4518 0.09267,0.3281 0.01284,-0.0881 -0.08888,0.2052 -0.06775,0.1749 l 0.06974,-0.0393 0.67879,-0.5467 c 0.32857,-0.2518 0.62807,-0.5028 0.87723,-0.8391 l 0.30946,-0.5743 0.06524,-0.1459 c 0.10486,-0.2019 -0.24449,0.209 -0.12448,0.1208 0.11719,-0.0861 -0.53666,0.1073 -0.40925,0.1172 0.11322,0.009 -0.30502,-0.1077 -0.2492,-0.076 0.09513,0.0542 -0.17646,-0.1574 -0.15336,-0.1287 0.06179,0.0768 -0.03298,-0.0521 -0.01849,-0.006 l 0.04128,0.1963 0.0034,0.5873 -0.05636,0.6489 -0.19865,0.2595 -0.20944,0.0961 -0.50597,0.3435 -0.41869,0.3526 -0.05935,0.0382 0.06565,-0.015 c -0.0391,0.005 0.21992,0.0265 0.15727,0.011 -0.14801,-0.0299 0.28919,0.2159 0.2419,0.1559 -0.04029,-0.0511 0.03756,0.0669 0.02974,0.0386 -0.03513,-0.1274 -0.10674,-0.2417 -0.20602,-0.329 l -0.03236,-0.0662 c -0.12841,-0.2626 -0.44541,-0.3714 -0.70803,-0.243 -0.13814,0.0676 -0.24008,0.1919 -0.2793,0.3406 l -0.07959,0.2939 c -0.0359,0.1274 -0.03371,0.2625 0.0063,0.3886 0.09433,0.2974 0.3655,0.6799 0.78766,0.7301 0.87937,0.0619 1.0398,-0.5018 1.32466,-0.7995 l 0.28358,-0.2755 0.32992,-0.243 c 0.18212,-0.1455 0.43332,-0.4152 0.54,-0.8014 l 0.1286,-0.8537 0.0078,-0.7578 -0.06653,-0.517 -0.0817,-0.2365 -0.18133,-0.2334 c -0.1592,-0.1307 -0.6129,-0.162 -0.81125,8e-4 -0.04143,0.034 -0.07834,0.0732 -0.10983,0.1166 l -0.18359,0.3486 -0.20323,0.3537 -0.63293,0.6321 -0.70882,0.5696 c -0.20416,0.3178 -0.38543,0.6247 -0.14423,0.9954 0.24764,0.3806 0.55543,0.2849 0.74207,0.2544"
       style="fill:#2599d1;fill-opacity:1;fill-rule:nonzero;stroke:none"
       transform="matrix(1.3333333,0,0,-1.3333333,-11.188534,1057.9014)"
       clip-path="url(#clipPath11)" />
    <path
       d="m 84.58661,134.95619 c -1.62477,0.0261 -3.2765,-1.08266 -4.69373,-3.42186 -2.57301,-4.2468 -4.45225,-12.58854 -4.60736,-22.23414 -0.007,-0.434 -0.0104,-0.86533 -0.0104,-1.294 0,-12.170802 2.91815,-21.887598 6.53591,-24.065598 0.62797,-0.378133 1.27993,-0.5716 1.94588,-0.582266 1.62477,-0.02613 3.27652,1.082666 4.69374,3.421866 2.573,4.246796 4.45226,12.588536 4.60736,22.234138 0.007,0.434 0.0104,0.86533 0.0104,1.294 0,12.1708 -2.91814,21.88773 -6.5359,24.0656 -0.62798,0.37813 -1.27994,0.5716 -1.9459,0.58226 m 0.87247,-2.41653 c 3.33123,-2.04133 5.48433,-11.31533 5.48433,-22.23133 0,-0.41734 -0.003,-0.83734 -0.0101,-1.25974 -0.14733,-9.162662 -1.85071,-17.124532 -4.30008,-21.167332 -0.0316,-0.052 -0.0632,-0.1036 -0.0949,-0.15453 1.4e-4,-0.10107 -0.0285,-0.2032 -0.0884,-0.2936 -0.15138,-0.228536 -0.32,-0.388136 -0.46481,-0.516269 -0.26659,-0.3504 -0.54059,-0.650667 -0.82443,-0.884533 -0.0814,-0.09413 -0.18732,-0.1944 -0.35624,-0.254267 -0.3234,-0.195067 -0.66007,-0.300667 -1.01325,-0.295067 -0.30492,0.0053 -0.59868,0.106267 -0.88404,0.278134 -3.34408,2.013202 -5.50692,11.304532 -5.50692,22.245064 0,0.41734 0.003,0.83734 0.0101,1.25987 0.14735,9.16253 1.85072,17.1244 4.30009,21.1672 0.47855,0.78987 0.976,1.45107 1.50818,1.87787 0.0616,0.0893 0.15438,0.1792 0.29869,0.24293 0.24617,0.1984 0.55058,0.31693 0.84837,0.3424 0.38071,0.0327 0.7989,-0.0888 1.09351,-0.3568 m 78.47513,2.39813 c -1.3048,0.0209 -2.62774,-0.69293 -3.8324,-2.1928 l 0.18586,0.008 0.41467,-0.0531 0.9896,0.1104 0.58093,-0.001 0.62307,-0.12266 0.14533,0.0727 0.15387,0.0375 0.352,0.009 c 0.14893,0.001 0.25027,0.009 0.3528,0.008 0.30427,-0.005 0.59733,-0.10653 0.882,-0.2788 0.29773,-0.1512 0.45907,-0.25 0.60773,-0.4588 0.6836,-0.62213 1.31027,-1.5632 1.87054,-2.76773 l 0.332,-0.60253 c 0.072,-0.1076 0.10373,-0.24014 0.0844,-0.372 1.6436,-4.17707 2.61253,-10.79254 2.61253,-18.152 0,-0.42147 -0.004,-0.8456 -0.0107,-1.27227 -0.1232,-7.66067 -1.32346,-14.486272 -3.13386,-18.904272 -0.0616,-0.14933 -0.0929,-0.22373 -0.1244,-0.29746 l -0.1296,-0.3064 -0.11267,-0.27427 -0.10933,-0.21307 -0.18,-0.402 -0.37627,-0.67253 -0.0924,-0.1316 c -0.49067,-0.814266 -0.95307,-1.442266 -1.44493,-1.871732 -0.0825,-0.141734 -0.19267,-0.219067 -0.3044,-0.268134 -0.0401,-0.02467 -0.0841,-0.04453 -0.1316,-0.05827 -0.32827,-0.190534 -0.65854,-0.292534 -1.00467,-0.287067 -0.15867,0.0027 -0.3144,0.03147 -0.46733,0.08293 l -1.27467,-0.02293 -0.22667,0.02373 -0.4616,0.0027 c -0.31693,-0.05333 -0.64426,-0.08533 -0.978,-0.0672 -0.0671,-0.004 -0.1328,-0.008 -0.19733,-0.01333 0.51893,-0.684534 1.06293,-1.205867 1.62387,-1.5452 0.62853,-0.380134 1.28106,-0.574534 1.94746,-0.5852 1.62467,-0.02613 3.27747,1.086933 4.6952,3.4384 2.5728,4.266933 4.45214,12.648133 4.60787,22.338935 0.007,0.43813 0.0107,0.87373 0.0107,1.3064 0,12.22373 -2.91614,21.98413 -6.5324,24.17147 -0.62854,0.38013 -1.28107,0.5744 -1.94747,0.5852 M 81.41254,92.671598 c 1.467,0 2.65624,1.18933 2.65624,2.65626 0,1.46707 -1.18924,2.65627 -2.65624,2.65627 h -5.98292 c -1.46702,0 -2.65626,-1.1892 -2.65626,-2.65627 0,-1.46693 1.18924,-2.65626 2.65626,-2.65626 z m 5.03297,9.940132 c 1.467,0 2.65625,1.18933 2.65625,2.65627 0,1.46706 -1.18925,2.65626 -2.65625,2.65626 h -5.98292 c -1.46701,0 -2.65625,-1.1892 -2.65625,-2.65626 0,-1.46694 1.18924,-2.65627 2.65625,-2.65627 z m -5.98292,9.8136 c 1.467,0 2.65624,1.1892 2.65624,2.65613 0,1.46707 -1.18924,2.65627 -2.65624,2.65627 h -5.98292 c -1.46701,0 -2.65625,-1.1892 -2.65625,-2.65627 0,-1.46693 1.18924,-2.65613 2.65625,-2.65613 z m 3.70924,8.5472 c 1.46701,0 2.65625,1.1892 2.65625,2.65627 0,1.46706 -1.18924,2.65626 -2.65625,2.65626 h -5.98292 c -1.467,0 -2.65624,-1.1892 -2.65624,-2.65626 0,-1.46707 1.18924,-2.65627 2.65624,-2.65627 z m -7.19135,1.90627 c 0.47531,0.13573 0.75063,0.63106 0.61492,1.1064 -0.12489,0.43746 -0.55808,0.7116 -1.0069,0.6372 -0.30887,-0.0511 -0.70679,0.10413 -1.01554,0.34573 l -0.55349,0.4656 c -0.12585,0.1568 -0.309,0.7272 -0.40613,1.33853 l -0.0739,1.0852 0.11442,0.13134 0.71202,0.4196 0.81038,0.26613 0.44008,0.034 0.39959,-0.0153 0.71593,-0.0556 0.96483,-0.07 c 0.31999,-0.0576 0.62607,0.15506 0.68365,0.47506 0.0356,0.198 -0.0323,0.40054 -0.18017,0.53694 l -0.83649,0.65733 -1.05728,0.3532 -0.71123,0.0439 -0.75541,-0.0693 -1.24266,-0.33106 -1.14649,-0.65894 c -0.39265,-0.28613 -0.80556,-0.78773 -0.90901,-1.4268 -0.10647,-0.63493 -0.0398,-1.21826 0.0205,-1.674 0.10904,-0.73133 0.21321,-1.57466 0.79725,-2.31213 0.37691,-0.4352 0.75682,-0.65627 1.0544,-0.84333 0.68302,-0.402 1.60354,-0.71454 2.56679,-0.4396 m -2.06953,-8.66374 c 0.37625,0.11427 0.58861,0.51187 0.47433,0.88814 -0.0709,0.2332 -0.25611,0.414 -0.49101,0.4792 l -0.64458,0.2392 -1.19933,0.37053 -1.03291,0.39613 -0.25117,0.2016 -0.35885,0.26027 -0.25578,0.18973 -0.36901,0.33134 -0.21596,0.20293 -0.21964,0.23227 -0.25561,0.33546 -0.6658,0.8008 c -0.35326,0.52454 -0.57692,1.25827 -0.67291,2.05534 -0.0619,0.47773 -0.0469,0.86893 0.0673,1.28666 l 0.199,0.61107 0.119,0.26253 0.22573,0.31534 0.34446,0.4212 0.38153,0.60026 0.18944,0.21867 0.34613,0.31133 c 0.49592,0.2008 0.73519,0.7656 0.53443,1.26147 -0.17731,0.438 -0.64471,0.68413 -1.10616,0.58267 -0.52816,-0.11627 -0.90469,-0.40307 -1.23396,-0.69534 l -0.34423,-0.32626 -0.38068,-0.3512 -0.45578,-0.40867 -0.52566,-0.58267 -0.36632,-0.69493 -0.30553,-0.84293 c -0.22467,-0.76734 -0.26067,-1.53134 -0.17991,-2.25774 0.12974,-1.07693 0.4186,-2.1808 1.06195,-3.1332 0.41569,-0.57173 0.78364,-0.82466 0.8694,-0.92786 l 0.36665,-0.4536 0.39926,-0.37614 0.37712,-0.24093 0.38246,-0.3336 0.34714,-0.2604 0.45052,-0.22587 0.52014,-0.29546 c 0.5348,-0.2392 1.06024,-0.336 1.47298,-0.4216 l 1.27422,-0.19427 z m 6.09538,-10.04773 c 0.31159,0.003 0.56179,0.258 0.55884,0.5696 -0.002,0.17027 -0.0802,0.33093 -0.21368,0.43667 -0.55384,0.43906 -1.32637,0.48306 -1.95966,0.62173 l -0.6589,0.13667 -1.14634,0.3376 -0.55002,0.11853 -0.99653,0.18227 -0.42272,0.11853 -0.39431,0.12827 -0.24124,0.11933 -0.56645,0.29187 -0.20215,0.1112 -0.31734,0.17786 -0.39742,0.202 -0.87798,0.46267 -0.35387,0.17613 -0.14311,0.12254 -0.38056,0.33426 -0.51606,0.50067 -0.38094,0.37573 -0.19494,0.228 -0.50102,0.6584 -0.31364,0.4824 -0.26997,0.48227 -0.0991,0.196 -0.22601,0.4716 -0.19182,0.41667 -0.32921,0.56853 c -0.18343,0.2948 -0.36116,0.80173 -0.38147,1.2284 l 0.0683,1.6356 0.28264,0.81307 1.19549,1.69546 c 0.42104,0.65707 0.65884,1.1668 1.0025,1.48214 l 0.38417,0.25546 c 0.71677,0.53147 1.75369,0.97934 2.57631,1.71 0.25424,0.22574 0.27728,0.61494 0.0515,0.8692 -0.17377,0.1956 -0.45223,0.26 -0.69427,0.16067 -0.77689,-0.31907 -1.77565,-0.4132 -2.77897,-0.71467 l -0.99652,-0.56933 c -0.78531,-0.6056 -1.19309,-1.34893 -1.49908,-1.73227 -0.44199,-0.602 -0.97351,-1.19653 -1.39492,-1.90693 -0.29604,-0.50547 -0.47775,-1.03947 -0.59248,-1.5904 -0.16857,-0.73693 -0.21373,-1.49933 -0.20977,-2.1776 0.0177,-0.95787 0.28622,-1.80947 0.6855,-2.5048 l 0.22962,-0.3788 0.2109,-0.424 0.23199,-0.48387 0.13844,-0.27253 0.32724,-0.58533 0.40139,-0.63254 0.63008,-0.81826 0.39301,-0.42467 0.36481,-0.36573 0.53802,-0.56134 0.58814,-0.4848 0.55742,-0.36613 0.45156,-0.2084 0.8024,-0.4268 0.33749,-0.18267 0.39101,-0.19466 0.26394,-0.11814 0.58216,-0.2628 0.4795,-0.2072 0.59099,-0.1844 0.68277,-0.1156 1.04971,-0.12293 0.50632,-0.0255 1.11179,-0.14506 1.00086,0.0305 z m -5.35918,-9.162002 c 0.0204,0.12293 0.002,0.24907 -0.052,0.36107 l -0.026,0.0512 c -0.12407,0.23626 -0.37054,0.38266 -0.63739,0.37866 l -2.05323,0.19094 c -0.62789,0.0684 -1.30928,0.24386 -1.74554,0.42133 l -0.82459,0.4312 -0.3322,0.20133 -0.35233,0.2104 -0.368,0.26947 -0.32346,0.24907 -0.57865,0.71866 -0.22404,0.38894 -0.12324,0.2524 -0.52197,1.814932 -0.0598,0.56187 -0.0981,0.65053 c -0.15787,0.92267 -0.18443,1.9388 -0.13372,2.9512 l 0.13554,0.7876 0.42968,1.306 0.67214,1.1204 0.33926,0.64133 0.27192,0.43414 0.39603,0.47066 0.3348,0.33974 0.55977,0.6612 c 0.46032,0.77386 0.70308,1.21373 1.40951,1.58253 0.28447,0.14853 0.39465,0.4996 0.24613,0.784 -0.11412,0.21853 -0.35372,0.34133 -0.59774,0.30627 -1.07094,-0.154 -1.87911,-0.63494 -2.52991,-1.08414 l -0.64135,-0.58053 -0.44314,-0.4396 -0.61423,-0.7076 -0.40388,-0.6424 -0.32767,-0.59587 -0.74593,-1.19493 c -0.31451,-0.59573 -0.48961,-1.1676 -0.65427,-1.86813 l -0.19832,-1.20107 c -0.054,-1.14027 -0.0272,-2.3168 0.17062,-3.45253 l 0.1063,-0.55614 0.0725,-0.66666 c 0.13758,-0.788802 0.38506,-1.573072 0.65283,-2.259602 l 0.23116,-0.47934 0.41097,-0.64333 c 0.23256,-0.32853 0.53056,-0.75627 0.9798,-1.1284 l 0.46998,-0.33627 0.57473,-0.35906 0.42429,-0.2264 0.26284,-0.1364 c 0.31422,-0.18387 0.71167,-0.41227 1.22998,-0.5736 0.71602,-0.18387 1.52816,-0.30774 2.32568,-0.30107 0.81957,0.0443 1.62918,0.10453 2.37362,0.29333 0.25854,0.0656 0.45824,0.27094 0.51658,0.5312 z m 7.84281,-11.173867 c -0.0314,-0.1004 -0.0423,-0.206133 -0.0321,-0.3108 0.0495,-0.5092 0.20517,-0.4804 0.28876,-0.560133 0.16092,-0.1536 0.37459,-0.2396 0.59701,-0.2404 l 0.34966,0.004 c 1.81913,-0.08707 3.67701,0.110667 5.54648,0.0672 1.66046,-0.02373 3.45715,-0.3472 5.3439,-0.446133 l 4.52328,0.0093 c 2.94002,0.09027 5.3253,0.4856 7.79438,0.6116 2.14903,0.117733 3.94864,0.279733 5.8522,0.208933 1.82483,-0.078 3.51327,0.012 5.33347,-0.1764 l 4.26733,-0.2264 6.74334,-0.008 3.35826,0.05627 2.8148,0.02467 1.77867,0.229466 0.79813,0.06733 0.73174,0.07893 0.7264,0.04693 0.55266,0.03373 c 2.58294,0.1732 5.01347,0.374933 7.29814,0.182133 2.91826,-0.310267 5.6556,0.09 8.14653,-0.1928 1.4492,-0.137333 2.84347,-0.118267 4.20387,-0.108933 l 2.0884,-0.0027 1.07106,0.0588 0.1796,-0.022 0.30894,-0.01693 0.22933,-0.01453 c 0.0749,-0.0067 0.15013,-0.0053 0.2248,0.004 l 0.0979,0.01067 c 0.60866,0.06933 1.04586,0.618933 0.97666,1.2276 -0.0523,0.458933 -0.38346,0.837467 -0.83146,0.950267 l -0.15814,0.03533 -0.4756,0.02093 -0.31826,-0.008 -0.3656,-0.024 -0.90027,0.05213 -2.10653,0.082 c -1.36747,0.02493 -2.68134,0.04387 -3.93974,0.195066 -2.90093,0.295067 -5.6244,-0.141333 -8.22093,0.104667 -2.50893,0.293333 -5.0696,0.151467 -7.64867,0.05587 l -0.53653,-0.01333 -0.78613,-0.03533 -0.75547,-0.0524 -0.93693,-0.100667 -1.548,-0.1604 -2.908,-0.1064 -3.1448,-0.0336 -6.7404,-0.008 -4.02984,0.163867 c -2.04967,0.175867 -3.80862,0.04293 -5.5051,0.08187 -2.07928,0.05867 -3.95989,-0.132934 -6.06244,-0.265734 -2.62494,-0.175066 -4.96386,-0.606133 -7.74901,-0.729866 l -4.33831,-0.02693 c -1.7371,0.024 -3.57378,0.2864 -5.43992,0.2388 -2.02967,-0.06973 -3.85996,-0.377466 -5.57535,-0.405066 l -0.22941,0.01627 c -0.22212,0.02213 -0.44423,-0.04213 -0.6203,-0.179333 -0.0759,-0.0592 -0.18272,0.004 -0.32238,-0.443467 m 2.95113,51.015072 c -0.16456,0.0967 -0.35784,0.13253 -0.54612,0.10133 l 0.0971,0.009 c -0.45999,-0.0187 -0.8178,-0.40667 -0.7992,-0.86667 0.0186,-0.46 0.40657,-0.81773 0.86656,-0.7992 0.45998,0.0187 0.8178,0.40667 0.7992,0.86653 -0.0153,0.37787 -0.28287,0.698 -0.65192,0.78 -0.1171,0.0261 0.29124,-0.1252 0.23442,-0.0919 m 0.004,0.0501 c -0.49088,0.21253 -1.06113,-0.0133 -1.27368,-0.50387 -0.0769,-0.1776 -0.0988,-0.374 -0.063,-0.56413 0.14623,-0.7764 0.70888,-0.92853 1.03866,-1.0532 0.12326,-0.0467 0.2537,-0.0715 0.38548,-0.0735 l 0.68689,0.0256 3.78986,-0.003 4.13067,-0.0699 3.80987,-0.37053 c 1.16241,-0.14507 2.1641,-0.0524 3.17586,-0.0593 l 4.21284,-0.0247 3.30007,0.007 0.809,0.0748 0.62804,0.10067 0.58592,0.11253 1.57681,0.0499 0.85014,-0.004 0.39874,-0.001 2.63796,0.0237 2.90294,0.0809 1.09396,-0.012 0.47606,-0.005 0.46518,-0.0251 0.69016,0.001 1.00893,0.0219 1.04267,-0.0531 0.43693,-0.0315 0.6892,-0.005 0.51027,-0.0377 c 1.73533,-0.12814 3.32573,-0.0467 5.0448,-0.19347 l 5.35026,-0.35853 c 1.2356,-0.10094 2.60507,-0.112 4.196,-0.0775 2.29707,0.0463 4.0048,0.4712 5.81294,0.56227 l 5.0092,0.0403 c 1.92906,0.0563 3.45546,0.26387 5.03573,0.39667 l 3.43747,0.0269 c 1.3928,0.114 2.53533,0.3364 3.1168,0.1308 0.55986,-0.19773 1.17413,0.0956 1.37186,0.65547 0.18854,0.53333 -0.0684,1.12133 -0.58786,1.34547 -1.40987,0.60813 -2.84667,0.2608 -3.98934,0.2332 -1.16053,-0.0632 -2.29586,0.0473 -3.53746,-0.0483 -1.63294,-0.10707 -3.098,-0.2756 -4.8944,-0.29987 l -5.07667,-2.6e-4 c -2.0684,-0.0889 -3.72133,-0.48894 -5.74293,-0.5164 -1.53974,-0.0189 -2.82547,0.008 -3.91947,0.1124 l -5.36413,0.37973 c -1.9168,0.1496 -3.53467,0.054 -5.08334,0.1556 l -0.65533,0.0363 -0.60773,-0.003 -0.44614,0.009 -1.13466,0.0619 -1.00054,0.0219 -0.6407,0.004 -0.59252,-0.0285 -0.39512,-0.003 -1.24851,-0.012 -2.77284,-0.0759 -2.66029,-0.0511 -0.3759,-0.001 -0.84078,-0.004 c -0.55014,0.007 -1.22834,0.0341 -1.94766,-0.0615 l -0.6152,-0.0867 -0.58986,-0.0985 -0.58163,-0.0791 -3.21293,-0.0271 -4.1826,-0.0655 c -1.11343,-2.7e-4 -2.01179,-0.0835 -2.88058,0.0184 -1.38109,0.15053 -2.73521,0.27453 -4.04428,0.29013 l -4.20352,-0.0368 -3.82109,0.0401 -0.3817,0.0605 c -0.12855,0.0277 -0.26092,0.0329 -0.39124,0.0155 l -0.16275,-0.0155 0.0277,-0.003 c -0.0328,0.004 0.27343,-0.0912 0.18251,-0.0519 m 82.86174,-45.702802 c -0.46107,0.42826 -1.18213,0.40173 -1.61053,-0.0593 -0.41587,-0.4476 -0.40467,-1.1436 0.0253,-1.5776 0.59453,-0.6 0.88893,-0.446666 1.2272,-0.4844 1.27213,-0.1604 2.32867,0.332534 2.99547,0.5504 0.58973,0.206 1.46053,0.27494 2.42693,0.7124 l 1.07907,0.3984 0.44066,0.1732 0.37014,0.10374 0.88826,0.3492 0.46894,0.234 0.45253,0.0572 c 1.21653,0.27293 1.93573,0.9964 2.43427,1.30226 l 1.0212,0.77067 0.40146,0.28027 c 0.41347,0.32533 0.5944,0.64186 0.73374,0.81666 l 0.36333,0.4004 c 0.53587,0.5416 0.58547,1.02907 0.6708,1.18507 l 0.24493,0.2848 0.26067,0.31093 0.42427,0.68867 c 0.30693,0.53307 0.68946,0.7388 1.29546,1.36613 1.17107,1.26174 1.73454,3.006672 2.05707,4.740002 0.17653,0.94227 0.54587,2.02374 0.65987,3.2584 l 0.27546,1.41854 c 0.26067,1.3836 0.19,2.54133 0.2676,3.72866 l -9.3e-4,2.1808 -0.14613,1.1624 c -0.19307,1.11107 -0.6164,2.1184 -0.97134,3.2112 -0.30906,0.94987 -0.6376,1.74027 -1.1268,2.53494 l -0.74693,1.12733 -0.51533,0.59147 -0.066,0.0844 c -0.0468,0.0687 -0.10147,0.1316 -0.16294,0.1876 l -0.36253,0.41053 -0.93987,1.3332 -1.0148,1.11333 -0.28786,0.3228 -0.43934,0.52707 -0.7144,0.6544 -0.62666,0.47133 -0.24747,0.1708 -0.38547,0.28747 -0.34933,0.27013 -0.66213,0.44054 -1.2968,0.68826 -1.2304,0.60107 -0.856,0.3584 -1.77694,0.77107 -0.6884,0.25453 -2.05333,1.04347 c -1.12747,0.55253 -2.26213,0.40306 -2.84693,0.51986 -0.62707,0.12534 -1.23694,-0.28133 -1.36227,-0.9084 -0.12533,-0.62706 0.28147,-1.23693 0.9084,-1.36226 0.0107,-0.003 0.0216,-0.004 0.0324,-0.007 1.0384,-0.17693 1.95587,-0.11373 2.33507,-0.2868 0.53613,-0.26227 1.22786,-0.746 2.07746,-1.11533 l 0.80187,-0.29467 1.6912,-0.69427 0.81773,-0.3416 1.18974,-0.5316 1.27733,-0.584 0.3544,-0.2412 0.35253,-0.27013 0.50374,-0.36173 0.28413,-0.15547 0.51053,-0.33 0.57307,-0.45333 0.36013,-0.434 0.27614,-0.27907 1.08173,-1.02307 0.8572,-1.26986 0.15307,-0.49414 c 0.0319,-0.0767 0.0725,-0.14933 0.12133,-0.21653 l 0.24427,-0.2928 0.37773,-0.41027 0.5636,-0.9968 c 0.40987,-0.6596 0.65587,-1.23453 0.93853,-2.09053 0.38654,-1.16867 0.7696,-2.10147 0.91814,-2.92413 l 0.0915,-0.84054 -4e-4,-1.96426 c -0.0897,-1.32547 -0.0336,-2.36787 -0.24226,-3.46107 l -0.29614,-1.616 c -0.11133,-0.8956 -0.47773,-1.89307 -0.72613,-3.01707 -0.3248,-1.4632 -0.9176,-2.832002 -1.56027,-3.466132 -0.38666,-0.39693 -1.09653,-0.8476 -1.6736,-1.84373 l -0.26466,-0.48627 -0.11107,-0.10867 c -0.1576,-0.1796 -0.39027,-0.3952 -0.59573,-0.80093 l -0.25694,-0.6464 -0.0107,-0.0627 -0.46814,-0.53706 -0.336,-0.4196 -0.36533,-0.25427 -0.83427,-0.6216 c -0.79093,-0.48733 -1.22426,-0.9044 -1.71253,-1.0148 l -0.7208,-0.13453 -0.68307,-0.29694 -0.52506,-0.20426 -0.56254,-0.1708 -0.43586,-0.16894 -1.25174,-0.4516 c -0.51493,-0.2412 -1.2964,-0.32693 -2.20786,-0.65973 -0.78467,-0.3052 -1.46574,-0.59387 -1.98694,-0.55187 l -0.1544,0.0241 0.036,-0.0135 0.0887,-0.0444 c -0.0429,0.0249 0.23773,-0.19 0.16853,-0.1256 M 84.0214,82.956326 c 0.41161,-0.03373 0.77261,0.272533 0.80633,0.684133 0.0229,0.279733 -0.1127,0.548667 -0.35122,0.696667 l -0.37495,0.216666 -0.51019,0.233867 -0.12629,0.08347 c -0.15003,0.1296 -0.33937,0.204666 -0.53741,0.213333 -0.32526,0.1496 -0.70963,0.01733 -0.86516,-0.3012 -0.0206,-0.04227 -0.0365,-0.08653 -0.0474,-0.132133 l 0.0312,-0.699734 c 0.0567,-0.188666 0.175,-0.352933 0.33602,-0.4664 l 0.42878,-0.239733 0.65746,-0.223733 z m 1.02903,1.9464 c -0.1896,-0.2916 -0.1069,-0.681734 0.18472,-0.871334 0.23333,-0.151733 0.53854,-0.132266 0.75076,0.04773 l 0.59562,0.529466 0.38464,0.495867 0.39572,0.542267 c 0.43451,0.631066 0.71287,1.255333 0.96672,1.799606 l 1.00487,1.7588 c 0.47405,0.84866 0.76781,1.80653 1.07088,2.6536 l 0.17693,0.74973 0.33542,1.032 0.16974,0.936 c 0.0865,0.44013 0.39586,0.86333 0.57468,1.6032 l 0.18858,1.14587 0.25389,1.12226 0.087,0.56254 0.29694,2.991732 0.10514,1.16173 0.024,0.70214 0.0516,0.4428 0.10299,1.15386 0.24947,3.1988 -0.0153,3.9588 c 0.0575,2.166 -0.36483,4.2188 -0.59687,6.0296 l -0.36312,2.86094 -0.18143,1.31866 -0.10022,0.54987 -0.13618,0.68293 -0.17421,0.53734 -0.24873,0.9596 -0.42458,1.25866 -0.22608,0.6816 -0.15078,0.3764 -0.3088,0.53574 -0.38594,0.83093 -0.3344,0.52267 -0.23165,0.65 -0.71211,1.42586 -0.89101,1.13947 -0.49001,0.52733 -0.48559,0.43067 c -0.0883,0.0741 -0.18899,0.13213 -0.29739,0.17147 l -0.62848,0.20053 c -0.39665,0.10813 -0.80589,-0.12573 -0.91406,-0.5224 -0.0505,-0.1852 -0.0275,-0.38293 0.0644,-0.55173 l 0.26193,-0.49774 c 0.0522,-0.10333 0.12225,-0.19666 0.20687,-0.27573 l 0.36404,-0.356 0.47526,-0.4672 0.72596,-0.8968 0.48092,-1.02427 c 0.0554,-0.15533 0.10082,-0.50333 0.33839,-0.93373 l 0.29116,-0.4584 0.42819,-0.91067 0.2359,-0.39 0.0714,-0.188 0.20279,-0.6728 0.37884,-1.10746 0.17653,-1.00614 0.14268,-0.45533 0.0953,-0.5664 0.10196,-0.54053 0.16757,-1.2588 0.52106,-2.86587 c 0.27542,-1.87067 0.69844,-3.8096 0.68061,-5.70387 l 0.13948,-3.98053 -0.0608,-3.12253 -0.0962,-1.066 -0.0575,-0.56227 -0.0207,-0.67547 -0.12053,-0.99666 -0.32399,-3.047342 -0.0686,-0.45306 -0.24757,-1.1212 -0.16144,-1.1104 c -0.0828,-0.43467 -0.38783,-0.9248 -0.50503,-1.71147 l -0.13497,-0.77947 -0.36503,-1.05493 -0.13525,-0.6124 c -0.30819,-0.87747 -0.59019,-1.77267 -0.94824,-2.42333 l -0.99551,-1.91347 c -0.24566,-0.54427 -0.48029,-1.08067 -0.83862,-1.613203 L 85.8346,85.977388 85.53116,85.623655 Z m 79.20346,-0.738934 c 0.16574,-0.263866 0.514,-0.343466 0.77787,-0.177733 0.007,0.004 0.0143,0.0093 0.0212,0.014 0.0976,0.0676 -0.21147,-0.07347 -0.19453,-0.07227 0.2248,0.01467 0.42773,0.139334 0.54266,0.332934 l 0.1856,0.19 c 0.2436,0.1232 0.34334,0.442933 0.38054,0.4984 l 0.11706,0.252266 0.0411,0.123067 c 0.0183,0.07213 0.3668,0.237067 -0.236,0.672267 -0.17733,0.128 -0.40947,0.152266 -0.60947,0.0636 -0.47813,-0.212134 -0.29973,-0.232534 -0.39973,-0.380934 l -0.15453,-0.390666 -0.28027,-0.104667 c -0.1896,-0.1216 -0.3072,-0.3288 -0.314,-0.553867 z m 0.78814,0.968134 c 0.204,-0.267467 0.58613,-0.3188 0.8536,-0.114934 0.26733,0.204 0.31866,0.586134 0.1148,0.8536 -0.204,0.267334 -0.58614,0.318667 -0.85347,0.1148 -0.08,-0.06093 -0.14347,-0.1408 -0.18507,-0.232266 -0.0644,-0.141467 0.0945,0.146533 0.0845,0.1348 l 0.012,0.01373 0.19773,0.136533 -0.48053,-0.3284 -0.47867,-0.4536 0.0433,0.02227 0.10494,0.0216 0.12186,0.0053 0.10947,-0.012 c -0.048,0.008 0.30253,-0.108666 0.20413,-0.06347 -0.41906,0.192533 -0.91493,0.0093 -1.1076,-0.410134 -0.19253,-0.4192 -0.009,-0.915066 0.41014,-1.1076 0.4192,-0.192666 0.91506,-0.0093 1.1076,0.410134 0.0945,0.205466 0.1016,0.4404 0.0196,0.6512 -0.0445,0.114666 0.0584,-0.302267 0.0544,-0.243867 -0.007,0.104133 -0.0239,-0.261733 -0.0141,-0.214133 0.0165,0.08093 -0.0565,-0.1708 -0.0453,-0.145067 l 0.1392,0.233867 0.24853,0.387333 0.21014,0.262 -0.20014,-0.126133 -0.12493,-0.03013 c 0.0395,0.0053 -0.2496,0.01867 -0.1708,0.0053 l -0.15307,0.0488 c 0.064,-0.03027 -0.30226,0.2848 -0.22253,0.180266 m -0.2196,0.1348 c -0.44333,0.158134 -0.93107,-0.07307 -1.0892,-0.516533 -0.0147,-0.04093 -0.0261,-0.08307 -0.0343,-0.125733 -0.0645,-0.3364 0.1516,-0.718934 0.33907,-0.854934 0.5528,-0.4008 0.64933,-0.160266 0.742,-0.138533 l 0.50773,0.210933 c 0.608,0.408134 0.65334,0.797334 0.72734,0.9156 0.27386,0.4736 0.6444,0.780667 1.024,1.447334 l 0.42986,0.884266 0.2668,0.535333 0.1396,0.26306 0.1504,0.3384 c 0.12867,0.26414 0.11014,0.57627 -0.0488,0.82334 l -0.11213,0.14853 c -0.0193,0.0204 -0.0401,0.0396 -0.0621,0.0572 l -0.32307,0.15333 c -0.28453,0.0732 -0.58667,-0.008 -0.7968,-0.21266 l -0.2712,-0.30014 -0.25987,-0.46293 -0.2788,-0.69093 -0.3124,-0.681199 c -0.23573,-0.369734 -0.63226,-0.6568 -1.06933,-1.339334 l -0.21387,-0.3956 -0.0349,-0.05827 c -0.003,-0.004 0.142,0.118533 0.082,0.07547 l -0.13787,-0.100533 -0.024,-0.01453 0.0409,0.01973 0.0999,0.03587 c -0.0327,-0.0093 0.2252,0.03613 0.15107,0.0288 -0.0816,-0.008 0.528,-0.1024 0.368,-0.04533 m -0.41893,-0.507333 c -0.17454,0.2584 -0.52547,0.3264 -0.78387,0.151867 -0.0107,-0.0067 -0.02,-0.014 -0.0297,-0.02147 -10e-4,-0.0013 0.22,0.110667 0.0988,0.0568 -0.30547,-0.136133 -0.4428,-0.494 -0.30667,-0.799467 0.136,-0.305466 0.49387,-0.4428 0.79933,-0.306666 0.30547,0.136 0.4428,0.493866 0.3068,0.799333 -0.0948,0.2128 -0.3032,0.3524 -0.53613,0.358933 -0.17,0.0053 0.38693,-0.1532 0.31987,-0.1056 -0.0635,0.04507 0.15946,-0.175066 0.1316,-0.133733 m -1.06067,-0.163867 c -0.0333,-0.0848 -0.0497,-0.175466 -0.0481,-0.266666 0.009,-0.6008 0.33813,-0.627467 0.49466,-0.6972 l 0.364,-0.09693 c 0.1288,-0.01693 0.25974,-0.0053 0.38334,0.03467 l 0.63546,0.2104 0.97467,0.5972 0.72867,0.628533 c 0.56306,0.7 1.044,1.3376 1.21653,2.010934 0.0845,0.330533 -0.1148,0.667198 -0.44547,0.751858 -0.232,0.0595 -0.47746,-0.0205 -0.62986,-0.20533 l -1.30614,-1.109595 -0.74853,-0.676133 -0.49667,-0.303334 -0.5812,-0.2772 c -0.11773,-0.05707 -0.22106,-0.1396 -0.3028,-0.241733 -0.0689,-0.08627 -0.0947,0.0067 -0.23853,-0.359467 m 0.86187,-0.05453 c -0.2876,-0.183067 -0.37227,-0.564533 -0.1892,-0.852133 0.0107,-0.01733 0.0229,-0.03413 0.0356,-0.05027 l 0.0756,-0.0956 c 0.11946,-0.148267 0.292,-0.244 0.48106,-0.267067 0.47574,-0.058 0.95347,0.103334 1.27227,0.3468 0.43,0.394667 0.5988,0.751067 0.75813,0.9568 0.18307,0.334534 0.22227,0.397334 0.39547,0.435867 0.30413,0.06773 0.49573,0.3692 0.428,0.673333 -0.0516,0.232 -0.24307,0.406667 -0.47867,0.436934 -0.566,0.0728 -1.10906,-0.178534 -1.4576,-0.4652 l -0.65146,-0.813067 -0.18707,-0.114 c -0.19333,-0.0027 -0.37773,-0.08147 -0.51293,-0.219467 z m 0.94106,1.726133 c -0.1648,-0.281333 -0.0703,-0.643066 0.21107,-0.807866 0.16267,-0.09533 0.36093,-0.1072 0.53387,-0.03213 l 0.49253,0.242667 c 0.0648,0.03587 0.12387,0.0812 0.17533,0.1344 0.40854,0.4228 0.77774,0.925867 1.11867,1.526667 l 0.68133,1.270661 0.17587,0.42494 0.39027,0.63826 0.36293,0.72267 0.4116,0.88893 0.2272,0.6732 0.15413,0.77507 c 0.1816,1.068 0.33374,2.1944 0.60627,3.19933 l 0.46333,1.9552 0.19,1.02787 0.1324,0.55373 0.382,2.227202 0.14747,0.72574 c 0.1676,0.97613 0.17453,1.85066 0.16213,2.79093 l 0.0173,2.4972 -0.0817,3.8284 0.003,3.06 -0.0536,1.032 -0.1568,2.8776 -0.258,1.238 -0.5252,2.7176 -0.23267,1.3824 -0.0767,0.5076 -0.31774,1.7972 -0.65853,2.87787 -0.15933,0.588 -0.3264,0.86533 -0.16934,0.66787 c -0.0892,0.3324 -0.2424,0.75093 -0.56026,1.12773 -0.37187,0.43253 -0.4648,0.35587 -0.53787,0.40587 -0.0761,0.0533 0.17933,-0.17507 0.15933,-0.14814 l -0.2092,0.3976 -0.4964,0.54547 -0.49493,0.39787 -0.28267,0.22466 -0.42213,0.27174 -0.53267,0.23746 -0.5628,0.14467 -0.0321,0.0156 c -0.1372,0.0384 -0.28027,0.0507 -0.422,0.0361 l -0.30613,-0.042 c -0.56214,-0.0967 -0.93947,-0.63066 -0.8428,-1.19266 0.0447,-0.25974 0.18693,-0.49254 0.3976,-0.6508 l 0.12333,-0.0996 c 0.10987,-0.0953 0.23707,-0.1688 0.37467,-0.21614 l 0.0824,-0.0303 0.11493,-0.0833 0.33453,-0.1956 0.35414,-0.198 0.3052,-0.17453 0.33013,-0.2552 c 0.0368,-0.0477 0.0632,-0.478 0.7492,-0.9168 l 0.25573,-0.14133 -0.0343,0.0215 c 0.034,-0.0229 -0.20827,0.1976 -0.148,0.1304 l 0.11613,-0.25733 0.22773,-0.8164 0.32867,-0.72467 0.14507,-0.47973 0.73066,-2.75893 0.334,-1.70374 0.0791,-0.50226 0.3056,-1.51787 0.51787,-2.63987 0.242,-1.0812 0.15373,-2.7812 0.10107,-0.9916 0.0836,-3.02186 0.10973,-3.86387 0.0531,-2.44227 c 0.005,-0.89373 -0.009,-1.63733 -0.1504,-2.42773 l -0.12654,-0.79413 -0.30973,-2.089872 -0.13773,-0.63667 -0.18934,-1.00586 -0.46493,-1.83427 c -0.3096,-1.15733 -0.4604,-2.33707 -0.63293,-3.37307 l -0.11747,-0.6112 -0.15067,-0.43733 -0.41226,-0.84173 -0.27494,-0.6692 -0.4112,-0.82574 -0.13186,-0.3784 -0.55267,-1.18573 -0.85933,-1.230531 c -0.0501,-0.0544 -0.0919,-0.116 -0.124,-0.1828 l -0.20147,-0.379734 z"
       style="fill-opacity:1;fill-rule:nonzero;stroke:none"
       id="path1" />
  </g>
</svg>
