<?xml version="1.0" encoding="UTF-8" standalone="no"?>
<!-- Created with Inkscape (http://www.inkscape.org/) -->

<svg
   version="1.1"
   id="svg1"
   width="101.69687"
   height="85.588943"
   viewBox="0 0 101.69687 85.588943"
   sodipodi:docname="pilot-input.svg"
   inkscape:version="1.3.2 (091e20e, 2023-11-25)"
   xmlns:inkscape="http://www.inkscape.org/namespaces/inkscape"
   xmlns:sodipodi="http://sodipodi.sourceforge.net/DTD/sodipodi-0.dtd"
   xmlns="http://www.w3.org/2000/svg"
   xmlns:svg="http://www.w3.org/2000/svg">
  <sodipodi:namedview
     id="namedview1"
     pagecolor="#ffffff"
     bordercolor="#000000"
     borderopacity="0.25"
     inkscape:showpageshadow="2"
     inkscape:pageopacity="0.0"
     inkscape:pagecheckerboard="0"
     inkscape:deskcolor="#d1d1d1"
     inkscape:zoom="2.7573655"
     inkscape:cx="50.773102"
     inkscape:cy="42.794472"
     inkscape:window-width="1312"
     inkscape:window-height="449"
     inkscape:window-x="0"
     inkscape:window-y="25"
     inkscape:window-maximized="0"
     inkscape:current-layer="g1" />
  <defs
     id="defs1">
    <clipPath
       clipPathUnits="userSpaceOnUse"
       id="clipPath19">
      <path
         d="M 0,0 H 612 V 803.25 H 0 Z"
         id="path19" />
    </clipPath>
  </defs>
  <g
     id="g1"
     transform="translate(-272.57648,-212.9203)">
    <path
       id="path1-28"
       style="fill-opacity:1;fill-rule:nonzero;stroke:none"
       d="m 343.92924,258.3192 c 0,1.91374 -1.0352,3.58587 -2.5764,4.48627 -0.7684,0.44893 -1.6624,0.70667 -2.61654,0.70667 -1.91373,0 -3.58586,-1.0352 -4.4864,-2.5764 -0.44879,-0.7684 -0.70653,-1.6624 -0.70653,-2.61654 0,-1.91373 1.03507,-3.58586 2.5764,-4.4864 0.7684,-0.44893 1.66227,-0.70653 2.61653,-0.70653 1.91374,0 3.58587,1.03507 4.48627,2.5764 0.44893,0.7684 0.70667,1.66227 0.70667,2.61653 m -2.12507,0 c 0,-0.5632 -0.15133,-1.09106 -0.4164,-1.54453 -0.53213,-0.91107 -1.52027,-1.52347 -2.65147,-1.52347 -0.5632,0 -1.09106,0.15147 -1.54453,0.4164 -0.91107,0.53227 -1.52347,1.52027 -1.52347,2.6516 0,0.56307 0.15147,1.09094 0.4164,1.54454 0.53227,0.91093 1.52027,1.52333 2.6516,1.52333 0.56307,0 1.09094,-0.15133 1.54454,-0.4164 0.91093,-0.53213 1.52333,-1.52027 1.52333,-2.65147 m -16.66973,0 c 0,1.91374 -1.03507,3.58587 -2.5764,4.48627 -0.7684,0.44893 -1.66227,0.70667 -2.61653,0.70667 -1.91374,0 -3.58587,-1.0352 -4.48627,-2.5764 -0.44893,-0.7684 -0.70667,-1.6624 -0.70667,-2.61654 0,-1.91373 1.0352,-3.58586 2.5764,-4.4864 0.7684,-0.44893 1.6624,-0.70653 2.61654,-0.70653 1.91373,0 3.58586,1.03507 4.4864,2.5764 0.44893,0.7684 0.70653,1.66227 0.70653,2.61653 m -2.12493,0 c 0,-0.5632 -0.15147,-1.09106 -0.4164,-1.54453 -0.53227,-0.91107 -1.52027,-1.52347 -2.6516,-1.52347 -0.56307,0 -1.09094,0.15147 -1.54454,0.4164 -0.91093,0.53227 -1.52333,1.52027 -1.52333,2.6516 0,0.56307 0.15133,1.09094 0.4164,1.54454 0.53213,0.91093 1.52027,1.52333 2.65147,1.52333 0.5632,0 1.09106,-0.15133 1.54466,-0.4164 0.91094,-0.53213 1.52334,-1.52027 1.52334,-2.65147 m 15.92053,-0.0789 c 0.258,0.18413 0.3324,0.53507 0.1712,0.808 l -0.2232,0.26707 c -0.13867,0.12586 -0.31787,0.1976 -0.50507,0.20213 -0.3496,0.008 -0.72093,-0.2784 -0.83933,-0.52707 l -0.0984,-0.58866 c 0.009,-0.0995 0.0353,-0.1968 0.0776,-0.28734 0.18026,-0.38573 0.39186,-0.4548 0.4536,-0.49893 -0.0935,0.0729 -0.19947,0.20653 -0.1868,0.1848 l 0.1384,-0.2016 c 0.32173,-0.30187 0.6404,-0.51093 1.14573,-0.42653 1.004,0.37426 0.83787,0.8344 0.87867,1.0432 l 0.0771,0.3896 -0.0457,-0.23187 c 0.17253,0.48493 -0.022,0.84267 -0.12893,1.03347 -0.39667,0.55453 -0.86667,0.59333 -1.15067,0.59333 -0.11507,0.008 -0.40773,0.0265 -0.75627,-0.16493 -0.49333,-0.28587 -0.61946,-0.67214 -0.69933,-0.9296 -0.0807,-0.54347 -0.0289,-0.86534 0.14013,-1.18507 0.22254,-0.42613 0.57347,-0.55693 0.73014,-0.61707 l 0.3168,-0.11466 0.85106,0.034 c 0.2564,0.0591 0.602,0.27106 0.78267,0.588 0.15827,0.22613 0.17613,0.47133 0.18387,0.6548 l -0.0408,-0.23427 c 0.12813,0.41053 0.0531,0.8116 -0.14827,1.15093 -0.4368,0.54587 -0.83387,0.61614 -1.10933,0.65507 -0.3488,0.0396 -0.752,0.0308 -1.16214,-0.2816 -0.4788,-0.48387 -0.4448,-0.7332 -0.4548,-0.7772 -0.12546,-0.41133 -0.0572,-0.79507 0.0741,-1.14707 l 0.3364,-0.52733 c 0.31106,-0.26493 0.70533,-0.45307 1.16853,-0.36733 0.48827,0.12573 0.6492,0.34093 0.77013,0.4996 0.34107,0.2772 0.28267,0.71466 0.27054,0.94093 l -0.0489,0.53053 c -0.16,0.45974 -0.48413,0.69467 -0.70013,0.79387 -0.17933,0.1036 -0.46547,0.1868 -0.79987,0.1708 l -0.54693,-0.106 c -0.48507,-0.25747 -0.64907,-0.57227 -0.72853,-0.8384 -0.0488,-0.16347 -0.0581,-0.33627 -0.0271,-0.504 0.1104,-0.596 0.45453,-0.7748 0.67653,-0.89933 l 0.6704,-0.22427 c 0.0932,-0.0135 0.188,-0.012 0.28094,0.004 l 0.50053,0.1672 c 0.36293,0.19507 0.49907,0.6476 0.304,1.01053 -0.0601,0.112 -0.14787,0.20667 -0.25493,0.2752 -0.0584,0.0721 -0.12854,0.13587 -0.2072,0.18747 -0.009,0.005 0.0996,-0.15853 0.0513,-0.0729 -0.0289,0.0515 0.0937,-0.43174 0.082,-0.28467 -0.007,0.0783 -0.0485,-0.37907 -0.0231,-0.276 0.026,0.10573 -0.21253,-0.41013 -0.144,-0.31347 0.0991,0.13974 0.16334,0.30094 0.18747,0.47054 0.0107,0.0759 -0.12,-0.32574 -0.0759,-0.23894 0.0463,0.0911 -0.37346,-0.38666 -0.24773,-0.29253 0.16853,0.14813 -0.14693,-0.0795 -0.11027,-0.0624 0.0784,0.0236 -0.2668,-0.0107 -0.21853,-0.0224 -0.0413,0.009 -0.3132,0.15693 -0.23813,0.10387 0.0805,-0.0571 -0.2872,0.38453 -0.22974,0.2692 0.0989,-0.17107 -10e-4,0.0197 0.012,-0.0561 l -0.004,0.15827 0.0528,0.14907 c -0.034,-0.0677 0.2504,0.2888 0.17014,0.21853 l 0.2204,0.13573 c -0.06,-0.0193 0.46213,0.003 0.31306,0.024 -0.21213,0.0159 0.326,-0.14506 0.25147,-0.0971 -0.0696,0.0448 0.16627,-0.16294 0.13813,-0.1256 -0.11266,0.13213 0.0905,-0.21014 0.0747,-0.1568 10e-4,-0.007 -0.0677,-0.22094 -0.0199,-0.0965 l -0.0247,-0.0535 -0.0793,-0.1144 c 0.0439,0.0529 -0.2856,-0.2352 -0.19653,-0.176 0.24053,0.20453 -0.19853,-0.0673 -0.13413,-0.0493 l -0.10534,-0.0155 c 0.0381,-0.004 -0.35586,0.23546 -0.24786,0.1404 0.24733,-0.17174 -0.12387,0.4008 -0.0947,0.23533 l -0.0107,0.23773 0.012,0.0541 c -0.012,-0.0403 0.15974,0.26946 0.0976,0.1876 -0.0192,-0.0172 0.3624,0.25586 0.282,0.22306 -0.0765,-0.0312 0.2116,0.0421 0.1748,0.0405 l 0.0583,-0.009 c -0.14987,0.0532 0.0333,-0.02 0.0307,-0.0184 l -0.14094,0.0812 c -0.007,0.004 0.14267,-0.10893 0.0825,-0.0585 -0.0683,0.0573 0.27946,-0.46067 0.2224,-0.31413 -0.0356,0.0924 0.005,-0.26307 0.0201,-0.194 l 0.0163,0.158 c 0.0107,0.0397 -0.23187,-0.33414 -0.13427,-0.22814 0.0755,0.0852 -0.2,-0.14146 -0.15707,-0.1196 l -0.0299,-0.0147 -0.1368,-0.0156 c 0.066,-0.007 -0.4496,0.25466 -0.32107,0.144 l 0.0165,-2.7e-4 c 0.0321,-0.0411 -0.11546,0.41733 -0.1016,0.26973 l 0.012,0.2356 -0.06,-0.12173 c -0.0207,-0.0335 0.2048,0.1676 0.1256,0.11187 -0.0875,-0.0617 0.61467,0.1356 0.42787,0.13426 -0.33373,-0.0531 0.19267,-0.0555 0.13293,-0.0343 l 0.1052,-0.0583 -0.0516,0.0399 -0.21693,0.1612 0.12093,-0.0837 c -0.0224,0.0253 0.1656,-0.38426 0.12507,-0.23973 -0.0269,0.0957 -0.07,0.186 -0.1276,0.26707 -0.0479,0.0673 0.10627,-0.35014 0.0907,-0.234 -0.009,0.0648 -0.0633,-0.40707 -0.0249,-0.28227 0.0411,0.13333 -0.43946,-0.478 -0.29386,-0.3856 0.15933,0.1012 0.27653,0.25667 0.33,0.43773 0.0408,0.1384 -0.16054,-0.27106 -0.12814,-0.2356 l -0.0439,-0.0408 z m -18.95453,0.056 c 0.2632,0.24573 0.27733,0.6584 0.0316,0.9216 -0.1272,0.13613 -0.30654,0.21147 -0.49267,0.2068 l -0.0479,-10e-4 c -0.007,-1.3e-4 0.19654,-0.0183 0.0743,-0.004 -0.3844,0.0437 -0.73133,-0.23253 -0.77507,-0.61693 -0.0436,-0.3844 0.23267,-0.73134 0.61707,-0.77507 0.3844,-0.0436 0.73133,0.23267 0.77493,0.61707 0.0303,0.2668 -0.0947,0.52746 -0.3216,0.67106 -0.11986,0.0757 0.27774,-0.3228 0.23134,-0.24146 -0.078,0.13626 0.0847,-0.4632 0.0889,-0.36334 0.005,0.14107 -0.12493,-0.35973 -0.0872,-0.29653 l -0.0937,-0.1176 z m -0.7548,1.08693 c -0.0965,-0.0345 -0.18454,-0.0891 -0.2584,-0.16 -0.57147,-0.5496 -0.15934,-0.89466 -0.0428,-1.03933 0.0705,-0.0876 0.1596,-0.1588 0.26066,-0.2084 0.49987,-0.2452 0.77534,-0.15973 1.168,0.10627 l -0.38933,-0.1364 c 0.48933,0.0384 0.7628,0.4972 0.8208,0.73773 l 0.0156,0.51267 c -0.016,0.0983 -0.0471,0.19346 -0.0923,0.28213 -0.28653,0.5624 -0.80733,0.59613 -1.0624,0.58613 l -0.6004,-0.14973 c -0.0816,-0.0388 -0.15773,-0.0883 -0.22626,-0.14693 -0.69307,-0.59267 -0.43867,-1.15467 -0.29267,-1.49627 0.1572,-0.39293 0.388,-0.49733 0.4788,-0.5616 l 0.55253,-0.31493 0.70294,-0.092 c 0.54786,0.0532 0.83146,0.40213 0.97946,0.64106 0.15627,0.2228 0.2704,0.60827 0.19334,1.0012 0.0225,0.19947 -0.1276,0.45974 -0.24334,0.6424 -0.4316,0.52867 -0.82,0.6072 -1.06453,0.65227 -0.52653,0.0601 -1.09733,-0.0861 -1.4472,-0.56867 -0.3108,-0.5248 -0.25387,-0.84186 -0.2248,-1.0384 0.0315,-0.32586 0.18293,-0.61266 0.37507,-0.8468 l 0.69173,-0.46626 0.78093,-0.0799 c 0.66414,0.0319 1.0164,0.6052 1.08707,1.08853 l -0.0619,-0.23253 c 0.332,0.84587 -0.14813,1.2912 -0.46946,1.57053 -0.69107,0.46867 -1.21947,0.42934 -1.6884,0.2956 -0.34,-0.1372 -0.5728,-0.26413 -0.78467,-0.52453 -0.48573,-0.51947 -0.3252,-1.0724 -0.22307,-1.3948 0.0968,-0.35107 0.29867,-0.6308 0.57254,-0.85453 0.0723,-0.0676 0.31066,-0.25027 0.64,-0.30547 0.1976,-0.0327 0.56946,-0.10333 1.0204,0.1512 0.8844,0.52893 0.68106,1.07613 0.70373,1.28693 0.0464,0.40654 -0.0552,0.8376 -0.35187,1.18387 l 0.2448,-0.5536 -0.0684,0.2884 c -0.0729,0.20547 -0.20546,0.38453 -0.3808,0.51413 l -0.6068,0.25734 0.4652,-0.19534 -0.2876,0.16054 c -0.1268,0.0521 -0.262,0.0808 -0.39906,0.0845 l -0.38214,-0.0427 -0.43586,-0.2032 -0.22094,-0.18106 c -0.13533,-0.13814 -0.234,-0.30787 -0.28693,-0.494 l -0.0549,-0.3556 c -0.0196,-0.6256 0.4716,-1.1488 1.0972,-1.1684 0.38893,-0.012 0.75693,0.17586 0.9748,0.49826 0.0521,0.0772 -0.282,-0.27373 -0.202,-0.2128 0.1536,0.1168 0.27546,0.27 0.35466,0.44587 0.0333,0.0737 -0.20373,-0.292 -0.1416,-0.22067 -0.0501,-0.0581 -0.4208,-0.2928 -0.33386,-0.25373 0.16706,0.0889 -0.21227,-0.0615 -0.13467,-0.0428 0.1332,0.0321 0.2596,0.0881 0.37293,0.16547 0.0609,0.0417 -0.27786,-0.12894 -0.20333,-0.1028 l -0.50173,-0.0529 c 0.12066,-0.0153 -0.4476,0.20214 -0.3424,0.13027 0.17973,-0.12307 0.39213,-0.1896 0.61,-0.1912 0.0671,-5.3e-4 -0.32067,0.0608 -0.2344,0.0351 l -0.4968,0.32213 c 0.0691,-0.0804 -0.1456,0.30107 -0.12587,0.23053 l -0.016,0.18454 -0.0137,-0.0941 c -0.004,-0.0133 0.0915,0.1804 0.0523,0.11414 -0.0443,-0.0749 0.46854,0.38973 0.2996,0.29173 -0.146,-0.0887 0.34627,0.0957 0.28374,0.0908 l 0.0507,10e-4 c -0.1032,0.0136 0.3524,-0.1284 0.28147,-0.0901 -0.0653,0.0352 0.1176,-0.0801 0.10813,-0.0721 -0.0153,0.0164 0.15774,-0.31934 0.13534,-0.21294 0.004,-0.0187 -0.0165,-0.29266 10e-4,-0.1928 0.0107,0.0556 -0.122,-0.30426 -0.076,-0.21706 0.0481,0.0916 -0.338,-0.35974 -0.2324,-0.27707 0.062,0.0399 -0.26133,-0.1288 -0.24427,-0.126 l 0.0873,0.0265 c 0.0316,-0.001 -0.34027,0.1572 -0.22107,0.0815 0.19,-0.0985 -0.0744,0.0964 -0.0176,0.0367 0.0315,-0.0331 -0.15413,0.23813 -0.1124,0.15893 0.0449,-0.0855 -0.102,0.56013 -0.0983,0.3868 l 0.0224,0.2404 c -0.0309,-0.1472 0.32934,0.5152 0.20974,0.392 -0.0627,-0.0644 0.3612,0.23 0.25333,0.1796 -0.11067,-0.0517 0.52093,0.0837 0.38387,0.0843 8e-4,0.003 0.31026,-0.0895 0.24613,-0.0535 -0.0617,0.0344 0.2772,-0.30507 0.20933,-0.20107 -0.0985,0.1328 0.0645,-0.388 0.0528,-0.22373 0.003,-0.0324 -0.0289,-0.274 -0.012,-0.1944 0.0185,0.0888 -0.29346,-0.52053 -0.17733,-0.3732 0.16573,0.2504 -0.43787,-0.28427 -0.3072,-0.22787 0.12467,0.0537 -0.40027,-0.0544 -0.31707,-0.0593 0.0596,-0.005 -0.38066,0.2384 -0.26493,0.14467 l 0.0713,-0.0469 c 0.0264,-0.0244 -0.15893,0.23467 -0.1132,0.15014 -0.0241,0.0107 0.0297,0.78986 -0.0335,0.67253 0.004,0.008 0.21466,0.23653 0.14466,0.17867 -0.0771,-0.0636 0.56814,0.17986 0.39014,0.1608 -0.0828,-0.009 0.2768,-0.0536 0.2068,-0.0265 l -0.0547,0.0561 0.038,-0.0377 c -0.044,0.048 0.22493,-0.47773 0.17413,-0.3112 -0.0107,0.0371 0.004,-0.36413 0.0197,-0.24853 0.008,0.0643 -0.138,-0.36493 -0.0825,-0.2576 0.0591,0.114 -0.478,-0.44253 -0.3224,-0.34627 0.0781,0.0484 0.14947,0.10707 0.212,0.1744 0.0969,0.10414 -0.26413,-0.16546 -0.1964,-0.13906 0.038,0.0148 -0.30266,-0.0491 -0.19733,-0.042 0.0573,0.004 -0.31693,0.0356 -0.22413,0.0161 0.0977,-0.0205 -0.44307,0.22653 -0.3296,0.14533 0.0812,-0.0583 0.17106,-0.10346 0.26626,-0.13386 0.13667,-0.0437 -0.28746,0.164 -0.24333,0.1284 0.0599,-0.0484 -0.16253,0.20453 -0.12533,0.14306 0.0203,-0.0336 -0.0909,0.2356 -0.0681,0.15694 0.0252,-0.0861 0.0444,0.57893 -0.003,0.40213 l 0.20693,0.35907 c -0.0936,-0.0941 0.18253,0.1112 0.15827,0.10413 -0.0235,-0.007 0.33853,-0.0308 0.18973,-8e-4 -0.11213,0.0225 -0.228,0.0199 -0.33907,-0.008 l -0.1116,-0.0311 z M 352.3051,244.3867 c 0.34267,-0.1472 0.7396,0.012 0.8868,0.35387 0.0517,0.1204 0.0672,0.2532 0.0448,0.38226 -0.0463,0.26534 -0.46866,0.64747 -0.77426,0.6604 l -0.55427,-0.1236 -0.6556,-0.5164 -0.25387,-0.37813 -0.28773,-0.42093 -0.25733,-0.7188 -0.114,-0.692 0.012,-0.53094 c 0.0652,-0.44706 0.2892,-0.68906 0.4352,-0.85426 l 0.504,-0.35334 0.24506,-0.13413 0.53067,-0.17773 0.37147,-0.0463 0.68653,-0.007 0.3536,0.0511 0.65627,0.37213 0.50186,0.59587 0.16614,0.3272 0.0799,0.21227 0.11067,0.23013 c 0.16787,0.4172 0.2632,0.84333 0.2584,1.28747 l -0.0487,0.41093 c 0.0133,0.15107 -0.12373,0.4976 -0.33266,0.75267 l -0.45494,0.37213 -0.33626,0.1856 -0.16387,0.1 -0.15387,0.10187 -0.33053,0.18053 -0.0709,0.0397 c -0.16214,0.0773 -0.34214,0.10907 -0.52094,0.0919 -0.2224,-0.0213 -0.60093,-0.13253 -0.8224,-0.4888 -0.26813,-0.4316 -0.13573,-0.9988 0.29574,-1.26707 0.0655,-0.0405 0.1356,-0.0728 0.20906,-0.096 0.13387,-0.0423 -0.2752,0.1492 -0.23773,0.12094 l -0.0423,0.0353 c 0.1256,-0.12267 0.2816,-0.20973 0.452,-0.25227 l -0.0408,0.012 0.0196,-0.0273 0.31614,-0.16693 0.29293,-0.128 0.20413,-0.0823 0.13,-0.0644 0.0203,0.0308 -0.0539,0.10107 -0.0992,-0.658 -0.0897,-0.2764 -0.0688,-0.10067 -0.0253,-0.0376 -0.15334,-0.12853 -0.13413,-0.0228 -0.36293,0.0695 -0.1992,0.0968 -0.0472,0.0469 c 0.0196,-0.0136 0.13213,-0.18934 0.0821,-0.10094 l -0.0936,0.1348 c -0.0156,0.0296 0.0696,-0.34 0.0591,-0.21853 -0.005,0.0939 0.003,-0.12787 0.0228,0.028 l 0.0676,0.46147 0.0501,0.3108 0.1676,0.50733 0.0644,0.25773 0.10707,0.16254 0.082,0.14013 c 0.0183,0.0217 -0.27747,-0.19027 -0.16534,-0.13067 0.0613,0.0327 -0.3464,-0.0801 -0.24666,-0.0721 0.10106,0.008 -0.37867,0.084 -0.29334,0.0475 m 3.8276,5.9504 c -0.03,0.0532 -0.0671,0.102 -0.11,0.14533 -0.18546,0.18667 -0.2856,0.18227 -0.382,0.20307 -0.24586,0.0529 -0.502,-0.0205 -0.6824,-0.1956 l -0.32173,-0.4164 -0.16347,-0.14814 -0.21413,-0.42906 -0.0985,-0.284 c -0.0265,-0.094 -0.038,-0.1916 -0.034,-0.2892 l 0.0623,-0.50667 0.16334,-0.60267 0.34266,-0.564 0.3732,-0.38053 0.50574,-0.37667 0.87373,-0.29453 0.3924,-0.0283 0.58653,0.0884 c 0.34027,0.1384 0.45787,0.31587 0.52947,0.39147 l 0.22307,0.27147 0.24733,0.45893 0.1748,0.49893 0.12933,0.61414 0.0395,0.59586 c 0.007,0.1896 0.0148,0.43974 -0.10507,0.73907 l -0.2292,0.37173 -0.3864,0.36947 -0.3428,0.19813 -0.57733,0.2008 -0.43067,0.0517 -0.7704,-0.16614 -0.57186,-0.33746 -0.36974,-0.3584 c -0.2612,-0.2816 -0.24453,-0.72174 0.0371,-0.9828 0.1856,-0.17227 0.45013,-0.22987 0.69067,-0.15067 l 0.27946,0.0785 0.36347,0.0936 0.27853,0.034 0.23374,0.004 0.17986,-0.0372 0.14694,-0.0415 0.11226,-0.11587 0.11867,-0.0796 c 0.0137,-0.009 -0.16,0.17667 -0.10853,0.1084 l -0.0428,-0.0351 0.009,-0.44906 -0.0291,-0.35987 -0.1044,-0.1692 -0.16773,-0.21613 -0.0619,-0.0621 -0.0564,-0.0399 c -0.003,-0.001 0.20214,0.0587 0.1196,0.0421 -0.12693,-0.0281 0.0772,0.008 -0.0851,0.0229 l -0.13534,0.0201 -0.16493,0.12453 -0.3432,0.2604 -0.16693,0.16227 -0.14614,0.19453 -0.018,0.1116 0.0277,0.0948 c 0.02,0.0953 0.0249,0.1932 0.0144,0.29013 l -0.0107,0.1688 0.0107,-0.0136 0.0527,0.238 0.0293,0.001 c 0.16626,0.19054 0.2256,0.452 0.15813,0.6956 l -0.0744,0.186 z m -7.07226,-1.73427 c 0.36066,0.0145 0.64133,0.31867 0.6268,0.67933 -0.004,0.11547 -0.0399,0.22774 -0.10214,0.3252 -0.20666,0.324 -0.45306,0.4476 -0.7228,0.5708 -0.0735,0.0335 -0.1512,0.0565 -0.23093,0.0683 -0.51253,0.0759 -1.026,-0.19667 -1.30067,-0.51107 -0.2644,-0.30266 -0.39986,-0.63266 -0.496,-0.94226 -0.0912,-0.42854 -0.1672,-0.8412 -0.0412,-1.32694 0.1704,-0.81626 0.85587,-1.25626 1.51667,-1.5168 l 1.09613,-0.12466 c 0.41174,-0.001 1.00587,-0.0303 1.612,0.19333 0.4112,0.11013 0.79734,0.4236 1.02787,0.79307 l 0.25293,0.65386 c 0.0427,0.1952 0.10707,0.49987 0.0355,0.85334 l -0.2048,0.63066 -0.3532,0.62187 -0.42893,0.4912 -0.39934,0.33467 c -0.38293,0.26893 -0.77746,0.58826 -1.39253,0.7152 l -0.8696,-0.0583 c -0.0905,-0.0261 -0.1768,-0.0653 -0.25613,-0.11627 -0.44867,-0.28813 -0.7544,-0.77706 -0.74507,-1.25973 0.007,-0.34933 0.29547,-0.62707 0.6448,-0.62027 0.13373,0.003 0.2632,0.0475 0.36973,0.12814 l 0.0223,-0.0141 c 0.0912,-0.0227 0.1852,-0.032 0.2792,-0.0277 l 0.0517,-0.007 0.7472,-0.3772 0.22774,-0.15173 0.31773,-0.2668 0.3452,-0.3172 0.0153,-0.0965 -0.0333,-0.12707 -0.0403,-0.14493 -0.13586,-0.10907 -1.0168,0.0583 -0.3596,0.122 -0.45827,0.23293 c -0.0561,0.0467 -8e-4,-0.0937 -0.0203,-0.0175 l 0.0673,0.3288 0.10026,0.39614 -0.0576,-0.0544 -0.21146,-0.0736 c 0.0809,0.003 0.1608,0.0179 0.2376,0.0435 l 0.2828,0.0199 z m 4.36613,2.79907 c 0.0468,0.078 0.0773,0.16466 0.0897,0.2548 0.0731,0.5276 -0.0527,0.40093 -0.0784,0.47106 -0.0353,0.0965 -0.0891,0.18534 -0.158,0.26147 l -0.15013,0.22267 -0.0927,0.1568 -0.0623,0.2012 c -0.15494,0.3632 -0.20254,0.58826 -0.1724,0.84106 l 0.13426,0.37934 0.22014,0.456 c -0.0213,-0.0284 -0.20667,-0.0781 -0.13027,-0.0704 0.1968,0.0367 -0.1088,0.0216 -0.084,0.0149 l 0.382,-0.29267 0.4256,-0.54613 0.0339,-0.29733 0.0269,-0.96747 0.005,-0.33973 c -0.0133,-0.0975 0.31107,0.40253 0.248,0.372 l -0.13293,-0.0275 -0.49213,-0.10413 c -0.12,-0.0312 -0.23187,-0.0879 -0.32814,-0.166 -0.16013,-0.13014 -0.35346,-0.32667 -0.43426,-0.60654 -0.10294,-0.35666 0.10266,-0.7292 0.45933,-0.83213 0.0559,-0.0161 0.11347,-0.0249 0.1716,-0.0263 l 0.0713,-0.0272 c 0.11747,-0.0399 0.24214,-0.054 0.36547,-0.0415 l 0.392,0.0239 0.6928,0.17 c 0.34147,0.1568 0.72053,0.572 0.7892,1.03907 l 0.0308,0.47973 0.007,1.15147 -0.146,0.72707 c -0.16334,0.55293 -0.5528,0.98226 -0.9676,1.35813 -0.35267,0.32933 -0.82747,0.9336 -1.7864,0.7408 -0.52934,-0.1668 -0.85654,-0.4756 -1.04707,-0.844 l -0.29133,-0.73813 -0.24587,-0.74494 c -0.11733,-0.5584 -0.0388,-1.1344 0.1284,-1.63306 l 0.1384,-0.32014 0.21747,-0.4052 0.63346,-0.53573 c 0.0892,-0.0511 0.18747,-0.0844 0.28934,-0.0983 l 0.284,-0.005 c 0.12386,0.0148 0.30066,-0.0917 0.564,0.34787 m -22.10253,-12.69254 c 0.12053,0.19614 0.12146,0.44334 0.003,0.6404 -0.0191,0.0315 0.0829,-0.20986 0.0617,-0.13946 -0.0987,0.32866 -0.44507,0.51506 -0.77387,0.4164 -0.32867,-0.0987 -0.51507,-0.44507 -0.4164,-0.77374 0.0987,-0.3288 0.44507,-0.5152 0.77373,-0.41653 0.19547,0.0587 0.34974,0.2096 0.41254,0.40373 l -0.0601,-0.1308 z m -1.27854,0.41147 c -0.012,-0.1128 10e-4,-0.22667 0.0396,-0.33347 0.1904,-0.5396 0.30774,-0.4048 0.37734,-0.45026 0.11853,-0.0773 0.25453,-0.124 0.3956,-0.136 l 0.34906,-0.0247 0.34454,-0.012 0.23026,0.008 0.2028,-0.009 c -0.012,9.3e-4 -0.17053,0.0697 -0.16413,0.0655 l 0.1252,-0.0848 0.8136,-0.2724 1.09933,-0.22866 0.3904,-0.0593 0.1124,-0.0261 c 0.10587,-0.0233 0.21427,-0.0327 0.3224,-0.0275 l 0.2872,0.012 0.55173,0.0887 -0.22573,-0.0235 0.2312,0.004 0.26813,0.0424 c 0.52987,0.12134 0.86094,0.6492 0.7396,1.17907 -0.0748,0.32667 -0.31066,0.5928 -0.626,0.7064 l -0.0672,0.0247 -0.28173,0.0755 0.21227,-0.0804 -0.298,0.1588 -0.38534,0.1672 c -0.0961,0.0395 -0.19706,0.0665 -0.3,0.0804 l -0.21413,0.0273 -0.2728,0.0436 -1.25026,0.08 -0.08,-0.004 -0.60334,0.15493 c -0.1492,0.0273 -0.4356,0.056 -0.78146,-0.0319 l -0.46854,-0.23146 -0.1556,-0.0653 -0.2564,-0.0561 c -0.13693,-0.0369 -0.26253,-0.1072 -0.36546,-0.20453 -0.0664,-0.0628 -0.23507,0.0403 -0.29654,-0.556 m -0.39506,-0.0581 c -0.12787,0.0863 -0.2892,0.12267 -0.452,0.0885 -0.1752,-0.0368 -0.32427,-0.15107 -0.40534,-0.31054 -0.1468,-0.28866 0.008,-0.72706 0.18774,-0.89146 l 0.4664,-0.26667 0.4616,-0.14387 c 0.32013,-0.1068 0.64533,-0.0356 0.7324,-0.0308 0.0739,0.004 0.14693,0.0168 0.21773,0.0381 l 0.23467,0.0416 c 0.45786,0.009 1.04213,-0.11467 1.62226,-0.24307 l 1.40773,-0.1288 c 0.6316,-0.11107 1.2164,-0.33973 1.90774,-0.61267 l 0.26666,-0.0413 1.43934,-0.67453 0.72346,-0.3068 c 0.3912,-0.0396 0.74187,-0.22774 1.2116,-0.43747 l 0.46894,-0.18253 c 0.36213,-0.0677 0.58986,-0.24614 0.93453,-0.40254 l 0.5996,-0.25226 0.52293,-0.18574 0.34267,-0.10306 0.18027,-0.0568 c 0.0965,-0.042 0.1744,-0.1092 0.22893,-0.19067 l 0.6368,-0.26787 0.25907,-0.0949 0.51413,-0.0448 0.25573,-0.0836 0.29374,-0.0839 0.36973,-0.0945 0.54253,-0.0833 0.30894,-0.0477 0.28493,-0.0261 0.29933,-0.1104 0.46054,-0.12667 0.36346,-0.0233 0.47614,-0.13987 1.15746,-0.16173 0.57574,0.0289 0.7176,-0.17533 0.51893,0.0181 0.288,-0.0107 0.3008,-0.0615 0.27053,-0.0239 0.22667,-0.004 c 0.216,0.004 0.42547,0.0745 0.59987,0.20187 l 0.71253,0.6032 c 0.23227,0.2076 0.25227,0.56427 0.0445,0.79653 -0.0992,0.11107 -0.2384,0.1784 -0.3872,0.1872 l -0.3272,0.0773 c -0.16773,0.13613 -0.37333,0.2172 -0.5888,0.23226 l -0.172,0.0249 -0.17293,0.0297 -0.1968,0.046 -0.42373,0.13413 -0.3512,0.0249 -0.46214,0.0925 -0.60093,0.0971 -0.32653,0.0233 -0.90134,0.0585 -0.22213,0.0809 c 0.0363,-0.0107 -0.0952,0.1024 -0.474,0.15053 -0.35427,0.0135 -0.1568,-0.0157 -0.276,-0.003 l -0.17867,0.009 -0.39426,0.1812 -0.2532,0.0832 -0.56534,0.10133 -0.32586,0.056 -0.28054,0.072 -0.29693,0.0833 -0.24533,0.0623 -0.32067,0.0796 -0.358,0.0721 -0.61373,0.1436 -0.62534,0.2784 -0.54453,0.16334 -0.39707,0.1088 -0.36346,0.1124 -0.58387,0.2 -0.694,0.23573 -0.3296,0.0752 -0.68133,0.1916 -0.3004,0.19053 -0.86747,0.39414 -0.2836,0.0943 -0.1748,0.0812 -0.2408,0.0903 -0.4724,0.24707 -0.2216,0.0647 c -0.26547,0.17747 -0.4204,0.2948 -0.65467,0.36467 l -0.34573,0.2712 -0.5656,0.2864 -0.9128,0.22093 -1.37746,0.0829 c -0.70187,-0.008 -1.46894,0.0169 -2.25707,-0.17947 l -0.6528,-0.2488 c -0.066,-0.0333 -0.12773,-0.0745 -0.184,-0.1224 l -0.1064,-0.0987 -0.22533,0.003 z m 4.1472,26.0816 c 0.23853,0.2648 0.23773,0.6672 -0.001,0.93094 l 0.078,-0.10694 c -0.0295,0.0508 0.10787,-0.38973 0.0865,-0.2484 -0.0604,0.4012 -0.43453,0.67747 -0.83573,0.61707 -0.40106,-0.0604 -0.67733,-0.43467 -0.61693,-0.83573 0.0604,-0.4012 0.43453,-0.67747 0.83573,-0.61707 0.27147,0.0409 0.49747,0.22987 0.586,0.48973 0.0373,0.10974 -0.10653,-0.20133 -0.0855,-0.17093 l -0.0463,-0.0587 z m -1.36707,1.28947 c -0.3972,-0.44427 -0.35907,-1.12653 0.0852,-1.52373 0.20813,-0.18614 0.4804,-0.28427 0.75933,-0.27387 0.0852,0.003 -0.1284,0.005 -0.12066,0.005 l 0.2816,-0.0605 0.93279,-0.0943 c 0.0784,-0.007 0.1572,-0.007 0.2356,10e-4 l 0.13894,0.0191 0.39853,-0.0735 2.17947,0.009 c 1.09973,0.0173 1.892,0.24094 2.47306,0.308 l 0.55427,0.0637 0.594,0.09 0.47107,0.11546 0.9936,0.20667 0.79373,0.21413 0.5388,0.17454 0.376,0.14586 0.22893,0.0285 0.5432,0.0884 c 0.22,0.0344 0.42974,0.1172 0.61387,0.24266 l 0.12493,0.0861 c 0.64494,0.46053 0.7944,1.35666 0.334,2.00146 -0.15053,0.2108 -0.35533,0.37694 -0.59266,0.4808 l -0.2004,0.082 c -0.20907,0.0757 -0.43254,0.104 -0.65387,0.0828 l -0.5872,-0.0647 -0.8092,-0.20334 -0.2664,-0.0781 -0.36813,-0.0844 -0.89654,-0.24693 -0.62853,-0.13094 -0.57067,-0.07 -0.37373,-0.0651 -0.56893,-0.0563 -2.0876,-0.3016 -2.23094,-0.32133 -0.7552,-0.1004 -0.0511,-0.005 c -0.0815,-0.009 -0.16187,-0.0273 -0.24014,-0.0521 l -0.58799,-0.1644 c -0.18267,-0.0319 -0.4844,0.17053 -1.06107,-0.4744 m 13.07893,2.0048 c -0.5648,0.28213 -1.2512,0.0531 -1.53333,-0.5116 -0.28214,-0.56467 -0.0531,-1.2512 0.5116,-1.53333 0.5648,-0.28214 1.2512,-0.0531 1.53333,0.51173 0.007,0.0137 0.0135,0.0275 0.0197,0.0415 l 0.0937,0.2928 c 0.11266,0.5756 -0.25107,1.1368 -0.8224,1.26933 -0.10254,0.0237 0.23,-0.0867 0.19733,-0.0704 m -3.0496,-1.55267 c 0.0416,-0.16306 0.11853,-0.31493 0.2256,-0.4448 0.5348,-0.6492 0.5276,-0.3724 0.6212,-0.40453 l 0.21707,-0.0688 c 0.2464,-0.076 0.50946,-0.0793 0.75773,-0.009 l 0.24507,0.0443 c 0.52306,0.0453 0.88786,0.28094 1.0648,0.38787 l 0.1568,0.0809 0.3576,0.238 0.26893,0.24774 0.6392,0.57813 0.2304,0.28853 0.35107,0.34774 0.2648,0.35973 0.324,0.44533 0.1752,0.2516 0.1496,0.21094 0.25666,0.4552 0.1248,0.2272 0.1432,0.29226 0.0631,0.1368 0.36227,0.6384 0.3752,0.9292 0.28453,0.85827 0.32413,0.85573 0.1256,0.32854 0.27854,1.02906 0.322,0.81747 0.5596,1.204 0.2732,0.67867 0.64893,1.6184 c 0.0376,0.0923 0.0653,0.18826 0.0828,0.28626 l 0.1424,0.83214 0.0745,0.33546 0.0555,0.17814 c 0.0411,0.1332 0.0568,0.2728 0.0464,0.41186 l -0.0197,0.74454 c 0.0133,0.35973 -0.2684,0.66173 -0.62814,0.67453 -0.12493,0.004 -0.24853,-0.0271 -0.356,-0.0909 l -0.76986,-0.512 c -0.11227,-0.0825 -0.20814,-0.18534 -0.28254,-0.3032 l -0.15493,-0.25067 -0.20613,-0.3076 -0.4612,-0.6692 c -0.0561,-0.0823 -0.10334,-0.17027 -0.1408,-0.26253 -0.0756,-0.33014 -0.17854,-0.62587 -0.31267,-0.9036 -0.0223,-0.0515 -0.0457,-0.1028 -0.0703,-0.15374 -0.078,-0.12453 -0.0951,-0.15346 -0.11253,-0.18213 l -0.0896,-0.2244 c -0.0381,-0.1944 -0.10813,-0.4184 -0.2368,-0.66707 l -0.60893,-1.25653 c -0.0552,-0.4236 -0.18414,-0.8484 -0.40427,-1.25627 l -0.2228,-0.756 -0.12013,-0.23653 -0.40667,-1.08893 -0.26947,-0.77334 -0.266,-0.76813 -0.20386,-0.32 -0.2304,-0.34533 c -0.0519,-0.0956 -0.11294,-0.19494 -0.18507,-0.29707 l -0.1,-0.1412 c -0.21627,-0.446 -0.4148,-0.76547 -0.67013,-1.05947 l -0.1788,-0.21733 -0.28854,-0.30427 -0.20466,-0.2496 c -0.20454,-0.2976 -0.10147,-0.19613 -0.15427,-0.24453 l -0.22387,-0.1796 -0.12413,-0.1068 c -0.0825,-0.0916 -0.10693,-0.1232 -0.1096,-0.13053 l -0.16347,-0.12814 -0.2176,0.008 c -0.2576,-0.012 -0.50626,-0.0973 -0.71653,-0.24653 l -0.2968,-0.2412 -0.226,-0.27547 c -0.0901,-0.14253 -0.34173,-0.22666 -0.1592,-0.94266 m 1.4884,2.19786 c -0.22187,-0.22333 -0.22067,-0.5844 0.003,-0.80626 0.10973,-0.10907 0.25906,-0.1688 0.4136,-0.16547 0.32893,0.007 0.53466,0.1632 0.71666,0.30107 0.0707,0.0536 0.13027,0.12026 0.17547,0.19653 l 0.3552,0.63467 0.8024,0.808 c 0.2508,0.20106 0.29107,0.56746 0.0899,0.81813 -0.20107,0.2508 -0.56734,0.29107 -0.81814,0.0899 l -1.03986,-1.07694 -0.4216,-0.3996 c -0.0679,-0.0573 -0.124,-0.12733 -0.1652,-0.20613 l -0.1112,-0.19387 z m 1.14027,-0.77733 c 0,0.36013 -0.29187,0.65213 -0.652,0.65213 -0.36014,0 -0.65214,-0.292 -0.65214,-0.65213 0,-0.36013 0.292,-0.652 0.65214,-0.652 0.36013,0 0.652,0.29187 0.652,0.652 m -0.8472,0.62213 c -0.34374,-0.10773 -0.5348,-0.47373 -0.42707,-0.81733 0.10787,-0.3436 0.47387,-0.5348 0.81747,-0.42693 0.007,10e-4 0.0133,0.004 0.0193,0.007 0.49853,0.17374 0.62227,0.53547 0.76653,0.76694 l 0.342,0.46546 0.24174,0.35854 0.16426,0.2456 0.21747,0.31026 0.11653,0.16654 0.2516,0.40586 0.16334,0.26 0.536,1.01214 0.41546,1.05333 0.4148,1.02013 c 0.258,0.58467 0.64374,1.29374 0.8796,2.1636 0.0816,0.3008 -0.0961,0.61067 -0.3968,0.69227 -0.2864,0.0776 -0.584,-0.0799 -0.68093,-0.36027 -0.24373,-0.7056 -0.62853,-1.308 -0.9532,-1.89693 l -0.49053,-1.1696 -0.39254,-0.95667 -0.4444,-0.8972 -0.15933,-0.29986 -0.186,-0.30094 -0.1148,-0.16386 -0.23187,-0.32654 -0.16,-0.23706 -0.22733,-0.304 -0.39627,-0.55774 -0.16813,-0.24746 c -0.0247,-0.0303 0.16907,0.0624 0.0831,0.0353 m 3.41026,6.1076 c -0.1004,-0.29827 0.0599,-0.62147 0.358,-0.72187 0.24867,-0.0837 0.52227,0.0133 0.66294,0.23454 l 0.5192,0.91266 0.22493,0.86107 0.2564,0.48147 0.84293,1.54986 1.30347,3.07707 c 0.1212,0.29253 -0.0179,0.628 -0.3104,0.74907 -0.2836,0.11746 -0.60933,-0.009 -0.73907,-0.28747 l -1.37226,-3.0312 -0.7376,-1.5208 -0.32054,-0.6592 -0.34173,-0.54587 z m 0.65867,0.55413 c 0.1,-0.3128 0.43453,-0.48533 0.74733,-0.38533 0.0993,0.0317 0.18854,0.0891 0.25867,0.16613 l 0.12507,0.13747 c 0.1364,0.14987 0.2008,0.35173 0.17666,0.55293 l -0.0176,0.18094 -0.032,-0.24974 0.4316,1.0348 0.63374,1.39307 0.428,0.98453 0.8292,2.0232 0.1916,0.61734 c 0.0931,0.30146 -0.076,0.62133 -0.37747,0.7144 -0.22293,0.0688 -0.46533,-0.005 -0.61227,-0.18614 l -0.36226,-0.46986 -1.02787,-2.0928 -0.40213,-1.0696 -0.55934,-1.3408 -0.36666,-1.2788 0.10106,0.2316 -0.12493,-0.1784 c -0.1148,-0.16627 -0.152,-0.37427 -0.10187,-0.57 z m 0.69293,1.67067 c 0.004,-0.3192 0.26494,-0.5752 0.58414,-0.57173 0.1524,10e-4 0.298,0.0633 0.4052,0.17186 l 0.38226,0.4512 c 0.0456,0.06 0.082,0.12654 0.108,0.19734 l 0.69827,1.96173 0.28933,0.67507 0.802,2.05 c 0.1016,0.29466 -0.0548,0.61573 -0.34933,0.71733 -0.234,0.0808 -0.49333,-4e-4 -0.63933,-0.20027 -0.29907,-0.40866 -0.76454,-0.98173 -1.23254,-1.8536 l -0.3304,-0.87253 -0.66693,-1.9676 c -0.0248,-0.0712 -0.0387,-0.1456 -0.0415,-0.2208 l -0.009,-0.538 z m -7.16493,-9.55227 c -0.0415,-0.3088 0.17533,-0.5928 0.48413,-0.63413 l 0.0419,-0.007 c 0.16747,-0.0353 0.34213,-0.004 0.48667,0.0881 l 0.66866,0.34226 0.63734,0.3524 0.85,0.64934 0.2952,0.2228 c 0.0647,0.0496 0.1208,0.10933 0.16613,0.17706 l 0.25867,0.41014 c 0.16653,0.28413 0.0713,0.64933 -0.2128,0.81586 -0.152,0.0892 -0.33574,0.10654 -0.50174,0.0473 l -0.44613,-0.1748 c -0.0751,-0.0312 -0.1444,-0.0744 -0.20547,-0.128 l -0.28826,-0.24974 -0.71747,-0.52413 -0.52587,-0.378 -0.73826,-0.49653 c -0.1328,-0.10587 -0.21934,-0.25907 -0.24134,-0.42747 l -0.0107,-0.086 z m -0.7568,0.24054 c -0.29147,-0.15374 -0.40307,-0.5148 -0.2492,-0.80627 0.0372,-0.0707 0.0884,-0.1332 0.15027,-0.18373 l 0.5672,-0.25934 c 0.1576,-0.0364 0.32266,-0.0217 0.47133,0.042 l 0.63333,0.33814 0.994,0.6172 c 0.26374,0.216 0.30227,0.60493 0.0863,0.86853 -0.21133,0.25787 -0.58907,0.30133 -0.85347,0.0983 l -0.7992,-0.45427 -0.3084,-0.009 c -0.1624,0.0107 -0.324,-0.0299 -0.46133,-0.11734 l -0.2308,-0.1344 z m 1.23213,-0.57574 c 0,0.40254 -0.3264,0.7288 -0.72893,0.7288 -0.40253,0 -0.7288,-0.32626 -0.7288,-0.7288 0,-0.40253 0.32627,-0.7288 0.7288,-0.7288 0.40253,0 0.72893,0.32627 0.72893,0.7288 m -1.09146,0.5196 c -0.2996,-0.09 -0.4696,-0.40573 -0.3796,-0.70533 0.0303,-0.1012 0.0883,-0.19173 0.16746,-0.2616 l 0.5392,-0.24773 c 0.14787,-0.0311 0.30187,-0.012 0.438,0.0535 l 0.40347,0.22934 0.36787,0.11866 0.24106,0.0797 c 0.14814,0.0444 0.1592,-0.0543 0.5092,0.17253 l -0.5604,0.98987 c -0.10746,-0.0525 0.20587,0.0548 0.17934,0.0521 l -0.3036,-0.0143 -0.77574,-0.27226 -0.25106,-0.0884 -0.1208,-0.009 c 0.15266,-0.008 0.41293,-0.13626 0.34933,-0.092 l 0.1168,-0.108 0.0732,-0.10973 c -0.0267,0.0505 0.0884,-0.3844 0.0739,-0.2444 -0.0391,0.37627 -0.37574,0.64973 -0.75214,0.61067 -0.37626,-0.0391 -0.64973,-0.37574 -0.61066,-0.75214 0.0391,-0.3764 0.37573,-0.64973 0.75213,-0.61066 0.25387,0.0263 0.472,0.1916 0.56613,0.4288 0.0419,0.10573 -0.10906,-0.1844 -0.0888,-0.15787 0.0584,0.0769 -0.07,-0.0771 -0.0684,-0.0756 l 0.044,0.0389 0.0908,8e-4 0.25667,0.1012 0.53467,0.2172 c 0.0137,0.003 -0.13667,-0.21173 0.43026,0.0591 0.284,0.1356 0.40427,0.47573 0.2688,0.75973 -0.12413,0.25974 -0.42253,0.38627 -0.69546,0.29467 l -0.3272,-0.0696 -0.33227,-0.0973 -0.4708,-0.21654 -0.0549,0.0496 c -0.1492,0.0317 -0.30467,0.0133 -0.44187,-0.0539 z m 1.07533,-0.67213 c 0.0843,0.3936 -0.16667,0.78093 -0.56027,0.8652 -0.3936,0.0843 -0.78093,-0.16653 -0.8652,-0.56013 -0.0287,-0.13427 -0.0189,-0.27387 0.0283,-0.40294 0.17587,-0.48093 0.44067,-0.44106 0.51493,-0.45906 0.468,-0.11334 0.38654,-0.0193 0.56334,0.0107 0.58666,0.094 0.97093,0.4248 1.3392,0.63627 l 0.47453,0.32413 0.2536,0.1864 0.3024,0.28027 c -0.0861,-0.0964 -0.0963,-0.44573 0.196,0.1752 0.13787,0.29413 -0.0689,0.6164 -0.17173,0.6944 -0.42654,0.3232 -0.44334,0.13947 -0.62294,0.11587 l -0.38733,-0.186 c -0.23147,-0.2084 -0.25027,-0.5652 -0.0417,-0.79667 0.20853,-0.2316 0.5652,-0.25027 0.7968,-0.0419 l -0.0519,-0.0372 c 0.0336,0.0197 -0.24413,-0.0673 -0.1656,-0.0565 l 0.0281,0.003 -0.0787,0.0175 c 0.0304,-0.009 -0.242,0.14627 -0.15827,0.0829 0.0473,-0.0359 -0.2244,0.33013 -0.16973,0.21133 0.0591,-0.128 0.0681,0.6152 10e-4,0.47333 -0.0427,-0.0908 0.16987,0.20947 0.1328,0.17707 -0.0572,-0.0501 0.10173,0.0687 0.0925,0.064 l -0.1884,-0.10787 -0.0537,0.024 -0.33107,-0.0987 -0.51773,-0.24387 -0.89907,-0.4708 -0.0927,-0.005 0.0837,-0.0136 c -0.0325,0.007 0.26427,-0.11027 0.1712,-0.0621 -0.0525,0.0271 0.3064,-0.2752 0.2164,-0.17066 -0.0487,0.0563 0.1748,-0.35027 0.1384,-0.2424 -0.0379,0.11186 -0.007,-0.51654 0.0221,-0.38534 m -0.2624,0.1024 c 0,0.37827 -0.30666,0.68494 -0.68493,0.68494 -0.37827,0 -0.6848,-0.30667 -0.6848,-0.68494 0,-0.37813 0.30653,-0.6848 0.6848,-0.6848 0.37827,0 0.68493,0.30667 0.68493,0.6848 m -0.13066,-0.338 c 0.22133,0.22254 0.2204,0.5824 -0.003,0.80374 -0.0785,0.0781 -0.17813,0.13146 -0.28667,0.15373 l 0.0723,-0.0311 c -0.0329,0.0172 0.3028,-0.2888 0.18467,-0.14933 -0.23627,0.2784 -0.65334,0.31267 -0.93174,0.0765 -0.27853,-0.23613 -0.3128,-0.65333 -0.0767,-0.93173 0.23626,-0.2784 0.65333,-0.31267 0.93173,-0.0765 0.204,0.17293 0.2836,0.45186 0.20173,0.7064 -0.0375,0.1168 0.0289,-0.27147 0.0308,-0.22107 0.007,0.15733 -0.10106,-0.30907 -0.0747,-0.2648 l -0.0493,-0.0659 z m -1.0496,0.65107 c -0.0575,-0.0791 -0.0951,-0.17053 -0.10974,-0.26707 -0.1012,-0.66506 0.2448,-0.61786 0.36694,-0.68493 0.85826,-0.2728 1.2352,0.0764 1.69253,0.2224 l 0.23387,0.074 0.70093,0.38547 0.65027,0.71906 c 0.1536,0.2808 0.0507,0.63294 -0.23014,0.78654 -0.1024,0.056 -0.2192,0.0799 -0.33533,0.0683 l -0.62547,-0.0797 -0.7064,-0.23347 -0.378,-0.208 -0.89693,-0.52226 c -0.15627,-0.0763 -0.14333,0.0407 -0.36253,-0.26027 m -0.0199,0.21027 c -0.30027,-0.21187 -0.37187,-0.62707 -0.16,-0.92734 0.15373,-0.218 0.42267,-0.32293 0.68347,-0.26693 l 0.59253,0.17827 -0.41187,-0.012 0.11627,-0.0289 c 0.17667,-0.0401 0.36173,-0.018 0.524,0.0627 0.67467,0.3356 1.5048,0.63947 1.97507,1.05547 0.2588,0.22893 0.28306,0.6244 0.054,0.8832 -0.16507,0.18666 -0.42547,0.2576 -0.6624,0.18026 l -1.96134,-0.66853 c -0.1732,-0.0568 -0.32133,-0.172 -0.41906,-0.326 l -0.0639,-0.1052 0.30453,0.28573 -0.57133,-0.3104 z m -0.19787,-1.03867 c 0.16334,-0.17827 0.41067,-0.25373 0.64574,-0.19707 0.1244,0.03 -0.3308,0.005 -0.27814,-0.005 0.12947,-0.0261 -0.0513,0.0107 0.0191,-0.012 l 0.31973,-0.0827 c 0.10547,-0.0193 0.2136,-0.0191 0.31907,5.4e-4 l 0.9552,0.34666 0.5876,0.30827 c 0.59,0.47933 0.9828,0.79653 1.18613,1.2268 0.13307,0.28173 0.012,0.61813 -0.2692,0.7512 -0.0989,0.0468 -0.20946,0.0637 -0.318,0.0488 -0.42213,-0.0581 -0.83093,-0.2804 -1.31773,-0.45213 l -0.62933,-0.32627 -0.48707,-0.17387 c -0.106,-0.016 -0.20813,-0.0513 -0.30133,-0.10426 l -0.36707,-0.2592 c -0.17867,-0.17854 -0.2604,-0.8556 -0.0647,-1.0692 m -0.43146,1.2972 c -0.40587,-0.1772 -0.59134,-0.64987 -0.41414,-1.05574 0.11267,-0.25786 0.352,-0.43786 0.63107,-0.47426 l 0.3208,-0.0133 0.91693,0.24174 0.4828,0.14226 c 0.0913,0.0289 0.17707,0.0728 0.25387,0.12987 l 0.4284,0.3336 0.62987,0.37987 c 0.27786,0.20746 0.33506,0.6008 0.1276,0.87866 -0.1724,0.23107 -0.48014,0.31507 -0.746,0.20347 l -0.6708,-0.23693 -0.33347,-0.009 c -0.0955,-0.005 -0.18933,-0.0272 -0.27773,-0.0639 l -0.45094,-0.1776 -0.56586,-0.152 -0.3324,-0.12654 z m -44.17453,-19.40027 c 0.0371,0.0867 0.17626,0.18787 -0.0829,0.59173 l -0.0699,0.6244 -0.0297,0.28734 -0.0107,0.20866 -0.0229,0.17654 c -0.0107,0.0675 0.316,0.0705 -0.32453,0.60946 -0.31413,0.26427 -0.75707,0.2748 -1.09747,0.0311 -0.12906,0.004 -0.26426,-0.0156 -0.3888,-0.0723 -0.56813,-0.25853 -0.50413,-0.56386 -0.524,-0.6664 -0.0883,-0.45653 -0.007,-0.36173 0.008,-0.46213 0.001,-0.0871 -0.003,-0.12293 -0.005,-0.15907 -0.005,-0.11586 0.005,-0.2144 0.0311,-0.31106 l 0.0813,-0.50507 c 0.0107,-0.0379 -0.009,-0.2288 0.1012,-0.4956 -0.0187,-0.21293 0.0315,-0.3216 0.0549,-0.48613 0.008,-0.056 0.0205,-0.1104 0.0369,-0.16267 l 0.15,-0.68547 0.19093,-0.9184 0.14533,-0.3584 0.0648,-0.2336 0.1096,-0.39466 0.0687,-0.2476 0.1564,-0.374 0.0867,-0.16374 c -0.0331,-0.11773 -0.0179,-0.1648 -0.003,-0.1988 l 0.02,-0.3116 0.57587,-1.4156 0.13613,-0.4008 0.15387,-0.2992 0.9632,-1.45813 0.31706,-0.49067 0.56494,-0.69973 0.77133,-0.99773 0.0912,-0.12014 c 0.2024,-0.18733 0.3892,-0.38613 0.56333,-0.5844 l 1.034,-0.7516 0.95027,-0.71466 0.68773,-0.4308 1.102,-0.7824 0.64094,-0.32947 c 0.0995,0.0107 0.19506,0.0345 0.28533,0.0688 0.16573,0.0628 0.31307,0.162 0.43267,0.2872 0.1196,0.12533 0.21186,0.27707 0.26693,0.4456 0.0377,0.1152 0.058,0.238 0.0579,0.3652 -0.007,0.18147 -0.0329,0.3032 -0.076,0.41653 -0.0628,0.16587 -0.162,0.31307 -0.28734,0.43267 -0.0747,0.0715 -0.1588,0.13307 -0.2504,0.1828 -0.0989,0.1384 -0.2308,0.25533 -0.39013,0.3376 -0.18627,0.38627 -0.23267,0.19747 -0.30587,0.25773 l -0.28706,0.2128 -0.26867,0.0968 c -0.1164,0.11187 -0.2216,0.0823 -0.2692,0.11334 -0.21533,0.1512 -0.3192,0.22986 -0.45107,0.28146 l -0.388,0.18467 -0.19973,0.19013 -0.3408,0.30614 -0.3856,0.37786 c 0.0195,0.3336 -0.11027,0.6724 -0.38173,0.90894 l -0.8436,1.0424 -0.2276,0.31986 -0.5672,0.81787 c -0.1092,0.31067 -0.2608,0.76613 -0.632,1.19933 l -0.3576,0.9176 -0.12307,0.27614 -0.14587,0.36733 -0.0897,0.1264 -0.2184,0.8132 -0.15133,0.4908 c -0.0248,0.1492 -0.0696,0.3176 -0.15427,0.50067 l -0.12,0.33626 -0.1608,0.63267 -0.0947,0.37533 -0.0639,0.2584 -0.11067,0.21227 z m 7.03933,-11.54227 c -0.50213,0.28747 -1.15133,0.1628 -1.50813,-0.31146 -0.23707,-0.31534 -0.28987,-0.712 -0.17667,-1.0608 l 0.202,-0.1264 0.9524,-0.67627 c 0.1856,-0.0667 0.27987,-0.10147 0.37747,-0.12387 l 0.22893,-0.0465 0.3084,-0.0313 c 0.10293,-0.007 0.20613,8e-4 0.30707,0.0219 0.6664,0.1116 1.02346,0.45987 1.10386,0.91494 0.042,0.13706 0.0392,0.27373 -0.004,0.39866 -0.0825,0.42174 -0.4084,0.75814 -0.8312,0.8516 -0.12413,0.0551 -0.20213,0.0791 -0.282,0.0948 l -0.31213,0.0664 c -0.0976,0.0223 -0.1976,0.0319 -0.36627,0.0284 m 43.20253,-4.79986 c 0.3276,0.1184 0.49707,0.47986 0.37867,0.80746 -0.008,0.0225 -0.0176,0.0447 -0.0283,0.0663 l 0.0233,-0.0563 c -0.0107,0.032 0.0352,-0.3536 0.0344,-0.20466 -0.003,0.37133 -0.30467,0.67053 -0.676,0.66853 -0.3712,-10e-4 -0.67054,-0.30467 -0.6684,-0.676 0.003,-0.3712 0.30466,-0.67053 0.67586,-0.6684 0.25934,10e-4 0.49467,0.15187 0.6048,0.38653 0.0837,0.1784 -0.26733,-0.2932 -0.21053,-0.25306 z m 0.78667,0.28306 c 0.17107,0.61454 -0.18853,1.2512 -0.80293,1.42227 -0.5888,0.16387 -1.20334,-0.15933 -1.40187,-0.73747 -0.14973,-0.43573 -0.0428,-0.66266 0.008,-0.80786 0.14133,-0.42227 0.284,-0.4832 0.36053,-0.57 0.04,-0.0479 -0.0741,0.1012 -0.0529,0.0625 l 0.18373,-0.2952 0.3292,-0.37347 0.1268,-0.156 0.10907,-0.15733 0.5328,-0.52773 1.10747,-0.71534 c 0.41933,-0.21413 1.01746,-0.49906 1.72653,-0.70373 l 0.8484,-0.17147 0.4156,-0.1096 1.2636,-0.2152 1.02787,2.7e-4 0.7884,0.15813 0.972,0.20507 0.74626,0.246 0.62547,0.40987 0.1504,0.1396 0.11587,0.0968 0.23653,0.18733 c 0.13333,0.11453 -0.0179,-0.0107 -0.0144,-0.008 l 0.0993,0.066 0.23707,0.1604 c 0.51547,0.3496 0.67587,0.84613 0.77827,1.09653 l 0.14133,0.31947 0.0929,0.14813 0.12707,0.2112 0.1008,0.15934 0.1024,0.15653 c 0.0424,0.0653 0.0788,0.1344 0.10853,0.2064 l 0.0843,0.2096 0.0843,0.2424 -0.0251,-0.0825 0.0732,0.1664 0.0325,0.0717 0.08,0.23493 c 0.13987,0.47534 -0.0207,0.988 -0.4068,1.2984 -0.2428,0.24294 -0.58306,0.33574 -0.9036,0.25334 -0.0344,-0.009 0.2568,0.0133 0.17627,0.0159 -0.49413,0.0157 -0.94907,-0.2676 -1.1528,-0.718 l -0.0288,-0.0611 -0.0673,-0.1616 -0.0585,-0.12427 0.0175,0.0609 -0.11573,-0.16013 c -0.0449,-0.0612 -0.0843,-0.12627 -0.1176,-0.1944 l -0.0843,-0.16987 -0.0895,-0.17146 -0.1068,-0.2044 -0.20066,-0.4568 -0.11467,-0.4528 -0.0444,-0.0873 c -0.003,-0.005 0.21587,0.19107 0.13133,0.13227 l -0.10146,-0.0571 -0.17787,-0.0807 -0.35373,-0.25267 -0.4736,-0.508 -0.1216,-0.21987 c -0.003,-0.005 0.10293,0.14534 0.0559,0.084 l 0.14467,0.1564 0.10747,0.0627 -0.23707,-0.007 -1.23333,-0.21333 -0.4284,-0.12173 -0.44854,0.0617 -1.03466,0.16027 -0.63014,0.094 -0.51,0.104 -1.3224,0.53786 -0.61013,0.42854 -0.19587,0.14693 -0.2472,0.26573 -0.28266,0.2564 -0.1512,0.1292 -0.24214,0.32 -0.0177,0.0196 0.0347,-0.0471 c -0.0209,0.0312 0.12253,-0.25187 0.0872,-0.16547 -0.0139,0.0352 0.0795,-0.32547 0.0635,-0.22627 -0.0175,0.10734 -0.086,-0.6856 -0.0271,-0.47373 m -43.254,2.45293 c -0.0476,0.0179 -0.0969,0.0312 -0.14707,0.04 l -0.4572,-0.0397 c -0.35,-0.11947 -0.59453,-0.4368 -0.62093,-0.8056 -0.0227,-0.31733 0.0428,-0.58813 0.14773,-0.84053 l 0.3236,-0.52454 0.33187,-0.39266 0.3676,-0.36614 0.25427,-0.2572 0.17666,-0.21826 0.35707,-0.43227 0.30347,-0.24013 0.426,-0.2656 0.62626,-0.23467 0.698,-0.20053 1.35654,-0.40654 1.10986,-0.29093 0.6272,-0.12107 1.14307,-0.0931 0.6168,0.007 0.39213,0.0559 0.6048,0.22773 0.3132,0.0471 0.5404,0.0992 0.29294,0.0943 0.22253,0.0804 c 0.4824,0.31706 0.57747,0.57533 0.6236,0.69906 0.0383,0.10254 -0.0399,-0.0664 0.005,0.0276 0.07,0.14107 -0.29066,-0.33853 -0.23853,-0.3 l 0.44867,0.2312 0.63773,0.72094 c 0.34453,0.53053 0.40067,1.04266 0.50627,1.31146 l 0.0287,0.0589 0.0228,0.0327 0.0195,0.0203 c 0.22133,0.19787 0.35627,0.4748 0.37587,0.77107 l 0.0135,0.0192 c 0.20347,0.33506 0.0967,0.7716 -0.23853,0.97506 -0.0289,0.0175 -0.0591,0.0331 -0.0903,0.0463 l -0.82573,0.1688 c -0.29693,-0.003 -0.5812,-0.12093 -0.79173,-0.33053 l -0.2524,-0.29427 -0.2032,-0.3268 -0.15494,-0.35347 -0.31546,-0.9864 0.009,0.0311 -0.27867,-0.17773 c -0.17266,-0.10667 -0.50893,-0.2896 -0.68426,-0.79814 l -0.0497,-0.17533 c -0.005,-0.0204 0.092,0.21173 0.0551,0.13893 -0.0404,-0.08 0.35373,0.3952 0.2328,0.29307 l -0.1136,-0.12147 0.18933,0.1136 c -0.0956,-0.0443 0.0963,0.0365 4e-4,0.009 l -0.29146,-0.0429 -0.74187,-0.17413 -0.35347,-0.166 -0.0988,-0.009 -0.3356,0.007 -1.06133,0.0555 -0.46747,0.0221 -0.89533,0.24227 -1.3664,0.38987 -0.72533,0.2264 -0.27627,0.08 -0.21107,0.136 -0.0932,0.0603 -0.27146,0.26107 -0.26134,0.28253 -0.2928,0.29014 -0.2864,0.2848 -0.2256,0.2776 -0.0571,0.0845 -0.0148,0.009 c 0.0341,0.36827 -0.15547,0.7212 -0.48134,0.89627 l -0.12893,0.0597 z m -2.08773,10.2732 c 0.3008,-0.33546 0.81666,-0.36346 1.15213,-0.0627 0.11213,0.10053 0.19427,0.23026 0.2372,0.3748 l 0.0877,0.2908 0.0544,0.49453 -0.012,0.37733 -0.0135,0.48547 -10e-4,0.20827 v 0.3456 c 0.0149,0.49106 0.0597,1.0844 -0.10493,1.7136 -0.13307,0.50853 -0.6532,0.81293 -1.16173,0.67986 -0.50854,-0.1332 -0.81294,-0.65333 -0.67987,-1.16173 0.005,-0.0216 0.012,-0.0429 0.0192,-0.064 l 0.1148,-1.19467 -4e-4,-0.3268 -10e-4,-0.21693 -0.0139,-0.48613 -0.012,-0.24814 0.0179,-0.37853 c 0.0595,-0.3276 0.0323,-0.51053 0.31933,-0.83067 m 1.48827,-0.12786 c 0.0307,0.11586 0.0265,0.23813 -0.012,0.3516 -0.1608,0.47146 0.0147,-0.0779 -0.0553,0.0939 l 0.0481,-0.20613 v -0.0592 c 10e-4,0.0317 -0.0543,-0.258 -0.0271,-0.16373 0.11027,0.38173 -0.10987,0.78053 -0.4916,0.89066 -0.38173,0.11027 -0.78053,-0.10986 -0.89067,-0.4916 -0.11026,-0.38173 0.10987,-0.78053 0.4916,-0.8908 0.284,-0.0819 0.5892,0.0181 0.76947,0.25227 0.102,0.1324 -0.2052,-0.18013 -0.17093,-0.15813 l -0.0784,-0.0425 -0.2136,-0.0555 0.1572,0.0261 c 0.0875,0.0229 0.31506,-0.14213 0.47346,0.45307 m -0.26866,0.828 c -0.3252,0.27773 -0.81387,0.2392 -1.0916,-0.086 -0.14547,-0.1704 -0.21014,-0.39547 -0.17694,-0.6172 0.0953,-0.63854 0.52174,-0.6356 0.63694,-0.6592 l 0.2452,-0.0195 0.34986,-0.0107 1.00387,-0.009 0.45867,-9.3e-4 0.3188,0.0107 0.29546,0.012 0.2804,0.0316 0.69387,0.0732 c 0.42427,-0.0213 0.7856,0.30547 0.8068,0.72987 0.0211,0.41907 -0.29773,0.7776 -0.7164,0.806 l -0.9736,-0.0616 -0.17013,-0.0185 -0.22907,0.0107 -0.27773,0.009 -0.48694,-5.4e-4 -0.95546,0.0157 -0.27614,-0.004 -0.2888,-0.0311 0.1124,8e-4 0.15147,-0.0263 c -0.0744,0.0209 0.39947,-0.24893 0.28907,-0.15466 m 4.3728,-4.48934 c -0.0839,0.31827 -0.40987,0.5084 -0.72827,0.42454 -0.21733,-0.0572 -0.38387,-0.23174 -0.43107,-0.45147 l -0.0323,-0.13027 0.0167,0.0368 0.0489,0.0781 0.0619,0.072 c -0.0308,-0.0311 0.26547,0.17786 0.16507,0.12346 -0.35,-0.18946 -0.48013,-0.62693 -0.29067,-0.97693 0.1896,-0.35 0.62694,-0.48013 0.97707,-0.29067 0.35,0.1896 0.48013,0.62694 0.29053,0.97707 -0.1108,0.20467 -0.3136,0.3432 -0.54453,0.372 -0.1288,0.016 0.2852,-0.0981 0.23587,-0.0727 -0.0852,0.0439 0.192,-0.14653 0.16,-0.11506 -0.0956,0.094 0.0968,-0.12974 0.096,-0.12774 z m -1.33374,-0.45386 c -0.0217,-0.43667 0.31467,-0.80827 0.75134,-0.83 0.32906,-0.0163 0.63386,0.17293 0.7652,0.4752 0.1684,0.38733 0.0855,0.452 0.0909,0.55453 l -0.0379,0.74693 -0.11573,0.92134 -0.0612,1.13333 c -0.0608,0.77373 -0.016,1.33747 -0.49307,1.8032 -0.27506,0.26853 -0.71573,0.2632 -0.98426,-0.012 -0.22227,-0.2276 -0.26187,-0.57693 -0.0963,-0.84853 l -0.007,-0.11627 -0.001,-0.85067 0.0821,-1.28426 0.072,-0.84587 0.008,-0.59333 0.0275,-0.25374 z m 1.57494,-0.85054 c 0.20186,0.19947 0.23986,0.51174 0.0916,0.75374 l 0.0463,-0.0939 c -0.0164,0.0425 0.0441,-0.31587 0.0404,-0.20133 -0.0107,0.3492 -0.30333,0.6232 -0.65266,0.612 -0.3492,-0.0107 -0.6232,-0.30334 -0.612,-0.65267 0.0107,-0.3492 0.30346,-0.6232 0.65266,-0.612 0.25294,0.008 0.4768,0.16627 0.56894,0.402 0.0669,0.17133 -0.16427,-0.23653 -0.1352,-0.20787 m -0.78227,-0.21373 c 0.25627,-0.1072 0.55107,-0.0592 0.76013,0.12373 0.12947,0.11334 -0.29266,-0.1568 -0.25146,-0.14333 0.1112,0.0364 -0.10054,-0.0247 -0.098,-0.0243 0.0816,0.003 0.15746,0.0147 0.23026,0.0373 l 0.9496,8e-4 2.39027,0.19186 c 0.42427,0.026 0.7472,0.39107 0.7212,0.81534 -0.0255,0.41413 -0.37427,0.73346 -0.78893,0.7224 l -2.26747,-0.11707 c -0.42867,-0.005 -0.94413,0.0633 -1.51387,-0.158 -0.0729,-0.0284 -0.1412,-0.0677 -0.2024,-0.11667 l -0.0325,-0.0187 -0.1768,-0.16334 -0.15573,-0.33253 c -0.0415,-0.21347 0.12386,-0.68707 0.43573,-0.8176 m 4.9852,1.3296 c 0,0.45707 -0.3704,0.8276 -0.82747,0.8276 -0.45706,0 -0.8276,-0.37053 -0.8276,-0.8276 0,-0.45707 0.37054,-0.8276 0.8276,-0.8276 0.45707,0 0.82747,0.37053 0.82747,0.8276 m -1.6472,-0.114 c 0.0631,-0.4528 0.48107,-0.76867 0.93373,-0.7056 0.45267,0.0629 0.76867,0.48093 0.7056,0.9336 -9.3e-4,0.007 -0.003,0.0145 -0.003,0.0217 l -0.0187,0.45654 -0.004,0.27053 -0.0885,0.4904 -0.0304,0.38213 c -0.0923,1.02534 -0.0659,1.94054 -0.24894,2.7456 -0.0935,0.41107 -0.50266,0.66854 -0.91373,0.57507 -0.40453,-0.092 -0.66147,-0.49013 -0.5788,-0.89667 l 0.1752,-2.55746 0.0316,-0.46774 -0.004,-0.25066 0.0184,-0.35747 0.0259,-0.64 z m 1.0384,3.80173 c 0.31933,0.10214 0.49533,0.4436 0.39333,0.7628 -0.0599,0.18694 -0.20626,0.33347 -0.39333,0.3932 l 0.0643,-0.0281 0.0905,-0.0607 0.0761,-0.0743 c -0.0316,0.0368 0.15654,-0.30974 0.11387,-0.194 -0.122,0.33186 -0.48987,0.50186 -0.8216,0.37986 -0.33187,-0.122 -0.50187,-0.49 -0.37987,-0.82173 0.122,-0.33173 0.48987,-0.50187 0.82174,-0.37987 0.17613,0.0648 0.31493,0.20374 0.37973,0.37987 0.0427,0.11573 -0.14547,-0.2308 -0.11387,-0.194 0.096,0.11147 -0.21426,-0.15867 -0.1812,-0.1424 z m -0.9972,0.9608 c -0.12107,-0.2408 -0.12107,-0.5248 0,-0.7656 0.15413,-0.3064 0.25627,-0.31373 0.32907,-0.362 0.11453,-0.0761 0.2452,-0.1248 0.3816,-0.14213 l 0.32786,-0.0313 2.402,0.0467 c 0.0841,0.004 0.16707,0.0204 0.2464,0.0483 l 0.2372,0.0851 c 0.41347,0.15146 0.62574,0.60946 0.47427,1.0228 -0.088,0.24 -0.28573,0.42333 -0.53173,0.4928 l -0.22814,0.0649 c -0.0804,0.0232 -0.16373,0.0345 -0.24746,0.034 l -2.252,0.0452 -0.4284,-0.0345 c -0.1364,-0.0173 -0.26707,-0.066 -0.3816,-0.142 -0.0728,-0.0484 -0.17494,-0.0557 -0.32907,-0.36214 m -7.83387,4.738 c -0.4696,-0.0647 -0.798,-0.49786 -0.73333,-0.96746 0.0608,-0.442 0.45,-0.7636 0.89547,-0.74027 l 0.81813,0.032 0.8396,0.0283 1.69733,0.24026 c 0.39494,0.0625 0.6644,0.4332 0.602,0.82814 -0.0499,0.31533 -0.30026,0.56066 -0.61653,0.60413 l -1.65653,0.13827 -0.96454,-0.0635 z m 3.08854,-0.41786 c -0.0815,-0.40094 0.1776,-0.792 0.57853,-0.87334 0.35707,-0.0725 0.71373,0.12534 0.84133,0.46654 l 0.13067,0.69146 -0.0415,0.48534 -0.0427,0.75266 -0.0787,0.612 -0.1444,1.50774 c -0.0237,0.34226 -0.3204,0.60066 -0.6628,0.57693 -0.30667,-0.0213 -0.55173,-0.2636 -0.5764,-0.57 l -0.0853,-1.62427 -6.7e-4,-0.54066 0.0525,-0.87054 0.0305,-0.31666 z m 5.24853,3.5888 c 0,0.48826 -0.39587,0.88413 -0.88427,0.88413 -0.48826,0 -0.88413,-0.39587 -0.88413,-0.88413 0,-0.48827 0.39587,-0.88414 0.88413,-0.88414 0.4884,0 0.88427,0.39587 0.88427,0.88414 m -4.4172,0.61933 c -0.37253,-0.1652 -0.54067,-0.6012 -0.37547,-0.97387 0.0864,-0.19493 0.2528,-0.34293 0.45654,-0.40586 l 0.25173,-0.0749 1.04747,-0.0912 0.68373,0.0536 0.92293,-0.0421 0.33694,0.0176 0.1524,0.0145 0.0523,-0.001 c 0.4884,-0.003 0.88614,0.39147 0.88867,0.87974 0.003,0.4884 -0.3916,0.88613 -0.87987,0.88853 -0.0705,4e-4 -0.1408,-0.008 -0.20946,-0.024 l -0.1596,-0.0409 -0.0788,-0.0133 -0.13054,-0.012 -0.94026,0.0313 -0.45347,0.0639 -1.12693,-0.1132 -0.43827,-0.1568 z m 3.4136,-4.20267 c 0.0772,-0.42786 0.48667,-0.712 0.91453,-0.6348 0.39014,0.0704 0.66707,0.41987 0.64627,0.81587 l 0.0159,0.3688 0.0107,1.00533 -0.0175,0.67534 -0.15614,1.1232 -0.0285,0.21266 c 0.0277,0.194 -0.0145,0.39174 -0.11947,0.55734 l -0.19013,0.21813 c -0.0801,0.0647 -0.17227,0.1128 -0.27093,0.14173 -0.50054,0.1464 -0.6312,-0.0619 -0.75387,-0.16173 -0.15253,-0.124 -0.2556,-0.2984 -0.29067,-0.49173 l 0.012,-0.69947 0.10854,-0.98533 0.05,-0.64974 0.0357,-0.91013 0.0337,-0.58547 z m 0.23453,-0.29666 c 0.008,-0.12187 0.0371,-0.24147 0.0873,-0.35267 l 0.0133,-0.0277 c 0.23827,-0.48854 0.82027,-0.70134 1.31747,-0.48147 l 0.59253,0.0572 0.43107,-0.0452 1.01226,-0.0372 0.84414,0.24373 c 0.3704,0.1588 0.542,0.588 0.3832,0.9584 -0.10494,0.2448 -0.3348,0.41294 -0.59974,0.4388 l -0.5516,0.0605 -0.90213,0.0405 -0.53053,0.094 -1.14054,0.12347 c -0.5368,-0.028 -0.95773,-0.47107 -0.9584,-1.0084 l 0.003,-0.064 z m 5.14707,-0.18094 c 0,0.42787 -0.3468,0.77454 -0.77453,0.77454 -0.42774,0 -0.7744,-0.34667 -0.7744,-0.77454 0,-0.42773 0.34666,-0.7744 0.7744,-0.7744 0.42773,0 0.77453,0.34667 0.77453,0.7744 m -1.35533,-4.67306 c 0.19146,-0.2768 0.57106,-0.346 0.848,-0.15454 0.0581,0.0403 0.1088,0.0904 0.14986,0.148 l 0.12974,0.19267 c 0.07,0.10973 0.11,0.23587 0.11573,0.36587 l 0.0503,1.18466 0.0157,2.77667 -0.0361,-0.20987 0.0376,0.1108 c 0.14293,0.4032 -0.068,0.84587 -0.4712,0.9888 -0.40307,0.14294 -0.84574,-0.068 -0.9888,-0.47106 -0.05,-0.14147 -0.058,-0.29427 -0.0229,-0.44014 l 0.0287,-0.12293 -0.0167,0.21213 -0.10853,-2.7908 0.0307,-1.22813 c 0.004,-0.13013 0.0423,-0.25693 0.1108,-0.3676 z m 18.67706,-5.95883 c 1.69626,0.004 2.85066,-1.29734 4.64693,-2.32307 2.78986,-1.5368 6.0188,-2.30067 8.69066,-3.35293 3.18627,-1.25814 7.57814,-2.06374 11.06307,-0.8864 2.7452,0.93666 4.5896,3.17666 5.8396,5.716 1.2636,2.56693 2.05693,5.50666 2.92293,8.37613 1.9328,6.47893 1.06854,13.0696 1.50854,18.73907 0.39146,4.86066 -0.20987,9.89133 -1.35187,14.31693 -0.86387,3.29627 -2.60507,5.9796 -5.14987,7.49733 -2.39586,1.4776 -5.45373,0.77654 -7.43706,-0.84 -1.52854,-1.27413 -2.71627,-3.148 -3.7404,-5.26613 -0.0257,-0.55067 -0.16334,-1.07227 -0.3904,-1.54227 -0.0223,-0.0515 -0.0457,-0.1028 -0.0703,-0.15373 -0.0999,-0.1628 -0.14053,-0.22907 -0.18307,-0.294 -0.0472,-0.32627 -0.1796,-0.75013 -0.5496,-1.24387 0.0765,0.0519 0.0917,0.005 -0.31266,-0.77266 -0.0632,-0.50627 -0.23147,-1.0144 -0.53427,-1.494 -0.0653,-0.2656 -0.17907,-0.59094 -0.37267,-0.98147 -0.0239,-0.0483 -0.0464,-0.0931 -0.0676,-0.13493 -0.0195,-0.0609 -0.044,-0.1356 -0.10506,-0.31867 -0.036,-0.1168 -0.0773,-0.23227 -0.12414,-0.3456 -0.0549,-0.31547 -0.15813,-0.66333 -0.336,-1.03653 0.27254,0.23426 0.55454,0.4584 0.84947,0.66986 1.7988,1.31907 3.5584,2.85587 4.5112,5.12574 1.0304,2.3928 2.26413,4.434 3.40827,5.40893 1.08093,0.94173 2.91826,1.3276 3.988,0.7136 1.7712,-1.052 3.0968,-2.97467 3.82093,-5.7208 1.10813,-4.13907 1.70827,-8.89027 1.38493,-13.38107 -0.45133,-6.01933 0.36107,-12.3576 -1.3568,-18.16586 -0.84986,-2.90734 -1.6036,-5.73214 -2.69186,-7.99934 -1.04987,-2.18693 -2.38787,-3.77213 -4.29827,-4.44653 -2.4736,-0.88173 -6.58773,-0.32773 -9.358,0.71347 -2.8788,1.0852 -6.0192,1.80506 -8.45467,3.1004 l -1.15586,0.70986 -0.18534,0.0591 -0.3492,0.0331 -0.6176,0.1484 -1.22053,0.37693 -0.71307,0.29067 -0.23733,0.0317 -0.38387,0.0893 c -0.27946,0.0359 -0.56026,0.1024 -0.86679,0.18947 -0.0504,-6.7e-4 -0.10174,0.005 -0.1528,0.0204 l -0.22014,0.0821 c -0.15253,0.0367 -0.30573,0.0716 -0.45786,0.10427 -0.116,-0.004 -0.18667,0.008 -0.25134,0.0333 -1.0764,-0.0631 -2.0104,-0.036 -2.9268,0.012 -0.18493,0.009 -0.37026,-0.005 -0.55066,-0.0471 l -1.47387,-0.32734 -1.85467,-0.42906 -1.90813,-0.58267 -2.58693,-1.04533 c -2.64867,-1.3012 -6.31574,-2.22534 -9.29707,-2.51387 -1.51453,-0.1452 -2.8788,0.022 -4.13867,0.4428 l -0.2856,0.0267 c -0.0876,0.008 -0.16826,0.0369 -0.2376,0.0813 l -0.78293,0.1676 c -0.12933,0.0535 -0.26267,0.11107 -0.39587,0.1928 l -0.34786,0.11053 c -0.009,0.004 -0.0179,0.007 -0.14774,0.0137 l -0.22466,0.0712 -0.31467,0.18626 -0.29107,0.14227 -0.41626,0.27053 -0.34774,0.29387 -0.108,0.11027 c -0.0865,0.0748 -0.1732,0.1536 -0.3332,0.28973 -0.0455,0.0237 -0.0881,0.0544 -0.12666,0.0923 l -0.2044,0.234 -0.22694,0.27826 -0.71093,0.69254 -0.35173,0.2824 c -0.0303,0.0305 -0.11574,-0.012 -0.15814,0.1968 -0.15133,0.0911 -0.36666,0.23333 -0.54586,0.47853 l -0.364,0.5216 -0.22334,0.26427 -0.22106,0.3816 -0.20147,0.23 -0.28453,0.34106 c -0.156,0.21227 -0.3388,0.47307 -0.48694,0.92227 l -0.17146,0.23493 -0.11507,0.246 -0.0917,0.15427 -0.25,0.62773 -0.0516,0.25787 -0.1176,0.1368 -0.0855,0.22627 -0.0848,0.37253 -0.1948,0.6708 -0.18173,0.3532 -0.1164,0.48 -0.0968,0.65907 c -0.0391,0.0657 -0.0691,0.13973 -0.0951,0.21706 l -0.0607,0.28227 -0.0788,0.37413 -0.18773,1.1496 -0.0309,0.15774 c -0.1788,0.55466 -0.314,1.08586 -0.37947,1.58813 -0.49787,3.68213 -1.11907,8.4072 -1.2788,12.28093 -0.20453,5.2288 -0.9264,11.24107 0.214,15.64267 0.5912,2.36933 2.33347,4.30507 3.85933,4.92787 0.7924,0.31866 1.54267,0.45413 2.03587,0.29533 0.7112,-0.2296 1.4308,-0.8068 2.09733,-1.40693 l 1.6084,-1.77467 1.28427,-1.42733 0.45893,-0.4756 0.99587,-1.50347 1.5944,-2.21013 c 1.1076,-1.63787 2.34,-3.3584 3.1088,-4.8984 0.65253,-1.33267 1.4832,-2.70747 2.682,-3.84507 1.21387,-1.1516 2.85547,-2.03133 4.816,-2.2576 3.2888,-0.37467 6.49653,-0.5316 10.04053,-0.70347 4.37813,-0.1868 8.57067,0.6672 11.28587,2.86947 0.57773,0.4704 1.1044,0.96733 1.60173,1.47493 -0.31027,-0.0783 -0.68387,-0.11933 -1.1164,-0.0547 -0.0791,-0.0371 -0.168,-0.0723 -0.8096,-0.10494 l -0.44107,-0.004 c -0.2088,-0.1152 -0.60666,-0.2144 -1.5404,-0.15146 l -0.5592,-0.0936 c 0.0719,0.001 0.0771,-0.004 -0.0471,-0.022 l -0.15867,-0.012 -0.23867,-0.0188 -0.552,-0.0436 -0.51186,0.0133 c -0.054,5.3e-4 -0.15667,-0.0528 -0.4572,-0.0517 -0.25867,-0.11214 -0.734,-0.23454 -1.41347,-0.0523 -1.47786,-0.31587 -3.1584,-0.4636 -4.888,-0.38893 -3.5496,0.1328 -6.68293,0.24746 -9.8448,0.56866 -2.4432,0.2444 -3.92826,2.01134 -5.08773,4.2748 -0.92667,1.8436 -2.23547,3.6328 -3.32893,5.24054 l -1.58214,2.25506 -1.122,1.56 -0.68026,0.75907 -1.14294,1.3292 c -0.6836,0.78053 -1.19906,1.42093 -1.88213,2.04147 -0.72427,0.6692 -1.74227,1.5988 -3.19533,2.08466 -1.57507,0.52827 -3.06587,0.10747 -4.17934,-0.32346 -2.68733,-1.024 -5.00293,-3.67347 -5.9008,-7.02254 -1.37733,-5.328 -0.51373,-11.55773 -0.31266,-16.62293 0.15386,-4.09707 0.77666,-8.8844 1.2616,-12.58187 0.30653,-2.25413 1.31493,-4.23026 2.026,-6.00333 l 1.0964,-2.80133 0.73053,-1.5004 c 0.35573,-0.63854 0.7844,-1.22894 1.29427,-1.82574 l 1.71426,-1.7964 c 1.28014,-1.29906 2.7548,-2.4596 4.4196,-3.32053 0.0677,-0.0167 0.14454,-0.0295 0.212,-0.1076 2.0556,-1.0216 4.39574,-1.58533 7.0124,-1.39667 3.4412,0.24494 7.4144,1.14014 10.6764,2.6428 l 2.12494,0.79614 1.62893,0.42226 1.81427,0.45294 1.49706,0.36733 c 0.1796,0.0449 0.352,0.11467 0.51254,0.20693 0.9952,0.5724 2.038,1.18547 3.0948,1.88147" />
    <path
       id="path18"
       d="m 205.0229,579.7791 c 0.2852,0.2062 0.6836,0.1423 0.8898,-0.1429 0.1863,-0.2575 0.1543,-0.6128 -0.0748,-0.833 l -0.2398,-0.2384 -0.0328,-0.0363 0.0244,0.035 0.0333,0.0604 c -0.0153,-0.0318 0.0722,0.2564 0.0545,0.1651 -0.0738,-0.3817 -0.4432,-0.6314 -0.825,-0.5575 -0.3817,0.0738 -0.6314,0.4432 -0.5575,0.8249 0.0651,0.3371 0.3639,0.578 0.7072,0.5703 0.0957,-0.002 -0.2144,-0.0285 -0.1788,-0.0197 0.0591,0.0148 -0.1118,-0.0398 -0.097,-0.0331 z m -0.0382,-1.5763 c -0.3977,7e-4 -0.7196,0.3237 -0.7188,0.7215 1e-4,0.0406 0.004,0.0812 0.0105,0.1213 0.0802,0.4643 0.1741,0.3737 0.2305,0.4372 l 1.0418,0.9692 2.2015,1.8609 3.859,3.1332 5.2773,4.3491 4.6886,4.1713 c 1.8135,1.5811 3.7848,3.1174 5.7491,4.7416 l 6.2371,5.2619 1.6586,1.4133 c 2.0801,1.7815 4.2807,3.3676 6.3133,5.0007 2.619,2.1112 5.0462,4.4175 7.4471,6.5742 l 5.141,4.5441 c 2.5044,2.2445 4.6411,4.2834 6.4933,6.0803 l 4.6521,4.4814 c 1.7673,1.6153 3.1548,2.6114 4.3017,3.463 l 1.9506,1.4796 4.0709,3.2747 c 0.7962,0.6634 1.4372,1.2088 2.0188,1.6007 0.3846,0.2468 0.6998,0.5634 1.5393,0.5056 0.6319,-0.0435 1.1675,-0.4811 1.3362,-1.0916 l 0.0534,-0.3467 c 0.006,-0.168 -0.0168,-0.3359 -0.0673,-0.4962 l -0.0462,-0.1266 c -0.2431,-0.5859 -0.8299,-0.9541 -1.4632,-0.9182 -0.1559,0.009 0.4014,0.0458 0.3321,0.0286 -0.0903,-0.0223 0.1115,0.0376 0.0996,0.0316 l -0.136,-0.0812 -1.8472,-1.391 -4.0027,-3.3688 -2.0328,-1.5504 c -1.1938,-0.8556 -2.4533,-1.7286 -4.1096,-3.212 l -4.6598,-4.3592 c -1.8873,-1.786 -4.0747,-3.8297 -6.6373,-6.0842 l -5.1688,-4.505 c -2.3926,-2.104 -4.88,-4.4232 -7.6247,-6.5917 -2.1049,-1.6685 -4.2914,-3.2247 -6.2866,-4.9112 l -1.667,-1.4309 -6.303,-5.2228 c -2.0186,-1.6253 -3.9966,-3.1257 -5.7629,-4.6217 -1.7093,-1.4329 -3.2773,-2.8364 -4.8425,-4.0832 l -5.4415,-4.2215 -3.9806,-2.9714 -2.5286,-1.8792 -0.6908,-0.4917 -0.2283,-0.1467 c -0.071,-0.0418 0,-0.1428 -0.4572,-0.1419 m 74.6401,61.3756 c -0.6812,-0.2409 -1.4288,0.116 -1.6698,0.7973 -0.2409,0.6812 0.116,1.4288 0.7973,1.6698 0.6812,0.2409 1.4288,-0.116 1.6698,-0.7973 0.1836,-0.5192 0.0225,-1.0979 -0.4032,-1.4474 -0.0735,-0.0604 0.1241,0.1166 0.1069,0.0987 -0.051,-0.0532 0.0447,0.0505 0.0356,0.0386 l -0.3075,-0.4461 c -0.2647,-0.4038 -0.8067,-0.5164 -1.2104,-0.2517 -0.2291,0.1502 -0.3745,0.3991 -0.3929,0.6725 l 6e-4,0.1054 c -0.0136,0.027 0.1054,-0.1561 0.07,-0.1099 -0.0281,0.0365 0.1665,-0.1693 0.1157,-0.124 -0.0801,0.0715 0.5398,-0.2733 0.367,-0.2132 -0.0903,0.0314 0.4512,-0.0714 0.324,-0.064 -0.0653,0.004 0.2938,0.0151 0.2151,0.006 -0.0808,-0.009 0.3953,0.1054 0.2818,0.0652"
       style="fill:#ff00de;fill-opacity:1;fill-rule:nonzero;stroke:none"
       transform="matrix(1.3333333,0,0,-1.3333333,0.22195741,1069.4463)"
       clip-path="url(#clipPath19)" />
  </g>
</svg>
