<?xml version="1.0" encoding="UTF-8" standalone="no"?>
<!-- Created with Inkscape (http://www.inkscape.org/) -->

<svg
   version="1.1"
   id="svg1"
   width="124.37418"
   height="53.039635"
   viewBox="0 0 124.37418 53.039635"
   sodipodi:docname="pressure.svg"
   inkscape:version="1.3.2 (091e20e, 2023-11-25)"
   xmlns:inkscape="http://www.inkscape.org/namespaces/inkscape"
   xmlns:sodipodi="http://sodipodi.sourceforge.net/DTD/sodipodi-0.dtd"
   xmlns="http://www.w3.org/2000/svg"
   xmlns:svg="http://www.w3.org/2000/svg">
  <sodipodi:namedview
     id="namedview1"
     pagecolor="#ffffff"
     bordercolor="#000000"
     borderopacity="0.25"
     inkscape:showpageshadow="2"
     inkscape:pageopacity="0.0"
     inkscape:pagecheckerboard="0"
     inkscape:deskcolor="#d1d1d1"
     inkscape:zoom="4.4495027"
     inkscape:cx="62.254148"
     inkscape:cy="26.519817"
     inkscape:window-width="1312"
     inkscape:window-height="449"
     inkscape:window-x="0"
     inkscape:window-y="25"
     inkscape:window-maximized="0"
     inkscape:current-layer="g1" />
  <defs
     id="defs1">
    <clipPath
       clipPathUnits="userSpaceOnUse"
       id="clipPath45">
      <path
         d="M 0,0 H 612 V 803.25 H 0 Z"
         id="path45" />
    </clipPath>
  </defs>
  <g
     id="g1"
     transform="translate(-262.35226,-96.809029)">
    <path
       id="path44"
       clip-path="url(#clipPath45)"
       style="fill:#fddc00;fill-opacity:1;fill-rule:nonzero;stroke:none"
       transform="matrix(1.3333333,0,0,-1.3333333,0,1071)"
       d="m 237.6874,704.4103 c 0.2331,-0.0165 0.4088,-0.2188 0.3923,-0.4519 -0.005,-0.0724 -0.0285,-0.1404 -0.0661,-0.1989 0.8593,-0.0879 1.7704,-0.0669 2.6272,-0.0754 1.3671,-0.0288 2.7537,0.0854 4.2021,0.0463 l 2.0878,-0.01 1.3445,0.0376 0.678,0.0129 0.4039,-0.0846 0.1942,-0.1016 c 0.1401,-0.0519 0.6835,0.0432 1.258,0.0273 l 0.643,-0.007 0.3588,-0.0174 0.2873,0.0293 0.2846,0.0423 0.2647,0.006 0.1334,0.002 c 0.0411,-0.0985 -0.0217,-0.235 -0.0913,-0.3732 -0.3063,-0.1704 -0.56,-0.3163 -0.7537,-0.383 -0.0406,0.0193 -0.0853,0.032 -0.1327,0.0365 -0.7159,0.0688 -2.1611,-0.1924 -3.0813,-0.1926 -0.1824,-10e-5 -0.3066,0.0784 -0.593,-0.0364 l -1.1946,-0.0142 -2.1167,0.0276 -4.1852,-0.1124 c -0.9247,0.0152 -1.9667,-0.0113 -2.9353,0.1279 l -0.1863,0.0631 c 0.0151,-0.0141 -0.2736,-0.0906 -0.4764,0.3545 -0.103,0.3364 -0.0425,0.4265 -0.0425,0.4338 l 0.0282,0.3174 c 0.0941,0.2724 0.4235,0.51 0.6671,0.4928 m 0.1062,-0.6256 c -0.0251,0.005 -0.0707,0.003 0,0 m 7.1719,12.8472 7.902,-12.9502 -15.7615,-0.1588 z m 1.1431,-0.5017 c 0.0538,-0.0834 0.1113,-0.1638 0.1707,-0.2436 -0.004,-0.2032 0.0922,-0.2712 0.1407,-0.3424 0.0571,-0.0874 0.0802,-0.1191 0.1029,-0.145 l 1.0667,-1.8502 0.8942,-1.5601 c 0.2338,-0.3871 0.4079,-0.6677 0.6306,-0.8592 l 0.1249,-0.1188 c 0.1408,-0.3347 0.4021,-0.645 0.6436,-1.0425 l 1.0464,-1.8326 0.2279,-0.3131 c 0.3162,-0.5113 0.6067,-0.9143 0.9107,-1.3007 l 0.64,-1.0488 c 0.0469,-0.3637 0.1691,-0.8046 0.2837,-1.2763 l -0.0332,-0.2797 c -0.0699,-0.1981 -0.1614,-0.4078 -0.2692,-0.6217 -0.3059,-0.1694 -0.5595,-0.3152 -0.7531,-0.3819 -0.0406,0.0193 -0.0853,0.032 -0.1327,0.0365 -0.7159,0.0688 -2.1611,-0.1924 -3.0813,-0.1926 -0.1797,-1e-4 -0.3029,0.0762 -0.5804,-0.0315 h -1.3661 c -0.1389,0.0115 -0.2764,0.026 -0.4122,0.0442 l -2.3508,0.1614 c -0.9059,0.061 -1.9895,0.2053 -2.8,0.0742 -0.0624,0.0293 -0.1332,0.0428 -0.2067,0.0357 -0.7281,-0.0695 -1.3625,0.0555 -2.1455,0.0255 -0.574,-0.022 -1.087,-0.013 -1.2207,0.0734 -0.0943,0.0609 -0.2045,0.077 -0.3058,0.0536 -0.3579,0.1463 -0.4783,0.2732 -0.4716,0.5612 l 0.0814,0.6073 0.0208,0.1082 0.2634,0.5343 0.2581,0.7015 0.5498,0.9169 0.1363,0.1697 c 0.6397,0.7623 1.2642,1.6305 1.7221,2.4933 0.382,0.7198 0.7657,1.3167 1.1769,1.8861 0.3715,0.5145 0.605,1.1001 0.8553,1.5917 0.5,0.9824 0.9718,1.904 1.6453,3.0005 0.0306,0.0499 0.0489,0.1039 0.0558,0.1584 l 0.4155,0.3716 c 0.0814,0.0676 0.1291,0.1607 0.1411,0.258 0.0502,0.0283 0.1006,0.056 0.1508,0.0833 l 0.3666,0.1901 0.2342,0.0403 0.1857,2e-4 c 0.0835,-0.121 0.231,-0.1909 0.4902,-0.1615 l 0.0957,-0.1738 c 0.1467,-0.2246 0.3358,-0.3158 0.4013,-0.4011 m -1.1371,-1.038 -6.4586,-10.7724 h 13.0318 z" />
    <path
       d="m 345.0563,114.24857 c 0.338,-0.1824 0.75986,-0.0561 0.94226,0.282 0.0964,0.17893 0.10987,0.39107 0.0365,0.58067 l -0.0424,0.1296 10e-4,-0.10014 -0.0255,-0.1448 -0.0433,-0.12146 c 0.0224,0.0507 -0.19027,-0.28987 -0.11973,-0.1996 0.3324,0.42546 0.25706,1.04 -0.16854,1.37253 -0.4256,0.33253 -1.04013,0.25707 -1.37266,-0.1684 -0.3324,-0.4256 -0.25707,-1.04013 0.16853,-1.37267 0.27467,-0.21453 0.64267,-0.2668 0.96613,-0.13693 0.1856,0.0744 -0.37533,-0.0683 -0.31453,-0.0667 0.0947,0.003 -0.1868,0.0193 -0.162,0.0137 l 0.13347,-0.0679 z m 0.47533,2.2932 c -0.66267,0.278 -1.42507,-0.0339 -1.70307,-0.69653 -0.19746,-0.47067 -0.10133,-1.01334 0.2456,-1.38774 l 0.42534,-0.45253 c 1.118,-1.1208 3.15,-3.06107 5.59733,-4.88973 l 3.3848,-2.36254 0.54507,-0.44186 0.3616,-0.30107 0.34346,-0.27867 0.43294,-0.2916 0.32506,-0.15426 0.1956,-0.0783 c 0.35054,-0.11813 0.73174,-0.10573 1.07387,0.0347 l 0.35467,0.18853 c 0.67173,0.44827 0.85293,1.356 0.4048,2.02773 -0.0887,0.13294 -0.19867,0.25054 -0.32534,0.34787 l 0.10107,-0.0912 c -0.25333,0.26933 -0.59547,0.43827 -0.96333,0.47573 l 0.10053,-0.0179 0.16533,-0.0545 -0.12453,0.0703 -0.218,0.16173 -0.31387,0.25787 -0.68426,0.53587 -3.37094,2.39706 c -2.35093,1.638 -4.3628,3.43374 -5.50706,4.4244 -0.27814,0.22734 -0.38267,0.38214 -0.84667,0.57667 m 5.44853,-11.26973 c 0.35014,0.0893 0.5616,0.44546 0.47227,0.7956 -0.0533,0.20933 -0.20653,0.3788 -0.40933,0.45293 l -0.0311,0.007 c -0.0248,0.0193 0.16973,-0.20974 0.11787,-0.13134 -0.028,0.0424 0.1116,-0.2612 0.0856,-0.17973 l 0.0328,-0.15493 c -0.007,0.0648 -0.0355,-0.3724 -0.012,-0.2564 0.094,0.46213 -0.20454,0.9128 -0.66654,1.0068 -0.46213,0.094 -0.91293,-0.2044 -1.00693,-0.66654 -0.0939,-0.462 0.20453,-0.9128 0.66653,-1.0068 0.28734,-0.0584 0.58454,0.0347 0.7872,0.2464 0.10054,0.1052 -0.1984,-0.15253 -0.168,-0.1344 0.0841,0.0499 -0.0751,-0.0365 -0.0457,-0.0271 l 0.1772,0.0495 z m -1.5468,0.416 c 0.0632,-0.15574 0.16294,-0.29387 0.29094,-0.4028 l 0.38053,-0.21227 c 0.2528,-0.0881 0.52893,-0.0816 0.77747,0.0183 l 0.27733,0.0516 c 0.682,0.0688 2.412,-0.29147 3.89827,-0.594 l 1.7688,-0.172 c -0.0165,-6.7e-4 0.1896,-0.15214 0.8308,0.0508 0.89333,0.302 1.02146,1.02653 1.07733,1.39533 l 0.0292,0.8776 -0.0544,0.88813 -0.2508,0.97187 -0.216,0.6248 -0.21907,0.584 -0.13773,0.37013 -0.1324,0.36214 -0.11053,0.33146 c -0.12667,0.43054 -0.458,0.77054 -0.88507,0.90814 l -0.21427,0.0875 c -0.21013,0.11054 -0.4632,0.10134 -0.66466,-0.0243 l -0.47707,-0.37667 c -0.32333,-0.3112 -0.47173,-0.76213 -0.39653,-1.2044 l 0.0991,-0.48213 0.14107,-0.48654 0.16893,-0.46226 0.24934,-0.60507 0.22813,-0.5432 0.22173,-0.6196 0.1464,-0.55773 -0.0136,-0.27027 c -10e-4,-0.009 0.10947,0.2488 0.0527,0.13773 -0.0321,-0.0632 0.26867,0.32894 0.1768,0.2384 -0.0963,-0.0949 0.55307,0.2976 0.39453,0.2432 -0.12346,-0.044 0.266,0.0487 0.21894,0.0453 l -0.31827,0.0151 -1.22613,0.18414 c -1.52854,0.20426 -3.28054,0.606 -4.74827,0.30586 l -0.84333,-0.26773 c -0.2376,-0.12507 -0.42174,-0.33213 -0.518,-0.5828 -0.0624,-0.1624 -0.2036,-0.3304 -0.003,-0.82773 m 7.63707,33.9536 c 0,0.69186 -0.56094,1.2528 -1.2528,1.2528 -0.69187,0 -1.25267,-0.56094 -1.25267,-1.2528 0,-0.69187 0.5608,-1.25267 1.25267,-1.25267 0.69186,0 1.2528,0.5608 1.2528,1.25267 m -10.15787,-8.35 c 0.0427,0.32906 -0.17507,0.63573 -0.49987,0.704 l 0.0797,-0.024 c -0.0389,0.0152 0.29333,-0.20614 0.18826,-0.11494 -0.28973,0.25174 -0.7288,0.22094 -0.98053,-0.0688 -0.25173,-0.28973 -0.22093,-0.7288 0.0689,-0.98053 0.28974,-0.25173 0.72867,-0.22093 0.98054,0.0689 0.17746,0.20427 0.22026,0.4932 0.10946,0.74014 -0.0595,0.13253 0.0592,-0.276 0.0567,-0.22947 l -0.003,-0.0953 z m -1.40187,0.79666 c -0.44533,-0.37906 -0.49906,-1.04733 -0.12013,-1.49266 0.2532,-0.29747 0.6496,-0.43134 1.0312,-0.3484 l 0.5452,0.20613 c 1.22533,0.72947 3.066,2.2424 5.04133,4.04133 l 3.43627,3.0796 0.73227,0.65134 0.42026,0.42773 0.11774,0.11387 c 0.4828,0.49546 0.47266,1.28866 -0.0228,1.7716 -0.49547,0.48293 -1.28854,0.47266 -1.77147,-0.0228 -0.0677,-0.0693 -0.12707,-0.1464 -0.17693,-0.2296 l -0.0645,-0.0983 -0.218,-0.23587 -0.64333,-0.66626 -3.38093,-3.0836 c -1.88547,-1.76467 -3.7336,-3.29174 -4.55387,-3.82507 z m 12.1028,2.93334 c 0,0.5524 -0.44786,1.00026 -1.00026,1.00026 -0.55254,0 -1.0004,-0.44786 -1.0004,-1.00026 0,-0.55254 0.44786,-1.0004 1.0004,-1.0004 0.5524,0 1.00026,0.44786 1.00026,1.0004 m -1.76,0.73053 c -0.24066,-0.56293 0.0205,-1.2144 0.58347,-1.45507 0.4224,-0.18066 0.91253,-0.0819 1.23213,0.24814 0.31934,0.32973 0.53334,0.7152 0.72134,1.11266 0.30373,0.8576 0.57013,1.7808 0.70893,2.75107 0.0565,0.62853 0.0751,1.15827 -0.008,1.67987 0.0107,0.4048 -0.23147,0.8612 -0.38293,1.134 l -0.44627,0.6908 c -0.31987,0.53133 -1.11773,0.68093 -1.47467,0.6992 l -1.05253,-0.0979 -1.18147,-0.22373 -1.20413,-0.30454 -0.83173,-0.16853 -0.89174,-0.2104 -0.80813,-0.23147 c -0.14053,-0.0351 -0.27373,-0.0947 -0.39347,-0.17613 l -0.51773,-0.33907 c -0.33667,-0.20786 -0.4412,-0.64933 -0.23333,-0.98613 0.004,-0.007 0.009,-0.0145 0.014,-0.0217 0.17973,-0.26907 0.45706,-0.50747 0.7744,-0.70694 0.12173,-0.0767 0.25613,-0.1312 0.3968,-0.16133 l 0.93386,-0.13373 1.11814,0.0484 1.0668,0.1784 1.1332,0.18866 1.14293,0.25387 0.77373,0.18627 c 0.21547,0.0643 -0.0265,0.03 0.0861,0.0396 0.0645,0.005 -0.38107,0.0389 -0.2688,0.0164 0.1168,-0.0235 -0.4788,0.22466 -0.36414,0.14946 l 0.05,-0.14373 c 0.15814,-0.1904 0.10174,-0.0243 0.1184,-0.11013 l -0.11866,-0.85227 c -0.0903,-0.80667 -0.29107,-1.61627 -0.48094,-2.25027 l -0.19626,-0.80373 z m -50.93706,-2.32933 c 0.37293,-0.14627 0.79387,0.0375 0.94013,0.4104 0.0855,0.21826 0.0604,0.46426 -0.0675,0.66053 l -0.39894,0.57573 -3.81973,3.3032 -2.15907,1.94667 -0.8768,0.74133 -0.26733,0.23867 -1.39053,1.1664 -1.466,0.82987 c -0.5264,0.2756 -1.17654,0.0725 -1.45214,-0.45387 -0.20666,-0.3944 -0.14893,-0.8752 0.14494,-1.20947 l 1.1716,-1.09053 1.51306,-1.0412 0.31054,-0.2448 0.7908,-0.62893 2.302,-1.93894 3.91146,-2.8984 z m -8.50427,5.80186 c -0.0527,0.3476 -0.3772,0.58667 -0.7248,0.534 -0.29093,-0.0441 -0.51373,-0.282 -0.5388,-0.5752 l -0.0183,-0.13813 0.0311,0.0676 c -0.0176,-0.0313 0.1496,0.17947 0.0969,0.12667 -0.0533,-0.0533 0.41333,0.21013 0.27373,0.1656 -0.0688,-0.022 0.342,0.0283 0.2472,0.0325 -0.0941,0.004 0.39,-0.12627 0.29413,-0.0776 -0.0928,0.0472 0.2816,-0.24453 0.22694,-0.17973 -0.098,0.116 0.14146,-0.25787 0.12866,-0.2224 l -0.0107,0.0895 -0.0752,0.43254 -0.49867,1.85173 -0.46573,1.53893 -0.1664,0.5272 -0.0133,0.0823 c 0.001,0.0396 -0.0784,-0.34333 -0.0417,-0.22907 0.0396,0.12387 -0.40133,-0.56493 -0.26293,-0.4268 0.0773,0.0773 0.1444,0.1644 0.19946,0.25894 0.0631,0.10826 -0.30133,-0.34707 -0.22146,-0.27427 0.14413,0.13133 -0.47827,-0.26187 -0.3796,-0.2276 0.0799,0.0276 -0.21614,-0.0483 -0.17654,-0.0429 0.11147,0.0149 -0.0716,-0.003 0.003,-0.0141 l 0.3116,-0.0644 1.2304,-0.54013 c 0.82067,-0.31773 1.59067,-0.4736 2.28013,-0.5552 l 1.05254,-0.0863 c 0.11453,-0.005 0.22933,0.004 0.34146,0.0276 l 1.1464,0.31414 c 0.54094,0.1832 0.8308,0.77013 0.6476,1.31106 -0.0884,0.2608 -0.2772,0.4756 -0.52453,0.5968 l -1.17267,0.40267 c -0.1108,0.0321 -0.22533,0.0497 -0.34066,0.0528 l -0.8496,0.0533 c -0.51174,0.0577 -1.05614,0.16854 -1.5924,0.37307 -0.43707,0.156 -0.94227,0.452 -1.6664,0.5888 l -0.8076,0.0977 -0.59,-0.0661 c -0.26707,-0.0733 -0.72027,-0.27147 -0.95107,-0.80507 -0.0436,-0.10066 -0.0739,-0.20653 -0.0901,-0.31493 -0.1388,-0.92347 0.22413,-1.05493 0.3016,-1.2048 l 0.40373,-0.6516 0.55507,-1.32827 0.60026,-1.70346 c 0.18534,-0.39507 0.0837,-0.7444 0.8252,-1.01987 0.1224,-0.0455 0.31094,-0.0951 0.55947,1.3e-4 0.23253,0.0892 0.4352,0.38027 0.47053,0.55174 0.1164,0.56306 -0.007,0.398 -0.0476,0.67066 m 11.37747,-26.968 c 0,0.64827 -0.5256,1.17387 -1.174,1.17387 -0.64827,0 -1.17387,-0.5256 -1.17387,-1.17387 0,-0.6484 0.5256,-1.174 1.17387,-1.174 0.6484,0 1.174,0.5256 1.174,1.174 m -12.74067,-6.02893 c -0.3924,-0.34147 -0.43373,-0.9364 -0.0923,-1.32893 0.33506,-0.3852 0.916,-0.43334 1.30986,-0.10854 0.90307,0.7448 2.61174,1.7608 4.5776,2.82187 l 3.7864,2.1472 0.70414,0.4216 1.78786,1.02853 0.0825,0.0319 c 0.56066,0.3256 0.75133,1.044 0.42586,1.60467 -0.3256,0.5608 -1.044,0.75146 -1.60466,0.42586 -0.22827,-0.1324 -0.4052,-0.338 -0.50227,-0.58346 -0.0288,-0.0728 0.0824,0.15626 0.0677,0.13373 l 0.0144,0.0209 -1.3548,-0.82693 -0.76253,-0.4928 -3.60173,-2.17653 c -1.99534,-1.11387 -3.7404,-2.16414 -4.83814,-3.11907 m 1.3736,3.2768 c 0.0983,-0.36347 0.47254,-0.57853 0.836,-0.4804 0.12574,0.034 0.2392,0.10333 0.3268,0.19987 l 0.21854,0.25386 -0.44934,-0.14586 -0.18253,0.012 c 0.0725,-0.012 -0.40293,0.1644 -0.2772,0.0961 0.44133,-0.23987 0.99347,-0.0765 1.2332,0.3648 0.23987,0.44133 0.0765,0.99347 -0.3648,1.2332 -0.44133,0.23987 -0.99347,0.0765 -1.2332,-0.3648 -0.17613,-0.324 -0.13907,-0.7224 0.0937,-1.0084 0.106,-0.13013 -0.12333,0.20107 -0.1116,0.1764 l -0.0801,0.4672 c -0.009,-0.0941 -0.1304,-0.35533 -0.009,-0.80333 m 1.0608,1.79013 c -0.1472,0.009 -0.29454,-0.012 -0.43334,-0.0616 l -0.25906,-0.134 c -0.26814,-0.18507 -0.44067,-0.47933 -0.47134,-0.80387 -0.0107,-0.11466 0.0295,0.1424 0.0269,0.13627 l -0.3248,-0.62653 -1.07574,-2.2492 -0.506,-1.0084 -0.27733,-0.59307 c -0.19813,-0.93707 0.26533,-1.6884 0.92267,-1.9952 0.626,-0.4424 1.06586,-0.1396 1.17666,-0.13507 l 0.9048,-0.0476 1.03894,-0.0949 0.88146,-0.0905 0.7316,-0.0249 0.6184,-10e-4 0.40734,0.0231 c 0.16706,0.016 0.32933,0.0647 0.47746,0.14333 l 0.4228,0.27907 c 0.49667,0.412 0.56547,1.14866 0.15347,1.64546 -0.17293,0.2084 -0.41293,0.3504 -0.67893,0.40147 l -0.18734,0.0421 c -0.1656,0.0412 -0.338,0.0488 -0.50666,0.0224 l -0.2232,-0.0245 -0.46294,-0.009 -0.5568,0.0264 -0.92266,0.0209 -1.10294,0.0209 -1.19466,-0.0608 -0.34294,-0.056 0.0412,-0.001 c -0.0572,0.004 0.44387,-0.1608 0.30427,-0.0885 0.0599,-0.0263 0.38707,-0.508 0.35133,-0.38547 -0.0368,0.12587 -0.0955,-0.5852 -0.0309,-0.4368 l 0.17453,0.34387 0.52454,1.0468 1.03546,2.33906 c 0.11347,0.2948 0.45734,0.54854 0.39734,1.4124 -0.0225,0.3252 -0.18774,0.6236 -0.45134,0.81534 -0.1208,0.0879 -0.2444,0.19013 -0.58226,0.2112 m 29.1168,-8.32027 c 0.008,-0.52573 0.44,-0.9456 0.9656,-0.938 0.51493,0.008 0.93053,0.42307 0.938,0.938 l 0.0484,3.19573 0.0275,1.76187 0.004,1.0296 -0.003,0.85173 c 0.0451,0.2272 0.0133,0.46307 -0.0921,0.66974 -0.0299,0.0588 0.0268,0.0891 -0.25506,0.3352 -0.1324,0.11546 -0.29307,0.19373 -0.4656,0.22653 -0.63507,0.1212 -0.75467,-0.13667 -0.8868,-0.25307 -0.174,-0.1532 -0.2916,-0.36053 -0.33374,-0.58853 -0.0887,-0.47907 -0.0291,-0.82493 -0.028,-1.24 l 0.004,-1.0196 0.0276,-1.77493 0.0484,-3.19427 z m 1.8752,6.77747 c 0.18506,0.46186 -0.0392,0.98626 -0.50094,1.17146 -0.46186,0.1852 -0.98626,-0.0391 -1.17146,-0.50093 -0.18507,-0.46173 0.0392,-0.98627 0.50093,-1.17133 0.2812,-0.1128 0.60027,-0.0767 0.8492,0.0963 0.12547,0.0871 -0.3792,-0.15346 -0.29867,-0.13413 0.14174,0.034 -0.40586,-0.003 -0.32533,-0.0144 0.13053,-0.0199 -0.3068,0.11547 -0.256,0.0868 0.0679,-0.0385 -0.108,0.0803 -0.0997,0.0721 l 0.0217,-0.0275 c 0.2516,-0.33654 0.72853,-0.4052 1.06493,-0.15347 0.22454,0.16787 0.3384,0.4456 0.29667,0.7228 l -0.0201,0.15707 -0.004,-0.0776 c 0.004,0.0365 -0.11974,-0.38307 -0.0572,-0.2272 m -3.45507,-6.19267 c 0.2956,-0.10067 0.61667,0.0575 0.71733,0.35293 0.0477,0.1404 0.0385,0.29387 -0.0259,0.42734 l -0.0241,0.0795 c -2.6e-4,0.007 -0.0375,-0.1788 -0.0165,-0.1052 0.012,0.042 -0.13933,-0.26386 -0.0853,-0.18213 0.0291,0.044 -0.19627,-0.20867 -0.13227,-0.152 l -0.12747,-0.0927 c 0.0556,0.0329 -0.35013,-0.12146 -0.23613,-0.0947 0.4644,0.10946 0.75213,0.57466 0.64267,1.03893 -0.10934,0.4644 -0.57454,0.75213 -1.0388,0.64267 -0.4644,-0.10934 -0.75214,-0.57454 -0.64267,-1.03894 0.0705,-0.2996 0.29533,-0.53906 0.58987,-0.6284 0.12853,-0.0389 -0.1992,0.09 -0.17414,0.0755 l 0.10934,-0.0871 z m -0.58427,1.87093 c -0.21493,-0.1292 -0.3668,-0.34146 -0.41946,-0.58666 -0.1576,-0.7324 0.0771,-0.6152 0.11493,-0.682 l 0.15533,-0.2456 0.38507,-0.61734 1.0368,-1.4036 0.66,-0.6756 0.45413,-0.46213 c 0.69974,-0.57293 1.4284,-0.28013 1.8912,-0.0231 0.61,0.29974 0.74374,0.76587 0.8656,0.9404 l 0.644,0.75547 c 0.71134,0.86093 1.10307,1.78613 1.36174,2.53413 0.1668,0.482 -0.0888,1.00787 -0.57094,1.17467 -0.4536,0.15693 -0.95186,-0.0599 -1.14613,-0.4988 -0.2744,-0.61933 -0.64507,-1.3192 -1.14267,-1.84747 l -0.8296,-0.98546 -0.2312,-0.40467 c -0.0368,-0.0592 0.16814,0.0947 0.062,0.0303 l -0.0193,-0.001 0.10627,-0.009 c -0.0649,0.0147 0.32266,-0.19093 0.2396,-0.12133 l -0.2192,0.30213 -0.45574,0.59293 -0.96,1.21774 -0.49946,0.68186 -0.4924,0.33707 -0.2192,0.0856 c -0.0985,0.0288 -0.0916,0.32093 -0.77134,-0.0873 m 2.38854,30.51386 c 0.1404,-0.048 0.2928,-0.048 0.4332,0 0.47,0.16094 0.37533,0.2936 0.4204,0.37694 l 0.22373,0.63933 c 0.0193,0.0724 0.0296,0.14693 0.0304,0.22187 l 0.0319,3.49266 0.0468,1.43374 0.004,0.81933 -0.0785,0.69547 c -0.0264,0.17013 0.0753,0.0695 -0.11946,0.5072 -0.2048,0.4604 -0.74414,0.6676 -1.20454,0.4628 -0.0395,-0.0176 -0.0777,-0.0379 -0.11426,-0.0608 -0.72654,-0.456 -0.41747,-0.60134 -0.428,-0.68147 l -0.003,-0.92467 0.004,-0.79173 0.0476,-1.47933 0.0315,-3.4732 c 8e-4,-0.0749 0.0107,-0.14947 0.0305,-0.22187 l 0.128,-0.42147 0.0956,-0.21786 c 0.0451,-0.0833 -0.0495,-0.216 0.4204,-0.37694 m 1.06813,7.7576 c 0.0324,0.50054 -0.3472,0.9324 -0.8476,0.96467 -0.50053,0.0324 -0.9324,-0.3472 -0.9648,-0.8476 -0.0284,-0.4396 0.2628,-0.83613 0.69067,-0.94067 0.15813,-0.0387 -0.37707,0.19 -0.312,0.14334 0.11467,-0.0823 -0.22733,0.2348 -0.1936,0.18973 0.0559,-0.0749 -0.0948,0.16187 -0.0832,0.13733 l 0.0936,-0.3552 c 0.12093,-0.46586 0.59653,-0.74546 1.0624,-0.62466 0.44507,0.11546 0.72387,0.55693 0.6368,1.0084 l -0.0724,0.39333 -0.012,0.078 c -9.3e-4,0.008 -0.007,-0.28707 0.003,-0.14667 m -4.69467,-1.9716 c 0.008,-0.0719 0.0263,-0.14226 0.0529,-0.20946 l 0.1888,-0.30054 c 0.28187,-0.31373 0.73134,-0.41453 1.12,-0.2512 1.26987,0.5332 1.654,1.77227 2.08627,2.29187 l 0.37653,0.3348 0.27227,0.11347 0.174,-0.3228 0.69467,-1.1128 0.5648,-0.7792 c 0.0921,-0.1124 0.20186,-0.20907 0.32493,-0.28627 0.62813,-0.39427 1.14453,-0.55733 1.4484,-0.69173 0.45853,-0.2028 0.99467,0.004 1.1976,0.46306 0.10573,0.2392 0.1032,0.5124 -0.007,0.7496 l -0.75546,1.28787 c -0.0719,0.1256 -0.1636,0.2388 -0.2716,0.3352 l -0.41734,0.43133 c -0.50266,0.58774 -1.09413,1.9716 -2.68053,2.10694 -0.544,0.10786 -1.08973,-0.0999 -1.454,-0.26774 -0.5288,-0.2696 -0.88907,-0.64986 -1.16947,-1.0324 l -1.228,-1.83173 c -0.37346,-0.19613 -0.58173,-0.6076 -0.51786,-1.02827 m -41.0668,7.68667 c -1.6248,0.026 -3.27654,-1.08267 -4.69387,-3.42187 -2.57293,-4.24693 -4.45213,-12.58866 -4.60733,-22.23426 -0.007,-0.43387 -0.0107,-0.86534 -0.0107,-1.294 0,-12.17067 2.91813,-21.8876 6.53587,-24.065601 0.628,-0.378 1.28,-0.5716 1.946,-0.582267 1.62466,-0.02613 3.2764,1.082667 4.69373,3.421868 2.57293,4.24693 4.45227,12.58866 4.60733,22.23426 0.007,0.43387 0.0107,0.86534 0.0107,1.29387 0,12.1708 -2.91813,21.88773 -6.53587,24.06573 -0.628,0.378 -1.28,0.57147 -1.94586,0.58227 m 0.8724,-2.41653 c 3.3312,-2.04147 5.4844,-11.31547 5.4844,-22.23147 0,-0.4172 -0.004,-0.83733 -0.0107,-1.25973 -0.14733,-9.16267 -1.85067,-17.1244 -4.3,-21.1672 -0.0316,-0.0521 -0.0632,-0.10374 -0.0949,-0.15467 1.3e-4,-0.10093 -0.0285,-0.20307 -0.0885,-0.2936 -0.15133,-0.22853 -0.32,-0.38813 -0.4648,-0.51613 -0.26653,-0.35054 -0.54053,-0.6508 -0.8244,-0.88467 -0.0815,-0.0941 -0.18733,-0.1944 -0.35626,-0.25413 -0.32334,-0.1952 -0.66,-0.300799 -1.0132,-0.295069 -0.30494,0.005 -0.59867,0.106269 -0.884,0.277999 -3.34414,2.0132 -5.50694,11.30453 -5.50694,22.24507 0,0.41733 0.003,0.83733 0.0107,1.25986 0.14733,9.16267 1.85067,17.1244 4.3,21.1672 0.47853,0.78987 0.976,1.45107 1.50827,1.87787 0.0616,0.0893 0.1544,0.1792 0.29866,0.24307 0.24614,0.1984 0.55054,0.3168 0.8484,0.34226 0.38067,0.0327 0.7988,-0.0888 1.09347,-0.35666 m 78.47506,2.398 c -1.30466,0.0209 -2.6276,-0.6928 -3.8324,-2.1928 l 0.186,0.008 0.41467,-0.0531 0.9896,0.1104 0.5808,-0.001 0.6232,-0.12267 0.14533,0.0727 0.15387,0.0376 0.352,0.009 c 0.14893,0.001 0.25013,0.009 0.3528,0.008 0.30427,-0.005 0.5972,-0.10667 0.88187,-0.2788 0.29786,-0.1512 0.4592,-0.25013 0.60786,-0.45893 0.6836,-0.62214 1.31027,-1.5632 1.8704,-2.76774 l 0.33214,-0.6024 c 0.072,-0.10773 0.1036,-0.24026 0.0844,-0.37213 1.64346,-4.17707 2.6124,-10.7924 2.6124,-18.15187 0,-0.42146 -0.003,-0.84573 -0.0107,-1.2724 -0.1232,-7.66066 -1.32333,-14.48613 -3.13373,-18.90413 -0.0617,-0.14947 -0.0929,-0.22387 -0.1244,-0.2976 l -0.1296,-0.30627 -0.11267,-0.2744 -0.10947,-0.21306 -0.18,-0.402 -0.37626,-0.6724 -0.0924,-0.13174 c -0.49054,-0.81426 -0.95307,-1.44226 -1.4448,-1.87173 -0.0825,-0.14173 -0.19267,-0.21907 -0.30454,-0.26813 -0.04,-0.0247 -0.0841,-0.0444 -0.13146,-0.0581 -0.32827,-0.19066 -0.65854,-0.29266 -1.0048,-0.28706 -0.15867,0.003 -0.31427,0.0315 -0.4672,0.0829 l -1.27467,-0.0229 -0.22667,0.0237 -0.4616,0.001 c -0.31693,-0.0533 -0.64426,-0.0852 -0.978,-0.0672 -0.0672,-0.004 -0.1328,-0.008 -0.19733,-0.0133 0.51893,-0.684532 1.06293,-1.205999 1.62387,-1.545199 0.6284,-0.380133 1.28093,-0.574533 1.94746,-0.585333 1.62454,-0.02613 3.27734,1.087066 4.6952,3.438402 2.5728,4.26706 4.452,12.64813 4.60787,22.33893 0.007,0.43813 0.0107,0.87373 0.0107,1.30653 0,12.2236 -2.91627,21.98414 -6.53254,24.17134 -0.6284,0.38013 -1.28093,0.57453 -1.94746,0.5852 m -82.52173,-42.26614 c 1.46706,0 2.65626,1.1892 2.65626,2.65627 0,1.46693 -1.1892,2.65613 -2.65626,2.65613 h -5.98294 c -1.46693,0 -2.65613,-1.1892 -2.65613,-2.65613 0,-1.46707 1.1892,-2.65627 2.65613,-2.65627 z m 5.03306,9.94014 c 1.46694,0 2.65614,1.1892 2.65614,2.65626 0,1.46694 -1.1892,2.65614 -2.65614,2.65614 h -5.98293 c -1.46707,0 -2.65627,-1.1892 -2.65627,-2.65614 0,-1.46706 1.1892,-2.65626 2.65627,-2.65626 z m -5.98293,9.81346 c 1.46693,0 2.65627,1.1892 2.65627,2.65627 0,1.46693 -1.18934,2.65627 -2.65627,2.65627 h -5.98293 c -1.46707,0 -2.65627,-1.18934 -2.65627,-2.65627 0,-1.46707 1.1892,-2.65627 2.65627,-2.65627 z m 3.7092,8.5472 c 1.46707,0 2.65627,1.18934 2.65627,2.65627 0,1.46707 -1.1892,2.65627 -2.65627,2.65627 h -5.98293 c -1.46694,0 -2.65627,-1.1892 -2.65627,-2.65627 0,-1.46693 1.18933,-2.65627 2.65627,-2.65627 z m -7.19133,1.9064 c 0.47533,0.13574 0.75066,0.63107 0.61493,1.1064 -0.12493,0.43747 -0.55813,0.7116 -1.00693,0.6372 -0.3088,-0.0511 -0.7068,0.10414 -1.01547,0.34574 l -0.5536,0.4656 c -0.12573,0.15666 -0.30893,0.7272 -0.40613,1.33853 l -0.0739,1.0852 0.1144,0.13133 0.712,0.4196 0.8104,0.26614 0.44013,0.0339 0.3996,-0.0152 0.71587,-0.0556 0.9648,-0.07 c 0.32,-0.0576 0.62613,0.15507 0.68373,0.47507 0.0356,0.198 -0.0324,0.40053 -0.18013,0.53693 l -0.83653,0.65734 -1.05734,0.3532 -0.7112,0.0439 -0.75546,-0.0693 -1.24267,-0.3312 -1.1464,-0.6588 c -0.39267,-0.28613 -0.8056,-0.78773 -0.90907,-1.4268 -0.1064,-0.63493 -0.0397,-1.21827 0.0205,-1.674 0.10893,-0.73133 0.2132,-1.57467 0.7972,-2.31213 0.37693,-0.4352 0.7568,-0.65627 1.0544,-0.84334 0.68306,-0.402 1.6036,-0.71453 2.5668,-0.4396 m -2.0696,-8.66373 c 0.37626,0.11427 0.58866,0.51187 0.4744,0.88813 -0.0708,0.2332 -0.25614,0.414 -0.49107,0.4792 l -0.64453,0.2392 -1.19934,0.37054 -1.03293,0.39613 -0.2512,0.2016 -0.3588,0.26027 -0.25573,0.18973 -0.36907,0.33133 -0.216,0.20294 -0.2196,0.23226 -0.2556,0.33547 -0.66573,0.8008 c -0.35334,0.52453 -0.57694,1.25827 -0.67294,2.05533 -0.062,0.47774 -0.0469,0.86894 0.0673,1.28667 l 0.19893,0.61107 0.11907,0.26253 0.22573,0.31533 0.3444,0.4212 0.38147,0.60027 0.18946,0.21867 0.34614,0.31133 c 0.496,0.2008 0.7352,0.7656 0.5344,1.26147 -0.1772,0.438 -0.64467,0.68413 -1.10614,0.58253 -0.52813,-0.11613 -0.90466,-0.40293 -1.23386,-0.6952 l -0.34427,-0.3264 -0.38067,-0.35107 -0.45586,-0.40866 -0.5256,-0.58267 -0.36627,-0.69493 -0.3056,-0.84294 c -0.22467,-0.76733 -0.26067,-1.53133 -0.17987,-2.25773 0.12974,-1.07693 0.41854,-2.1808 1.06187,-3.1332 0.41573,-0.57173 0.78373,-0.82467 0.86947,-0.92787 l 0.36666,-0.4536 0.3992,-0.37613 0.3772,-0.24093 0.3824,-0.3336 0.3472,-0.26054 0.4504,-0.22586 0.52027,-0.29534 c 0.5348,-0.2392 1.06013,-0.336 1.47293,-0.4216 l 1.27427,-0.19426 z m 6.09546,-10.04773 c 0.3116,0.003 0.56174,0.258 0.5588,0.56946 -10e-4,0.1704 -0.0801,0.33094 -0.2136,0.4368 -0.55386,0.43907 -1.3264,0.48294 -1.95973,0.62174 l -0.65893,0.13666 -1.14627,0.3376 -0.55,0.11854 -0.99653,0.18213 -0.4228,0.11853 -0.39427,0.1284 -0.2412,0.11934 -0.56653,0.29186 -0.20214,0.1112 -0.31733,0.17787 -0.39747,0.202 -0.87786,0.46267 -0.35387,0.17613 -0.1432,0.12253 -0.38053,0.33414 -0.516,0.5008 -0.38094,0.37573 -0.19506,0.228 -0.50094,0.6584 -0.3136,0.4824 -0.27,0.48227 -0.0991,0.196 -0.226,0.4716 -0.19187,0.41666 -0.3292,0.5684 c -0.18347,0.29494 -0.3612,0.80187 -0.38147,1.2284 l 0.0683,1.63574 0.28267,0.81306 1.19546,1.69547 c 0.42107,0.65707 0.6588,1.1668 1.00254,1.482 l 0.38413,0.2556 c 0.7168,0.53147 1.75373,0.97933 2.57627,1.71 0.25426,0.22573 0.27733,0.61493 0.0515,0.8692 -0.17373,0.1956 -0.45213,0.26 -0.69426,0.16067 -0.7768,-0.31907 -1.7756,-0.4132 -2.77894,-0.71467 l -0.99653,-0.56933 c -0.78533,-0.6056 -1.19307,-1.34907 -1.49907,-1.73227 -0.442,-0.602 -0.97346,-1.19667 -1.39493,-1.90693 -0.296,-0.50547 -0.47773,-1.03947 -0.5924,-1.5904 -0.16867,-0.73694 -0.21373,-1.49947 -0.20987,-2.1776 0.0177,-0.95787 0.28627,-1.80947 0.6856,-2.5048 l 0.2296,-0.3788 0.2108,-0.424 0.232,-0.484 0.13854,-0.2724 0.3272,-0.58534 0.40133,-0.63253 0.63013,-0.81827 0.39307,-0.42466 0.3648,-0.36574 0.538,-0.56133 0.58813,-0.48493 0.55747,-0.366 0.45147,-0.2084 0.8024,-0.4268 0.33746,-0.18267 0.39107,-0.19467 0.26387,-0.11813 0.58226,-0.2628 0.47947,-0.2072 0.59093,-0.1844 0.6828,-0.1156 1.04974,-0.12293 0.50626,-0.0255 1.11187,-0.14507 1.0008,0.0305 z m -5.3592,-9.162 c 0.0204,0.12293 0.003,0.24906 -0.052,0.36106 l -0.026,0.0512 c -0.12413,0.23627 -0.37053,0.38267 -0.63746,0.37867 l -2.0532,0.19093 c -0.62787,0.0684 -1.3092,0.24387 -1.74547,0.42134 l -0.82467,0.4312 -0.33213,0.20133 -0.3524,0.2104 -0.368,0.26947 -0.32347,0.24906 -0.57866,0.71867 -0.224,0.38893 -0.1232,0.2524 -0.522,1.81494 -0.0597,0.56186 -0.0981,0.65054 c -0.15787,0.92266 -0.1844,1.9388 -0.13373,2.9512 l 0.1356,0.7876 0.4296,1.306 0.67213,1.1204 0.33933,0.64133 0.27187,0.43413 0.39613,0.47067 0.33467,0.3396 0.55987,0.66133 c 0.46026,0.77387 0.70306,1.21374 1.40946,1.58254 0.28454,0.14853 0.39467,0.4996 0.24614,0.784 -0.11414,0.21853 -0.35374,0.34133 -0.59774,0.30613 -1.07093,-0.15387 -1.87906,-0.6348 -2.52986,-1.084 l -0.64134,-0.58053 -0.4432,-0.4396 -0.61426,-0.7076 -0.40387,-0.6424 -0.3276,-0.59587 -0.746,-1.19493 c -0.31453,-0.59574 -0.4896,-1.1676 -0.65427,-1.86814 l -0.19826,-1.20106 c -0.0541,-1.14027 -0.0272,-2.3168 0.17053,-3.45254 l 0.1064,-0.55613 0.0724,-0.66667 c 0.1376,-0.7888 0.38507,-1.57306 0.6528,-2.2596 l 0.2312,-0.47946 0.41093,-0.6432 c 0.23267,-0.32854 0.53067,-0.75627 0.97987,-1.1284 l 0.47,-0.33627 0.57467,-0.35907 0.42426,-0.22653 0.26294,-0.13627 c 0.31413,-0.18386 0.7116,-0.4124 1.22986,-0.5736 0.71614,-0.18386 1.52827,-0.30786 2.32574,-0.30106 0.8196,0.0443 1.6292,0.10453 2.3736,0.29333 0.25853,0.0656 0.45826,0.27093 0.51666,0.5312 z m 7.8428,-11.173869 c -0.0313,-0.1004 -0.0423,-0.206133 -0.0321,-0.310933 0.0493,-0.5088 0.2044,-0.479467 0.28733,-0.558934 0.16107,-0.154533 0.37534,-0.241066 0.5984,-0.241866 l 0.3472,0.004 c 1.82174,-0.08667 3.67947,0.110933 5.54894,0.0676 1.6604,-0.02373 3.45706,-0.3476 5.34413,-0.446267 l 4.52307,0.0093 c 2.94,0.09027 5.32533,0.4856 7.7944,0.6116 2.14906,0.117734 3.94866,0.279734 5.85226,0.208934 1.8248,-0.078 3.5132,0.012 5.33347,-0.1764 l 4.26693,-0.2268 6.74374,-0.008 3.35813,0.05667 2.81493,0.02467 1.77867,0.229467 0.7964,0.06693 0.73346,0.07893 0.72827,0.04747 0.55067,0.0336 c 2.58293,0.1732 5.01346,0.374933 7.29826,0.182133 2.91827,-0.310266 5.65547,0.09 8.14654,-0.1928 1.44906,-0.137333 2.84333,-0.118266 4.20373,-0.108933 l 2.08907,-0.0027 1.07053,0.0588 0.17947,-0.022 0.31333,-0.0172 0.22507,-0.01427 c 0.0712,-0.0053 0.14293,-0.0053 0.214,0.0027 l 0.10853,0.012 c 0.60867,0.06933 1.046,0.618934 0.97667,1.2276 -0.0523,0.458938 -0.38347,0.837468 -0.83134,0.950268 l -0.14773,0.0333 c -0.0701,0.0143 -0.14133,0.022 -0.2128,0.0228 l -0.2732,1.4e-4 -0.31827,-0.008 -0.3656,-0.0239 -0.90026,0.0521 -2.10667,0.082 c -1.36733,0.0249 -2.6812,0.0439 -3.9396,0.19507 -2.90093,0.29507 -5.62453,-0.14133 -8.22093,0.10467 -2.50907,0.29333 -5.0696,0.15146 -7.64867,0.0559 l -0.53653,-0.0133 -0.78614,-0.0357 -0.75746,-0.0525 -0.93347,-0.1 -1.54867,-0.16053 -2.90879,-0.1064 -3.1448,-0.0339 -6.74067,-0.008 -4.0296,0.16427 c -2.04973,0.17587 -3.80867,0.0429 -5.50507,0.0819 -2.07933,0.0587 -3.96,-0.13294 -6.06253,-0.26574 -2.62493,-0.17506 -4.96387,-0.60613 -7.74893,-0.729864 l -4.338,-0.02707 c -1.73747,0.02387 -3.574,0.286534 -5.44027,0.238934 -2.02973,-0.0697 -3.86,-0.377467 -5.5756,-0.405467 l -0.2292,0.01813 c -0.2212,0.022 -0.44253,-0.0416 -0.61827,-0.177733 -0.0767,-0.05947 -0.18426,0.0027 -0.3244,-0.444667 m 2.9512,51.015067 c -0.16466,0.0967 -0.35786,0.13253 -0.54613,0.10133 l 0.0971,0.009 c -0.46,-0.0185 -0.81787,-0.40653 -0.7992,-0.86653 0.0185,-0.45987 0.40653,-0.81773 0.86653,-0.7992 0.45987,0.0187 0.81773,0.40653 0.7992,0.86653 -0.0153,0.37774 -0.28293,0.698 -0.65187,0.78 -0.1172,0.0261 0.2912,-0.1252 0.2344,-0.0919 m 0.004,0.0501 c -0.4908,0.21253 -1.06106,-0.0133 -1.2736,-0.504 -0.0769,-0.17747 -0.0988,-0.374 -0.0631,-0.56413 0.14626,-0.77627 0.70893,-0.9284 1.03866,-1.0532 0.12334,-0.0465 0.25374,-0.0713 0.38547,-0.0733 l 0.68693,0.0256 3.78987,-0.003 4.1304,-0.0701 3.8104,-0.37026 c 1.16213,-0.14507 2.16387,-0.0525 3.1756,-0.0593 l 4.2128,-0.0247 3.30013,0.007 0.80894,0.0748 0.62813,0.10067 0.58587,0.11253 1.5768,0.0495 0.85013,-0.004 0.3956,-0.001 2.64107,0.0241 2.90253,0.0805 1.0944,-0.012 0.47613,-0.005 0.46507,-0.0251 0.69027,0.001 1.00746,0.0219 1.04534,-0.0527 0.43573,-0.0315 0.68907,-0.005 0.508,-0.038 c 1.73786,-0.12787 3.328,-0.0464 5.04706,-0.1932 l 5.35027,-0.35853 c 1.2356,-0.10094 2.60506,-0.112 4.19613,-0.0775 2.29693,0.0463 4.00467,0.4708 5.81307,0.56227 l 5.00893,0.0403 c 1.9292,0.0563 3.45547,0.26387 5.03587,0.39654 l 3.43773,0.0271 c 1.3924,0.114 2.53507,0.3364 3.11653,0.1308 0.55987,-0.19773 1.174,0.0956 1.37187,0.65547 0.1884,0.53333 -0.0685,1.12133 -0.58787,1.34533 -1.41,0.60827 -2.8468,0.26094 -3.98946,0.23334 -1.1604,-0.0635 -2.2956,0.0473 -3.53747,-0.0483 -1.6328,-0.10707 -3.09787,-0.27573 -4.89427,-0.29987 l -5.07666,-4e-4 c -2.0684,-0.0892 -3.72134,-0.48893 -5.74294,-0.51626 -1.53973,-0.0191 -2.8256,0.008 -3.9196,0.1124 l -5.36399,0.37973 c -1.91694,0.1496 -3.5348,0.054 -5.08374,0.1552 l -0.65493,0.0367 -0.60787,-0.003 -0.44613,0.009 -1.13453,0.0616 -1.00067,0.0217 -0.64067,0.004 -0.59253,-0.0285 -0.39813,-0.003 -1.2464,-0.012 -2.77187,-0.0755 -2.66027,-0.0515 -0.376,-0.001 -0.84213,-0.004 c -0.54867,0.007 -1.22667,0.0341 -1.94547,-0.0609 l -0.61386,-0.0865 -0.592,-0.0988 -0.5816,-0.0791 -3.21294,-0.0271 -4.18253,-0.0655 c -1.11347,-2.7e-4 -2.01187,-0.0835 -2.88067,0.0184 -1.38106,0.15013 -2.73506,0.27453 -4.04453,0.28973 l -4.2032,-0.0365 -3.8212,0.0403 -0.3816,0.0605 c -0.12853,0.0277 -0.26093,0.0329 -0.3912,0.0155 l -0.1628,-0.0155 0.0277,-0.003 c -0.0328,0.004 0.27334,-0.0912 0.1824,-0.0519 m 82.86387,-45.70494 c -0.45987,0.4296 -1.18107,0.40494 -1.61054,-0.0551 -0.41706,-0.44654 -0.40773,-1.14267 0.0213,-1.57774 0.59453,-0.60306 0.89146,-0.4492 1.23066,-0.48666 1.27067,-0.16014 2.32707,0.3328 2.99387,0.55066 0.58973,0.206 1.46027,0.27494 2.42653,0.71187 l 1.07867,0.39827 0.44147,0.17386 0.37026,0.10374 0.88667,0.34813 0.47053,0.23507 0.4524,0.0572 c 1.21654,0.27293 1.93574,0.9964 2.4344,1.30226 l 1.02187,0.77134 0.40227,0.2808 c 0.41133,0.3236 0.59266,0.64013 0.7328,0.81626 l 0.3628,0.3992 c 0.5356,0.54227 0.58533,1.02947 0.67066,1.18547 l 0.24494,0.2848 0.2608,0.31053 0.42426,0.68907 c 0.3068,0.53307 0.68947,0.7388 1.29534,1.36613 1.1712,1.26174 1.73453,3.00654 2.0572,4.7396 0.1764,0.94267 0.54573,2.024 0.65973,3.2584 l 0.27547,1.41894 c 0.26066,1.3836 0.19,2.54133 0.26773,3.72866 l -9.3e-4,2.1808 -0.14614,1.16214 c -0.19306,1.11133 -0.61653,2.11826 -0.97133,3.21133 -0.30907,0.95 -0.6376,1.7404 -1.1268,2.53507 l -0.74707,1.12733 -0.516,0.59187 -0.0652,0.0837 c -0.0468,0.0685 -0.1016,0.13147 -0.16306,0.18747 l -0.3624,0.41093 -0.94,1.3332 -1.01494,1.1132 -0.28773,0.3228 -0.43867,0.5264 -0.71506,0.6552 -0.62654,0.47133 -0.24746,0.1708 -0.38427,0.2864 -0.3524,0.27214 -0.66173,0.44 -1.29547,0.68773 -1.23027,0.6012 -0.856,0.3584 -1.77706,0.77107 -0.6896,0.2548 -2.052,1.0432 c -1.1276,0.552 -2.262,0.40293 -2.84707,0.51986 -0.62693,0.12534 -1.2368,-0.28133 -1.36213,-0.9084 -0.12534,-0.62706 0.28133,-1.23693 0.9084,-1.36226 0.0107,-0.003 0.0215,-0.004 0.0323,-0.007 1.03827,-0.17693 1.95587,-0.11387 2.3356,-0.28707 0.5356,-0.262 1.22734,-0.7456 2.07654,-1.1152 l 0.80373,-0.29506 1.69027,-0.69387 0.81853,-0.342 1.1884,-0.53107 1.27667,-0.584 0.35506,-0.24146 0.35427,-0.2712 0.502,-0.3604 0.28427,-0.15547 0.51146,-0.33067 0.57214,-0.45266 0.36,-0.434 0.27493,-0.278 1.0832,-1.0244 0.85693,-1.26974 0.15307,-0.49426 c 0.0319,-0.0767 0.0727,-0.14934 0.12133,-0.21654 l 0.242,-0.2904 0.38067,-0.4132 0.56293,-0.996 c 0.41,-0.6596 0.656,-1.23453 0.93867,-2.09053 0.3864,-1.16893 0.7696,-2.1016 0.91813,-2.92413 l 0.0915,-0.84054 -4e-4,-1.96426 c -0.0897,-1.32547 -0.0337,-2.36787 -0.24227,-3.46107 l -0.29613,-1.6164 c -0.11147,-0.8952 -0.47787,-1.8928 -0.72613,-3.0172 -0.32494,-1.46267 -0.91774,-2.83147 -1.56027,-3.4656 -0.38667,-0.39693 -1.09667,-0.8476 -1.6736,-1.84373 l -0.26533,-0.4876 -0.10827,-0.10507 c -0.15973,-0.18187 -0.39253,-0.39747 -0.59787,-0.80307 l -0.25706,-0.64666 -0.012,-0.0635 -0.4676,-0.53613 -0.33587,-0.4196 -0.36547,-0.25427 -0.83333,-0.62107 c -0.79173,-0.48786 -1.22507,-0.90493 -1.71333,-1.01533 l -0.7208,-0.13453 -0.68494,-0.298 -0.5232,-0.2032 -0.56266,-0.17094 -0.43827,-0.17 -1.25013,-0.4512 c -0.51387,-0.2404 -1.29547,-0.32613 -2.20694,-0.65893 -0.78466,-0.3052 -1.46573,-0.59387 -1.98693,-0.55187 l -0.15453,0.0239 0.0372,-0.0139 0.0893,-0.0449 c -0.0431,0.0252 0.23813,-0.19107 0.1688,-0.12653 m -85.28813,-6.234934 c 0.4116,-0.0336 0.77253,0.272667 0.80627,0.684267 0.0229,0.279733 -0.11267,0.5488 -0.3512,0.696667 l -0.3764,0.2172 -0.50747,0.23266 -0.1292,0.0853 c -0.14907,0.128 -0.33667,0.20253 -0.53293,0.2116 -0.32814,0.14973 -0.7124,0.0175 -0.868,-0.30107 -0.0205,-0.0423 -0.0364,-0.08653 -0.0473,-0.13213 l 0.0311,-0.699067 c 0.0568,-0.189733 0.176,-0.3548 0.33813,-0.4684 l 0.4268,-0.238 0.656,-0.223733 z m 1.02907,1.946534 c -0.1896,-0.2916 -0.10694,-0.681734 0.18466,-0.871334 0.23334,-0.151733 0.53854,-0.132266 0.75067,0.04773 l 0.59573,0.529466 0.38467,0.495868 0.39573,0.54227 c 0.43454,0.6308 0.7128,1.25533 0.96654,1.79906 l 1.00493,1.75934 c 0.47413,0.84866 0.76787,1.8064 1.07093,2.6536 l 0.17694,0.7492 0.33546,1.0324 0.16974,0.936 c 0.0864,0.44013 0.39586,0.8632 0.57466,1.60346 l 0.18854,1.14587 0.25386,1.12213 0.0871,0.562 0.29693,2.992 0.10507,1.162 0.024,0.70227 0.0516,0.44267 0.10293,1.15386 0.24947,3.1988 -0.0152,3.95867 c 0.0575,2.16613 -0.3648,4.21893 -0.59693,6.02973 l -0.36307,2.86094 -0.18147,1.3184 -0.10026,0.55013 -0.13614,0.68293 -0.17413,0.5372 -0.24867,0.95947 -0.42466,1.25893 -0.226,0.6812 -0.15094,0.3768 -0.3088,0.53587 -0.38586,0.8308 -0.33494,0.5232 -0.2312,0.64947 -0.71186,1.42546 -0.8908,1.13947 -0.4896,0.52693 -0.4864,0.43147 c -0.0888,0.0744 -0.19,0.13267 -0.29894,0.172 l -0.62693,0.2 c -0.39667,0.10813 -0.80587,-0.12573 -0.914,-0.5224 -0.0507,-0.1852 -0.0276,-0.38293 0.0643,-0.55173 l 0.26226,-0.4984 c 0.0521,-0.10307 0.12214,-0.19614 0.20654,-0.27507 l 0.364,-0.356 0.47533,-0.4672 0.726,-0.8968 0.4808,-1.02427 c 0.0555,-0.15533 0.10107,-0.50333 0.33813,-0.93346 l 0.29147,-0.4588 0.42813,-0.91054 0.236,-0.39 0.0715,-0.18813 0.20267,-0.67253 0.37893,-1.1076 0.17653,-1.00614 0.14267,-0.4552 0.0952,-0.56666 0.102,-0.5404 0.1676,-1.2588 0.52107,-2.86587 c 0.27533,-1.87067 0.6984,-3.8096 0.68053,-5.704 l 0.13947,-3.9804 -0.0607,-3.12253 -0.0963,-1.066 -0.0575,-0.5624 -0.0207,-0.67547 -0.12053,-0.99693 -0.324,-3.04734 -0.0685,-0.45253 -0.2476,-1.12133 -0.16146,-1.1104 c -0.0828,-0.43507 -0.38787,-0.9248 -0.50507,-1.71147 l -0.13493,-0.7796 -0.36507,-1.05507 -0.1352,-0.61213 c -0.30813,-0.87747 -0.59013,-1.77267 -0.94827,-2.42333 l -0.9956,-1.914 c -0.2456,-0.54374 -0.48026,-1.08054 -0.8384,-1.61254 l -0.36,-0.43906 -0.304,-0.3544 z m 79.20346,-0.739067 c 0.16587,-0.263733 0.51413,-0.343333 0.778,-0.177467 0.007,0.004 0.0141,0.0093 0.0211,0.01387 0.0997,0.0692 -0.19934,-0.07267 -0.18907,-0.07187 0.22267,0.01627 0.4232,0.140534 0.5372,0.332667 l 0.18493,0.1888 c 0.24414,0.124667 0.344,0.443997 0.38107,0.499327 l 0.11707,0.252 0.0412,0.1232 c 0.0183,0.0724 0.36693,0.23907 -0.2372,0.6732 -0.17747,0.12747 -0.40907,0.1512 -0.60854,0.0625 -0.4756,-0.2112 -0.2992,-0.23174 -0.39946,-0.38054 l -0.1552,-0.3916 -0.27974,-0.10386 c -0.1896,-0.12147 -0.30706,-0.32867 -0.314,-0.553867 z m 0.78573,0.971197 c 0.20227,-0.26867 0.584,-0.32253 0.85267,-0.12027 0.2688,0.20214 0.32267,0.584 0.1204,0.85267 -0.20227,0.26867 -0.584,0.32253 -0.85267,0.12027 -0.0807,-0.0607 -0.14493,-0.1404 -0.18706,-0.232 -0.0645,-0.1404 0.0947,0.14533 0.0847,0.1336 l 0.012,0.0137 0.19654,0.1352 -0.48054,-0.3284 -0.47946,-0.45453 0.0444,0.0235 0.1048,0.0215 0.12186,0.005 0.10947,-0.0107 c -0.048,0.008 0.3024,-0.1088 0.20413,-0.0635 -0.4192,0.19253 -0.91506,0.009 -1.10773,-0.41 -0.19267,-0.419197 -0.009,-0.915064 0.41,-1.10773 0.41907,-0.192667 0.91507,-0.0093 1.10773,0.41 0.0944,0.205466 0.10147,0.4404 0.0196,0.6512 -0.0445,0.11466 0.0583,-0.302134 0.0544,-0.243734 -0.007,0.104134 -0.0239,-0.261866 -0.0141,-0.214133 0.0164,0.0808 -0.0567,-0.171067 -0.0455,-0.1452 l 0.13894,0.233067 0.24893,0.38826 0.21013,0.262 -0.2024,-0.12693 -0.1256,-0.0297 c 0.0396,0.004 -0.25026,0.02 -0.1712,0.005 l -0.1532,0.0497 c 0.0639,-0.0307 -0.30053,0.2868 -0.22146,0.18174 m -0.21747,0.132 c -0.44347,0.158 -0.93107,-0.0733 -1.08907,-0.5168 -0.0147,-0.0412 -0.0261,-0.08334 -0.0343,-0.126134 -0.0644,-0.336533 0.15186,-0.718533 0.3392,-0.8544 0.55253,-0.400533 0.64906,-0.160266 0.74173,-0.138666 l 0.5064,0.209866 c 0.61013,0.409334 0.65507,0.7988 0.7288,0.916794 0.274,0.4736 0.6444,0.7804 1.024,1.4468 l 0.43,0.8844 0.2664,0.5348 0.14,0.2636 0.15093,0.34014 c 0.128,0.26373 0.10934,0.5752 -0.0493,0.82173 l -0.11227,0.1488 c -0.0193,0.0205 -0.0401,0.0396 -0.0621,0.0573 l -0.32307,0.1532 c -0.2852,0.0733 -0.58813,-0.008 -0.79826,-0.21426 l -0.26974,-0.29907 -0.2604,-0.46373 -0.2784,-0.6904 -0.31253,-0.68134 c -0.23533,-0.3688 -0.63187,-0.65586 -1.06893,-1.3384 l -0.214,-0.396 -0.0349,-0.0583 c -0.003,-0.004 0.14227,0.11866 0.0821,0.0755 l -0.13747,-0.1 -0.0243,-0.0145 0.0409,0.0196 0.0997,0.0359 c -0.0325,-0.009 0.2252,0.0361 0.15107,0.0288 -0.0815,-0.008 0.52773,-0.10227 0.36773,-0.0452 m -0.4188,-0.5076 c -0.1744,0.25853 -0.52533,0.32653 -0.78373,0.152 -0.0107,-0.007 -0.0201,-0.014 -0.0297,-0.0215 -0.001,-10e-4 0.22,0.11067 0.0988,0.0568 -0.30546,-0.136 -0.4428,-0.493997 -0.3068,-0.799464 0.136,-0.305466 0.494,-0.4428 0.79947,-0.3068 0.30533,0.136134 0.4428,0.494 0.30667,0.799467 -0.0947,0.212797 -0.3032,0.352397 -0.536,0.358927 -0.17,0.004 0.3868,-0.1532 0.31986,-0.1056 -0.0636,0.0451 0.15934,-0.17506 0.13147,-0.13386 m -1.0604,-0.163334 c -0.0333,-0.0848 -0.0499,-0.175333 -0.0484,-0.266533 0.009,-0.600667 0.33747,-0.6276 0.49373,-0.697467 l 0.36334,-0.09733 c 0.12986,-0.01733 0.262,-0.0053 0.38653,0.03493 l 0.63253,0.209334 0.976,0.598133 0.7288,0.628527 c 0.56307,0.69987 1.044,1.3376 1.2164,2.01094 0.0847,0.33053 -0.1148,0.6672 -0.44533,0.75186 -0.23213,0.0595 -0.4776,-0.0205 -0.63,-0.20533 l -1.306,-1.1096 -0.74853,-0.67613 -0.4976,-0.304 -0.58174,-0.2776 c -0.1168,-0.0568 -0.21946,-0.13894 -0.30066,-0.24014 -0.0692,-0.0864 -0.0949,0.007 -0.23907,-0.359594 m 0.86533,-0.05267 c -0.2888,-0.180934 -0.37626,-0.561867 -0.1952,-0.850667 0.0107,-0.01787 0.0231,-0.03507 0.036,-0.0516 l 0.0745,-0.09453 c 0.11973,-0.150534 0.29386,-0.248 0.4848,-0.271067 0.4756,-0.05747 0.95266,0.103867 1.2716,0.347333 0.42986,0.394667 0.59866,0.751067 0.75813,0.9568 0.18293,0.334395 0.22213,0.397065 0.39587,0.435995 0.30413,0.068 0.49546,0.3696 0.42746,0.67374 -0.0519,0.23186 -0.24333,0.4064 -0.47906,0.4364 -0.5656,0.0724 -1.10827,-0.17827 -1.45707,-0.4652 l -0.65147,-0.81307 -0.188,-0.1144 c -0.1912,-0.003 -0.37373,-0.08013 -0.50853,-0.215731 z m 0.93747,1.724004 c -0.16493,-0.28147 -0.0704,-0.6432 0.21107,-0.808 0.16253,-0.0953 0.36093,-0.1072 0.53373,-0.0321 l 0.49253,0.24227 c 0.0649,0.0359 0.12414,0.0813 0.1756,0.13467 0.40814,0.42293 0.7776,0.92573 1.11854,1.52693 l 0.68133,1.2704 0.17613,0.42587 0.38974,0.6368 0.3632,0.72333 0.41146,0.88893 0.2272,0.6732 0.15414,0.7752 c 0.18173,1.06787 0.33386,2.19427 0.60626,3.19867 l 0.46334,1.95573 0.19013,1.02734 0.13227,0.554 0.382,2.22746 0.1476,0.72507 c 0.16746,0.97667 0.17453,1.85133 0.162,2.7916 l 0.0173,2.4972 -0.0816,3.82827 0.003,3.05973 -0.0537,1.0324 -0.15666,2.8776 -0.25814,1.238 -0.5252,2.71747 -0.23253,1.3824 -0.0768,0.50773 -0.3176,1.7972 -0.65867,2.87787 -0.15933,0.588 -0.32627,0.86493 -0.1692,0.66787 c -0.0895,0.3328 -0.24266,0.75133 -0.56053,1.128 -0.3728,0.43386 -0.4632,0.35453 -0.53773,0.4056 -0.0745,0.0524 0.17933,-0.17507 0.1596,-0.14827 l -0.21,0.39853 -0.494,0.54347 -0.49694,0.39947 -0.28053,0.22306 -0.42667,0.27454 -0.53026,0.23626 -0.56267,0.14467 -0.0321,0.0156 c -0.1372,0.0384 -0.2804,0.0507 -0.422,0.0361 l -0.30614,-0.042 c -0.56213,-0.0967 -0.93946,-0.63066 -0.8428,-1.1928 0.0447,-0.2596 0.18694,-0.4924 0.3976,-0.65066 l 0.12334,-0.0996 c 0.10973,-0.0953 0.23693,-0.16867 0.37453,-0.21614 l 0.0824,-0.0303 0.11493,-0.0833 0.33214,-0.1944 0.35653,-0.1992 0.30773,-0.17613 0.32774,-0.2536 c 0.0383,-0.0501 0.0636,-0.47733 0.74786,-0.91627 l 0.25827,-0.1428 -0.0347,0.0217 c 0.0344,-0.0231 -0.20946,0.19866 -0.1488,0.13106 l 0.116,-0.2572 0.22787,-0.81653 0.32853,-0.72467 0.1452,-0.48026 0.73054,-2.7584 0.33413,-1.70374 0.0791,-0.50266 0.3056,-1.51747 0.51786,-2.64 0.24187,-1.08107 0.15387,-2.7812 0.10106,-0.992 0.0835,-3.02146 0.10973,-3.86387 0.0531,-2.44227 c 0.005,-0.89373 -0.009,-1.63733 -0.15027,-2.42826 l -0.12666,-0.79374 -0.3096,-2.09026 -0.13774,-0.63654 -0.18933,-1.00546 -0.46493,-1.83467 c -0.3096,-1.15693 -0.46054,-2.33667 -0.63294,-3.37267 l -0.11746,-0.61106 -0.15054,-0.43694 -0.41226,-0.842 -0.27547,-0.6704 -0.4108,-0.8248 -0.13187,-0.37853 -0.5528,-1.1856 -0.85946,-1.23107 c -0.05,-0.0544 -0.0917,-0.116 -0.12374,-0.18253 l -0.20146,-0.37933 z"
       style="fill-opacity:1;fill-rule:nonzero;stroke:none"
       id="path1-6" />
    <path
       d="m 327.40135,126.30105 c 0,0.52333 -0.42427,0.94747 -0.94747,0.94747 -0.52333,0 -0.94747,-0.42414 -0.94747,-0.94747 0,-0.5232 0.42414,-0.94747 0.94747,-0.94747 0.5232,0 0.94747,0.42427 0.94747,0.94747 m -1.52894,-5.8372 c 0.003,-0.4692 0.3856,-0.8472 0.8548,-0.8444 0.4536,0.003 0.82507,0.36147 0.84374,0.8148 l -0.0435,2.1 -0.0745,1.12667 -0.0107,0.52333 10e-4,0.27827 -10e-4,0.83106 -0.009,0.28654 -0.0235,0.28973 -0.012,0.15413 0.007,-0.0508 0.004,0.11867 -0.005,0.1656 -0.003,0.0729 c -0.0163,0.52307 -0.45334,0.93387 -0.9764,0.91774 -0.52307,-0.0161 -0.93387,-0.45334 -0.91774,-0.97627 8e-4,-0.0261 0.003,-0.0523 0.005,-0.0783 l 0.012,-0.0977 0.008,-0.0799 0.0317,-0.1728 0.0281,-0.11533 -0.007,-0.0308 0.0165,-0.21813 0.0199,-0.2572 0.0257,-0.77507 0.001,-0.25813 -0.0107,-0.58294 0.0956,-1.17773 0.13813,-1.964 z m 1.21547,9.86627 c 0.29573,0.3204 0.2756,0.81986 -0.0448,1.11546 -0.114,0.10534 -0.25667,0.17454 -0.40987,0.1992 -0.6276,0.10107 -0.94853,-0.29946 -1.13786,-0.59333 l -0.23174,-0.59147 c -0.0475,-0.2892 0.0301,-0.58493 0.21347,-0.8136 0.13973,-0.17426 0.35853,-0.35133 0.6532,-0.41933 0.97747,-0.0952 1.0164,0.25067 1.19747,0.52213 l -0.18907,-0.1992 c 0.44467,0.33147 0.38467,0.5976 0.40547,0.6704 0.0195,0.0793 0.0961,0.14467 0.0619,0.46227 l -0.12066,-0.4884 c 0.1944,0.28893 0.22853,0.6232 0.15306,0.946 -0.0247,0.10587 -0.0685,0.20627 -0.1292,0.2964 -0.18693,0.2776 -0.42,0.39133 -0.59346,0.45933 l 0.43506,-0.3564 -0.144,0.19014 c -0.12586,0.16493 -0.29706,0.28946 -0.49266,0.35826 -0.36187,0.12747 -0.89934,0.12014 -1.3176,-0.20426 -0.16587,-0.12867 -0.29347,-0.30027 -0.36894,-0.49627 l -0.0857,-0.71013 0.12293,-0.48814 c 0.0341,-0.0789 0.0773,-0.15346 0.12894,-0.22226 l 0.52626,-0.43494 c 0.51667,-0.24306 1.1324,-0.0213 1.3756,0.4952 0.12587,0.26774 0.1312,0.5764 0.0144,0.84814 -0.0501,0.1168 0.0535,-0.36694 0.056,-0.28694 0.003,0.0841 -0.004,0.1684 -0.0208,0.25094 -0.0152,0.076 -0.0183,-0.33547 -2.6e-4,-0.24214 0.005,6.7e-4 -0.38894,-0.592 -0.24947,-0.45973 0.15133,0.1436 0.2608,0.32547 0.31693,0.5264 0.0435,0.15587 -0.39746,-0.54587 -0.26813,-0.43093 0.12747,0.11346 -0.52333,-0.2188 -0.4,-0.1972 0.20373,0.0356 0.39253,0.12986 0.5436,0.2712 0.0964,0.0903 -0.15667,-0.10627 -0.1364,-0.0973 l -0.56747,-0.0563 -0.0788,0.028 c 0.0457,-0.0212 -0.2516,0.20293 -0.18146,0.1308 0.0751,-0.0772 0.16346,-0.1404 0.26106,-0.18627 0.0961,-0.0452 -0.21933,0.26947 -0.17826,0.17787 l -0.036,0.5016 c -0.0317,-0.11107 0.0952,0.188 0.0876,0.17826 l -0.0919,-0.11973 -0.0648,-0.10813 0.0684,0.0751 c -0.0448,-0.0405 0.32467,0.1652 0.22093,0.12907 l 0.27694,0.0448 c -0.0107,1.3e-4 0.26533,-0.0821 0.15546,-0.0376 -0.0629,0.0256 0.3468,-0.26787 0.24934,-0.16907 -0.10387,0.10534 0.26573,-0.65466 0.23533,-0.468 -0.0835,0.2992 -0.0139,-0.26346 -0.004,-0.19733 0.0455,0.29027 -0.0347,0.58627 -0.22053,0.81387 -0.1104,0.1352 0.14266,-0.36387 0.134,-0.29214 l -0.001,-0.0956 -0.0251,-0.0733 c 0.0168,0.0377 -0.16294,-0.2196 -0.1036,-0.15533"
       style="fill:#002f45;fill-opacity:1;fill-rule:nonzero;stroke:none"
       id="path1-39" />
  </g>
</svg>
