<?xml version="1.0" encoding="UTF-8" standalone="no"?>
<!-- Created with Inkscape (http://www.inkscape.org/) -->

<svg
   version="1.1"
   id="svg1"
   width="124.37439"
   height="53.039635"
   viewBox="0 0 124.37439 53.039635"
   sodipodi:docname="temperature.svg"
   inkscape:version="1.3.2 (091e20e, 2023-11-25)"
   xmlns:inkscape="http://www.inkscape.org/namespaces/inkscape"
   xmlns:sodipodi="http://sodipodi.sourceforge.net/DTD/sodipodi-0.dtd"
   xmlns="http://www.w3.org/2000/svg"
   xmlns:svg="http://www.w3.org/2000/svg">
  <sodipodi:namedview
     id="namedview1"
     pagecolor="#ffffff"
     bordercolor="#000000"
     borderopacity="0.25"
     inkscape:showpageshadow="2"
     inkscape:pageopacity="0.0"
     inkscape:pagecheckerboard="0"
     inkscape:deskcolor="#d1d1d1"
     inkscape:zoom="4.4495027"
     inkscape:cx="62.254148"
     inkscape:cy="26.519817"
     inkscape:window-width="1312"
     inkscape:window-height="449"
     inkscape:window-x="0"
     inkscape:window-y="25"
     inkscape:window-maximized="0"
     inkscape:current-layer="g1" />
  <defs
     id="defs1">
    <clipPath
       clipPathUnits="userSpaceOnUse"
       id="clipPath39">
      <path
         d="M 0,0 H 612 V 803.25 H 0 Z"
         id="path39" />
    </clipPath>
    <clipPath
       clipPathUnits="userSpaceOnUse"
       id="clipPath41">
      <path
         d="M 0,0 H 612 V 803.25 H 0 Z"
         id="path41" />
    </clipPath>
  </defs>
  <g
     id="g1"
     transform="translate(-433.57422,-96.71064)">
    <path
       id="path40"
       clip-path="url(#clipPath41)"
       style="fill:#ff00de;fill-opacity:1;fill-rule:nonzero;stroke:none"
       transform="matrix(1.3333333,0,0,-1.3333333,0,1071)"
       d="m 362.4755,710.5608 c 0.1701,-0.1603 0.178,-0.4281 0.0178,-0.5981 -0.1074,-0.114 -0.2689,-0.1593 -0.4199,-0.1179 l 0.0467,-10e-4 c -0.0278,-10e-4 0.1915,0.056 0.1302,0.0304 -0.033,-0.0138 0.1608,0.1096 0.1166,0.0719 -0.0469,-0.04 0.1834,0.3489 0.1443,0.2208 -0.0779,-0.2547 -0.3476,-0.3981 -0.6023,-0.3202 -0.2547,0.0779 -0.3981,0.3476 -0.3202,0.6023 0.0779,0.2547 0.3476,0.3981 0.6023,0.3202 0.1358,-0.0416 0.2464,-0.1408 0.3023,-0.2714 0.0465,-0.1086 -0.0742,0.1188 -0.0665,0.1098 l 0.0487,-0.0464 z m -0.7228,0.1622 c 0.0928,0.06 0.2022,0.089 0.3125,0.0827 0.3845,-0.022 0.2574,-0.0745 0.314,-0.0985 0.063,-0.0268 0.1211,-0.0641 0.1716,-0.1105 l 0.3093,-0.1671 0.2153,-0.0341 0.2825,0.2584 c 0.1736,0.2311 0.3539,0.5516 0.6445,0.8013 0.1773,0.1523 0.4444,0.1321 0.5967,-0.0452 0.1309,-0.1523 0.1367,-0.3755 0.0139,-0.5344 l -0.3949,-0.7555 c -0.16,-0.3177 -0.3648,-0.7382 -0.9007,-0.884 -0.346,-0.0589 -0.6069,-0.0137 -0.8411,0.0642 -0.2931,0.0979 -0.533,0.2307 -0.7294,0.4043 -0.0512,0.0453 -0.0944,0.0991 -0.1276,0.159 l -0.0961,0.244 c -0.0247,0.1099 -0.2335,0.3156 0.2295,0.6154 m 19.0208,9.3157 c -0.0278,-0.2343 -0.2403,-0.4018 -0.4747,-0.374 -0.1622,0.0192 -0.2992,0.1292 -0.3531,0.2834 l 0.0172,-0.0327 0.0584,-0.0729 0.0798,-0.0617 c -0.0406,0.0245 0.3421,-0.0692 0.2156,-0.0642 -0.2539,0.0101 -0.4517,0.2241 -0.4416,0.478 0.01,0.254 0.2241,0.4517 0.478,0.4417 0.254,-0.01 0.4517,-0.2241 0.4417,-0.478 -0.005,-0.1223 -0.0582,-0.2376 -0.1482,-0.3205 -0.0697,-0.0641 0.1062,0.1452 0.093,0.1203 -0.0382,-0.0722 0.0372,0.1021 0.0357,0.0947 l -0.002,-0.0141 z m -0.501,0.618 c 0.1179,0.0134 0.2366,-0.0169 0.3336,-0.0852 0.3294,-0.2321 0.1874,-0.2465 0.2019,-0.2911 0.0225,-0.0689 0.03,-0.1418 0.0221,-0.2139 l 0.0339,-0.5943 c 0.1286,-0.2282 0.0479,-0.5175 -0.1803,-0.6461 -0.2085,-0.1175 -0.4719,-0.0612 -0.6142,0.1311 -0.3316,0.4481 -0.2517,0.8972 -0.2585,1.1511 -0.002,0.0725 0.0115,0.1447 0.0396,0.2116 0.0291,0.0694 -0.1381,0.2733 0.4219,0.3368 m -14.1287,1.002 c -0.1003,0.2428 0.0152,0.521 0.258,0.6213 0.23,0.095 0.4944,-0.003 0.6065,-0.2255 0.4639,-0.9205 0.851,-1.8588 0.914,-2.9044 0.0283,-0.3566 -0.0151,-0.7258 -0.0784,-1.0447 -0.1225,-0.535 -0.3786,-0.9013 -0.5709,-1.1715 l -0.9437,-1.3065 c -0.5983,-0.7938 -1.067,-1.8275 -1.4256,-2.9709 -0.2203,-0.6594 -0.2557,-1.6981 -0.234,-2.8192 0.009,-0.872 0.1537,-1.6386 0.2966,-2.4384 l 0.1897,-1.5847 -0.358,-1.8007 -0.2659,-1.2342 c -0.0627,-0.2251 -0.296,-0.3568 -0.5211,-0.2941 -0.221,0.0615 -0.3528,0.288 -0.2969,0.5105 l 0.2236,1.196 c -0.0152,0.4841 -0.087,0.9708 -0.1959,1.4215 l -0.22,1.5061 c -0.1679,0.7882 -0.364,1.6517 -0.4031,2.6733 -0.0136,0.4642 -0.024,0.9258 -0.0118,1.3762 0.0367,0.1404 0.0493,0.1987 0.0632,0.2577 0.0617,0.0519 0.1082,0.123 0.1293,0.2071 0.0347,0.1377 0.0692,0.2838 0.1044,0.436 0.0979,0.0648 0.1665,0.172 0.1774,0.2981 0.012,0.1376 0.0557,0.2851 0.1221,0.4406 0.1633,0.3097 0.3599,0.6291 0.5924,0.9566 0.0298,0.0419 0.0503,0.0877 0.0619,0.1348 0.1088,0.1595 0.2204,0.3221 0.3287,0.4863 0.4071,0.4117 0.779,0.8012 1.0598,1.2675 0.1782,0.2958 0.3128,0.6298 0.3862,0.9999 0.1549,0.3302 0.2719,0.715 0.3604,1.1254 0.043,0.1992 0.0779,0.4027 0.1023,0.6074 l 0.1498,0.7521 c 0.0168,0.7962 -0.2299,1.6224 -0.601,2.5204 m 1.1219,0.473 c -0.3714,-0.0811 -0.7382,0.1542 -0.8193,0.5256 -0.0694,0.3179 0.0933,0.6411 0.3901,0.7746 0.7809,0.3512 1.6718,0.1994 2.4274,0.0252 l 1.2447,-0.5422 0.7398,-0.5777 c 0.263,-0.2325 0.7035,-0.5301 1.1392,-0.9757 l 0.5269,-0.5646 0.521,-0.5572 c 0.6714,-0.7993 1.1847,-1.8302 1.4709,-2.8858 0.4213,-1.6253 0.5065,-3.4535 0.5046,-5.1832 -0.0132,-0.714 -0.1329,-1.4156 -0.3055,-2.1035 l -0.4928,-1.5529 -0.3327,-0.8708 -0.9154,-1.3966 c -0.1454,-0.2052 -0.4295,-0.2537 -0.6347,-0.1083 -0.1406,0.0996 -0.2129,0.2702 -0.1868,0.4405 l 0.2482,1.4809 0.322,0.9708 0.3862,1.413 c 0.1404,0.6115 0.2235,1.1961 0.2218,1.7252 0.0238,1.6737 -0.0474,3.3884 -0.3866,4.7803 -0.1965,0.8478 -0.5968,1.7176 -1.0939,2.3588 l -0.4393,0.4317 -0.4968,0.5405 -1.0737,0.8135 -0.5255,0.3933 -0.8692,0.3355 c -0.6013,0.2385 -1.334,0.3608 -1.5706,0.3091 m 7.6531,-13.43 c -0.0559,-0.3181 -0.3591,-0.5305 -0.6771,-0.4746 -0.2776,0.0488 -0.4809,0.2888 -0.4834,0.5706 -0.004,0.457 0.0599,0.9431 0.1963,1.4165 l 0.2986,0.6465 0.5177,0.6916 c 0.4171,0.4483 0.9363,0.5932 1.2637,0.7099 0.6991,0.2064 1.3773,0.3993 1.7073,0.6333 l 0.3504,0.5538 0.2938,0.5028 c 0.403,0.4881 0.9937,0.5418 1.3915,0.4422 0.3442,-0.0861 0.6373,-0.2564 0.8809,-0.4806 0.1231,-0.2391 0.2395,-0.5033 0.3409,-0.7757 l 0.1002,-0.448 0.1618,-1.3265 0.0228,-1.2882 c -0.004,-0.4907 -0.006,-1.1084 -0.0174,-1.6387 l -0.059,-0.4843 -0.3298,-1.2095 c -0.1167,-0.2763 -0.2356,-0.5421 -0.3486,-0.8016 l -0.5704,-1.1294 -0.3246,-0.5129 -0.2691,-0.4842 -0.7379,-1.2171 -0.4111,-0.5018 -0.3403,-0.4172 -0.4691,-0.5129 -0.6519,-0.5225 c -0.5928,-0.4309 -1.1861,-0.8225 -1.8913,-1.153 l -0.5293,-0.2607 c -0.6174,-0.276 -1.2826,-0.6542 -1.9942,-0.9207 l -0.7213,-0.1651 c -0.6544,-0.0435 -1.5547,-0.2878 -2.0902,-0.3332 -0.341,-0.0289 -0.6409,0.2242 -0.6698,0.5652 -0.019,0.2252 0.086,0.4429 0.2742,0.5681 0.4727,0.3147 1.3379,0.6546 2.0742,0.8913 l 0.4904,0.1202 1.8529,0.9006 0.6125,0.253 c 0.5717,0.2379 1.0737,0.5317 1.6502,0.9138 l 0.4498,0.3479 0.5034,0.4252 0.3513,0.3595 0.2563,0.3154 0.6557,1.0992 0.3479,0.5545 0.2813,0.437 0.5072,0.9844 c 0.5172,1.1291 1.0103,2.0953 1.0817,3.4726 0.0608,1.2677 -0.092,2.4588 -0.473,2.8113 l -0.1972,0.0852 -0.1441,-0.2416 c -0.1847,-0.2936 -0.3937,-0.6969 -0.8388,-1.0018 -0.6387,-0.4786 -1.4411,-0.6665 -2.0681,-0.8665 -0.3978,-0.1038 -0.6273,-0.1717 -0.7464,-0.2806 l -0.3482,-0.4107 -0.1672,-0.3457 z m 5.264,10.9381 c -0.007,-0.3537 -0.3005,-0.6344 -0.6542,-0.6269 -0.3169,0.007 -0.5812,0.2442 -0.6218,0.5585 -0.0588,0.455 0.1043,0.8272 0.2226,1.0961 l 0.7692,1.3164 0.531,0.6411 0.2204,0.3129 c 0.299,0.3868 0.8186,0.6332 1.3403,0.1367 0.2767,-0.2455 0.2301,-0.5343 0.208,-0.6631 -0.0552,-0.3203 -0.1628,-0.4384 -0.1993,-0.5259 -0.1296,-0.3144 -0.1717,-0.91 -0.1724,-1.4802 l 0.0274,-0.4383 0.1322,-0.7179 0.0552,-0.4304 -0.002,-0.4743 -0.0347,-0.2243 -0.0827,-0.2168 c -0.0636,-0.1179 -0.1893,-0.5234 -0.8403,-0.4212 -0.4373,0.0686 -0.7361,0.4787 -0.6675,0.9159 0.0626,0.3986 0.4118,0.6886 0.8151,0.6768 0.1818,-0.005 -0.5855,-0.2134 -0.47,-0.1358 0.108,0.0726 -0.2606,-0.2812 -0.2166,-0.216 0.0798,0.1181 -0.1285,-0.3173 -0.1142,-0.2585 0.0245,0.1012 -0.0221,-0.217 -0.0221,-0.1828 10e-5,0.1018 0.007,-0.0977 0.006,-0.0941 l -0.0466,0.2579 -0.0667,0.4336 c -0.0646,0.7957 0.0658,1.5266 0.0467,2.0032 -0.0123,0.3051 0.2251,0.5624 0.5303,0.5747 0.2527,0.0101 0.4801,-0.1525 0.5521,-0.395 0.1948,-0.6552 0.2031,-1.3963 0.3488,-1.8767 l 0.132,-0.4164 0.0476,-0.1952 0.0193,-0.0727 0.0119,-0.0498 0.0121,-0.0684 c 0.006,-0.0453 0.1578,-0.0931 -0.1127,-0.5305 l -1.402,0.7724 c 0.0391,0.0804 -0.0696,-0.2119 -0.0608,-0.1731 0.015,0.0667 -0.0185,-0.1377 -0.0171,-0.1169 0.007,0.101 -0.002,-0.0301 -0.007,0.0287 l -0.0275,0.234 -0.0289,0.4209 -0.0645,0.7809 6e-4,0.6668 c 0.0589,0.6321 0.1209,1.3692 0.4697,2.0152 l 0.1445,0.2552 c 0.01,0.0202 -0.0255,-0.2118 -0.0217,-0.1372 0.002,0.0406 0.0257,-0.2189 0.0124,-0.1556 -0.0139,0.0662 0.1421,-0.2944 0.0922,-0.2195 -0.0329,0.0454 0.2009,-0.1877 0.1554,-0.1572 -0.0751,0.0501 0.2274,-0.0816 0.1812,-0.0739 -0.1234,0.0205 0.3511,0.1652 0.2778,0.0876 l -0.1491,-0.2352 -0.3529,-0.628 -0.7069,-1.1634 -0.2008,-0.4143 z M 363.395,708.7341 c 0,-0.2337 -0.1895,-0.4231 -0.4232,-0.4231 -0.2337,0 -0.4231,0.1894 -0.4231,0.4231 0,0.2337 0.1894,0.4231 0.4231,0.4231 0.2337,0 0.4232,-0.1894 0.4232,-0.4231 m 0.1414,0.6482 c 0.2196,0.0801 0.4625,-0.0329 0.5426,-0.2524 0.009,-0.0255 0.0161,-0.0519 0.0204,-0.0787 l 0.0145,-0.0859 c 0.003,-0.0134 -0.0496,0.1378 -0.0204,0.0615 0.1256,-0.3274 -0.0381,-0.6945 -0.3655,-0.82 -0.3274,-0.1255 -0.6945,0.0381 -0.82,0.3655 -0.1255,0.3274 0.0381,0.6945 0.3655,0.82 0.2869,0.11 0.6114,-10e-4 0.7704,-0.2641 0.0819,-0.1353 -0.2625,0.2376 -0.2022,0.2023 0.0857,-0.0501 -0.2663,0.0655 -0.2131,0.0642 z m -0.2579,0.02 c 0.3348,0.1186 0.7024,-0.0567 0.821,-0.3916 0.1047,-0.2954 -0.0189,-0.6233 -0.2925,-0.7762 -0.5054,-0.2824 -0.963,-0.0125 -1.1866,0.1199 -0.4594,0.2957 -0.9578,0.5713 -1.3921,1.088 -0.3122,0.377 -0.4979,0.7871 -0.6624,1.08 l -0.1591,0.2641 c -0.4557,0.83 -0.6584,1.8573 -0.6553,2.8656 0.0132,0.5146 0.0384,1.0488 0.1667,1.5335 l 0.2512,0.6089 0.2627,0.3497 0.2196,0.1885 c 0.1208,0.0765 0.3835,0.2202 0.7327,0.0544 0.3492,-0.1656 0.4979,-0.583 0.3322,-0.9321 -0.0975,-0.2054 -0.2887,-0.3507 -0.5127,-0.3895 -0.0816,-0.0141 0.2488,0.0945 0.1984,0.0677 -0.0882,-0.0467 0.1854,0.1468 0.158,0.1183 -0.0412,-0.0429 0.0487,0.0594 0.048,0.0584 l -0.105,-0.2107 -0.1191,-0.278 -0.0649,-1.1599 c -0.006,-0.7922 0.1707,-1.6105 0.4556,-2.1366 l 0.1583,-0.2561 0.4715,-0.9025 c 0.2241,-0.3105 0.5443,-0.5387 0.9816,-0.8677 l 0.1281,-0.0949 -0.0699,0.0177 c 0.0453,-0.005 -0.223,-0.0391 -0.166,-0.0189 m -2.1593,5.7094 c -0.3227,0.002 -0.5827,0.2649 -0.5808,0.5875 0.002,0.3226 0.2649,0.5827 0.5875,0.5808 0.3226,-0.002 0.5827,-0.2649 0.5808,-0.5875 -0.001,-0.2339 -0.142,-0.4444 -0.3576,-0.5351 -0.082,-0.0345 0.1453,0.0883 0.1236,0.0716 -0.064,-0.0494 0.077,0.076 0.0734,0.0711 l -0.0154,-0.0249 c -0.1302,-0.2226 -0.4162,-0.2976 -0.6388,-0.1674 -0.0848,0.0496 -0.1519,0.1247 -0.1915,0.2146 l 0.0345,-0.0484 0.0885,-0.0757 0.0945,-0.0486 c -0.043,0.0168 0.3135,-0.0387 0.2013,-0.038 m -0.6068,1.5717 c 0.1399,0.0815 0.3142,0.0759 0.4487,-0.0143 l 0.0933,-0.0695 c 0.1352,-0.1088 0.2085,-0.277 0.1959,-0.4502 -0.0376,-0.52 0.0818,-1.2478 -0.2868,-1.7966 -0.1302,-0.194 -0.3931,-0.2456 -0.5871,-0.1153 -0.1668,0.1119 -0.2318,0.3257 -0.1557,0.5115 l -0.0256,1.4078 c -0.0102,0.1731 0.0653,0.3402 0.2019,0.4472 z m 0.9776,-0.0552 c 0,-0.2998 -0.243,-0.5428 -0.5428,-0.5428 -0.2998,0 -0.5428,0.243 -0.5428,0.5428 0,0.2998 0.243,0.5428 0.5428,0.5428 0.2998,0 0.5428,-0.243 0.5428,-0.5428 m -1.043,-0.2109 c -0.1165,0.2762 0.0131,0.5946 0.2893,0.7111 0.2763,0.1165 0.5946,-0.0131 0.7111,-0.2893 0.004,-0.0103 0.008,-0.0207 0.012,-0.0313 0.1195,-0.3406 0.1057,-0.6884 0.0827,-1.0822 -0.0231,-0.3945 0.0145,-0.7627 -0.318,-1.1332 -0.189,-0.2105 -0.5129,-0.228 -0.7235,-0.039 -0.201,0.1804 -0.2274,0.4859 -0.0604,0.6981 0.085,0.108 0.0344,1.1004 0.007,1.1658 m -0.0244,0.1775 c 0.0163,0.242 0.2257,0.425 0.4678,0.4087 0.0818,-0.005 0.1605,-0.0338 0.227,-0.0817 l 0.306,-0.3804 c 0.033,-0.0619 0.0538,-0.1296 0.0611,-0.1994 l -0.0191,-0.9371 c -0.0499,-0.3211 -0.1078,-0.6929 -0.4956,-0.8963 -0.2147,-0.1125 -0.48,-0.0297 -0.5926,0.185 -0.094,0.1792 -0.0532,0.3995 0.0987,0.5332 0.0473,0.0417 -0.0304,-0.0429 -0.0179,0.007 0.0488,0.195 0.0255,0.6417 -0.0456,0.9114 -0.0179,0.0678 -0.0225,0.1385 -0.0137,0.2081 z m -0.2751,0.0818 c -0.0134,0.2342 0.1655,0.435 0.3998,0.4484 0.2283,0.0131 0.426,-0.1568 0.4473,-0.3845 0.0617,-0.6596 0.0546,-1.6839 -0.4598,-2.4911 -0.135,-0.2119 -0.4162,-0.2742 -0.628,-0.1392 -0.2119,0.135 -0.2742,0.4162 -0.1392,0.6281 0.002,0.003 0.004,0.007 0.007,0.01 0.326,0.483 0.4045,1.3849 0.3733,1.9283 m -0.1078,-0.5968 c 0.039,0.2313 0.2582,0.3872 0.4895,0.3482 0.1754,-0.0296 0.3137,-0.1652 0.3468,-0.3399 l 0.0171,-0.8372 c -0.1527,-0.5668 -0.3895,-1.0087 -0.636,-1.4049 l -0.6862,-0.6838 c -0.1738,-0.1563 -0.4413,-0.1422 -0.5976,0.0315 -0.1126,0.1252 -0.1403,0.3051 -0.0706,0.4583 l 0.3282,0.726 c 0.2881,0.4367 0.489,0.7826 0.6011,1.1162 z m 0.207,-0.2963 c 0.1618,0.1695 0.4303,0.1757 0.5998,0.0139 0.1237,-0.1181 0.1644,-0.299 0.1032,-0.4587 l -0.2537,-0.7707 -0.9797,-2.0007 c -0.1091,-0.2067 -0.3651,-0.2858 -0.5718,-0.1766 -0.171,0.0903 -0.2591,0.2851 -0.2138,0.4731 l 0.685,2.0762 z m -0.4538,-1.0502 c 0.1435,0.1854 0.4101,0.2194 0.5955,0.0759 0.1659,-0.1284 0.2132,-0.3587 0.1113,-0.542 -0.483,-0.8689 -0.7851,-1.5362 -0.805,-2.5326 l -0.1375,-2.3061 0.0686,-0.9647 0.006,-0.8792 c 0.0224,-0.2327 -0.1481,-0.4394 -0.3807,-0.4617 -0.1535,-0.0148 -0.3029,0.0552 -0.3899,0.1826 l -0.4378,0.8291 -0.1435,1.2668 c -0.0247,0.8156 0.037,1.6364 0.0963,2.3977 0.2017,1.3071 0.7877,2.1218 1.4163,2.9342 m -1.0136,-2.9984 c 0.0659,0.226 0.3025,0.3557 0.5285,0.2898 0.2092,-0.0611 0.3387,-0.2702 0.3001,-0.4847 -0.1432,-0.7946 -0.0786,-1.8047 -0.0278,-2.8152 0.0333,-0.7817 0.0998,-1.4966 0.2802,-2.1346 0.1515,-0.6124 0.3525,-1.3888 0.6348,-2.0987 l 0.3991,-0.7965 c 0.1844,-0.452 0.331,-0.7091 0.4846,-0.8559 0.1895,-0.1812 0.1962,-0.4816 0.015,-0.6711 -0.1264,-0.1323 -0.3177,-0.1801 -0.4916,-0.1229 -0.4313,0.1421 -0.806,0.4615 -1.1243,0.8371 l -0.5337,1.1314 c -0.3103,0.8061 -0.513,1.6379 -0.6543,2.2507 -0.1623,0.8282 -0.1645,1.637 -0.1371,2.4513 0.0417,1.0104 0.0552,2.0897 0.3265,3.0193 m 0.1509,-3.9081 c -0.003,0.2599 0.2055,0.473 0.4654,0.4759 0.2434,0.003 0.4488,-0.1806 0.4735,-0.4228 0.1215,-1.1893 0.3297,-2.4527 0.7525,-3.4939 0.1906,-0.4994 0.4208,-1.0109 0.6979,-1.4665 l 0.57,-0.7405 0.4335,-0.3651 c 0.0464,-0.0296 0.0894,-0.0644 0.128,-0.1036 0.2299,-0.2336 0.4936,-0.3881 0.8635,-0.4172 0.2474,-0.0195 0.4322,-0.2359 0.4127,-0.4834 -0.0145,-0.1849 -0.1412,-0.3419 -0.3189,-0.3952 -0.5755,-0.1725 -1.1996,-0.1255 -1.7596,0.1077 -0.0509,0.0212 -0.0992,0.0481 -0.144,0.0802 l -0.6622,0.6112 -0.6924,1.0391 c -0.3063,0.5572 -0.5395,1.1479 -0.7194,1.6969 -0.3876,1.2719 -0.4866,2.6339 -0.5005,3.8772 m 0.5375,-2.9445 c 0.0878,0.2377 0.3516,0.3592 0.5893,0.2715 0.1956,-0.0722 0.3179,-0.2673 0.2977,-0.4749 -0.01,-0.0967 0.0646,-0.1877 0.3458,-0.4943 l 0.3855,-0.598 0.372,-0.4805 0.5439,-0.5464 0.6128,-0.6055 0.2055,-0.2432 0.4163,-0.3801 0.4028,-0.4443 0.2407,-0.2594 0.8397,-0.3849 0.6129,-0.3386 c 0.0626,-0.0401 0.1196,-0.0881 0.1696,-0.1429 0.3575,-0.3916 0.5138,-0.6336 0.8452,-0.7643 0.239,-0.0943 0.3564,-0.3645 0.2621,-0.6036 -0.0639,-0.1621 -0.2131,-0.2749 -0.3866,-0.2923 -0.6253,-0.0624 -1.1766,0.1386 -1.6077,0.2762 -0.0704,0.0224 -0.1377,0.054 -0.1999,0.0939 l -0.3938,0.22 c -0.2888,0.133 -0.7918,0.2249 -1.2673,0.6807 l -0.401,0.5247 -0.2462,0.3754 -0.4501,0.4984 -0.1432,0.219 -0.4882,0.5946 c -0.1785,0.1767 -0.4251,0.375 -0.6363,0.698 l -0.3243,0.7496 -0.2694,0.3917 c -0.2676,0.4412 -0.5141,0.9546 -0.3278,1.4595 m 4.5703,-5.1696 c 0,-0.2719 -0.2203,-0.4922 -0.4921,-0.4922 -0.2718,0 -0.4922,0.2203 -0.4922,0.4922 0,0.2718 0.2204,0.4921 0.4922,0.4921 0.2718,0 0.4921,-0.2203 0.4921,-0.4921 m -2.7684,0.8666 c -0.2329,0.0489 -0.3821,0.2774 -0.3332,0.5103 0.0489,0.2329 0.2773,0.3821 0.5102,0.3332 0.3256,-0.0683 0.5935,-0.2604 0.8937,-0.4743 l 0.5086,-0.3947 0.3582,-0.2284 0.114,-0.0527 -0.0379,0.004 c 0.0251,-0.002 -0.2041,-0.0314 -0.1338,-0.0126 0.2299,0.0617 0.4662,-0.0747 0.5279,-0.3045 0.0615,-0.2294 -0.0741,-0.4653 -0.3033,-0.5275 -0.3763,-0.1023 -0.3789,0.0617 -0.4303,0.0996 l -0.4011,0.3335 -0.389,0.2919 c -0.0855,0.0654 -0.1745,0.1075 -0.2314,0.3153 -0.0347,0.1267 0.0589,0.4662 0.2878,0.541 0.1991,0.0651 0.2898,0.002 0.3533,-0.0286 0.3391,-0.1455 0.5553,-0.4337 0.8097,-0.6184 l 0.2557,-0.1285 0.183,-0.1067 0.0543,-0.047 -0.0326,0.0263 c 0.0179,-0.0132 -0.2244,0.0998 -0.1289,0.0671 0.2559,-0.0876 0.3924,-0.3661 0.3047,-0.622 -0.0876,-0.256 -0.3661,-0.3924 -0.622,-0.3047 -0.256,0.0876 -0.3924,0.3661 -0.3047,0.622 0.0306,0.0896 0.0866,0.1684 0.1611,0.2268 0.0681,0.0533 -0.1419,-0.175 -0.1197,-0.1371 0.0397,0.0679 -0.0649,-0.1925 -0.0578,-0.1544 0.0232,0.1244 0.0195,-0.2403 0.009,-0.2041 -0.0276,0.0936 0.1476,-0.1827 0.1057,-0.1547 l -0.3477,0.1918 -0.6626,0.5768 0.0989,-0.0361 c -0.0385,0.008 0.2509,0.0203 0.1722,0.002 -0.0737,-0.0169 0.3001,0.2297 0.2341,0.1473 -0.0573,-0.0717 0.0967,0.2876 0.0903,0.2217 -0.0104,-0.1066 -0.0501,0.2419 -0.0329,0.204 0.0425,-0.0936 -0.0623,0.0896 -0.0552,0.0842 l 0.3795,-0.2847 0.3154,-0.2625 0.0826,-0.0687 -0.0223,0.0126 -0.0733,0.0275 c 0.0426,-0.0111 -0.3114,-0.0289 -0.2115,-0.002 l 0.2247,-0.8321 c -0.4497,-0.1206 -0.4194,0.0537 -0.564,0.129 l -0.4827,0.3075 -0.4854,0.3777 -0.5711,0.333 z m 2.7683,-0.8537 c 0.007,-0.2717 -0.2073,-0.4978 -0.4791,-0.5049 -0.2717,-0.007 -0.4978,0.2073 -0.5049,0.479 -0.003,0.1027 0.0267,0.2036 0.0843,0.2887 0.0452,0.0669 -0.0866,-0.2555 -0.0774,-0.1966 0.0166,0.1067 0.0307,-0.2608 0.0165,-0.217 -0.0231,0.072 0.0607,-0.1191 0.0517,-0.1063 l -0.2722,0.2651 -0.2218,0.2154 -0.1797,0.1134 -0.0413,0.0226 0.0529,-0.0159 0.1046,-0.009 0.1108,0.0187 c -0.0489,-0.0147 0.2364,0.1546 0.1738,0.0981 -0.1892,-0.1708 -0.481,-0.1558 -0.6517,0.0334 -0.0708,0.0784 -0.1126,0.1788 -0.1183,0.2843 -0.0196,0.364 0.2738,0.4628 0.3884,0.4815 0.3359,0.0547 0.3186,-0.0584 0.3556,-0.0834 l 0.4781,-0.4043 0.3145,-0.2003 0.3985,-0.2507 0.244,-0.2231 -0.962,-0.4434 c -0.0144,0.0694 0.0842,-0.1873 0.0624,-0.1535 -0.0342,0.053 0.064,-0.0742 0.0597,-0.0706 l -0.2329,0.1649 -0.6998,0.6345 -0.4275,0.3537 -0.2331,0.1608 0.2068,-0.0724 c -0.0367,0.004 0.2573,0.0365 0.1714,0.0136 -0.2572,-0.0685 -0.5213,0.0845 -0.5898,0.3418 -0.0685,0.2573 0.0845,0.5214 0.3418,0.5899 0.2429,0.0647 0.4948,-0.0682 0.5785,-0.3052 0.0327,-0.0926 -0.0744,0.1355 -0.063,0.12 l 0.1779,-0.1099 0.4698,-0.3904 0.6868,-0.4974 c 0.045,-0.0304 0.3052,0.0958 0.5284,-0.4689 0.1103,-0.2792 -0.0266,-0.5949 -0.3057,-0.7052 -0.2791,-0.1103 -0.5948,0.0266 -0.7051,0.3057 -0.0299,0.0757 -0.0425,0.1572 -0.0367,0.2384 0.007,0.1052 0.0281,-0.2065 0.0185,-0.1747 -0.0251,0.0825 0.1323,-0.1817 0.0925,-0.1482 l -0.3267,0.2176 -0.3988,0.2765 -0.4825,0.5278 0.3469,0.7612 c 0.3341,0.003 0.256,-0.0701 0.2916,-0.0926 l 0.3797,-0.2885 0.2544,-0.1783 0.2587,-0.2076 0.114,-0.0957 c 0.0389,-0.0353 0.1843,0.0683 0.1965,-0.3929 m -2.4345,1.206 c 0.0357,0.2661 0.2804,0.453 0.5465,0.4173 0.007,-10e-4 0.0144,-0.002 0.0215,-0.003 0.3984,-0.0717 0.2337,-0.1054 0.2802,-0.1398 l 0.6281,-0.4718 0.2742,-0.2125 0.2864,-0.1982 0.1973,-0.175 c 0.0445,-0.0508 0.1086,0.1634 0.1605,-0.3398 0.0302,-0.2924 -0.1824,-0.5539 -0.4748,-0.5841 -0.0303,-0.003 -0.0609,-0.004 -0.0914,-0.002 -0.5099,0.0353 -0.3128,0.128 -0.3269,0.1403 l -0.0435,0.035 -0.352,0.2368 -0.2927,0.2266 -0.4702,0.4346 -0.1651,0.1694 -0.0695,0.0826 c -0.0262,0.0347 -0.1696,-0.0718 -0.1086,0.3836 m 2.1269,-0.715 c 0.2558,-0.1443 0.3462,-0.4686 0.202,-0.7245 -0.141,-0.2498 -0.4546,-0.3429 -0.709,-0.2103 -0.3526,0.1837 -0.3617,0.3388 -0.4798,0.4589 l -0.7561,0.769 -0.3175,0.3446 0.1438,-0.0823 0.121,-0.008 c -0.0406,-0.004 0.2066,0.0669 0.1484,0.0401 -0.0457,-0.0211 0.1961,0.1546 0.1466,0.1039 -0.0774,-0.0792 0.1532,0.473 0.1474,0.3417 -0.006,-0.1279 -0.1095,0.3517 -0.0725,0.2901 0.0759,-0.1903 -0.0124,0.009 -7e-4,-0.008 l 0.4829,-0.3717 c 0.666,-0.5142 1.2711,-0.9981 1.8343,-1.3297 0.5189,-0.3207 1.1481,-0.5718 1.8014,-0.6986 l 1.161,-0.2427 0.4282,-0.0771 0.4049,-0.0715 0.3872,-0.096 c 0.2151,-0.1054 0.3041,-0.3651 0.1987,-0.5802 -0.0753,-0.1537 -0.2339,-0.2488 -0.4049,-0.2427 l -0.4923,0.0607 c -0.3734,0.0628 -0.6781,0.2319 -0.9316,0.3018 l -0.3661,0.0613 0.0454,-0.005 0.0713,0.0418 c -0.023,-0.0175 0.1242,0.141 0.0888,0.0918 l 0.058,0.1073 c -0.0194,-0.0501 0.025,0.3098 0.0318,0.2127 0.0193,-0.2793 -0.1914,-0.5215 -0.4708,-0.5409 -0.2794,-0.0193 -0.5215,0.1914 -0.5409,0.4708 -0.0194,0.2794 0.1914,0.5215 0.4708,0.5409 0.0778,0.005 0.1558,-0.007 0.228,-0.0369 0.0891,-0.0367 -0.0714,0.0227 -0.0638,0.0211 l 0.2468,-0.0588 0.4284,-0.0715 0.8417,-0.2752 0.4016,-0.0556 0.1156,-0.8404 c -0.2244,-0.081 -0.283,-0.0428 -0.4244,-0.0451 l -0.4688,0.006 -0.455,0.079 -1.1669,0.1016 c -0.829,0.1401 -1.5882,0.4209 -2.2354,0.7983 -0.671,0.411 -1.2947,0.9325 -1.9408,1.4471 -0.2699,0.2201 -0.6685,0.2076 -0.8051,0.9057 -7e-4,0.3502 0.1924,0.5976 0.3778,0.6643 0.4612,0.1662 0.6092,-0.0629 0.7616,-0.243 l 0.3133,-0.3298 0.7854,-0.7342 0.2285,-0.2561 0.0571,-0.0636 c 0.007,-0.007 -0.1215,0.0753 -0.0573,0.0391 m 2.548,-1.9524 c -0.1401,0.1135 -0.2096,0.2926 -0.1827,0.4709 0.0518,0.3429 0.2351,0.3659 0.3141,0.3987 0.4014,0.1668 0.3988,0.0287 0.5127,0.008 l 0.327,-0.0509 1.0328,-0.0659 1.0748,0.0192 c 0.0612,0.009 0.1232,0.009 0.1845,0.001 l 0.4899,-0.0225 c 0.3083,0.013 0.5687,-0.2263 0.5818,-0.5346 0.009,-0.204 -0.0947,-0.3964 -0.2695,-0.5019 l -0.6443,-0.3063 c -0.0582,-0.0215 -0.119,-0.0353 -0.1808,-0.0409 l -1.3188,0.0291 -1.1665,0.2715 c -0.3339,0.0983 -0.4622,0.0866 -0.755,0.3238 m 1.3403,23.0324 c -0.113,-0.2446 -0.4029,-0.3514 -0.6476,-0.2384 -0.1222,0.0565 -0.2157,0.1609 -0.2583,0.2887 l -0.006,0.0183 c -0.0974,0.2662 0.0393,0.5609 0.3055,0.6584 0.2661,0.0974 0.5609,-0.0393 0.6584,-0.3055 0.0974,-0.2661 -0.0394,-0.5609 -0.3055,-0.6584 -0.1907,-0.0698 -0.4046,-0.0206 -0.5456,0.1255 -0.0631,0.0653 0.279,-0.1537 0.2078,-0.1304 -0.1207,0.0395 0.389,0.0244 0.3092,-10e-4 -0.1126,-0.0362 0.2541,0.1849 0.2143,0.1396 -0.037,-0.0421 0.08,0.13 0.0678,0.1034 m -0.9205,0.0941 c -0.021,0.0683 -0.0278,0.1402 -0.0197,0.2112 0.0545,0.4814 0.4695,0.4834 0.6139,0.4629 0.3501,-0.0499 0.382,-0.1901 0.4671,-0.2807 0.049,-0.0521 0.0881,-0.1127 0.1154,-0.1787 l 0.4389,-0.9222 c 0.1435,-0.2041 0.0944,-0.486 -0.1097,-0.6295 -0.1616,-0.1136 -0.3783,-0.1092 -0.535,0.0111 -0.3773,0.2894 -0.6349,0.7481 -0.7903,0.9298 -0.0466,0.0545 -0.0829,0.117 -0.1071,0.1844 z m 0.3677,0.5595 c -0.1116,0.2079 -0.0335,0.4669 0.1744,0.5786 0.2079,0.1116 0.467,0.0335 0.5786,-0.1744 0.1812,-0.3376 0.3671,-0.7556 0.4316,-1.2599 0.0299,-0.2341 -0.1356,-0.4481 -0.3696,-0.4781 -0.2341,-0.0299 -0.4482,0.1355 -0.4781,0.3696 -0.0462,0.3609 -0.1814,0.6745 -0.3369,0.9642 m -0.4976,0.1578 c -0.1948,0.1332 -0.2446,0.3992 -0.1114,0.5939 0.1324,0.1935 0.3961,0.2442 0.5908,0.1136 0.4339,-0.2912 0.6186,-0.6411 0.7591,-0.7992 0.1591,-0.1788 0.1431,-0.4526 -0.0357,-0.6117 -0.1789,-0.159 -0.4527,-0.143 -0.6118,0.0358 -0.2387,0.2759 -0.3277,0.4874 -0.591,0.6676 m 0.5399,0.8353 c 0.2348,0.0273 0.4472,-0.1409 0.4744,-0.3756 0.016,-0.1377 -0.0357,-0.2747 -0.1387,-0.3674 -0.0591,-0.0533 0.128,0.3563 0.1219,0.2572 -0.005,-0.0712 -0.0386,0.1961 -0.0248,0.1611 0.0339,-0.086 -0.0388,0.0664 -0.0138,0.0417 l 0.3967,-0.4611 c 0.258,-0.3151 0.4141,-0.6677 0.4508,-1.0421 0.0234,-0.2378 -0.1505,-0.4495 -0.3883,-0.4729 -0.2145,-0.021 -0.4119,0.1191 -0.4627,0.3286 -0.0475,0.1954 -0.1386,0.3381 -0.3008,0.4889 l -0.4604,0.5219 c -0.0901,0.1918 -0.1387,0.3136 -0.1035,0.4995 0.0386,0.2034 0.2901,0.4017 0.4492,0.4202 m 0.174,-0.7473 c 0.0129,-0.2385 -0.17,-0.4424 -0.4086,-0.4553 -0.1041,-0.006 -0.2067,0.0265 -0.289,0.0905 l 0.0493,-0.022 0.0554,-0.0169 c -0.0266,0.006 0.2153,-0.008 0.1353,-0.0121 -0.2786,-0.0137 -0.5156,0.201 -0.5293,0.4796 -0.0138,0.2786 0.2009,0.5156 0.4795,0.5293 0.2786,0.0138 0.5156,-0.201 0.5294,-0.4796 0.009,-0.1859 -0.0848,-0.3619 -0.2444,-0.4578 -0.0829,-0.0498 0.1589,0.1501 0.1342,0.1184 -0.0764,-0.0979 0.0902,0.2177 0.0847,0.1848 l 0.004,0.0411 z m -0.821,-0.3681 c -0.2698,0.1963 -0.3294,0.5742 -0.1331,0.844 0.1463,0.2012 0.4011,0.2921 0.6417,0.229 0.4726,-0.1238 0.4388,-0.2759 0.5849,-0.4225 l 0.3224,-0.3371 c 0.0888,-0.0928 0.1481,-0.2098 0.1704,-0.3364 0.0253,-0.1438 0.2217,-0.1966 -0.062,-0.6023 -0.0291,-0.0416 -0.0653,-0.0779 -0.1069,-0.1072 -0.4425,-0.3116 -0.5142,-0.0684 -0.6598,-0.024 -0.1229,0.0375 -0.2319,0.1106 -0.3132,0.21 l -0.2835,0.3447 -0.1565,0.186 c -0.0369,0.042 0.0744,-0.0415 -0.004,0.0158 m 2.1984,-2.8653 c 0.1575,0.5061 0.6955,0.7887 1.2016,0.6312 0.2777,-0.0865 0.5012,-0.2942 0.6077,-0.5648 l 0.1182,-0.2648 c 0.1003,-0.2136 0.128,-0.4542 0.0788,-0.6851 l -0.0791,-0.377 -0.0133,0.4703 0.1025,-0.5296 0.0593,-0.5401 0.015,-0.2577 -0.007,0.052 -0.0192,0.0936 -0.034,0.1099 c 0.0202,-0.055 -0.2569,0.4214 -0.1487,0.2753 0.3634,-0.4907 0.2603,-1.1831 -0.2304,-1.5465 -0.4907,-0.3634 -1.1831,-0.2603 -1.5465,0.2304 -0.2819,0.3806 -0.2901,0.8985 -0.0202,1.2878 0.0999,0.1442 -0.1544,-0.3214 -0.1361,-0.2683 0.0575,0.1666 -0.0535,-0.2396 -0.0503,-0.214 l 0.003,0.125 0.0608,0.5929 0.0791,0.4231 0.0699,-0.4655 -0.1366,0.2971 c -0.1019,0.2129 -0.1314,0.4532 -0.0838,0.6844 l 0.1097,0.4404 z m 1.8918,-2.8908 c -0.3568,-0.4963 -1.0483,-0.6094 -1.5446,-0.2527 -0.1026,0.0738 -0.1918,0.1646 -0.2637,0.2685 -0.2322,0.3351 -0.1675,0.37 -0.1776,0.422 -0.159,0.2162 -0.1032,0.4154 -0.154,0.6932 l -0.0108,0.7733 c 0.006,-0.1164 0.0615,-0.3213 -0.0301,-0.1382 l -0.2259,0.5791 -0.0967,0.2692 0.0399,-0.0831 c -0.019,0.0356 0.1497,-0.2244 0.0977,-0.1541 -0.0423,0.0572 0.3108,-0.31 0.2058,-0.2204 -0.0842,0.0719 0.5397,-0.2944 0.3701,-0.2252 -0.1328,0.0541 0.6618,-0.1058 0.48,-0.1008 -0.277,0.007 0.9644,0.3338 0.7633,0.2079 -0.1919,-0.1201 0.4643,0.473 0.3866,0.3639 -0.2278,-0.2615 0.1581,0.2984 0.1125,0.1985 -0.074,-0.1622 0.103,0.3889 0.0953,0.3279 l -0.002,-0.2189 -0.02,-0.6867 -0.0555,0.5171 c 0.1947,-0.616 -0.197,-2.0378 -1.5751,-1.7652 -0.1787,0.0354 -0.3485,0.1063 -0.4992,0.2087 -0.6857,0.4656 -0.5914,0.8407 -0.618,1.0207 l -0.0236,0.7711 -0.004,0.3087 c -0.0289,0.4109 0.0669,-0.1572 0.046,-0.1087 l -0.0539,0.1026 -0.2066,0.2853 c -0.2072,0.26 -0.2398,0.4465 -0.2706,0.4988 -0.075,0.1375 0.107,-0.1163 9e-4,0.0234 -0.1541,0.2029 -0.2584,0.4391 -0.3045,0.6897 -0.0431,0.2342 0.3751,-0.7726 0.2589,-0.6103 -0.167,0.2332 0.6685,-0.5309 0.5092,-0.4466 -0.1542,0.0817 0.7477,-0.186 0.5202,-0.1601 l -0.149,3.1548 c 0.6728,0.1419 0.6849,0.004 0.7322,-0.004 1.2362,-0.3964 1.0677,-0.6787 1.107,-0.736 0.0278,-0.0403 -0.0811,0.0917 -0.0317,0.0358 l 0.207,-0.2243 0.2165,-0.1098 0.5078,-0.3682 c 0.1786,-0.0912 0.3813,-0.3896 0.4754,-0.5494 0.0776,-0.1317 -0.1041,0.122 -0.008,-0.006 0.1883,-0.3145 -0.0107,-0.005 0.0182,-0.0393 l 0.2815,-0.2609 0.4828,-0.5553 c 0.0572,-0.0607 0.1345,-10e-5 0.5255,-0.4824 0.359,-0.467 0.4202,-0.7828 0.4762,-0.9488 0.3333,-0.9272 0.6408,-1.9393 0.86,-3.1064 0.1729,-0.9758 0.0867,-1.8055 0.0907,-2.4547 l -0.002,-1.1407 c -0.0555,-0.688 -0.1991,-1.2313 -0.2825,-1.6092 l -0.1414,-0.5966 -0.1338,-0.8152 -0.1455,-0.6466 -0.2363,-0.7386 -0.3929,-0.9989 -0.1049,-0.3842 -0.1835,-0.542 -0.1171,-0.3646 -0.0933,-0.2525 c -0.0635,-0.1922 0.0362,0.1234 -0.008,-0.0996 -0.0289,-0.2565 -0.181,-0.5632 -0.2753,-0.717 -0.3526,-0.4516 0.2098,0.5592 0.1704,0.4088 -0.0269,-0.1028 0.0426,0.2528 0.0386,0.2118 l -0.0316,-0.3378 -0.1208,-0.4887 -0.2146,-0.6661 c -0.1913,-0.4817 -0.3884,-0.7336 -0.4265,-0.8018 l -0.0518,-0.1479 -0.1944,-0.4328 c -0.003,-0.005 0.0927,0.2135 0.059,0.1286 -0.0376,-0.0947 0.1206,0.6244 0.1027,0.4327 -0.0169,-0.1819 -0.0615,-0.3602 -0.1321,-0.5288 -0.0633,-0.1508 0.1036,0.6847 0.1021,0.4996 -0.001,-0.1905 -0.2776,0.8788 -0.1566,0.6463 l -0.2712,0.3805 c 0.1485,-0.1567 -0.5961,0.394 -0.4545,0.3281 0.2315,-0.1076 -0.5826,0.1295 -0.4866,0.1248 0.1222,-0.006 -0.1441,-0.005 -0.1311,-0.003 l 0.1334,0.0331 c 0.0196,0.01 -0.4136,-0.1905 -0.3514,-0.1512 0.156,0.0987 -0.1083,-0.0511 0.1632,0.1406 0.4656,0.3085 0.7966,0.3399 0.9731,0.3661 l 0.1018,0.009 0.2706,0.2038 0.597,0.3748 0.3038,0.157 c 0.0226,0.0103 -0.2014,-0.131 -0.1129,-0.0688 0.1526,0.104 -0.191,-0.1762 -0.1794,-0.1619 l 0.0898,0.1206 0.3561,0.5225 c 0.3263,0.4831 0.4722,0.473 0.548,0.5622 0.0931,0.1089 -0.1071,-0.1663 -0.0945,-0.1364 l 0.1825,0.4086 c 0.0978,0.304 0.307,0.5127 0.3419,0.5691 l -0.059,-0.0334 c 0.0675,0.1966 0.1694,0.3795 0.3011,0.5402 l 0.3532,0.3863 c -0.0367,-0.0349 -0.2564,-0.4317 -0.2388,-0.3789 0.0148,0.0441 -0.0166,-0.059 0.003,0.0264 0.238,1.0041 0.915,1.4514 1.2812,1.7115 0.326,0.2315 0.2423,0.0742 0.3496,0.2233 l 0.7615,0.8744 0.2492,0.2528 c 0.0267,0.0348 -0.0356,0.1044 0.415,0.5621 0.7135,0.7251 1.8798,0.7344 2.6049,0.0209 0.725,-0.7136 0.7344,-1.8798 0.0208,-2.6049 -0.0478,-0.0487 -0.0984,-0.0946 -0.1513,-0.1376 -0.1094,-0.0889 0.1153,0.1133 0.0716,0.0583 l -0.3593,-0.4102 -0.2852,-0.2765 -0.4815,-0.4989 c -0.5256,-0.6367 -1.0059,-0.8338 -1.2496,-0.9857 l -0.1271,-0.0826 c -0.04,-0.0374 0.2955,0.6054 0.2272,0.3863 -0.002,-0.007 -0.098,-0.4788 -0.4736,-0.954 l -0.0958,-0.1494 c -0.1027,-0.18 -0.2365,-0.3403 -0.3953,-0.4736 l -0.4353,-0.3275 c -0.0343,-0.0687 0.0898,0.119 -0.0178,-0.0164 0.071,0.0912 0.0954,-0.1152 -0.3691,-0.6186 l -0.4262,-0.3801 c -0.0578,-0.0465 0.079,0.1164 0.0208,0.0376 l -0.2762,-0.4698 c -0.0384,-0.0605 -0.1312,-0.3255 -0.5508,-0.6727 l -0.3577,-0.231 -0.5027,-0.3709 c -0.1755,-0.1251 -0.4938,-0.4455 -1.1499,-0.6641 l -0.4985,-0.1206 c -0.0139,-0.003 0.1312,0.0425 0.0692,0.021 -0.0717,-0.0249 0.4624,0.2782 0.3259,0.1759 -0.128,-0.0903 0.0122,0.008 -0.0933,-0.0789 -0.1251,-0.1032 -0.3558,-0.2813 -0.7046,-0.396 l -0.587,-0.1739 c -0.3197,-0.0634 -0.8839,-0.262 -1.6682,0.3452 l 0.4082,-0.2329 c -0.6851,0.2722 -1.1037,0.8743 -1.2443,1.4813 -0.041,0.1775 -0.0549,0.3601 -0.0412,0.5417 0.0351,0.4624 0.1889,0.7187 0.2436,0.8238 0.0398,0.0763 -0.0976,-0.2787 -0.0458,-0.1232 l 0.3496,0.7942 0.2237,0.3596 0.127,0.3755 c 0.0381,0.1214 0.0148,0.0142 0.0226,0.0582 0.028,0.1674 -0.0228,-0.1745 -0.0125,-0.0141 0.0124,0.1961 -0.003,0.6335 0.4514,1.1834 0.4458,0.4279 -0.3548,-0.8515 -0.2839,-0.5702 l 0.0783,0.3826 0.0889,0.2287 0.0942,0.3975 0.1121,0.3766 0.1946,0.6624 0.4839,1.0705 0.1234,0.3659 0.0517,0.3312 0.2187,1.0719 0.1241,0.533 0.2172,1.1124 0.0319,0.9091 c 0.0134,0.7981 0.0641,1.4767 0.008,1.8499 -0.139,0.9882 -0.3421,1.8196 -0.602,2.6829 l -0.0362,0.1068 c -0.002,0.004 0.1764,-0.2706 0.0978,-0.1647 -0.0818,0.1152 0.0549,-0.0575 -0.002,-0.006 l -0.3994,0.4058 -0.3525,0.4326 c 0.017,-0.0176 -0.3125,0.1102 -0.673,0.7751 l -0.1924,0.572 c -0.006,0.0256 0.1006,-0.2696 0.0607,-0.1781 -0.0432,0.0989 0.337,-0.469 0.2267,-0.3481 l -0.1505,0.066 -0.5484,0.3963 -0.2812,0.1832 -0.3172,0.3216 c -0.004,0.005 0.21,-0.2007 0.1178,-0.1186 -0.0525,0.0468 0.39,-0.2597 0.259,-0.1853 -0.1423,0.0809 0.993,-0.2219 0.6759,-0.2015 l -0.3215,0.0528 0.0879,-0.0157 c -0.0586,0.008 0.4566,-0.002 0.3029,-0.0119 -0.8819,-0.0536 -1.6403,0.6179 -1.6939,1.4998 -0.0417,0.6863 0.3599,1.3225 0.9974,1.5802 0.9483,0.3832 1.6669,0.1892 2.1815,-0.8247 0.1154,-0.2273 0.1758,-0.4785 0.1763,-0.7333 l 0.002,-0.1308 -0.005,-0.3389 0.0532,-0.097 c -0.136,0.226 0.1699,-0.0114 0.3146,-0.6201 l 0.008,-0.9363 -0.0533,-0.5171 -0.006,-0.0544 c -4e-4,-0.0196 -0.02,0.2265 -0.009,0.1422 0.006,-0.0467 -0.0669,0.2771 -0.0416,0.1926 0.0273,-0.0906 -0.267,0.4995 -0.1691,0.3551 0.1019,-0.1504 0.1726,-0.3198 0.2078,-0.498 0.0516,-0.2609 -0.6341,0.9266 -0.4163,0.7314 0.1628,-0.1459 -0.7686,0.3489 -0.5636,0.2983 0.1534,-0.0379 -0.6256,0.0102 -0.4692,0.029 0.2347,0.0281 -0.8295,-0.4107 -0.6461,-0.2668 0.1822,0.1429 -0.4693,-0.7032 -0.3923,-0.5167 l -0.0994,-0.5115 -0.0173,0.6191 c 0.004,-0.0662 -0.3887,-0.0963 0.0585,0.9784 0.221,0.4027 0.6263,0.8272 1.2178,0.8553 0.9727,0.0463 1.1379,-0.4834 1.2391,-0.6359 0.2342,-0.3531 0.2145,-0.4448 0.2599,-0.5803 l 0.1355,-0.7429 0.0511,-0.8019 0.0151,-0.4441 c -0.0688,-0.532 -0.0208,-0.7387 -0.2753,-1.2367 0.0904,0.2381 0.1592,0.1982 -0.0877,-0.1453 m 8.3001,-5.0593 c 0.4164,-0.2722 0.7071,-0.6992 0.8078,-1.1864 0.2574,-1.2454 -0.1221,-1.1593 -0.2003,-1.3021 l -0.3849,-0.526 c -0.0813,-0.0928 -0.1712,-0.1776 -0.2685,-0.2533 l -0.4699,-0.328 -0.0344,-0.0396 c 0.0157,0.0158 -0.0708,-0.4558 -1.114,-0.8416 l 0.3545,0.1746 c -0.2232,-0.1403 -0.425,-0.2616 -0.8433,-0.3494 -0.4417,-0.0927 -0.9018,-0.0313 -1.3037,0.174 -0.7817,0.3993 -0.9878,1.092 -1.0454,1.4009 -0.1581,0.8496 0.009,0.7967 0.0398,0.9151 0.0849,0.324 0.1342,0.5917 0.5492,1.0834 0.0917,0.1086 0.1949,0.2069 0.3079,0.293 0.5482,0.4179 0.8846,0.4628 1.0976,0.5271 l -0.5401,-0.268 0.6536,0.5365 0.6347,0.7246 0.2436,0.2331 0.1712,0.2191 0.5668,0.5708 0.1103,0.0986 c 0.125,0.0973 0.3398,0.2949 0.8641,0.3748 0.5795,0.0882 1.3487,-0.2589 1.6534,-0.6118 0.7793,-1.1736 0.4631,-1.4571 0.458,-1.5618 0.0502,-0.4099 -0.0231,-0.6647 -0.2544,-1.1377 -0.0485,-0.0925 -0.0871,-0.682 -0.3678,-1.6194 l -0.4855,-1.3182 -0.3019,-0.6381 -0.4082,-0.6879 c -0.0646,-0.1074 0.0474,0.0942 0.0372,0.0705 l -0.1312,-0.2809 -0.275,-0.4778 c -0.104,-0.1546 0.5551,0.6093 -0.2045,-0.3123 -0.1326,-0.1524 0.0849,0.1218 0.0831,0.1188 l -0.1122,-0.1952 c -0.0589,-0.0907 0.05,0.1081 0.0116,0.0315 l -0.5293,-0.8509 -0.597,-0.9677 c 0.0813,0.1286 0.0167,-0.0843 -0.2975,-0.4479 -0.3046,-0.4122 -0.6524,-0.6144 -0.8366,-0.758 l -0.4451,-0.3348 -0.5473,-0.3904 -1.0851,-0.4914 c -0.6612,-0.2658 -1.3079,-0.4448 -1.9254,-0.5789 l -0.3973,-0.1095 c -0.1088,-0.0317 -0.22,-0.0547 -0.3324,-0.0687 l -0.279,-0.0832 c -0.7944,-0.2864 -1.5534,-0.4559 -2.211,-0.6174 l -1.0471,-0.1469 0.6822,0.1941 -0.7645,-0.3103 c -0.1849,-0.0605 -0.3769,-0.0966 -0.5712,-0.1075 l -1.0674,0.0238 c -0.9047,0.0457 -1.6016,0.472 -1.8908,0.62 l -0.9213,0.4801 c -0.5678,0.3279 -0.864,0.693 -0.889,0.7148 -0.0212,0.0159 -0.1535,-0.007 -0.7532,0.4495 -0.3648,0.2361 -0.6242,0.5524 -0.7478,0.6795 -0.0834,0.0859 -0.16,0.1782 -0.2289,0.276 -0.0992,0.1408 0.1368,-0.167 0.0815,-0.109 l -0.4157,0.5293 c -0.5306,1.0365 -0.3801,1.2688 -0.3869,1.321 l -0.0208,0.02 -0.2569,0.6549 c -0.0539,0.1416 -0.0926,0.2886 -0.1155,0.4384 l -0.1445,1.0349 -0.007,0.5119 10e-4,0.3682 c -10e-5,0.2217 0.0426,0.4413 0.1256,0.6469 l 0.036,0.1021 -0.061,-0.5215 -0.0157,0.1364 c -0.1251,0.7938 0.417,1.5387 1.2108,1.6638 0.4775,0.0753 0.9612,-0.0915 1.2908,-0.445 l 0.299,-0.3574 -0.3784,0.3641 0.4838,-0.4146 c 0.151,-0.1627 0.2693,-0.353 0.3482,-0.5605 l 0.1016,-0.2978 c -0.0261,0.0614 -0.1761,0.2905 -0.0659,0.1558 l 0.637,-0.8342 c 0.0875,-0.1243 0.1615,-0.2575 0.2207,-0.3974 l 0.3565,-0.8393 0.1722,-0.4124 0.0431,-0.111 c 0.0115,-0.0274 -0.1448,0.2699 -0.0907,0.1785 0.0588,-0.0994 -0.4329,0.5113 -0.2916,0.3717 0.2002,-0.2225 -0.0697,0.0574 -0.0324,0.0249 l 0.3681,-0.3193 c 0.0841,-0.0861 0.1611,-0.1788 0.2306,-0.2771 0.174,-0.2465 -5e-4,-0.0792 0.103,-0.1741 -0.0346,0.0339 0.1955,0.004 0.8025,-0.5188 0.2867,-0.2294 0.0783,-0.1278 0.2042,-0.1952 l 0.7518,-0.3035 c 0.4972,-0.2936 0.1644,-0.2185 0.3307,-0.2375 l 0.241,0.0188 c 0.1931,0.0188 0.3878,0.0124 0.5792,-0.019 l 0.2993,-0.028 -0.7101,-0.0848 0.6799,0.2257 c 0.9989,0.2021 1.5463,0.2873 2.2184,0.4894 l 0.7437,0.2386 c 0.1099,0.024 0.2215,0.0394 0.3338,0.0458 l 0.4938,0.004 1.0008,0.3403 0.4939,0.2046 0.3754,0.2227 0.4207,0.286 0.3622,0.1844 c -0.009,-0.003 -0.2727,-0.3161 -0.2575,-0.2921 l 0.0922,0.1497 0.3367,0.7482 0.4906,0.7866 0.2618,0.3813 c 0.12,0.1415 0.1141,0.2197 0.5025,0.5507 0.1704,0.1399 -0.2965,-0.3117 -0.2407,-0.2442 0.0943,0.114 -0.1818,-0.2595 -0.1562,-0.218 l 0.1528,0.2407 0.086,0.1243 0.1527,0.3202 0.3749,0.591 0.3178,0.5246 0.3924,0.7813 c 0.083,0.2011 0.1018,1.0994 0.8162,2.1476 0.1747,0.2369 -0.1483,-0.2779 -0.1267,-0.2281 0.0528,0.1218 -0.0649,-0.5703 -0.0677,-0.3552 0.007,-0.1539 0.0458,-0.3225 0.0231,-0.2316 -0.0139,0.0557 0.1656,-0.4077 0.1016,-0.276 -0.0698,0.1436 0.6523,-0.7315 0.4213,-0.5374 -0.3229,0.332 0.8219,-0.4134 0.5123,-0.2975 -0.2749,0.103 1.0871,-0.0685 0.835,-0.0993 -0.212,-0.0259 0.6306,0.1968 0.5048,0.1404 -0.2036,-0.0913 0.4318,0.2756 0.3683,0.2246 -0.1467,-0.118 0.0818,0.066 -0.0248,-0.0292 l -0.0387,-0.0812 -0.4518,-0.5445 -0.1393,-0.139 -0.3479,-0.4893 c -0.6026,-0.6859 -1.1309,-0.9947 -1.5644,-1.2727 l 0.4452,0.4042 -0.2191,-0.2539 0.0365,0.0497 c -0.0311,-0.0457 0.1817,0.3748 0.1305,0.2479 -0.0526,-0.1303 -0.1191,-0.2545 -0.1983,-0.3705 -0.1563,-0.2287 0.1968,0.452 0.1753,0.3687 -0.0119,-0.0456 0.0504,0.4141 0.0395,0.2561 -0.003,-0.0446 10e-4,0.2489 0.003,0.1742 0.002,-0.0592 -0.0348,0.3228 -0.0204,0.2272 0.0115,-0.0757 -0.1001,0.3973 -0.0645,0.282 0.0281,-0.0908 -0.1987,0.4502 -0.133,0.3239 0.0513,-0.0988 -0.3142,0.4507 -0.2167,0.3304 0.1531,-0.1889 -1.0676,0.7099 -0.7271,0.558 0.1744,-0.0778 -0.7776,0.1813 -0.5749,0.1577 0.2024,-0.0235 -0.7659,-0.0527 -0.5851,-0.0194 0.4427,0.0816 0.8999,0.01 1.296,-0.2044 0.1549,-0.0836 -0.5027,0.1844 -0.3942,0.1561 0.1532,-0.0401 -0.4389,0.0543 -0.3518,0.0517 0.0821,-0.002 -0.2469,-0.0148 -0.1954,-0.009 l -0.3807,-0.087 c 0.2064,0.07 -0.5049,-0.2817 -0.4223,-0.2198 0.1075,0.0806 -0.1249,-0.1096 -0.1055,-0.0884 l 0.2013,0.2178 0.2827,0.2801 0.3936,0.3194 c 0.0884,0.087 0.1848,0.1653 0.2881,0.2339 l 0.4128,0.2355 0.3845,0.1377 c 0.2018,0.0508 0.334,0.5204 1.5073,-0.2468 m -16.2734,-2.8161 c 0.524,-0.7163 0.3682,-1.7217 -0.3481,-2.2457 -0.7163,-0.524 -1.7217,-0.3681 -2.2457,0.3481 -0.1007,0.1376 -0.1788,0.2902 -0.2314,0.4523 l -0.0568,0.1684 0.1602,-0.334 -0.3068,0.513 c -0.0532,0.1006 -0.0957,0.2065 -0.1266,0.3161 l -0.1435,0.7637 -0.0762,0.6892 -0.1053,0.2875 -0.2362,0.7872 -0.0355,0.7628 c -0.002,0.1242 0.0989,-0.5845 0.0792,-0.5408 l -0.1176,0.2825 -0.0933,0.4691 c 0.001,-0.006 0.0922,-0.2791 0.047,-0.1592 -0.0202,0.0537 0.2253,-0.4031 0.1357,-0.2663 -0.0433,0.0662 0.3199,-0.3554 0.2112,-0.2525 -0.1101,0.1042 0.8782,-0.422 0.5759,-0.3322 -0.1504,0.0447 0.7541,-0.0327 0.5455,-0.0528 -0.2066,-0.0198 0.7925,0.3146 0.6096,0.2032 -0.1739,-0.1061 0.4803,0.4674 0.3921,0.3523 -0.1582,-0.2063 0.2572,0.5283 0.2283,0.4373 -0.047,-0.1476 0.0598,0.285 0.0545,0.2442 -0.0245,-0.1877 0.008,0.0915 0.008,0.003 l -7e-4,-0.2638 c 0.001,-0.2073 -0.005,-0.0382 0.01,-0.1148 l 0.1322,-0.4643 0.0787,-0.3332 c 0.0516,-0.1561 -0.1047,0.2008 -0.08,0.1615 l 0.231,-0.3092 c 0.3823,-0.5903 0.2616,-0.7328 0.296,-0.8371 0.0157,-0.0315 -0.1277,0.2597 -0.1245,0.2557 l 0.1237,-0.1458 0.427,-0.3445 0.4514,-0.3182 0.3913,-0.2091 c 0.1532,-0.0875 -0.2298,0.1017 -0.2285,0.1013 l 0.2675,-0.1002 c 0.5804,-0.2151 0.448,-0.3033 0.6065,-0.3885 0.2599,-0.1615 -0.1311,0.051 -0.1098,0.0446 l 0.4475,-0.1716 c 0.5298,-0.1194 0.718,-0.6569 0.8098,-0.8522 l 0.0613,-0.1402 c 7e-4,-10e-4 -0.1705,0.2903 -0.0921,0.1688 0.1351,-0.257 0.0405,-0.0771 0.0753,-0.1373 0.029,-0.05 -0.2266,0.2988 -0.1491,0.209 0.0619,-0.0719 -0.3917,0.3315 -0.2691,0.2444 0.1946,-0.1382 -1.1707,0.3013 -0.8343,0.2861 0.3354,-0.0151 -1.0348,-0.3114 -0.8366,-0.1991 l -0.4205,-0.3417 c 0.5443,0.619 1.1843,0.5862 1.4682,0.5517 0.6682,-0.0811 0.5551,-0.1605 0.6213,-0.1847 0.6525,-0.1223 1.2006,-1.0252 1.2067,-1.715 0.002,-0.2409 -0.0461,-0.4796 -0.1415,-0.7008 -0.1086,-0.2516 0.1185,1.035 0.1352,0.7855 0.0152,-0.2276 -0.2109,0.7272 -0.1424,0.5739 0.1216,-0.272 -0.5052,0.6475 -0.3855,0.5376 0.1939,-0.1782 -0.6554,0.363 -0.5032,0.3078 0.1131,-0.0411 -0.5009,0.0922 -0.3657,0.0805 0.2103,-0.0181 -1.0852,-0.2946 -0.7847,-0.148 0.1547,0.0754 -0.5667,-0.4551 -0.4378,-0.3201 0.1285,0.1347 -0.3567,-0.5871 -0.292,-0.4385 0.4646,0.926 0.8206,0.8794 0.8938,0.9183 l -0.0274,-0.0178 c 0.0495,0.0321 -0.3421,-0.3189 -0.2385,-0.2049 -0.1121,-0.1372 -0.2101,-0.6414 -0.218,-0.5142 -0.0144,0.4237 -0.0157,0.6226 0.1398,1.0416 0.0356,0.1003 -0.0791,-0.3456 -0.0721,-0.2886 l 0.008,0.285 -0.005,0.0642 c -0.0297,0.2348 -0.0137,0.4732 0.0471,0.7021 0.0398,0.1501 -0.0463,-0.3199 -0.0458,-0.3024 l 0.0138,0.2735 0.0789,0.575 0.3305,1.3652 0.1374,0.606 0.0368,0.2675 c -0.004,0.0231 -0.0103,-0.3203 -0.0268,-0.0795 -0.0276,0.4621 0.0478,0.8104 0.1026,1.0569 l 0.3708,0.9714 c 0.3517,0.8984 0.8091,1.6913 1.1419,2.3407 l 0.2243,0.7095 0.3494,1.0513 0.356,0.691 c 0.1048,0.1585 -0.0961,-0.1642 -0.009,0.009 0.1094,0.2171 0.3638,0.7351 1.0576,1.094 1.0419,0.5389 2.3234,0.1312 2.8624,-0.9106 0.534,-1.0323 0.1391,-2.302 -0.8861,-2.8494 -0.2878,-0.1538 0.7269,0.6685 0.6088,0.5143 -0.0814,-0.1063 0.1725,0.2758 0.1485,0.2302 l -0.2195,-0.4106 c -0.0526,-0.0814 0.0482,0.0886 0.0272,0.0377 l -0.3141,-0.8606 c -0.2086,-0.4607 -0.3996,-0.8932 -0.7146,-1.3623 -0.4096,-0.6468 -0.8452,-1.2917 -1.1328,-1.8719 l -0.2386,-0.4907 c -0.1536,-0.3214 -0.1041,-0.1449 -0.1288,-0.2488 l -0.0865,-0.3596 -0.1281,-0.4843 -0.203,-0.6402 -0.1131,-0.8225 -0.007,-0.2536 c 0.002,-0.0758 -0.0119,0.1305 -0.003,0.07 l 0.0153,-0.5765 c -0.0243,-0.2347 -0.0934,-0.4626 -0.2038,-0.6712 l -0.1032,-0.1982 c 0.05,0.1391 0.1858,0.113 -0.132,-0.5578 -0.0502,-0.1112 0.106,0.2996 0.095,0.2571 -0.0277,-0.1063 0.0237,0.1874 0.0241,0.1586 -0.0103,-0.8336 -0.3974,-1.5043 -0.7142,-1.8554 -0.1368,-0.2138 -0.3743,-0.3454 -0.4405,-0.3926 -0.0196,-0.0139 0.1808,0.1608 0.0926,0.0787 -0.0507,-0.0471 0.2826,0.3458 0.2016,0.2314 -0.0865,-0.1223 0.3034,0.7645 0.2442,0.5312 -0.31,-0.9901 -1.3874,-1.4537 -1.9909,-1.4087 -0.2881,0.0215 -0.5391,0.0862 -0.8273,0.249 -0.3126,0.1765 -1.0501,0.6148 -0.9074,1.7713 0.0293,0.2381 0.1079,0.4675 0.2307,0.6736 0.1355,0.2274 -0.2133,-1.1618 -0.2193,-0.8282 -0.003,0.1727 0.1925,-0.7581 0.1138,-0.5617 -0.0802,0.2001 0.5494,-0.7217 0.38,-0.5607 l -0.0243,0.008 c -7e-4,6e-4 0.1971,-0.1237 0.1077,-0.0711 -0.0518,0.0305 0.4057,-0.1715 0.2666,-0.1229 -0.075,0.0262 0.4147,-0.0894 0.2921,-0.0715 -0.1284,0.0187 0.6559,0.0298 0.4723,0.002 l 0.517,0.1712 c -0.5741,-0.3047 -1.6489,-0.0549 -2.0095,0.3127 -0.3099,0.3158 -0.3599,0.5153 -0.4132,0.6467 l -0.1232,0.5297 c -0.005,0.0288 0.11,-0.3524 0.0612,-0.2231 -0.0268,0.0712 0.2067,-0.3769 0.1367,-0.2693 -0.0736,0.1134 0.4917,-0.4832 0.3369,-0.3642 0.1134,-0.0901 0.4395,-0.232 0.3567,-0.2088 l -0.5899,0.2514 -0.5155,0.4397 c -0.0501,0.0501 0.2528,-0.1427 0.1029,-0.06 0.006,-0.007 0.24,-0.104 0.2069,-0.0937 l -0.3805,0.1625 -0.5815,0.3287 -0.3647,0.2195 c -0.5765,0.4796 -0.9111,0.8883 -1.1729,1.3327 -0.0151,0.0225 -0.2308,0.2493 -0.3587,0.7495 l -0.0768,0.3461 c -0.006,0.028 0.21,-0.3892 0.1038,-0.2232 -0.0522,0.0778 -0.1887,0.0148 -0.4307,0.6802 l -0.1218,0.5203 -0.1753,0.5777 -0.1285,0.4816 -0.0116,0.6451 0.0343,0.3194 c 0.0164,0.0942 -0.0203,0.1957 0.2141,0.5658 0.1078,0.1702 0.2771,0.5351 0.9825,0.6527 0.6923,0.1154 1.3946,-0.5152 1.5263,-0.7818 0.4577,-0.9262 0.1507,-0.5719 0.1549,-0.641 0.0134,-0.1937 -0.0191,-0.0352 -9e-4,-0.1312 0.0284,-0.1813 -0.0172,0.0752 0.0149,-0.0436 0.039,-0.1445 0.0955,-0.4224 0.0443,-0.7428 l 0.0108,0.1023 0.1178,-0.2429 0.2676,-0.4887 0.3191,-0.9303 0.0635,-0.1122 c 0.0589,-0.0971 0.1074,-0.2003 0.1446,-0.3076 l 0.1375,-0.3317 -0.1828,0.3184 0.1266,-0.1706 z m 8.2656,8.3142 c -0.2443,-1.1443 -1.37,-1.8739 -2.5142,-1.6296 -1.1443,0.2443 -1.8739,1.37 -1.6296,2.5143 0.2443,1.1442 1.37,1.8738 2.5143,1.6295 0.7556,-0.1613 1.3635,-0.7213 1.5863,-1.4612 0.0633,-0.2102 -0.0676,0.1907 -0.0633,0.18 l 0.1054,-0.2711 c 0.0441,-0.1282 0.1692,-0.261 0.2423,-0.8656 l -0.1475,0.5409 c 0.1959,-0.4485 0.2007,-0.7439 0.2111,-0.8157 0.0852,-0.7604 0.4503,-1.9152 0.5572,-3.2658 0.0778,-0.7998 -0.025,-1.489 -0.0738,-1.9919 l -0.107,-0.8344 -0.1534,-0.6081 -0.0397,-0.2278 -0.1505,-0.7176 -0.1295,-0.6807 -0.4048,-1.2028 c -0.1282,-0.4862 -0.4165,-0.9424 -0.5591,-1.2713 l -0.2949,-0.7268 -0.2094,-0.4192 -0.0865,-0.1942 -0.132,-0.4517 -0.0958,-0.3378 -0.0689,-0.2118 0.0184,0.0389 0.0609,0.4753 c 0.008,-0.2144 -0.017,-0.4353 -0.0743,-0.6487 l -0.026,-0.0962 c -0.0697,-0.2559 -0.1848,-0.4973 -0.3399,-0.7125 -0.0886,-0.1231 -0.1595,-0.2959 -0.6168,-0.5956 -1.0155,-0.6656 -2.3782,-0.3819 -3.0438,0.6335 -0.2906,0.4435 -0.4112,0.9769 -0.3396,1.5022 l 0.038,0.2133 c 0.055,0.2595 0.1562,0.507 0.2988,0.7307 0.0405,0.0635 -0.0652,-0.1134 -0.0593,-0.1019 0.1024,0.2002 0.2348,0.3836 0.3927,0.5438 0.0528,0.0535 -0.0966,-0.1094 -0.0858,-0.0958 l -0.2518,-0.4041 0.0284,0.0628 -0.0365,-0.0759 0.0799,0.2667 0.1696,0.6934 0.3154,0.714 0.0813,0.1526 0.3038,0.785 0.5479,1.104 -0.0149,0.2248 0.1668,0.9887 0.1937,0.8588 0.2193,0.634 0.0181,0.0546 c 0.003,0.01 -0.0592,-0.2779 -0.0418,-0.1744 l 0.0589,0.6442 0.2511,1.358 c 0.008,0.6653 -0.2493,1.8 -0.2622,3.0655 l 0.004,0.182 c -10e-5,0.0328 0.0678,-0.4171 0.0344,-0.2734 l 0.204,-0.5203 c -0.0715,0.1253 0.1936,-0.2476 0.162,-0.2163 l 0.014,-0.0146 c -0.0161,0.0127 0.3617,-0.2098 0.1843,-0.1147 -0.0511,0.0274 0.2995,-0.1308 0.208,-0.0954 -0.0724,0.0281 0.3955,-0.1113 0.2785,-0.0848 -0.0918,0.0208 0.4732,-0.0546 0.3373,-0.0471 -0.1059,0.006 0.5152,0.0309 0.3718,0.013 -0.2251,-0.0283 1.164,0.496 0.8368,0.2946 -0.1715,-0.1055 0.6965,0.6679 0.5255,0.4592 -0.1769,-0.2159 0.518,1.3013 0.432,0.8985" />
    <path
       id="path38"
       d="m 370.2132,716.1894 c -0.0802,0.2196 0.0328,0.4627 0.2525,0.543 0.0789,0.0288 0.1647,0.0335 0.2464,0.0134 l 0.3199,-0.1146 c 0.0706,-0.0328 0.1333,-0.0804 0.1841,-0.1394 0.6674,-0.7763 0.9907,-1.9897 1.0219,-3.309 0.0115,-0.7354 0.0533,-1.5615 -0.086,-2.3155 -0.2362,-1.2678 -0.7461,-2.5433 -0.9672,-3.8723 -0.312,-1.7972 -0.5499,-4.147 -0.008,-5.408 0.1438,-0.3348 -0.011,-0.7228 -0.3458,-0.8666 -0.3348,-0.1438 -0.7228,0.011 -0.8666,0.3458 -0.7802,1.8166 -0.4047,4.2798 -0.0798,6.1499 0.2699,1.4929 0.8075,2.7898 1.0321,3.8913 0.1119,0.5451 0.1,1.3205 0.1015,2.0622 0.0112,1.122 -0.2649,2.1303 -0.651,2.6296 -0.0474,0.0613 -0.0812,0.1319 -0.0993,0.2072 l -0.0544,0.183 z m 0.8437,-1.1082 c -0.1306,-0.1938 -0.3935,-0.2451 -0.5874,-0.1146 -0.1889,0.1272 -0.2432,0.3811 -0.1229,0.5744 0.0678,0.1092 0.2751,0.2895 0.5212,0.2341 0.3336,-0.075 0.3525,-0.2733 0.3983,-0.3892 l 0.0957,-0.3528 0.0202,-0.4517 -0.004,-0.4036 0.01,-0.0906 0.003,-0.0158 -0.006,0.0185 c 0.005,-0.0138 -0.1047,0.1731 -0.0537,0.1021 l -0.7681,-0.3883 c -0.1062,0.3278 -0.0107,0.4335 -0.0158,0.5568 l -0.1389,0.4631 -0.1286,0.3917 c -0.0396,0.0551 0.2348,-0.1366 0.1566,-0.1097 -0.0417,0.0144 0.2477,-0.0166 0.1712,-0.0216 -0.0406,-0.003 0.199,0.0521 0.1437,0.0313 -0.0577,-0.0217 0.2499,0.1815 0.1872,0.1199 -0.1295,-0.1272 -0.3113,-0.186 -0.4907,-0.1588 -0.1312,0.02 0.4833,0.1368 0.3823,0.0758 -0.0932,-0.0562 0.218,0.2303 0.1828,0.1764 -0.0623,-0.0956 0.0893,0.2458 0.0813,0.2024 -0.0131,-0.0714 0.006,0.1329 0.007,0.116 l 0.0637,-0.226 0.0934,-0.3583 -0.0376,0.0683 -0.0604,0.0488 c 0.0274,-0.0171 -0.1824,0.0622 -0.1246,0.0497 0.0935,-0.0203 -0.4566,-0.1499 -0.3492,-0.0731 0.1035,0.074 -0.1745,-0.2735 -0.1591,-0.2197 l -0.0415,0.1743 c -0.0108,0.0295 0.0588,-0.1172 0.0572,-0.1157 l -0.049,0.032 0.032,-0.002 0.0901,-5e-4 c -0.0422,-0.005 0.2222,0.0869 0.1595,0.0527 -0.2307,-0.085 0.2272,0.2249 0.1674,0.1472 -0.0526,-0.0685 0.0985,0.2073 0.0866,0.1671 -0.0195,-0.0654 0.0147,0.0823 0.0147,0.0762 10e-4,-0.16 0.1844,-0.8477 0.2019,-1.5344 0.1,-1.9392 -0.5093,-3.599 -1.4034,-4.8121 -0.6907,-0.9077 -1.4009,-1.6154 -1.6566,-2.3238 -0.1943,-0.5161 -0.3118,-1.2213 -0.3321,-2.0162 l -0.0501,-1.1748 c -0.0911,-0.589 -0.0907,-0.9443 -0.0168,-1.094 0.1251,-0.2531 0.0213,-0.5596 -0.2318,-0.6846 -0.1721,-0.085 -0.3773,-0.0665 -0.5314,0.0481 -0.4959,0.3687 -0.6791,1.0127 -0.7822,1.5996 l 0.0195,1.3413 c 0.0278,0.9372 0.161,1.7987 0.4419,2.5321 0.4598,1.1534 1.3378,1.9049 1.9662,2.6797 0.7753,0.926 1.3529,2.223 1.3417,3.8848 l -0.1458,1.0046 -0.0674,0.4911 0.0265,0.3124 c 0.0372,0.1454 0.1687,0.4005 0.4464,0.4964 0.5023,0.0784 0.7341,-0.0836 0.9268,-0.2808 0.1052,-0.1198 0.3149,-0.3213 0.3231,-0.6822 0.016,-0.1759 0.0178,-0.3923 -0.0714,-0.6259 -0.0331,-0.1605 -0.4683,-0.4218 -0.7072,-0.3315 -0.2099,0.0792 -0.2925,0.2037 -0.3657,0.3265 l -0.209,0.3823 -0.1286,0.2984 -0.0446,0.1238 -0.0216,0.0772 c -0.009,0.0406 -0.1855,0.0955 0.0953,0.4806 0.1084,0.1487 0.2813,0.2367 0.4654,0.2369 0.4934,5e-4 0.5834,-0.2497 0.6753,-0.5226 l 0.1193,-0.6498 0.0792,-0.685 -0.004,-0.2689 -0.002,-0.0726 c 2e-4,-0.006 -0.0384,0.1244 -0.0165,0.0656 0.0839,-0.2255 -0.0308,-0.4762 -0.2563,-0.5601 -0.2254,-0.0839 -0.4761,0.0308 -0.5601,0.2562 -0.0156,0.0421 -0.0247,0.0862 -0.0268,0.131 l -0.0105,0.2831 -0.005,0.3863 -0.0157,0.2893 -0.0531,0.2209 0.0305,-0.0422 c -0.0187,0.021 0.1549,-0.1041 0.1019,-0.0774 -0.0858,0.0434 0.4248,0.0361 0.3286,-0.007 -0.0887,-0.04 0.1527,0.1338 0.1377,0.1114 m -4.5747,-10.9443 c 0.0261,0.2331 0.2363,0.401 0.4695,0.3748 0.2082,-0.0233 0.3684,-0.195 0.3771,-0.4044 0.0289,-0.6896 0.2717,-1.1248 0.5171,-1.6614 l 0.3321,-0.7971 0.2382,-0.3553 0.1374,-0.0572 0.3231,-0.0757 0.2589,7e-4 0.3235,0.032 c 0.0548,0.009 0.1103,0.014 0.1659,0.0138 l 0.4807,0.0462 c 0.0913,0.018 0.1848,0.0217 0.2772,0.011 l 0.5722,-0.003 c 0.2621,0.0421 0.5086,-0.1362 0.5507,-0.3982 0.006,-0.0395 0.008,-0.0796 0.004,-0.1195 -0.0354,-0.3917 -0.3048,-0.7515 -0.635,-1.0441 -0.0701,-0.0621 -0.1495,-0.1128 -0.2353,-0.1504 l -0.8271,-0.2589 c -0.0546,-0.0109 -0.1099,-0.0172 -0.1655,-0.0186 l -0.5422,0.0214 -0.5801,0.1297 -0.6874,0.3246 -0.5743,0.6173 c -0.1784,0.2517 -0.2607,0.5325 -0.3318,0.7479 l -0.2372,0.9299 c -0.1172,0.5523 -0.3087,1.2291 -0.2118,2.094 m 3.7228,-2.5181 c 0.1655,-0.0462 0.2866,-0.188 0.3065,-0.3587 0.0373,-0.3214 -0.19,-0.4909 -0.3545,-0.5809 l -0.5101,-0.1415 c -0.0652,-0.005 -0.1308,-7e-4 -0.1947,0.013 -0.5281,0.1133 -0.8136,0.4725 -1.02,0.7365 l -0.3443,0.6749 -0.212,0.8325 -0.0994,1.1416 -0.002,0.6134 0.0355,0.5206 0.0955,0.5427 1.4355,-0.3521 c -0.0115,-0.0629 0.0102,0.0901 0.01,0.0829 l 0.008,-0.4138 0.1449,-1.2499 0.0991,-0.5919 0.0226,-0.495 0.0267,-0.4861 -0.009,0.2271 c 0.0444,-0.2355 -0.0605,-0.5937 -0.2619,-0.7771 -0.5341,-0.4864 -0.9439,-0.258 -1.2753,-0.0472 -0.0473,0.0301 -0.0916,0.0647 -0.1323,0.1033 -0.4757,0.4509 -0.5091,0.9307 -0.5781,1.4021 l -0.0935,1.4114 c 0.0485,0.7772 0.2253,1.4392 0.4622,2.0048 l 0.3054,0.6534 c 0.1107,0.1914 0.1752,0.5575 0.6551,0.8286 l 0.3868,0.1679 c 0.2215,0.0546 0.5707,-0.005 0.7754,-0.1756 0.4532,-0.307 0.281,-0.5992 0.2733,-0.7588 l -0.0314,-0.3897 c -0.01,-0.589 0.006,-1.3861 -0.0885,-2.1209 l -0.0867,-0.7804 -0.144,-0.6853 c -0.0405,-0.1548 -0.1571,-0.3661 -0.3623,-0.5414 -0.2148,-0.1837 -0.626,-0.3573 -1.0594,-0.1869 -0.0751,0.0295 -0.1458,0.0692 -0.2101,0.1179 -0.7023,0.5316 -0.5322,1.0426 -0.5471,1.5096 l 0.0377,1.4302 c 0.078,0.7479 0.2572,1.3557 0.4938,1.8521 l 0.4128,0.74 0.5198,0.8194 c 0.0883,0.1327 0.2144,0.2847 0.432,0.402 0.2351,0.1268 0.7936,0.1221 1.0388,-0.2125 0.263,-0.3127 0.1778,-0.5403 0.1688,-0.7012 l -0.0318,-0.391 c -0.023,-0.633 0.0412,-1.4898 -0.0297,-2.3115 l -0.1361,-0.9123 0.006,-0.2867 c -0.0173,-0.1024 0.101,-0.3497 -0.2876,-0.7963 -0.2126,-0.3006 -0.822,-0.311 -1.034,-0.2071 -0.551,0.2701 -0.447,0.4434 -0.5092,0.6042 l -0.1293,0.5498 -0.0276,0.4856 0.0245,1.0041 c 0.0227,0.5512 0.1045,1.0355 0.2255,1.4716 0.2098,0.7759 0.4998,1.3996 0.7748,1.9194 l 0.2966,0.576 0.0998,0.5235 0.1864,0.7047 0.1151,0.3671 c 0.165,0.3634 0.5934,0.5242 0.9568,0.3592 0.3634,-0.165 0.5242,-0.5933 0.3592,-0.9567 -0.01,-0.0219 -0.0209,-0.0433 -0.033,-0.064 -0.0594,-0.1024 0.0765,0.2061 0.0708,0.1793 l -0.0577,-0.5956 c -0.01,-0.0546 -0.0251,-0.1078 -0.0464,-0.1589 -0.1843,-0.441 -0.4318,-0.9341 -0.6241,-1.5637 -0.0784,-0.2567 -0.3501,-0.4012 -0.6068,-0.3228 -0.2142,0.0654 -0.356,0.2688 -0.3432,0.4925 l 0.1434,1.6784 c -2e-4,0.0553 0.006,0.1105 0.0178,0.1645 l 0.0528,0.3454 c 0.0155,0.1246 -0.1414,0.2091 0.2291,0.6246 l 1.028,-1.0133 c -0.0814,-0.0748 0.1402,0.1798 0.123,0.1507 -0.0448,-0.0759 0.0221,0.0412 0.002,-0.01 l -0.0988,-0.2263 -0.1667,-0.4308 -0.0356,-0.6021 -0.3091,-0.8592 c -0.2144,-0.4988 -0.4107,-1.0197 -0.5452,-1.6674 l -0.0941,-1.1044 0.0241,-0.9871 0.0118,-0.3317 0.0223,-0.155 c 6e-4,-0.002 -0.0556,0.1077 -0.0278,0.058 0.0166,-0.0297 -0.2053,0.2454 -0.1211,0.1598 0.0479,-0.0487 -0.4135,0.245 -0.2662,0.1817 0.0789,-0.0339 -0.419,0.0728 -0.3,0.068 0.1215,-0.005 -0.4839,-0.1176 -0.3692,-0.0683 0.014,0.0127 -0.3094,-0.2482 -0.271,-0.2002 0.0506,0.0634 -0.0552,-0.0869 -0.0482,-0.0708 l 0.0707,0.1603 0.0775,0.2224 0.0996,0.6859 0.1234,2.2602 0.037,0.3833 0.003,0.0385 0.0162,-0.0762 c -0.0134,0.0435 0.1473,-0.2444 0.093,-0.175 -0.0236,0.0247 0.3152,-0.2175 0.2316,-0.1807 -0.0733,0.0322 0.2913,-0.0527 0.2215,-0.0504 -0.1172,0.004 0.3058,0.0759 0.2534,0.0509 -0.0696,-0.0332 0.0976,0.0667 0.093,0.0619 l -0.0252,-0.0362 -0.3304,-0.7368 -0.2785,-0.6316 c -0.108,-0.3406 -0.1879,-0.7855 -0.1912,-1.3051 l -0.0434,-1.3247 0.0325,-0.3756 -0.0522,0.0823 c 0.028,-0.039 -0.1931,0.1835 -0.1313,0.1354 0.063,-0.0489 0.1191,-0.1062 0.1668,-0.1702 0.082,-0.1103 -0.4809,0.2952 -0.3474,0.2511 0.0975,-0.0322 -0.3406,0.0248 -0.2651,0.0316 0.1074,0.01 -0.2816,-0.105 -0.2313,-0.0738 0.0471,0.0292 -0.113,-0.1082 -0.0942,-0.0833 l 0.0361,0.2317 0.1752,0.7163 c 0.1025,0.5646 0.1261,1.3294 0.1736,1.9739 l 0.0184,0.347 0.003,0.0157 c -0.004,0.0216 0.0737,-0.1784 0.0429,-0.119 -0.0338,0.0654 0.3363,-0.2967 0.2187,-0.2279 -0.008,2e-4 0.393,-0.054 0.3055,-0.0652 -0.0635,-0.008 0.1779,0.0604 0.1458,0.0441 l -0.043,-0.055 0.0489,0.0607 -0.1426,-0.3999 -0.2022,-0.5442 c -0.1081,-0.4161 -0.1753,-0.9303 -0.1472,-1.4092 l 0.0472,-1.2379 0.0738,-0.3966 0.0244,-0.0685 c 3e-4,-5e-4 -0.0937,0.1117 -0.0522,0.0681 0.0391,-0.0408 0.0741,-0.0854 0.1045,-0.133 0.0537,-0.084 -0.2599,0.2021 -0.1779,0.1608 0.0459,-0.0231 -0.3887,0.0713 -0.2493,0.0637 0.0768,-0.004 -0.4216,-0.095 -0.3013,-0.0484 0.1254,0.0486 -0.4218,-0.3879 -0.3388,-0.2673 l -0.0997,-0.2034 c 0.0271,0.0849 -0.0154,-0.0757 -0.0139,-0.0253 l 0.0112,0.2745 -0.0155,0.2204 -0.0999,0.5624 -0.1631,1.4515 c -2e-4,0.2371 -0.106,0.2274 0.0383,0.701 0.1191,0.3911 0.5328,0.6116 0.9239,0.4924 0.3588,-0.1093 0.5792,-0.4697 0.5129,-0.8389 l -0.0301,-0.2746 0.0311,-0.4306 -0.002,-0.5762 0.0907,-0.9033 0.1513,-0.6477 0.0899,-0.3237 0.187,-0.2754 c 0.0603,-0.0258 0.1165,-0.0603 0.1669,-0.1023 l 0.1783,-0.1113 z m -0.2617,-0.6191 c -0.1056,0.2089 -0.0219,0.464 0.1871,0.5696 0.209,0.1057 0.464,0.0219 0.5696,-0.1871 l -0.0165,0.0294 c 0.01,-0.0157 -0.1208,0.1316 -0.0707,0.0853 0.027,-0.025 -0.2382,0.1191 -0.1525,0.0903 0.0446,-0.0149 -0.2358,0.0151 -0.1694,0.0206 0.0668,0.005 -0.249,-0.1007 -0.1931,-0.0651 0.1059,0.0676 -0.1879,-0.258 -0.1675,-0.2047 0.0346,0.0897 -0.028,-0.1776 -0.0281,-0.1521 -2e-4,0.0742 0.008,-0.076 0.007,-0.0736 l -0.0313,0.1139 c -0.0648,0.225 0.0651,0.46 0.2901,0.5248 0.225,0.0647 0.46,-0.0652 0.5247,-0.2902 l 0.0413,-0.1518 0.016,-0.1218 c 0,-0.0346 0.033,-0.0922 -0.0802,-0.2495 -0.1034,-0.1436 -0.4284,-0.1885 -0.545,-0.1261 -0.2491,0.1336 -0.1712,0.1672 -0.1817,0.1881 m 0.1703,-0.1726 c 0.2222,0.0725 0.461,-0.0489 0.5335,-0.2711 0.0523,-0.1603 0.004,-0.3363 -0.1219,-0.4481 -0.0125,-0.0144 0.0609,0.1945 0.0474,0.1245 -0.013,-0.0676 -0.108,0.4042 -0.0465,0.2892 0.0558,-0.1043 -0.3487,0.2565 -0.2576,0.223 0.0735,-0.027 -0.1858,0.03 -0.1546,0.0294 0.0854,-0.002 -0.0688,-0.005 -0.051,-9e-4 l 0.0871,0.0287 0.458,0.187 c 1.1464,0.5206 2.0689,1.1537 2.4198,1.9702 l 0.2377,0.662 0.5667,1.47 0.3066,0.8551 0.1098,0.2993 0.1517,0.2986 0.0907,0.1311 0.093,0.0993 c 0.0536,0.0484 0.0467,0.2275 0.5415,0.1835 0.386,-0.0343 0.671,-0.375 0.6366,-0.761 -0.019,-0.2139 -0.135,-0.4073 -0.3148,-0.5249 -0.074,-0.0484 0.1941,0.1896 0.1591,0.1452 -0.0606,-0.0767 0.1052,0.1944 0.0927,0.1617 -0.0327,-0.0859 0.014,0.0389 -1e-4,-0.0334 l -0.1033,-0.34 c -0.1588,-0.3953 -0.416,-0.5615 -0.4993,-0.6658 l -0.1647,-0.3008 c -0.3975,-0.8688 -0.6723,-1.907 -1.5158,-2.6277 -0.3502,-0.3237 -0.8239,-0.6817 -1.4522,-0.8673 l -1.1294,-0.1752 -0.4197,-0.0206 c -0.0975,-0.006 0.147,0.0741 0.0777,0.0375 -0.0392,-0.0208 0.2444,0.2221 0.1686,0.1358 -0.0418,-0.0475 0.173,0.3332 0.1328,0.2242 -0.021,-0.0572 0.0491,0.2809 0.0437,0.2033 -0.006,-0.0792 -0.0487,0.3349 -0.0253,0.2506 0.0107,-0.007 -0.2577,0.3906 -0.2004,0.3363 0.0996,-0.0943 -0.2677,0.1567 -0.2215,0.1397 0.0678,-0.0248 -0.078,0.0205 -0.0668,0.0194 l 0.4247,0.0122 0.3476,0.1146 0.244,0.1842 0.4692,0.5432 0.3293,0.445 0.135,0.2072 0.3991,0.4859 0.211,0.2288 0.1393,0.1207 c 0.0434,0.0312 0.0766,0.1009 0.3352,0.1335 0.1568,0.0199 0.496,-0.0461 0.6703,-0.3013 0.1629,-0.2385 0.1284,-0.4181 0.114,-0.5094 -0.045,-0.6192 -0.3315,-0.6593 -0.5086,-0.8863 -0.2078,-0.2844 -0.4653,-0.4938 -0.6761,-0.6711 L 372.396,701.966 372,701.704 c -0.1285,-0.1008 0.1709,0.2888 0.13,0.1925 -0.0306,-0.0718 0.0486,0.2934 0.0472,0.2204 -0.002,-0.1087 -0.149,0.4231 -0.0862,0.3192 0.0322,-0.0533 -0.1918,0.2041 -0.1337,0.1555 0.0594,-0.0497 -0.309,0.1477 -0.222,0.1207 -0.0292,0.0137 -0.3878,0.0104 -0.332,0.0212 0.0901,0.0174 -0.1806,-0.0677 -0.1574,-0.0549 l 0.1122,0.0918 0.7771,0.8225 0.5387,0.6061 0.1501,0.141 0.3007,0.5374 0.2206,0.5589 0.1805,0.3357 0.0878,0.1851 -0.005,-0.0249 c 0.006,0.028 -0.004,-0.2867 -0.0113,-0.1789 -0.004,0.0608 0.1301,-0.3915 0.0714,-0.2693 -0.0314,0.0653 0.2277,-0.2859 0.1534,-0.2134 -0.0766,0.0746 0.4092,-0.215 0.2954,-0.1782 -0.2607,0.1297 0.3165,-0.039 0.2124,-0.0362 -0.0961,0.003 0.2857,0.0454 0.2282,0.0289 -0.1028,-0.0295 0.2318,0.1116 0.194,0.0874 -0.0626,-0.0401 0.1116,0.0891 0.0976,0.0758 l -0.1403,-0.1828 -1.0483,-1.5197 -0.8535,-1.0724 -0.6131,-0.5169 -0.2892,-0.1601 c -0.108,-0.0696 0.2302,0.3435 0.1968,0.2486 -0.0174,-0.0494 0.029,0.3013 0.0311,0.2046 0.001,-0.0523 -0.0653,0.2901 -0.0363,0.2041 0.031,-0.0919 -0.3485,0.4327 -0.22,0.3233 0.0782,-0.0679 -0.2968,0.1599 -0.2219,0.1314 0.1388,-0.0529 -0.3994,0.0417 -0.3236,0.0474 0.127,0.01 -0.2474,-0.0636 -0.2133,-0.0496 0.0886,0.0365 -0.0479,-0.023 -0.009,0.004 l 0.1609,0.1114 c 0.4325,0.284 0.8936,0.7512 1.2153,1.1932 l 0.4263,0.7362 0.1985,0.3503 0.0512,0.1946 0.1501,0.4745 0.4314,0.6009 0.2972,0.1903 0.3826,0.0606 c 0.2307,-0.0215 0.6476,-0.3508 0.6729,-0.68 l -0.063,0.2452 c 0.1823,-0.4013 0.0356,-0.5665 -0.008,-0.6679 l -0.3354,-0.5367 c -0.2839,-0.4839 -0.6447,-0.7547 -0.8517,-1.019 l -0.6778,-0.6758 -0.3162,-0.2593 -0.7234,-0.3692 -0.1307,-0.0638 0.0607,0.0493 c -0.0226,-0.026 0.0962,0.1466 0.0906,0.1309 l -0.005,-0.0284 0.009,-0.1042 0.007,-0.2577 c -0.0139,-0.1397 -0.0919,-0.4008 -0.3338,-0.5484 l 0.2428,0.2719 c -0.2432,-0.5233 -0.6888,-0.4251 -0.8754,-0.3919 l -0.4414,0.1477 c -0.8828,0.6055 -0.7469,1.4412 -0.7777,2.0253 l 0.008,0.8866 -0.1408,0.5589 10e-4,0.494 0.079,0.2056 c 0.0412,0.0767 0.0231,0.2159 0.3982,0.344 l 0.5266,-1.2552 c -0.0856,-0.0429 0.245,0.203 0.1981,0.151 -0.085,-0.0944 0.1505,0.2728 0.1322,0.2213 -0.0301,-0.0849 0.0339,0.1622 0.032,0.1412 l 0.0237,-0.296 0.1394,-0.4563 c 0.0837,-0.2256 0.2311,-0.3507 0.4102,-0.4115 l 0.4737,-0.0335 c 0.0618,0.0129 0.125,0.0179 0.1881,0.0148 l 0.5067,0.1049 c 0.2747,0.1218 0.5962,-0.002 0.7181,-0.2769 0.0856,-0.1931 0.0518,-0.4182 -0.0867,-0.5776 -0.2386,-0.2746 -0.5245,-0.4995 -0.8471,-0.658 -0.0573,-0.0282 -0.1179,-0.0488 -0.1805,-0.0615 -0.4288,-0.0866 -0.8726,-0.0566 -1.2743,0.0973 -0.5881,0.2458 -1.0457,0.7483 -1.2353,1.3737 -0.054,0.1627 -0.1796,0.4252 -0.1976,0.7994 l -0.0106,0.3152 0.009,0.1954 0.043,0.1854 c 0.0367,0.101 0.1109,0.3543 0.4952,0.4452 0.3666,0.0868 0.7341,-0.1401 0.8209,-0.5068 0.0782,-0.3307 -0.0989,-0.6685 -0.4154,-0.7923 -0.097,-0.038 0.235,0.1524 0.1944,0.1172 -0.0694,-0.0601 0.139,0.1677 0.118,0.1352 -0.0628,-0.0972 0.0796,0.2207 0.0728,0.1788 l -0.004,0.1278 0.1533,-0.7964 0.0519,-0.8693 0.0759,-0.7636 0.0509,-0.1687 -0.0435,0.0365 0.1676,-0.127 -0.038,0.0121 c 0.0249,-0.006 -0.1892,0.014 -0.1263,0.0147 0.0687,6e-4 -0.3858,-0.1393 -0.2783,-0.0771 l -0.2486,-0.2652 c 0.0558,0.1126 -0.0544,-0.3552 -0.0587,-0.2874 l 0.0174,-0.1031 c -0.0174,0.0597 -0.1339,0.1582 -0.1553,0.551 -6e-4,0.2104 0.002,0.4662 0.1927,0.7523 0.1253,0.2096 0.2941,0.3128 0.3815,0.3783 l 0.5556,0.3412 0.3307,0.2273 0.4411,0.4448 c 0.4185,0.4363 0.7145,0.6008 0.8962,0.8498 l 0.1404,0.2289 0.009,0.0125 c 0.007,0.0202 -0.0338,-0.2062 -0.0272,-0.1311 0.004,0.0413 0.0181,-0.2342 0.007,-0.1646 -0.0122,0.0737 0.1602,-0.3532 0.1002,-0.2596 l 0.1672,-0.1828 c -0.0827,0.0641 0.3769,-0.1547 0.2803,-0.1326 -0.0913,0.0209 0.3074,-0.006 0.2408,-0.0137 -0.1205,-0.0135 0.2818,0.0919 0.2353,0.0688 -0.077,-0.0381 0.1408,0.0939 0.122,0.0784 -0.0808,-0.0671 -0.007,-0.0211 -0.0198,-0.0602 l -0.1735,-0.4223 -0.1266,-0.3789 -0.2239,-0.4186 -0.533,-0.9145 c -0.4169,-0.5825 -0.9647,-1.1591 -1.5936,-1.5792 l -0.2174,-0.1443 -0.1779,-0.0977 -0.2142,-0.0661 c -0.1266,-0.0215 -0.4161,-0.0565 -0.6897,0.2174 -0.4641,0.4628 -0.2434,0.7417 -0.1687,0.9322 0.0743,0.1895 0.2071,0.3768 0.4296,0.5119 l 0.2549,0.1297 0.2801,0.2835 0.8065,0.9456 1.0616,1.5442 0.172,0.2198 0.1137,0.1266 0.1367,0.1116 c 0.0892,0.0587 0.3377,0.2983 0.8099,0.0293 0.4821,-0.4047 0.3942,-0.6785 0.3806,-0.779 -0.0608,-0.4477 -0.1704,-0.4731 -0.292,-0.674 l -0.1202,-0.1936 -0.2647,-0.6079 c -0.1032,-0.2281 -0.2211,-0.53 -0.4503,-0.8255 l -0.1596,-0.1679 -0.5137,-0.602 c -0.3148,-0.3801 -0.6207,-0.7649 -1.0422,-1.0728 l -0.2129,-0.1487 c -0.1131,-0.0704 -0.2967,-0.2341 -0.7052,-0.1424 -0.6928,0.0324 -0.9453,1.0405 -0.4423,1.5627 l 0.5964,0.4142 0.5361,0.3485 0.494,0.3944 0.2191,0.2721 0.0506,0.0724 -0.01,-0.0196 c 0.009,0.0202 -0.0492,-0.1975 -0.0371,-0.1262 -0.003,-0.008 0.0211,-0.3388 0.004,-0.2529 -0.0179,0.0889 0.25,-0.4278 0.1549,-0.3172 -0.0946,0.1101 0.4878,-0.254 0.3619,-0.2228 -0.1164,0.0289 0.3489,-2e-4 0.2798,-0.0115 -0.1218,-0.0198 0.2569,0.0956 0.2175,0.0742 -0.0644,-0.035 0.1117,0.0769 0.0979,0.0655 l -0.1371,-0.1569 -0.2892,-0.3615 -0.1337,-0.209 -0.3622,-0.5254 -0.6109,-0.6894 -0.6221,-0.4574 c -0.2133,-0.1108 -0.486,-0.2328 -0.8223,-0.2771 l -0.5213,-0.0536 -0.3001,0.007 c -0.1235,0.0145 -0.3496,-0.025 -0.6191,0.3395 -0.1793,0.1766 -0.1805,0.5718 -0.1038,0.7726 0.1949,0.5105 0.5098,0.5689 0.8233,0.6267 l 0.5484,0.0302 0.8587,0.0675 c 0.3288,0.0707 0.6268,0.2453 0.9322,0.4822 0.3974,0.3337 0.6994,1.1611 1.144,2.1132 l 0.3486,0.5949 0.3319,0.3521 -0.006,0.0306 c 0.009,0.0701 -0.1919,0.1684 0.2626,0.5742 l 1.1563,-0.6551 c -0.0776,-0.4057 -0.0909,-0.257 -0.1217,-0.3621 l -0.0935,-0.3165 -0.2719,-0.8169 -0.5961,-1.5031 -0.2993,-0.7674 c -0.6169,-1.3385 -1.9172,-2.0823 -3.1651,-2.6109 -0.2783,-0.0967 -0.5299,-0.182 -0.8427,-0.173 -0.3092,0.0532 -0.6948,0.002 -0.7786,0.5939 -0.049,0.3457 0.2364,0.5351 0.3113,0.5718 l 0.2188,0.084 z m -2.833,-0.2995 c 0.181,0.0749 0.3897,0.0157 0.5045,-0.143 l 0.0192,-0.0261 c 0.002,-0.002 -0.0992,0.101 -0.0398,0.0433 0.2217,-0.2153 0.2269,-0.5696 0.0116,-0.7913 -0.2153,-0.2217 -0.5696,-0.2269 -0.7913,-0.0115 -0.2217,0.2153 -0.2269,0.5696 -0.0116,0.7913 0.1889,0.1944 0.4899,0.2255 0.7145,0.0739 0.0766,-0.0517 -0.2036,0.0843 -0.1608,0.0733 0.1194,-0.0309 -0.2934,-0.0294 -0.2463,-0.01 m -0.3235,-0.0855 c 0.2642,0.2108 0.6494,0.1676 0.8603,-0.0966 0.2013,-0.2523 0.1722,-0.6175 -0.0665,-0.8347 -0.5627,-0.5119 -1.2003,-0.1719 -1.5743,0.134 -0.3116,0.2528 -0.4193,0.4881 -0.4832,0.5477 l -0.5256,0.2554 c -0.5026,0.2315 -1.0822,0.6398 -1.3973,1.3407 -0.4719,1.1347 -0.4325,2.3388 -0.5018,3.3114 l 0.021,1.4554 0.047,0.5058 c 0.0169,0.1563 -0.0356,0.429 0.0609,0.8069 0.0822,0.2954 0.2407,0.4526 0.3175,0.5378 l 0.0506,0.0918 c 0.0438,0.0737 0.0507,0.4056 0.6278,0.3863 0.3315,0.0795 0.5044,-0.2688 0.5516,-0.3711 0.2118,-0.4588 0.0975,-0.6188 0.1251,-0.7849 0.057,-0.4278 0.3949,-0.8584 0.6674,-1.5238 l 0.6919,-1.3281 0.304,-0.4968 c 0.0324,-0.05 0.1917,-0.1196 0.4314,-0.4489 l 0.2728,-0.5798 c 0.1131,-0.3626 0.2553,-0.7809 -0.3319,-1.1882 -0.5308,-0.3243 -0.858,-0.021 -1.0058,0.1153 l -0.3209,0.4535 c -0.1713,0.4222 -0.5247,1.0674 -0.7281,1.6737 l -0.1212,0.3496 -0.0261,0.0648 c -6e-4,10e-4 0.1057,-0.119 0.0586,-0.0732 -0.0766,0.0693 0.5078,-0.152 0.3811,-0.1532 -0.0913,-9e-4 0.2701,0.0762 0.2174,0.0504 -0.0737,-0.0361 0.1574,0.1332 0.1341,0.104 l 0.0375,0.0648 c -0.0269,-0.0826 0.0289,-0.7515 0.1923,-1.2157 l 0.1839,-0.3904 0.2618,-0.4214 0.4319,-0.2746 0.4265,-0.1072 0.4635,-0.2203 0.2177,-0.2432 c 0.0437,-0.0741 0.1074,-0.1756 0.1031,-0.3878 -0.002,-0.1172 -0.0294,-0.2847 -0.1729,-0.4499 -0.1521,-0.175 -0.4626,-0.2547 -0.6144,-0.2359 l 0.6306,0.2577 c -0.3337,-0.4196 -0.5699,-0.2778 -0.6674,-0.2685 l -0.4962,0.1148 c -0.3618,0.0969 -0.5631,0.2696 -0.6541,0.3169 l 0.0823,0.01 0.1105,0.0315 c -0.0364,-0.0146 0.1732,0.1037 0.1262,0.0698 -0.074,-0.0534 0.2619,0.3845 0.2102,0.2635 -0.0524,-0.1225 0.021,0.4709 0.0406,0.3659 0.004,-0.006 -0.0847,0.2101 -0.0676,0.1827 0.0487,-0.0785 -0.0434,0.0514 0.001,0.0216 l 0.2214,-0.1119 0.8839,-0.198 0.743,-0.1038 c 0.1207,-0.0177 0.2347,-0.0661 0.3313,-0.1406 l 0.2671,-0.2469 c 0.1957,-0.2277 0.1698,-0.5709 -0.0579,-0.7666 -0.027,-0.0233 -0.0563,-0.0438 -0.0873,-0.0613 l -0.2366,-0.1258 c -0.11,-0.0554 -0.2324,-0.0813 -0.3554,-0.0753 l -0.7398,0.04 c -0.4379,0.0682 -0.8758,0.168 -1.3143,0.3759 -0.3933,0.1907 -0.862,0.2938 -0.9233,1.0301 -0.0433,0.2448 0.2001,0.6061 0.3977,0.7045 0.481,0.2394 0.6999,0.0678 0.9727,-0.0665 l 0.3695,-0.1846 0.261,-0.0593 c 0.0221,-0.003 -0.2319,-0.0396 -0.149,-0.0193 0.0459,0.0112 -0.2544,-0.1187 -0.1803,-0.0743 0.0789,0.0472 -0.3095,-0.369 -0.2417,-0.2487 l -10e-4,-0.6816 c -0.057,0.1019 0.1968,-0.2246 0.158,-0.1918 -0.0637,0.0538 0.1164,-0.0797 0.1005,-0.0706 -0.0792,0.0456 0.0689,-0.0329 0.0672,-0.0324 -0.1166,0.009 -0.3783,-0.007 -0.7125,0.1029 -0.4837,0.2171 -0.8579,0.5105 -1.1278,0.913 l -0.3374,0.5577 -0.2785,0.6648 c -0.1852,0.6677 -0.3624,1.4248 -0.0502,2.1337 0.074,0.1814 0.2013,0.3596 0.42,0.4814 0.2312,0.1288 0.681,0.1292 0.928,-0.129 0.3373,-0.3298 0.3005,-0.5867 0.3857,-0.8172 l 0.7695,-1.511 0.0124,-0.0348 c 0.0155,-0.0146 -0.2162,0.1146 -0.1304,0.0797 0.0477,-0.0195 -0.2987,0.0444 -0.2067,0.0422 0.0971,-0.002 -0.4407,-0.149 -0.331,-0.0853 0.1057,0.0548 -0.1573,-0.1342 -0.1221,-0.0972 0.0568,0.06 -0.1018,-0.1625 -0.0897,-0.1336 0.0285,0.0683 -0.0136,-0.0628 -0.0149,-0.0573 l -0.0424,0.0699 c -0.008,0.009 -0.2371,0.0899 -0.5066,0.4522 l -0.3327,0.5728 c -0.3135,0.5068 -0.5683,1.0576 -0.7682,1.5874 -0.1723,0.4507 -0.6138,1.0059 -0.7048,1.837 l -0.0122,0.4967 -10e-4,0.1293 0.005,-0.0337 c -0.004,0.022 0.0651,-0.1851 0.0371,-0.1204 -0.0156,0.0358 0.1302,-0.195 0.0845,-0.1388 -0.0488,0.06 0.3422,-0.2208 0.2346,-0.1756 -0.005,-0.0138 0.5553,0.0438 0.4721,0.005 -0.0676,-0.0313 0.1602,0.1114 0.1339,0.0877 -0.0739,-0.0668 0.0503,0.0548 0.0224,0.0129 l -0.1535,-0.2055 -0.0258,-0.0213 -0.0241,-0.658 -0.0256,-0.4363 0.0533,-1.273 c 0.1008,-1.0436 0.1282,-2.1143 0.4602,-2.8607 0.137,-0.3329 0.3896,-0.541 0.7062,-0.7032 0.1966,-0.1008 0.5397,-0.2016 0.8566,-0.5294 l 0.3954,-0.522 0.1511,-0.093 -0.0328,-6e-4 c 0.04,0.003 -0.2275,-0.1171 -0.1686,-0.0701"
       style="fill:#ff9a00;fill-opacity:1;fill-rule:nonzero;stroke:none"
       transform="matrix(1.3333333,0,0,-1.3333333,0,1071)"
       clip-path="url(#clipPath39)" />
    <path
       d="m 453.35416,149.32237 c -1.6248,0.0261 -3.27654,-1.08267 -4.69374,-3.42187 -2.57306,-4.24693 -4.45226,-12.58866 -4.60733,-22.23426 -0.007,-0.43387 -0.0107,-0.86534 -0.0107,-1.294 0,-12.17067 2.91814,-21.8876 6.536,-24.065597 0.62787,-0.378 1.27987,-0.571467 1.94587,-0.582267 1.6248,-0.02613 3.27653,1.082667 4.69373,3.421864 2.57294,4.24693 4.45227,12.58866 4.60734,22.23426 0.007,0.43387 0.0107,0.86534 0.0107,1.294 0,12.17067 -2.91813,21.8876 -6.53586,24.0656 -0.628,0.378 -1.28,0.57147 -1.94587,0.58227 m 0.8724,-2.41653 c 3.3312,-2.04134 5.4844,-11.31547 5.4844,-22.23134 0,-0.41733 -0.003,-0.83733 -0.0107,-1.25986 -0.14733,-9.16267 -1.8508,-17.1244 -4.30013,-21.1672 -0.0316,-0.0521 -0.0632,-0.10374 -0.0949,-0.15467 1.3e-4,-0.10093 -0.0285,-0.20307 -0.0884,-0.2936 -0.15147,-0.22853 -0.32,-0.38813 -0.46494,-0.51613 -0.26653,-0.35054 -0.54053,-0.6508 -0.8244,-0.88467 -0.0815,-0.0941 -0.18733,-0.1944 -0.35613,-0.25413 -0.32347,-0.195065 -0.66013,-0.300795 -1.01333,-0.295065 -0.30494,0.005 -0.59867,0.10627 -0.884,0.277995 -3.34414,2.0132 -5.50694,11.30453 -5.50694,22.24507 0,0.41733 0.003,0.83733 0.0107,1.25986 0.14733,9.16267 1.85067,17.1244 4.30013,21.1672 0.47854,0.78987 0.976,1.45107 1.50814,1.87787 0.0616,0.0895 0.1544,0.1792 0.29866,0.24307 0.24614,0.1984 0.55067,0.3168 0.8484,0.3424 0.38067,0.0325 0.79894,-0.0889 1.09347,-0.3568 m 78.47506,2.398 c -1.30466,0.0211 -2.6276,-0.6928 -3.8324,-2.19267 l 0.186,0.008 0.41467,-0.0531 0.9896,0.1104 0.5808,-0.001 0.6232,-0.12267 0.14533,0.0727 0.15387,0.0376 0.352,0.009 c 0.14893,0.001 0.25013,0.009 0.3528,0.008 0.30427,-0.005 0.59733,-0.10666 0.882,-0.2788 0.29773,-0.1512 0.45907,-0.25 0.60773,-0.4588 0.6836,-0.62226 1.31027,-1.5632 1.8704,-2.76773 l 0.33214,-0.60253 c 0.072,-0.10774 0.10373,-0.24027 0.0844,-0.37214 1.64346,-4.17693 2.61253,-10.7924 2.61253,-18.15186 0,-0.42147 -0.004,-0.84574 -0.0107,-1.2724 -0.1232,-7.66067 -1.32346,-14.48614 -3.13386,-18.90414 -0.0617,-0.14946 -0.0929,-0.22386 -0.1244,-0.2976 l -0.1296,-0.30626 -0.11267,-0.2744 -0.10947,-0.21307 -0.18,-0.40187 -0.37613,-0.67253 -0.0924,-0.13173 c -0.49067,-0.81427 -0.95307,-1.44227 -1.44493,-1.87174 -0.0825,-0.1416 -0.19267,-0.219055 -0.30454,-0.267995 -0.04,-0.0248 -0.084,-0.0445 -0.13146,-0.0583 -0.32827,-0.19067 -0.65854,-0.29267 -1.0048,-0.28707 -0.15867,0.003 -0.31427,0.0315 -0.4672,0.0829 l -1.27467,-0.0229 -0.22667,0.0237 -0.4616,10e-4 c -0.31693,-0.0533 -0.64426,-0.0852 -0.978,-0.0672 -0.0671,-0.004 -0.1328,-0.008 -0.19733,-0.0133 0.51893,-0.684529 1.06293,-1.205996 1.62387,-1.545196 0.62853,-0.380133 1.28106,-0.574533 1.94746,-0.585333 1.62454,-0.02613 3.27747,1.087067 4.6952,3.438394 2.5728,4.26707 4.452,12.64813 4.60787,22.33893 0.007,0.43814 0.0107,0.87374 0.0107,1.30654 0,12.22373 -2.91614,21.98413 -6.5324,24.17133 -0.62854,0.38013 -1.28107,0.57453 -1.9476,0.5852 m -82.5216,-42.26613 c 1.46693,0 2.65613,1.1892 2.65613,2.65626 0,1.46694 -1.1892,2.65627 -2.65613,2.65627 H 444.197 c -1.46707,0 -2.65627,-1.18933 -2.65627,-2.65627 0,-1.46706 1.1892,-2.65626 2.65627,-2.65626 z m 5.03293,9.94013 c 1.46694,0 2.65627,1.1892 2.65627,2.65627 0,1.46693 -1.18933,2.65626 -2.65627,2.65626 h -5.98293 c -1.46707,0 -2.65627,-1.18933 -2.65627,-2.65626 0,-1.46707 1.1892,-2.65627 2.65627,-2.65627 z m -5.98293,9.81347 c 1.46693,0 2.65627,1.1892 2.65627,2.65626 0,1.46694 -1.18934,2.65627 -2.65627,2.65627 H 443.247 c -1.46707,0 -2.65627,-1.18933 -2.65627,-2.65627 0,-1.46706 1.1892,-2.65626 2.65627,-2.65626 z m 3.7092,8.54733 c 1.46707,0 2.65627,1.1892 2.65627,2.65613 0,1.46707 -1.1892,2.65627 -2.65627,2.65627 h -5.98293 c -1.46694,0 -2.65614,-1.1892 -2.65614,-2.65627 0,-1.46693 1.1892,-2.65613 2.65614,-2.65613 z m -7.19133,1.90627 c 0.47533,0.13573 0.75066,0.63106 0.61493,1.1064 -0.12493,0.43746 -0.55813,0.7116 -1.00693,0.6372 -0.3088,-0.0511 -0.7068,0.10413 -1.01547,0.34573 l -0.5536,0.4656 c -0.12573,0.1568 -0.30893,0.7272 -0.406,1.33853 l -0.074,1.0852 0.1144,0.13134 0.712,0.4196 0.8104,0.26613 0.44013,0.0339 0.3996,-0.0152 0.71587,-0.0556 0.9648,-0.07 c 0.32,-0.0576 0.62613,0.15506 0.68373,0.47506 0.0356,0.198 -0.0323,0.40054 -0.18013,0.53694 l -0.83653,0.65733 -1.05734,0.3532 -0.7112,0.0439 -0.75546,-0.0693 -1.24254,-0.33106 -1.14653,-0.65894 c -0.39267,-0.28613 -0.8056,-0.78773 -0.90907,-1.4268 -0.1064,-0.63493 -0.0397,-1.21826 0.0205,-1.674 0.10906,-0.73133 0.2132,-1.57466 0.7972,-2.31213 0.37693,-0.4352 0.7568,-0.65627 1.0544,-0.84333 0.68306,-0.402 1.6036,-0.71454 2.5668,-0.4396 m -2.06947,-8.66374 c 0.37613,0.11427 0.58853,0.51187 0.47427,0.88814 -0.0708,0.2332 -0.25614,0.414 -0.49094,0.4792 l -0.64466,0.2392 -1.19934,0.37053 -1.03293,0.39613 -0.25107,0.2016 -0.35893,0.26027 -0.25573,0.18973 -0.36907,0.33134 -0.21587,0.20293 -0.21973,0.23227 -0.2556,0.33546 -0.66573,0.8008 c -0.35334,0.52454 -0.57694,1.25827 -0.67294,2.05534 -0.0619,0.47773 -0.0469,0.86893 0.0673,1.28666 l 0.19893,0.61107 0.11907,0.26253 0.22573,0.31534 0.3444,0.4212 0.3816,0.60026 0.18933,0.21867 0.34614,0.31133 c 0.496,0.2008 0.7352,0.7656 0.53453,1.26147 -0.17733,0.438 -0.6448,0.68413 -1.10627,0.58267 -0.52813,-0.11627 -0.90466,-0.40307 -1.23386,-0.69534 l -0.34427,-0.32626 -0.38067,-0.3512 -0.45573,-0.40867 -0.52573,-0.58267 -0.36627,-0.69493 -0.3056,-0.84293 c -0.22467,-0.76734 -0.26067,-1.53134 -0.17987,-2.25774 0.12974,-1.07693 0.41854,-2.1808 1.06187,-3.1332 0.41573,-0.57173 0.78373,-0.82466 0.86947,-0.92786 l 0.36666,-0.4536 0.3992,-0.37614 0.3772,-0.24093 0.3824,-0.3336 0.3472,-0.26053 0.45054,-0.22574 0.52013,-0.29546 c 0.5348,-0.2392 1.06013,-0.336 1.47293,-0.4216 l 1.27427,-0.19427 z m 6.09533,-10.04773 c 0.3116,0.003 0.56174,0.258 0.5588,0.5696 -0.001,0.17027 -0.0801,0.33093 -0.2136,0.43667 -0.55386,0.43906 -1.3264,0.48306 -1.95973,0.62173 l -0.6588,0.13667 -1.1464,0.3376 -0.55,0.11853 -0.99653,0.18227 -0.4228,0.1184 -0.39427,0.1284 -0.2412,0.11933 -0.56653,0.29187 -0.20214,0.1112 -0.31733,0.17786 -0.39733,0.202 -0.878,0.46267 -0.35387,0.17613 -0.1432,0.12254 -0.38053,0.33426 -0.516,0.50067 -0.38094,0.37573 -0.19493,0.228 -0.50107,0.6584 -0.3136,0.4824 -0.27,0.48227 -0.0991,0.196 -0.226,0.4716 -0.19187,0.41667 -0.3292,0.5684 c -0.18347,0.29493 -0.3612,0.80186 -0.38147,1.22853 l 0.0683,1.6356 0.28267,0.81307 1.19546,1.69546 c 0.42107,0.65707 0.65894,1.1668 1.00254,1.482 l 0.38413,0.2556 c 0.7168,0.53147 1.75373,0.97934 2.57627,1.71 0.25426,0.22574 0.27733,0.61494 0.0515,0.8692 -0.17373,0.1956 -0.45213,0.26 -0.69426,0.16067 -0.7768,-0.31907 -1.7756,-0.4132 -2.77894,-0.71467 l -0.99653,-0.56933 c -0.7852,-0.6056 -1.19307,-1.34893 -1.49907,-1.73227 -0.442,-0.602 -0.97346,-1.19666 -1.39493,-1.90693 -0.296,-0.50547 -0.47773,-1.03947 -0.5924,-1.5904 -0.16867,-0.73693 -0.21373,-1.49933 -0.20987,-2.1776 0.0177,-0.95787 0.28627,-1.80947 0.6856,-2.5048 l 0.2296,-0.3788 0.21094,-0.424 0.232,-0.484 0.1384,-0.2724 0.3272,-0.58533 0.40133,-0.63254 0.63013,-0.81826 0.39307,-0.42467 0.3648,-0.36573 0.538,-0.56134 0.58813,-0.4848 0.55747,-0.36613 0.45147,-0.2084 0.8024,-0.4268 0.3376,-0.18267 0.39093,-0.19466 0.264,-0.11814 0.58213,-0.2628 0.47947,-0.2072 0.59093,-0.1844 0.6828,-0.1156 1.04974,-0.12293 0.50626,-0.0255 1.11187,-0.14506 1.0008,0.0305 z m -5.3592,-9.162 c 0.0204,0.12293 0.003,0.24907 -0.052,0.36107 l -0.026,0.0512 c -0.12413,0.23626 -0.37053,0.38266 -0.63733,0.37866 l -2.05333,0.19094 c -0.62787,0.0684 -1.3092,0.24386 -1.74547,0.42133 l -0.82467,0.4312 -0.33213,0.20133 -0.3524,0.2104 -0.368,0.26947 -0.32347,0.24907 -0.57853,0.71866 -0.22413,0.38894 -0.1232,0.2524 -0.522,1.81493 -0.0597,0.56187 -0.0981,0.65053 c -0.15787,0.92267 -0.1844,1.9388 -0.13373,2.9512 l 0.1356,0.7876 0.4296,1.306 0.67226,1.1204 0.3392,0.64133 0.27187,0.43414 0.39613,0.47066 0.3348,0.3396 0.55974,0.66134 c 0.46026,0.77386 0.70306,1.21373 1.40946,1.58253 0.28454,0.14853 0.39467,0.4996 0.24614,0.784 -0.11414,0.21853 -0.35374,0.34133 -0.59774,0.30627 -1.07093,-0.154 -1.87906,-0.63494 -2.52986,-1.08414 l -0.64134,-0.58053 -0.4432,-0.4396 -0.61426,-0.7076 -0.40387,-0.6424 -0.3276,-0.59587 -0.746,-1.19493 c -0.31453,-0.59573 -0.4896,-1.1676 -0.65427,-1.86813 l -0.19826,-1.20107 c -0.054,-1.14027 -0.0272,-2.3168 0.17053,-3.45253 l 0.1064,-0.55614 0.0724,-0.66666 c 0.1376,-0.7888 0.38507,-1.57307 0.6528,-2.2596 l 0.2312,-0.47934 0.41093,-0.64333 c 0.23267,-0.32853 0.53067,-0.75627 0.97987,-1.1284 l 0.47,-0.33627 0.57467,-0.35906 0.4244,-0.2264 0.2628,-0.1364 c 0.31413,-0.18387 0.7116,-0.41227 1.23,-0.5736 0.716,-0.18387 1.52813,-0.30774 2.3256,-0.30107 0.8196,0.0443 1.6292,0.10453 2.3736,0.29333 0.25853,0.0656 0.45826,0.27094 0.51666,0.5312 z m 7.84294,-11.173861 c -0.0315,-0.1004 -0.0424,-0.206133 -0.0323,-0.310933 0.0493,-0.508533 0.20427,-0.479333 0.28707,-0.5588 0.16106,-0.154533 0.37546,-0.2412 0.59866,-0.242 l 0.3472,0.004 c 1.82174,-0.08667 3.67947,0.111067 5.54907,0.0676 1.66027,-0.02373 3.45707,-0.3476 5.344,-0.446267 l 4.52307,0.0093 c 2.94013,0.09027 5.32533,0.4856 7.79439,0.6116 2.14907,0.117733 3.94867,0.279733 5.85227,0.208933 1.8248,-0.078 3.5132,0.012 5.33347,-0.1764 l 4.26693,-0.2268 6.74373,-0.008 3.35827,0.05667 2.8148,0.02467 1.77867,0.229467 0.7964,0.06693 0.73346,0.07893 0.72827,0.04747 0.55067,0.0336 c 2.58293,0.1732 5.0136,0.374934 7.29826,0.182134 2.91827,-0.310267 5.6556,0.09 8.14654,-0.1928 1.4492,-0.137334 2.84333,-0.118267 4.20373,-0.108934 l 2.08907,-0.0027 1.07053,0.0588 0.1796,-0.022 0.3132,-0.0172 0.22507,-0.01427 c 0.0712,-0.0067 0.14293,-0.0053 0.214,0.0027 l 0.10853,0.012 c 0.60867,0.06933 1.046,0.6188 0.97667,1.227466 -0.0521,0.459067 -0.38347,0.83774 -0.83147,0.9504 l -0.1476,0.0333 c -0.07,0.0143 -0.14133,0.022 -0.2128,0.0228 l -0.2732,1.3e-4 -0.31827,-0.008 -0.3656,-0.024 -0.90026,0.0521 -2.10667,0.082 c -1.36733,0.0249 -2.6812,0.0439 -3.9396,0.195065 -2.90093,0.29507 -5.6244,-0.141325 -8.22093,0.10467 -2.50907,0.29333 -5.0696,0.15146 -7.64867,0.0559 l -0.53653,-0.0133 -0.78614,-0.0357 -0.75746,-0.0525 -0.93347,-0.1 -1.54867,-0.160525 -2.9088,-0.1064 -3.1448,-0.0339 -6.74053,-0.008 -4.02973,0.16427 c -2.04974,0.175865 -3.80867,0.0429 -5.50507,0.0819 -2.07933,0.0587 -3.95987,-0.13294 -6.0624,-0.26574 -2.62507,-0.17506 -4.96387,-0.606133 -7.74906,-0.729866 l -4.338,-0.02707 c -1.73734,0.02387 -3.574,0.286533 -5.44027,0.238933 -2.0296,-0.06973 -3.86,-0.377466 -5.57547,-0.405466 l -0.22933,0.01813 c -0.22133,0.022 -0.44267,-0.0416 -0.6184,-0.177867 -0.0767,-0.05947 -0.18427,0.0027 -0.32413,-0.444533 m 2.95146,51.014794 c -0.16453,0.0968 -0.358,0.1328 -0.5464,0.1016 l 0.0971,0.009 c -0.46,-0.0185 -0.81787,-0.40653 -0.79933,-0.86653 0.0185,-0.46 0.4064,-0.81787 0.8664,-0.79933 0.46,0.0185 0.81786,0.40653 0.79933,0.86653 -0.0152,0.37773 -0.2828,0.69787 -0.65173,0.78 -0.1172,0.0261 0.2916,-0.1256 0.23466,-0.0921 m 0.004,0.0504 c -0.4908,0.21253 -1.06106,-0.0133 -1.27373,-0.50387 -0.0768,-0.17747 -0.0988,-0.374 -0.0631,-0.564 0.14614,-0.77667 0.70894,-0.92867 1.03867,-1.05333 0.12333,-0.0467 0.25373,-0.0715 0.38547,-0.0735 l 0.68693,0.0256 3.78987,-0.003 4.1304,-0.0701 3.8104,-0.37027 c 1.16213,-0.14506 2.16386,-0.0524 3.17559,-0.0593 l 4.21294,-0.0247 3.3,0.007 0.80906,0.0748 0.628,0.10067 0.58587,0.11253 1.5768,0.0495 0.85013,-0.004 0.3956,-0.001 2.6412,0.0241 2.9024,0.0807 1.09334,-0.012 0.4772,-0.005 0.4652,-0.0251 0.69013,0.001 1.0076,0.0219 1.0452,-0.0527 0.43573,-0.0315 0.6892,-0.005 0.508,-0.038 c 1.73774,-0.12787 3.328,-0.0464 5.04707,-0.1932 l 5.35027,-0.35853 c 1.23546,-0.10094 2.60493,-0.112 4.196,-0.0775 2.29693,0.0463 4.0048,0.4708 5.81306,0.56227 l 5.00894,0.0403 c 1.9292,0.0563 3.4556,0.26387 5.03586,0.39654 l 3.43774,0.0271 c 1.39253,0.114 2.53506,0.3364 3.11653,0.1308 0.55987,-0.19773 1.174,0.0956 1.37187,0.65547 0.18853,0.53333 -0.0685,1.12133 -0.58787,1.34547 -1.41,0.60813 -2.8468,0.2608 -3.98947,0.2332 -1.1604,-0.0635 -2.29546,0.0473 -3.53733,-0.0483 -1.63293,-0.10707 -3.098,-0.2756 -4.8944,-0.29987 l -5.07667,-2.6e-4 c -2.0684,-0.0893 -3.72133,-0.48894 -5.74293,-0.5164 -1.53973,-0.0189 -2.82547,0.008 -3.91947,0.1124 l -5.36413,0.37973 c -1.91693,0.1496 -3.5348,0.054 -5.0836,0.1552 l -0.65507,0.0367 -0.60773,-0.003 -0.44627,0.009 -1.13453,0.0616 -1.00053,0.0217 -0.6408,0.004 -0.5924,-0.0285 -0.39814,-0.003 -1.24653,-0.012 -2.77187,-0.0755 -2.66026,-0.0515 -0.37587,-0.001 -0.84227,-0.004 c -0.54866,0.007 -1.22666,0.0341 -1.94546,-0.0609 l -0.61374,-0.0865 -0.59213,-0.0988 -0.5816,-0.0791 -3.21293,-0.0271 -4.18254,-0.0655 c -1.11346,-2.7e-4 -2.01186,-0.0835 -2.88066,0.0184 -1.38093,0.15013 -2.73507,0.27453 -4.04453,0.28973 l -4.2032,-0.0364 -3.82107,0.0401 -0.38173,0.0607 c -0.12854,0.0276 -0.26094,0.0328 -0.3912,0.0153 l -0.1628,-0.0155 0.0277,-0.003 c -0.0328,0.004 0.27347,-0.0912 0.18253,-0.0519 m 82.86373,-45.7048 c -0.46013,0.4296 -1.1812,0.4048 -1.61066,-0.0553 -0.41707,-0.44666 -0.40747,-1.14266 0.0216,-1.57773 0.5944,-0.6028 0.89133,-0.44907 1.23066,-0.48653 1.27054,-0.16014 2.32707,0.3328 2.99374,0.55066 0.58973,0.206 1.46026,0.27494 2.42653,0.71187 l 1.07867,0.39827 0.44146,0.17386 0.37027,0.10374 0.8868,0.34813 0.4704,0.23507 0.4524,0.0572 c 1.21653,0.27293 1.93587,0.9964 2.4344,1.30226 l 1.02187,0.77134 0.4024,0.28093 c 0.4112,0.32347 0.59253,0.64 0.73266,0.81613 l 0.3628,0.39947 c 0.53587,0.54173 0.58547,1.0292 0.67067,1.1852 l 0.24507,0.28493 0.26053,0.31027 0.4244,0.68907 c 0.3068,0.5332 0.68947,0.73893 1.29547,1.36626 1.17106,1.26174 1.7344,3.00654 2.05706,4.7396 0.17654,0.94267 0.54574,2.024 0.65987,3.2584 l 0.27533,1.41894 c 0.26067,1.3836 0.19014,2.54133 0.26774,3.72866 l -9.4e-4,2.1808 -0.14613,1.16227 c -0.19307,1.11133 -0.6164,2.11827 -0.97133,3.2112 -0.30907,0.95 -0.6376,1.7404 -1.1268,2.53507 l -0.74694,1.12733 -0.516,0.59187 -0.0652,0.0835 c -0.0469,0.0688 -0.1016,0.13187 -0.1632,0.18787 l -0.3624,0.4108 -0.94,1.3332 -1.01493,1.11333 -0.2876,0.32267 -0.43867,0.5264 -0.7152,0.6552 -0.62653,0.47147 -0.24733,0.17053 -0.3844,0.28653 -0.35227,0.27214 -0.66187,0.44 -1.29546,0.68773 -1.23027,0.6012 -0.856,0.3584 -1.77707,0.77107 -0.6896,0.2548 -2.052,1.0432 c -1.12746,0.552 -2.26186,0.40293 -2.84706,0.51986 -0.62694,0.12534 -1.2368,-0.28133 -1.36214,-0.9084 -0.12533,-0.62706 0.28134,-1.23693 0.9084,-1.36226 0.0107,-0.003 0.0215,-0.004 0.0324,-0.007 1.03814,-0.17693 1.95574,-0.11387 2.33547,-0.28693 0.5356,-0.26214 1.22733,-0.74574 2.07653,-1.11534 l 0.80374,-0.29506 1.69026,-0.69387 0.81854,-0.342 1.18853,-0.53107 1.27653,-0.584 0.3552,-0.2416 0.354,-0.27093 0.50227,-0.36053 0.28413,-0.15547 0.51147,-0.33067 0.57213,-0.45266 0.36,-0.434 0.27494,-0.278 1.08293,-1.02414 0.85733,-1.27 0.15307,-0.4944 c 0.0319,-0.0765 0.0725,-0.1492 0.1212,-0.21626 l 0.2424,-0.29094 0.38027,-0.4128 0.56293,-0.996 c 0.41,-0.6596 0.656,-1.23453 0.93867,-2.09053 0.38653,-1.16893 0.7696,-2.1016 0.91813,-2.92413 l 0.0915,-0.84054 -4e-4,-1.96426 c -0.0897,-1.32547 -0.0336,-2.36787 -0.24227,-3.46107 l -0.29613,-1.61627 c -0.11147,-0.89533 -0.47774,-1.89293 -0.72614,-3.0172 -0.3248,-1.4628 -0.91773,-2.8316 -1.56026,-3.46573 -0.38667,-0.39693 -1.09654,-0.8476 -1.6736,-1.84373 l -0.26534,-0.4876 -0.11026,-0.1072 c -0.15774,-0.17974 -0.39054,-0.3952 -0.596,-0.8012 l -0.2568,-0.64627 -0.0107,-0.0625 -0.46813,-0.5372 -0.336,-0.4196 -0.36534,-0.25427 -0.83333,-0.62107 c -0.79187,-0.48786 -1.2252,-0.90493 -1.71347,-1.01533 l -0.7208,-0.13453 -0.68493,-0.298 -0.5232,-0.2032 -0.56267,-0.17094 -0.43826,-0.17 -1.25014,-0.4512 c -0.51386,-0.2404 -1.29546,-0.32613 -2.20693,-0.65893 -0.78467,-0.3052 -1.46573,-0.59387 -1.98693,-0.55187 l -0.1544,0.0239 0.0371,-0.0139 0.0893,-0.0449 c -0.0432,0.0252 0.238,-0.19093 0.1688,-0.1264 M 452.7889,97.322593 c 0.4116,-0.03373 0.77266,0.272533 0.8064,0.684133 0.0229,0.279733 -0.1128,0.548667 -0.3512,0.696533 l -0.37654,0.217334 -0.50746,0.232666 -0.1276,0.08427 c -0.15,0.129466 -0.33934,0.204526 -0.53734,0.213196 -0.32746,0.14907 -0.71146,0.0157 -0.866,-0.303463 -0.0201,-0.04133 -0.0356,-0.0848 -0.0464,-0.1296 l 0.0311,-0.7 c 0.0567,-0.188666 0.17507,-0.352933 0.33613,-0.4664 l 0.42867,-0.239733 0.656,-0.223733 z m 1.02906,1.9464 c -0.1896,-0.2916 -0.10693,-0.681734 0.18467,-0.871334 0.23333,-0.151733 0.53853,-0.132266 0.7508,0.04773 l 0.5956,0.529466 0.38467,0.49574 0.39573,0.542395 c 0.43453,0.6308 0.7128,1.25533 0.96667,1.7992 l 1.00493,1.7592 c 0.474,0.84866 0.76773,1.8064 1.0708,2.6536 l 0.17693,0.7492 0.33547,1.03253 0.16973,0.93587 c 0.0865,0.44013 0.39587,0.8632 0.57467,1.60346 l 0.18853,1.14574 0.254,1.12213 0.0869,0.56227 0.29693,2.99186 0.1052,1.162 0.0239,0.70227 0.0516,0.44267 0.10306,1.15386 0.24934,3.1988 -0.0152,3.95867 c 0.0575,2.16613 -0.3648,4.21893 -0.59694,6.02973 l -0.36306,2.86094 -0.18147,1.31826 -0.10027,0.55014 -0.13613,0.6832 -0.17413,0.53706 -0.24867,0.95947 -0.42467,1.25893 -0.22586,0.6812 -0.15107,0.3768 -0.3088,0.53587 -0.38587,0.8308 -0.33493,0.5232 -0.23107,0.64947 -0.712,1.4256 -0.8908,1.13933 -0.4896,0.52693 -0.48653,0.43147 c -0.0883,0.0741 -0.18893,0.13213 -0.2972,0.17147 l -0.62853,0.20053 c -0.39667,0.10813 -0.80587,-0.12573 -0.914,-0.5224 -0.0505,-0.18533 -0.0275,-0.38307 0.0643,-0.55173 l 0.262,-0.49774 c 0.0521,-0.10333 0.12227,-0.19666 0.20694,-0.27586 l 0.364,-0.35587 0.4752,-0.4672 0.726,-0.8968 0.48093,-1.02427 c 0.0553,-0.15546 0.10093,-0.50333 0.338,-0.93346 l 0.29147,-0.45867 0.42826,-0.91067 0.23587,-0.39 0.0715,-0.18826 0.2028,-0.67254 0.3788,-1.10746 0.17653,-1.00614 0.14267,-0.4552 0.0952,-0.56653 0.102,-0.5404 0.1676,-1.25893 0.52106,-2.86587 c 0.27547,-1.87067 0.6984,-3.8096 0.68067,-5.704 l 0.13947,-3.9804 -0.0608,-3.12253 -0.0961,-1.066 -0.0576,-0.56227 -0.0207,-0.67547 -0.12054,-0.99706 -0.324,-3.04734 -0.0685,-0.4528 -0.2476,-1.12106 -0.16147,-1.11054 c -0.0828,-0.43493 -0.38773,-0.92466 -0.50506,-1.7112 l -0.13494,-0.77973 -0.36506,-1.0552 -0.1352,-0.612 c -0.30814,-0.87747 -0.59014,-1.77253 -0.94827,-2.42333 l -0.9956,-1.914 c -0.2456,-0.54374 -0.48013,-1.08054 -0.8384,-1.61254 l -0.36,-0.43906 -0.304,-0.354395 z m 79.20347,-0.7388 c 0.1656,-0.263867 0.51386,-0.3436 0.77773,-0.177867 0.007,0.004 0.0143,0.0093 0.0212,0.01387 0.0997,0.06907 -0.1992,-0.07253 -0.18893,-0.07173 0.22266,0.0164 0.4232,0.140534 0.53706,0.332534 l 0.18507,0.188933 c 0.244,0.124667 0.344,0.444 0.3812,0.4996 l 0.11707,0.252002 0.0411,0.1232 c 0.0183,0.0723 0.3668,0.23733 -0.23626,0.672395 -0.17734,0.128 -0.40934,0.15213 -0.60934,0.0633 -0.47773,-0.212 -0.2996,-0.23226 -0.3996,-0.38066 l -0.1552,-0.391735 -0.2796,-0.10373 c -0.18973,-0.1216 -0.30733,-0.329069 -0.31413,-0.554269 z m 0.788,0.968132 c 0.20386,-0.267466 0.58586,-0.319066 0.85346,-0.1152 0.26747,0.20387 0.31907,0.586 0.1152,0.853465 -0.20386,0.26746 -0.586,0.31906 -0.85346,0.1152 -0.0799,-0.0609 -0.1436,-0.14067 -0.1852,-0.23214 -0.0643,-0.141455 0.0945,0.14627 0.0847,0.13454 l 0.012,0.0137 0.19774,0.13653 -0.48054,-0.3284 -0.47933,-0.454655 0.0443,0.0235 0.1048,0.0215 0.122,0.005 0.10933,-0.0107 c -0.048,0.008 0.3024,-0.10867 0.20413,-0.0635 -0.41906,0.19267 -0.91506,0.009 -1.10773,-0.409999 -0.19267,-0.4192 -0.009,-0.915067 0.41,-1.107733 0.4192,-0.192667 0.91507,-0.0093 1.10773,0.41 0.0944,0.205466 0.1016,0.440533 0.0196,0.651333 -0.0445,0.114667 0.0583,-0.302267 0.0544,-0.243867 -0.007,0.104134 -0.0239,-0.261866 -0.0141,-0.214133 0.0165,0.0808 -0.0567,-0.170933 -0.0453,-0.1452 l 0.13893,0.2332 0.2488,0.388133 0.21013,0.261996 -0.20013,-0.126129 -0.12507,-0.03013 c 0.0395,0.004 -0.24973,0.0188 -0.1708,0.0053 l -0.15306,0.04867 c 0.0639,-0.03027 -0.30227,0.285059 -0.22254,0.180399 m -0.21933,0.13466 c -0.44333,0.15827 -0.93107,-0.0729 -1.08933,-0.516259 -0.0145,-0.04093 -0.026,-0.0828 -0.0341,-0.125467 -0.0648,-0.3364 0.1512,-0.7192 0.3388,-0.855333 0.5528,-0.401067 0.6492,-0.1604 0.74187,-0.1388 l 0.5064,0.209866 c 0.61013,0.409467 0.65507,0.7988 0.7288,0.9168 0.274,0.473593 0.6444,0.780393 1.024,1.446788 l 0.43,0.88454 0.2664,0.53466 0.1392,0.26227 0.1512,0.34027 c 0.12867,0.26413 0.11013,0.57626 -0.0489,0.82333 l -0.112,0.1484 c -0.0193,0.0204 -0.0401,0.0396 -0.0621,0.0573 l -0.32293,0.15307 c -0.28467,0.0733 -0.5868,-0.008 -0.79707,-0.21267 l -0.27106,-0.3004 -0.2604,-0.46386 -0.27854,-0.6904 -0.31253,-0.68134 c -0.23533,-0.3688 -0.63187,-0.65586 -1.06893,-1.3384 l -0.214,-0.395995 -0.0349,-0.0584 c -0.003,-0.004 0.14227,0.1188 0.0821,0.0756 l -0.13747,-0.0999 -0.0243,-0.0147 0.0409,0.0196 0.0996,0.0359 c -0.0325,-0.009 0.22533,0.0361 0.15106,0.0288 -0.0815,-0.008 0.5284,-0.10254 0.36827,-0.0453 m -0.4192,-0.507326 c -0.17453,0.258396 -0.52547,0.326396 -0.78387,0.151867 -0.0107,-0.0067 -0.02,-0.014 -0.0296,-0.02147 -10e-4,-0.0013 0.21987,0.110669 0.0988,0.05667 -0.30546,-0.136 -0.4428,-0.494 -0.30666,-0.799334 0.136,-0.305466 0.494,-0.4428 0.79933,-0.306666 0.30547,0.136 0.4428,0.494 0.30667,0.799466 -0.0948,0.2128 -0.30334,0.352263 -0.53614,0.358793 -0.17,0.005 0.38694,-0.153193 0.31987,-0.105593 -0.0635,0.0452 0.15947,-0.175066 0.1316,-0.133733 m -1.06027,-0.163333 c -0.0335,-0.0848 -0.0499,-0.175334 -0.0485,-0.266534 0.009,-0.600666 0.33747,-0.627733 0.49373,-0.6976 l 0.36347,-0.09733 c 0.12973,-0.01733 0.26187,-0.0053 0.38653,0.03493 l 0.63387,0.210267 0.97453,0.5972 0.7288,0.628526 c 0.56307,0.699995 1.044,1.337595 1.2164,2.010935 0.0847,0.33066 -0.11466,0.6672 -0.44533,0.75186 -0.232,0.0595 -0.47747,-0.0205 -0.63,-0.20533 l -1.306,-1.1096 -0.74853,-0.67613 -0.4968,-0.303195 -0.58254,-0.2784 c -0.11666,-0.0568 -0.21933,-0.13894 -0.30066,-0.240133 -0.0692,-0.0864 -0.0949,0.0067 -0.23894,-0.359466 m 0.86507,-0.0528 c -0.2888,-0.1812 -0.37613,-0.562134 -0.19493,-0.8508 0.0107,-0.01773 0.0229,-0.0348 0.0357,-0.0512 l 0.0744,-0.09453 c 0.11973,-0.150666 0.294,-0.248266 0.4852,-0.271333 0.47547,-0.05733 0.95267,0.103867 1.27147,0.347333 0.42986,0.394667 0.59866,0.751067 0.75813,0.9568 0.18293,0.3344 0.22213,0.397067 0.39587,0.435999 0.30413,0.068 0.49546,0.3696 0.42746,0.673735 -0.0519,0.23186 -0.24333,0.4064 -0.47906,0.4364 -0.5656,0.0724 -1.10827,-0.17827 -1.45707,-0.4652 l -0.65147,-0.813067 -0.188,-0.1144 c -0.1912,-0.0027 -0.37386,-0.08027 -0.50866,-0.216 z m 0.9376,1.723994 c -0.1648,-0.28147 -0.0704,-0.643195 0.21107,-0.807995 0.16266,-0.0953 0.36093,-0.1072 0.53373,-0.0321 l 0.49387,0.243335 c 0.0643,0.0357 0.12293,0.0808 0.174,0.13373 0.40853,0.4228 0.77786,0.92587 1.11866,1.52667 l 0.68147,1.27053 0.17627,0.426 0.3896,0.63667 0.3632,0.72333 0.4116,0.88893 0.2272,0.6732 0.15413,0.77534 c 0.1816,1.06773 0.33373,2.19413 0.60613,3.19853 l 0.46334,1.95587 0.19013,1.0272 0.1324,0.55466 0.382,2.22694 0.14747,0.7256 c 0.1676,0.97613 0.17453,1.85066 0.16213,2.79093 l 0.0173,2.4972 -0.0817,3.8284 0.003,3.0596 -0.0536,1.03253 -0.1568,2.87747 -0.258,1.23787 -0.5252,2.7176 -0.23267,1.38253 -0.0767,0.50747 -0.31773,1.79733 -0.65853,2.87787 -0.15947,0.588 -0.32627,0.86533 -0.1692,0.66747 c -0.0893,0.3328 -0.24266,0.75146 -0.56053,1.12813 -0.37267,0.43373 -0.46333,0.35453 -0.53787,0.40547 -0.0743,0.0523 0.17947,-0.17507 0.15974,-0.14827 l -0.21,0.39853 -0.49387,0.54347 -0.49693,0.39933 -0.28254,0.22467 -0.4248,0.27307 -0.53013,0.23626 -0.5628,0.14467 -0.0321,0.0156 c -0.13707,0.0384 -0.28027,0.0507 -0.422,0.0361 l -0.30614,-0.042 c -0.56213,-0.0967 -0.93946,-0.63066 -0.8428,-1.1928 0.0447,-0.2596 0.18694,-0.4924 0.39747,-0.65053 l 0.12347,-0.0997 c 0.10986,-0.0953 0.23693,-0.16867 0.37453,-0.216 l 0.0827,-0.0305 0.11466,-0.0832 0.33214,-0.1944 0.35666,-0.1992 0.30774,-0.17613 0.3276,-0.2536 c 0.0381,-0.05 0.0637,-0.47733 0.74786,-0.91627 l 0.2584,-0.14266 -0.0348,0.0217 c 0.0344,-0.0232 -0.20933,0.19853 -0.1488,0.13093 l 0.116,-0.2572 0.22787,-0.81653 0.32853,-0.72467 0.14534,-0.48053 0.7304,-2.75813 0.33413,-1.70374 0.0792,-0.5028 0.30547,-1.51746 0.51786,-2.63987 0.24187,-1.0812 0.15387,-2.78093 0.10106,-0.992 0.0835,-3.0216 0.10987,-3.86387 0.0531,-2.44227 c 0.005,-0.89373 -0.009,-1.63733 -0.1504,-2.42773 l -0.12666,-0.794 -0.3096,-2.09013 -0.13774,-0.6368 -0.18933,-1.0056 -0.46493,-1.83467 c -0.3096,-1.15693 -0.46054,-2.33667 -0.63294,-3.37267 l -0.11746,-0.6112 -0.1504,-0.4368 -0.4124,-0.84186 -0.27534,-0.67054 -0.41093,-0.8248 -0.13187,-0.37853 -0.5528,-1.1856 -0.8592,-1.23053 c -0.0503,-0.0545 -0.0921,-0.1164 -0.12426,-0.18334 l -0.2012,-0.37906 z"
       style="fill-opacity:1;fill-rule:nonzero;stroke:none"
       id="path1-1" />
  </g>
</svg>
