<?xml version="1.0" encoding="UTF-8" standalone="no"?>
<!-- Created with Inkscape (http://www.inkscape.org/) -->

<svg
   version="1.1"
   id="svg1"
   width="250"
   height="230"
   viewBox="0 0 250 230"
   sodipodi:docname="gimbal-pitch.svg"
   inkscape:version="1.4 (e7c3feb100, 2024-10-09)"
   xmlns:inkscape="http://www.inkscape.org/namespaces/inkscape"
   xmlns:sodipodi="http://sodipodi.sourceforge.net/DTD/sodipodi-0.dtd"
   xmlns="http://www.w3.org/2000/svg"
   xmlns:svg="http://www.w3.org/2000/svg">
  <sodipodi:namedview
     id="namedview1"
     pagecolor="#ffffff"
     bordercolor="#666666"
     borderopacity="1.0"
     inkscape:showpageshadow="2"
     inkscape:pageopacity="0.0"
     inkscape:pagecheckerboard="0"
     inkscape:deskcolor="#d1d1d1"
     inkscape:zoom="4.9876226"
     inkscape:cx="143.55537"
     inkscape:cy="89.722105"
     inkscape:window-width="3840"
     inkscape:window-height="2094"
     inkscape:window-x="0"
     inkscape:window-y="0"
     inkscape:window-maximized="1"
     inkscape:current-layer="g1">
    <inkscape:page
       x="0"
       y="0"
       inkscape:label="1"
       id="page1"
       width="250"
       height="230"
       margin="0"
       bleed="0" />
  </sodipodi:namedview>
  <defs
     id="defs1">
    <clipPath
       clipPathUnits="userSpaceOnUse"
       id="clipPath3">
      <path
         d="M 0,0 H 612 V 803.25 H 0 Z"
         id="path3" />
    </clipPath>
    <clipPath
       clipPathUnits="userSpaceOnUse"
       id="clipPath5">
      <path
         d="M 0,0 H 612 V 803.25 H 0 Z"
         id="path5" />
    </clipPath>
    <clipPath
       clipPathUnits="userSpaceOnUse"
       id="clipPath7">
      <path
         d="M 0,0 H 612 V 803.25 H 0 Z"
         id="path7" />
    </clipPath>
    <clipPath
       clipPathUnits="userSpaceOnUse"
       id="clipPath9">
      <path
         d="M 0,0 H 612 V 803.25 H 0 Z"
         id="path9" />
    </clipPath>
    <clipPath
       clipPathUnits="userSpaceOnUse"
       id="clipPath11">
      <path
         d="M 0,0 H 612 V 803.25 H 0 Z"
         id="path11" />
    </clipPath>
  </defs>
  <g
     id="g1"
     inkscape:groupmode="layer"
     inkscape:label="1">
    <path
       id="path-neutral"
       d="M 128.887 119.679 C 128.3 119.682 127.822 119.209 127.819 118.622 C 127.816 118.035 128.289 117.557 128.876 117.554 L 210.603 117.137 C 211.19 117.134 211.668 117.607 211.672 118.194 C 211.674 118.781 211.202 119.259 210.615 119.262 L 204.117 119.295 Z"
       style="fill:var(--v-outline-base);fill-opacity:1;fill-rule:nonzero;stroke:none"
       clip-path="url(#clipPath5)" />
    <path
       id="path-camera"
       d="M 117.048 111.246 C 117.048 110.934 117.301 110.68 117.614 110.68 C 117.919 110.68 118.169 110.922 118.179 111.227 C 118.362 116.584 118.186 122.176 118.331 127.52 C 118.345 127.982 117.98 128.367 117.517 128.379 C 117.055 128.391 116.671 128.027 116.658 127.565 L 116.658 127.537 C 116.694 122.132 117.049 116.56 117.048 111.246 M 118.22 110.782 C 118.56 110.859 118.773 111.197 118.696 111.537 C 118.641 111.78 118.448 111.967 118.204 112.016 L 118.143 112.029 L 118.184 112.013 L 118.247 111.98 C 118.216 111.999 118.456 111.794 118.388 111.867 C 118.122 112.148 117.679 112.161 117.398 111.895 C 117.117 111.63 117.104 111.187 117.37 110.906 C 117.635 110.625 118.078 110.612 118.359 110.877 C 118.442 110.955 118.504 111.052 118.541 111.159 C 118.587 111.293 118.36 110.878 118.401 110.922 C 118.466 110.993 118.227 110.788 118.259 110.806 C 118.336 110.851 118.186 110.774 118.22 110.782 M 117.368 111.921 C 117.178 111.745 117.093 111.483 117.142 111.229 C 117.288 110.469 117.549 110.668 117.668 110.612 L 118.769 110.276 C 127.141 109.528 135.698 109.789 143.371 110.456 C 143.936 110.505 144.355 111.003 144.305 111.569 C 144.256 112.134 143.758 112.553 143.193 112.504 C 135.608 111.824 127.156 111.551 119.091 112.241 L 118.19 112.185 L 117.882 112.147 C 117.782 112.13 117.762 112.287 117.368 111.921 M 118.027 128.381 C 117.522 128.252 117.217 127.738 117.347 127.233 C 117.462 126.783 117.887 126.484 118.349 126.527 L 119.319 126.509 C 127.757 126.377 135.967 125.35 144.071 125.171 C 144.717 125.157 145.251 125.669 145.266 126.315 C 145.28 126.96 144.768 127.495 144.123 127.509 L 144.105 127.51 C 136.146 127.568 127.903 128.479 119.365 128.495 C 118.871 128.481 118.46 128.492 118.027 128.381 M 143.225 110.748 C 143.197 110.393 143.461 110.082 143.817 110.054 C 144.162 110.026 144.467 110.276 144.508 110.62 C 145.12 115.769 144.816 121.279 144.961 126.348 C 144.976 126.866 144.568 127.298 144.05 127.312 C 143.533 127.327 143.101 126.919 143.086 126.402 C 143.085 126.39 143.085 126.377 143.085 126.365 C 143.136 121.204 143.626 115.769 143.225 110.748 M 145.966 118.169 C 145.643 118.537 145.083 118.574 144.715 118.25 C 144.349 117.929 144.311 117.372 144.629 117.004 C 146.862 114.422 151.07 112.164 153.158 110.106 C 153.521 109.749 154.104 109.753 154.461 110.115 C 154.818 110.478 154.814 111.061 154.452 111.418 C 152.034 113.764 147.856 116.018 145.967 118.169 M 153.872 110.629 C 153.877 110.298 154.148 110.035 154.479 110.04 C 154.8 110.045 155.06 110.302 155.068 110.623 C 155.166 114.664 155.176 119.387 155.337 123.518 C 155.355 123.975 154.999 124.361 154.541 124.378 C 154.084 124.396 153.699 124.04 153.681 123.583 L 153.681 123.552 Z M 143.673 118.108 C 143.445 117.619 143.657 117.038 144.146 116.81 C 144.626 116.586 145.196 116.785 145.432 117.258 C 146.026 118.445 148.17 119.534 150.047 120.698 L 152.672 122.495 L 154.018 123.427 L 154.524 123.699 L 155.188 124.106 C 155.636 124.372 155.845 124.909 155.694 125.408 C 155.68 125.573 155.594 125.732 155.457 125.84 L 155.433 125.857 C 155.075 126.236 154.505 126.322 154.051 126.065 L 153.398 125.682 L 152.752 125.203 L 151.401 124.242 L 148.921 122.477 C 147.2 121.352 144.684 120.277 143.673 118.108"
       style="fill:var(--v-outline-base);fill-opacity:1;fill-rule:nonzero;stroke:none"
       clip-path="url(#clipPath3)" />
    <path
       id="path-max"
       d="M 129.235 120.096 C 128.826 120.517 128.154 120.528 127.732 120.119 C 127.311 119.71 127.301 119.038 127.709 118.617 L 195.47 48.7405 C 195.878 48.3194 196.551 48.3089 196.972 48.7175 C 197.393 49.126 197.404 49.7987 196.995 50.2199 Z"
       style="fill:var(--v-negative-base);fill-opacity:1;fill-rule:nonzero;stroke:none"
       clip-path="url(#clipPath7)" />
    <path
       id="path-min"
       d="M 127.944 120.278 C 127.435 119.987 127.258 119.338 127.55 118.829 C 127.841 118.319 128.49 118.143 129 118.434 L 213.572 166.846 C 214.081 167.138 214.258 167.787 213.966 168.296 C 213.675 168.805 213.026 168.982 212.517 168.69 Z"
       style="fill:var(--v-water-base);fill-opacity:1;fill-rule:nonzero;stroke:none"
       clip-path="url(#clipPath9)" />
    <path
       id="path10"
       d="M 200.224 66.1469 C 200.016 65.9078 200.042 65.5456 200.281 65.3378 C 200.512 65.1362 200.862 65.1533 201.073 65.3764 C 202.599 66.9877 204.251 69.5533 205.858 71.6498 L 206.453 72.4389 C 209.725 77.4038 209.296 76.3249 211.571 80.4549 C 212.802 83.6893 213.085 85.4007 213.783 88.36 C 215.614 93.5335 216.095 96.1092 217.316 101.492 C 217.957 104.272 218.71 106.761 219.042 109.491 L 219.459 113.55 L 219.594 115.791 L 219.574 117.055 L 219.553 117.5 L 219.535 117.674 C 219.526 117.736 219.69 117.724 219.345 118.112 C 219.078 118.413 218.618 118.441 218.317 118.174 C 218.281 118.143 218.249 118.108 218.22 118.07 C 217.803 117.522 218.058 117.639 218.046 117.524 L 217.916 115.892 L 217.794 113.681 L 217.39 109.686 C 217.11 107.116 216.411 104.671 215.791 101.831 C 214.614 96.534 214.171 93.995 212.377 88.8554 C 210.212 80.7435 210.309 80.0167 205.319 73.2938 L 204.734 72.4906 C 203.155 70.2847 201.567 67.6917 200.224 66.1469 M 219.327 117.138 C 219.599 117.428 219.583 117.885 219.292 118.156 C 219.001 118.427 218.544 118.411 218.273 118.12 C 218.044 117.875 218.014 117.505 218.202 117.227 C 218.276 117.118 218.103 117.449 218.113 117.416 C 218.141 117.323 218.094 117.504 218.095 117.494 L 218.1 117.404 C 218.118 117.021 218.444 116.726 218.827 116.744 C 219.171 116.76 219.45 117.026 219.484 117.368 L 219.494 117.452 L 219.486 117.417 L 219.461 117.345 C 219.478 117.384 219.222 117.025 219.327 117.138 M 200.737 70.5787 C 200.718 70.8983 200.444 71.1421 200.124 71.123 C 199.827 71.1054 199.592 70.8655 199.579 70.5681 L 199.407 66.8283 C 199.396 66.1872 199.318 65.5101 199.499 64.8177 C 199.654 64.1813 200.259 63.6805 200.849 63.547 C 201.428 63.4161 202.008 63.4877 202.587 63.6028 C 204.116 64.0978 205.551 64.8809 206.335 65.0797 C 206.668 65.1642 206.869 65.5026 206.785 65.8357 C 206.714 66.1133 206.463 66.307 206.177 66.3048 C 204.986 66.2954 203.476 65.6561 202.254 65.4618 L 201.137 65.2782 L 201.049 65.3032 L 200.91 66.8393 Z M 218.364 118.3 C 218.35 117.971 218.606 117.693 218.933 117.678 C 219.25 117.664 219.522 117.9 219.553 118.215 C 219.858 121.334 219.374 124.703 218.877 127.905 C 218.2 131.698 218.082 132.713 217.052 136.281 C 215.925 140.092 215.338 141.482 213.526 145.531 C 212.217 148.443 210.5 150.971 208.762 153.028 C 208.501 153.337 208.04 153.375 207.732 153.115 C 207.427 152.857 207.386 152.402 207.639 152.094 C 209.274 150.102 210.883 147.664 212.088 144.896 C 213.721 141.296 214.274 139.599 215.402 135.808 C 216.439 132.268 216.552 131.329 217.228 127.627 C 217.883 124.462 218.495 121.233 218.365 118.3 M 206.62 148.309 C 206.536 147.964 206.748 147.616 207.093 147.532 C 207.404 147.456 207.723 147.621 207.843 147.917 C 208.365 149.217 208.419 150.734 208.843 151.923 C 209.054 152.503 209.277 152.811 209.303 152.82 L 209.337 152.789 L 209.837 152.59 L 211.796 151.625 C 211.902 151.575 212.015 151.543 212.131 151.528 C 212.644 151.462 213.277 151.409 213.742 151.875 C 214.029 152.164 214.028 152.631 213.739 152.918 C 213.68 152.977 213.612 153.025 213.537 153.061 L 213.067 153.479 C 212.983 153.56 212.887 153.627 212.782 153.679 L 210.822 154.701 C 210.064 154.962 209.227 155.175 208.422 154.709 C 207.407 154.144 207.256 153.134 207.102 152.418 C 206.756 150.866 206.878 149.372 206.62 148.309"
       style="fill:var(--v-outline-base);fill-opacity:1;fill-rule:nonzero;stroke:none"
       clip-path="url(#clipPath11)" />
    <path
       style="stroke:var(--v-negative-base);fill:var(--v-negative-base);font-size:11.3835px;line-height:1.25;letter-spacing:0px;word-spacing:0px;stroke-width:0.284586"
       d="m 149.16364,93.029973 -6.7644,-2.878 -0.0341,0.0334 c 0.1743,0.1433 0.4016,0.346 0.6818,0.6083 0.2752,0.2572 0.5574,0.5328 0.8466,0.8269 l 3.2951,3.3513 -0.7065,0.6947 -5.4336,-5.5261 1.1322,-1.1133 6.3247,2.6863 0.034,-0.0334 -2.545,-6.4027 1.1237,-1.1048 5.4334,5.5261 -0.7575,0.745 -3.3408,-3.3978 c -0.2638,-0.2683 -0.5194,-0.5396 -0.7668,-0.8139 -0.2417,-0.2799 -0.4381,-0.508 -0.5891,-0.6843 l -0.034,0.0335 2.7302,6.8294 z m 2.518,-10.7719 c 0.5562,-0.5469 1.0769,-0.8405 1.5619,-0.8809 0.485,-0.0404 0.965,0.1819 1.442,0.6669 l 2.778,2.8251 -0.545,0.5356 -0.723,-0.4459 -0.034,0.0335 c 0.025,0.4223 -0.02,0.7965 -0.135,1.1225 -0.109,0.3204 -0.357,0.6703 -0.743,1.0497 -0.414,0.4074 -0.854,0.6469 -1.319,0.7187 -0.47,0.0666 -0.913,-0.1116 -1.329,-0.5347 -0.4063,-0.4128 -0.5395,-0.9059 -0.4001,-1.4793 0.1341,-0.5786 0.5631,-1.2437 1.2861,-1.9954 l 0.752,-0.7848 -0.244,-0.2477 c -0.339,-0.3457 -0.658,-0.5047 -0.954,-0.4771 -0.297,0.0277 -0.595,0.1894 -0.8961,0.4852 -0.2384,0.2343 -0.4324,0.4911 -0.5821,0.7702 -0.1548,0.274 -0.2852,0.5443 -0.3913,0.811 l -0.7321,-0.2848 c 0.1022,-0.2934 0.2566,-0.6075 0.463,-0.9424 0.2014,-0.3401 0.4496,-0.6552 0.7448,-0.9454 z m 2.3979,1.9959 c -0.547,0.5786 -0.861,1.049 -0.94,1.4111 -0.073,0.3565 0.019,0.6664 0.278,0.9295 0.228,0.2322 0.472,0.3272 0.732,0.2849 0.265,-0.0479 0.52,-0.1918 0.764,-0.4318 0.386,-0.3794 0.613,-0.7902 0.681,-1.2322 0.062,-0.4472 -0.104,-0.872 -0.5,-1.2744 l -0.365,-0.3716 z m 3.793,-3.958 -3.569,-0.4793 0.852,-0.837 2.712,0.4083 -0.371,-2.7101 0.843,-0.8287 0.418,3.5763 3.746,0.4885 -0.852,0.837 -2.871,-0.4342 0.369,2.8951 -0.843,0.8286 z"
       id="text-max"
       aria-label="Max" />
    <path
       style="fill:var(--v-outline-base);font-size:11.3835px;line-height:1.25;letter-spacing:0px;word-spacing:0px;stroke-width:0.284586"
       d="m 166.85454,116.84537 -1.254,0.0208 -4.667,-6.3599 -0.047,8e-4 c 0.02,0.253 0.045,0.5674 0.075,0.9432 0.03,0.3759 0.049,0.7628 0.055,1.1607 l 0.072,4.3303 -0.991,0.0164 -0.128,-7.7489 1.241,-0.0206 4.655,6.3384 0.047,-8e-4 c -0.01,-0.1156 -0.024,-0.2891 -0.044,-0.5203 -0.012,-0.2314 -0.028,-0.4845 -0.049,-0.7591 -0.012,-0.2749 -0.02,-0.528 -0.024,-0.7595 l -0.073,-4.3737 1.003,-0.0167 z m 4.545,-6.0028 c 0.549,-0.009 1.02,0.0916 1.414,0.3021 0.401,0.2105 0.709,0.5129 0.922,0.9074 0.222,0.3872 0.337,0.8448 0.345,1.373 l 0.01,0.5752 -4.381,0.0728 c 0.027,0.6582 0.218,1.158 0.574,1.4994 0.364,0.3341 0.864,0.4959 1.501,0.4853 0.406,-0.007 0.763,-0.0453 1.073,-0.1155 0.317,-0.0777 0.641,-0.1844 0.973,-0.3202 l 0.014,0.8357 c -0.324,0.1356 -0.645,0.2351 -0.962,0.2982 -0.317,0.0704 -0.695,0.1093 -1.132,0.1166 -0.605,0.01 -1.144,-0.0932 -1.617,-0.3097 -0.466,-0.2166 -0.833,-0.5434 -1.103,-0.9804 -0.262,-0.4443 -0.399,-0.9885 -0.41,-1.6324 -0.01,-0.6367 0.096,-1.1849 0.319,-1.6445 0.232,-0.4598 0.556,-0.8162 0.974,-1.0692 0.425,-0.2532 0.921,-0.3844 1.486,-0.3938 z m 0.001,0.7816 c -0.502,0.008 -0.897,0.1632 -1.187,0.4648 -0.281,0.2942 -0.446,0.7022 -0.493,1.224 l 3.259,-0.0542 c -0.016,-0.4918 -0.15,-0.8876 -0.402,-1.1874 -0.252,-0.307 -0.644,-0.4561 -1.177,-0.4472 z m 9.61,-0.8329 0.096,5.8171 -0.859,0.0143 -0.168,-0.7679 -0.048,7e-4 c -0.202,0.3074 -0.484,0.5364 -0.848,0.6872 -0.364,0.1436 -0.753,0.2188 -1.167,0.2257 -0.771,0.0128 -1.355,-0.144 -1.751,-0.4703 -0.395,-0.3336 -0.599,-0.8693 -0.611,-1.6073 l -0.064,-3.8094 1.063,-0.0176 0.062,3.7442 c 0.015,0.9261 0.497,1.3813 1.443,1.3655 0.709,-0.0117 1.195,-0.2008 1.46,-0.567 0.272,-0.3664 0.403,-0.8897 0.392,-1.5698 l -0.051,-3.0279 z m 4.251,5.075 c 0.159,-0.003 0.322,-0.0162 0.489,-0.0407 0.167,-0.0317 0.301,-0.0629 0.404,-0.0936 l 0.012,0.7272 c -0.11,0.0525 -0.269,0.0949 -0.475,0.1273 -0.206,0.0396 -0.405,0.061 -0.596,0.0642 -0.334,0.005 -0.645,-0.04 -0.934,-0.1365 -0.28,-0.1039 -0.51,-0.2846 -0.689,-0.5422 -0.18,-0.2575 -0.273,-0.6214 -0.281,-1.0917 l -0.056,-3.3861 -0.908,0.0151 -0.007,-0.4558 0.913,-0.3952 0.397,-1.2441 0.621,-0.0104 0.022,1.3349 1.85,-0.0307 0.012,0.738 -1.85,0.0307 0.056,3.3644 c 0.006,0.3545 0.102,0.6171 0.288,0.7877 0.194,0.1632 0.438,0.2424 0.732,0.2375 z m 5.069,-5.3385 c 0.12,-0.002 0.247,0.003 0.383,0.0153 0.143,0.005 0.267,0.0173 0.371,0.0373 l -0.117,0.8813 c -0.104,-0.02 -0.22,-0.0362 -0.347,-0.0485 -0.12,-0.0125 -0.235,-0.0179 -0.347,-0.016 -0.326,0.005 -0.631,0.0937 -0.915,0.2649 -0.284,0.1639 -0.511,0.3957 -0.681,0.6952 -0.162,0.2922 -0.24,0.6337 -0.233,1.0244 l 0.051,3.1039 -1.05,0.0174 -0.097,-5.8171 0.86,-0.0143 0.137,1.0616 0.047,-8e-4 c 0.202,-0.3218 0.464,-0.6011 0.786,-0.8381 0.323,-0.2369 0.707,-0.3591 1.152,-0.3665 z m 4.131,-0.0578 c 0.78,-0.013 1.359,0.133 1.738,0.4379 0.38,0.3049 0.575,0.7974 0.586,1.4775 l 0.066,3.9612 -0.764,0.0127 -0.217,-0.8214 -0.047,8e-4 c -0.274,0.323 -0.564,0.563 -0.872,0.7201 -0.3,0.157 -0.72,0.24 -1.261,0.249 -0.581,0.01 -1.065,-0.1198 -1.452,-0.3884 -0.386,-0.2758 -0.585,-0.7104 -0.594,-1.3037 -0.01,-0.5788 0.233,-1.0279 0.729,-1.3474 0.496,-0.3267 1.265,-0.5132 2.307,-0.5594 l 1.086,-0.0506 -0.006,-0.3473 c -0.008,-0.4848 -0.129,-0.8193 -0.363,-1.0036 -0.233,-0.1843 -0.561,-0.2729 -0.983,-0.2659 -0.334,0.006 -0.652,0.0579 -0.953,0.157 -0.301,0.0918 -0.581,0.1978 -0.842,0.3179 l -0.334,-0.7109 c 0.276,-0.1421 0.604,-0.2633 0.985,-0.3637 0.38,-0.1077 0.777,-0.165 1.191,-0.1718 z m 0.362,3.0987 c -0.796,0.0422 -1.347,0.1671 -1.654,0.3749 -0.299,0.2076 -0.445,0.4959 -0.439,0.8649 0.005,0.3256 0.117,0.5626 0.334,0.7109 0.226,0.1483 0.509,0.2195 0.851,0.2138 0.542,-0.009 0.989,-0.1503 1.343,-0.4239 0.353,-0.2809 0.525,-0.7035 0.516,-1.2679 l -0.009,-0.5209 z m 5.06,2.7275 -1.05,0.0175 -0.138,-8.2481 1.051,-0.0175 z"
       id="text-neutral"
       aria-label="Neutral" />
    <path
       style="fill:var(--v-water-base);stroke:var(--v-water-base);fill-opacity:1;fill-rule:nonzero;stroke:none"
       d="m 157.15354,146.65267 1.068,-7.2733 -0.041,-0.0245 c -0.094,0.2049 -0.232,0.4762 -0.415,0.8138 -0.179,0.3314 -0.374,0.6742 -0.585,1.0286 l -2.406,4.0374 -0.852,-0.5074 3.968,-6.6574 1.364,0.8129 -0.995,6.7989 0.041,0.025 5.548,-4.0858 1.354,0.8067 -3.967,6.6571 -0.913,-0.544 2.439,-4.0929 c 0.193,-0.3233 0.39,-0.6393 0.593,-0.9482 0.21,-0.3048 0.38,-0.5526 0.513,-0.7433 l -0.041,-0.0244 -5.914,4.3728 z m 10.505,-3.0522 c 0.137,0.0815 0.23,0.1963 0.281,0.3445 0.061,0.146 0.038,0.3091 -0.069,0.4894 -0.104,0.174 -0.237,0.272 -0.398,0.2938 -0.154,0.0259 -0.3,-0.002 -0.437,-0.0834 -0.15,-0.0896 -0.251,-0.2085 -0.301,-0.3567 -0.051,-0.1481 -0.024,-0.3092 0.079,-0.4832 0.108,-0.1803 0.237,-0.2803 0.388,-0.3 0.154,-0.0259 0.306,0.006 0.457,0.0956 z m -0.676,2.1372 -2.979,4.997 -0.902,-0.537 2.978,-4.998 z m 4.445,2.522 c 0.656,0.392 1.065,0.833 1.226,1.325 0.164,0.485 0.054,1.051 -0.331,1.698 l -1.94,3.254 -0.892,-0.532 1.906,-3.198 c 0.478,-0.802 0.307,-1.447 -0.514,-1.936 -0.608,-0.363 -1.121,-0.458 -1.539,-0.286 -0.418,0.173 -0.801,0.551 -1.149,1.135 l -1.545,2.592 -0.902,-0.538 2.978,-4.997 0.728,0.434 -0.272,0.76 0.051,0.03 c 0.334,-0.155 0.695,-0.201 1.083,-0.138 0.393,0.057 0.763,0.19 1.112,0.397 z"
       id="text-min"
       aria-label="Min" />
    <ellipse
       style="fill:none;stroke:#000000;stroke-width:2.13543"
       id="path1"
       cx="130.02077"
       cy="119.61302"
       rx="0.56708926"
       ry="0.63797539"
       inkscape:label="rotation_axis" />
    <text
       xml:space="preserve"
       style="stroke:var(--v-outline-base);fill:var(--v-outline-base);font-size:14.6667px;line-height:1.25;font-family:sans-serif;letter-spacing:0px;word-spacing:0px"
       x="2.6936729"
       y="73.891449"
       id="text1"
       inkscape:label="angle"><tspan
         sodipodi:role="line"
         id="text-angle"
         x="2.6936729"
         y="73.891449">Angle:</tspan></text>
    <text
       xml:space="preserve"
       style="stroke:var(--v-outline-base);fill:var(--v-outline-base);font-size:14.6667px;line-height:1.25;font-family:sans-serif;letter-spacing:0px;word-spacing:0px"
       x="1.2507324"
       y="60.649467"
       id="text1-3"
       inkscape:label="pwmlabel"><tspan
         sodipodi:role="line"
         id="text-pwm"
         x="1.2507324"
         y="60.649467">PWM:</tspan></text>
    <path
       style="stroke:var(--v-outline-base);fill:var(--v-outline-base);;stroke-width:1.5px;stroke-linecap:round;stroke-linejoin:miter;stroke-opacity:1"
       d="m 212.74491,66.37752 c 0.0945,0.02363 0.18745,0.05487 0.28354,0.07089 0.19714,0.03286 0.43898,0 0.63798,0 0.75612,0 1.51516,-0.06646 2.26836,0 0.40089,0.08591 1.40011,0.315915 1.84304,0.354431 0.25894,0.02252 0.52059,-0.01994 0.77975,0 0.0527,0.0041 0.0916,0.05418 0.14177,0.07089 0.088,0.02932 0.28253,-0.01198 0.35443,0 0.0737,0.01228 0.13869,0.06032 0.21266,0.07089 0.33366,0.04767 0.72893,0 1.06329,0 0.827,0 1.65401,0 2.48101,0"
       id="path14" />
    <path
       style="stroke:var(--v-outline-base);fill:var(--v-outline-base);;stroke-width:2.5px;stroke-linecap:round;stroke-linejoin:miter;stroke-opacity:1"
       d="m 216.07656,162.64092 c 3.52516,0.21307 7.04449,0.22147 10.5601,0.1344 0.70965,-0.0176 1.41915,-0.039 2.12852,-0.0635"
       id="path18" />
    <path
       style="stroke:var(--v-outline-base);fill:var(--v-outline-base);;stroke-width:1.5px;stroke-linecap:round;stroke-linejoin:miter;stroke-opacity:1"
       d="m 222.66897,158.17509 c 0.2819,3.54214 0.57197,6.90053 0.42532,10.42026"
       id="path19" />
  </g>
</svg>
